<svg width="594" height="547" viewBox="0 0 594 547" fill="none" xmlns="http://www.w3.org/2000/svg">
<g opacity="0.2" filter="url(#filter0_d)">
<path d="M185 26H374.351L433 84.6486V274H243.649L185 215.351V26Z" fill="white"/>
</g>
<g opacity="0.28" filter="url(#filter1_d)">
<path d="M310 259H503.932L564 319.068V513H370.068L310 452.932V259Z" fill="white"/>
</g>
<g opacity="0.2" filter="url(#filter2_d)">
<path d="M30 206H230.041L292 267.959V468H91.9595L30 406.041V206Z" fill="white"/>
</g>
<path d="M375.408 378.234C379.692 376.596 381.096 374.022 381.096 369.63H385.2V368.244H381.042C381.042 368.244 381.042 368.244 381.042 366.462C381.06 365.994 381.078 365.544 381.096 365.256C381.402 365.22 381.6 365.058 381.6 364.914C381.6 364.824 381.528 364.59 379.8 364.59C379.728 364.59 379.674 364.59 379.602 364.59C379.62 365.022 379.62 365.274 379.62 368.244H375.948V366.516C375.948 366.516 375.948 366.39 375.948 366.228C375.948 365.976 375.948 365.598 375.984 365.328C376.272 365.292 376.47 365.13 376.47 364.986C376.47 364.77 375.912 364.698 374.724 364.698C374.634 364.698 374.544 364.698 374.472 364.698C374.508 365.256 374.508 366.318 374.508 366.318V368.244H370.188V369.63H374.508V373.608H375.948V369.63H379.62V370.17C379.566 374.022 377.856 376.092 373.824 377.1L375.408 378.234Z" fill="#1624BE"/>
<path d="M388.8 371.898H402.534V370.386H388.8V371.898Z" fill="#1624BE"/>
<path d="M417.608 365.238C418.22 365.616 419.21 366.624 419.606 367.218L420.524 366.39C420.11 365.814 419.21 364.986 418.454 364.536L417.608 365.238ZM415.862 366.264C416.6 366.768 417.554 367.848 417.914 368.478L418.868 367.686C418.436 367.074 417.428 366.084 416.744 365.616L415.862 366.264ZM420.056 375.444C419.336 373.086 416.69 368.964 414.692 366.912L413.378 367.542C415.754 370.224 417.572 373.5 418.364 376.236L420.056 375.444ZM406.736 376.56C408.626 374.778 410.246 371.556 411.47 367.542L409.832 367.092C409.166 370.08 407.582 373.734 404.882 375.876L406.736 376.56Z" fill="#1624BE"/>
<path d="M423.728 371.898H437.462V370.386H423.728V371.898Z" fill="#1624BE"/>
<path d="M455.048 368.424C453.644 370.692 449.666 374.58 445.904 375.516C445.904 375.03 445.922 370.674 445.94 367.722C445.94 367.308 445.94 366.93 445.976 366.57C446.354 366.534 446.57 366.372 446.57 366.228C446.57 366.102 446.444 365.994 446.192 365.958C445.778 365.904 444.572 365.868 444.374 365.85C444.41 366.354 444.428 367.272 444.428 367.596C444.428 367.596 444.41 374.094 444.41 375.642C444.41 375.804 444.284 375.93 444.284 376.074C444.284 376.236 445.364 377.514 445.616 377.514C445.724 377.514 445.796 377.406 445.85 377.244C450.206 375.948 454.184 372.33 455.732 370.35L455.048 368.424Z" fill="#1624BE"/>
<path d="M460.636 377.658C463.264 376.506 465.262 374.742 466.792 372.852C468.322 374.094 470.284 375.948 471.562 377.658L472.984 376.56C471.58 374.976 469.24 372.942 467.62 371.772C468.772 370.17 469.618 368.568 470.302 367.218C470.482 367.164 470.734 367.092 470.734 366.948C470.734 366.804 470.518 366.642 469.6 366.012C469.546 365.976 469.51 365.958 469.474 365.958C469.366 365.958 469.294 366.066 469.132 366.066L461.374 366.12V367.488L468.43 367.452C467.026 370.44 464.686 374.346 459.106 376.56L460.636 377.658Z" fill="#1624BE"/>
<path d="M490.21 367.686C490.768 368.226 491.452 369.198 491.812 369.954L492.82 369.324C492.388 368.406 491.452 367.434 491.146 367.146L490.21 367.686ZM488.32 368.28C488.86 368.874 489.634 369.936 489.94 370.782L490.984 370.206C490.624 369.306 489.616 368.118 489.292 367.776L488.32 368.28ZM478.096 368.46C480.274 368.154 483.118 367.146 486.16 366.732C483.37 368.622 482.092 371.034 482.092 372.834C482.092 376.632 486.322 377.694 488.032 377.946L489.364 376.398C486.952 376.326 483.514 375.606 483.514 372.6C483.514 370.206 486.556 367.524 488.284 366.858C488.968 366.588 489.526 366.462 490.372 366.426C490.498 366.48 490.588 366.516 490.66 366.516C490.768 366.516 490.822 366.462 490.822 366.354C490.822 366.12 490.282 364.878 490.12 364.878C490.048 364.878 489.976 364.914 489.886 364.95C489.832 364.968 489.76 364.986 489.67 365.004C483.334 365.706 480.058 366.822 477.43 366.822C477.322 366.822 477.268 366.876 477.268 366.93C477.268 366.966 477.286 367.002 477.304 367.038L478.096 368.46Z" fill="#1624BE"/>
<path d="M502.216 377.946C505.582 377.37 509.29 375.156 509.29 371.052C509.29 367.992 506.554 365.454 502.882 365.454C498.76 365.454 495.412 369.108 495.412 372.456C495.412 374.418 496.762 376.29 498.112 376.29C498.67 376.29 499.282 375.984 499.876 375.282C500.848 374.13 503.26 370.638 503.26 367.38C503.26 367.146 503.26 366.894 503.224 366.66C506.338 366.894 507.76 369.18 507.76 371.034C507.76 374.796 503.89 376.308 500.506 376.56L502.216 377.946ZM501.766 366.75C501.784 366.984 501.802 367.2 501.802 367.434C501.802 370.08 499.966 373.014 498.796 374.292C498.544 374.562 498.292 374.724 498.058 374.724C497.608 374.724 496.726 373.788 496.726 372.366C496.726 370.008 499.138 367.308 501.766 366.75Z" fill="#1624BE"/>
<path d="M364.904 400.92C364.904 401.604 364.256 401.766 363.554 401.766C362.996 401.766 362.402 401.658 362.06 401.622C362.204 401.82 363.05 403.098 363.05 403.098C363.248 403.116 363.464 403.116 363.68 403.116C364.958 403.116 366.272 402.774 366.272 401.154C366.272 400.29 366.236 398.508 366.236 398.508V387.654H359.882V393.738H361.106V393.306H364.904V400.92ZM355.04 402.972C357.164 402.162 357.794 400.29 357.956 398.778H360.098V402.72H361.358V398.778H363.716V397.662H361.358V395.952H363.194V394.854H354.698V395.952H356.786C356.786 396.42 356.804 397.032 356.804 397.572V397.662H354.176V398.778H356.732C356.552 400.128 355.904 401.658 353.708 402L355.04 402.972ZM351.8 403.26H353.132V393.306H356.822V393.738H358.028V387.654H351.8V403.26ZM361.106 389.922V388.716H364.904V389.922H361.106ZM361.106 392.262V390.966H364.904V392.262H361.106ZM353.132 389.922V388.716H356.822V389.922H353.132ZM353.132 392.262V390.966H356.822V392.262H353.132ZM358.01 397.662V397.626C358.01 397.014 358.028 396.258 358.046 395.952H360.098V397.662H358.01Z" fill="#1624BE"/>
<path d="M369.944 403.242C374.21 402.432 375.326 399.534 375.596 397.932H378.026V400.938C378.026 402.72 379.646 402.846 380.996 402.846C382.184 402.846 383.498 402.756 384.092 401.604C384.38 401.082 384.614 399.894 384.614 399.894L383.246 398.76C383.228 399.12 383.066 400.128 382.94 400.488C382.688 401.19 382.436 401.514 381.194 401.514C379.664 401.514 379.412 401.226 379.376 400.632C379.376 400.632 379.376 400.632 379.376 397.932H383.822V396.654H379.376V394.134H380.708V393.414C381.77 394.224 382.94 394.98 384.236 395.556L385.658 394.548C384.254 394.08 382.976 393.414 381.86 392.64C382.778 391.812 383.696 390.768 383.696 390.768C383.822 390.804 383.93 390.822 384.002 390.822C384.164 390.822 384.236 390.768 384.236 390.678C384.236 390.624 384.182 390.534 384.074 390.444C383.624 390.048 382.904 389.652 382.904 389.652C382.526 390.3 381.644 391.29 380.906 391.956C380.384 391.542 379.898 391.128 379.466 390.696C380.42 389.868 381.464 388.68 381.464 388.68C381.608 388.716 381.716 388.734 381.806 388.734C381.95 388.734 382.022 388.698 382.022 388.626C382.022 388.554 381.968 388.482 381.86 388.392C381.392 387.978 380.672 387.564 380.672 387.564C380.294 388.23 379.394 389.238 378.656 389.886C378.188 389.382 377.792 388.914 377.45 388.464C377.648 388.41 377.738 388.32 377.738 388.23C377.738 387.942 376.82 387.582 376.766 387.564H376.748C376.658 387.564 376.514 387.69 376.514 387.69H371.762L371.78 388.824L375.884 388.806C375.128 390.048 372.014 393.666 368.36 394.818L369.692 395.754C370.916 395.25 372.158 394.368 373.292 393.396V394.134H374.354C374.372 394.458 374.39 394.98 374.39 395.538C374.39 395.916 374.372 396.294 374.354 396.654H370.088V397.932H374.228C373.94 399.264 372.95 401.658 368.63 402.072L369.944 403.242ZM370.088 389.922C370.088 389.922 371.276 390.786 372.248 391.902L373.256 390.984C372.122 389.922 370.988 389.148 370.988 389.148L370.088 389.922ZM373.76 392.982C375.074 391.794 376.172 390.516 376.838 389.526C377.63 390.552 378.764 391.812 380.186 392.982H373.76ZM375.704 396.654C375.704 396.438 375.722 396.186 375.722 394.134H378.026V396.654H375.704Z" fill="#1624BE"/>
<path d="M388.538 395.484C389.24 395.268 390.14 394.782 391.31 394.134L391.616 393.954C393.074 397.086 394.784 400.47 395.378 402.522L396.908 401.802C395.882 399.426 394.064 396.258 392.714 393.36C395.648 391.776 397.34 391.2 398.708 391.2C400.202 391.2 400.832 391.938 400.832 392.748C400.832 393.684 399.968 395.142 397.682 395.142C396.782 395.142 395.792 394.926 394.874 394.692L395.702 396.348C396.278 396.456 396.89 396.528 397.502 396.528C400.958 396.528 402.362 394.386 402.362 392.748C402.362 391.326 401.3 390.03 398.978 390.03C398.348 390.03 397.34 390.156 396.674 390.372C396.35 389.58 395.594 388.518 394.784 387.924L393.578 388.41C394.622 389.364 395.054 390.192 395.288 390.822C394.262 391.218 393.218 391.722 392.21 392.226C391.814 391.308 391.508 390.444 391.292 389.67C391.526 389.544 391.67 389.4 391.67 389.292C391.67 389.22 391.58 389.148 391.4 389.148C391.346 389.148 391.292 389.148 391.22 389.166C390.68 389.256 389.708 389.49 389.708 389.49C390.032 390.444 390.518 391.578 391.076 392.784L390.68 392.982C389.492 393.576 388.43 393.936 387.368 394.188C387.35 394.188 387.278 394.224 387.278 394.26C387.278 394.278 387.296 394.314 387.314 394.332L388.538 395.484Z" fill="#1624BE"/>
<path d="M409.598 399.642H414.332V401.226H415.466V399.642H420.632V398.472H415.466V397.176H418.238V397.77H419.3V392.19H415.466V391.074H419.696V390.426H420.65V387.708H409.544V390.48H410.48V391.074H414.332V392.19H410.912V397.86H411.956V397.176H414.332V398.472H409.598V399.642ZM405.476 388.32C405.476 388.32 407.132 389.544 408.122 391.074L409.22 390.102C407.996 388.644 406.466 387.546 406.466 387.546L405.476 388.32ZM407.384 399.678C407.384 399.678 406.034 401.028 404.612 401.784C404.612 401.784 405.314 402.54 405.674 402.918C405.8 403.044 405.89 403.08 405.962 403.08C406.052 403.08 406.106 402.99 406.106 402.846C406.106 402.756 406.088 402.63 406.034 402.504C406.988 401.802 408.032 400.704 408.032 400.704C409.562 402.738 411.776 402.882 415.106 402.882C416.996 402.882 419.03 402.774 420.542 402.648L421.442 401.154C419.552 401.406 417.05 401.586 414.818 401.586C411.614 401.586 409.652 401.334 408.68 399.588V394.206H405.098V395.448H407.384V399.678ZM410.75 390.012V388.86H419.372V390.012H415.466C415.466 389.94 415.466 389.814 415.484 389.724C415.79 389.688 415.934 389.58 415.934 389.472C415.934 389.364 415.79 389.274 415.592 389.238C415.25 389.184 414.296 389.148 414.296 389.148C414.332 389.598 414.332 389.778 414.332 390.012H410.75ZM415.466 394.188V393.144H418.238V394.188H415.466ZM415.466 396.204V395.142H418.238V396.204H415.466ZM411.956 394.188V393.144H414.332V394.188H411.956ZM411.956 396.204V395.142H414.332V396.204H411.956Z" fill="#1624BE"/>
<path d="M424.232 403.062C425.438 401.352 425.978 399.372 426.212 397.482H430.424V402.81H431.774V397.482H436.238V400.578C436.238 401.208 435.824 401.55 434.672 401.55C434.15 401.55 433.466 401.478 432.584 401.334L433.574 402.99C433.844 403.008 434.114 403.008 434.402 403.008C435.986 403.008 437.642 402.72 437.642 400.776C437.642 400.758 437.642 400.74 437.642 400.722C437.624 400.308 437.588 399.552 437.588 398.67V388.068H424.952C424.952 388.068 425.06 391.956 425.06 394.152C425.06 396.456 424.862 400.434 422.648 402.576L424.232 403.062ZM431.774 392.118V389.274H436.238V392.118H431.774ZM431.774 396.258V393.324H436.238V396.258H431.774ZM426.392 392.118C426.374 390.516 426.338 389.274 426.338 389.274H430.424V392.118H426.392ZM426.338 396.258C426.374 395.754 426.392 395.25 426.392 394.764C426.41 394.278 426.41 393.792 426.41 393.324H430.424V396.258H426.338Z" fill="#1624BE"/>
<path d="M443.888 403.26H445.202L445.166 395.52C445.688 395.448 446.138 395.358 446.516 395.304C446.624 395.736 446.732 396.168 446.804 396.6L447.92 396.168C447.812 395.682 447.668 395.196 447.506 394.746L448.766 395.61C450.296 394.962 451.466 394.26 452.384 393.522C453.446 394.314 454.724 394.98 456.272 395.484L457.658 394.35C455.93 394.008 454.49 393.432 453.338 392.694C454.634 391.416 455.3 390.102 455.876 389.004C456.056 388.968 456.236 388.878 456.236 388.752C456.236 388.608 455.372 387.906 455.246 387.906C455.156 387.906 455.048 388.032 454.904 388.032H447.938V389.148H449.036C449.576 390.48 450.35 391.686 451.43 392.712C450.476 393.45 449.198 394.116 447.47 394.638C447.02 393.342 446.516 392.262 446.426 392.1L445.436 392.496C445.706 392.982 445.976 393.594 446.192 394.26C445.562 394.368 444.59 394.512 443.528 394.62C444.95 392.766 446.642 390.21 446.804 389.958C446.894 389.976 446.966 389.976 447.02 389.976C447.254 389.976 447.362 389.886 447.362 389.778C447.362 389.67 447.236 389.436 445.868 388.788C445.652 389.328 444.914 390.66 443.96 392.136C443.708 391.848 443.384 391.488 443.006 391.128C443.744 390.138 444.752 388.32 444.896 388.068C444.986 388.104 445.094 388.122 445.184 388.122C445.346 388.122 445.472 388.068 445.472 387.96C445.472 387.744 444.86 387.438 443.888 387.006C443.834 387.168 442.988 389.274 442.178 390.354C441.98 390.192 441.782 390.012 441.584 389.868L440.99 390.804C441.98 391.56 442.808 392.514 443.294 393.108C442.898 393.666 442.484 394.224 442.07 394.728C441.656 394.764 441.26 394.764 440.864 394.782C440.882 394.854 441.008 395.394 441.17 396.096C441.242 396.348 441.332 396.456 441.422 396.456C441.53 396.456 441.638 396.276 441.674 395.988C442.466 395.898 443.222 395.808 443.924 395.7L443.888 403.26ZM447.506 402.612H457.1V401.388H452.942V398.652H456.326V397.428H452.942V396.456C452.942 396.456 452.942 395.826 452.978 395.628C453.356 395.556 453.572 395.394 453.572 395.25C453.572 395.16 453.482 395.07 453.248 395.034C452.852 394.98 451.628 394.854 451.628 394.854C451.664 395.214 451.682 396.402 451.682 396.402V397.428H448.19V398.652H451.682V401.388H447.506V402.612ZM447.974 400.596C447.632 398.976 446.804 397.158 446.714 396.942L445.652 397.302C445.742 397.482 446.48 399.21 446.786 401.046L447.974 400.596ZM441.836 402.432C442.7 400.254 443.06 398.184 443.096 397.896C443.438 397.878 443.582 397.734 443.582 397.608C443.582 397.5 443.51 397.41 443.366 397.374C443.258 397.356 442.376 397.14 441.998 397.068C441.98 397.248 441.746 399.876 440.504 402.162L441.836 402.432ZM454.328 389.148C453.914 389.994 453.338 390.984 452.348 391.938C451.394 391.11 450.728 390.138 450.35 389.148H454.328Z" fill="#1624BE"/>
<path d="M462.482 402.756C462.536 402.756 462.59 402.756 462.644 402.756C464.786 402.756 465.128 401.622 465.362 400.686C465.488 400.092 465.632 397.392 465.632 395.718C465.632 395.556 465.632 395.376 465.632 395.232H463.472V393.702H465.2V392.676L466.208 393.234C466.856 392.802 467.414 392.316 467.9 391.848V392.478H469.7V393.756H466.622V398.688H467.738V397.896H469.538C469.016 400.254 467.342 401.658 464.732 402.27L465.956 403.206C468.116 402.468 469.664 401.046 470.384 399.048C470.924 400.362 472.058 402.108 474.398 403.062L475.766 401.964C472.67 401.316 471.428 399.228 470.978 397.896H473.138V398.49H474.272V393.756H470.834V392.478H472.796V391.794C473.3 392.226 473.858 392.658 474.434 393L475.73 392.154C473.12 390.912 471.41 388.752 470.78 387.834L470.798 387.762C470.816 387.762 470.834 387.762 470.852 387.762C471.122 387.762 471.248 387.69 471.248 387.582C471.248 387.51 471.14 387.402 470.924 387.366C470.726 387.33 469.898 387.114 469.898 387.114C469.898 387.114 468.458 390.678 464.966 392.55L465.092 392.604H463.472V391.236H465.38V390.138H463.472V388.734H465.614V387.654H459.674V396.78H460.772V396.24H464.444C464.444 396.546 464.462 396.888 464.462 397.212C464.462 400.632 464.318 401.388 462.95 401.388C462.518 401.388 461.906 401.37 461.672 401.316L462.482 402.756ZM464.156 399.246C464.03 398.238 463.49 396.762 463.49 396.762L462.86 396.996C463.31 398.49 463.436 399.588 463.436 399.588L464.156 399.246ZM462.968 399.912C462.914 398.922 462.464 397.014 462.464 397.014L461.798 397.158C462.14 398.67 462.176 400.218 462.176 400.218L462.968 399.912ZM461.582 400.452C461.6 400.29 461.6 400.11 461.6 399.894C461.6 398.76 461.456 397.158 461.456 397.158L460.718 397.266C460.772 397.824 460.79 398.382 460.79 398.886C460.79 399.894 460.718 400.668 460.718 400.668L461.582 400.452ZM459.818 401.928C460.268 400.29 460.376 397.23 460.376 397.23L459.44 397.158C459.35 400.146 458.792 401.802 458.792 401.802L459.818 401.928ZM468.35 391.398C469.232 390.48 469.844 389.562 470.24 388.896C470.672 389.508 471.41 390.462 472.382 391.398H468.35ZM470.816 396.852C470.834 396.708 470.834 396.564 470.834 396.402V394.782H473.138V396.852H470.816ZM467.738 396.852V394.782H469.7V396.276C469.7 396.474 469.7 396.654 469.682 396.852H467.738ZM460.772 390.138V388.734H462.392V390.138H460.772ZM460.772 392.604V391.236H462.392V392.604H460.772ZM460.772 395.232V393.702H462.392V395.232H460.772Z" fill="#1624BE"/>
<path d="M490.472 388.608C491.228 388.914 492.272 389.634 492.776 390.192L493.532 389.238C493.01 388.68 491.786 388.014 491.21 387.798L490.472 388.608ZM488.942 389.904C489.716 390.282 490.778 391.02 491.282 391.65L492.074 390.732C491.516 390.066 490.346 389.418 489.698 389.13L488.942 389.904ZM488.078 392.46C488.042 392.478 488.006 392.514 488.006 392.55C488.006 392.568 488.042 392.604 488.096 392.64C490.616 393.882 491.714 395.664 491.93 397.356C491.948 397.428 491.966 397.464 492.002 397.464C492.038 397.464 492.074 397.446 492.11 397.428L493.406 396.726C493.244 394.998 491.606 393.216 489.32 391.848L488.078 392.46ZM479.276 402.018C481.004 398.724 482.372 396.096 483.56 393.234C484.064 393.144 484.532 393.072 484.73 393.072C485.738 393.072 486.008 393.936 486.008 395.25C486.008 396.438 485.774 397.914 485.468 398.76C485.09 399.822 484.334 400.29 483.506 400.29C482.75 400.29 481.94 399.894 481.328 399.264L481.526 401.172C482.12 401.586 482.786 401.802 483.452 401.802C484.928 401.802 487.394 400.92 487.394 395.394C487.394 393.36 486.908 391.884 485.036 391.884C484.838 391.884 484.64 391.902 484.442 391.938L484.046 392.01C484.406 390.966 484.802 389.706 484.892 389.238C485.252 389.22 485.486 389.076 485.486 388.95C485.486 388.842 485.378 388.752 485.162 388.698C484.73 388.572 483.434 388.356 483.434 388.356C483.38 389.616 482.948 391.038 482.516 392.244C481.796 392.37 480.266 392.604 479.474 392.604C478.97 392.604 478.52 392.568 478.142 392.514C478.124 392.514 478.106 392.514 478.088 392.514C478.034 392.514 478.016 392.514 478.016 392.568C478.016 392.586 478.016 392.622 478.034 392.658L478.502 394.026C478.592 394.026 478.682 394.026 478.772 394.026C479.402 394.026 480.266 393.918 481.202 393.702C481.472 393.648 481.742 393.576 482.012 393.522C480.896 396.186 479.312 398.976 477.656 401.748L479.276 402.018Z" fill="#1624BE"/>
<path d="M505.106 392.046C505.106 392.064 505.106 392.064 505.106 392.082C505.106 392.118 505.124 392.118 505.25 392.118C505.502 392.1 505.754 392.1 506.006 392.1C507.716 392.1 509.012 392.478 509.624 393.054C509.66 393.09 509.678 393.09 509.696 393.09C509.732 393.09 509.75 393.054 509.768 393L510.218 391.794C509.57 391.074 507.752 390.876 506.222 390.876C505.916 390.876 505.61 390.876 505.322 390.894L505.106 392.046ZM510.398 400.56C509.57 399.786 507.644 398.67 506.474 398.238C506.438 397.5 506.348 396.69 506.348 395.88C506.348 395.394 506.384 394.908 506.474 394.44C506.798 394.386 506.96 394.26 506.96 394.152C506.96 394.044 506.852 393.954 506.6 393.9C506.168 393.81 505.16 393.738 505.16 393.738C505.106 394.062 505.088 394.512 505.088 395.016C505.088 395.934 505.142 397.014 505.196 397.914C504.656 397.806 504.026 397.716 503.378 397.716C501.182 397.716 500.066 398.742 500.066 399.804C500.066 400.938 501.506 402.054 503.234 402.054C504.854 402.054 506.33 401.064 506.492 399.57C507.374 400.056 508.562 400.902 509.174 401.568L510.398 400.56ZM498.158 399.174C499.238 397.158 501.038 393.792 502.082 390.984C502.946 390.768 503.864 390.534 504.62 390.318L504.548 388.968C503.954 389.202 503.162 389.436 502.388 389.67C502.514 389.202 502.622 388.698 502.712 388.266C503.054 388.212 503.216 388.104 503.234 387.978C503.234 387.762 503.072 387.708 501.236 387.546C501.236 388.626 500.948 389.724 500.858 390.048C499.778 390.282 499.328 390.318 498.986 390.318C498.266 390.318 497.636 390.138 496.844 389.814H496.826C496.772 389.814 496.754 389.832 496.754 389.886C496.754 389.904 496.754 389.904 496.754 389.922L497.024 391.272C497.492 391.47 498.014 391.56 498.572 391.56C498.986 391.56 499.418 391.524 499.886 391.434C500.084 391.398 500.318 391.344 500.552 391.308C499.472 394.116 497.708 397.104 496.574 398.85L498.158 399.174ZM505.232 399.174C505.124 400.182 504.278 400.812 503.234 400.812C502.424 400.812 501.344 400.398 501.344 399.786C501.344 399.192 502.208 398.85 503.342 398.85C503.99 398.85 504.692 398.958 505.232 399.174Z" fill="#1624BE"/>
<path d="M528.506 398.4C528.506 398.346 528.506 398.292 528.506 398.238C528.506 395.898 526.706 392.46 524.762 390.75L523.394 391.182C525.428 393.072 526.832 396.168 526.832 398.67C526.832 398.76 526.832 398.85 526.832 398.94C526.832 398.958 526.832 398.976 526.832 398.976C526.832 399.048 526.85 399.084 526.886 399.084C526.922 399.084 526.94 399.066 526.976 399.048L528.506 398.4ZM520.496 396.474C519.686 398.58 519.182 399.498 518.48 399.498C518.336 399.498 518.174 399.462 517.994 399.372C516.446 398.634 516.086 397.122 516.086 395.214C516.086 395.016 516.104 394.818 516.104 394.602C516.122 393.792 516.176 392.46 516.194 391.668C516.5 391.614 516.644 391.488 516.644 391.38C516.644 391.29 516.518 391.182 516.338 391.164C515.888 391.092 514.718 390.984 514.718 390.984C514.682 390.966 514.664 390.966 514.646 390.966C514.592 390.966 514.556 391.002 514.556 391.074C514.61 391.794 514.61 392.244 514.61 394.584C514.628 396.834 514.952 399.57 517.4 400.794C517.778 400.974 518.156 401.1 518.552 401.1C519.434 401.1 520.388 400.47 521.504 398.4L520.496 396.474Z" fill="#1624BE"/>
<path d="M95.2644 336.92C95.2644 337.604 94.6164 337.766 93.9144 337.766C93.3564 337.766 92.7624 337.658 92.4204 337.622C92.5644 337.82 93.4104 339.098 93.4104 339.098C93.6084 339.116 93.8244 339.116 94.0404 339.116C95.3184 339.116 96.6324 338.774 96.6324 337.154C96.6324 336.29 96.5964 334.508 96.5964 334.508V323.654H90.2424V329.738H91.4664V329.306H95.2644V336.92ZM85.4004 338.972C87.5244 338.162 88.1544 336.29 88.3164 334.778H90.4584V338.72H91.7184V334.778H94.0764V333.662H91.7184V331.952H93.5544V330.854H85.0584V331.952H87.1464C87.1464 332.42 87.1644 333.032 87.1644 333.572V333.662H84.5364V334.778H87.0924C86.9124 336.128 86.2644 337.658 84.0684 338L85.4004 338.972ZM82.1604 339.26H83.4924V329.306H87.1824V329.738H88.3884V323.654H82.1604V339.26ZM91.4664 325.922V324.716H95.2644V325.922H91.4664ZM91.4664 328.262V326.966H95.2644V328.262H91.4664ZM83.4924 325.922V324.716H87.1824V325.922H83.4924ZM83.4924 328.262V326.966H87.1824V328.262H83.4924ZM88.3704 333.662V333.626C88.3704 333.014 88.3884 332.258 88.4064 331.952H90.4584V333.662H88.3704Z" fill="#1624BE"/>
<path d="M100.304 339.242C104.57 338.432 105.686 335.534 105.956 333.932H108.386V336.938C108.386 338.72 110.006 338.846 111.356 338.846C112.544 338.846 113.858 338.756 114.452 337.604C114.74 337.082 114.974 335.894 114.974 335.894L113.606 334.76C113.588 335.12 113.426 336.128 113.3 336.488C113.048 337.19 112.796 337.514 111.554 337.514C110.024 337.514 109.772 337.226 109.736 336.632C109.736 336.632 109.736 336.632 109.736 333.932H114.182V332.654H109.736V330.134H111.068V329.414C112.13 330.224 113.3 330.98 114.596 331.556L116.018 330.548C114.614 330.08 113.336 329.414 112.22 328.64C113.138 327.812 114.056 326.768 114.056 326.768C114.182 326.804 114.29 326.822 114.362 326.822C114.524 326.822 114.596 326.768 114.596 326.678C114.596 326.624 114.542 326.534 114.434 326.444C113.984 326.048 113.264 325.652 113.264 325.652C112.886 326.3 112.004 327.29 111.266 327.956C110.744 327.542 110.258 327.128 109.826 326.696C110.78 325.868 111.824 324.68 111.824 324.68C111.968 324.716 112.076 324.734 112.166 324.734C112.31 324.734 112.382 324.698 112.382 324.626C112.382 324.554 112.328 324.482 112.22 324.392C111.752 323.978 111.032 323.564 111.032 323.564C110.654 324.23 109.754 325.238 109.016 325.886C108.548 325.382 108.152 324.914 107.81 324.464C108.008 324.41 108.098 324.32 108.098 324.23C108.098 323.942 107.18 323.582 107.126 323.564H107.108C107.018 323.564 106.874 323.69 106.874 323.69H102.122L102.14 324.824L106.244 324.806C105.488 326.048 102.374 329.666 98.7204 330.818L100.052 331.754C101.276 331.25 102.518 330.368 103.652 329.396V330.134H104.714C104.732 330.458 104.75 330.98 104.75 331.538C104.75 331.916 104.732 332.294 104.714 332.654H100.448V333.932H104.588C104.3 335.264 103.31 337.658 98.9904 338.072L100.304 339.242ZM100.448 325.922C100.448 325.922 101.636 326.786 102.608 327.902L103.616 326.984C102.482 325.922 101.348 325.148 101.348 325.148L100.448 325.922ZM104.12 328.982C105.434 327.794 106.532 326.516 107.198 325.526C107.99 326.552 109.124 327.812 110.546 328.982H104.12ZM106.064 332.654C106.064 332.438 106.082 332.186 106.082 330.134H108.386V332.654H106.064Z" fill="#1624BE"/>
<path d="M131.282 327.686C131.84 328.226 132.524 329.198 132.884 329.954L133.892 329.324C133.46 328.406 132.524 327.434 132.218 327.146L131.282 327.686ZM129.392 328.28C129.932 328.874 130.706 329.936 131.012 330.782L132.056 330.206C131.696 329.306 130.688 328.118 130.364 327.776L129.392 328.28ZM119.168 328.46C121.346 328.154 124.19 327.146 127.232 326.732C124.442 328.622 123.164 331.034 123.164 332.834C123.164 336.632 127.394 337.694 129.104 337.946L130.436 336.398C128.024 336.326 124.586 335.606 124.586 332.6C124.586 330.206 127.628 327.524 129.356 326.858C130.04 326.588 130.598 326.462 131.444 326.426C131.57 326.48 131.66 326.516 131.732 326.516C131.84 326.516 131.894 326.462 131.894 326.354C131.894 326.12 131.354 324.878 131.192 324.878C131.12 324.878 131.048 324.914 130.958 324.95C130.904 324.968 130.832 324.986 130.742 325.004C124.406 325.706 121.13 326.822 118.502 326.822C118.394 326.822 118.34 326.876 118.34 326.93C118.34 326.966 118.358 327.002 118.376 327.038L119.168 328.46Z" fill="#1624BE"/>
<path d="M137.69 330.656C138.518 330.908 139.31 331.052 140.246 331.052C141.452 331.052 142.892 330.818 144.962 330.314C145.52 331.268 145.97 332.078 146.204 332.69C145.664 332.582 144.692 332.474 143.594 332.474C140.03 332.474 138.284 333.518 138.284 335.264C138.284 337.388 141.11 338.396 143.828 338.396C144.8 338.396 146.114 338.198 146.672 338.018L146.96 336.344C146.114 336.632 144.98 336.938 143.828 336.938C143.792 336.938 143.774 336.938 143.738 336.938C141.83 336.938 139.706 336.38 139.706 335.138C139.706 333.77 142.514 333.68 143.234 333.68C144.656 333.68 146.096 334.004 147.068 334.598L148.346 334.22C147.95 332.852 147.104 331.556 146.132 330.026C147.626 329.612 148.562 329.234 149.228 328.982L148.508 327.686C147.86 328.01 146.906 328.442 145.394 328.856C145.07 328.352 144.746 327.794 144.44 327.2C145.538 326.948 146.546 326.66 147.212 326.372L146.6 325.13C145.952 325.436 145.25 325.706 143.828 326.048C143.558 325.508 143.288 324.914 143.036 324.284C143.27 324.14 143.432 323.96 143.432 323.834C143.432 323.726 143.342 323.672 143.144 323.672C142.838 323.672 141.794 323.834 141.416 323.906C141.812 324.77 142.226 325.562 142.64 326.336C142.01 326.462 141.524 326.534 141.074 326.534C140.372 326.534 139.796 326.354 138.914 325.976C138.896 325.976 138.878 325.958 138.86 325.958C138.824 325.958 138.806 325.994 138.806 326.03C138.806 326.03 138.806 326.03 138.806 326.048L139.004 327.434C139.67 327.668 140.228 327.812 140.912 327.812C141.524 327.812 142.262 327.704 143.288 327.47C143.63 328.064 143.954 328.64 144.278 329.162C142.766 329.54 141.65 329.72 140.66 329.72C139.634 329.72 138.77 329.522 137.744 329.144C137.708 329.126 137.69 329.126 137.654 329.126C137.6 329.126 137.582 329.162 137.582 329.216C137.582 329.234 137.582 329.234 137.582 329.252L137.69 330.656Z" fill="#1624BE"/>
<path d="M156.356 334.274C157.526 332.87 158.804 331.556 161.54 331.106C161.918 331.052 162.314 330.998 162.71 330.998C164.204 330.998 165.59 331.556 165.59 333.338C165.59 334.688 164.42 336.128 162.368 336.596C162.368 336.524 162.386 336.452 162.386 336.38C162.386 334.922 161.072 333.896 159.506 333.896C157.922 333.896 157.148 334.832 157.148 335.696C157.148 337.316 159.398 338.054 161.18 338.054C164.744 338.054 167.192 335.642 167.192 333.248C167.192 331.16 165.248 329.882 162.926 329.882C162.116 329.882 161.072 330.026 159.794 330.548C159.758 330.566 159.668 330.602 159.65 330.602C159.632 330.602 159.632 330.602 159.632 330.602C159.632 330.584 159.632 330.584 164.654 325.886C164.906 325.814 165.032 325.742 165.032 325.634C165.032 325.58 164.996 325.526 164.942 325.472C164.654 325.238 163.79 324.59 163.628 324.59C163.52 324.59 163.448 324.716 163.268 324.77C161.666 325.274 160.154 325.598 158.642 325.598C158.246 325.598 157.832 325.58 157.436 325.526C157.418 325.526 157.4 325.526 157.382 325.526C157.328 325.526 157.292 325.544 157.292 325.58C157.292 325.616 157.31 325.652 157.328 325.688L157.832 326.984C157.922 326.984 158.012 326.984 158.12 326.984C159.506 326.984 160.856 326.624 162.422 326.03C162.512 325.994 162.584 325.976 162.602 325.976C162.638 325.976 162.638 325.976 162.638 325.994C162.638 326.102 160.658 328.136 158.084 330.692C157.562 331.214 156.41 332.114 155.06 333.374C155.024 333.41 155.006 333.446 155.006 333.482C155.006 333.5 155.024 333.536 155.06 333.554L156.356 334.274ZM160.946 336.758C160.874 336.758 160.802 336.758 160.73 336.758C159.92 336.758 158.372 336.506 158.372 335.642C158.372 335.048 158.948 334.958 159.326 334.958C160.37 334.958 160.982 335.57 160.982 336.416C160.982 336.524 160.964 336.65 160.946 336.758Z" fill="#1624BE"/>
<path d="M173.708 337.658C176.336 336.506 178.334 334.742 179.864 332.852C181.394 334.094 183.356 335.948 184.634 337.658L186.056 336.56C184.652 334.976 182.312 332.942 180.692 331.772C181.844 330.17 182.69 328.568 183.374 327.218C183.554 327.164 183.806 327.092 183.806 326.948C183.806 326.804 183.59 326.642 182.672 326.012C182.618 325.976 182.582 325.958 182.546 325.958C182.438 325.958 182.366 326.066 182.204 326.066L174.446 326.12V327.488L181.502 327.452C180.098 330.44 177.758 334.346 172.178 336.56L173.708 337.658Z" fill="#1624BE"/>
<path d="M192.14 338.054C198.026 336.236 201.212 331.358 203.138 327.326C203.39 327.272 203.534 327.2 203.534 327.074C203.534 326.822 202.472 326.03 202.31 326.03C202.22 326.03 202.184 326.102 202.004 326.156C201.914 326.174 199.412 326.192 197.594 326.192C197.846 325.814 198.098 325.4 198.332 324.986C198.368 324.986 198.422 324.986 198.458 324.986C198.728 324.986 198.962 324.896 198.962 324.77C198.962 324.68 198.854 324.572 198.62 324.482C198.188 324.302 197.378 324.122 197.072 324.032C196.046 326.39 193.616 329.288 190.646 330.926L192.158 331.754C193.562 330.818 195.2 329.468 196.73 327.452H201.32C200.726 328.802 199.988 330.152 199.016 331.412C197.9 330.494 196.496 329.81 195.794 329.504L194.84 330.44C196.01 331.034 197.072 331.736 197.972 332.654C196.208 334.544 193.868 336.128 190.664 336.992L192.14 338.054Z" fill="#1624BE"/>
<path d="M215.612 332.186C215.396 331.07 214.712 329.432 214.19 328.568L212.948 328.964C213.488 329.936 214.082 331.394 214.28 332.78L215.612 332.186ZM212.498 338.612C216.17 336.956 218.456 334.418 219.23 329.72C219.41 329.684 219.68 329.594 219.68 329.414C219.68 329.252 219.518 329.162 219.392 329.144C218.816 329 217.898 328.856 217.898 328.856C217.556 333.41 215.018 336.308 211.13 337.532L212.498 338.612ZM212.678 332.888C212.426 331.826 211.58 330.17 211.04 329.378L209.834 329.882C210.428 330.728 211.166 332.204 211.418 333.572L212.678 332.888Z" fill="#1624BE"/>
<path d="M229.094 337.73C232.838 336.074 236.546 333.5 238.274 326.804C238.544 326.732 238.67 326.66 238.67 326.552C238.67 326.318 237.536 325.418 237.392 325.418C237.266 325.418 237.212 325.562 236.942 325.562L226.934 325.598V327.11L236.438 327.056C235.322 331.808 232.136 335.048 227.348 336.398L229.094 337.73Z" fill="#1624BE"/>
<path d="M256.112 324.608C256.868 324.914 257.912 325.634 258.416 326.192L259.172 325.238C258.65 324.68 257.426 324.014 256.85 323.798L256.112 324.608ZM254.582 325.904C255.356 326.282 256.418 327.02 256.922 327.65L257.714 326.732C257.156 326.066 255.986 325.418 255.338 325.13L254.582 325.904ZM253.718 328.46C253.682 328.478 253.646 328.514 253.646 328.55C253.646 328.568 253.682 328.604 253.736 328.64C256.256 329.882 257.354 331.664 257.57 333.356C257.588 333.428 257.606 333.464 257.642 333.464C257.678 333.464 257.714 333.446 257.75 333.428L259.046 332.726C258.884 330.998 257.246 329.216 254.96 327.848L253.718 328.46ZM244.916 338.018C246.644 334.724 248.012 332.096 249.2 329.234C249.704 329.144 250.172 329.072 250.37 329.072C251.378 329.072 251.648 329.936 251.648 331.25C251.648 332.438 251.414 333.914 251.108 334.76C250.73 335.822 249.974 336.29 249.146 336.29C248.39 336.29 247.58 335.894 246.968 335.264L247.166 337.172C247.76 337.586 248.426 337.802 249.092 337.802C250.568 337.802 253.034 336.92 253.034 331.394C253.034 329.36 252.548 327.884 250.676 327.884C250.478 327.884 250.28 327.902 250.082 327.938L249.686 328.01C250.046 326.966 250.442 325.706 250.532 325.238C250.892 325.22 251.126 325.076 251.126 324.95C251.126 324.842 251.018 324.752 250.802 324.698C250.37 324.572 249.074 324.356 249.074 324.356C249.02 325.616 248.588 327.038 248.156 328.244C247.436 328.37 245.906 328.604 245.114 328.604C244.61 328.604 244.16 328.568 243.782 328.514C243.764 328.514 243.746 328.514 243.728 328.514C243.674 328.514 243.656 328.514 243.656 328.568C243.656 328.586 243.656 328.622 243.674 328.658L244.142 330.026C244.232 330.026 244.322 330.026 244.412 330.026C245.042 330.026 245.906 329.918 246.842 329.702C247.112 329.648 247.382 329.576 247.652 329.522C246.536 332.186 244.952 334.976 243.296 337.748L244.916 338.018Z" fill="#1624BE"/>
<path d="M119.546 363.26H120.932V362.09H129.14V363.134H130.544V349.652H123.902C124.352 348.806 124.856 347.744 124.856 347.744C125.234 347.726 125.468 347.6 125.468 347.492C125.468 347.402 125.342 347.294 125.054 347.24C124.298 347.078 123.398 346.97 123.398 346.97C123.254 347.654 122.876 348.68 122.39 349.652H119.546V363.26ZM120.932 353.198V350.93H129.14V353.198H120.932ZM120.932 356.888V354.53H129.14V356.888H120.932ZM120.932 360.758V358.22H129.14V360.758H120.932Z" fill="#1624BE"/>
<path d="M141.092 362.63H151.19V361.244H146.69V354.386H150.686V353.018H146.69V348.86C146.69 348.86 146.69 348.338 146.726 348.032C147.068 347.96 147.23 347.834 147.23 347.708C147.23 347.618 147.122 347.528 146.924 347.492C146.546 347.42 145.16 347.384 145.16 347.384C145.214 347.816 145.214 348.842 145.214 348.842V353.018H141.722V354.386H145.214V361.244H141.092V362.63ZM137.906 363.206H139.274V359.516L139.22 355.718C139.886 356.402 140.768 357.194 141.668 357.842L143 356.924C141.632 356.222 140.282 355.196 139.544 354.494C140.48 353.198 141.128 351.938 141.524 351.02C141.758 350.966 141.92 350.912 141.92 350.786C141.92 350.552 140.912 349.94 140.894 349.94C140.786 349.94 140.678 350.066 140.57 350.066H139.274V348.482C139.274 348.482 139.274 348.14 139.31 347.852C139.652 347.78 139.796 347.654 139.796 347.528C139.796 347.438 139.706 347.348 139.526 347.312C139.148 347.24 137.87 347.15 137.87 347.15C137.906 347.816 137.906 348.5 137.906 348.5V350.084L135.152 350.102L135.17 351.272L140.084 351.182C139.634 352.478 137.762 355.628 134.396 357.374L135.818 358.148C136.61 357.608 137.33 356.996 137.96 356.366L137.906 359.714V363.206Z" fill="#1624BE"/>
<path d="M159.92 352.01C160.622 352.262 161.72 352.37 162.872 352.37C164.312 352.37 165.824 352.208 166.706 352.028V350.534C165.428 350.822 163.898 351.002 162.566 351.002C161.54 351.002 160.622 350.894 159.974 350.66L159.92 352.01ZM159.956 357.302C159.272 357.878 159.272 358.508 159.272 358.616C159.272 359.894 161.072 361.154 163.934 361.154C164.942 361.154 166.094 360.992 167.336 360.632L167.552 358.94C166.22 359.462 164.942 359.678 163.844 359.678C161.936 359.678 160.622 359.048 160.622 358.454C160.622 358.31 160.64 358.256 161.126 357.698L159.956 357.302ZM156.788 361.784C156.842 361.766 156.86 361.73 156.86 361.694C156.86 361.676 156.86 361.658 156.86 361.64C156.806 361.352 156.788 361.064 156.788 360.794C156.788 360.056 156.914 359.426 156.986 359.21C157.22 358.202 157.796 356.888 158.138 355.916C157.868 355.358 157.58 354.62 157.58 354.62C157.472 354.908 156.176 358.076 156.086 358.076C155.978 358.076 155.978 357.5 155.978 357.338C155.978 356.942 156.014 356.528 156.032 356.456C156.266 353.99 157.238 350.732 157.454 349.598C157.832 349.58 157.976 349.49 157.976 349.382C157.976 349.292 157.886 349.184 157.706 349.13C157.67 349.112 156.212 348.68 156.032 348.68C155.996 348.68 155.978 348.698 155.96 348.788C155.834 351.092 155.006 353.432 154.808 356.942C154.79 357.266 154.772 357.608 154.772 357.95C154.772 359.354 154.988 360.83 155.618 362.054L156.788 361.784Z" fill="#1624BE"/>
<path d="M186.506 358.4C186.506 358.346 186.506 358.292 186.506 358.238C186.506 355.898 184.706 352.46 182.762 350.75L181.394 351.182C183.428 353.072 184.832 356.168 184.832 358.67C184.832 358.76 184.832 358.85 184.832 358.94C184.832 358.958 184.832 358.976 184.832 358.976C184.832 359.048 184.85 359.084 184.886 359.084C184.922 359.084 184.94 359.066 184.976 359.048L186.506 358.4ZM178.496 356.474C177.686 358.58 177.182 359.498 176.48 359.498C176.336 359.498 176.174 359.462 175.994 359.372C174.446 358.634 174.086 357.122 174.086 355.214C174.086 355.016 174.104 354.818 174.104 354.602C174.122 353.792 174.176 352.46 174.194 351.668C174.5 351.614 174.644 351.488 174.644 351.38C174.644 351.29 174.518 351.182 174.338 351.164C173.888 351.092 172.718 350.984 172.718 350.984C172.682 350.966 172.664 350.966 172.646 350.966C172.592 350.966 172.556 351.002 172.556 351.074C172.61 351.794 172.61 352.244 172.61 354.584C172.628 356.834 172.952 359.57 175.4 360.794C175.778 360.974 176.156 361.1 176.552 361.1C177.434 361.1 178.388 360.47 179.504 358.4L178.496 356.474Z" fill="#1624BE"/>
<path d="M199.106 352.046C199.106 352.064 199.106 352.064 199.106 352.082C199.106 352.118 199.124 352.118 199.25 352.118C199.502 352.1 199.754 352.1 200.006 352.1C201.716 352.1 203.012 352.478 203.624 353.054C203.66 353.09 203.678 353.09 203.696 353.09C203.732 353.09 203.75 353.054 203.768 353L204.218 351.794C203.57 351.074 201.752 350.876 200.222 350.876C199.916 350.876 199.61 350.876 199.322 350.894L199.106 352.046ZM204.398 360.56C203.57 359.786 201.644 358.67 200.474 358.238C200.438 357.5 200.348 356.69 200.348 355.88C200.348 355.394 200.384 354.908 200.474 354.44C200.798 354.386 200.96 354.26 200.96 354.152C200.96 354.044 200.852 353.954 200.6 353.9C200.168 353.81 199.16 353.738 199.16 353.738C199.106 354.062 199.088 354.512 199.088 355.016C199.088 355.934 199.142 357.014 199.196 357.914C198.656 357.806 198.026 357.716 197.378 357.716C195.182 357.716 194.066 358.742 194.066 359.804C194.066 360.938 195.506 362.054 197.234 362.054C198.854 362.054 200.33 361.064 200.492 359.57C201.374 360.056 202.562 360.902 203.174 361.568L204.398 360.56ZM192.158 359.174C193.238 357.158 195.038 353.792 196.082 350.984C196.946 350.768 197.864 350.534 198.62 350.318L198.548 348.968C197.954 349.202 197.162 349.436 196.388 349.67C196.514 349.202 196.622 348.698 196.712 348.266C197.054 348.212 197.216 348.104 197.234 347.978C197.234 347.762 197.072 347.708 195.236 347.546C195.236 348.626 194.948 349.724 194.858 350.048C193.778 350.282 193.328 350.318 192.986 350.318C192.266 350.318 191.636 350.138 190.844 349.814H190.826C190.772 349.814 190.754 349.832 190.754 349.886C190.754 349.904 190.754 349.904 190.754 349.922L191.024 351.272C191.492 351.47 192.014 351.56 192.572 351.56C192.986 351.56 193.418 351.524 193.886 351.434C194.084 351.398 194.318 351.344 194.552 351.308C193.472 354.116 191.708 357.104 190.574 358.85L192.158 359.174ZM199.232 359.174C199.124 360.182 198.278 360.812 197.234 360.812C196.424 360.812 195.344 360.398 195.344 359.786C195.344 359.192 196.208 358.85 197.342 358.85C197.99 358.85 198.692 358.958 199.232 359.174Z" fill="#1624BE"/>
<path d="M222.506 358.4C222.506 358.346 222.506 358.292 222.506 358.238C222.506 355.898 220.706 352.46 218.762 350.75L217.394 351.182C219.428 353.072 220.832 356.168 220.832 358.67C220.832 358.76 220.832 358.85 220.832 358.94C220.832 358.958 220.832 358.976 220.832 358.976C220.832 359.048 220.85 359.084 220.886 359.084C220.922 359.084 220.94 359.066 220.976 359.048L222.506 358.4ZM214.496 356.474C213.686 358.58 213.182 359.498 212.48 359.498C212.336 359.498 212.174 359.462 211.994 359.372C210.446 358.634 210.086 357.122 210.086 355.214C210.086 355.016 210.104 354.818 210.104 354.602C210.122 353.792 210.176 352.46 210.194 351.668C210.5 351.614 210.644 351.488 210.644 351.38C210.644 351.29 210.518 351.182 210.338 351.164C209.888 351.092 208.718 350.984 208.718 350.984C208.682 350.966 208.664 350.966 208.646 350.966C208.592 350.966 208.556 351.002 208.556 351.074C208.61 351.794 208.61 352.244 208.61 354.584C208.628 356.834 208.952 359.57 211.4 360.794C211.778 360.974 212.156 361.1 212.552 361.1C213.434 361.1 214.388 360.47 215.504 358.4L214.496 356.474Z" fill="#1624BE"/>
<path d="M259.408 130.234C263.692 128.596 265.096 126.022 265.096 121.63H269.2V120.244H265.042C265.042 120.244 265.042 120.244 265.042 118.462C265.06 117.994 265.078 117.544 265.096 117.256C265.402 117.22 265.6 117.058 265.6 116.914C265.6 116.824 265.528 116.59 263.8 116.59C263.728 116.59 263.674 116.59 263.602 116.59C263.62 117.022 263.62 117.274 263.62 120.244H259.948V118.516C259.948 118.516 259.948 118.39 259.948 118.228C259.948 117.976 259.948 117.598 259.984 117.328C260.272 117.292 260.47 117.13 260.47 116.986C260.47 116.77 259.912 116.698 258.724 116.698C258.634 116.698 258.544 116.698 258.472 116.698C258.508 117.256 258.508 118.318 258.508 118.318V120.244H254.188V121.63H258.508V125.608H259.948V121.63H263.62V122.17C263.566 126.022 261.856 128.092 257.824 129.1L259.408 130.234Z" fill="#1624BE"/>
<path d="M272.8 123.898H286.534V122.386H272.8V123.898Z" fill="#1624BE"/>
<path d="M301.608 117.238C302.22 117.616 303.21 118.624 303.606 119.218L304.524 118.39C304.11 117.814 303.21 116.986 302.454 116.536L301.608 117.238ZM299.862 118.264C300.6 118.768 301.554 119.848 301.914 120.478L302.868 119.686C302.436 119.074 301.428 118.084 300.744 117.616L299.862 118.264ZM304.056 127.444C303.336 125.086 300.69 120.964 298.692 118.912L297.378 119.542C299.754 122.224 301.572 125.5 302.364 128.236L304.056 127.444ZM290.736 128.56C292.626 126.778 294.246 123.556 295.47 119.542L293.832 119.092C293.166 122.08 291.582 125.734 288.882 127.876L290.736 128.56Z" fill="#1624BE"/>
<path d="M307.728 123.898H321.462V122.386H307.728V123.898Z" fill="#1624BE"/>
<path d="M339.048 120.424C337.644 122.692 333.666 126.58 329.904 127.516C329.904 127.03 329.922 122.674 329.94 119.722C329.94 119.308 329.94 118.93 329.976 118.57C330.354 118.534 330.57 118.372 330.57 118.228C330.57 118.102 330.444 117.994 330.192 117.958C329.778 117.904 328.572 117.868 328.374 117.85C328.41 118.354 328.428 119.272 328.428 119.596C328.428 119.596 328.41 126.094 328.41 127.642C328.41 127.804 328.284 127.93 328.284 128.074C328.284 128.236 329.364 129.514 329.616 129.514C329.724 129.514 329.796 129.406 329.85 129.244C334.206 127.948 338.184 124.33 339.732 122.35L339.048 120.424Z" fill="#1624BE"/>
<path d="M344.636 129.658C347.264 128.506 349.262 126.742 350.792 124.852C352.322 126.094 354.284 127.948 355.562 129.658L356.984 128.56C355.58 126.976 353.24 124.942 351.62 123.772C352.772 122.17 353.618 120.568 354.302 119.218C354.482 119.164 354.734 119.092 354.734 118.948C354.734 118.804 354.518 118.642 353.6 118.012C353.546 117.976 353.51 117.958 353.474 117.958C353.366 117.958 353.294 118.066 353.132 118.066L345.374 118.12V119.488L352.43 119.452C351.026 122.44 348.686 126.346 343.106 128.56L344.636 129.658Z" fill="#1624BE"/>
<path d="M373.76 116.608C374.516 116.914 375.56 117.634 376.064 118.192L376.82 117.238C376.298 116.68 375.074 116.014 374.498 115.798L373.76 116.608ZM372.23 117.904C373.004 118.282 374.066 119.02 374.57 119.65L375.362 118.732C374.804 118.066 373.634 117.418 372.986 117.13L372.23 117.904ZM371.366 120.46C371.33 120.478 371.294 120.514 371.294 120.55C371.294 120.568 371.33 120.604 371.384 120.64C373.904 121.882 375.002 123.664 375.218 125.356C375.236 125.428 375.254 125.464 375.29 125.464C375.326 125.464 375.362 125.446 375.398 125.428L376.694 124.726C376.532 122.998 374.894 121.216 372.608 119.848L371.366 120.46ZM362.564 130.018C364.292 126.724 365.66 124.096 366.848 121.234C367.352 121.144 367.82 121.072 368.018 121.072C369.026 121.072 369.296 121.936 369.296 123.25C369.296 124.438 369.062 125.914 368.756 126.76C368.378 127.822 367.622 128.29 366.794 128.29C366.038 128.29 365.228 127.894 364.616 127.264L364.814 129.172C365.408 129.586 366.074 129.802 366.74 129.802C368.216 129.802 370.682 128.92 370.682 123.394C370.682 121.36 370.196 119.884 368.324 119.884C368.126 119.884 367.928 119.902 367.73 119.938L367.334 120.01C367.694 118.966 368.09 117.706 368.18 117.238C368.54 117.22 368.774 117.076 368.774 116.95C368.774 116.842 368.666 116.752 368.45 116.698C368.018 116.572 366.722 116.356 366.722 116.356C366.668 117.616 366.236 119.038 365.804 120.244C365.084 120.37 363.554 120.604 362.762 120.604C362.258 120.604 361.808 120.568 361.43 120.514C361.412 120.514 361.394 120.514 361.376 120.514C361.322 120.514 361.304 120.514 361.304 120.568C361.304 120.586 361.304 120.622 361.322 120.658L361.79 122.026C361.88 122.026 361.97 122.026 362.06 122.026C362.69 122.026 363.554 121.918 364.49 121.702C364.76 121.648 365.03 121.576 365.3 121.522C364.184 124.186 362.6 126.976 360.944 129.748L362.564 130.018Z" fill="#1624BE"/>
<path d="M218.106 144.046C218.106 144.064 218.106 144.064 218.106 144.082C218.106 144.118 218.124 144.118 218.25 144.118C218.502 144.1 218.754 144.1 219.006 144.1C220.716 144.1 222.012 144.478 222.624 145.054C222.66 145.09 222.678 145.09 222.696 145.09C222.732 145.09 222.75 145.054 222.768 145L223.218 143.794C222.57 143.074 220.752 142.876 219.222 142.876C218.916 142.876 218.61 142.876 218.322 142.894L218.106 144.046ZM223.398 152.56C222.57 151.786 220.644 150.67 219.474 150.238C219.438 149.5 219.348 148.69 219.348 147.88C219.348 147.394 219.384 146.908 219.474 146.44C219.798 146.386 219.96 146.26 219.96 146.152C219.96 146.044 219.852 145.954 219.6 145.9C219.168 145.81 218.16 145.738 218.16 145.738C218.106 146.062 218.088 146.512 218.088 147.016C218.088 147.934 218.142 149.014 218.196 149.914C217.656 149.806 217.026 149.716 216.378 149.716C214.182 149.716 213.066 150.742 213.066 151.804C213.066 152.938 214.506 154.054 216.234 154.054C217.854 154.054 219.33 153.064 219.492 151.57C220.374 152.056 221.562 152.902 222.174 153.568L223.398 152.56ZM211.158 151.174C212.238 149.158 214.038 145.792 215.082 142.984C215.946 142.768 216.864 142.534 217.62 142.318L217.548 140.968C216.954 141.202 216.162 141.436 215.388 141.67C215.514 141.202 215.622 140.698 215.712 140.266C216.054 140.212 216.216 140.104 216.234 139.978C216.234 139.762 216.072 139.708 214.236 139.546C214.236 140.626 213.948 141.724 213.858 142.048C212.778 142.282 212.328 142.318 211.986 142.318C211.266 142.318 210.636 142.138 209.844 141.814H209.826C209.772 141.814 209.754 141.832 209.754 141.886C209.754 141.904 209.754 141.904 209.754 141.922L210.024 143.272C210.492 143.47 211.014 143.56 211.572 143.56C211.986 143.56 212.418 143.524 212.886 143.434C213.084 143.398 213.318 143.344 213.552 143.308C212.472 146.116 210.708 149.104 209.574 150.85L211.158 151.174ZM218.232 151.174C218.124 152.182 217.278 152.812 216.234 152.812C215.424 152.812 214.344 152.398 214.344 151.786C214.344 151.192 215.208 150.85 216.342 150.85C216.99 150.85 217.692 150.958 218.232 151.174Z" fill="#1624BE"/>
<path d="M228.492 153.694C228.708 153.064 228.906 152.524 229.05 152.164C229.824 150.274 231.588 148.564 232.524 148.564C233.316 148.564 233.388 149.392 233.46 150.238C233.586 151.948 233.892 153.658 236.034 153.658C239.796 153.658 241.344 148.888 241.578 148.168L240.372 146.566C240.21 147.448 239.004 152.11 236.25 152.11C234.99 152.11 234.954 151.12 234.864 150.094C234.756 148.564 234.378 147.322 232.992 147.322C232.056 147.322 231.282 147.7 230.238 148.96C230.22 148.996 230.184 149.014 230.166 149.014C230.13 149.014 230.454 147.952 234.45 141.652C234.504 141.652 234.54 141.67 234.594 141.67C234.846 141.67 235.044 141.562 235.044 141.418C235.044 141.148 233.64 140.626 233.1 140.446C232.47 142.3 230.418 145.396 228.33 150.058C228.186 150.418 227.664 151.246 226.872 153.208L228.492 153.694Z" fill="#1624BE"/>
<path d="M257.364 151.768C255.816 152.308 253.998 152.632 252.432 152.632C250.146 152.632 248.616 151.966 248.616 150.616C248.616 147.988 253.926 146.8 256.518 146.728V145.144C256.518 145.036 256.446 145.018 256.392 145.018C256.374 145.018 256.356 145.018 256.338 145.018C255.654 145.216 254.808 145.378 253.98 145.594C253.422 145.738 252.81 145.918 252.18 146.116C251.91 145.594 251.82 144.946 251.82 144.136C251.82 144.064 251.82 143.974 251.82 143.884C251.82 143.488 251.928 141.94 252.018 140.572C252.36 140.464 252.486 140.356 252.486 140.266C252.486 140.158 252.324 140.086 252.18 140.05C251.91 139.996 250.74 139.78 250.434 139.78C250.362 139.78 250.344 139.798 250.344 139.87C250.344 139.888 250.344 139.924 250.344 139.942C250.38 140.518 250.398 141.04 250.398 141.508C250.398 141.67 250.398 141.814 250.398 141.958C250.398 142.912 250.344 143.632 250.326 144.172C250.326 145.288 250.56 146.098 250.848 146.638C248.94 147.466 247.212 148.744 247.212 150.706C247.212 153.424 250.38 154.108 252.972 154.108C254.34 154.108 255.798 153.928 257.058 153.586L257.364 151.768Z" fill="#1624BE"/>
<path d="M272.106 144.046C272.106 144.064 272.106 144.064 272.106 144.082C272.106 144.118 272.124 144.118 272.25 144.118C272.502 144.1 272.754 144.1 273.006 144.1C274.716 144.1 276.012 144.478 276.624 145.054C276.66 145.09 276.678 145.09 276.696 145.09C276.732 145.09 276.75 145.054 276.768 145L277.218 143.794C276.57 143.074 274.752 142.876 273.222 142.876C272.916 142.876 272.61 142.876 272.322 142.894L272.106 144.046ZM277.398 152.56C276.57 151.786 274.644 150.67 273.474 150.238C273.438 149.5 273.348 148.69 273.348 147.88C273.348 147.394 273.384 146.908 273.474 146.44C273.798 146.386 273.96 146.26 273.96 146.152C273.96 146.044 273.852 145.954 273.6 145.9C273.168 145.81 272.16 145.738 272.16 145.738C272.106 146.062 272.088 146.512 272.088 147.016C272.088 147.934 272.142 149.014 272.196 149.914C271.656 149.806 271.026 149.716 270.378 149.716C268.182 149.716 267.066 150.742 267.066 151.804C267.066 152.938 268.506 154.054 270.234 154.054C271.854 154.054 273.33 153.064 273.492 151.57C274.374 152.056 275.562 152.902 276.174 153.568L277.398 152.56ZM265.158 151.174C266.238 149.158 268.038 145.792 269.082 142.984C269.946 142.768 270.864 142.534 271.62 142.318L271.548 140.968C270.954 141.202 270.162 141.436 269.388 141.67C269.514 141.202 269.622 140.698 269.712 140.266C270.054 140.212 270.216 140.104 270.234 139.978C270.234 139.762 270.072 139.708 268.236 139.546C268.236 140.626 267.948 141.724 267.858 142.048C266.778 142.282 266.328 142.318 265.986 142.318C265.266 142.318 264.636 142.138 263.844 141.814H263.826C263.772 141.814 263.754 141.832 263.754 141.886C263.754 141.904 263.754 141.904 263.754 141.922L264.024 143.272C264.492 143.47 265.014 143.56 265.572 143.56C265.986 143.56 266.418 143.524 266.886 143.434C267.084 143.398 267.318 143.344 267.552 143.308C266.472 146.116 264.708 149.104 263.574 150.85L265.158 151.174ZM272.232 151.174C272.124 152.182 271.278 152.812 270.234 152.812C269.424 152.812 268.344 152.398 268.344 151.786C268.344 151.192 269.208 150.85 270.342 150.85C270.99 150.85 271.692 150.958 272.232 151.174Z" fill="#1624BE"/>
<path d="M291.906 153.964C291.042 152.272 288.288 149.59 287.118 148.474C286.794 148.168 285.948 147.448 285.75 147.124C285.642 146.944 285.588 146.764 285.588 146.584C285.588 146.26 285.75 145.738 287.316 144.478C289.512 142.678 290.25 142.03 290.826 141.49C290.97 141.58 291.114 141.634 291.204 141.634C291.312 141.634 291.384 141.58 291.384 141.472C291.384 141.382 291.33 141.256 291.222 141.112C291.096 140.932 290.052 139.654 289.98 139.654C289.962 139.654 289.926 139.672 289.872 139.744C289.44 140.41 288.846 141.094 288.414 141.544C287.802 142.174 287.154 142.714 286.65 143.2C285.012 144.694 284.148 145.486 284.148 146.62C284.148 147.124 284.328 147.628 284.742 148.096C285.21 148.618 285.786 149.122 286.236 149.608C288.378 152.02 289.404 153.154 290.106 154.594L291.906 153.964Z" fill="#1624BE"/>
<path d="M301.104 153.064C300.114 153.298 299.052 153.514 297.972 153.694C297.972 153.694 298.26 154.504 298.602 155.152C298.728 155.404 298.854 155.494 298.926 155.494C299.052 155.494 299.106 155.314 299.106 155.062C299.106 155.026 299.106 154.99 299.106 154.954C302.796 154.09 305.964 153.082 306.378 152.902L306.396 151.588C306.036 151.75 304.488 152.236 302.454 152.74V148.276H305.1C305.766 150.778 307.692 154.45 313.056 155.134L314.658 153.784C311.616 153.658 309.726 152.848 308.52 151.768C309.654 151.318 311.238 150.562 312.246 150.004C312.48 150.148 312.66 150.202 312.768 150.202C312.894 150.202 312.93 150.13 312.93 150.04C312.93 149.968 312.912 149.878 312.858 149.788C312.516 149.212 311.832 148.474 311.832 148.474C311.094 149.176 308.826 150.31 307.638 150.814C307.044 149.986 306.702 149.086 306.486 148.276H309.582V148.69H310.878V140.986H306.738V140.464C306.738 140.464 306.738 140.068 306.774 139.708C307.098 139.672 307.35 139.528 307.35 139.402C307.35 139.312 307.206 139.222 306.864 139.168C306.108 139.078 305.532 139.078 305.262 139.06C305.298 139.69 305.316 140.284 305.316 140.284V140.986H301.104V153.064ZM302.436 143.956V142.228H309.582V143.956H302.436ZM302.454 147.016V145.198H309.582V147.016H302.454Z" fill="#1624BE"/>
<path d="M318.492 144.19C319.302 144.748 320.328 144.928 321.318 144.928C322.488 144.928 323.586 144.658 324.756 144.352C325.908 145.774 327.006 147.16 327.312 148.024C326.502 147.898 325.152 147.79 324.288 147.79C322.596 147.808 318.834 147.97 318.834 150.904C318.834 153.064 321.372 154.144 324.306 154.144C325.188 154.144 326.412 154 327.204 153.856L327.654 152.164C325.656 152.65 324.558 152.686 324.18 152.686C321.93 152.686 320.184 152.038 320.184 150.706C320.184 149.32 322.416 148.978 323.838 148.978C324.018 148.978 326.718 148.978 328.068 150.112L329.418 149.464C329.22 148.024 327.492 145.936 325.944 144.028L326.16 143.974C327.204 143.65 328.554 143.128 329.022 142.84L328.122 141.688C327.654 141.994 326.898 142.426 325.494 142.822L325.08 142.93C324.36 142.012 323.784 141.202 323.586 140.608C323.82 140.5 323.946 140.356 323.946 140.248C323.946 140.176 323.856 140.104 323.712 140.104C323.676 140.104 323.622 140.122 323.586 140.122C323.028 140.194 321.948 140.446 321.948 140.446C322.272 141.184 323.028 142.192 323.874 143.254C322.56 143.542 322.056 143.596 321.57 143.596C320.526 143.596 319.806 143.29 318.69 142.696C318.654 142.678 318.636 142.678 318.618 142.678C318.564 142.678 318.564 142.75 318.564 142.786L318.492 144.19Z" fill="#1624BE"/>
<path d="M336.276 148.528C338.13 147.808 340.344 147.106 342.27 146.692C341.19 147.268 339.192 148.726 339.192 150.778C339.192 153.298 342.288 154.432 344.826 154.432C345.006 154.432 345.186 154.432 345.366 154.414C345.366 154.414 346.158 152.758 346.23 152.668C345.636 152.794 345.024 152.848 344.43 152.848C342.396 152.848 340.542 152.128 340.542 150.598C340.542 148.672 343.422 146.872 345.186 146.566C345.6 146.494 346.608 146.476 347.796 146.458C347.904 146.548 348.066 146.602 348.174 146.602C348.264 146.602 348.336 146.566 348.336 146.44C348.336 146.35 347.85 144.928 347.67 144.928C347.58 144.928 347.49 145.018 347.382 145.036C346.014 145.126 342.468 145.432 339.678 146.296C340.47 145.648 343.548 142.894 345.276 141.4C345.564 141.364 345.672 141.292 345.672 141.202C345.672 141.04 344.7 140.176 344.61 140.176C344.52 140.176 344.466 140.302 344.268 140.356C342.756 140.752 340.812 140.986 339.93 140.986C339.39 140.986 338.85 140.95 338.454 140.914C338.436 140.914 338.436 140.914 338.418 140.914C338.364 140.914 338.328 140.95 338.328 140.986C338.328 141.022 338.346 141.04 338.364 141.076L339.084 142.498C340.47 142.444 342.108 141.994 342.918 141.724C341.856 142.912 338.868 146.026 337.59 146.62C337.392 146.71 336.186 146.98 335.7 147.088C335.628 147.106 335.61 147.142 335.61 147.196C335.61 147.232 335.61 147.268 335.646 147.322L336.276 148.528Z" fill="#1624BE"/>
<path d="M356.868 141.094C358.398 141.616 360.144 141.778 361.818 141.778C362.106 141.778 362.394 141.76 362.664 141.76L363.348 140.194C362.538 140.266 361.8 140.302 361.098 140.302C359.748 140.302 358.542 140.158 357.336 139.834L356.868 141.094ZM358.272 154.576C361.188 153.568 364.572 151.642 364.572 147.52C364.572 145.612 363.78 143.308 361.062 143.308C359.874 143.308 358.632 143.722 357.606 144.064C356.724 144.352 355.932 144.604 355.032 144.748C354.996 144.766 354.96 144.784 354.96 144.82C354.96 144.838 354.96 144.856 354.978 144.874L356.166 146.314C356.832 146.098 357.534 145.702 358.308 145.342C358.992 145.018 360.036 144.586 360.954 144.586C362.772 144.586 363.042 146.44 363.042 147.448C363.042 150.886 359.694 152.758 356.364 153.352L358.272 154.576Z" fill="#1624BE"/>
<path d="M382.662 139.906C383.616 140.32 384.534 141.058 385.002 141.58L385.83 140.59C385.164 139.906 384.066 139.33 383.454 139.06L382.662 139.906ZM381.06 141.292C381.816 141.652 383.004 142.57 383.472 143.146L384.354 142.174C383.742 141.508 382.518 140.788 381.87 140.482L381.06 141.292ZM379.278 145.72C379.89 145.63 380.574 145.576 381.24 145.576C382.536 145.576 383.814 145.774 384.534 146.206L384.966 144.748C384.39 144.406 383.112 144.262 381.744 144.262C380.988 144.262 380.178 144.298 379.476 144.388L379.278 145.72ZM377.892 149.968C377.622 150.364 377.514 150.742 377.514 151.084C377.514 152.452 379.602 153.766 382.518 153.766C383.166 153.766 383.85 153.712 384.588 153.568L385.074 151.876C384.066 152.182 383.13 152.308 382.302 152.308C380.646 152.308 378.9 151.804 378.9 150.886C378.9 150.688 378.99 150.436 379.206 150.166L377.892 149.968ZM373.068 153.946C373.986 150.94 376.038 145.54 376.578 143.47C377.478 143.29 378.414 143.092 379.242 142.93L379.26 141.472C378.522 141.706 377.676 141.922 376.884 142.12C376.992 141.616 377.1 141.058 377.19 140.554C377.514 140.5 377.712 140.374 377.712 140.23C377.712 140.122 377.568 140.014 377.262 139.96C376.686 139.87 375.66 139.798 375.66 139.798C375.624 140.824 375.534 141.58 375.372 142.426C375.138 142.462 374.922 142.498 374.724 142.534C374.346 142.588 374.004 142.624 373.698 142.624C372.996 142.624 372.384 142.48 371.61 142.192C371.592 142.192 371.574 142.174 371.556 142.174C371.52 142.174 371.52 142.21 371.52 142.246C371.52 142.246 371.52 142.264 371.52 142.282L371.736 143.686C372.168 143.848 372.654 143.92 373.212 143.92C374.04 143.92 374.976 143.758 375.102 143.74C374.49 145.918 372.528 151.048 371.376 153.784L373.068 153.946Z" fill="#1624BE"/>
<path d="M401.472 140.608C402.228 140.914 403.272 141.634 403.776 142.192L404.532 141.238C404.01 140.68 402.786 140.014 402.21 139.798L401.472 140.608ZM399.942 141.904C400.716 142.282 401.778 143.02 402.282 143.65L403.074 142.732C402.516 142.066 401.346 141.418 400.698 141.13L399.942 141.904ZM399.078 144.46C399.042 144.478 399.006 144.514 399.006 144.55C399.006 144.568 399.042 144.604 399.096 144.64C401.616 145.882 402.714 147.664 402.93 149.356C402.948 149.428 402.966 149.464 403.002 149.464C403.038 149.464 403.074 149.446 403.11 149.428L404.406 148.726C404.244 146.998 402.606 145.216 400.32 143.848L399.078 144.46ZM390.276 154.018C392.004 150.724 393.372 148.096 394.56 145.234C395.064 145.144 395.532 145.072 395.73 145.072C396.738 145.072 397.008 145.936 397.008 147.25C397.008 148.438 396.774 149.914 396.468 150.76C396.09 151.822 395.334 152.29 394.506 152.29C393.75 152.29 392.94 151.894 392.328 151.264L392.526 153.172C393.12 153.586 393.786 153.802 394.452 153.802C395.928 153.802 398.394 152.92 398.394 147.394C398.394 145.36 397.908 143.884 396.036 143.884C395.838 143.884 395.64 143.902 395.442 143.938L395.046 144.01C395.406 142.966 395.802 141.706 395.892 141.238C396.252 141.22 396.486 141.076 396.486 140.95C396.486 140.842 396.378 140.752 396.162 140.698C395.73 140.572 394.434 140.356 394.434 140.356C394.38 141.616 393.948 143.038 393.516 144.244C392.796 144.37 391.266 144.604 390.474 144.604C389.97 144.604 389.52 144.568 389.142 144.514C389.124 144.514 389.106 144.514 389.088 144.514C389.034 144.514 389.016 144.514 389.016 144.568C389.016 144.586 389.016 144.622 389.034 144.658L389.502 146.026C389.592 146.026 389.682 146.026 389.772 146.026C390.402 146.026 391.266 145.918 392.202 145.702C392.472 145.648 392.742 145.576 393.012 145.522C391.896 148.186 390.312 150.976 388.656 153.748L390.276 154.018Z" fill="#1624BE"/>
<path d="M406.062 151.804C407.286 152.614 408.798 154.018 409.824 155.332L411.084 154.018C410.166 153.046 408.204 151.516 407.07 150.886L406.062 151.804Z" fill="#1624BE"/>
<path d="M239.904 176.92C239.904 177.604 239.256 177.766 238.554 177.766C237.996 177.766 237.402 177.658 237.06 177.622C237.204 177.82 238.05 179.098 238.05 179.098C238.248 179.116 238.464 179.116 238.68 179.116C239.958 179.116 241.272 178.774 241.272 177.154C241.272 176.29 241.236 174.508 241.236 174.508V163.654H234.882V169.738H236.106V169.306H239.904V176.92ZM230.04 178.972C232.164 178.162 232.794 176.29 232.956 174.778H235.098V178.72H236.358V174.778H238.716V173.662H236.358V171.952H238.194V170.854H229.698V171.952H231.786C231.786 172.42 231.804 173.032 231.804 173.572V173.662H229.176V174.778H231.732C231.552 176.128 230.904 177.658 228.708 178L230.04 178.972ZM226.8 179.26H228.132V169.306H231.822V169.738H233.028V163.654H226.8V179.26ZM236.106 165.922V164.716H239.904V165.922H236.106ZM236.106 168.262V166.966H239.904V168.262H236.106ZM228.132 165.922V164.716H231.822V165.922H228.132ZM228.132 168.262V166.966H231.822V168.262H228.132ZM233.01 173.662V173.626C233.01 173.014 233.028 172.258 233.046 171.952H235.098V173.662H233.01Z" fill="#1624BE"/>
<path d="M244.944 179.242C249.21 178.432 250.326 175.534 250.596 173.932H253.026V176.938C253.026 178.72 254.646 178.846 255.996 178.846C257.184 178.846 258.498 178.756 259.092 177.604C259.38 177.082 259.614 175.894 259.614 175.894L258.246 174.76C258.228 175.12 258.066 176.128 257.94 176.488C257.688 177.19 257.436 177.514 256.194 177.514C254.664 177.514 254.412 177.226 254.376 176.632C254.376 176.632 254.376 176.632 254.376 173.932H258.822V172.654H254.376V170.134H255.708V169.414C256.77 170.224 257.94 170.98 259.236 171.556L260.658 170.548C259.254 170.08 257.976 169.414 256.86 168.64C257.778 167.812 258.696 166.768 258.696 166.768C258.822 166.804 258.93 166.822 259.002 166.822C259.164 166.822 259.236 166.768 259.236 166.678C259.236 166.624 259.182 166.534 259.074 166.444C258.624 166.048 257.904 165.652 257.904 165.652C257.526 166.3 256.644 167.29 255.906 167.956C255.384 167.542 254.898 167.128 254.466 166.696C255.42 165.868 256.464 164.68 256.464 164.68C256.608 164.716 256.716 164.734 256.806 164.734C256.95 164.734 257.022 164.698 257.022 164.626C257.022 164.554 256.968 164.482 256.86 164.392C256.392 163.978 255.672 163.564 255.672 163.564C255.294 164.23 254.394 165.238 253.656 165.886C253.188 165.382 252.792 164.914 252.45 164.464C252.648 164.41 252.738 164.32 252.738 164.23C252.738 163.942 251.82 163.582 251.766 163.564H251.748C251.658 163.564 251.514 163.69 251.514 163.69H246.762L246.78 164.824L250.884 164.806C250.128 166.048 247.014 169.666 243.36 170.818L244.692 171.754C245.916 171.25 247.158 170.368 248.292 169.396V170.134H249.354C249.372 170.458 249.39 170.98 249.39 171.538C249.39 171.916 249.372 172.294 249.354 172.654H245.088V173.932H249.228C248.94 175.264 247.95 177.658 243.63 178.072L244.944 179.242ZM245.088 165.922C245.088 165.922 246.276 166.786 247.248 167.902L248.256 166.984C247.122 165.922 245.988 165.148 245.988 165.148L245.088 165.922ZM248.76 168.982C250.074 167.794 251.172 166.516 251.838 165.526C252.63 166.552 253.764 167.812 255.186 168.982H248.76ZM250.704 172.654C250.704 172.438 250.722 172.186 250.722 170.134H253.026V172.654H250.704Z" fill="#1624BE"/>
<path d="M263.628 179.152C267.138 176.992 268.416 174.166 268.992 170.818H273.906C273.834 176.128 273.384 177.496 271.134 177.496C270.468 177.496 269.586 177.37 268.452 177.118L269.424 178.828C270 178.882 270.522 178.9 271.008 178.9C275.112 178.9 275.22 176.668 275.436 169.522H269.172C269.262 168.766 269.334 167.974 269.388 167.182H277.56V165.85H270.63V165.058C270.63 165.058 270.63 164.392 270.666 163.87C271.044 163.798 271.224 163.654 271.224 163.528C271.224 163.402 271.08 163.294 270.828 163.276C270.126 163.204 269.136 163.15 269.136 163.15C269.19 163.924 269.19 164.878 269.19 164.878V165.85H262.476V167.182H267.858C267.804 171.934 266.778 175.984 261.972 178.324L263.628 179.152Z" fill="#1624BE"/>
<path d="M284.49 171.646H288.666C288.324 172.852 287.676 174.868 286.92 176.56C285.984 176.65 285.066 176.722 284.292 176.758C284.292 176.758 284.634 177.964 284.868 178.522C284.958 178.72 285.066 178.828 285.174 178.828C285.318 178.828 285.462 178.612 285.462 178.198C285.462 178.18 285.462 178.162 285.462 178.144C288.216 177.82 292.338 177.1 293.94 176.812C294.336 177.496 294.678 178.18 294.876 178.792L296.244 178C295.452 176.074 292.626 172.672 292.626 172.672L291.402 173.194C291.942 173.842 292.608 174.706 293.22 175.642C292.068 175.876 290.268 176.164 288.432 176.38C289.206 174.562 289.998 172.294 290.214 171.646H295.974V170.35H290.754V167.38H295.164V166.102H290.754V165.634C290.754 165.634 290.754 164.968 290.79 163.996C291.15 163.924 291.312 163.798 291.312 163.672C291.312 163.582 291.204 163.492 291.006 163.456C290.61 163.384 289.314 163.348 289.314 163.348C289.368 164.176 289.368 164.698 289.368 165.31V166.102H285.336V167.38H289.368V170.35H284.49V171.646ZM280.854 164.464C280.854 164.464 282.762 165.58 283.77 166.912L284.868 165.85C283.716 164.662 281.898 163.582 281.898 163.582L280.854 164.464ZM279.702 168.73C279.702 168.73 282.006 169.738 283.158 170.98L284.094 169.756C282.87 168.694 280.656 167.704 280.656 167.704L279.702 168.73ZM283.932 172.168C283.41 173.194 281.466 176.65 280.008 177.766C280.008 177.766 281.196 178.594 281.52 178.774C281.574 178.81 281.628 178.828 281.664 178.828C281.772 178.828 281.826 178.738 281.826 178.63C281.826 178.558 281.79 178.45 281.736 178.36C283.068 176.686 284.238 174.58 284.832 173.572L283.932 172.168Z" fill="#1624BE"/>
<path d="M311.472 164.608C312.228 164.914 313.272 165.634 313.776 166.192L314.532 165.238C314.01 164.68 312.786 164.014 312.21 163.798L311.472 164.608ZM309.942 165.904C310.716 166.282 311.778 167.02 312.282 167.65L313.074 166.732C312.516 166.066 311.346 165.418 310.698 165.13L309.942 165.904ZM309.078 168.46C309.042 168.478 309.006 168.514 309.006 168.55C309.006 168.568 309.042 168.604 309.096 168.64C311.616 169.882 312.714 171.664 312.93 173.356C312.948 173.428 312.966 173.464 313.002 173.464C313.038 173.464 313.074 173.446 313.11 173.428L314.406 172.726C314.244 170.998 312.606 169.216 310.32 167.848L309.078 168.46ZM300.276 178.018C302.004 174.724 303.372 172.096 304.56 169.234C305.064 169.144 305.532 169.072 305.73 169.072C306.738 169.072 307.008 169.936 307.008 171.25C307.008 172.438 306.774 173.914 306.468 174.76C306.09 175.822 305.334 176.29 304.506 176.29C303.75 176.29 302.94 175.894 302.328 175.264L302.526 177.172C303.12 177.586 303.786 177.802 304.452 177.802C305.928 177.802 308.394 176.92 308.394 171.394C308.394 169.36 307.908 167.884 306.036 167.884C305.838 167.884 305.64 167.902 305.442 167.938L305.046 168.01C305.406 166.966 305.802 165.706 305.892 165.238C306.252 165.22 306.486 165.076 306.486 164.95C306.486 164.842 306.378 164.752 306.162 164.698C305.73 164.572 304.434 164.356 304.434 164.356C304.38 165.616 303.948 167.038 303.516 168.244C302.796 168.37 301.266 168.604 300.474 168.604C299.97 168.604 299.52 168.568 299.142 168.514C299.124 168.514 299.106 168.514 299.088 168.514C299.034 168.514 299.016 168.514 299.016 168.568C299.016 168.586 299.016 168.622 299.034 168.658L299.502 170.026C299.592 170.026 299.682 170.026 299.772 170.026C300.402 170.026 301.266 169.918 302.202 169.702C302.472 169.648 302.742 169.576 303.012 169.522C301.896 172.186 300.312 174.976 298.656 177.748L300.276 178.018Z" fill="#1624BE"/>
<path d="M317.232 179.188C322.704 177.892 323.586 173.158 323.928 170.962H327.294C327.294 172.492 327.096 175.156 326.718 176.416C326.43 177.352 325.656 177.604 324.774 177.604C323.982 177.604 323.1 177.388 322.47 177.28L323.46 178.936C323.946 178.99 324.414 179.026 324.846 179.026C326.394 179.026 327.564 178.558 328.068 176.938C328.59 175.282 328.716 171.934 328.734 169.81C329.472 170.638 330.21 171.358 330.894 171.844L332.46 170.764C329.778 169.234 327.726 166.858 326.07 163.654L324.882 164.248C325.818 166.03 327.186 168.046 328.59 169.648H319.716C321.228 167.83 322.182 165.886 322.668 164.932C322.722 164.932 322.794 164.95 322.848 164.95C323.136 164.95 323.37 164.842 323.37 164.698C323.37 164.626 323.298 164.536 323.136 164.428C322.704 164.158 321.498 163.744 321.498 163.744C321.12 165.346 318.852 169.558 315.54 171.286L317.034 172.132C318.042 171.448 318.906 170.62 319.644 169.738V170.962H322.416C322.092 173.536 321.138 177.154 315.792 177.982L317.232 179.188Z" fill="#1624BE"/>
<path d="M345.078 168.46C345.042 168.478 345.006 168.514 345.006 168.55C345.006 168.568 345.042 168.604 345.096 168.64C347.616 169.882 348.714 171.664 348.93 173.356C348.948 173.428 348.966 173.464 349.002 173.464C349.038 173.464 349.074 173.446 349.11 173.428L350.406 172.726C350.244 170.998 348.606 169.216 346.32 167.848L345.078 168.46ZM336.276 178.018C338.004 174.724 339.372 172.096 340.56 169.234C341.064 169.144 341.532 169.072 341.73 169.072C342.738 169.072 343.008 169.936 343.008 171.25C343.008 172.438 342.774 173.914 342.468 174.76C342.09 175.822 341.334 176.29 340.506 176.29C339.75 176.29 338.94 175.894 338.328 175.264L338.526 177.172C339.12 177.586 339.786 177.802 340.452 177.802C341.928 177.802 344.394 176.92 344.394 171.394C344.394 169.36 343.908 167.884 342.036 167.884C341.838 167.884 341.64 167.902 341.442 167.938L341.046 168.01C341.406 166.966 341.802 165.706 341.892 165.238C342.252 165.22 342.486 165.076 342.486 164.95C342.486 164.842 342.378 164.752 342.162 164.698C341.73 164.572 340.434 164.356 340.434 164.356C340.38 165.616 339.948 167.038 339.516 168.244C338.796 168.37 337.266 168.604 336.474 168.604C335.97 168.604 335.52 168.568 335.142 168.514C335.124 168.514 335.106 168.514 335.088 168.514C335.034 168.514 335.016 168.514 335.016 168.568C335.016 168.586 335.016 168.622 335.034 168.658L335.502 170.026C335.592 170.026 335.682 170.026 335.772 170.026C336.402 170.026 337.266 169.918 338.202 169.702C338.472 169.648 338.742 169.576 339.012 169.522C337.896 172.186 336.312 174.976 334.656 177.748L336.276 178.018Z" fill="#1624BE"/>
<path d="M355.806 165.814C356.202 165.796 356.634 165.778 357.048 165.778C358.74 165.778 360.522 165.958 361.656 166.39L362.088 164.806C360.936 164.554 359.406 164.464 357.858 164.464C357.408 164.464 356.94 164.464 356.49 164.482L355.806 165.814ZM356.94 178C357.066 178 357.174 178 357.3 178C363.618 178 366.066 175.174 366.066 172.906C366.066 171.268 364.734 169.828 362.142 169.828C359.712 169.828 357.588 171.106 356.4 172.024C356.418 171.106 357.12 168.352 357.264 167.29L356.004 166.822C355.914 166.822 355.86 166.84 355.842 166.948C355.824 167.434 355.716 168.262 355.572 169.216C355.356 170.71 355.05 172.6 355.014 173.986C355.014 174.094 355.05 174.112 355.104 174.112C355.122 174.112 355.14 174.112 355.158 174.112L356.49 174.058C356.778 173.554 358.974 171.106 361.926 171.106C363.636 171.106 364.446 171.934 364.446 172.924C364.446 174.382 362.7 176.56 357.282 176.56C356.814 176.56 356.346 176.542 355.896 176.506L356.94 178Z" fill="#1624BE"/>
<path d="M380.106 168.046C380.106 168.064 380.106 168.064 380.106 168.082C380.106 168.118 380.124 168.118 380.25 168.118C380.502 168.1 380.754 168.1 381.006 168.1C382.716 168.1 384.012 168.478 384.624 169.054C384.66 169.09 384.678 169.09 384.696 169.09C384.732 169.09 384.75 169.054 384.768 169L385.218 167.794C384.57 167.074 382.752 166.876 381.222 166.876C380.916 166.876 380.61 166.876 380.322 166.894L380.106 168.046ZM385.398 176.56C384.57 175.786 382.644 174.67 381.474 174.238C381.438 173.5 381.348 172.69 381.348 171.88C381.348 171.394 381.384 170.908 381.474 170.44C381.798 170.386 381.96 170.26 381.96 170.152C381.96 170.044 381.852 169.954 381.6 169.9C381.168 169.81 380.16 169.738 380.16 169.738C380.106 170.062 380.088 170.512 380.088 171.016C380.088 171.934 380.142 173.014 380.196 173.914C379.656 173.806 379.026 173.716 378.378 173.716C376.182 173.716 375.066 174.742 375.066 175.804C375.066 176.938 376.506 178.054 378.234 178.054C379.854 178.054 381.33 177.064 381.492 175.57C382.374 176.056 383.562 176.902 384.174 177.568L385.398 176.56ZM373.158 175.174C374.238 173.158 376.038 169.792 377.082 166.984C377.946 166.768 378.864 166.534 379.62 166.318L379.548 164.968C378.954 165.202 378.162 165.436 377.388 165.67C377.514 165.202 377.622 164.698 377.712 164.266C378.054 164.212 378.216 164.104 378.234 163.978C378.234 163.762 378.072 163.708 376.236 163.546C376.236 164.626 375.948 165.724 375.858 166.048C374.778 166.282 374.328 166.318 373.986 166.318C373.266 166.318 372.636 166.138 371.844 165.814H371.826C371.772 165.814 371.754 165.832 371.754 165.886C371.754 165.904 371.754 165.904 371.754 165.922L372.024 167.272C372.492 167.47 373.014 167.56 373.572 167.56C373.986 167.56 374.418 167.524 374.886 167.434C375.084 167.398 375.318 167.344 375.552 167.308C374.472 170.116 372.708 173.104 371.574 174.85L373.158 175.174ZM380.232 175.174C380.124 176.182 379.278 176.812 378.234 176.812C377.424 176.812 376.344 176.398 376.344 175.786C376.344 175.192 377.208 174.85 378.342 174.85C378.99 174.85 379.692 174.958 380.232 175.174Z" fill="#1624BE"/>
<path d="M403.506 174.4C403.506 174.346 403.506 174.292 403.506 174.238C403.506 171.898 401.706 168.46 399.762 166.75L398.394 167.182C400.428 169.072 401.832 172.168 401.832 174.67C401.832 174.76 401.832 174.85 401.832 174.94C401.832 174.958 401.832 174.976 401.832 174.976C401.832 175.048 401.85 175.084 401.886 175.084C401.922 175.084 401.94 175.066 401.976 175.048L403.506 174.4ZM395.496 172.474C394.686 174.58 394.182 175.498 393.48 175.498C393.336 175.498 393.174 175.462 392.994 175.372C391.446 174.634 391.086 173.122 391.086 171.214C391.086 171.016 391.104 170.818 391.104 170.602C391.122 169.792 391.176 168.46 391.194 167.668C391.5 167.614 391.644 167.488 391.644 167.38C391.644 167.29 391.518 167.182 391.338 167.164C390.888 167.092 389.718 166.984 389.718 166.984C389.682 166.966 389.664 166.966 389.646 166.966C389.592 166.966 389.556 167.002 389.556 167.074C389.61 167.794 389.61 168.244 389.61 170.584C389.628 172.834 389.952 175.57 392.4 176.794C392.778 176.974 393.156 177.1 393.552 177.1C394.434 177.1 395.388 176.47 396.504 174.4L395.496 172.474Z" fill="#1624BE"/>
<defs>
<filter id="filter0_d" x="155" y="0" width="308" height="308" filterUnits="userSpaceOnUse" color-interpolation-filters="sRGB">
<feFlood flood-opacity="0" result="BackgroundImageFix"/>
<feColorMatrix in="SourceAlpha" type="matrix" values="0 0 0 0 0 0 0 0 0 0 0 0 0 0 0 0 0 0 127 0"/>
<feOffset dy="4"/>
<feGaussianBlur stdDeviation="15"/>
<feColorMatrix type="matrix" values="0 0 0 0 0 0 0 0 0 0 0 0 0 0 0 0 0 0 0.25 0"/>
<feBlend mode="normal" in2="BackgroundImageFix" result="effect1_dropShadow"/>
<feBlend mode="normal" in="SourceGraphic" in2="effect1_dropShadow" result="shape"/>
</filter>
<filter id="filter1_d" x="280" y="233" width="314" height="314" filterUnits="userSpaceOnUse" color-interpolation-filters="sRGB">
<feFlood flood-opacity="0" result="BackgroundImageFix"/>
<feColorMatrix in="SourceAlpha" type="matrix" values="0 0 0 0 0 0 0 0 0 0 0 0 0 0 0 0 0 0 127 0"/>
<feOffset dy="4"/>
<feGaussianBlur stdDeviation="15"/>
<feColorMatrix type="matrix" values="0 0 0 0 0 0 0 0 0 0 0 0 0 0 0 0 0 0 0.25 0"/>
<feBlend mode="normal" in2="BackgroundImageFix" result="effect1_dropShadow"/>
<feBlend mode="normal" in="SourceGraphic" in2="effect1_dropShadow" result="shape"/>
</filter>
<filter id="filter2_d" x="0" y="180" width="322" height="322" filterUnits="userSpaceOnUse" color-interpolation-filters="sRGB">
<feFlood flood-opacity="0" result="BackgroundImageFix"/>
<feColorMatrix in="SourceAlpha" type="matrix" values="0 0 0 0 0 0 0 0 0 0 0 0 0 0 0 0 0 0 127 0"/>
<feOffset dy="4"/>
<feGaussianBlur stdDeviation="15"/>
<feColorMatrix type="matrix" values="0 0 0 0 0 0 0 0 0 0 0 0 0 0 0 0 0 0 0.25 0"/>
<feBlend mode="normal" in2="BackgroundImageFix" result="effect1_dropShadow"/>
<feBlend mode="normal" in="SourceGraphic" in2="effect1_dropShadow" result="shape"/>
</filter>
</defs>
</svg>
