<svg width="24" height="144" viewBox="0 0 24 144" fill="none" xmlns="http://www.w3.org/2000/svg">
<path d="M20.46 9.54953C21.96 8.70953 22.62 7.68953 22.62 6.16953C22.62 3.98953 21.14 2.42953 19.06 2.42953C17.54 2.42953 16.74 3.04953 15.46 5.14953C14.36 6.96953 13.8 7.42953 12.7 7.42953C11.18 7.42953 10.14 6.38953 10.14 4.90953C10.14 4.08953 10.44 3.34953 10.98 2.80953C11.3 2.50953 11.6 2.32953 12.28 2.04953L11.58 0.889531C10.7 1.28953 10.3 1.54953 9.84 2.02953C9.14 2.78953 8.74 3.82953 8.74 4.94953C8.74 7.24953 10.36 8.92953 12.58 8.92953C14.26 8.92953 15.18 8.26953 16.54 5.98953C17.56 4.30953 18.06 3.88953 19.04 3.88953C20.26 3.88953 21.22 4.88953 21.22 6.14953C21.22 7.20953 20.7 7.92953 19.56 8.52953L20.46 9.54953ZM16.26 17.8561C17.06 16.8961 17.34 16.1561 17.34 15.0361C17.34 12.5561 15.4 10.7161 12.8 10.7161C10.42 10.7161 8.74 12.3961 8.74 14.7561C8.74 15.5961 8.92 16.2361 9.36 17.0161L10.94 17.1961C10.26 16.3961 10.02 15.7961 10.02 14.9761C10.02 13.2961 11.16 12.1561 12.84 12.1561C14.72 12.1561 16.06 13.3961 16.06 15.0961C16.06 16.1161 15.68 16.8361 14.74 17.6761L16.26 17.8561ZM17.08 21.4187L17.08 20.0187L9 19.0187L9 20.4187L13.16 20.9387C14.34 21.0787 14.96 21.3187 15.44 21.7987C15.76 22.1187 15.94 22.5187 15.94 22.9387C15.94 23.2587 15.86 23.5187 15.66 23.8987L16.82 24.7588C17.18 24.2388 17.28 23.9387 17.28 23.4387C17.28 22.6588 17 22.1187 16.16 21.2987L17.08 21.4187ZM17.34 29.4744C17.34 26.9544 15.4 24.9744 12.92 24.9744C10.52 24.9744 8.74 26.8144 8.74 29.2744C8.74 31.7344 10.64 33.6544 13.1 33.6544C15.58 33.6544 17.34 31.9144 17.34 29.4744ZM16.06 29.4144C16.06 31.0744 14.86 32.2144 13.14 32.2144C11.34 32.2144 10.02 30.9744 10.02 29.2944C10.02 27.6344 11.28 26.4144 12.96 26.4144C14.72 26.4144 16.06 27.7144 16.06 29.4144ZM23.58 38.4883L23.58 37.0883L9 35.2883L9 36.6883L23.58 38.4883ZM23.58 42.6094L23.58 41.2094L9 39.4094L9 40.8094L23.58 42.6094Z" fill="white"/>
<line x1="13" y1="56" x2="13" y2="144" stroke="url(#paint0_linear)" stroke-width="2"/>
<defs>
<linearGradient id="paint0_linear" x1="11.4996" y1="144" x2="11.4996" y2="56" gradientUnits="userSpaceOnUse">
<stop stop-color="white"/>
<stop offset="1" stop-color="white" stop-opacity="0"/>
</linearGradient>
</defs>
</svg>
