<svg width="1800" height="840" viewBox="0 0 1800 840" fill="none" xmlns="http://www.w3.org/2000/svg">
<mask id="mask0" mask-type="alpha" maskUnits="userSpaceOnUse" x="0" y="0" width="1800" height="840">
<rect width="1800" height="840" fill="#C4C4C4"/>
</mask>
<g mask="url(#mask0)">
<rect x="883.508" y="445.635" width="67.6916" height="67.6916" transform="rotate(-180 883.508 445.635)" fill="#8AE3FF" fill-opacity="0.1"/>
<rect x="921.115" y="396.746" width="67.6916" height="67.6916" transform="rotate(-180 921.115 396.746)" fill="#8AE3FF" fill-opacity="0.1"/>
<rect x="744.363" y="547.172" width="33.8458" height="33.8458" transform="rotate(-180 744.363 547.172)" fill="#8AE3FF" fill-opacity="0.1"/>
<rect x="218.17" y="554.171" width="60.1703" height="60.1703" transform="rotate(-180 218.17 554.171)" fill="#8AE3FF" fill-opacity="0.1"/>
<rect x="620.262" y="430.592" width="33.8458" height="33.8458" transform="rotate(-180 620.262 430.592)" fill="#8AE3FF" fill-opacity="0.1"/>
<rect x="939.922" y="524.608" width="11.2819" height="11.2819" transform="rotate(-180 939.922 524.608)" fill="#8AE3FF" fill-opacity="0.1"/>
<rect x="913.596" y="547.172" width="11.2819" height="11.2819" transform="rotate(-180 913.596 547.172)" fill="#8AE3FF" fill-opacity="0.1"/>
<rect x="1066.03" y="355.338" width="33.8458" height="33.8458" transform="rotate(-180 1066.03 355.338)" fill="#8AE3FF" fill-opacity="0.1"/>
<rect x="1215.07" y="228.844" width="33.8458" height="33.8458" transform="rotate(-180 1215.07 228.844)" fill="#8AE3FF" fill-opacity="0.1"/>
<rect x="1493.8" y="294.426" width="33.8458" height="33.8458" transform="rotate(-180 1493.8 294.426)" fill="#8AE3FF" fill-opacity="0.1"/>
<rect x="838.381" y="272.646" width="33.8458" height="33.8458" transform="rotate(-180 838.381 272.646)" fill="#8AE3FF" fill-opacity="0.1"/>
<rect x="714.277" y="156.065" width="33.8458" height="33.8458" transform="rotate(-180 714.277 156.065)" fill="#8AE3FF" fill-opacity="0.1"/>
<rect x="744.363" y="197.433" width="11.2819" height="11.2819" transform="rotate(-180 744.363 197.433)" fill="#8AE3FF" fill-opacity="0.1"/>
<rect x="1625.14" y="308.201" width="67.6916" height="67.6916" fill="#8AE3FF" fill-opacity="0.1"/>
<rect x="1587.53" y="357.09" width="67.6916" height="67.6916" fill="#8AE3FF" fill-opacity="0.1"/>
<rect x="1764.28" y="206.664" width="33.8458" height="33.8458" fill="#8AE3FF" fill-opacity="0.1"/>
<rect x="1595.05" y="206.664" width="11.2819" height="11.2819" fill="#8AE3FF" fill-opacity="0.1"/>
<rect x="1484.16" y="401.573" width="33.8458" height="33.8458" fill="#8AE3FF" fill-opacity="0.1"/>
<rect x="1293.58" y="524.992" width="33.8458" height="33.8458" fill="#8AE3FF" fill-opacity="0.1"/>
<rect x="1014.85" y="459.41" width="33.8458" height="33.8458" fill="#8AE3FF" fill-opacity="0.1"/>
<rect x="1790.61" y="533.84" width="11.2819" height="11.2819" fill="#8AE3FF" fill-opacity="0.1"/>
</g>
</svg>
