<svg width="90" height="80" viewBox="0 0 90 80" fill="none" xmlns="http://www.w3.org/2000/svg">
<g opacity="0.5">
<path d="M50.8204 63.9407L55.1862 67.9368C54.9307 67.9583 54.6889 67.974 54.4401 67.974H34.7263H34.5879L34.4692 68.0452L16.6604 78.7235L16.6236 78.7455L16.591 78.7736C16.1676 79.1386 15.6523 79.3339 15.1523 79.3339C14.8703 79.3339 14.5873 79.2776 14.3167 79.1639C13.5589 78.841 13.0669 78.1149 13.0485 77.2854L13.3801 66.882L13.3918 66.515L13.0451 66.394C10.0711 65.3566 6.92101 63.8332 4.52197 61.6529C2.13347 59.4821 0.5 56.6726 0.5 53.0245V26.7395C0.5 18.4866 7.19731 11.79 15.432 11.79H15.6863C15.6812 11.8074 15.676 11.8247 15.6706 11.8421L15.6706 11.8421L15.669 11.8473C15.0619 13.9008 14.7223 16.0807 14.7223 18.3332V40.7384C14.7223 53.5276 25.1173 63.9407 37.9246 63.9407H50.8204Z" stroke="white"/>
<path d="M53.0485 58.7032L52.905 58.5714H52.7103H37.9249C28.0823 58.5714 20.0918 50.5641 20.0918 40.7383V18.3331C20.0918 8.49053 28.0992 0.5 37.9249 0.5H71.1482C80.9911 0.5 88.9813 8.49022 88.9813 18.3331V40.7208C88.9813 48.03 84.5792 54.3207 78.2709 57.0753L77.9751 57.2044L77.971 57.5272L77.8662 65.8986L77.8662 65.8989C77.8336 68.6202 76.2041 71.0641 73.7115 72.1393L73.7115 72.1393L73.7033 72.143C72.8479 72.5303 71.923 72.7101 70.9909 72.7101C69.294 72.7101 67.6165 72.09 66.3319 70.903L66.3308 70.902L53.0485 58.7032ZM70.6353 66.1858L71.4596 66.9426L71.4734 65.8237L71.5433 60.1787L71.6422 52.1858C77.7366 51.9266 82.6062 46.8959 82.6062 40.7383V18.3331C82.6062 12.01 77.4713 6.87519 71.1482 6.87519H37.9249C31.6018 6.87519 26.467 12.01 26.467 18.3331V40.7383C26.467 47.0614 31.6018 52.1962 37.9249 52.1962H55.3992L70.6353 66.1858Z" stroke="white"/>
<path d="M41.6993 18.6934H67.3726C68.0261 18.6934 68.5504 19.2069 68.5504 19.8711C68.5504 20.5213 68.0227 21.0489 67.3726 21.0489H41.6993C41.0491 21.0489 40.5215 20.5213 40.5215 19.8711C40.5215 19.221 41.0491 18.6934 41.6993 18.6934Z" stroke="white"/>
<path d="M41.6993 27.4668H67.3726C68.0227 27.4668 68.5504 27.9944 68.5504 28.6446C68.5504 29.2947 68.0227 29.8223 67.3726 29.8223H41.6993C41.0491 29.8223 40.5215 29.2947 40.5215 28.6446C40.5215 27.9944 41.0491 27.4668 41.6993 27.4668Z" stroke="white"/>
<path d="M41.6993 36.2402H55.6457C56.2958 36.2402 56.8235 36.7679 56.8235 37.418C56.8235 38.0681 56.2958 38.5958 55.6457 38.5958H41.6993C41.0491 38.5958 40.5215 38.0681 40.5215 37.418C40.5215 36.7679 41.0491 36.2402 41.6993 36.2402Z" stroke="white"/>
</g>
</svg>
