<svg width="415" height="204" viewBox="0 0 415 204" fill="none" xmlns="http://www.w3.org/2000/svg">
<path fill-rule="evenodd" clip-rule="evenodd" d="M110.938 171.315C147.22 171.315 176.632 141.945 176.632 105.716C176.632 69.4873 147.22 40.1179 110.938 40.1179C74.6568 40.1179 45.2449 69.4873 45.2449 105.716C45.2449 141.945 74.6568 171.315 110.938 171.315ZM110.938 167.083C144.879 167.083 172.393 139.608 172.393 105.716C172.393 71.8247 144.879 44.3501 110.938 44.3501C76.9975 44.3501 49.4832 71.8247 49.4832 105.716C49.4832 139.608 76.9975 167.083 110.938 167.083Z" fill="#232538"/>
<path fill-rule="evenodd" clip-rule="evenodd" d="M100.885 63.5185H121.182L153.581 140.625H130.805L111.13 91.269L91.7345 140.625H68.6794L100.885 63.5185Z" fill="#232538"/>
<mask id="mask0" mask-type="alpha" maskUnits="userSpaceOnUse" x="68" y="63" width="86" height="78">
<path fill-rule="evenodd" clip-rule="evenodd" d="M100.885 63.5185H121.182L153.581 140.625H130.805L111.13 91.269L91.7345 140.625H68.6794L100.885 63.5185Z" fill="white"/>
</mask>
<g mask="url(#mask0)">
</g>
<path fill-rule="evenodd" clip-rule="evenodd" d="M215.685 77.6976H226.94L251.06 133.605H239.08L221.562 91.2084L204.011 133.605H192.018L215.685 77.6976Z" fill="#232538"/>
<path fill-rule="evenodd" clip-rule="evenodd" d="M273.359 77.6976H262.258V133.605L262.258 133.605H299.922V122.823H273.359V77.6976Z" fill="#232538"/>
<path fill-rule="evenodd" clip-rule="evenodd" d="M311.12 77.6976H322.054V88.9715L311.12 94.6084V77.6976Z" fill="#232538"/>
<path fill-rule="evenodd" clip-rule="evenodd" d="M311.12 98.3664L322.054 92.7294V133.513H311.12V98.3664Z" fill="#232538"/>
<path fill-rule="evenodd" clip-rule="evenodd" d="M343.11 120.3C347.529 123.766 352.785 125.523 358.88 125.571C366.092 125.474 369.748 123.014 369.85 118.192C369.901 114.241 367.488 111.866 362.613 111.066C360.378 110.776 357.928 110.448 355.261 110.085C350.487 109.334 346.856 107.649 344.367 105.032C341.803 102.342 340.52 99.0701 340.52 95.2167C340.52 90.5878 342.133 86.8557 345.358 84.0202C348.481 81.2089 352.912 79.779 358.651 79.7306C365.558 79.876 371.564 81.7057 376.668 85.2198L371.983 91.836C367.818 89.2186 363.235 87.8614 358.232 87.7645C355.642 87.7645 353.484 88.3825 351.757 89.6185C349.954 90.9029 349.027 92.8175 348.976 95.3622C348.976 96.889 349.598 98.2704 350.843 99.5063C352.087 100.767 354.08 101.639 356.823 102.124C358.347 102.366 360.429 102.645 363.07 102.96C368.276 103.638 372.123 105.42 374.611 108.304C377.074 111.139 378.306 114.435 378.306 118.192C378.027 128.322 371.526 133.46 358.804 133.605C350.576 133.605 343.504 131.182 337.587 126.334L343.11 120.3Z" fill="#232538" stroke="#232538" stroke-width="0.4"/>
</svg>
