<svg width="175" height="31" viewBox="0 0 175 31" fill="none" xmlns="http://www.w3.org/2000/svg">
<g clip-path="url(#clip0)">
<path fill-rule="evenodd" clip-rule="evenodd" d="M0.34668 23.6507H6.84429L4.83139 29.7314H0.34668V23.6507ZM0.34668 12.0924H10.6724L8.6584 18.172H0.34668V12.0924ZM0.34668 0.53418H14.4994L12.4865 6.61376H0.34668V0.53418ZM20.9039 0.53418H37.057V6.61376H18.8921L20.9039 0.53418ZM15.0629 18.172L17.0758 12.0924H37.057V18.172H15.064H15.0629ZM13.2488 23.6518H37.0582V29.7314H11.2359L13.2488 23.6518Z" fill="#FD5750"/>
<path fill-rule="evenodd" clip-rule="evenodd" d="M93.1849 18.574L96.3576 8.98433C97.2914 8.98433 98.1774 8.99341 99.0384 8.99341L94.8127 21.2276H91.4764L87.4893 8.98433H90.2735L93.1849 18.574ZM130.155 2.83659V18.8477H133.859V21.2264H127.533V5.05054H124.92V2.83545H130.157L130.155 2.83659ZM117.603 11.2483C117.658 11.0415 118.21 8.873 120.357 8.873H124.041V11.5232H119.959C118.95 11.5232 117.767 12.3694 117.767 13.753L117.755 21.2276H115.056V8.95138C115.891 8.95138 116.654 8.94798 117.552 8.94798L117.604 11.2471L117.603 11.2483ZM155.47 13.7701C157.441 14.0018 160.418 14.3528 160.577 17.3926C160.654 18.8193 160.086 19.7122 159.598 20.2097C158.339 21.4922 156.34 21.5763 154.947 21.5274C152.226 21.4332 149.888 20.2961 149.79 20.2484L150.923 17.9424C150.94 17.9515 152.756 18.9273 154.907 19.0897C158.127 19.3328 158.152 18.0639 158.124 17.5278C158.085 16.8144 157.442 16.5895 155.17 16.3214C153.148 16.0829 150.092 15.7228 150.02 12.5273C149.996 11.5391 150.343 10.6621 151.025 9.98964C151.934 9.09111 153.422 8.60833 155.106 8.6674C157.681 8.75714 159.896 9.43984 159.989 9.46824L159.225 11.9219C157.854 11.5295 156.442 11.2988 155.017 11.2346C154.08 11.2017 153.222 11.43 152.83 11.8174C152.655 11.9889 152.581 12.19 152.586 12.4671C152.605 13.2157 152.983 13.4781 155.47 13.7701ZM173.71 17.3915C173.786 18.8193 173.219 19.7122 172.731 20.2109C171.472 21.4922 169.473 21.5763 168.08 21.5274C165.358 21.4332 163.021 20.2961 162.923 20.2484L163.968 18.1196C163.986 18.1276 165.888 18.9273 168.039 19.0897C171.26 19.3317 171.285 18.0639 171.256 17.5278C171.219 16.8144 170.576 16.5895 168.303 16.3214C166.281 16.0829 163.225 15.7228 163.152 12.5273C163.129 11.5391 163.476 10.6621 164.157 9.98964C165.066 9.08997 166.553 8.60833 168.239 8.6674C170.813 8.756 173.029 9.43984 173.121 9.46824L172.358 11.9207C172.338 11.9151 170.369 11.2346 168.149 11.2346C166.193 11.2346 165.718 11.8583 165.718 12.4671C165.718 13.2157 166.116 13.4781 168.603 13.7701C170.573 14.0018 173.551 14.3528 173.71 17.3915ZM54.4082 13.7701C56.3791 14.0018 59.3564 14.3528 59.5155 17.3926C59.5916 18.8193 59.0247 19.7122 58.5363 20.2097C57.2765 21.4922 55.2784 21.5763 53.8857 21.5274C51.164 21.4332 48.8262 20.2961 48.7285 20.2484L49.8611 17.9424C49.8781 17.9515 51.6945 18.9273 53.8448 19.0897C57.0652 19.3328 57.0902 18.0639 57.0618 17.5278C57.0243 16.8144 56.3814 16.5895 54.1084 16.3214C52.0864 16.0829 49.0307 15.7228 48.958 12.5273C48.9341 11.5391 49.2817 10.6621 49.9622 9.98964C50.8732 9.09111 52.359 8.60833 54.0447 8.6674C55.6984 8.73784 57.3376 9.00671 58.927 9.46824L58.1637 11.9219C58.1432 11.9151 56.1724 11.3107 53.955 11.2346C53.0178 11.2017 52.1591 11.43 51.7683 11.8174C51.5934 11.9889 51.5195 12.19 51.5252 12.4671C51.5423 13.2157 51.9228 13.4781 54.4082 13.7701ZM141.643 8.64922C147.427 8.64922 147.427 14.5357 147.427 14.5357V16.1113H138.238C138.238 17.6073 139.544 19.2169 141.966 19.2169C143.989 19.2169 146.088 18.399 146.088 18.399L146.758 20.504C146.758 20.504 144.18 21.5354 141.75 21.5354C135.964 21.5354 135.533 16.3907 135.533 14.9992C135.533 13.6065 136.51 8.64922 141.643 8.64922ZM144.93 13.8916C144.93 13.8916 145.048 10.9836 141.643 10.9836C138.565 10.9836 138.206 13.8916 138.206 13.8916H144.931H144.93ZM106.493 8.64922C112.278 8.64922 112.278 14.5357 112.278 14.5357V16.1113H103.088C103.088 17.6073 104.394 19.2169 106.816 19.2169C108.839 19.2169 110.939 18.399 110.939 18.399L111.608 20.504C111.608 20.504 109.029 21.5354 106.6 21.5354C100.814 21.5354 100.383 16.3907 100.383 14.9992C100.383 13.6065 101.36 8.64922 106.493 8.64922ZM109.78 13.8916C109.78 13.8916 109.898 10.9836 106.494 10.9836C103.415 10.9836 103.056 13.8916 103.056 13.8916H109.781H109.78ZM67.6704 8.64922C73.4547 8.64922 73.4547 14.5357 73.4547 14.5357V16.1113H64.2649C64.2649 17.6073 65.5712 19.2169 67.993 19.2169C70.0161 19.2169 72.1154 18.399 72.1154 18.399L72.7844 20.504C72.7844 20.504 70.2058 21.5354 67.7772 21.5354C61.9907 21.5354 61.559 16.3907 61.559 14.9992C61.559 13.6065 62.5359 8.64922 67.6704 8.64922ZM70.9567 13.8916C70.9567 13.8916 71.0748 10.9836 67.6704 10.9836C64.592 10.9836 64.233 13.8916 64.233 13.8916H70.9578H70.9567ZM78.6811 11.2483C78.7357 11.0415 79.2877 8.873 81.4347 8.873H85.1185V11.5232H81.0371C80.0284 11.5232 78.8447 12.3694 78.8447 13.753L78.8334 21.2276H76.1344V8.95138C76.9681 8.95138 77.7315 8.94798 78.63 8.94798L78.6823 11.2471L78.6811 11.2483Z" fill="black"/>
</g>
<defs>
<clipPath id="clip0">
<rect width="173.8" height="29.5346" fill="white" transform="translate(0.34668 0.53418)"/>
</clipPath>
</defs>
</svg>
