<svg width="140" height="40" viewBox="0 0 140 40" fill="none" xmlns="http://www.w3.org/2000/svg">
<path d="M18.9217 18.916H37.8434V28.86V37.832H8.97473L0 28.86H28.8687L18.9217 18.916ZM37.8434 8.97203L28.8687 0H0V8.97203V18.916H18.9217L8.97473 8.97203H37.8434Z" fill="#FFF300"/>
<path d="M74.6407 6.95324C74.3416 6.87848 73.9676 6.80371 73.6684 6.80371C73.1449 6.80371 72.6962 6.87848 72.3222 7.10278C71.9483 7.32708 71.4996 7.62615 71.0508 8.14951V6.80371H68.3584V18.9907H71.0508V12.7103C71.0508 10.5421 71.7987 9.42055 73.2197 9.42055C73.6684 9.42055 74.192 9.57009 74.7155 9.94392V6.95324H74.6407Z" fill="#FFF300"/>
<path d="M106.201 6.95324C105.902 6.87848 105.528 6.80371 105.229 6.80371C104.705 6.80371 104.257 6.87848 103.883 7.10278C103.509 7.32708 103.06 7.62615 102.611 8.14951V6.80371H99.9189V18.9907H102.611V12.7103C102.611 10.5421 103.359 9.42055 104.78 9.42055C105.229 9.42055 105.753 9.57009 106.276 9.94392V6.95324H106.201Z" fill="#FFF300"/>
<path d="M67.0112 13.4579H58.7844C58.8592 14.4299 59.1583 15.1775 59.6819 15.7009C60.2054 16.2243 60.9533 16.5233 61.776 16.5233C62.4491 16.5233 62.9726 16.3738 63.4213 16.0747C63.8701 15.7757 64.3188 15.1775 64.8423 14.3551L66.7121 16.2243C66.4877 16.5981 66.2633 16.8972 65.9642 17.1215C65.5902 17.5701 65.1415 17.8691 64.6927 18.1682C64.244 18.4673 63.7953 18.6168 63.2717 18.7664C62.7482 18.9159 62.2247 18.9907 61.6264 18.9907C59.9062 18.9907 58.56 18.4673 57.513 17.3458C56.4659 16.2243 55.9424 14.7289 55.9424 12.9345C55.9424 11.1401 56.4659 9.64479 57.4382 8.52329C58.4852 7.40179 59.8314 6.87842 61.4768 6.87842C63.197 6.87842 64.5432 7.40179 65.5154 8.52329C66.4877 9.57003 67.0112 11.0654 67.0112 13.0093V13.4579ZM64.3188 11.2897C63.9448 9.86909 63.0474 9.19619 61.6264 9.19619C61.3272 9.19619 61.0281 9.27096 60.7289 9.34573C60.4297 9.42049 60.2054 9.57003 59.981 9.79433C59.7566 9.94386 59.5323 10.1682 59.3827 10.4672C59.2331 10.6915 59.0835 10.9906 59.0087 11.3644H64.3188V11.2897Z" fill="#FFF300"/>
<path d="M98.5727 13.4579H90.3459C90.4207 14.4299 90.7198 15.1775 91.2434 15.7009C91.7669 16.2243 92.5148 16.5233 93.3375 16.5233C94.0106 16.5233 94.5341 16.3738 94.9828 16.0747C95.4316 15.7757 95.8803 15.1775 96.4038 14.3551L98.2736 16.2243C98.0492 16.5981 97.8248 16.8972 97.5257 17.1215C97.1517 17.5701 96.703 17.8691 96.2543 18.1682C95.8055 18.4673 95.3568 18.6168 94.8333 18.7664C94.3097 18.9159 93.7862 18.9907 93.1879 18.9907C91.4677 18.9907 90.1215 18.4673 89.0745 17.3458C88.0274 16.2243 87.5039 14.7289 87.5039 12.9345C87.5039 11.1401 88.0274 9.64479 88.9997 8.52329C90.0467 7.40179 91.393 6.87842 93.0383 6.87842C94.7585 6.87842 96.1047 7.40179 97.077 8.52329C98.0492 9.57003 98.5727 11.0654 98.5727 13.0093V13.4579ZM95.8055 11.2897C95.4316 9.86909 94.5341 9.19619 93.1131 9.19619C92.814 9.19619 92.5148 9.27096 92.2156 9.34573C91.9165 9.42049 91.6921 9.57003 91.4677 9.79433C91.2434 9.94386 91.019 10.1682 90.8694 10.4672C90.7198 10.6915 90.5703 10.9906 90.4955 11.3644H95.8055V11.2897Z" fill="#FFF300"/>
<path d="M122.505 13.4579H114.279C114.353 14.4299 114.652 15.1775 115.176 15.7009C115.7 16.2243 116.447 16.5233 117.27 16.5233C117.943 16.5233 118.467 16.3738 118.915 16.0747C119.364 15.7757 119.813 15.1775 120.336 14.3551L122.206 16.2243C121.982 16.5981 121.757 16.8972 121.458 17.1215C121.084 17.5701 120.636 17.8691 120.187 18.1682C119.738 18.4673 119.289 18.6168 118.766 18.7664C118.242 18.9159 117.719 18.9907 117.121 18.9907C115.4 18.9907 114.054 18.4673 113.007 17.3458C111.96 16.2243 111.437 14.7289 111.437 12.9345C111.437 11.1401 111.96 9.64479 112.932 8.52329C113.979 7.40179 115.326 6.87842 116.971 6.87842C118.691 6.87842 120.037 7.40179 121.01 8.52329C121.982 9.57003 122.505 11.0654 122.505 13.0093V13.4579ZM119.813 11.2897C119.439 9.86909 118.542 9.19619 117.121 9.19619C116.821 9.19619 116.522 9.27096 116.223 9.34573C115.924 9.42049 115.7 9.57003 115.475 9.79433C115.251 9.94386 115.026 10.1682 114.877 10.4672C114.727 10.6915 114.578 10.9906 114.503 11.3644H119.813V11.2897Z" fill="#FFF300"/>
<path d="M78.3055 6.80371L81.4466 13.6075L84.5878 6.80371H87.5794L81.4466 19.4393L75.3887 6.80371H78.3055V6.80371Z" fill="#FFF300"/>
<path d="M110.165 3.43917V20.0374L107.473 17.3458V0.747559L110.165 3.43917Z" fill="#FFF300"/>
<path d="M128.04 10.243C127.666 9.57009 127.292 9.19625 126.768 9.19625C126.544 9.19625 126.32 9.27102 126.17 9.42055C126.021 9.57009 125.946 9.79439 125.946 10.0187C125.946 10.4673 126.469 10.9159 127.516 11.3645C128.937 11.9626 129.91 12.5608 130.358 13.0094C130.882 13.5327 131.106 14.2056 131.106 15.1028C131.106 16.2243 130.732 17.1215 129.91 17.8692C129.087 18.5421 128.115 18.9159 126.993 18.9159C125.347 18.9159 124.151 18.243 123.328 16.8972L125.198 15.0281C125.497 15.5514 125.721 15.9253 125.946 16.0748C126.245 16.3739 126.619 16.5234 127.068 16.5234C127.965 16.5234 128.414 16.1496 128.414 15.3271C128.414 14.8785 128.04 14.4299 127.367 13.9813C127.068 13.8318 126.843 13.6823 126.544 13.6075C126.245 13.458 126.021 13.3832 125.721 13.2337C124.973 12.8598 124.375 12.486 124.076 12.1122C123.702 11.6636 123.478 10.9907 123.478 10.243C123.478 9.27102 123.852 8.44858 124.525 7.77568C125.198 7.10278 126.095 6.80371 127.068 6.80371C128.339 6.80371 129.311 7.32708 129.984 8.44858L128.04 10.243Z" fill="#FFF300"/>
<path d="M136.491 10.243C136.117 9.57009 135.743 9.19625 135.22 9.19625C134.995 9.19625 134.771 9.27102 134.621 9.42055C134.472 9.57009 134.397 9.79439 134.397 10.0187C134.397 10.4673 134.92 10.9159 135.968 11.3645C137.389 11.9626 138.361 12.5608 138.81 13.0094C139.333 13.5327 139.557 14.2056 139.557 15.1028C139.557 16.2243 139.183 17.1215 138.361 17.8692C137.538 18.5421 136.566 18.9159 135.444 18.9159C133.799 18.9159 132.602 18.243 131.779 16.8972L133.649 15.0281C133.948 15.5514 134.173 15.9253 134.397 16.0748C134.696 16.3739 135.07 16.5234 135.519 16.5234C136.416 16.5234 136.865 16.1496 136.865 15.3271C136.865 14.8785 136.491 14.4299 135.818 13.9813C135.519 13.8318 135.294 13.6823 134.995 13.6075C134.696 13.458 134.472 13.3832 134.173 13.2337C133.425 12.8598 132.826 12.486 132.527 12.1122C132.153 11.6636 131.929 10.9907 131.929 10.243C131.929 9.27102 132.303 8.44858 132.976 7.77568C133.649 7.10278 134.547 6.80371 135.519 6.80371C136.79 6.80371 137.762 7.32708 138.436 8.44858L136.491 10.243Z" fill="#FFF300"/>
<path d="M51.9795 4.41125C51.5308 3.66358 51.1568 3.21498 50.7829 2.99068C50.4089 2.76637 49.8854 2.61684 49.2871 2.61684C48.5392 2.61684 47.8661 2.84114 47.4174 3.28974C46.8938 3.73834 46.6695 4.26171 46.6695 4.85985C46.6695 5.75705 47.3426 6.42995 48.6888 7.02809L50.4837 7.77576C51.9795 8.37389 53.0266 9.12156 53.6997 9.944C54.3728 10.7664 54.7467 11.8879 54.7467 13.0842C54.7467 14.7291 54.2232 16.1496 53.1014 17.2712C51.9795 18.3927 50.5585 18.916 48.9132 18.916C47.3426 18.916 45.9964 18.4674 45.0241 17.4955C44.351 16.8973 43.9023 16.1496 43.5283 15.2524L45.8468 12.9347C45.9964 13.9814 46.2207 14.7291 46.5199 15.1777C47.1182 16.0001 47.9409 16.3739 48.9879 16.3739C49.8106 16.3739 50.5585 16.0749 51.1568 15.4767C51.7552 14.8786 51.9795 14.2057 51.9795 13.3085C51.9795 12.9347 51.9047 12.6356 51.8299 12.3365C51.7552 12.0375 51.6056 11.7384 51.3812 11.5141C51.1568 11.2898 50.9325 11.0655 50.5585 10.8412C50.2594 10.6169 49.8106 10.3926 49.3619 10.2431L47.5669 9.49539C45.0989 8.44866 43.8275 6.87855 43.8275 4.85985C43.8275 3.51404 44.351 2.31777 45.3981 1.42057C46.4451 0.448601 47.7165 0 49.2871 0C51.1568 0 52.7274 0.822436 53.8493 2.54207L51.9795 4.41125Z" fill="#FFF300"/>
<path d="M88.7008 27.4391C88.4017 27.3644 88.1025 27.2896 87.8782 27.2896C87.4294 27.2896 87.0555 27.3644 86.6815 27.5139C86.3824 27.6634 86.0084 27.9625 85.5597 28.4111V27.2148H83.2412V37.8317H85.5597V32.3738C85.5597 30.5046 86.158 29.5326 87.4294 29.5326C87.8782 29.5326 88.2521 29.6821 88.7008 29.9812V27.4391V27.4391Z" fill="#FFF300"/>
<path d="M43.4531 29.6074C43.4531 27.3643 44.2758 25.4204 45.9212 23.8503C47.5665 22.2802 49.5111 21.4578 51.8295 21.4578C54.0732 21.4578 56.0177 22.2802 57.6631 23.8503C59.3085 25.4952 60.1312 27.4391 60.1312 29.6821C60.1312 31.9999 59.3085 33.8691 57.6631 35.5139C56.0177 37.084 54.0732 37.9065 51.7547 37.9065C49.7354 37.9065 47.8657 37.2336 46.2203 35.813C44.3506 34.1681 43.4531 32.1494 43.4531 29.6074ZM45.8464 29.6074C45.8464 31.327 46.4447 32.8223 47.6413 33.9438C48.838 35.0653 50.1842 35.6635 51.68 35.6635C53.3253 35.6635 54.7463 35.0653 55.8682 33.9438C56.99 32.7476 57.5883 31.327 57.5883 29.6821C57.5883 27.9625 56.99 26.5419 55.8682 25.4204C54.7463 24.2989 53.3253 23.7008 51.68 23.7008C50.0346 23.7008 48.6136 24.2989 47.4918 25.4204C46.4447 26.5419 45.8464 27.9625 45.8464 29.6074Z" fill="#FFF300"/>
<path d="M63.4972 39.9999H61.1787V27.2896H63.4972V28.6354C64.3947 27.7382 65.4417 27.2896 66.6383 27.2896C67.9845 27.2896 69.1812 27.8129 70.0039 28.7849C70.9013 29.7569 71.3501 31.0279 71.3501 32.598C71.3501 34.0933 70.9013 35.3644 70.0039 36.3363C69.1064 37.3083 67.9845 37.8317 66.6383 37.8317C65.4417 37.8317 64.3947 37.3831 63.4972 36.4111V39.9999ZM68.9568 32.6728C68.9568 31.7008 68.7324 30.9531 68.2089 30.355C67.6854 29.7569 67.0123 29.4578 66.1896 29.4578C65.3669 29.4578 64.619 29.7569 64.0955 30.355C63.572 30.9531 63.2728 31.7008 63.2728 32.6728C63.2728 33.6447 63.572 34.3924 64.0955 34.9905C64.619 35.5887 65.2921 35.8877 66.1148 35.8877C66.9375 35.8877 67.6106 35.5887 68.1341 34.9905C68.7324 34.3176 68.9568 33.57 68.9568 32.6728Z" fill="#FFF300"/>
<path d="M82.0442 33.1214H74.8644C74.9392 33.9439 75.1635 34.6168 75.6871 35.0654C76.1358 35.514 76.7341 35.813 77.482 35.813C78.0803 35.813 78.5291 35.6635 78.903 35.4392C79.2769 35.1401 79.7257 34.6915 80.1744 33.9439L81.8198 35.5887C81.5954 35.8878 81.4458 36.1121 81.2215 36.4112C80.9223 36.785 80.5484 37.0841 80.1744 37.3084C79.8005 37.5327 79.3517 37.6822 78.903 37.8317C78.4543 37.9065 78.0055 37.9813 77.482 37.9813C75.9862 37.9813 74.7896 37.5327 73.8921 36.5607C72.9946 35.5887 72.5459 34.3177 72.5459 32.7476C72.5459 31.1775 72.9946 29.9065 73.8921 28.9345C74.7896 27.9625 75.9114 27.5139 77.4072 27.5139C78.903 27.5139 80.0248 27.9625 80.9223 28.9345C81.745 29.8317 82.1937 31.1775 82.1937 32.8224L82.0442 33.1214ZM79.6509 31.2523C79.3517 30.056 78.5291 29.3831 77.3324 29.3831C77.0333 29.3831 76.8089 29.4579 76.5097 29.5326C76.2854 29.6074 76.061 29.7569 75.8366 29.9065C75.6123 30.056 75.4627 30.2803 75.3131 30.5046C75.1635 30.7289 75.0887 30.9532 75.014 31.2523H79.6509Z" fill="#FFF300"/>
<path d="M97.1517 27.2896H99.4702V37.8317H97.1517V36.4859C96.1794 37.3831 95.2072 37.8317 94.0854 37.8317C92.6644 37.8317 91.5425 37.3083 90.645 36.3363C89.7476 35.2896 89.2988 34.0186 89.2988 32.5232C89.2988 31.0279 89.7476 29.7569 90.645 28.7849C91.5425 27.8129 92.6643 27.2896 94.0106 27.2896C95.2072 27.2896 96.2542 27.7382 97.1517 28.7101V27.2896ZM91.6173 32.5232C91.6173 33.4952 91.8417 34.2429 92.3652 34.841C92.8887 35.4391 93.5618 35.7382 94.3845 35.7382C95.2072 35.7382 95.9551 35.4391 96.4786 34.841C97.0021 34.2429 97.3013 33.4952 97.3013 32.5232C97.3013 31.5513 97.0021 30.8036 96.4786 30.2055C95.9551 29.6073 95.282 29.3083 94.4593 29.3083C93.6366 29.3083 92.9635 29.6073 92.44 30.2055C91.9165 30.8784 91.6173 31.626 91.6173 32.5232Z" fill="#FFF300"/>
<path d="M104.705 29.4578V37.9065H102.387V29.4578H100.592V27.2896H102.387V23.925H104.705V27.2896H106.5V29.4578H104.705Z" fill="#FFF300"/>
<path d="M109.941 27.2896H107.622V37.9065H109.941V27.2896Z" fill="#FFF300"/>
<path d="M109.942 23.925H107.623V26.2428H109.942V23.925Z" fill="#FFF300"/>
<path d="M111.062 32.5232C111.062 31.1026 111.586 29.8316 112.633 28.8596C113.68 27.8129 114.952 27.3643 116.447 27.3643C117.943 27.3643 119.215 27.8876 120.262 28.8596C121.309 29.9063 121.832 31.1026 121.832 32.5979C121.832 34.0933 121.309 35.3643 120.262 36.3363C119.215 37.3083 117.943 37.8316 116.447 37.8316C114.952 37.8316 113.68 37.3083 112.708 36.2615C111.586 35.2895 111.062 34.0185 111.062 32.5232ZM113.456 32.5232C113.456 33.4951 113.755 34.3176 114.278 34.9157C114.802 35.5139 115.55 35.8129 116.447 35.8129C117.345 35.8129 118.093 35.5139 118.616 34.9157C119.14 34.3176 119.439 33.5699 119.439 32.5979C119.439 31.626 119.14 30.8783 118.616 30.2802C118.093 29.682 117.345 29.383 116.447 29.383C115.55 29.383 114.877 29.682 114.278 30.2802C113.755 30.8783 113.456 31.626 113.456 32.5232Z" fill="#FFF300"/>
<path d="M122.879 27.2896H125.198V28.4858C126.021 27.6634 126.918 27.2896 127.965 27.2896C129.162 27.2896 130.059 27.6634 130.658 28.4111C131.256 29.0092 131.48 30.0559 131.48 31.4765V37.9065H129.162V31.9999C129.162 31.0279 129.012 30.355 128.713 29.9812C128.414 29.6073 127.965 29.383 127.217 29.383C126.469 29.383 125.871 29.6073 125.572 30.1307C125.273 30.6541 125.123 31.4765 125.123 32.7475V37.8317H122.805V27.2896H122.879Z" fill="#FFF300"/>
<path d="M136.865 30.2803C136.566 29.6822 136.192 29.3831 135.743 29.3831C135.519 29.3831 135.369 29.4578 135.22 29.6074C135.07 29.7569 134.995 29.9065 134.995 30.1308C134.995 30.5046 135.444 30.8784 136.341 31.2523C137.538 31.7756 138.361 32.299 138.81 32.7476C139.258 33.1962 139.483 33.7943 139.483 34.542C139.483 35.514 139.109 36.3364 138.436 36.9345C137.762 37.5327 136.94 37.8317 135.893 37.8317C134.472 37.8317 133.425 37.2336 132.677 36.1121L134.322 34.4672C134.621 34.9158 134.771 35.2149 134.92 35.3644C135.22 35.5887 135.519 35.7383 135.893 35.7383C136.641 35.7383 137.089 35.3644 137.089 34.6915C137.089 34.2429 136.79 33.8691 136.192 33.57C135.968 33.4205 135.743 33.3457 135.519 33.1962C135.294 33.1214 135.07 32.9719 134.846 32.8224C134.173 32.5233 133.724 32.1495 133.425 31.8504C133.051 31.4018 132.901 30.8784 132.901 30.2055C132.901 29.3083 133.2 28.6354 133.799 28.0373C134.397 27.4391 135.145 27.2148 136.042 27.2148C137.089 27.2148 137.987 27.6634 138.585 28.6354L136.865 30.2803Z" fill="#FFF300"/>
</svg>
