<svg width="140" height="40" viewBox="0 0 140 40" fill="none" xmlns="http://www.w3.org/2000/svg">
<path d="M18.9159 18.9159H37.8318V28.8598V37.8318H8.97196L0 28.8598H28.8598L18.9159 18.9159ZM37.8318 8.97196L28.8598 0H0V8.97196V18.9159H18.9159L8.97196 8.97196H37.8318Z" fill="white"/>
<path d="M74.6168 6.95312C74.3177 6.87836 73.9439 6.80359 73.6448 6.80359C73.1215 6.80359 72.6729 6.87835 72.299 7.10265C71.9252 7.32695 71.4766 7.62602 71.028 8.14938V6.80359H68.3364V18.9905H71.028V12.7101C71.028 10.5419 71.7757 9.42041 73.1962 9.42041C73.6448 9.42041 74.1682 9.56994 74.6916 9.94378V6.95312H74.6168Z" fill="white"/>
<path d="M106.168 6.95312C105.869 6.87836 105.495 6.80359 105.196 6.80359C104.673 6.80359 104.224 6.87835 103.85 7.10265C103.476 7.32695 103.028 7.62602 102.579 8.14938V6.80359H99.8877V18.9905H102.579V12.7101C102.579 10.5419 103.327 9.42041 104.748 9.42041C105.196 9.42041 105.719 9.56994 106.243 9.94378V6.95312H106.168Z" fill="white"/>
<path d="M66.9907 13.4581H58.7664C58.8412 14.4301 59.1402 15.1777 59.6636 15.7011C60.187 16.2245 60.9346 16.5235 61.7571 16.5235C62.43 16.5235 62.9533 16.374 63.4019 16.0749C63.8505 15.7759 64.2991 15.1777 64.8225 14.3553L66.6916 16.2245C66.4673 16.5983 66.243 16.8974 65.944 17.1217C65.5701 17.5703 65.1216 17.8693 64.673 18.1684C64.2244 18.4674 63.7758 18.617 63.2524 18.7665C62.729 18.916 62.2057 18.9908 61.6075 18.9908C59.8879 18.9908 58.5421 18.4674 57.4954 17.346C56.4487 16.2245 55.9253 14.7291 55.9253 12.9347C55.9253 11.1403 56.4487 9.64502 57.4206 8.52352C58.4673 7.40203 59.8131 6.87866 61.458 6.87866C63.1776 6.87866 64.5234 7.40203 65.4954 8.52352C66.4673 9.57025 66.9907 11.0656 66.9907 13.0095V13.4581ZM64.2991 11.2899C63.9253 9.86932 63.0281 9.19642 61.6075 9.19642C61.3085 9.19642 61.0094 9.27119 60.7103 9.34595C60.4113 9.42072 60.187 9.57025 59.9627 9.79455C59.7384 9.94408 59.5141 10.1684 59.3645 10.4674C59.215 10.6917 59.0655 10.9908 58.9907 11.3646H64.2991V11.2899Z" fill="white"/>
<path d="M98.5425 13.4581H90.3182C90.3929 14.4301 90.692 15.1777 91.2154 15.7011C91.7387 16.2245 92.4864 16.5235 93.3088 16.5235C93.9817 16.5235 94.5051 16.374 94.9537 16.0749C95.4023 15.7759 95.8509 15.1777 96.3742 14.3553L98.2434 16.2245C98.0191 16.5983 97.7948 16.8974 97.4957 17.1217C97.1219 17.5703 96.6733 17.8693 96.2247 18.1684C95.7761 18.4674 95.3275 18.617 94.8042 18.7665C94.2808 18.916 93.7574 18.9908 93.1593 18.9908C91.4397 18.9908 90.0939 18.4674 89.0471 17.346C88.0004 16.2245 87.4771 14.7291 87.4771 12.9347C87.4771 11.1403 88.0004 9.64502 88.9724 8.52352C90.0191 7.40203 91.3649 6.87866 93.0098 6.87866C94.7294 6.87866 96.0752 7.40203 97.0471 8.52352C98.0191 9.57025 98.5425 11.0656 98.5425 13.0095V13.4581ZM95.7761 11.2899C95.4023 9.86932 94.5051 9.19642 93.0845 9.19642C92.7855 9.19642 92.4864 9.27119 92.1873 9.34595C91.8883 9.42072 91.664 9.57025 91.4397 9.79455C91.2154 9.94408 90.9911 10.1684 90.8415 10.4674C90.692 10.6917 90.5425 10.9908 90.4677 11.3646H95.7761V11.2899Z" fill="white"/>
<path d="M122.467 13.4581H114.243C114.318 14.4301 114.617 15.1777 115.14 15.7011C115.664 16.2245 116.411 16.5235 117.234 16.5235C117.907 16.5235 118.43 16.374 118.878 16.0749C119.327 15.7759 119.776 15.1777 120.299 14.3553L122.168 16.2245C121.944 16.5983 121.72 16.8974 121.421 17.1217C121.047 17.5703 120.598 17.8693 120.15 18.1684C119.701 18.4674 119.252 18.617 118.729 18.7665C118.206 18.916 117.682 18.9908 117.084 18.9908C115.364 18.9908 114.019 18.4674 112.972 17.346C111.925 16.2245 111.402 14.7291 111.402 12.9347C111.402 11.1403 111.925 9.64502 112.897 8.52352C113.944 7.40203 115.29 6.87866 116.935 6.87866C118.654 6.87866 120 7.40203 120.972 8.52352C121.944 9.57025 122.467 11.0656 122.467 13.0095V13.4581ZM119.776 11.2899C119.402 9.86932 118.505 9.19642 117.084 9.19642C116.785 9.19642 116.486 9.27119 116.187 9.34595C115.888 9.42072 115.664 9.57025 115.439 9.79455C115.215 9.94408 114.991 10.1684 114.841 10.4674C114.692 10.6917 114.542 10.9908 114.467 11.3646H119.776V11.2899Z" fill="white"/>
<path d="M78.2806 6.80359L81.4208 13.6073L84.561 6.80359H87.5517L81.4208 19.4391L75.3647 6.80359H78.2806Z" fill="white"/>
<path d="M110.131 3.43927V20.0374L107.439 17.3458V0.747681L110.131 3.43927Z" fill="white"/>
<path d="M128 10.2428C127.626 9.56994 127.253 9.19611 126.729 9.19611C126.505 9.19611 126.281 9.27088 126.131 9.42041C125.982 9.56994 125.907 9.79424 125.907 10.0185C125.907 10.4671 126.43 10.9157 127.477 11.3643C128.898 11.9625 129.869 12.5606 130.318 13.0092C130.841 13.5326 131.066 14.2055 131.066 15.1027C131.066 16.2241 130.692 17.1213 129.869 17.869C129.047 18.5419 128.075 18.9157 126.954 18.9157C125.309 18.9157 124.112 18.2428 123.29 16.897L125.159 15.0279C125.458 15.5513 125.683 15.9251 125.907 16.0746C126.206 16.3737 126.58 16.5232 127.028 16.5232C127.926 16.5232 128.374 16.1494 128.374 15.327C128.374 14.8784 128 14.4298 127.327 13.9812C127.028 13.8316 126.804 13.6821 126.505 13.6073C126.206 13.4578 125.982 13.383 125.683 13.2335C124.935 12.8597 124.337 12.4858 124.038 12.112C123.664 11.6634 123.44 10.9905 123.44 10.2428C123.44 9.27088 123.813 8.44845 124.486 7.77555C125.159 7.10265 126.056 6.80359 127.028 6.80359C128.299 6.80359 129.271 7.32695 129.944 8.44845L128 10.2428Z" fill="white"/>
<path d="M136.449 10.2428C136.075 9.56994 135.701 9.19611 135.178 9.19611C134.953 9.19611 134.729 9.27088 134.579 9.42041C134.43 9.56994 134.355 9.79424 134.355 10.0185C134.355 10.4671 134.878 10.9157 135.925 11.3643C137.346 11.9625 138.318 12.5606 138.766 13.0092C139.29 13.5326 139.514 14.2055 139.514 15.1027C139.514 16.2241 139.14 17.1213 138.318 17.869C137.495 18.5419 136.523 18.9157 135.402 18.9157C133.757 18.9157 132.561 18.2428 131.738 16.897L133.607 15.0279C133.907 15.5513 134.131 15.9251 134.355 16.0746C134.654 16.3737 135.028 16.5232 135.477 16.5232C136.374 16.5232 136.822 16.1494 136.822 15.327C136.822 14.8784 136.449 14.4298 135.776 13.9812C135.477 13.8316 135.252 13.6821 134.953 13.6073C134.654 13.4578 134.43 13.383 134.131 13.2335C133.383 12.8597 132.785 12.4858 132.486 12.112C132.112 11.6634 131.888 10.9905 131.888 10.2428C131.888 9.27088 132.262 8.44845 132.935 7.77555C133.607 7.10265 134.505 6.80359 135.477 6.80359C136.748 6.80359 137.72 7.32695 138.392 8.44845L136.449 10.2428Z" fill="white"/>
<path d="M51.9628 4.41121C51.5142 3.66355 51.1403 3.21495 50.7665 2.99065C50.3927 2.76636 49.8693 2.61682 49.2712 2.61682C48.5235 2.61682 47.8506 2.84112 47.402 3.28972C46.8786 3.73832 46.6543 4.26168 46.6543 4.85981C46.6543 5.75701 47.3272 6.42991 48.673 7.02804L50.4674 7.7757C51.9628 8.37383 53.0095 9.1215 53.6824 9.94392C54.3553 10.7664 54.7291 11.8878 54.7291 13.0841C54.7291 14.729 54.2057 16.1495 53.0843 17.271C51.9628 18.3925 50.5422 18.9159 48.8973 18.9159C47.3272 18.9159 45.9814 18.4673 45.0095 17.4953C44.3366 16.8972 43.888 16.1495 43.5142 15.2523L45.8319 12.9346C45.9814 13.9813 46.2057 14.729 46.5048 15.1776C47.1029 16 47.9254 16.3738 48.9721 16.3738C49.7945 16.3738 50.5422 16.0748 51.1403 15.4766C51.7385 14.8785 51.9628 14.2056 51.9628 13.3084C51.9628 12.9346 51.888 12.6355 51.8132 12.3364C51.7385 12.0374 51.5889 11.7383 51.3646 11.514C51.1403 11.2897 50.916 11.0654 50.5422 10.8411C50.2431 10.6168 49.7945 10.3925 49.3459 10.243L47.5515 9.49533C45.0843 8.4486 43.8132 6.8785 43.8132 4.85981C43.8132 3.51402 44.3366 2.31776 45.3833 1.42056C46.43 0.448598 47.7011 0 49.2712 0C51.1403 0 52.7104 0.82243 53.8319 2.54206L51.9628 4.41121Z" fill="white"/>
<path d="M88.6733 27.4393C88.3742 27.3646 88.0751 27.2898 87.8508 27.2898C87.4022 27.2898 87.0284 27.3646 86.6546 27.5141C86.3555 27.6636 85.9817 27.9627 85.5331 28.4113V27.215H83.2153V37.8318H85.5331V32.3739C85.5331 30.5047 86.1312 29.5328 87.4022 29.5328C87.8508 29.5328 88.2247 29.6823 88.6733 29.9814V27.4393Z" fill="white"/>
<path d="M43.4395 29.6074C43.4395 27.3644 44.2619 25.4204 45.9067 23.8503C47.5516 22.2803 49.4955 21.4578 51.8133 21.4578C54.0563 21.4578 56.0002 22.2803 57.6451 23.8503C59.2899 25.4952 60.1124 27.4391 60.1124 29.6821C60.1124 31.9999 59.2899 33.869 57.6451 35.5139C56.0002 37.084 54.0563 37.9064 51.7385 37.9064C49.7198 37.9064 47.8507 37.2335 46.2058 35.813C44.3366 34.1681 43.4395 32.1494 43.4395 29.6074ZM45.832 29.6074C45.832 31.327 46.4301 32.8223 47.6264 33.9438C48.8226 35.0653 50.1684 35.6634 51.6638 35.6634C53.3086 35.6634 54.7292 35.0653 55.8507 33.9438C56.9722 32.7475 57.5703 31.327 57.5703 29.6821C57.5703 27.9625 56.9722 26.5419 55.8507 25.4204C54.7292 24.2989 53.3086 23.7008 51.6638 23.7008C50.0189 23.7008 48.5983 24.2989 47.4768 25.4204C46.4301 26.5419 45.832 27.9625 45.832 29.6074Z" fill="white"/>
<path d="M63.4769 40.0001H61.1592V27.2898H63.4769V28.6356C64.3741 27.7384 65.4209 27.2898 66.6171 27.2898C67.9629 27.2898 69.1592 27.8132 69.9816 28.7851C70.8788 29.7571 71.3274 31.0281 71.3274 32.5982C71.3274 34.0935 70.8788 35.3646 69.9816 36.3365C69.0844 37.3085 67.9629 37.8319 66.6171 37.8319C65.4209 37.8319 64.3741 37.3833 63.4769 36.4113V40.0001ZM68.9349 32.673C68.9349 31.701 68.7106 30.9533 68.1872 30.3552C67.6638 29.7571 66.991 29.458 66.1685 29.458C65.3461 29.458 64.5984 29.7571 64.0751 30.3552C63.5517 30.9533 63.2526 31.701 63.2526 32.673C63.2526 33.6449 63.5517 34.3926 64.0751 34.9907C64.5984 35.5889 65.2713 35.8879 66.0938 35.8879C66.9162 35.8879 67.5891 35.5889 68.1124 34.9907C68.7106 34.3178 68.9349 33.5702 68.9349 32.673Z" fill="white"/>
<path d="M82.0188 33.1216H74.8412C74.916 33.944 75.1403 34.6169 75.6636 35.0655C76.1122 35.5141 76.7104 35.8132 77.458 35.8132C78.0561 35.8132 78.5047 35.6636 78.8786 35.4393C79.2524 35.1403 79.701 34.6917 80.1496 33.944L81.7945 35.5889C81.5702 35.8879 81.4206 36.1122 81.1963 36.4113C80.8973 36.7851 80.5234 37.0842 80.1496 37.3085C79.7758 37.5328 79.3272 37.6823 78.8786 37.8319C78.43 37.9066 77.9814 37.9814 77.458 37.9814C75.9627 37.9814 74.7664 37.5328 73.8692 36.5608C72.972 35.5889 72.5234 34.3178 72.5234 32.7477C72.5234 31.1777 72.972 29.9066 73.8692 28.9347C74.7664 27.9627 75.8879 27.5141 77.3833 27.5141C78.8786 27.5141 80.0001 27.9627 80.8973 28.9347C81.7197 29.8319 82.1683 31.1777 82.1683 32.8225L82.0188 33.1216ZM79.6262 31.2524C79.3272 30.0562 78.5047 29.3833 77.3085 29.3833C77.0094 29.3833 76.7851 29.458 76.4861 29.5328C76.2618 29.6076 76.0375 29.7571 75.8132 29.9066C75.5889 30.0562 75.4393 30.2805 75.2898 30.5048C75.1403 30.7291 75.0655 30.9534 74.9907 31.2524H79.6262Z" fill="white"/>
<path d="M97.1219 27.2898H99.4397V37.8319H97.1219V36.4861C96.15 37.3833 95.178 37.8319 94.0565 37.8319C92.636 37.8319 91.5145 37.3085 90.6173 36.3365C89.7201 35.2898 89.2715 34.0188 89.2715 32.5234C89.2715 31.0281 89.7201 29.7571 90.6173 28.7851C91.5145 27.8132 92.636 27.2898 93.9818 27.2898C95.178 27.2898 96.2247 27.7384 97.1219 28.7104V27.2898ZM91.5892 32.5234C91.5892 33.4954 91.8135 34.2431 92.3369 34.8412C92.8603 35.4393 93.5332 35.7384 94.3556 35.7384C95.178 35.7384 95.9257 35.4393 96.4491 34.8412C96.9724 34.2431 97.2715 33.4954 97.2715 32.5234C97.2715 31.5515 96.9724 30.8038 96.4491 30.2057C95.9257 29.6076 95.2528 29.3085 94.4304 29.3085C93.6079 29.3085 92.935 29.6076 92.4117 30.2057C91.8883 30.8786 91.5892 31.6262 91.5892 32.5234Z" fill="white"/>
<path d="M104.673 29.4579V37.9065H102.355V29.4579H100.561V27.2897H102.355V23.9252H104.673V27.2897H106.468V29.4579H104.673Z" fill="white"/>
<path d="M107.589 25.0467C107.589 24.7477 107.738 24.4486 107.963 24.2243C108.187 24 108.486 23.8505 108.785 23.8505C109.084 23.8505 109.383 24 109.608 24.2243C109.832 24.4486 109.981 24.7477 109.981 25.0467C109.981 25.3458 109.832 25.6449 109.608 25.8692C109.383 26.0935 109.084 26.243 108.785 26.243C108.486 26.243 108.187 26.0935 107.963 25.8692C107.738 25.6449 107.589 25.3458 107.589 25.0467Z" fill="white"/>
<path d="M109.907 27.2899H107.589V37.9067H109.907V27.2899Z" fill="white"/>
<path d="M111.028 32.5234C111.028 31.1029 111.552 29.8319 112.598 28.8599C113.645 27.8132 114.916 27.3646 116.411 27.3646C117.907 27.3646 119.178 27.8879 120.225 28.8599C121.271 29.9066 121.795 31.1029 121.795 32.5982C121.795 34.0935 121.271 35.3646 120.225 36.3365C119.178 37.3085 117.907 37.8319 116.411 37.8319C114.916 37.8319 113.645 37.3085 112.673 36.2618C111.552 35.2898 111.028 34.0188 111.028 32.5234ZM113.421 32.5234C113.421 33.4954 113.72 34.3178 114.243 34.916C114.767 35.5141 115.514 35.8132 116.411 35.8132C117.309 35.8132 118.056 35.5141 118.58 34.916C119.103 34.3178 119.402 33.5702 119.402 32.5982C119.402 31.6262 119.103 30.8786 118.58 30.2805C118.056 29.6823 117.309 29.3833 116.411 29.3833C115.514 29.3833 114.841 29.6823 114.243 30.2805C113.72 30.8786 113.421 31.6262 113.421 32.5234Z" fill="white"/>
<path d="M122.841 27.2898H125.159V28.4861C125.982 27.6636 126.879 27.2898 127.925 27.2898C129.122 27.2898 130.019 27.6636 130.617 28.4113C131.215 29.0094 131.44 30.0561 131.44 31.4767V37.9066H129.122V32.0001C129.122 31.0281 128.972 30.3552 128.673 29.9814C128.374 29.6076 127.925 29.3833 127.178 29.3833C126.43 29.3833 125.832 29.6076 125.533 30.1309C125.234 30.6543 125.084 31.4767 125.084 32.7477V37.8319H122.767V27.2898H122.841Z" fill="white"/>
<path d="M136.823 30.2804C136.524 29.6823 136.15 29.3832 135.701 29.3832C135.477 29.3832 135.327 29.458 135.178 29.6075C135.028 29.7571 134.954 29.9066 134.954 30.1309C134.954 30.5047 135.402 30.8786 136.299 31.2524C137.496 31.7758 138.318 32.2991 138.767 32.7477C139.215 33.1963 139.439 33.7945 139.439 34.5421C139.439 35.5141 139.066 36.3365 138.393 36.9347C137.72 37.5328 136.897 37.8318 135.851 37.8318C134.43 37.8318 133.383 37.2337 132.636 36.1122L134.281 34.4674C134.58 34.916 134.729 35.215 134.879 35.3646C135.178 35.5889 135.477 35.7384 135.851 35.7384C136.598 35.7384 137.047 35.3646 137.047 34.6917C137.047 34.2431 136.748 33.8692 136.15 33.5702C135.925 33.4206 135.701 33.3459 135.477 33.1963C135.253 33.1216 135.028 32.972 134.804 32.8225C134.131 32.5234 133.682 32.1496 133.383 31.8505C133.01 31.4019 132.86 30.8786 132.86 30.2057C132.86 29.3085 133.159 28.6356 133.757 28.0375C134.355 27.4393 135.103 27.215 136 27.215C137.047 27.215 137.944 27.6636 138.542 28.6356L136.823 30.2804Z" fill="white"/>
</svg>
