<svg width="1798" height="175" viewBox="0 0 1798 175" fill="none" xmlns="http://www.w3.org/2000/svg">
<g opacity="0.3">
<path d="M285.269 63.7739C282.526 63.0882 279.097 62.4024 276.354 62.4024C271.554 62.4024 267.44 63.0882 264.011 65.1454C260.582 67.2026 256.468 69.9456 252.353 74.7458V62.4024H227.667V174.179H252.353V116.576C252.353 96.6896 259.211 86.4035 272.24 86.4035C276.354 86.4035 281.154 87.7749 285.955 91.2037V63.7739H285.269Z" fill="#60759F"/>
<path d="M574.652 63.7739C571.909 63.0882 568.48 62.4024 565.738 62.4024C560.937 62.4024 556.823 63.0882 553.394 65.1454C549.965 67.2026 545.851 69.9456 541.737 74.7458V62.4024H517.05V174.179H541.737V116.576C541.737 96.6896 548.594 86.4035 561.623 86.4035C565.738 86.4035 570.538 87.7749 575.338 91.2037V63.7739H574.652Z" fill="#60759F"/>
<path d="M215.324 123.434H139.892C140.578 132.349 143.321 139.206 148.121 144.006C152.921 148.806 159.779 151.549 167.322 151.549C173.494 151.549 178.294 150.178 182.408 147.435C186.523 144.692 190.637 139.206 195.437 131.663L212.581 148.806C210.524 152.235 208.467 154.978 205.724 157.035C202.295 161.15 198.18 163.893 194.066 166.636C189.951 169.379 185.837 170.75 181.037 172.122C176.237 173.493 171.436 174.179 165.95 174.179C150.178 174.179 137.835 169.379 128.235 159.093C118.634 148.806 113.834 135.092 113.834 118.634C113.834 102.176 118.634 88.461 127.549 78.1748C137.149 67.8887 149.493 63.0885 164.579 63.0885C180.351 63.0885 192.694 67.8887 201.609 78.1748C210.524 87.7752 215.324 101.49 215.324 119.319V123.434ZM190.637 103.547C187.209 90.5182 178.98 84.3465 165.95 84.3465C163.207 84.3465 160.464 85.0323 157.722 85.718C154.979 86.4037 152.921 87.7752 150.864 89.8325C148.807 91.204 146.75 93.2612 145.378 96.0042C144.007 98.0614 142.635 100.804 141.949 104.233H190.637V103.547Z" fill="#60759F"/>
<path d="M504.707 123.434H429.276C429.961 132.349 432.704 139.206 437.504 144.006C442.305 148.806 449.162 151.549 456.705 151.549C462.877 151.549 467.677 150.178 471.792 147.435C475.906 144.692 480.021 139.206 484.821 131.663L501.964 148.806C499.907 152.235 497.85 154.978 495.107 157.035C491.678 161.15 487.564 163.893 483.449 166.636C479.335 169.379 475.22 170.75 470.42 172.122C465.62 173.493 460.82 174.179 455.334 174.179C439.562 174.179 427.218 169.379 417.618 159.093C408.017 148.806 403.217 135.092 403.217 118.634C403.217 102.176 408.017 88.461 416.932 78.1748C426.533 67.8887 438.876 63.0885 453.962 63.0885C469.734 63.0885 482.078 67.8887 490.992 78.1748C499.907 87.7752 504.707 101.49 504.707 119.319V123.434ZM479.335 103.547C475.906 90.5182 467.677 84.3465 454.648 84.3465C451.905 84.3465 449.162 85.0323 446.419 85.718C443.676 86.4037 441.619 87.7752 439.562 89.8325C437.504 91.204 435.447 93.2612 434.076 96.0042C432.704 98.0614 431.333 100.804 430.647 104.233H479.335V103.547Z" fill="#60759F"/>
<path d="M724.145 123.434H648.714C649.399 132.349 652.142 139.206 656.942 144.006C661.743 148.806 668.6 151.549 676.143 151.549C682.315 151.549 687.115 150.178 691.23 147.435C695.344 144.692 699.458 139.206 704.259 131.663L721.402 148.806C719.345 152.235 717.288 154.978 714.545 157.035C711.116 161.15 707.002 163.893 702.887 166.636C698.773 169.379 694.658 170.75 689.858 172.122C685.058 173.493 680.258 174.179 674.772 174.179C659 174.179 646.656 169.379 637.056 159.093C627.456 148.806 622.655 135.092 622.655 118.634C622.655 102.176 627.455 88.461 636.37 78.1748C645.971 67.8887 658.314 63.0885 673.4 63.0885C689.172 63.0885 701.516 67.8887 710.43 78.1748C719.345 87.7752 724.145 101.49 724.145 119.319V123.434ZM699.459 103.547C696.03 90.5182 687.801 84.3465 674.772 84.3465C672.029 84.3465 669.286 85.0323 666.543 85.718C663.8 86.4037 661.743 87.7752 659.685 89.8325C657.628 91.204 655.571 93.2612 654.2 96.0042C652.828 98.0614 651.457 100.804 650.771 104.233H699.459V103.547Z" fill="#60759F"/>
<path d="M318.871 62.4024L347.673 124.805L376.474 62.4024H403.904L347.673 178.293L292.127 62.4024H318.871Z" fill="#60759F"/>
<path d="M610.997 31.5442V183.779L586.311 159.092V6.85742L610.997 31.5442Z" fill="#60759F"/>
<path d="M774.89 93.9466C771.461 87.7749 768.032 84.3462 763.232 84.3462C761.175 84.3462 759.118 85.032 757.746 86.4035C756.375 87.7749 755.689 89.8322 755.689 91.8894C755.689 96.0039 760.489 100.118 770.09 104.233C783.119 109.719 792.033 115.205 796.148 119.319C800.948 124.119 803.005 130.291 803.005 138.52C803.005 148.806 799.577 157.035 792.033 163.892C784.49 170.064 775.576 173.493 765.289 173.493C750.203 173.493 739.231 167.321 731.688 154.978L748.832 137.834C751.575 142.634 753.632 146.063 755.689 147.435C758.432 150.178 761.861 151.549 765.975 151.549C774.204 151.549 778.319 148.12 778.319 140.577C778.319 136.463 774.89 132.348 768.718 128.234C765.975 126.862 763.918 125.491 761.175 124.805C758.432 123.434 756.375 122.748 753.632 121.376C746.774 117.948 741.288 114.519 738.545 111.09C735.117 106.976 733.06 100.804 733.06 93.9466C733.06 85.032 736.488 77.4888 742.66 71.3171C748.832 65.1454 757.06 62.4024 765.975 62.4024C777.633 62.4024 786.548 67.2026 792.719 77.4888L774.89 93.9466Z" fill="#60759F"/>
<path d="M852.379 93.9466C848.95 87.7749 845.522 84.3462 840.721 84.3462C838.664 84.3462 836.607 85.032 835.236 86.4035C833.864 87.7749 833.178 89.8322 833.178 91.8894C833.178 96.0039 837.979 100.118 847.579 104.233C860.608 109.719 869.523 115.205 873.637 119.319C878.437 124.119 880.495 130.291 880.495 138.52C880.495 148.806 877.066 157.035 869.523 163.892C861.98 170.064 853.065 173.493 842.779 173.493C827.692 173.493 816.72 167.321 809.177 154.978L826.321 137.834C829.064 142.634 831.121 146.063 833.178 147.435C835.921 150.178 839.35 151.549 843.464 151.549C851.693 151.549 855.808 148.12 855.808 140.577C855.808 136.463 852.379 132.348 846.207 128.234C843.464 126.862 841.407 125.491 838.664 124.805C835.921 123.434 833.864 122.748 831.121 121.376C824.264 117.948 818.778 114.519 816.035 111.09C812.606 106.976 810.549 100.804 810.549 93.9466C810.549 85.032 813.977 77.4888 820.149 71.3171C826.321 65.1454 834.55 62.4024 843.464 62.4024C855.122 62.4024 864.037 67.2026 870.208 77.4888L852.379 93.9466Z" fill="#60759F"/>
<path d="M77.489 40.4589C73.3745 33.6014 69.9458 29.487 66.5171 27.4297C63.0884 25.3725 58.2882 24.001 52.8022 24.001C45.9448 24.001 39.7731 26.0582 35.6587 30.1727C30.8585 34.2872 28.8012 39.0874 28.8012 44.5733C28.8012 52.8022 34.9729 58.9739 47.3163 64.4599L63.7741 71.3173C77.489 76.8033 87.0894 83.6607 93.2611 91.2039C99.4328 98.747 102.861 109.033 102.861 120.005C102.861 135.091 98.0613 148.121 87.7751 158.407C77.489 168.693 64.4599 173.493 49.3735 173.493C34.9729 173.493 22.6295 169.379 13.7149 160.464C7.54318 154.978 3.42872 148.121 0 139.892L21.258 118.634C22.6295 128.234 24.6868 135.091 27.4297 139.206C32.9157 146.749 40.4589 150.178 50.0593 150.178C57.6024 150.178 64.4599 147.435 69.9458 141.949C75.4318 136.463 77.489 130.291 77.489 122.062C77.489 118.634 76.8033 115.891 76.1175 113.148C75.4318 110.405 74.0603 107.662 72.003 105.604C69.9458 103.547 67.8886 101.49 64.4599 99.4328C61.7169 97.3756 57.6024 95.3183 53.488 93.9468L37.0301 87.0894C14.4006 77.489 2.74296 63.0884 2.74296 44.5733C2.74296 32.2299 7.54318 21.258 17.1436 13.0291C26.744 4.11446 38.4016 0 52.8022 0C69.9458 0 84.3464 7.54318 94.6326 23.3153L77.489 40.4589Z" fill="#60759F"/>
<path d="M1332.38 67.9623C1329.64 67.2765 1326.89 66.5908 1324.84 66.5908C1320.72 66.5908 1317.29 67.2765 1313.86 68.648C1311.12 70.0195 1307.69 72.7625 1303.58 76.8769V65.905H1282.32V163.281H1303.58V113.221C1303.58 96.0777 1309.06 87.1631 1320.72 87.1631C1324.84 87.1631 1328.26 88.5345 1332.38 91.2775V67.9623Z" fill="#60759F"/>
<path d="M917.505 87.8486C917.505 67.2763 925.048 49.447 940.134 35.0464C955.221 20.6458 973.05 13.1026 994.308 13.1026C1014.88 13.1026 1032.71 20.6458 1047.8 35.0464C1062.88 50.1327 1070.43 67.9621 1070.43 88.5344C1070.43 109.792 1062.88 126.936 1047.8 142.022C1032.71 156.423 1014.88 163.966 993.622 163.966C975.107 163.966 957.964 157.794 942.877 144.765C925.734 129.679 917.505 111.164 917.505 87.8486ZM939.449 87.8486C939.449 103.621 944.935 117.336 955.907 127.622C966.878 137.908 979.222 143.394 992.937 143.394C1008.02 143.394 1021.05 137.908 1031.34 127.622C1041.62 116.65 1047.11 103.621 1047.11 88.5344C1047.11 72.7623 1041.62 59.7331 1031.34 49.447C1021.05 39.1608 1008.02 33.6749 992.937 33.6749C977.85 33.6749 964.821 39.1608 954.535 49.447C944.935 59.7331 939.449 72.7623 939.449 87.8486Z" fill="#60759F"/>
<path d="M1101.28 183.167H1080.03V66.5906H1101.28V78.934C1109.51 70.705 1119.11 66.5906 1130.09 66.5906C1142.43 66.5906 1153.4 71.3908 1160.94 80.3054C1169.17 89.2201 1173.29 100.878 1173.29 115.278C1173.29 128.993 1169.17 140.651 1160.94 149.566C1152.71 158.48 1142.43 163.28 1130.09 163.28C1119.11 163.28 1109.51 159.166 1101.28 150.251V183.167ZM1151.34 115.964C1151.34 107.049 1149.29 100.192 1144.49 94.706C1139.69 89.2201 1133.51 86.4771 1125.97 86.4771C1118.43 86.4771 1111.57 89.2201 1106.77 94.706C1101.97 100.192 1099.23 107.049 1099.23 115.964C1099.23 124.879 1101.97 131.736 1106.77 137.222C1111.57 142.708 1117.74 145.451 1125.28 145.451C1132.83 145.451 1139 142.708 1143.8 137.222C1149.29 131.05 1151.34 124.193 1151.34 115.964Z" fill="#60759F"/>
<path d="M1271.35 120.078H1205.52C1206.2 127.622 1208.26 133.793 1213.06 137.908C1217.17 142.022 1222.66 144.765 1229.52 144.765C1235 144.765 1239.12 143.394 1242.55 141.337C1245.98 138.594 1250.09 134.479 1254.2 127.622L1269.29 142.708C1267.23 145.451 1265.86 147.508 1263.8 150.251C1261.06 153.68 1257.63 156.423 1254.2 158.48C1250.78 160.537 1246.66 161.909 1242.55 163.28C1238.43 163.966 1234.32 164.652 1229.52 164.652C1215.8 164.652 1204.83 160.537 1196.6 151.623C1188.37 142.708 1184.26 131.05 1184.26 116.65C1184.26 102.249 1188.37 90.5915 1196.6 81.6768C1204.83 72.7622 1215.12 68.6477 1228.83 68.6477C1242.55 68.6477 1252.83 72.7622 1261.06 81.6768C1268.6 89.9058 1272.72 102.249 1272.72 117.336L1271.35 120.078ZM1249.4 102.935C1246.66 91.963 1239.12 85.7913 1228.15 85.7913C1225.4 85.7913 1223.35 86.477 1220.6 87.1628C1218.55 87.8485 1216.49 89.22 1214.43 90.5915C1212.37 91.963 1211 94.0202 1209.63 96.0774C1208.26 98.1347 1207.57 100.192 1206.89 102.935H1249.4Z" fill="#60759F"/>
<path d="M1409.87 66.5906H1431.13V163.28H1409.87V150.937C1400.95 159.166 1392.04 163.28 1381.75 163.28C1368.72 163.28 1358.44 158.48 1350.21 149.566C1341.98 139.965 1337.87 128.307 1337.87 114.593C1337.87 100.878 1341.98 89.2201 1350.21 80.3054C1358.44 71.3908 1368.72 66.5906 1381.07 66.5906C1392.04 66.5906 1401.64 70.705 1409.87 79.6197V66.5906ZM1359.12 114.593C1359.12 123.507 1361.18 130.365 1365.98 135.851C1370.78 141.337 1376.95 144.08 1384.5 144.08C1392.04 144.08 1398.9 141.337 1403.7 135.851C1408.5 130.365 1411.24 123.507 1411.24 114.593C1411.24 105.678 1408.5 98.8205 1403.7 93.3346C1398.9 87.8486 1392.73 85.1057 1385.18 85.1057C1377.64 85.1057 1371.47 87.8486 1366.67 93.3346C1361.87 99.5063 1359.12 106.364 1359.12 114.593Z" fill="#60759F"/>
<path d="M1479.13 86.4773V163.966H1457.87V86.4773H1441.41V66.5907H1457.87V35.7322H1479.13V66.5907H1495.59V86.4773H1479.13Z" fill="#60759F"/>
<path d="M1505.87 46.0183C1505.87 43.2754 1507.24 40.5324 1509.3 38.4752C1511.36 36.4179 1514.1 35.0464 1516.84 35.0464C1519.59 35.0464 1522.33 36.4179 1524.39 38.4752C1526.45 40.5324 1527.82 43.2754 1527.82 46.0183C1527.82 48.7613 1526.45 51.5043 1524.39 53.5615C1522.33 55.6187 1519.59 56.9902 1516.84 56.9902C1514.1 56.9902 1511.36 55.6187 1509.3 53.5615C1507.24 51.5043 1505.87 48.7613 1505.87 46.0183Z" fill="#60759F"/>
<path d="M1527.13 66.5906H1505.87V163.966H1527.13V66.5906Z" fill="#60759F"/>
<path d="M1537.42 114.593C1537.42 101.564 1542.22 89.9061 1551.82 80.9915C1561.42 71.3911 1573.08 67.2766 1586.79 67.2766C1600.5 67.2766 1612.16 72.0768 1621.76 80.9915C1631.36 90.5919 1636.16 101.564 1636.16 115.279C1636.16 128.994 1631.36 140.651 1621.76 149.566C1612.16 158.48 1600.5 163.281 1586.79 163.281C1573.08 163.281 1561.42 158.48 1552.5 148.88C1542.22 139.965 1537.42 128.308 1537.42 114.593ZM1559.36 114.593C1559.36 123.508 1562.1 131.051 1566.9 136.537C1571.7 142.023 1578.56 144.766 1586.79 144.766C1595.02 144.766 1601.88 142.023 1606.68 136.537C1611.48 131.051 1614.22 124.193 1614.22 115.279C1614.22 106.364 1611.48 99.5066 1606.68 94.0206C1601.88 88.5347 1595.02 85.7917 1586.79 85.7917C1578.56 85.7917 1572.39 88.5347 1566.9 94.0206C1562.1 99.5066 1559.36 106.364 1559.36 114.593Z" fill="#60759F"/>
<path d="M1645.77 66.5906H1667.02V77.5625C1674.57 70.0193 1682.8 66.5906 1692.4 66.5906C1703.37 66.5906 1711.6 70.0193 1717.08 76.8767C1722.57 82.3627 1724.63 91.9631 1724.63 104.992V163.966H1703.37V109.792C1703.37 100.878 1702 94.706 1699.25 91.2773C1696.51 87.8486 1692.4 85.7914 1685.54 85.7914C1678.68 85.7914 1673.2 87.8486 1670.45 92.6488C1667.71 97.449 1666.34 104.992 1666.34 116.65V163.28H1645.08V66.5906H1645.77Z" fill="#60759F"/>
<path d="M1774 94.0205C1771.26 88.5345 1767.83 85.7916 1763.71 85.7916C1761.66 85.7916 1760.28 86.4773 1758.91 87.8488C1757.54 89.2203 1756.86 90.5918 1756.86 92.649C1756.86 96.0777 1760.97 99.5064 1769.2 102.935C1780.17 107.735 1787.71 112.536 1791.83 116.65C1795.94 120.764 1798 126.25 1798 133.108C1798 142.023 1794.57 149.566 1788.4 155.052C1782.23 160.538 1774.68 163.281 1765.08 163.281C1752.06 163.281 1742.45 157.795 1735.6 147.508L1750.68 132.422C1753.43 136.537 1754.8 139.28 1756.17 140.651C1758.91 142.708 1761.66 144.08 1765.08 144.08C1771.94 144.08 1776.06 140.651 1776.06 134.479C1776.06 130.365 1773.31 126.936 1767.83 124.193C1765.77 122.822 1763.71 122.136 1761.66 120.764C1759.6 120.079 1757.54 118.707 1755.48 117.336C1749.31 114.593 1745.2 111.164 1742.45 108.421C1739.03 104.307 1737.65 99.5065 1737.65 93.3348C1737.65 85.1058 1740.4 78.9341 1745.88 73.4482C1751.37 67.9622 1758.23 65.905 1766.46 65.905C1776.06 65.905 1784.29 70.0195 1789.77 78.9341L1774 94.0205Z" fill="#60759F"/>
</g>
</svg>
