<svg width="1923" height="940" viewBox="0 0 1923 940" fill="none" xmlns="http://www.w3.org/2000/svg">
<mask id="mask0" mask-type="alpha" maskUnits="userSpaceOnUse" x="0" y="0" width="1923" height="940">
<rect width="1923" height="940" fill="#C4C4C4"/>
</mask>
<g mask="url(#mask0)">
<path opacity="0.5" d="M-93.5282 661.411L-20.7558 588.646H-93.5282V661.411ZM-20.7558 588.646L52.0166 515.882V588.646H-20.7558ZM-93.5282 625.114H52.0166L15.716 661.411H-93.5282V625.114ZM-57.0564 515.882H52.0166V552.179H-93.5282L-57.0564 515.882ZM-57.2276 625.114L-20.927 588.818H51.8453V625.114H-57.2276ZM-93.5282 588.646V552.35H15.5448L-20.7558 588.646H-93.5282ZM52.0166 552.35H124.789L52.0166 625.114V552.35ZM124.789 552.35L197.561 479.586V552.35H124.789ZM52.0166 588.646H197.561L161.261 624.943H52.1878V588.646H52.0166ZM88.3171 479.586H197.39V515.882H51.8453L88.3171 479.586ZM88.3171 588.646L124.618 552.35H197.39V588.646H88.3171ZM52.0166 552.35V516.053H161.09L124.789 552.35H52.0166ZM197.561 515.882H270.334L197.561 588.646V515.882ZM270.334 515.882L343.106 443.118V515.882H270.334V515.882ZM197.561 552.35H343.106L306.805 588.646H197.733V552.35H197.561ZM233.862 443.118H342.935V479.414H197.39L233.862 443.118ZM233.862 552.35L270.162 516.053H342.935V552.35H233.862ZM197.561 515.882V479.586H306.634L270.334 515.882H197.561ZM343.106 479.586H415.878L343.106 552.35V479.586ZM415.878 479.586L488.651 406.821V479.586H415.878ZM343.106 515.882H488.651L452.35 552.179H343.277V515.882H343.106ZM379.407 406.821H488.48V443.118H342.935L379.407 406.821ZM379.407 515.882L415.707 479.586H488.48V515.882H379.407ZM343.106 479.586V443.289H452.179L415.878 479.586H343.106ZM488.48 443.118H561.252L488.48 515.882V443.118ZM561.252 443.118L634.024 370.354V443.118H561.252ZM488.48 479.586H634.024L597.724 515.882H488.48V479.586ZM524.951 370.354H634.024V406.65H488.48L524.951 370.354ZM524.951 479.586L561.252 443.289H634.024V479.586H524.951ZM488.48 443.118V406.821H597.553L561.252 443.118H488.48ZM634.024 406.821H706.797L634.024 479.586V406.821ZM706.797 406.821L779.569 334.057V406.821H706.797ZM634.024 443.118H779.569L743.269 479.414H634.024V443.118ZM670.496 334.057H779.569V370.354H634.024L670.496 334.057ZM670.496 443.118L706.797 406.821H779.569V443.118H670.496ZM634.024 406.821V370.525H743.097L706.797 406.821H634.024ZM779.569 370.354H852.342L779.569 443.118V370.354ZM852.342 370.354L925.114 297.589V370.354H852.342ZM779.569 406.821H925.114L888.813 443.118H779.569V406.821ZM816.041 297.589H925.114V333.886H779.569L816.041 297.589ZM816.041 406.821L852.342 370.525H925.114V406.821H816.041ZM779.569 370.354V334.057H888.642L852.342 370.354H779.569ZM925.114 334.057H997.886L925.114 406.821V334.057ZM997.886 334.057L1070.66 261.293V334.057H997.886ZM925.114 370.354H1070.66L1034.36 406.65H925.114V370.354ZM961.586 261.293H1070.66V297.589H925.114L961.586 261.293ZM961.586 370.354L997.886 334.057H1070.66V370.354H961.586ZM925.114 334.057V297.761H1034.19L997.886 334.057H925.114ZM1070.66 297.589H1143.43L1070.66 370.354V297.589ZM1143.43 297.589L1216.2 224.825V297.589H1143.43ZM1070.66 334.057H1216.2L1179.9 370.354H1070.66V334.057ZM1106.96 224.825H1216.2V261.122H1070.66L1106.96 224.825ZM1106.96 334.057L1143.26 297.761H1216.2V334.057H1106.96ZM1070.66 297.589V261.293H1179.73L1143.43 297.589H1070.66ZM1216.2 261.293H1288.98L1216.2 334.057V261.293ZM1288.98 261.293L1361.75 188.529V261.293H1288.98ZM1216.2 297.589H1361.75L1325.45 333.886H1216.2V297.589ZM1252.5 188.529H1361.75V224.825H1216.2L1252.5 188.529ZM1252.5 297.589L1288.8 261.293H1361.75V297.589H1252.5ZM1216.2 261.293V224.996H1325.28L1288.98 261.293H1216.2ZM1361.75 224.825H1434.52L1361.75 297.589V224.825ZM1434.52 224.825L1507.29 152.232V224.996H1434.52V224.825ZM1361.75 261.293H1507.29L1470.99 297.589H1361.75V261.293ZM1398.05 152.061H1507.29V188.357H1361.75L1398.05 152.061ZM1398.05 261.293L1434.35 224.996H1507.29V261.293H1398.05ZM1361.75 224.825V188.529H1470.82L1434.52 224.825H1361.75ZM1507.29 188.529H1580.07L1507.29 261.293V188.529ZM1580.07 188.529L1652.84 115.764V188.529H1580.07ZM1507.29 224.996H1652.84L1616.54 261.293H1507.29V224.996ZM1543.59 115.764H1652.67V152.232H1507.12L1543.59 115.764ZM1543.59 224.996L1579.89 188.7H1652.67V224.996H1543.59ZM1507.29 188.529V152.232H1616.37L1580.07 188.529H1507.29ZM1652.67 152.061H1725.44L1652.67 224.825V152.061ZM1725.44 152.061L1798.21 79.2965V152.061H1725.44ZM1652.67 188.529H1798.21L1761.91 224.825H1652.84V188.529H1652.67ZM1689.14 79.4677H1798.21V115.764H1652.67L1689.14 79.4677ZM1689.14 188.529L1725.44 152.232H1798.21V188.529H1689.14ZM1652.67 152.061V115.764H1761.74L1725.44 152.061H1652.67ZM1798.21 115.764H1870.98L1798.21 188.529V115.764ZM1870.98 115.764L1943.76 43V115.764H1870.98ZM1798.21 152.232H1943.76L1907.46 188.529H1798.38V152.232H1798.21ZM1834.68 43H1943.76V79.2965H1798.21L1834.68 43ZM1834.68 152.232L1870.98 115.935H1943.76V152.232H1834.68ZM1798.21 115.764V79.4677H1907.28L1870.98 115.764H1798.21ZM-129.829 734.175H-57.0564L-129.829 806.939V734.175ZM-57.2276 734.175L15.5448 661.411V734.175H-57.2276ZM-129.829 770.643H15.716L-20.7558 806.939H-129.829V770.643ZM-93.5282 661.411H15.5448V697.707H-130L-93.5282 661.411ZM-93.5282 770.643L-57.2276 734.346H15.5448V770.643H-93.5282ZM-129.829 734.175V697.878H-20.7558L-57.0564 734.175H-129.829V734.175ZM15.5448 697.878H88.3171L15.5448 770.643V697.878ZM88.3171 697.878L161.09 625.114V697.878H88.3171ZM15.5448 734.175H161.09L124.789 770.471H15.5448V734.175ZM52.0166 625.114H161.09V661.411H15.5448L52.0166 625.114ZM52.0166 734.175L88.3171 697.878H161.09V734.175H52.0166ZM15.5448 697.878V661.582H124.618L88.3171 697.878H15.5448ZM-20.7558 843.407H52.0166L-20.7558 916V843.407ZM52.0166 843.407L124.789 770.643V843.407H52.0166ZM-20.7558 879.703H124.789L88.3171 916H-20.7558V879.703ZM15.5448 770.643H124.618V806.939H-20.927L15.5448 770.643ZM15.5448 879.703L51.8453 843.407H124.618V879.703H15.5448ZM-20.7558 843.407V807.11H88.3171L52.0166 843.407H-20.7558ZM161.09 661.411H233.862L161.09 734.175V661.411ZM233.862 661.411L306.634 588.646V661.411H233.862ZM161.09 697.878H306.634L270.334 734.175H161.261V697.878H161.09ZM197.561 588.646H306.634V624.943H161.09L197.561 588.646ZM197.561 697.878L233.862 661.582H306.634V697.878H197.561ZM161.09 661.411V625.114H270.162L233.862 661.411H161.09ZM124.789 806.939H197.561L124.789 879.703V806.939ZM197.561 806.939L270.334 734.175V806.939H197.561ZM124.789 843.407H270.334L234.033 879.703H124.96V843.407H124.789ZM161.09 734.175H270.162V770.643H124.618L161.09 734.175ZM161.09 843.407L197.39 807.11H270.162V843.407H161.09ZM124.789 806.939V770.643H233.862L197.561 806.939H124.789ZM270.334 770.643H343.106L270.334 843.407V770.643V770.643ZM343.106 770.643L415.878 697.878V770.643H343.106ZM270.334 806.939H415.878L379.578 843.236H270.505V806.939H270.334ZM306.634 697.878H415.707V734.175H270.162L306.634 697.878ZM306.634 806.939L342.935 770.643H415.707V806.939H306.634ZM270.334 770.643V734.346H379.407L343.106 770.643H270.334ZM415.878 734.175H488.48L415.707 806.939V734.175H415.878ZM488.48 734.175L561.252 661.411V734.175H488.48ZM415.878 770.643H561.423L525.123 806.939H416.05V770.643H415.878ZM452.179 661.411H561.252V697.707H415.707L452.179 661.411ZM452.179 770.643L488.48 734.346H561.252V770.643H452.179ZM415.878 734.175V697.878H524.951L488.48 734.175H415.878ZM561.252 697.878H634.024L561.252 770.643V697.878ZM634.024 697.878L706.797 625.114V697.878H634.024ZM561.252 734.175H706.797L670.496 770.471H561.423V734.175H561.252ZM597.724 625.114H706.797V661.411H561.252L597.724 625.114ZM597.724 734.175L634.024 697.878H706.797V734.175H597.724ZM561.252 697.878V661.582H670.325L634.024 697.878H561.252ZM706.797 661.411H779.569L706.797 734.175V661.411ZM779.569 661.411L852.342 588.646V661.411H779.569ZM706.797 697.878H852.342L816.041 734.175H706.968V697.878H706.797ZM743.269 588.646H852.342V624.943H706.797L743.269 588.646ZM743.269 697.878L779.569 661.582H852.342V697.878H743.269ZM706.797 661.411V625.114H815.87L779.569 661.411H706.797ZM852.342 625.114H925.114L852.342 697.878V625.114ZM925.114 625.114L997.886 552.35V625.114H925.114ZM852.342 661.411H997.886L961.586 697.707H852.513V661.411H852.342ZM888.813 552.35H997.886V588.646H852.342L888.813 552.35ZM888.813 661.411L925.114 625.114H997.886V661.411H888.813ZM852.342 625.114V588.818H961.414L925.114 625.114H852.342ZM997.886 588.646H1070.66L997.886 661.411V588.646ZM1070.66 588.646L1143.43 515.882V588.646H1070.66ZM997.886 625.114H1143.43L1107.13 661.411H998.057V625.114H997.886ZM1034.36 515.882H1143.43V552.179H997.886L1034.36 515.882ZM1034.36 625.114L1070.66 588.818H1143.43V625.114H1034.36ZM997.886 588.646V552.35H1106.96L1070.66 588.646H997.886ZM1143.43 552.35H1216.2L1143.43 625.114V552.35ZM1216.2 552.35L1288.98 479.586V552.35H1216.2ZM1143.43 588.646H1288.98L1252.68 624.943H1143.6V588.646H1143.43ZM1179.73 479.586H1288.8V515.882H1143.26L1179.73 479.586ZM1179.73 588.646L1216.03 552.35H1288.8V588.646H1179.73ZM1143.43 552.35V516.053H1252.5L1216.2 552.35H1143.43ZM1288.98 515.882H1361.75L1288.98 588.646V515.882ZM1361.75 515.882L1434.52 443.118V515.882H1361.75V515.882ZM1288.98 552.35H1434.52L1398.22 588.646H1289.15V552.35H1288.98ZM1325.28 443.118H1434.35V479.414H1288.8L1325.28 443.118ZM1325.28 552.35L1361.58 516.053H1434.35V552.35H1325.28ZM1288.98 515.882V479.586H1398.05L1361.75 515.882H1288.98ZM1434.52 479.586H1507.29L1434.52 552.35V479.586ZM1507.29 479.586L1580.07 406.821V479.586H1507.29ZM1434.52 515.882H1580.07L1543.76 552.179H1434.69V515.882H1434.52ZM1470.82 406.821H1579.89V443.118H1434.35L1470.82 406.821ZM1470.82 515.882L1507.12 479.586H1579.89V515.882H1470.82ZM1434.52 479.586V443.289H1543.59L1507.29 479.586H1434.52ZM1579.89 443.118H1652.67L1579.89 515.882V443.118V443.118ZM1652.67 443.118L1725.44 370.354V443.118H1652.67ZM1579.89 479.586H1725.44L1689.14 515.882H1580.07V479.586H1579.89ZM1616.37 370.354H1725.44V406.65H1579.89L1616.37 370.354ZM1616.37 479.586L1652.67 443.289H1725.44V479.586H1616.37ZM1579.89 443.118V406.821H1688.97L1652.67 443.118H1579.89ZM1725.44 406.821H1798.21L1725.44 479.586V406.821ZM1798.21 406.821L1870.98 334.057V406.821H1798.21ZM1725.44 443.118H1870.98L1834.68 479.414H1725.61V443.118H1725.44ZM1761.91 334.057H1870.98V370.354H1725.44L1761.91 334.057ZM1761.91 443.118L1798.21 406.821H1870.98V443.118H1761.91ZM1725.44 406.821V370.525H1834.51L1798.21 406.821H1725.44ZM1870.98 370.354H1943.76L1870.98 443.118V370.354ZM1943.76 370.354L2016.53 297.589V370.354H1943.76ZM1870.98 406.821H2016.53L1980.23 443.118H1871.15V406.821H1870.98ZM1907.46 297.589H2016.53V333.886H1870.98L1907.46 297.589ZM1907.46 406.821L1943.76 370.525H2016.53V406.821H1907.46ZM1870.98 370.354V334.057H1980.06L1943.76 370.354H1870.98ZM306.634 625.114H379.407L306.634 697.878V625.114ZM379.407 625.114L452.179 552.35V625.114H379.407ZM306.634 661.411H452.179L415.878 697.707H306.805V661.411H306.634ZM343.106 552.35H452.179V588.646H306.634L343.106 552.35ZM343.106 661.411L379.407 625.114H452.179V661.411H343.106ZM306.634 625.114V588.818H415.707L379.407 625.114H306.634ZM452.179 588.646H524.951L452.179 661.411V588.646ZM524.951 588.646L597.724 515.882V588.646H524.951ZM452.179 625.114H597.724L561.423 661.411H452.35V625.114H452.179ZM488.651 515.882H597.724V552.179H452.179L488.651 515.882ZM488.48 625.114L524.78 588.818H597.553V625.114H488.48ZM452.179 588.646V552.35H561.252L524.951 588.646H452.179ZM597.724 552.35H670.496L597.724 625.114V552.35ZM670.496 552.35L743.269 479.586V552.35H670.496ZM597.724 588.646H743.269L706.968 624.943H597.895V588.646H597.724ZM634.024 479.586H743.097V515.882H597.553L634.024 479.586ZM634.024 588.646L670.325 552.35H743.097V588.646H634.024ZM597.724 552.35V516.053H706.797L670.496 552.35H597.724ZM743.269 515.882H816.041L743.269 588.646V515.882V515.882ZM816.041 515.882L888.813 443.118V515.882H816.041V515.882ZM743.269 552.35H888.813L852.513 588.646H743.44V552.35H743.269ZM779.569 443.118H888.642V479.414H743.097L779.569 443.118ZM779.569 552.35L815.87 516.053H888.642V552.35H779.569ZM743.269 515.882V479.586H852.342L816.041 515.882H743.269ZM888.813 479.586H961.586L888.813 552.35V479.586ZM961.586 479.586L1034.36 406.821V479.586H961.586ZM888.813 515.882H1034.36L998.057 552.179H888.985V515.882H888.813ZM925.114 406.821H1034.19V443.118H888.642L925.114 406.821ZM925.114 515.882L961.414 479.586H1034.19V515.882H925.114ZM888.813 479.586V443.289H997.886L961.586 479.586H888.813ZM1034.19 443.118H1106.96L1034.19 515.882V443.118ZM1106.96 443.118L1179.73 370.354V443.118H1106.96ZM1034.19 479.586H1179.73L1143.43 515.882H1034.36V479.586H1034.19ZM1070.66 370.354H1179.73V406.65H1034.19L1070.66 370.354ZM1070.66 479.586L1106.96 443.289H1179.73V479.586H1070.66ZM1034.19 443.118V406.821H1143.26L1106.96 443.118H1034.19ZM1179.73 406.821H1252.5L1179.73 479.586V406.821ZM1252.5 406.821L1325.28 334.057V406.821H1252.5ZM1179.73 443.118H1325.28L1288.98 479.414H1179.9V443.118H1179.73ZM1216.2 334.057H1325.28V370.354H1179.73L1216.2 334.057ZM1216.2 443.118L1252.5 406.821H1325.28V443.118H1216.2ZM1179.73 406.821V370.525H1288.8L1252.5 406.821H1179.73ZM1325.28 370.354H1398.05L1325.28 443.118V370.354ZM1398.05 370.354L1470.82 297.589V370.354H1398.05ZM1325.28 406.821H1470.82L1434.52 443.118H1325.45V406.821H1325.28ZM1361.75 297.761H1470.82V334.057H1325.28L1361.75 297.761ZM1361.75 406.821L1398.05 370.525H1470.82V406.821H1361.75ZM1325.28 370.354V334.057H1434.35L1398.05 370.354H1325.28ZM1470.82 334.057H1543.59L1470.82 406.821V334.057ZM1543.59 334.057L1616.37 261.293V334.057H1543.59ZM1470.82 370.354H1616.37L1580.07 406.65H1470.99V370.354H1470.82ZM1507.29 261.293H1616.37V297.589H1470.82L1507.29 261.293ZM1507.29 370.354L1543.59 334.057H1616.37V370.354H1507.29ZM1470.82 334.057V297.761H1579.89L1543.59 334.057H1470.82ZM1616.37 297.589H1689.14L1616.37 370.354V297.589ZM1689.14 297.589L1761.91 224.825V297.589H1689.14ZM1616.37 334.057H1761.91L1725.61 370.354H1616.54V334.057H1616.37ZM1652.67 224.825H1761.74V261.122H1616.19L1652.67 224.825ZM1652.67 334.057L1688.97 297.761H1761.74V334.057H1652.67ZM1616.37 297.589V261.293H1725.44L1689.14 297.589H1616.37ZM1761.91 261.293H1834.68L1761.91 334.057V261.293ZM1834.68 261.293L1907.46 188.529V261.293H1834.68ZM1761.91 297.589H1907.46L1871.15 333.886H1762.08V297.589H1761.91ZM1798.21 188.529H1907.28V224.825H1761.74L1798.21 188.529ZM1798.21 297.589L1834.51 261.293H1907.28V297.589H1798.21ZM1761.91 261.293V224.996H1870.98L1834.68 261.293H1761.91ZM1907.46 224.996H1980.23L1907.46 297.761V224.996ZM1980.23 224.996L2053 152.232V224.996H1980.23ZM1907.46 261.293H2053L2016.7 297.589H1907.63V261.293H1907.46ZM1943.76 152.232H2052.83V188.529H1907.28L1943.76 152.232ZM1943.76 261.293L1980.06 224.996H2052.83V261.293H1943.76ZM1907.46 224.996V188.7H2016.53L1980.23 224.996H1907.46Z" stroke="url(#paint0_linear)" stroke-width="0.7087" stroke-miterlimit="10"/>
</g>
<defs>
<linearGradient id="paint0_linear" x1="-131.37" y1="479.553" x2="2054.4" y2="479.553" gradientUnits="userSpaceOnUse">
<stop offset="2.2622e-07" stop-color="#2C37FF"/>
<stop offset="0.0982704" stop-color="#4151FF"/>
<stop offset="0.3242" stop-color="#6E86FF"/>
<stop offset="0.535" stop-color="#92B1FF"/>
<stop offset="0.7245" stop-color="#ABCFFF"/>
<stop offset="0.8859" stop-color="#BAE1FF"/>
<stop offset="1" stop-color="#C0E8FF"/>
</linearGradient>
</defs>
</svg>
