<svg fill="none" height="875" viewBox="0 0 1800 875" width="1800" xmlns="http://www.w3.org/2000/svg" xmlns:xlink="http://www.w3.org/1999/xlink"><linearGradient id="a" gradientUnits="userSpaceOnUse" x1="-125.37" x2="2060.4" y1="437.447" y2="437.447"><stop offset=".00000022622" stop-color="#2c37ff"/><stop offset=".0982704" stop-color="#4151ff"/><stop offset=".3242" stop-color="#6e86ff"/><stop offset=".535" stop-color="#92b1ff"/><stop offset=".7245" stop-color="#abcfff"/><stop offset=".8859" stop-color="#bae1ff"/><stop offset="1" stop-color="#c0e8ff"/></linearGradient><path d="m-87.5282 255.589 72.7724 72.765h-72.7724zm72.7724 72.765 72.7724 72.764v-72.764zm-72.7724-36.468h145.5448l-36.3006-36.297h-109.2442zm36.4718 109.232h109.073v-36.297h-145.5448zm-.1712-109.232 36.3006 36.296h72.7723v-36.296zm-36.3006 36.468v36.296h109.073l-36.3006-36.296zm145.5448 36.296h72.7724l-72.7724-72.764zm72.7724 0 72.772 72.764v-72.764zm-72.7724-36.296h145.5444l-36.3-36.297h-109.0732v36.297zm36.3005 109.06h109.0729v-36.296h-145.5447zm0-109.06 36.3009 36.296h72.772v-36.296zm-36.3005 36.296v36.297h109.0734l-36.301-36.297zm145.5444 36.468h72.773l-72.773-72.764zm72.773 0 72.772 72.764v-72.764zm-72.773-36.468h145.545l-36.301-36.296h-109.072v36.296zm36.301 109.232h109.073v-36.296h-145.545zm0-109.232 36.3 36.297h72.773v-36.297zm-36.301 36.468v36.296h109.073l-36.3-36.296zm145.545 36.296h72.772l-72.772-72.764zm72.772 0 72.773 72.765v-72.765zm-72.772-36.296h145.545l-36.301-36.297h-109.073v36.297zm36.301 109.061h109.073v-36.297h-145.545zm0-109.061 36.3 36.296h72.773v-36.296zm-36.301 36.296v36.297h109.073l-36.301-36.297zm145.374 36.468h72.772l-72.772-72.764zm72.772 0 72.772 72.764v-72.764zm-72.772-36.468h145.544l-36.3-36.296h-109.244zm36.471 109.232h109.073v-36.296h-145.544zm0-109.232 36.301 36.297h72.772v-36.297zm-36.471 36.468v36.297h109.073l-36.301-36.297zm145.544 36.297h72.773l-72.773-72.765zm72.773 0 72.772 72.764v-72.764zm-72.773-36.297h145.545l-36.3-36.296h-109.245zm36.472 109.061h109.073v-36.297h-145.545zm0-109.061 36.301 36.297h72.772v-36.297zm-36.472 36.297v36.296h109.073l-36.3-36.296zm145.545 36.467h72.773l-72.773-72.764zm72.773 0 72.772 72.765v-72.765zm-72.773-36.467h145.545l-36.301-36.297h-109.244zm36.472 109.232h109.073v-36.297h-145.545zm0-109.232 36.301 36.296h72.772v-36.296zm-36.472 36.467v36.297h109.073l-36.3-36.297zm145.545 36.297h72.776l-72.776-72.764zm72.776 0 72.77 72.764v-72.764zm-72.776-36.297h145.546l-36.3-36.296h-109.246zm36.472 109.061h109.074v-36.296h-145.546zm0-109.061 36.304 36.297h72.77v-36.297zm-36.472 36.297v36.296h109.076l-36.3-36.296zm145.546 36.468h72.77l-72.77-72.765zm72.77 0 72.77 72.764v-72.764zm-72.77-36.468h145.54l-36.3-36.297h-109.24zm36.3 109.232h109.24v-36.297h-145.54zm0-109.232 36.3 36.296h72.94v-36.296zm-36.3 36.468v36.296h109.07l-36.3-36.296zm145.54 36.296h72.78l-72.78-72.764zm72.78 0 72.77 72.764v-72.764zm-72.78-36.296h145.55l-36.3-36.297h-109.25zm36.3 109.06h109.25v-36.296h-145.55zm0-109.06 36.3 36.296h72.95v-36.296zm-36.3 36.296v36.297h109.08l-36.3-36.297zm145.55 36.468h72.77l-72.77-72.764zm72.77 0 72.77 72.593v-72.764h-72.77zm-72.77-36.468h145.54l-36.3-36.296h-109.24zm36.3 109.232h109.24v-36.296h-145.54zm0-109.232 36.3 36.297h72.94v-36.297zm-36.3 36.468v36.296h109.07l-36.3-36.296zm145.54 36.296h72.78l-72.78-72.764zm72.78 0 72.77 72.765v-72.765zm-72.78-36.467h145.55l-36.3-36.297h-109.25zm36.3 109.232h109.08v-36.468h-145.55zm0-109.232 36.3 36.296h72.78v-36.296zm-36.3 36.467v36.297h109.08l-36.3-36.297zm145.38 36.468h72.77l-72.77-72.764zm72.77 0 72.77 72.764v-72.764zm-72.77-36.468h145.54l-36.3-36.296h-109.07v36.296zm36.47 109.061h109.07v-36.296h-145.54zm0-109.061 36.3 36.297h72.77v-36.297zm-36.47 36.468v36.297h109.07l-36.3-36.297zm145.54 36.297h72.77l-72.77-72.765zm72.77 0 72.78 72.764v-72.764zm-72.77-36.468h145.55l-36.3-36.297h-109.08v36.297zm36.47 109.232h109.08v-36.297h-145.55zm0-109.232 36.3 36.297h72.78v-36.297zm-36.47 36.468v36.296h109.07l-36.3-36.296zm-1928.039-618.411h72.7726l-72.7726-72.764zm72.6014 0 72.7724 72.764v-72.764zm-72.6014-36.468h145.545l-36.4718-36.296h-109.0732zm36.3008 109.232h109.073v-36.296h-145.5448zm0-109.232 36.3006 36.297h72.7724v-36.297zm-36.3008 36.468v36.297h109.0732l-36.3006-36.297zm145.3738 36.297h72.7723l-72.7723-72.765zm72.7723 0 72.7729 72.764v-72.764zm-72.7723-36.297h145.5452l-36.301-36.296h-109.2442zm36.4718 109.061h109.0734v-36.297h-145.5452zm0-109.061 36.3005 36.297h72.7729v-36.297zm-36.4718 36.297v36.296h109.0732l-36.3009-36.296zm-36.3006-145.5289h72.7724l-72.7724-72.5931zm72.7724 0 72.7724 72.7639v-72.7639zm-72.7724-36.2966h145.5448l-36.4719-36.2965h-109.0729zm36.3006 109.0605h109.0732v-36.296h-145.545zm0-109.0605 36.3005 36.2966h72.7727v-36.2966zm-36.3006 36.2966v36.2969h109.0729l-36.3005-36.2969zm181.8458 181.9959h72.772l-72.772-72.764zm72.772 0 72.772 72.765v-72.765zm-72.772-36.467h145.544l-36.3-36.297h-109.073v36.297zm36.471 109.232h109.073v-36.297h-145.544zm0-109.232 36.301 36.296h72.772v-36.296zm-36.471 36.467v36.297h109.072l-36.3-36.297zm-36.301-145.528h72.772l-72.772-72.7645zm72.772 0 72.773 72.764v-72.764zm-72.772-36.4679h145.545l-36.301-36.2966h-109.073v36.2966zm36.301 109.2319h109.072v-36.468h-145.544zm0-109.2319 36.3 36.2969h72.772v-36.2969zm-36.301 36.4679v36.296h109.073l-36.301-36.296zm145.545 36.296h72.772l-72.772-72.7639zm72.772 0 72.772 72.765v-72.765zm-72.772-36.296h145.544l-36.3-36.2967h-109.073v36.2967zm36.3 109.061h109.073v-36.297h-145.545zm0-109.061 36.301 36.296h72.772v-36.296zm-36.3 36.296v36.297h109.073l-36.301-36.297zm145.544 36.468h72.602l-72.773-72.764v72.764zm72.602 0 72.772 72.764v-72.764zm-72.602-36.468h145.545l-36.3-36.296h-109.073v36.296zm36.301 109.232h109.073v-36.296h-145.545zm0-109.232 36.301 36.297h72.772v-36.297zm-36.301 36.468v36.297h109.073l-36.471-36.297zm145.374 36.297h72.772l-72.772-72.765zm72.772 0 72.773 72.764v-72.764zm-72.772-36.297h145.545l-36.301-36.296h-109.073v36.296zm36.472 109.061h109.073v-36.297h-145.545zm0-109.061 36.3 36.297h72.773v-36.297zm-36.472 36.297v36.296h109.073l-36.301-36.296zm145.545 36.467h72.772l-72.772-72.764zm72.772 0 72.773 72.765v-72.765zm-72.772-36.467h145.545l-36.301-36.297h-109.073v36.297zm36.472 109.232h109.073v-36.297h-145.545zm0-109.232 36.3 36.296h72.773v-36.296zm-36.472 36.467v36.297h109.073l-36.301-36.297zm145.545 36.297h72.772l-72.772-72.764zm72.772 0 72.776 72.764v-72.764zm-72.772-36.297h145.548l-36.304-36.296h-109.073v36.296zm36.471 109.061h109.077v-36.296h-145.548zm0-109.061 36.301 36.297h72.776v-36.297zm-36.471 36.297v36.296h109.072l-36.3-36.296zm145.548 36.468h72.77l-72.77-72.765zm72.77 0 72.77 72.764v-72.764zm-72.77-36.468h145.54l-36.3-36.297h-109.07v36.297zm36.47 109.232h109.07v-36.297h-145.54zm0-109.232 36.3 36.296h72.77v-36.296zm-36.47 36.468v36.296h109.07l-36.3-36.296zm145.54 36.296h72.77l-72.77-72.764zm72.77 0 72.78 72.764v-72.764zm-72.77-36.296h145.55l-36.3-36.297h-109.08v36.297zm36.3 109.06h109.07v-36.296h-145.54zm0-109.06 36.3 36.296h72.77v-36.296zm-36.3 36.296v36.297h109.07l-36.3-36.297zm145.55 36.468h72.77l-72.77-72.764zm72.77 0 72.77 72.764v-72.764zm-72.77-36.468h145.54l-36.3-36.296h-109.07v36.296zm36.3 109.232h109.07v-36.296h-145.55zm0-109.232 36.3 36.297h72.77v-36.297zm-36.3 36.468v36.296h109.07l-36.3-36.296zm145.54 36.296h72.77l-72.77-72.764zm72.77 0 72.78 72.765v-72.765zm-72.77-36.296h145.55l-36.31-36.297h-109.07v36.297zm36.3 109.061h109.07v-36.297h-145.54zm0-109.061 36.3 36.296h72.77v-36.296zm-36.3 36.296v36.297h109.07l-36.3-36.297zm145.37 36.468h72.78l-72.78-72.764zm72.78 0 72.77 72.764v-72.764zm-72.78-36.468h145.55l-36.3-36.296h-109.07v36.296zm36.48 109.232h109.07v-36.296h-145.55zm0-109.232 36.3 36.297h72.77v-36.297zm-36.48 36.468v36.297h109.08l-36.3-36.297zm145.55 36.297h72.77l-72.77-72.765zm72.77 0 72.77 72.764v-72.764zm-72.77-36.297h145.54l-36.3-36.296h-109.07v36.296zm36.47 109.061h109.07v-36.297h-145.54zm0-109.061 36.3 36.297h72.77v-36.297zm-36.47 36.297v36.296h109.07l-36.3-36.296zm145.54 36.467h72.78l-72.78-72.764zm72.78 0 72.77 72.765v-72.765zm-72.78-36.467h145.55l-36.3-36.297h-109.08v36.297zm36.48 109.232h109.07v-36.297h-145.55zm0-109.232 36.3 36.296h72.77v-36.296zm-36.48 36.467v36.297h109.08l-36.3-36.297zm-1564.346-254.76h72.773l-72.773-72.764zm72.773 0 72.772 72.764v-72.764zm-72.773-36.297h145.545l-36.301-36.296h-109.073v36.296zm36.472 109.061h109.073v-36.296h-145.545zm0-109.061 36.301 36.297h72.772v-36.297zm-36.472 36.297v36.296h109.073l-36.3-36.296zm145.545 36.468h72.772l-72.772-72.765zm72.772 0 72.773 72.764v-72.764zm-72.772-36.468h145.545l-36.301-36.297h-109.073v36.297zm36.472 109.232h109.073v-36.297h-145.545zm-.171-109.232 36.3 36.296h72.773v-36.296zm-36.301 36.468v36.296h109.073l-36.301-36.296zm145.545 36.296h72.772l-72.772-72.764zm72.772 0 72.773 72.764v-72.764zm-72.772-36.296h145.545l-36.301-36.297h-109.073v36.297zm36.3 109.06h109.073v-36.296h-145.544zm0-109.06 36.301 36.296h72.772v-36.296zm-36.3 36.296v36.297h109.073l-36.301-36.297zm145.545 36.468h72.772l-72.772-72.764zm72.772 0 72.772 72.764v-72.764zm-72.772-36.468h145.544l-36.3-36.296h-109.073v36.296zm36.3 109.232h109.073v-36.296h-145.545zm0-109.232 36.301 36.297h72.772v-36.297zm-36.3 36.468v36.296h109.073l-36.301-36.296zm145.544 36.296h72.773l-72.773-72.764zm72.773 0 72.774 72.765v-72.765zm-72.773-36.296h145.547l-36.3-36.297h-109.075v36.297zm36.301 109.061h109.076v-36.297h-145.548zm0-109.061 36.3 36.296h72.776v-36.296zm-36.301 36.296v36.297h109.077l-36.304-36.297zm145.377 36.468h72.77l-72.77-72.764zm72.77 0 72.77 72.764v-72.764zm-72.77-36.468h145.54l-36.3-36.296h-109.07v36.296zm36.47 109.232h109.07v-36.296h-145.54zm0-109.232 36.3 36.297h72.77v-36.297zm-36.47 36.468v36.297h109.07l-36.3-36.297zm145.54 36.297h72.77l-72.77-72.765zm72.77 0 72.78 72.764v-72.764zm-72.77-36.297h145.55l-36.3-36.296h-109.08v36.296zm36.47 109.061h109.08v-36.297h-145.55zm0-109.061 36.3 36.297h72.78v-36.297zm-36.47 36.297v36.296h109.07l-36.3-36.296zm145.55 36.467h72.77l-72.77-72.764zm72.77 0 72.77 72.765v-72.765zm-72.77-36.467h145.54l-36.3-36.297h-109.07v36.297zm36.47 109.06h109.07v-36.296h-145.54zm0-109.06 36.3 36.296h72.77v-36.296zm-36.47 36.467v36.297h109.07l-36.3-36.297zm145.54 36.297h72.77l-72.77-72.764zm72.77 0 72.78 72.764v-72.764zm-72.77-36.297h145.55l-36.3-36.296h-109.08v36.296zm36.47 109.061h109.08v-36.296h-145.55zm0-109.061 36.3 36.297h72.78v-36.297zm-36.47 36.297v36.296h109.07l-36.3-36.296zm145.55 36.468h72.77l-72.77-72.765zm72.77 0 72.77 72.764v-72.764zm-72.77-36.468h145.54l-36.3-36.297h-109.07v36.297zm36.3 109.232h109.07v-36.297h-145.55zm0-109.232 36.3 36.296h72.77v-36.296zm-36.3 36.468v36.296h109.07l-36.3-36.296zm145.54 36.296h72.77l-72.77-72.764zm72.77 0 72.78 72.764v-72.764zm-72.77-36.296h145.55l-36.31-36.297h-109.07v36.297zm36.3 109.06h109.07v-36.296h-145.54zm0-109.06 36.3 36.296h72.77v-36.296zm-36.3 36.296v36.297h109.07l-36.3-36.297zm145.55 36.297h72.77l-72.77-72.765zm72.77 0 72.77 72.764v-72.764zm-72.77-36.297h145.54l-36.3-36.296h-109.07v36.296zm36.3 109.061h109.07v-36.297h-145.55zm0-109.061 36.3 36.297h72.77v-36.297zm-36.3 36.297v36.296h109.07l-36.3-36.296z" opacity=".5" stroke="url(#a)" stroke-miterlimit="10" stroke-width=".7087"/></svg>