<svg width="1800" height="875" viewBox="0 0 1800 875" fill="none" xmlns="http://www.w3.org/2000/svg">
<path opacity="0.5" d="M-158.528 619.411L-85.7558 546.646H-158.528V619.411ZM-85.7558 546.646L-12.9834 473.882V546.646H-85.7558ZM-158.528 583.114H-12.9834L-49.284 619.411H-158.528V583.114ZM-122.056 473.882H-12.9834V510.179H-158.528L-122.056 473.882ZM-122.228 583.114L-85.927 546.818H-13.1547V583.114H-122.228ZM-158.528 546.646V510.35H-49.4552L-85.7558 546.646H-158.528ZM-12.9834 510.35H59.7889L-12.9834 583.114V510.35ZM59.7889 510.35L132.561 437.586V510.35H59.7889ZM-12.9834 546.646H132.561L96.2607 582.943H-12.8122V546.646H-12.9834ZM23.3171 437.586H132.39V473.882H-13.1547L23.3171 437.586ZM23.3171 546.646L59.6177 510.35H132.39V546.646H23.3171ZM-12.9834 510.35V474.053H96.0895L59.7889 510.35H-12.9834ZM132.561 473.882H205.334L132.561 546.646V473.882ZM205.334 473.882L278.106 401.118V473.882H205.334V473.882ZM132.561 510.35H278.106L241.805 546.646H132.733V510.35H132.561ZM168.862 401.118H277.935V437.414H132.39L168.862 401.118ZM168.862 510.35L205.162 474.053H277.935V510.35H168.862ZM132.561 473.882V437.586H241.634L205.334 473.882H132.561ZM278.106 437.586H350.878L278.106 510.35V437.586ZM350.878 437.586L423.651 364.821V437.586H350.878ZM278.106 473.882H423.651L387.35 510.179H278.277V473.882H278.106ZM314.407 364.821H423.48V401.118H277.935L314.407 364.821ZM314.407 473.882L350.707 437.586H423.48V473.882H314.407ZM278.106 437.586V401.289H387.179L350.878 437.586H278.106ZM423.48 401.118H496.252L423.48 473.882V401.118ZM496.252 401.118L569.024 328.354V401.118H496.252ZM423.48 437.586H569.024L532.724 473.882H423.48V437.586ZM459.951 328.354H569.024V364.65H423.48L459.951 328.354ZM459.951 437.586L496.252 401.289H569.024V437.586H459.951ZM423.48 401.118V364.821H532.553L496.252 401.118H423.48ZM569.024 364.821H641.797L569.024 437.586V364.821ZM641.797 364.821L714.569 292.057V364.821H641.797ZM569.024 401.118H714.569L678.269 437.414H569.024V401.118ZM605.496 292.057H714.569V328.354H569.024L605.496 292.057ZM605.496 401.118L641.797 364.821H714.569V401.118H605.496ZM569.024 364.821V328.525H678.097L641.797 364.821H569.024ZM714.569 328.354H787.342L714.569 401.118V328.354ZM787.342 328.354L860.114 255.589V328.354H787.342ZM714.569 364.821H860.114L823.813 401.118H714.569V364.821ZM751.041 255.589H860.114V291.886H714.569L751.041 255.589ZM751.041 364.821L787.342 328.525H860.114V364.821H751.041ZM714.569 328.354V292.057H823.642L787.342 328.354H714.569ZM860.114 292.057H932.886L860.114 364.821V292.057ZM932.886 292.057L1005.66 219.293V292.057H932.886ZM860.114 328.354H1005.66L969.358 364.65H860.114V328.354ZM896.586 219.293H1005.66V255.589H860.114L896.586 219.293ZM896.586 328.354L932.886 292.057H1005.66V328.354H896.586ZM860.114 292.057V255.761H969.187L932.886 292.057H860.114ZM1005.66 255.589H1078.43L1005.66 328.354V255.589ZM1078.43 255.589L1151.2 182.825V255.589H1078.43ZM1005.66 292.057H1151.2L1114.9 328.354H1005.66V292.057ZM1041.96 182.825H1151.2V219.122H1005.66L1041.96 182.825ZM1041.96 292.057L1078.26 255.761H1151.2V292.057H1041.96ZM1005.66 255.589V219.293H1114.73L1078.43 255.589H1005.66ZM1151.2 219.293H1223.98L1151.2 292.057V219.293ZM1223.98 219.293L1296.75 146.529V219.293H1223.98ZM1151.2 255.589H1296.75L1260.45 291.886H1151.2V255.589ZM1187.5 146.529H1296.75V182.825H1151.2L1187.5 146.529ZM1187.5 255.589L1223.8 219.293H1296.75V255.589H1187.5ZM1151.2 219.293V182.996H1260.28L1223.98 219.293H1151.2ZM1296.75 182.825H1369.52L1296.75 255.589V182.825ZM1369.52 182.825L1442.29 110.232V182.996H1369.52V182.825ZM1296.75 219.293H1442.29L1405.99 255.589H1296.75V219.293ZM1333.05 110.061H1442.29V146.357H1296.75L1333.05 110.061ZM1333.05 219.293L1369.35 182.996H1442.29V219.293H1333.05ZM1296.75 182.825V146.529H1405.82L1369.52 182.825H1296.75ZM1442.29 146.529H1515.07L1442.29 219.293V146.529ZM1515.07 146.529L1587.84 73.7643V146.529H1515.07ZM1442.29 182.996H1587.84L1551.54 219.293H1442.29V182.996ZM1478.59 73.7643H1587.67V110.232H1442.12L1478.59 73.7643ZM1478.59 182.996L1514.89 146.7H1587.67V182.996H1478.59ZM1442.29 146.529V110.232H1551.37L1515.07 146.529H1442.29ZM1587.67 110.061H1660.44L1587.67 182.825V110.061ZM1660.44 110.061L1733.21 37.2965V110.061H1660.44ZM1587.67 146.529H1733.21L1696.91 182.825H1587.84V146.529H1587.67ZM1624.14 37.4677H1733.21V73.7643H1587.67L1624.14 37.4677ZM1624.14 146.529L1660.44 110.232H1733.21V146.529H1624.14ZM1587.67 110.061V73.7643H1696.74L1660.44 110.061H1587.67ZM1733.21 73.7643H1805.98L1733.21 146.529V73.7643ZM1805.98 73.7643L1878.76 1.00002V73.7643H1805.98ZM1733.21 110.232H1878.76L1842.46 146.529H1733.38V110.232H1733.21ZM1769.68 1.00002H1878.76V37.2965H1733.21L1769.68 1.00002ZM1769.68 110.232L1805.98 73.9355H1878.76V110.232H1769.68ZM1733.21 73.7643V37.4677H1842.28L1805.98 73.7643H1733.21ZM-194.829 692.175H-122.056L-194.829 764.939V692.175ZM-122.228 692.175L-49.4552 619.411V692.175H-122.228ZM-194.829 728.643H-49.284L-85.7558 764.939H-194.829V728.643ZM-158.528 619.411H-49.4552V655.707H-195L-158.528 619.411ZM-158.528 728.643L-122.228 692.346H-49.4552V728.643H-158.528ZM-194.829 692.175V655.878H-85.7558L-122.056 692.175H-194.829V692.175ZM-49.4552 655.878H23.3171L-49.4552 728.643V655.878ZM23.3171 655.878L96.0895 583.114V655.878H23.3171ZM-49.4552 692.175H96.0895L59.7889 728.471H-49.4552V692.175ZM-12.9834 583.114H96.0895V619.411H-49.4552L-12.9834 583.114ZM-12.9834 692.175L23.3171 655.878H96.0895V692.175H-12.9834ZM-49.4552 655.878V619.582H59.6177L23.3171 655.878H-49.4552ZM-85.7558 801.407H-12.9834L-85.7558 874V801.407ZM-12.9834 801.407L59.7889 728.643V801.407H-12.9834ZM-85.7558 837.703H59.7889L23.3171 874H-85.7558V837.703ZM-49.4552 728.643H59.6177V764.939H-85.927L-49.4552 728.643ZM-49.4552 837.703L-13.1547 801.407H59.6177V837.703H-49.4552ZM-85.7558 801.407V765.11H23.3171L-12.9834 801.407H-85.7558ZM96.0895 619.411H168.862L96.0895 692.175V619.411ZM168.862 619.411L241.634 546.646V619.411H168.862ZM96.0895 655.878H241.634L205.334 692.175H96.2607V655.878H96.0895ZM132.561 546.646H241.634V582.943H96.0895L132.561 546.646ZM132.561 655.878L168.862 619.582H241.634V655.878H132.561ZM96.0895 619.411V583.114H205.162L168.862 619.411H96.0895ZM59.7889 764.939H132.561L59.7889 837.703V764.939ZM132.561 764.939L205.334 692.175V764.939H132.561ZM59.7889 801.407H205.334L169.033 837.703H59.9602V801.407H59.7889ZM96.0895 692.175H205.162V728.643H59.6177L96.0895 692.175ZM96.0895 801.407L132.39 765.11H205.162V801.407H96.0895ZM59.7889 764.939V728.643H168.862L132.561 764.939H59.7889ZM205.334 728.643H278.106L205.334 801.407V728.643V728.643ZM278.106 728.643L350.878 655.878V728.643H278.106ZM205.334 764.939H350.878L314.578 801.236H205.505V764.939H205.334ZM241.634 655.878H350.707V692.175H205.162L241.634 655.878ZM241.634 764.939L277.935 728.643H350.707V764.939H241.634ZM205.334 728.643V692.346H314.407L278.106 728.643H205.334ZM350.878 692.175H423.48L350.707 764.939V692.175H350.878ZM423.48 692.175L496.252 619.411V692.175H423.48ZM350.878 728.643H496.423L460.123 764.939H351.05V728.643H350.878ZM387.179 619.411H496.252V655.707H350.707L387.179 619.411ZM387.179 728.643L423.48 692.346H496.252V728.643H387.179ZM350.878 692.175V655.878H459.951L423.48 692.175H350.878ZM496.252 655.878H569.024L496.252 728.643V655.878ZM569.024 655.878L641.797 583.114V655.878H569.024ZM496.252 692.175H641.797L605.496 728.471H496.423V692.175H496.252ZM532.724 583.114H641.797V619.411H496.252L532.724 583.114ZM532.724 692.175L569.024 655.878H641.797V692.175H532.724ZM496.252 655.878V619.582H605.325L569.024 655.878H496.252ZM641.797 619.411H714.569L641.797 692.175V619.411ZM714.569 619.411L787.342 546.646V619.411H714.569ZM641.797 655.878H787.342L751.041 692.175H641.968V655.878H641.797ZM678.269 546.646H787.342V582.943H641.797L678.269 546.646ZM678.269 655.878L714.569 619.582H787.342V655.878H678.269ZM641.797 619.411V583.114H750.87L714.569 619.411H641.797ZM787.342 583.114H860.114L787.342 655.878V583.114ZM860.114 583.114L932.886 510.35V583.114H860.114ZM787.342 619.411H932.886L896.586 655.707H787.513V619.411H787.342ZM823.813 510.35H932.886V546.646H787.342L823.813 510.35ZM823.813 619.411L860.114 583.114H932.886V619.411H823.813ZM787.342 583.114V546.818H896.414L860.114 583.114H787.342ZM932.886 546.646H1005.66L932.886 619.411V546.646ZM1005.66 546.646L1078.43 473.882V546.646H1005.66ZM932.886 583.114H1078.43L1042.13 619.411H933.057V583.114H932.886ZM969.358 473.882H1078.43V510.179H932.886L969.358 473.882ZM969.358 583.114L1005.66 546.818H1078.43V583.114H969.358ZM932.886 546.646V510.35H1041.96L1005.66 546.646H932.886ZM1078.43 510.35H1151.2L1078.43 583.114V510.35ZM1151.2 510.35L1223.98 437.586V510.35H1151.2ZM1078.43 546.646H1223.98L1187.68 582.943H1078.6V546.646H1078.43ZM1114.73 437.586H1223.8V473.882H1078.26L1114.73 437.586ZM1114.73 546.646L1151.03 510.35H1223.8V546.646H1114.73ZM1078.43 510.35V474.053H1187.5L1151.2 510.35H1078.43ZM1223.98 473.882H1296.75L1223.98 546.646V473.882ZM1296.75 473.882L1369.52 401.118V473.882H1296.75V473.882ZM1223.98 510.35H1369.52L1333.22 546.646H1224.15V510.35H1223.98ZM1260.28 401.118H1369.35V437.414H1223.8L1260.28 401.118ZM1260.28 510.35L1296.58 474.053H1369.35V510.35H1260.28ZM1223.98 473.882V437.586H1333.05L1296.75 473.882H1223.98ZM1369.52 437.586H1442.29L1369.52 510.35V437.586ZM1442.29 437.586L1515.07 364.821V437.586H1442.29ZM1369.52 473.882H1515.07L1478.76 510.179H1369.69V473.882H1369.52ZM1405.82 364.821H1514.89V401.118H1369.35L1405.82 364.821ZM1405.82 473.882L1442.12 437.586H1514.89V473.882H1405.82ZM1369.52 437.586V401.289H1478.59L1442.29 437.586H1369.52ZM1514.89 401.118H1587.67L1514.89 473.882V401.118V401.118ZM1587.67 401.118L1660.44 328.354V401.118H1587.67ZM1514.89 437.586H1660.44L1624.14 473.882H1515.07V437.586H1514.89ZM1551.37 328.354H1660.44V364.65H1514.89L1551.37 328.354ZM1551.37 437.586L1587.67 401.289H1660.44V437.586H1551.37ZM1514.89 401.118V364.821H1623.97L1587.67 401.118H1514.89ZM1660.44 364.821H1733.21L1660.44 437.586V364.821ZM1733.21 364.821L1805.98 292.057V364.821H1733.21ZM1660.44 401.118H1805.98L1769.68 437.414H1660.61V401.118H1660.44ZM1696.91 292.057H1805.98V328.354H1660.44L1696.91 292.057ZM1696.91 401.118L1733.21 364.821H1805.98V401.118H1696.91ZM1660.44 364.821V328.525H1769.51L1733.21 364.821H1660.44ZM1805.98 328.354H1878.76L1805.98 401.118V328.354ZM1878.76 328.354L1951.53 255.589V328.354H1878.76ZM1805.98 364.821H1951.53L1915.23 401.118H1806.15V364.821H1805.98ZM1842.46 255.589H1951.53V291.886H1805.98L1842.46 255.589ZM1842.46 364.821L1878.76 328.525H1951.53V364.821H1842.46ZM1805.98 328.354V292.057H1915.06L1878.76 328.354H1805.98ZM241.634 583.114H314.407L241.634 655.878V583.114ZM314.407 583.114L387.179 510.35V583.114H314.407ZM241.634 619.411H387.179L350.878 655.707H241.805V619.411H241.634ZM278.106 510.35H387.179V546.646H241.634L278.106 510.35ZM278.106 619.411L314.407 583.114H387.179V619.411H278.106ZM241.634 583.114V546.818H350.707L314.407 583.114H241.634ZM387.179 546.646H459.951L387.179 619.411V546.646ZM459.951 546.646L532.724 473.882V546.646H459.951ZM387.179 583.114H532.724L496.423 619.411H387.35V583.114H387.179ZM423.651 473.882H532.724V510.179H387.179L423.651 473.882ZM423.48 583.114L459.78 546.818H532.553V583.114H423.48ZM387.179 546.646V510.35H496.252L459.951 546.646H387.179ZM532.724 510.35H605.496L532.724 583.114V510.35ZM605.496 510.35L678.269 437.586V510.35H605.496ZM532.724 546.646H678.269L641.968 582.943H532.895V546.646H532.724ZM569.024 437.586H678.097V473.882H532.553L569.024 437.586ZM569.024 546.646L605.325 510.35H678.097V546.646H569.024ZM532.724 510.35V474.053H641.797L605.496 510.35H532.724ZM678.269 473.882H751.041L678.269 546.646V473.882V473.882ZM751.041 473.882L823.813 401.118V473.882H751.041V473.882ZM678.269 510.35H823.813L787.513 546.646H678.44V510.35H678.269ZM714.569 401.118H823.642V437.414H678.097L714.569 401.118ZM714.569 510.35L750.87 474.053H823.642V510.35H714.569ZM678.269 473.882V437.586H787.342L751.041 473.882H678.269ZM823.813 437.586H896.586L823.813 510.35V437.586ZM896.586 437.586L969.358 364.821V437.586H896.586ZM823.813 473.882H969.358L933.057 510.179H823.985V473.882H823.813ZM860.114 364.821H969.187V401.118H823.642L860.114 364.821ZM860.114 473.882L896.414 437.586H969.187V473.882H860.114ZM823.813 437.586V401.289H932.886L896.586 437.586H823.813ZM969.187 401.118H1041.96L969.187 473.882V401.118ZM1041.96 401.118L1114.73 328.354V401.118H1041.96ZM969.187 437.586H1114.73L1078.43 473.882H969.358V437.586H969.187ZM1005.66 328.354H1114.73V364.65H969.187L1005.66 328.354ZM1005.66 437.586L1041.96 401.289H1114.73V437.586H1005.66ZM969.187 401.118V364.821H1078.26L1041.96 401.118H969.187ZM1114.73 364.821H1187.5L1114.73 437.586V364.821ZM1187.5 364.821L1260.28 292.057V364.821H1187.5ZM1114.73 401.118H1260.28L1223.98 437.414H1114.9V401.118H1114.73ZM1151.2 292.057H1260.28V328.354H1114.73L1151.2 292.057ZM1151.2 401.118L1187.5 364.821H1260.28V401.118H1151.2ZM1114.73 364.821V328.525H1223.8L1187.5 364.821H1114.73ZM1260.28 328.354H1333.05L1260.28 401.118V328.354ZM1333.05 328.354L1405.82 255.589V328.354H1333.05ZM1260.28 364.821H1405.82L1369.52 401.118H1260.45V364.821H1260.28ZM1296.75 255.761H1405.82V292.057H1260.28L1296.75 255.761ZM1296.75 364.821L1333.05 328.525H1405.82V364.821H1296.75ZM1260.28 328.354V292.057H1369.35L1333.05 328.354H1260.28ZM1405.82 292.057H1478.59L1405.82 364.821V292.057ZM1478.59 292.057L1551.37 219.293V292.057H1478.59ZM1405.82 328.354H1551.37L1515.07 364.65H1405.99V328.354H1405.82ZM1442.29 219.293H1551.37V255.589H1405.82L1442.29 219.293ZM1442.29 328.354L1478.59 292.057H1551.37V328.354H1442.29ZM1405.82 292.057V255.761H1514.89L1478.59 292.057H1405.82ZM1551.37 255.589H1624.14L1551.37 328.354V255.589ZM1624.14 255.589L1696.91 182.825V255.589H1624.14ZM1551.37 292.057H1696.91L1660.61 328.354H1551.54V292.057H1551.37ZM1587.67 182.825H1696.74V219.122H1551.19L1587.67 182.825ZM1587.67 292.057L1623.97 255.761H1696.74V292.057H1587.67ZM1551.37 255.589V219.293H1660.44L1624.14 255.589H1551.37ZM1696.91 219.293H1769.68L1696.91 292.057V219.293ZM1769.68 219.293L1842.46 146.529V219.293H1769.68ZM1696.91 255.589H1842.46L1806.15 291.886H1697.08V255.589H1696.91ZM1733.21 146.529H1842.28V182.825H1696.74L1733.21 146.529ZM1733.21 255.589L1769.51 219.293H1842.28V255.589H1733.21ZM1696.91 219.293V182.996H1805.98L1769.68 219.293H1696.91ZM1842.46 182.996H1915.23L1842.46 255.761V182.996ZM1915.23 182.996L1988 110.232V182.996H1915.23ZM1842.46 219.293H1988L1951.7 255.589H1842.63V219.293H1842.46ZM1878.76 110.232H1987.83V146.529H1842.28L1878.76 110.232ZM1878.76 219.293L1915.06 182.996H1987.83V219.293H1878.76ZM1842.46 182.996V146.7H1951.53L1915.23 182.996H1842.46Z" stroke="url(#paint0_linear)" stroke-width="0.7087" stroke-miterlimit="10"/>
<defs>
<linearGradient id="paint0_linear" x1="-196.37" y1="437.553" x2="1989.4" y2="437.553" gradientUnits="userSpaceOnUse">
<stop offset="2.2622e-07" stop-color="#2C37FF"/>
<stop offset="0.0982704" stop-color="#4151FF"/>
<stop offset="0.3242" stop-color="#6E86FF"/>
<stop offset="0.535" stop-color="#92B1FF"/>
<stop offset="0.7245" stop-color="#ABCFFF"/>
<stop offset="0.8859" stop-color="#BAE1FF"/>
<stop offset="1" stop-color="#C0E8FF"/>
</linearGradient>
</defs>
</svg>
