<?xml version="1.0" encoding="utf-8"?>
<!-- Generator: Adobe Illustrator 23.0.6, SVG Export Plug-In . SVG Version: 6.00 Build 0)  -->
<svg version="1.1" id="レイヤー_1" xmlns="http://www.w3.org/2000/svg" xmlns:xlink="http://www.w3.org/1999/xlink" x="0px"
	 y="0px" viewBox="0 0 744 474" style="enable-background:new 0 0 744 474;" xml:space="preserve">
<style type="text/css">
	.st0{fill:none;stroke:#2C48FF;stroke-width:1.0551;stroke-linejoin:bevel;stroke-miterlimit:10;}
	.st1{fill:none;stroke:#2C48FF;stroke-width:1.0551;stroke-miterlimit:10;}
</style>
<path class="st0" d="M392.5,216l83.2-18l9.4,43.8l8.6,39.4l-127.1,27.5l-47.7-31l126.7-27.5L392.5,216z"/>
<path class="st0" d="M466.2,154.2l-47.9-31l-126.9,27.5l8.5,39.4l9.5,43.8l83.2-18l-53.3-34.2L466.2,154.2z"/>
<path class="st0" d="M479.9,39.3L538,312.8l-92.7,19.8l26.3,45.4l-81.9-33.5l-124.9,26.8L206.6,97.9L479.9,39.3z"/>
<path class="st0" d="M479.9,39.3L538,312.8l-92.7,19.8l26.3,45.4l-81.9-33.5l-124.9,26.8L206.6,97.9L479.9,39.3z"/>
<path class="st0" d="M539.1,63.7L597.4,337l-92.7,20l26.1,45.2l-81.7-33.3l-124.9,26.6L266,122L539.1,63.7z"/>
<path class="st0" d="M539.1,63.7L597.4,337l-92.7,20l26.1,45.2l-81.7-33.3l-124.9,26.6L266,122L539.1,63.7z"/>
<path class="st0" d="M539.1,63.7L597.4,337L538,312.8L479.9,39.3L539.1,63.7z"/>
<path class="st0" d="M539.1,63.7L597.4,337L538,312.8L479.9,39.3L539.1,63.7z"/>
<path class="st0" d="M597.4,337l-92.7,20l-59.4-24.3l92.7-19.8L597.4,337z"/>
<path class="st0" d="M597.4,337l-92.7,20l-59.4-24.3l92.7-19.8L597.4,337z"/>
<path class="st0" d="M530.8,402.1l-81.7-33.3l-59.4-24.3l81.9,33.5L530.8,402.1z"/>
<path class="st0" d="M530.8,402.1l-81.7-33.3l-59.4-24.3l81.9,33.5L530.8,402.1z"/>
<path class="st0" d="M324.1,395.5l-59.4-24.1L206.6,97.9L266,122L324.1,395.5z"/>
<path class="st0" d="M324.1,395.5l-59.4-24.1L206.6,97.9L266,122L324.1,395.5z"/>
<path class="st1" d="M493.5,4.1h75.6c5,0,9,4,9,9v67.9c0,5,4,9,9,9h32.2"/>
<path class="st1" d="M493.5,1h-5.9v5.9h5.9V1z"/>
<path class="st1" d="M625.2,86.9h-5.9v5.9h5.9V86.9z"/>
<path class="st1" d="M396.9,436.3H220.2c-5,0-9-4-9-9v-67.9c0-5-4-9-9-9h-32"/>
<path class="st1" d="M397,439.3h5.9v-5.9H397V439.3z"/>
<path class="st1" d="M164.2,353.3h5.9v-5.9h-5.9V353.3z"/>
<path class="st1" d="M626.1,160H607c-5,0-9,4-9,9v67.9c0,5-4,9-9,9H486.2"/>
<path class="st1" d="M700,160H632"/>
<path class="st1" d="M706,156.9H700v5.9h5.9V156.9z"/>
<path class="st1" d="M687.1,212.2h-5.9v5.9h5.9V212.2z"/>
<path class="st1" d="M632,156.9h-5.9v5.9h5.9V156.9z"/>
<path class="st1" d="M629.1,162.9v43.4c0,5,4,9,9,9h43"/>
<path class="st1" d="M275.2,267.1h-75.6c-5,0-9-4-9-9v-67.9c0-5-4-9-9-9H6.9"/>
<path class="st1" d="M281.1,270v-5.9h-5.9v5.9H281.1z"/>
<path class="st1" d="M6.9,184.2v-5.9H1v5.9H6.9z"/>
<path class="st1" d="M48,162V156h-5.9v5.9H48z"/>
<path class="st1" d="M121.6,181.2v-13.3c0-5-4-9-9-9H48.1"/>
<path class="st1" d="M126.1,227.3v-5.9h-5.9v5.9H126.1z"/>
<path class="st1" d="M190.7,224.2h-64.6"/>
<path class="st1" d="M651.8,370.4h-75.6c-5,0-9,4-9,9v67.7c0,5-4,9-9,9H526"/>
<path class="st1" d="M651.9,373.4h5.9v-5.9h-5.9V373.4z"/>
<path class="st1" d="M520,459.2h5.9v-5.9H520V459.2z"/>
<path class="st1" d="M737.1,345h5.9v-5.9h-5.9V345z"/>
<path class="st1" d="M567.4,399.8H731c5,0,9-4,9-9v-45.9"/>
<path class="st1" d="M352,467.1h-5.9v5.9h5.9V467.1z"/>
<path class="st1" d="M267.1,436.3v24.8c0,5,4,9,9,9h70.2"/>
</svg>
