<svg width="253" height="225" viewBox="0 0 253 225" fill="none" xmlns="http://www.w3.org/2000/svg">
<path d="M143.583 179.298L157.612 192.139H157.593L157.693 192.239C157.335 192.251 156.968 192.263 156.6 192.288L156.588 192.289L156.46 192.301C155.419 192.395 154.447 192.484 153.432 192.484H97.8711H97.7327L97.614 192.555L47.4224 222.65L47.3856 222.672L47.3531 222.7C46.0081 223.86 44.3487 224.5 42.7047 224.5C41.7868 224.5 40.8678 224.317 39.9931 223.948C37.5199 222.894 35.9162 220.516 35.8657 217.812L36.8012 188.468L36.8129 188.101L36.4661 187.98C28.0262 185.036 19.0208 180.692 12.133 174.432C5.25575 168.182 0.5 160.034 0.5 149.442V75.3613C0.5 51.6002 19.7818 32.3192 43.4928 32.3192H45.4081C45.3714 32.4473 45.336 32.5755 45.301 32.7028C45.2905 32.741 45.2801 32.7791 45.2697 32.8171C45.1935 33.0952 45.1186 33.3688 45.0344 33.6424L45.0328 33.6477C43.3452 39.3557 42.4017 45.4126 42.4017 51.6693V114.815C42.4017 150.358 71.2921 179.298 106.885 179.298H143.583Z" stroke="#2C48FF"/>
<path d="M148.894 166.116L148.751 165.984H148.556H106.886C78.6429 165.984 55.7163 143.009 55.7163 114.815V51.6692C55.7163 23.4266 78.6916 0.5 106.886 0.5H200.521C228.764 0.5 251.69 23.4263 251.69 51.6692V114.766C251.69 135.74 239.057 153.789 220.959 161.692L220.663 161.821L220.659 162.144L220.363 185.737L220.363 185.737C220.267 193.766 215.46 200.976 208.105 204.149L208.097 204.153C205.557 205.303 202.821 205.832 200.077 205.832C195.075 205.832 190.125 204.004 186.33 200.498L186.328 200.497L148.894 166.116ZM199.69 185.865L200.514 186.622L200.528 185.503L200.725 169.594L201.015 146.195C218.106 145.93 231.904 131.969 231.904 114.815V51.6692C231.904 34.3506 217.839 20.2859 200.521 20.2859H106.886C89.5669 20.2859 75.5022 34.3506 75.5022 51.6692V114.815C75.5022 132.134 89.5669 146.198 106.886 146.198H156.488L199.69 185.865Z" stroke="#2C48FF"/>
<path d="M117.525 51.7751H189.881C192.219 51.7751 194.11 53.6234 194.11 56.0037C194.11 58.3381 192.216 60.2322 189.881 60.2322H117.525C115.19 60.2322 113.296 58.3381 113.296 56.0037C113.296 53.6693 115.19 51.7751 117.525 51.7751Z" stroke="#2C48FF"/>
<path d="M117.525 76.5016H189.881C192.216 76.5016 194.11 78.3957 194.11 80.7301C194.11 83.0645 192.216 84.9587 189.881 84.9587H117.525C115.19 84.9587 113.296 83.0645 113.296 80.7301C113.296 78.3957 115.19 76.5016 117.525 76.5016Z" stroke="#2C48FF"/>
<path d="M117.525 101.228H156.831C159.165 101.228 161.059 103.122 161.059 105.457C161.059 107.791 159.165 109.685 156.831 109.685H117.525C115.19 109.685 113.296 107.791 113.296 105.457C113.296 103.122 115.19 101.228 117.525 101.228Z" stroke="#2C48FF"/>
</svg>
