<svg width="294" height="309" viewBox="0 0 294 309" fill="none" xmlns="http://www.w3.org/2000/svg">
<path d="M286.6 235.263L286.594 235.26C284.728 234.327 282.614 233.804 280.655 233.935L280.641 233.936L280.628 233.936L269.613 234.074L269.607 234.074C268.976 234.074 268.355 233.917 267.749 233.617C266.909 233.274 266.429 232.6 266.011 231.903L265.999 231.883L265.989 231.862C264.495 228.738 262.593 225.886 260.284 223.305L260.277 223.297L260.277 223.297C259.308 222.167 259.169 220.579 259.787 219.189L259.789 219.184L264.333 209.27C267.247 202.913 264.605 195.627 258.368 192.439C252.134 189.391 244.714 191.645 241.266 197.744C241.266 197.745 241.265 197.745 241.265 197.746L235.897 207.381C235.126 208.768 233.71 209.585 232.246 209.426C228.861 209.156 225.328 209.425 221.917 209.971C221.102 210.131 220.313 209.961 219.578 209.667L219.559 209.66L219.54 209.65C218.903 209.332 218.429 208.857 218.112 208.385L211.783 199.441L211.78 199.437C210.592 197.721 209.006 196.398 207.148 195.469L207.142 195.466L207.142 195.466C203.045 193.351 198.142 193.742 194.29 196.265C188.456 200.112 186.735 207.662 190.314 213.627L195.957 222.986C196.736 224.237 196.757 225.969 195.939 227.116C194.983 228.482 194.043 229.961 193.376 231.563L193.366 231.587L193.353 231.61C192.544 233.094 191.867 234.718 191.323 236.348C190.842 237.793 189.56 238.735 188.007 238.89L177.131 239.992L177.128 239.992C170.24 240.655 165.203 246.615 165.601 253.51L165.601 253.51C165.866 258.157 168.519 262.259 172.617 264.241L172.623 264.244C174.488 265.177 176.603 265.7 178.562 265.569L178.575 265.568L178.589 265.568L189.604 265.431L189.61 265.43C190.241 265.431 190.861 265.587 191.468 265.887C192.307 266.231 192.788 266.905 193.205 267.601L193.218 267.621L193.228 267.642C194.722 270.767 196.623 273.618 198.932 276.199L198.939 276.207L198.939 276.207C199.908 277.338 200.047 278.925 199.43 280.315L199.427 280.321L194.884 290.234C191.969 296.593 194.613 303.881 200.852 307.067C207.078 310.246 214.495 307.865 217.81 301.766L217.812 301.761L223.182 292.123L223.188 292.112L223.195 292.102C223.946 290.9 225.344 289.917 226.833 290.079C230.218 290.349 233.75 290.079 237.162 289.534C237.977 289.373 238.766 289.543 239.501 289.837L239.52 289.845L239.539 289.854C240.176 290.173 240.65 290.647 240.966 291.119L247.296 300.064L247.299 300.068C248.487 301.784 250.072 303.107 251.931 304.036L251.936 304.039C256.034 306.154 260.936 305.763 264.788 303.24C270.623 299.393 272.344 291.843 268.765 285.877L263.124 276.522C263.124 276.521 263.123 276.52 263.122 276.518C262.342 275.268 262.322 273.536 263.14 272.389C264.082 271.042 264.895 269.553 265.717 267.91L265.721 267.902L265.725 267.894C266.535 266.41 267.212 264.786 267.755 263.156C268.237 261.712 269.519 260.769 271.071 260.614L286.6 235.263ZM286.6 235.263C290.695 237.245 293.345 241.48 293.477 245.98L293.478 245.995C293.876 252.89 288.839 258.85 281.951 259.512L281.948 259.512L271.071 260.614L286.6 235.263ZM236.316 263.951L236.324 263.951L236.331 263.95C237.995 263.799 239.537 262.887 240.313 261.335L245.403 251.156C246.191 249.728 246.008 247.887 245.114 246.397L245.108 246.387L245.101 246.377L238.767 236.876C237.853 235.505 236.174 234.575 234.459 234.727L223.038 235.415L223.03 235.416L223.023 235.417C221.359 235.568 219.817 236.48 219.041 238.032L213.947 248.221C213.175 249.763 213.331 251.606 214.253 252.99L220.587 262.49C221.501 263.862 223.18 264.792 224.896 264.639L236.316 263.951Z" stroke="#2C48FF"/>
<path d="M114.373 97.4473L114.386 97.4529L114.399 97.4578C122.126 100.256 126.125 108.785 123.597 116.377C121.199 123.165 114.409 127.028 107.615 126.095L107.615 126.095L107.609 126.094C106.505 125.956 105.607 125.825 104.715 125.443L104.715 125.442L104.704 125.438C104.011 125.161 103.359 124.899 102.71 124.51L102.694 124.5L102.677 124.491C102.163 124.234 101.776 123.978 101.369 123.706C100.149 122.757 99.0791 121.818 98.1479 120.754L98.1369 120.741L98.1251 120.73C97.7514 120.356 97.5005 119.982 97.2238 119.567L97.2161 119.555L97.2078 119.544C96.4207 118.494 95.7596 117.175 95.3623 115.856C95.2924 115.577 95.2227 115.333 95.1551 115.097L95.1544 115.094C95.0864 114.856 95.0206 114.626 94.955 114.364C94.6907 113.038 94.5599 111.59 94.6863 110.15C94.7551 109.866 94.7909 109.616 94.8233 109.389L94.8244 109.381C94.859 109.139 94.8903 108.922 94.9522 108.675L94.955 108.663L94.9574 108.652C94.9776 108.55 94.9976 108.448 95.0177 108.345C95.1394 107.721 95.2644 107.08 95.4821 106.536L95.4859 106.527L95.4893 106.517C97.886 99.7264 104.677 95.8619 111.472 96.7946L111.472 96.7946L111.478 96.7954C112.583 96.9334 113.481 97.0653 114.373 97.4473Z" stroke="#2C48FF"/>
<path d="M194.963 168.375L194.966 168.376C200.635 169.826 206.574 166.661 208.553 161.12L217.503 136.06C219.483 130.516 216.974 124.317 211.568 121.812L211.563 121.81L195.045 113.964C195.044 113.963 195.044 113.963 195.043 113.963C191.017 112.093 188.44 108.214 188.011 103.782L188.011 103.781C187.601 99.4067 186.78 95.166 185.685 91.0581C184.543 86.7762 185.536 82.1826 188.702 79.0139C188.703 79.0126 188.704 79.0112 188.706 79.0099L201.366 65.7995L201.367 65.7975C205.459 61.574 205.72 54.8429 201.897 50.3604L201.896 50.3598L184.685 30.1197L184.68 30.1137C182.853 27.8944 180.371 26.7063 177.731 26.3029H177.731H177.73H177.73H177.729H177.728H177.728H177.727H177.726H177.726H177.725H177.724H177.724H177.723H177.723H177.722H177.721H177.721H177.72H177.719H177.719H177.718H177.718H177.717H177.716H177.716H177.715H177.715H177.714H177.713H177.713H177.712H177.712H177.711H177.71H177.71H177.709H177.709H177.708H177.708H177.707H177.706H177.706H177.705H177.705H177.704H177.704H177.703H177.702H177.702H177.701H177.701H177.7H177.7H177.699H177.699H177.698H177.698H177.697H177.696H177.696H177.695H177.695H177.694H177.694H177.693H177.693H177.692H177.692H177.691H177.691H177.69H177.69H177.689H177.689H177.688H177.688H177.687H177.687H177.686H177.686H177.685H177.685H177.684H177.684H177.683H177.683H177.682H177.682H177.681H177.681H177.68H177.68H177.679H177.679H177.678H177.678H177.677H177.677H177.676H177.676H177.675H177.675H177.674H177.674H177.674H177.673H177.673H177.672H177.672H177.671H177.671H177.67H177.67H177.669H177.669H177.669H177.668H177.668H177.667H177.667H177.666H177.666H177.665H177.665H177.664H177.664H177.664H177.663H177.663H177.662H177.662H177.661H177.661H177.661H177.66H177.66H177.659H177.659H177.658H177.658H177.658H177.657H177.657H177.656H177.656H177.655H177.655H177.655H177.654H177.654H177.653H177.653H177.652H177.652H177.652H177.651H177.651H177.65H177.65H177.65H177.649H177.649H177.648H177.648H177.647H177.647H177.647H177.646H177.646H177.645H177.645H177.645H177.644H177.644H177.643H177.643H177.643H177.642H177.642H177.641H177.641H177.64H177.64H177.64H177.639H177.639H177.638H177.638H177.638H177.637H177.637H177.636H177.636H177.636H177.635H177.635H177.634H177.634H177.634H177.633H177.633H177.632H177.632H177.632H177.631H177.631H177.63H177.63H177.63H177.629H177.629H177.628H177.628H177.628H177.627H177.627H177.626H177.626H177.626H177.625H177.625H177.624H177.624H177.623H177.623H177.623H177.622H177.622H177.621H177.621H177.621H177.62H177.62H177.619H177.619H177.619H177.618H177.618H177.617H177.617H177.617H177.616H177.616H177.615H177.615H177.614H177.614H177.614H177.613H177.613H177.612H177.612H177.612H177.611H177.611H177.61H177.61H177.609H177.609H177.609H177.608H177.608H177.607H177.607H177.607H177.606H177.606H177.605H177.605H177.604H177.604H177.604H177.603H177.603H177.602H177.602H177.601H177.601H177.6H177.6H177.6H177.599H177.599H177.598H177.598H177.597H177.597H177.596H177.596H177.596H177.595H177.595H177.594H177.594H177.593H177.593H177.592H177.592H177.592H177.591H177.591H177.59H177.59H177.589H177.589H177.588H177.588H177.587H177.587H177.586H177.586H177.585H177.585H177.585H177.584H177.584H177.583H177.583H177.582H177.582H177.581H177.581H177.58H177.58H177.579H177.579H177.578H177.578H177.577H177.577H177.576H177.576H177.575H177.575H177.574H177.574H177.573H177.573H177.572H177.572H177.571H177.571H177.57H177.57H177.569H177.569H177.568H177.567H177.567H177.566H177.566H177.565H177.565H177.564H177.564H177.563H177.563H177.562H177.562H177.561H177.56H177.56H177.559H177.559H177.558H177.558H177.557H177.557H177.556H177.555H177.555H177.554H177.554H177.553H177.553H177.552H177.551H177.551H177.55H177.55H177.549H177.548H177.548H177.547H177.547H177.546H177.545H177.545H177.544H177.544H177.543H177.542H177.542H177.541H177.54H177.54H177.539H177.539H177.538H177.537H177.537H177.536H177.535H177.535H177.534H177.533H177.533H177.532H177.531H177.531H177.53H177.529H177.529H177.528H177.527H177.527H177.526H177.525H177.525H177.524H177.523H177.523H177.522H177.521H177.521H177.52H177.519H177.518H177.518H177.517H177.516H177.516H177.515H177.514H177.513H177.513H177.512H177.511H177.51H177.51H177.509H177.508H177.507H177.507H177.506H177.505H177.504H177.504H177.503H177.502H177.501H177.501H177.5H177.499H177.498H177.497H177.497H177.496H177.495H177.494H177.493H177.458L177.423 26.2978C174.66 25.9031 171.898 26.5593 169.525 28.2735L169.518 28.2787L169.51 28.2836L154.509 38.3302C150.92 40.9106 146.193 41.3356 142.186 39.6182L142.179 39.615L142.172 39.6117C140.123 38.6556 138.075 37.8367 136.029 37.1546C133.969 36.4679 131.777 35.7829 129.725 35.2357C125.417 34.0869 122.122 30.6457 120.974 26.4914C120.973 26.4898 120.973 26.4882 120.972 26.4866L115.743 8.87187L115.741 8.86399L115.741 8.86397C114.158 3.1921 108.485 -0.369952 102.682 0.684681C102.681 0.684742 102.681 0.684802 102.681 0.684863L76.5211 5.50373L76.52 5.50394C70.7133 6.5597 66.6252 11.837 67.1528 17.7727L67.153 17.7758L68.6676 36.0882L68.6683 36.0973C68.9549 40.5402 66.9467 44.6975 63.367 47.2749C59.945 49.7387 56.5236 52.6129 53.5149 55.6216C50.3655 58.771 45.9213 60.0632 41.6196 59.0595L41.6128 59.0579L41.6128 59.0579L23.8511 54.6519L23.8502 54.6516C18.0381 53.1986 12.1005 56.3702 10.1228 61.9076L1.17311 86.9668C-0.806874 92.5107 1.70216 98.7099 7.10842 101.215L7.11273 101.217L23.6313 109.064C23.6319 109.064 23.6324 109.064 23.633 109.064C27.6595 110.935 30.2363 114.813 30.6651 119.245L30.6653 119.246C31.0753 123.62 31.8958 127.861 32.9913 131.969C34.1331 136.251 33.1399 140.845 29.9741 144.013C29.9728 144.015 29.9715 144.016 29.9702 144.017L17.3104 157.228L17.3085 157.23C13.217 161.453 12.9557 168.184 16.7791 172.667L16.7796 172.667L33.9905 192.907L33.9957 192.913C35.8233 195.133 38.3049 196.321 40.9447 196.724H40.9451H40.9457H40.9464H40.947H40.9477H40.9483H40.949H40.9496H40.9503H40.9509H40.9515H40.9522H40.9528H40.9534H40.9541H40.9547H40.9553H40.9559H40.9566H40.9572H40.9578H40.9584H40.959H40.9596H40.9602H40.9608H40.9614H40.962H40.9626H40.9632H40.9638H40.9644H40.965H40.9655H40.9661H40.9667H40.9673H40.9679H40.9684H40.969H40.9696H40.9701H40.9707H40.9713H40.9718H40.9724H40.973H40.9735H40.9741H40.9746H40.9752H40.9757H40.9763H40.9768H40.9774H40.9779H40.9784H40.979H40.9795H40.98H40.9806H40.9811H40.9816H40.9822H40.9827H40.9832H40.9837H40.9842H40.9848H40.9853H40.9858H40.9863H40.9868H40.9873H40.9878H40.9883H40.9888H40.9894H40.9899H40.9904H40.9909H40.9914H40.9918H40.9923H40.9928H40.9933H40.9938H40.9943H40.9948H40.9953H40.9958H40.9962H40.9967H40.9972H40.9977H40.9982H40.9986H40.9991H40.9996H41.0001H41.0005H41.001H41.0015H41.0019H41.0024H41.0029H41.0033H41.0038H41.0042H41.0047H41.0052H41.0056H41.0061H41.0065H41.007H41.0074H41.0079H41.0083H41.0088H41.0092H41.0097H41.0101H41.0106H41.011H41.0115H41.0119H41.0123H41.0128H41.0132H41.0137H41.0141H41.0145H41.015H41.0154H41.0158H41.0163H41.0167H41.0171H41.0176H41.018H41.0184H41.0189H41.0193H41.0197H41.0201H41.0206H41.021H41.0214H41.0218H41.0223H41.0227H41.0231H41.0235H41.0239H41.0244H41.0248H41.0252H41.0256H41.026H41.0264H41.0269H41.0273H41.0277H41.0281H41.0285H41.0289H41.0293H41.0298H41.0302H41.0306H41.031H41.0314H41.0318H41.0322H41.0326H41.033H41.0334H41.0339H41.0343H41.0347H41.0351H41.0355H41.0359H41.0363H41.0367H41.0371H41.0375H41.0379H41.0383H41.0387H41.0391H41.0395H41.0399H41.0403H41.0407H41.0412H41.0416H41.042H41.0424H41.0428H41.0432H41.0436H41.044H41.0444H41.0448H41.0452H41.0456H41.046H41.0464H41.0468H41.0472H41.0476H41.048H41.0484H41.0488H41.0492H41.0496H41.05H41.0504H41.0508H41.0512H41.0517H41.0521H41.0525H41.0529H41.0533H41.0537H41.0541H41.0545H41.0549H41.0553H41.0557H41.0561H41.0565H41.0569H41.0574H41.0578H41.0582H41.0586H41.059H41.0594H41.0598H41.0602H41.0606H41.0611H41.0615H41.0619H41.0623H41.0627H41.0631H41.0635H41.064H41.0644H41.0648H41.0652H41.0656H41.066H41.0665H41.0669H41.0673H41.0677H41.0682H41.0686H41.069H41.0694H41.0699H41.0703H41.0707H41.0711H41.0716H41.072H41.0724H41.0729H41.0733H41.0737H41.0742H41.0746H41.075H41.0755H41.0759H41.0763H41.0768H41.0772H41.0777H41.0781H41.0785H41.079H41.0794H41.0799H41.0803H41.0808H41.0812H41.0817H41.0821H41.0826H41.083H41.0835H41.084H41.0844H41.0849H41.0853H41.0858H41.0862H41.0867H41.0872H41.0876H41.0881H41.0886H41.089H41.0895H41.09H41.0905H41.0909H41.0914H41.0919H41.0924H41.0928H41.0933H41.0938H41.0943H41.0948H41.0953H41.0958H41.0962H41.0967H41.0972H41.0977H41.0982H41.0987H41.0992H41.0997H41.1002H41.1007H41.1012H41.1017H41.1022H41.1027H41.1033H41.1038H41.1043H41.1048H41.1053H41.1058H41.1064H41.1069H41.1074H41.1079H41.1085H41.109H41.1095H41.1101H41.1106H41.1111H41.1117H41.1122H41.1128H41.1133H41.1138H41.1144H41.1149H41.1155H41.1161H41.1166H41.1172H41.1177H41.1183H41.1189H41.1194H41.12H41.1206H41.1211H41.1217H41.1223H41.1229H41.1234H41.124H41.1246H41.1252H41.1258H41.1264H41.127H41.1276H41.1282H41.1288H41.1294H41.13H41.1306H41.1312H41.1318H41.1324H41.133H41.1336H41.1343H41.1349H41.1355H41.1361H41.1368H41.1374H41.138H41.1387H41.1393H41.1399H41.1406H41.1412H41.1419H41.1425H41.1432H41.1438H41.1445H41.1452H41.1458H41.1465H41.1472H41.1478H41.1485H41.1492H41.1498H41.1505H41.1512H41.1519H41.1526H41.1533H41.154H41.1547H41.1554H41.1561H41.1568H41.1575H41.1582H41.1589H41.1596H41.1604H41.1611H41.1618H41.1625H41.1633H41.164H41.1647H41.1655H41.1662H41.167H41.1677H41.1684H41.1692H41.17H41.1707H41.1715H41.1722H41.173H41.1738H41.1746H41.1753H41.1761H41.1769H41.1777H41.1785H41.1793H41.1801H41.1809H41.1817H41.1825H41.218L41.2532 196.729C44.0162 197.124 46.7774 196.468 49.151 194.754L49.1585 194.748L64.0219 184.427C64.0232 184.426 64.0244 184.425 64.0257 184.424C67.6153 181.841 72.3436 181.416 76.3521 183.134L76.3594 183.137L76.3666 183.14C78.4154 184.096 80.4629 184.915 82.5093 185.597L82.5232 185.602L82.5368 185.607C84.3558 186.335 86.2848 186.846 88.1609 187.343C88.3793 187.401 88.5969 187.458 88.8136 187.516C93.1227 188.665 96.4181 192.108 97.5652 196.263C97.5654 196.264 97.5656 196.265 97.5657 196.265L102.522 213.748L102.522 213.75C104.105 219.422 109.778 222.984 115.581 221.929L194.963 168.375ZM194.963 168.375L177.209 163.971C177.208 163.971 177.207 163.971 177.205 163.97C172.883 162.819 168.461 164.271 164.807 166.942L164.775 166.965L164.748 166.992C161.734 170.006 158.453 172.877 154.903 175.334L154.896 175.339C151.316 177.917 149.308 182.074 149.595 186.517L149.595 186.526L151.11 204.838L151.11 204.841C151.638 210.777 147.55 216.054 141.743 217.11L141.742 217.11L115.582 221.929L194.963 168.375ZM122.588 74.3494L122.585 74.3484C102.088 67.0978 79.4948 77.6935 72.2416 98.1976C64.9911 118.694 75.5867 141.288 96.0909 148.541C116.587 155.791 139.18 145.197 146.434 124.693C153.825 104.328 143.083 81.7389 122.588 74.3494Z" stroke="#2C48FF"/>
<path d="M123.326 116.507L123.325 116.511C120.928 123.301 114.138 127.165 107.343 126.233C106.421 126.101 105.356 125.837 104.407 125.566C104.093 125.439 103.775 125.28 103.435 125.111L103.426 125.106C103.103 124.944 102.76 124.773 102.413 124.631C102.202 124.494 101.967 124.359 101.747 124.234L101.739 124.229C101.494 124.089 101.269 123.96 101.08 123.834C99.8823 123.036 98.8263 122.111 97.9031 120.927C97.7525 120.704 97.5708 120.486 97.4085 120.291L97.3999 120.281C97.2239 120.07 97.07 119.884 96.9499 119.704C96.1589 118.518 95.6255 117.326 95.0829 115.972C95.0149 115.702 94.947 115.464 94.8812 115.234L94.8805 115.232C94.8124 114.993 94.7467 114.763 94.6811 114.502C94.4145 113.164 94.2837 111.703 94.4157 110.251L94.4178 110.228V110.206C94.4178 109.818 94.4939 109.525 94.6027 109.107C94.6265 109.015 94.6518 108.918 94.6782 108.812L94.6811 108.801L94.6835 108.789C94.7037 108.688 94.7237 108.585 94.7437 108.483C94.8655 107.859 94.9904 107.218 95.2082 106.674L95.212 106.664L95.2154 106.654C97.6119 99.8644 104.402 96 111.197 96.932C112.124 97.0645 113.195 97.3311 114.148 97.603C122.133 100.271 126.121 108.786 123.326 116.507Z" stroke="#2C48FF"/>
</svg>
