<svg width="294" height="309" viewBox="0 0 294 309" fill="none" xmlns="http://www.w3.org/2000/svg">
<mask id="path-1-inside-1" fill="white">
<path fill-rule="evenodd" clip-rule="evenodd" d="M285.935 236.577C284.252 235.736 282.398 235.295 280.753 235.404L280.7 235.408L269.607 235.547C268.741 235.547 267.913 235.334 267.141 234.959C265.86 234.416 265.183 233.386 264.748 232.661L264.7 232.581L264.66 232.497C263.226 229.499 261.402 226.764 259.186 224.287L259.172 224.271L259.159 224.256C257.769 222.634 257.626 220.424 258.441 218.59L258.45 218.569L262.994 208.656C265.567 203.041 263.256 196.599 257.709 193.757C252.175 191.058 245.612 193.055 242.55 198.465L242.548 198.47L237.185 208.096C236.172 209.918 234.236 211.113 232.11 210.892C228.889 210.637 225.496 210.891 222.173 211.421C220.987 211.647 219.904 211.384 219.031 211.035L218.955 211.004L218.881 210.967C217.991 210.522 217.336 209.868 216.9 209.221L210.568 200.275C209.532 198.778 208.143 197.613 206.489 196.786L206.467 196.774C202.872 194.919 198.537 195.245 195.1 197.496C189.923 200.909 188.406 207.582 191.576 212.867L197.213 222.216C198.261 223.906 198.34 226.279 197.142 227.965C196.208 229.3 195.342 230.675 194.736 232.129L194.696 232.225L194.647 232.315C193.886 233.709 193.242 235.25 192.721 236.813C192.038 238.863 190.225 240.148 188.156 240.356M188.154 240.356L182.712 240.907L177.269 241.458C171.179 242.044 166.719 247.309 167.071 253.424C167.308 257.562 169.665 261.176 173.258 262.915L173.281 262.926C174.965 263.767 176.818 264.209 178.464 264.099L178.517 264.095L189.61 263.957C190.476 263.957 191.303 264.169 192.076 264.544C193.356 265.087 194.034 266.117 194.469 266.842L194.517 266.922L194.557 267.006C195.991 270.004 197.814 272.74 200.03 275.216L200.044 275.232L200.058 275.248C201.447 276.869 201.591 279.079 200.776 280.913L200.767 280.934L196.223 290.848C193.647 296.467 195.965 302.917 201.522 305.754C207.025 308.564 213.575 306.472 216.515 301.062L216.525 301.044L221.919 291.362L221.946 291.32C222.882 289.822 224.746 288.381 226.969 288.611C230.189 288.866 233.583 288.612 236.906 288.082C238.092 287.856 239.175 288.119 240.048 288.469L240.124 288.499L240.198 288.536C241.088 288.981 241.742 289.636 242.179 290.282L248.51 299.229C249.547 300.726 250.935 301.891 252.59 302.718L252.612 302.729C256.207 304.584 260.543 304.258 263.98 302.007C269.155 298.594 270.672 291.922 267.503 286.637L267.502 286.635L261.866 277.287C260.818 275.597 260.738 273.224 261.937 271.538C262.816 270.281 263.591 268.868 264.4 267.251L264.415 267.219L264.432 267.188C265.192 265.794 265.837 264.253 266.358 262.69C267.041 260.64 268.854 259.355 270.924 259.148L281.81 258.045C287.899 257.46 292.36 252.195 292.007 246.079L292.006 246.051L292.005 246.023C291.888 242.054 289.544 238.324 285.958 236.589L285.935 236.577M271.121 261.111C269.744 261.249 268.643 262.075 268.23 263.314C267.679 264.966 266.99 266.618 266.164 268.133C265.338 269.785 264.512 271.3 263.548 272.677C262.86 273.641 262.86 275.155 263.548 276.257L269.193 285.619C272.911 291.815 271.121 299.664 265.063 303.656C261.07 306.273 255.975 306.686 251.707 304.483C249.779 303.519 248.127 302.142 246.888 300.352L240.554 291.402C240.279 290.989 239.866 290.576 239.315 290.301C238.627 290.025 237.938 289.888 237.25 290.025C233.808 290.576 230.228 290.852 226.786 290.576C225.546 290.438 224.307 291.265 223.619 292.366L218.249 302.004C214.807 308.338 207.096 310.816 200.625 307.512C194.154 304.207 191.4 296.634 194.429 290.025L198.973 280.112C199.523 278.873 199.386 277.496 198.56 276.532C196.219 273.916 194.291 271.024 192.777 267.858C192.364 267.169 191.951 266.618 191.262 266.343C190.711 266.068 190.161 265.93 189.61 265.93L178.595 266.068C176.53 266.205 174.327 265.655 172.399 264.691C168.131 262.626 165.377 258.357 165.101 253.538C164.688 246.378 169.921 240.182 177.08 239.494L187.958 238.392C189.335 238.255 190.436 237.429 190.849 236.189C191.4 234.537 192.088 232.885 192.914 231.37C193.603 229.718 194.567 228.204 195.53 226.827C196.219 225.863 196.219 224.348 195.53 223.247L189.885 213.884C186.168 207.688 187.958 199.84 194.016 195.847C198.009 193.231 203.103 192.818 207.372 195.021C209.299 195.985 210.952 197.361 212.191 199.151L218.524 208.101C218.8 208.514 219.213 208.927 219.764 209.203C220.452 209.478 221.14 209.616 221.829 209.478C225.271 208.927 228.851 208.652 232.293 208.927C233.532 209.065 234.772 208.377 235.46 207.137L240.83 197.499C244.41 191.166 252.12 188.825 258.592 191.992C265.063 195.296 267.817 202.869 264.787 209.478L260.244 219.392C259.693 220.631 259.831 222.008 260.657 222.971C262.998 225.587 264.925 228.479 266.44 231.646C266.853 232.334 267.266 232.885 267.954 233.16C268.505 233.436 269.056 233.573 269.607 233.573L280.622 233.436C282.687 233.298 284.89 233.849 286.818 234.813C291.086 236.878 293.84 241.284 293.977 245.965C294.39 253.125 289.158 259.321 281.998 260.009L271.121 261.111ZM236.435 265.419L225.004 266.108C222.698 266.304 220.535 265.067 219.361 263.307L213.027 253.807C211.821 251.997 211.614 249.592 212.629 247.561L217.723 237.372C218.757 235.305 220.788 234.14 222.889 233.949L222.919 233.946L234.351 233.258C236.656 233.062 238.82 234.298 239.993 236.059L246.353 245.598L246.377 245.639C247.472 247.463 247.786 249.857 246.708 251.839L241.631 261.993C240.597 264.061 238.566 265.226 236.465 265.417L236.435 265.419ZM234.496 235.226L223.068 235.914C221.553 236.052 220.177 236.878 219.488 238.255L214.394 248.444C213.705 249.821 213.843 251.473 214.669 252.712L221.003 262.212C221.829 263.452 223.343 264.278 224.858 264.14L236.286 263.452C237.801 263.314 239.178 262.488 239.866 261.111L244.96 250.922C245.649 249.683 245.511 248.031 244.685 246.654L238.351 237.153C237.525 235.914 236.011 235.088 234.496 235.226Z"/>
</mask>
<path fill-rule="evenodd" clip-rule="evenodd" d="M285.935 236.577C284.252 235.736 282.398 235.295 280.753 235.404L280.7 235.408L269.607 235.547C268.741 235.547 267.913 235.334 267.141 234.959C265.86 234.416 265.183 233.386 264.748 232.661L264.7 232.581L264.66 232.497C263.226 229.499 261.402 226.764 259.186 224.287L259.172 224.271L259.159 224.256C257.769 222.634 257.626 220.424 258.441 218.59L258.45 218.569L262.994 208.656C265.567 203.041 263.256 196.599 257.709 193.757C252.175 191.058 245.612 193.055 242.55 198.465L242.548 198.47L237.185 208.096C236.172 209.918 234.236 211.113 232.11 210.892C228.889 210.637 225.496 210.891 222.173 211.421C220.987 211.647 219.904 211.384 219.031 211.035L218.955 211.004L218.881 210.967C217.991 210.522 217.336 209.868 216.9 209.221L210.568 200.275C209.532 198.778 208.143 197.613 206.489 196.786L206.467 196.774C202.872 194.919 198.537 195.245 195.1 197.496C189.923 200.909 188.406 207.582 191.576 212.867L197.213 222.216C198.261 223.906 198.34 226.279 197.142 227.965C196.208 229.3 195.342 230.675 194.736 232.129L194.696 232.225L194.647 232.315C193.886 233.709 193.242 235.25 192.721 236.813C192.038 238.863 190.225 240.148 188.156 240.356M188.154 240.356L182.712 240.907L177.269 241.458C171.179 242.044 166.719 247.309 167.071 253.424C167.308 257.562 169.665 261.176 173.258 262.915L173.281 262.926C174.965 263.767 176.818 264.209 178.464 264.099L178.517 264.095L189.61 263.957C190.476 263.957 191.303 264.169 192.076 264.544C193.356 265.087 194.034 266.117 194.469 266.842L194.517 266.922L194.557 267.006C195.991 270.004 197.814 272.74 200.03 275.216L200.044 275.232L200.058 275.248C201.447 276.869 201.591 279.079 200.776 280.913L200.767 280.934L196.223 290.848C193.647 296.467 195.965 302.917 201.522 305.754C207.025 308.564 213.575 306.472 216.515 301.062L216.525 301.044L221.919 291.362L221.946 291.32C222.882 289.822 224.746 288.381 226.969 288.611C230.189 288.866 233.583 288.612 236.906 288.082C238.092 287.856 239.175 288.119 240.048 288.469L240.124 288.499L240.198 288.536C241.088 288.981 241.742 289.636 242.179 290.282L248.51 299.229C249.547 300.726 250.935 301.891 252.59 302.718L252.612 302.729C256.207 304.584 260.543 304.258 263.98 302.007C269.155 298.594 270.672 291.922 267.503 286.637L267.502 286.635L261.866 277.287C260.818 275.597 260.738 273.224 261.937 271.538C262.816 270.281 263.591 268.868 264.4 267.251L264.415 267.219L264.432 267.188C265.192 265.794 265.837 264.253 266.358 262.69C267.041 260.64 268.854 259.355 270.924 259.148L281.81 258.045C287.899 257.46 292.36 252.195 292.007 246.079L292.006 246.051L292.005 246.023C291.888 242.054 289.544 238.324 285.958 236.589L285.935 236.577M271.121 261.111C269.744 261.249 268.643 262.075 268.23 263.314C267.679 264.966 266.99 266.618 266.164 268.133C265.338 269.785 264.512 271.3 263.548 272.677C262.86 273.641 262.86 275.155 263.548 276.257L269.193 285.619C272.911 291.815 271.121 299.664 265.063 303.656C261.07 306.273 255.975 306.686 251.707 304.483C249.779 303.519 248.127 302.142 246.888 300.352L240.554 291.402C240.279 290.989 239.866 290.576 239.315 290.301C238.627 290.025 237.938 289.888 237.25 290.025C233.808 290.576 230.228 290.852 226.786 290.576C225.546 290.438 224.307 291.265 223.619 292.366L218.249 302.004C214.807 308.338 207.096 310.816 200.625 307.512C194.154 304.207 191.4 296.634 194.429 290.025L198.973 280.112C199.523 278.873 199.386 277.496 198.56 276.532C196.219 273.916 194.291 271.024 192.777 267.858C192.364 267.169 191.951 266.618 191.262 266.343C190.711 266.068 190.161 265.93 189.61 265.93L178.595 266.068C176.53 266.205 174.327 265.655 172.399 264.691C168.131 262.626 165.377 258.357 165.101 253.538C164.688 246.378 169.921 240.182 177.08 239.494L187.958 238.392C189.335 238.255 190.436 237.429 190.849 236.189C191.4 234.537 192.088 232.885 192.914 231.37C193.603 229.718 194.567 228.204 195.53 226.827C196.219 225.863 196.219 224.348 195.53 223.247L189.885 213.884C186.168 207.688 187.958 199.84 194.016 195.847C198.009 193.231 203.103 192.818 207.372 195.021C209.299 195.985 210.952 197.361 212.191 199.151L218.524 208.101C218.8 208.514 219.213 208.927 219.764 209.203C220.452 209.478 221.14 209.616 221.829 209.478C225.271 208.927 228.851 208.652 232.293 208.927C233.532 209.065 234.772 208.377 235.46 207.137L240.83 197.499C244.41 191.166 252.12 188.825 258.592 191.992C265.063 195.296 267.817 202.869 264.787 209.478L260.244 219.392C259.693 220.631 259.831 222.008 260.657 222.971C262.998 225.587 264.925 228.479 266.44 231.646C266.853 232.334 267.266 232.885 267.954 233.16C268.505 233.436 269.056 233.573 269.607 233.573L280.622 233.436C282.687 233.298 284.89 233.849 286.818 234.813C291.086 236.878 293.84 241.284 293.977 245.965C294.39 253.125 289.158 259.321 281.998 260.009L271.121 261.111ZM236.435 265.419L225.004 266.108C222.698 266.304 220.535 265.067 219.361 263.307L213.027 253.807C211.821 251.997 211.614 249.592 212.629 247.561L217.723 237.372C218.757 235.305 220.788 234.14 222.889 233.949L222.919 233.946L234.351 233.258C236.656 233.062 238.82 234.298 239.993 236.059L246.353 245.598L246.377 245.639C247.472 247.463 247.786 249.857 246.708 251.839L241.631 261.993C240.597 264.061 238.566 265.226 236.465 265.417L236.435 265.419ZM234.496 235.226L223.068 235.914C221.553 236.052 220.177 236.878 219.488 238.255L214.394 248.444C213.705 249.821 213.843 251.473 214.669 252.712L221.003 262.212C221.829 263.452 223.343 264.278 224.858 264.14L236.286 263.452C237.801 263.314 239.178 262.488 239.866 261.111L244.96 250.922C245.649 249.683 245.511 248.031 244.685 246.654L238.351 237.153C237.525 235.914 236.011 235.088 234.496 235.226Z" fill="#2C48FF"/>
<path d="M188.106 239.858L182.661 240.409L182.762 241.404L188.207 240.853L188.106 239.858ZM285.935 236.577L285.488 237.472L285.494 237.475L285.935 236.577ZM280.753 235.404L280.686 234.407L280.686 234.407L280.753 235.404ZM280.7 235.408L280.712 236.408L280.739 236.408L280.766 236.406L280.7 235.408ZM269.607 235.547V236.547L269.619 236.547L269.607 235.547ZM267.141 234.959L267.577 234.059L267.554 234.048L267.531 234.038L267.141 234.959ZM264.748 232.661L265.605 232.146L265.605 232.146L264.748 232.661ZM264.7 232.581L263.798 233.013L263.818 233.055L263.842 233.096L264.7 232.581ZM264.66 232.497L263.758 232.929L263.758 232.929L264.66 232.497ZM259.186 224.287L258.441 224.954L258.441 224.954L259.186 224.287ZM259.172 224.271L258.413 224.922L258.42 224.93L258.427 224.938L259.172 224.271ZM259.159 224.256L258.399 224.906L258.4 224.906L259.159 224.256ZM258.441 218.59L257.527 218.184L257.527 218.184L258.441 218.59ZM258.45 218.569L257.541 218.153L257.536 218.163L258.45 218.569ZM262.994 208.656L263.903 209.073L263.903 209.073L262.994 208.656ZM257.709 193.757L258.165 192.867L258.156 192.862L258.148 192.858L257.709 193.757ZM242.55 198.465L241.68 197.972L241.68 197.973L242.55 198.465ZM242.548 198.47L241.677 197.978L241.674 197.983L242.548 198.47ZM237.185 208.096L236.311 207.609L236.311 207.61L237.185 208.096ZM232.11 210.892L232.213 209.897L232.201 209.896L232.189 209.895L232.11 210.892ZM222.173 211.421L222.016 210.434L222.001 210.436L221.986 210.439L222.173 211.421ZM219.031 211.035L219.402 210.106L219.402 210.106L219.031 211.035ZM218.955 211.004L218.507 211.899L218.545 211.917L218.583 211.933L218.955 211.004ZM218.881 210.967L219.328 210.073L219.328 210.073L218.881 210.967ZM216.9 209.221L217.729 208.662L217.722 208.653L217.716 208.644L216.9 209.221ZM210.568 200.275L209.746 200.844L209.752 200.852L210.568 200.275ZM206.467 196.774L206.008 197.663L206.019 197.669L206.467 196.774ZM195.1 197.496L194.552 196.659L194.549 196.661L195.1 197.496ZM191.576 212.867L190.719 213.382L190.72 213.384L191.576 212.867ZM197.213 222.216L196.357 222.732L196.363 222.743L197.213 222.216ZM197.142 227.965L196.327 227.385L196.323 227.391L197.142 227.965ZM194.736 232.129L195.659 232.514L195.659 232.514L194.736 232.129ZM194.696 232.225L195.574 232.703L195.599 232.658L195.619 232.609L194.696 232.225ZM194.647 232.315L195.525 232.794L195.525 232.794L194.647 232.315ZM192.721 236.813L191.772 236.497L191.772 236.497L192.721 236.813ZM177.269 241.458L177.365 242.453L177.37 242.453L177.269 241.458ZM167.071 253.424L168.07 253.367L168.07 253.367L167.071 253.424ZM173.258 262.915L173.694 262.015L173.694 262.015L173.258 262.915ZM173.281 262.926L173.729 262.031L173.717 262.026L173.281 262.926ZM178.464 264.099L178.53 265.097L178.53 265.097L178.464 264.099ZM178.517 264.095L178.504 263.095L178.477 263.096L178.45 263.098L178.517 264.095ZM189.61 263.957V262.957L189.597 262.957L189.61 263.957ZM192.076 264.544L191.639 265.444L191.662 265.455L191.685 265.465L192.076 264.544ZM194.469 266.842L193.611 267.357L193.611 267.357L194.469 266.842ZM194.517 266.922L195.419 266.491L195.398 266.448L195.374 266.408L194.517 266.922ZM194.557 267.006L193.655 267.438L193.655 267.438L194.557 267.006ZM200.03 275.216L200.775 274.55L200.775 274.55L200.03 275.216ZM200.044 275.232L200.803 274.581L200.796 274.573L200.789 274.565L200.044 275.232ZM200.058 275.248L200.817 274.597L200.817 274.597L200.058 275.248ZM200.776 280.913L201.69 281.319L201.69 281.319L200.776 280.913ZM200.767 280.934L201.676 281.351L201.68 281.34L200.767 280.934ZM196.223 290.848L195.314 290.431L195.314 290.431L196.223 290.848ZM201.522 305.754L201.067 306.645L201.067 306.645L201.522 305.754ZM216.515 301.062L217.394 301.54L217.394 301.54L216.515 301.062ZM216.525 301.044L215.652 300.557L215.647 300.566L216.525 301.044ZM221.919 291.362L221.071 290.832L221.058 290.854L221.046 290.876L221.919 291.362ZM221.946 291.32L222.794 291.85L222.794 291.85L221.946 291.32ZM226.969 288.611L226.866 289.606L226.878 289.607L226.89 289.608L226.969 288.611ZM236.906 288.082L237.063 289.07L237.078 289.067L237.093 289.065L236.906 288.082ZM240.048 288.469L239.677 289.397L239.677 289.397L240.048 288.469ZM240.124 288.499L240.571 287.605L240.534 287.586L240.496 287.571L240.124 288.499ZM240.198 288.536L239.75 289.43L239.75 289.43L240.198 288.536ZM242.179 290.282L241.35 290.842L241.357 290.851L241.363 290.86L242.179 290.282ZM248.51 299.229L249.333 298.66L249.327 298.651L248.51 299.229ZM252.612 302.729L253.071 301.84L253.059 301.835L252.612 302.729ZM263.98 302.007L264.528 302.844L264.53 302.842L263.98 302.007ZM267.503 286.637L266.645 287.151L266.645 287.151L267.503 286.637ZM267.502 286.635L268.359 286.12L268.358 286.118L267.502 286.635ZM261.866 277.287L262.722 276.771L262.716 276.76L261.866 277.287ZM261.937 271.538L262.752 272.118L262.756 272.112L261.937 271.538ZM264.4 267.251L263.505 266.803L263.505 266.803L264.4 267.251ZM264.415 267.219L263.537 266.74L263.529 266.756L263.521 266.772L264.415 267.219ZM264.432 267.188L263.554 266.709L263.554 266.709L264.432 267.188ZM266.358 262.69L267.306 263.006L267.306 263.006L266.358 262.69ZM270.924 259.148L271.024 260.143L271.025 260.143L270.924 259.148ZM281.81 258.045L281.714 257.05L281.709 257.05L281.81 258.045ZM292.007 246.079L293.006 246.021L293.006 246.021L292.007 246.079ZM292.006 246.051L291.006 246.08L291.007 246.095L291.007 246.109L292.006 246.051ZM292.005 246.023L293.005 245.994L293.005 245.994L292.005 246.023ZM285.958 236.589L285.517 237.486L285.523 237.489L285.958 236.589ZM268.23 263.314L267.281 262.998L267.281 262.998L268.23 263.314ZM271.121 261.111L271.221 262.106L271.222 262.106L271.121 261.111ZM266.164 268.133L265.286 267.654L265.278 267.67L265.27 267.686L266.164 268.133ZM263.548 272.677L264.362 273.258L264.368 273.25L263.548 272.677ZM263.548 276.257L264.405 275.74L264.401 275.733L264.396 275.727L263.548 276.257ZM269.193 285.619L270.051 285.105L270.05 285.103L269.193 285.619ZM265.063 303.656L265.611 304.493L265.613 304.491L265.063 303.656ZM251.707 304.483L252.166 303.594L252.154 303.588L251.707 304.483ZM246.888 300.352L247.71 299.783L247.704 299.774L246.888 300.352ZM240.554 291.402L239.722 291.957L239.73 291.969L239.738 291.98L240.554 291.402ZM239.315 290.301L239.762 289.406L239.725 289.388L239.687 289.372L239.315 290.301ZM237.25 290.025L237.408 291.013L237.427 291.01L237.446 291.006L237.25 290.025ZM226.786 290.576L226.675 291.57L226.691 291.572L226.706 291.573L226.786 290.576ZM223.619 292.366L222.771 291.836L222.757 291.857L222.745 291.879L223.619 292.366ZM218.249 302.004L217.375 301.518L217.37 301.527L218.249 302.004ZM200.625 307.512L201.08 306.621L201.08 306.621L200.625 307.512ZM194.429 290.025L195.338 290.442L195.338 290.442L194.429 290.025ZM198.973 280.112L199.882 280.529L199.886 280.518L198.973 280.112ZM198.56 276.532L199.319 275.881L199.312 275.873L199.305 275.865L198.56 276.532ZM192.777 267.858L193.679 267.426L193.658 267.384L193.634 267.343L192.777 267.858ZM191.262 266.343L190.815 267.238L190.852 267.256L190.891 267.272L191.262 266.343ZM189.61 265.93V264.93L189.597 264.93L189.61 265.93ZM178.595 266.068L178.582 265.068L178.555 265.068L178.528 265.07L178.595 266.068ZM172.399 264.691L172.846 263.796L172.834 263.791L172.399 264.691ZM165.101 253.538L166.1 253.481L166.1 253.481L165.101 253.538ZM177.08 239.494L177.176 240.489L177.181 240.489L177.08 239.494ZM187.958 238.392L187.858 237.397L187.857 237.398L187.958 238.392ZM190.849 236.189L191.798 236.506L191.798 236.506L190.849 236.189ZM192.914 231.37L193.792 231.849L193.817 231.803L193.837 231.755L192.914 231.37ZM195.53 226.827L194.717 226.245L194.711 226.253L195.53 226.827ZM195.53 223.247L194.674 223.763L194.678 223.77L194.682 223.777L195.53 223.247ZM189.885 213.884L189.028 214.399L189.029 214.4L189.885 213.884ZM194.016 195.847L193.468 195.01L193.466 195.012L194.016 195.847ZM207.372 195.021L206.913 195.909L206.924 195.915L207.372 195.021ZM212.191 199.151L211.368 199.721L211.374 199.729L212.191 199.151ZM218.524 208.101L219.356 207.546L219.349 207.535L219.341 207.523L218.524 208.101ZM219.764 209.203L219.316 210.097L219.354 210.116L219.392 210.131L219.764 209.203ZM221.829 209.478L221.671 208.491L221.652 208.494L221.633 208.497L221.829 209.478ZM232.293 208.927L232.404 207.933L232.388 207.932L232.373 207.93L232.293 208.927ZM235.46 207.137L234.586 206.651L234.586 206.652L235.46 207.137ZM240.83 197.499L239.959 197.007L239.956 197.012L240.83 197.499ZM258.592 191.992L259.046 191.101L259.039 191.097L259.031 191.093L258.592 191.992ZM264.787 209.478L263.878 209.061L263.878 209.061L264.787 209.478ZM260.244 219.392L259.335 218.975L259.33 218.985L260.244 219.392ZM260.657 222.971L259.898 223.622L259.905 223.63L259.912 223.638L260.657 222.971ZM266.44 231.646L265.538 232.077L265.558 232.12L265.582 232.16L266.44 231.646ZM267.954 233.16L268.402 232.266L268.364 232.247L268.326 232.232L267.954 233.16ZM269.607 233.573V234.573L269.619 234.573L269.607 233.573ZM280.622 233.436L280.634 234.436L280.661 234.435L280.688 234.433L280.622 233.436ZM286.818 234.813L286.37 235.707L286.382 235.713L286.818 234.813ZM293.977 245.965L292.978 245.995L292.978 246.009L292.979 246.023L293.977 245.965ZM281.998 260.009L281.903 259.014L281.898 259.015L281.998 260.009ZM236.435 265.419L236.495 266.418L236.51 266.417L236.525 266.415L236.435 265.419ZM225.004 266.108L224.943 265.11L224.931 265.111L224.919 265.112L225.004 266.108ZM219.361 263.307L220.193 262.752L220.193 262.752L219.361 263.307ZM213.027 253.807L212.195 254.361L212.195 254.361L213.027 253.807ZM212.629 247.561L213.523 248.008L213.523 248.008L212.629 247.561ZM217.723 237.372L218.618 237.82L218.618 237.82L217.723 237.372ZM222.889 233.949L222.799 232.953L222.799 232.953L222.889 233.949ZM222.919 233.946L222.859 232.948L222.844 232.949L222.829 232.95L222.919 233.946ZM234.351 233.258L234.411 234.256L234.423 234.255L234.435 234.254L234.351 233.258ZM239.993 236.059L240.825 235.504L240.825 235.504L239.993 236.059ZM246.353 245.598L247.21 245.084L247.198 245.063L247.185 245.044L246.353 245.598ZM246.377 245.639L247.234 245.124L247.234 245.124L246.377 245.639ZM246.708 251.839L245.83 251.361L245.822 251.376L245.814 251.391L246.708 251.839ZM241.631 261.993L242.525 262.441L242.525 262.441L241.631 261.993ZM236.465 265.417L236.374 264.421L236.374 264.421L236.465 265.417ZM223.068 235.914L223.008 234.916L222.993 234.917L222.978 234.918L223.068 235.914ZM234.496 235.226L234.556 236.224L234.571 236.223L234.587 236.222L234.496 235.226ZM219.488 238.255L218.594 237.808L218.594 237.808L219.488 238.255ZM214.394 248.444L215.288 248.891L215.288 248.891L214.394 248.444ZM214.669 252.712L213.837 253.267L213.837 253.267L214.669 252.712ZM221.003 262.212L221.835 261.658L221.835 261.658L221.003 262.212ZM224.858 264.14L224.798 263.142L224.783 263.143L224.767 263.144L224.858 264.14ZM236.286 263.452L236.346 264.45L236.361 264.449L236.377 264.448L236.286 263.452ZM239.866 261.111L240.76 261.558L240.76 261.558L239.866 261.111ZM244.96 250.922L244.086 250.436L244.076 250.455L244.066 250.475L244.96 250.922ZM244.685 246.654L245.543 246.139L245.53 246.119L245.517 246.099L244.685 246.654ZM238.351 237.153L237.519 237.708L237.519 237.708L238.351 237.153ZM280.819 236.402C282.252 236.307 283.929 236.692 285.488 237.472L286.382 235.683C284.575 234.779 282.544 234.283 280.686 234.407L280.819 236.402ZM280.766 236.406L280.819 236.402L280.686 234.407L280.633 234.41L280.766 236.406ZM266.704 235.859C267.597 236.292 268.573 236.547 269.607 236.547V234.547C268.908 234.547 268.229 234.376 267.577 234.059L266.704 235.859ZM263.89 233.175C264.342 233.928 265.157 235.204 266.75 235.88L267.531 234.038C266.563 233.628 266.024 232.844 265.605 232.146L263.89 233.175ZM263.842 233.096L263.89 233.175L265.605 232.146L265.557 232.067L263.842 233.096ZM263.758 232.929L263.798 233.013L265.602 232.15L265.562 232.066L263.758 232.929ZM258.441 224.954C260.594 227.36 262.365 230.016 263.758 232.929L265.562 232.066C264.087 228.982 262.211 226.168 259.932 223.62L258.441 224.954ZM258.427 224.938L258.441 224.954L259.932 223.62L259.918 223.605L258.427 224.938ZM258.4 224.906L258.413 224.922L259.932 223.621L259.918 223.605L258.4 224.906ZM257.527 218.184C256.579 220.317 256.723 222.95 258.399 224.906L259.918 223.605C258.816 222.319 258.672 220.531 259.354 218.996L257.527 218.184ZM257.536 218.163L257.527 218.184L259.354 218.996L259.364 218.976L257.536 218.163ZM262.085 208.239L257.541 218.153L259.359 218.986L263.903 209.073L262.085 208.239ZM257.253 194.647C262.337 197.251 264.429 203.125 262.085 208.239L263.903 209.073C266.705 202.958 264.175 195.946 258.165 192.867L257.253 194.647ZM243.421 198.957C246.22 194.01 252.209 192.187 257.271 194.655L258.148 192.858C252.141 189.929 245.003 192.099 241.68 197.972L243.421 198.957ZM243.418 198.962L243.421 198.957L241.68 197.973L241.677 197.978L243.418 198.962ZM238.058 208.582L243.421 198.957L241.674 197.983L236.311 207.609L238.058 208.582ZM232.006 211.887C234.588 212.155 236.882 210.7 238.059 208.581L236.311 207.61C235.463 209.136 233.883 210.071 232.213 209.897L232.006 211.887ZM222.33 212.409C225.602 211.887 228.913 211.642 232.031 211.889L232.189 209.895C228.866 209.632 225.389 209.896 222.016 210.434L222.33 212.409ZM218.659 211.963C219.63 212.351 220.917 212.678 222.36 212.404L221.986 210.439C221.057 210.616 220.178 210.416 219.402 210.106L218.659 211.963ZM218.583 211.933L218.659 211.963L219.402 210.106L219.326 210.076L218.583 211.933ZM218.434 211.862L218.507 211.899L219.402 210.11L219.328 210.073L218.434 211.862ZM216.071 209.781C216.589 210.548 217.368 211.329 218.434 211.862L219.328 210.073C218.614 209.716 218.084 209.188 217.729 208.662L216.071 209.781ZM206.042 197.68C207.557 198.438 208.813 199.496 209.746 200.844L211.391 199.705C210.251 198.06 208.729 196.788 206.936 195.891L206.042 197.68ZM206.019 197.669L206.042 197.68L206.936 195.891L206.914 195.88L206.019 197.669ZM195.648 198.332C198.802 196.266 202.754 195.984 206.008 197.663L206.925 195.886C202.99 193.855 198.271 194.224 194.552 196.659L195.648 198.332ZM192.434 212.353C189.54 207.529 190.919 201.45 195.65 198.331L194.549 196.661C188.927 200.368 187.272 207.636 190.719 213.382L192.434 212.353ZM198.069 221.7L192.433 212.351L190.72 213.384L196.357 222.732L198.069 221.7ZM197.958 228.544C199.418 226.489 199.295 223.676 198.063 221.689L196.363 222.743C197.227 224.136 197.263 226.069 196.327 227.385L197.958 228.544ZM195.659 232.514C196.223 231.159 197.042 229.853 197.962 228.538L196.323 227.391C195.375 228.747 194.46 230.191 193.813 231.745L195.659 232.514ZM195.619 232.609L195.659 232.514L193.813 231.745L193.773 231.84L195.619 232.609ZM195.525 232.794L195.574 232.703L193.818 231.746L193.769 231.836L195.525 232.794ZM193.67 237.13C194.176 235.612 194.798 234.127 195.525 232.794L193.769 231.836C192.975 233.291 192.308 234.889 191.772 236.497L193.67 237.13ZM188.256 241.351C190.674 241.108 192.849 239.593 193.67 237.13L191.772 236.497C191.227 238.134 189.776 239.188 188.057 239.361L188.256 241.351ZM168.07 253.367C167.747 247.781 171.817 242.987 177.365 242.453L177.173 240.463C170.542 241.1 165.69 246.837 166.073 253.482L168.07 253.367ZM173.694 262.015C170.442 260.441 168.286 257.16 168.07 253.367L166.073 253.482C166.329 257.965 168.887 261.911 172.823 263.815L173.694 262.015ZM173.717 262.026L173.694 262.015L172.823 263.815L172.846 263.826L173.717 262.026ZM178.397 263.101C176.964 263.197 175.288 262.811 173.729 262.031L172.834 263.82C174.641 264.724 176.672 265.221 178.53 265.097L178.397 263.101ZM178.45 263.098L178.397 263.101L178.53 265.097L178.583 265.093L178.45 263.098ZM192.512 263.645C191.62 263.211 190.644 262.957 189.61 262.957V264.957C190.308 264.957 190.987 265.127 191.639 265.444L192.512 263.645ZM195.326 266.328C194.875 265.576 194.059 264.299 192.466 263.624L191.685 265.465C192.654 265.875 193.192 266.659 193.611 267.357L195.326 266.328ZM195.374 266.408L195.326 266.328L193.611 267.357L193.659 267.437L195.374 266.408ZM195.459 266.575L195.419 266.491L193.614 267.354L193.655 267.438L195.459 266.575ZM200.775 274.55C198.622 272.143 196.852 269.488 195.459 266.575L193.655 267.438C195.129 270.521 197.006 273.336 199.285 275.883L200.775 274.55ZM200.789 274.565L200.775 274.55L199.285 275.883L199.299 275.899L200.789 274.565ZM200.817 274.597L200.803 274.581L199.285 275.883L199.299 275.899L200.817 274.597ZM201.69 281.319C202.638 279.186 202.494 276.553 200.817 274.597L199.298 275.899C200.401 277.185 200.544 278.972 199.862 280.507L201.69 281.319ZM201.68 281.34L201.69 281.319L199.862 280.507L199.853 280.528L201.68 281.34ZM197.132 291.264L201.676 281.351L199.857 280.517L195.314 290.431L197.132 291.264ZM201.977 304.864C196.883 302.263 194.786 296.383 197.132 291.264L195.314 290.431C192.508 296.551 195.046 303.57 201.067 306.645L201.977 304.864ZM215.637 300.585C212.952 305.525 206.989 307.423 201.977 304.864L201.067 306.645C207.06 309.705 214.199 307.418 217.394 301.54L215.637 300.585ZM215.647 300.566L215.637 300.585L217.394 301.54L217.404 301.521L215.647 300.566ZM221.098 290.79L221.071 290.832L222.767 291.892L222.794 291.85L221.098 290.79ZM227.072 287.617C224.342 287.334 222.158 289.094 221.098 290.79L222.794 291.85C223.606 290.551 225.15 289.429 226.866 289.606L227.072 287.617ZM236.749 287.095C233.477 287.616 230.166 287.861 227.048 287.614L226.89 289.608C230.213 289.871 233.69 289.608 237.063 289.07L236.749 287.095ZM240.419 287.54C239.449 287.152 238.162 286.825 236.719 287.1L237.093 289.065C238.022 288.888 238.901 289.087 239.677 289.397L240.419 287.54ZM240.496 287.571L240.419 287.54L239.677 289.397L239.753 289.428L240.496 287.571ZM240.645 287.642L240.571 287.605L239.677 289.394L239.75 289.43L240.645 287.642ZM243.008 289.723C242.49 288.955 241.711 288.175 240.645 287.642L239.75 289.43C240.465 289.788 240.995 290.316 241.35 290.842L243.008 289.723ZM253.037 301.823C251.521 301.066 250.266 300.008 249.333 298.66L247.688 299.798C248.827 301.443 250.35 302.716 252.142 303.612L253.037 301.823ZM253.059 301.835L253.037 301.823L252.142 303.612L252.165 303.624L253.059 301.835ZM263.432 301.171C260.277 303.237 256.325 303.52 253.071 301.84L252.154 303.618C256.089 305.649 260.809 305.279 264.528 302.844L263.432 301.171ZM266.645 287.151C269.538 291.975 268.159 298.053 263.429 301.172L264.53 302.842C270.152 299.135 271.806 291.868 268.361 286.123L266.645 287.151ZM266.644 287.149L266.645 287.151L268.361 286.123L268.359 286.12L266.644 287.149ZM261.009 277.804L266.645 287.151L268.358 286.118L262.722 276.771L261.009 277.804ZM261.121 270.959C259.661 273.014 259.784 275.827 261.016 277.814L262.716 276.76C261.852 275.367 261.816 273.434 262.752 272.118L261.121 270.959ZM263.505 266.803C262.704 268.405 261.955 269.767 261.117 270.965L262.756 272.112C263.677 270.794 264.477 269.332 265.294 267.698L263.505 266.803ZM263.521 266.772L263.505 266.803L265.294 267.698L265.31 267.666L263.521 266.772ZM263.554 266.709L263.537 266.74L265.293 267.698L265.31 267.667L263.554 266.709ZM265.409 262.374C264.903 263.891 264.281 265.377 263.554 266.709L265.31 267.667C266.104 266.212 266.77 264.614 267.306 263.006L265.409 262.374ZM270.824 258.153C268.406 258.395 266.23 259.91 265.409 262.374L267.306 263.006C267.852 261.369 269.303 260.315 271.024 260.143L270.824 258.153ZM291.009 246.137C291.331 251.723 287.262 256.516 281.714 257.05L281.905 259.041C288.537 258.403 293.389 252.667 293.006 246.021L291.009 246.137ZM291.007 246.109L291.009 246.137L293.006 246.021L293.004 245.993L291.007 246.109ZM291.005 246.052L291.006 246.08L293.005 246.022L293.005 245.994L291.005 246.052ZM285.523 237.489C288.762 239.056 290.899 242.445 291.005 246.053L293.005 245.994C292.877 241.664 290.325 237.591 286.394 235.689L285.523 237.489ZM285.494 237.475L285.517 237.486L286.399 235.691L286.376 235.68L285.494 237.475ZM269.178 263.63C269.454 262.802 270.195 262.209 271.221 262.106L271.022 260.116C269.294 260.289 267.831 261.347 267.281 262.998L269.178 263.63ZM267.042 268.612C267.902 267.036 268.613 265.328 269.178 263.63L267.281 262.998C266.745 264.605 266.079 266.201 265.286 267.654L267.042 268.612ZM264.368 273.25C265.373 271.814 266.225 270.248 267.059 268.58L265.27 267.686C264.452 269.322 263.651 270.786 262.729 272.103L264.368 273.25ZM264.396 275.727C263.896 274.925 263.937 273.853 264.362 273.258L262.735 272.095C261.783 273.428 261.824 275.385 262.7 276.787L264.396 275.727ZM270.05 285.103L264.405 275.74L262.692 276.773L268.337 286.136L270.05 285.103ZM265.613 304.491C272.117 300.205 274.045 291.762 270.051 285.105L268.336 286.134C271.777 291.869 270.125 299.122 264.513 302.822L265.613 304.491ZM251.248 305.371C255.858 307.75 261.336 307.294 265.611 304.493L264.515 302.82C260.803 305.252 256.093 305.621 252.166 303.594L251.248 305.371ZM246.066 300.921C247.408 302.86 249.194 304.344 251.26 305.377L252.154 303.588C250.365 302.694 248.847 301.424 247.71 299.783L246.066 300.921ZM239.738 291.98L246.072 300.93L247.704 299.774L241.371 290.825L239.738 291.98ZM238.868 291.195C239.241 291.382 239.529 291.666 239.722 291.957L241.386 290.848C241.029 290.312 240.491 289.771 239.762 289.406L238.868 291.195ZM237.446 291.006C237.874 290.92 238.354 290.993 238.944 291.229L239.687 289.372C238.899 289.057 238.003 288.855 237.054 289.045L237.446 291.006ZM226.706 291.573C230.251 291.857 233.915 291.572 237.408 291.013L237.092 289.038C233.701 289.581 230.204 289.846 226.865 289.579L226.706 291.573ZM224.467 292.896C225.027 291.999 225.942 291.489 226.675 291.57L226.896 289.582C225.151 289.388 223.587 290.53 222.771 291.836L224.467 292.896ZM219.123 302.491L224.492 292.853L222.745 291.879L217.375 301.518L219.123 302.491ZM200.17 308.402C207.133 311.958 215.431 309.284 219.128 302.482L217.37 301.527C214.183 307.392 207.06 309.675 201.08 306.621L200.17 308.402ZM193.52 289.609C190.261 296.719 193.236 304.861 200.17 308.402L201.08 306.621C195.071 303.553 192.539 296.55 195.338 290.442L193.52 289.609ZM198.064 279.695L193.52 289.609L195.338 290.442L199.882 280.529L198.064 279.695ZM197.8 277.183C198.341 277.813 198.476 278.768 198.059 279.706L199.886 280.518C200.571 278.977 200.431 277.178 199.319 275.881L197.8 277.183ZM191.875 268.289C193.43 271.541 195.41 274.512 197.814 277.199L199.305 275.865C197.027 273.32 195.153 270.508 193.679 267.426L191.875 268.289ZM190.891 267.272C191.252 267.416 191.522 267.71 191.919 268.372L193.634 267.343C193.205 266.628 192.649 265.821 191.634 265.415L190.891 267.272ZM189.61 266.93C189.988 266.93 190.386 267.023 190.815 267.238L191.709 265.449C191.036 265.112 190.333 264.93 189.61 264.93V266.93ZM178.607 267.068L189.622 266.93L189.597 264.93L178.582 265.068L178.607 267.068ZM171.952 265.585C174.003 266.611 176.383 267.217 178.661 267.065L178.528 265.07C176.676 265.193 174.65 264.698 172.846 263.796L171.952 265.585ZM164.103 253.595C164.398 258.759 167.353 263.36 171.963 265.591L172.834 263.791C168.908 261.891 166.355 257.955 166.1 253.481L164.103 253.595ZM176.985 238.499C169.283 239.239 163.66 245.907 164.103 253.596L166.1 253.481C165.717 246.85 170.558 241.126 177.176 240.489L176.985 238.499ZM187.857 237.398L176.98 238.499L177.181 240.489L188.058 239.387L187.857 237.398ZM189.9 235.873C189.624 236.701 188.884 237.295 187.858 237.397L188.057 239.388C189.785 239.215 191.248 238.156 191.798 236.506L189.9 235.873ZM192.037 230.892C191.177 232.467 190.466 234.176 189.9 235.873L191.798 236.506C192.333 234.899 193 233.303 193.792 231.849L192.037 230.892ZM194.711 226.253C193.733 227.65 192.721 229.234 191.991 230.986L193.837 231.755C194.485 230.202 195.4 228.757 196.35 227.4L194.711 226.253ZM194.682 223.777C195.183 224.578 195.142 225.65 194.717 226.245L196.344 227.408C197.296 226.075 197.255 224.119 196.378 222.717L194.682 223.777ZM189.029 214.4L194.674 223.763L196.387 222.73L190.742 213.368L189.029 214.4ZM193.466 195.012C186.962 199.299 185.034 207.741 189.028 214.399L190.743 213.37C187.302 207.635 188.954 200.381 194.566 196.682L193.466 195.012ZM207.83 194.132C203.221 191.753 197.742 192.21 193.468 195.01L194.564 196.683C198.275 194.252 202.986 193.882 206.913 195.909L207.83 194.132ZM213.013 198.582C211.671 196.644 209.885 195.16 207.819 194.126L206.924 195.915C208.713 196.81 210.232 198.079 211.369 199.721L213.013 198.582ZM219.341 207.523L213.007 198.574L211.374 199.729L217.708 208.679L219.341 207.523ZM220.211 208.308C219.838 208.122 219.55 207.837 219.356 207.546L217.692 208.656C218.049 209.191 218.588 209.733 219.316 210.097L220.211 208.308ZM221.633 208.497C221.205 208.583 220.724 208.51 220.135 208.274L219.392 210.131C220.18 210.446 221.076 210.648 222.025 210.459L221.633 208.497ZM232.373 207.93C228.828 207.647 225.164 207.932 221.671 208.491L221.987 210.465C225.378 209.923 228.874 209.657 232.213 209.924L232.373 207.93ZM234.586 206.652C234.064 207.59 233.187 208.02 232.404 207.933L232.183 209.921C233.878 210.11 235.479 209.163 236.334 207.623L234.586 206.652ZM239.956 197.012L234.586 206.651L236.334 207.624L241.703 197.986L239.956 197.012ZM259.031 191.093C252.087 187.695 243.801 190.21 239.959 197.007L241.7 197.991C245.018 192.121 252.153 189.954 258.152 192.89L259.031 191.093ZM265.697 209.895C268.955 202.784 265.981 194.642 259.046 191.101L258.137 192.882C264.145 195.95 266.678 202.954 263.878 209.061L265.697 209.895ZM261.153 219.808L265.697 209.895L263.878 209.061L259.335 218.975L261.153 219.808ZM261.416 222.321C260.876 221.69 260.741 220.735 261.158 219.798L259.33 218.985C258.645 220.526 258.786 222.325 259.898 223.622L261.416 222.321ZM267.342 231.214C265.786 227.962 263.806 224.991 261.402 222.305L259.912 223.638C262.189 226.184 264.064 228.996 265.538 232.077L267.342 231.214ZM268.326 232.232C267.964 232.087 267.695 231.793 267.297 231.131L265.582 232.16C266.011 232.875 266.568 233.683 267.583 234.089L268.326 232.232ZM269.607 232.573C269.229 232.573 268.83 232.48 268.402 232.266L267.507 234.055C268.18 234.391 268.883 234.573 269.607 234.573V232.573ZM280.609 232.436L269.594 232.573L269.619 234.573L280.634 234.436L280.609 232.436ZM287.265 233.918C285.213 232.892 282.833 232.286 280.555 232.438L280.688 234.433C282.541 234.31 284.567 234.805 286.37 235.707L287.265 233.918ZM294.977 245.936C294.829 240.894 291.867 236.145 287.253 233.912L286.382 235.713C290.304 237.611 292.851 241.674 292.978 245.995L294.977 245.936ZM282.094 261.005C289.796 260.264 295.419 253.597 294.976 245.908L292.979 246.023C293.361 252.653 288.52 258.378 281.903 259.014L282.094 261.005ZM271.222 262.106L282.099 261.004L281.898 259.015L271.02 260.116L271.222 262.106ZM218.529 263.862C219.88 265.888 222.377 267.335 225.088 267.104L224.919 265.112C223.019 265.273 221.189 264.247 220.193 262.752L218.529 263.862ZM212.195 254.361L218.529 263.862L220.193 262.752L213.859 253.252L212.195 254.361ZM211.734 247.114C210.553 249.476 210.797 252.263 212.195 254.361L213.859 253.252C212.846 251.731 212.674 249.707 213.523 248.008L211.734 247.114ZM216.829 236.925L211.734 247.114L213.523 248.008L218.618 237.82L216.829 236.925ZM222.799 232.953C220.401 233.171 218.038 234.506 216.829 236.925L218.618 237.82C219.476 236.103 221.174 235.109 222.98 234.945L222.799 232.953ZM222.829 232.95L222.799 232.953L222.98 234.945L223.01 234.942L222.829 232.95ZM240.825 235.504C239.474 233.478 236.977 232.031 234.266 232.261L234.435 234.254C236.335 234.093 238.165 235.119 239.161 236.613L240.825 235.504ZM247.234 245.124L247.21 245.084L245.495 246.113L245.52 246.153L247.234 245.124ZM247.587 252.316C248.872 249.954 248.467 247.178 247.234 245.124L245.52 246.153C246.477 247.748 246.701 249.759 245.83 251.361L247.587 252.316ZM242.525 262.441L247.603 252.286L245.814 251.391L240.736 261.546L242.525 262.441ZM236.555 266.413C238.953 266.195 241.316 264.86 242.525 262.441L240.736 261.546C239.878 263.262 238.18 264.257 236.374 264.421L236.555 266.413ZM236.525 266.415L236.555 266.413L236.374 264.421L236.344 264.424L236.525 266.415ZM223.128 236.912L234.556 236.224L234.436 234.227L223.008 234.916L223.128 236.912ZM220.383 238.702C220.896 237.675 221.941 237.021 223.159 236.91L222.978 234.918C221.165 235.083 219.457 236.081 218.594 237.808L220.383 238.702ZM215.288 248.891L220.383 238.702L218.594 237.808L213.499 247.996L215.288 248.891ZM215.501 252.157C214.868 251.207 214.765 249.937 215.288 248.891L213.499 247.996C212.645 249.705 212.818 251.739 213.837 253.267L215.501 252.157ZM221.835 261.658L215.501 252.157L213.837 253.267L220.171 262.767L221.835 261.658ZM224.767 263.144C223.66 263.245 222.482 262.629 221.835 261.658L220.171 262.767C221.176 264.275 223.027 265.311 224.949 265.136L224.767 263.144ZM236.226 262.453L224.798 263.142L224.918 265.138L236.346 264.45L236.226 262.453ZM238.972 260.664C238.458 261.691 237.413 262.345 236.196 262.456L236.377 264.448C238.189 264.283 239.897 263.285 240.76 261.558L238.972 260.664ZM244.066 250.475L238.972 260.664L240.76 261.558L245.855 251.369L244.066 250.475ZM243.828 247.168C244.514 248.312 244.563 249.578 244.086 250.436L245.835 251.408C246.734 249.788 246.509 247.749 245.543 246.139L243.828 247.168ZM237.519 237.708L243.853 247.208L245.517 246.099L239.183 236.599L237.519 237.708ZM234.587 236.222C235.694 236.121 236.872 236.737 237.519 237.708L239.183 236.599C238.178 235.091 236.327 234.055 234.406 234.23L234.587 236.222ZM269.619 236.547L280.712 236.408L280.687 234.408L269.594 234.547L269.619 236.547ZM209.752 200.852L216.084 209.799L217.716 208.644L211.385 199.697L209.752 200.852ZM189.597 262.957L178.504 263.095L178.529 265.095L189.622 264.957L189.597 262.957ZM221.046 290.876L215.652 300.557L217.399 301.531L222.793 291.849L221.046 290.876ZM249.327 298.651L242.995 289.705L241.363 290.86L247.694 299.806L249.327 298.651ZM281.709 257.05L270.823 258.153L271.025 260.143L281.91 259.04L281.709 257.05ZM225.064 267.106L236.495 266.418L236.375 264.421L224.943 265.11L225.064 267.106ZM234.291 232.259L222.859 232.948L222.979 234.944L234.411 234.256L234.291 232.259ZM247.185 245.044L240.825 235.504L239.161 236.613L245.521 246.153L247.185 245.044ZM177.37 242.453L182.812 241.902L182.611 239.912L177.168 240.463L177.37 242.453ZM182.812 241.902L188.255 241.351L188.053 239.361L182.611 239.912L182.812 241.902Z" fill="#2C48FF" mask="url(#path-1-inside-1)"/>
<path d="M96.4075 106.841L96.3974 106.87L96.3861 106.898C96.2065 107.347 96.1032 107.873 95.9846 108.476L95.9775 108.512C95.9565 108.619 95.9349 108.729 95.9121 108.843L95.9052 108.877L95.8967 108.911C95.8486 109.104 95.8231 109.276 95.7882 109.52L95.7882 109.52L95.7852 109.541L95.7852 109.541C95.7569 109.739 95.7214 109.987 95.658 110.271L95.6503 110.305L95.6476 110.341C95.547 111.622 95.6635 112.924 95.9026 114.138L95.9052 114.151L95.9086 114.164C95.9668 114.393 96.0257 114.6 96.0906 114.827C96.0906 114.827 96.0906 114.827 96.0906 114.827L96.0933 114.837L96.0933 114.837C96.1574 115.061 96.2274 115.306 96.2981 115.585L96.301 115.597L96.3045 115.608C96.6713 116.812 97.2774 118.015 97.9868 118.96L98.0113 118.993L98.034 119.027C98.3124 119.445 98.5161 119.744 98.8138 120.042L98.8484 120.077L98.8807 120.113C99.7453 121.102 100.749 121.988 101.924 122.905L101.939 122.917L101.955 122.927C102.341 123.185 102.674 123.402 103.112 123.621L103.163 123.646L103.211 123.676C103.784 124.019 104.366 124.255 105.066 124.535L105.083 124.542L105.099 124.549C105.85 124.87 106.622 124.991 107.731 125.129L107.74 125.13L107.748 125.132C114.097 126.003 120.432 122.395 122.675 116.067L122.675 116.067L122.679 116.057C125.033 108.963 121.29 100.988 114.068 98.3733L114.029 98.3589L113.99 98.3422C113.239 98.0205 112.466 97.9 111.358 97.7615L111.349 97.7604L111.341 97.7592C104.986 96.8871 98.6449 100.502 96.4075 106.841ZM107.616 126.096L107.616 126.096L107.61 126.095C106.506 125.957 105.607 125.825 104.716 125.443L104.716 125.443L104.704 125.438C104.012 125.161 103.36 124.899 102.711 124.51L102.694 124.5L102.677 124.492C102.163 124.235 101.777 123.978 101.369 123.707C100.149 122.757 99.0796 121.819 98.1484 120.754L98.1374 120.742L98.1256 120.73C97.7519 120.356 97.501 119.982 97.2243 119.567L97.2244 119.567L97.2203 119.561L97.2203 119.561L97.2145 119.553L97.2083 119.544C96.4211 118.495 95.7601 117.176 95.3628 115.856C95.2929 115.578 95.2232 115.333 95.1556 115.097L95.1549 115.094C95.0869 114.856 95.0211 114.626 94.9555 114.365C94.6912 113.038 94.5604 111.591 94.6868 110.151C94.7556 109.867 94.7913 109.617 94.8238 109.389L94.8249 109.382C94.8595 109.14 94.8908 108.922 94.9526 108.675L94.9555 108.664L94.9579 108.652C94.9774 108.554 94.9969 108.454 95.0164 108.354L95.0166 108.353C95.1393 107.722 95.2665 107.077 95.4826 106.537L95.4864 106.527L95.4898 106.517C97.8865 99.7269 104.678 95.8624 111.473 96.7951L111.473 96.7951L111.479 96.7959C112.583 96.9339 113.482 97.0657 114.373 97.4477L114.386 97.4534L114.4 97.4583C122.127 100.256 126.126 108.785 123.598 116.378C121.2 123.165 114.41 127.028 107.616 126.096Z" fill="#2C48FF" stroke="#2C48FF"/>
<mask id="path-4-inside-2" fill="white">
<path fill-rule="evenodd" clip-rule="evenodd" d="M151.608 204.797L150.094 186.485C149.818 182.216 151.746 178.223 155.188 175.745C158.768 173.267 162.072 170.375 165.102 167.346C168.681 164.73 172.95 163.353 177.08 164.455L194.842 168.861C200.763 170.375 206.959 167.071 209.024 161.288L217.974 136.229C220.039 130.446 217.423 123.974 211.778 121.358L195.255 113.51C191.4 111.72 188.922 108.003 188.508 103.734C188.095 99.3282 187.269 95.0599 186.168 90.9292C185.066 86.7986 186.03 82.3926 189.059 79.3634L201.726 66.1454C205.995 61.7394 206.27 54.7173 202.277 50.0359L185.066 29.7958C183.139 27.4551 180.523 26.2159 177.769 25.8029H177.493C174.602 25.3898 171.711 26.0782 169.232 27.8682L154.224 37.9194C150.782 40.3978 146.238 40.8108 142.383 39.1586C140.318 38.1948 138.252 37.3687 136.187 36.6802C134.122 35.9918 131.919 35.3033 129.853 34.7526C125.723 33.6511 122.556 30.3466 121.454 26.3536L116.222 8.72957C114.57 2.809 108.65 -0.908575 102.591 0.192928L76.4305 5.012C70.3723 6.11351 66.104 11.621 66.6547 17.817L68.1693 36.1295C68.4447 40.3978 66.517 44.3907 63.0748 46.8691C59.6326 49.3475 56.1904 52.2389 53.1613 55.2681C50.1322 58.2972 45.8638 59.5364 41.7332 58.5726L23.9715 54.1666C17.9132 52.652 11.7173 55.9565 9.65195 61.7394L0.702236 86.7986C-1.36308 92.5815 1.25299 99.0528 6.89819 101.669L23.4207 109.517C27.276 111.307 29.7544 115.025 30.1674 119.293C30.5805 123.699 31.4066 127.967 32.5081 132.098C33.6096 136.229 32.6458 140.635 29.6167 143.664L16.9494 156.882C12.6811 161.288 12.4057 168.31 16.3986 172.991L33.6096 193.231C35.5373 195.572 38.1533 196.811 40.9071 197.224H41.1825C44.0739 197.637 46.9654 196.949 49.4437 195.159L64.314 184.832C67.7562 182.354 72.2999 181.941 76.1552 183.593C78.2205 184.557 80.2858 185.383 82.3511 186.072C84.2001 186.811 86.1594 187.33 88.0315 187.826C88.2505 187.884 88.4684 187.941 88.6848 187.999C92.8154 189.101 95.9822 192.405 97.0837 196.398L102.04 213.884C103.693 219.805 109.613 223.523 115.672 222.421L141.832 217.602C147.891 216.501 152.159 210.993 151.608 204.797ZM115.319 220.48L141.479 215.661C146.545 214.74 150.102 210.141 149.643 204.972L149.642 204.96L148.126 186.629L148.124 186.612C147.805 181.654 150.05 177.013 154.035 174.144L154.05 174.133L154.065 174.123C157.524 171.728 160.738 168.919 163.706 165.951L163.814 165.843L163.937 165.753C167.813 162.921 172.684 161.247 177.571 162.543L195.331 166.949C200.259 168.21 205.441 165.453 207.166 160.624L216.115 135.565C217.844 130.725 215.65 125.328 210.948 123.149L210.931 123.141L194.424 115.3C194.422 115.299 194.419 115.297 194.417 115.296C189.886 113.19 187.02 108.835 186.544 103.924L186.544 103.918C186.143 99.638 185.339 95.4788 184.261 91.4376C183.001 86.7102 184.08 81.5638 187.648 77.9838L200.309 64.7725C203.88 61.0867 204.1 55.213 200.776 51.3164L183.553 31.0622L183.543 31.0502C182.008 29.1857 179.919 28.1494 177.616 27.776H177.353L177.214 27.7562C174.83 27.4155 172.452 27.9766 170.387 29.4678L170.359 29.4882L155.349 39.5409C151.327 42.4215 146.061 42.8817 141.606 40.9722L141.577 40.9599L141.549 40.9466C139.549 40.0133 137.553 39.2156 135.563 38.5521C133.519 37.8707 131.357 37.1957 129.345 36.6591C124.514 35.3709 120.842 31.5271 119.558 26.8973L114.326 9.27558L114.322 9.25996C112.943 4.32026 107.999 1.21628 102.946 2.13386C102.946 2.13399 102.945 2.13412 102.944 2.13426L76.7835 6.95334C71.718 7.87433 68.1607 12.4734 68.6201 17.6423L68.6212 17.6543L70.1372 35.9846L70.1383 36.0024C70.4582 40.9598 68.2127 45.6013 64.2278 48.4704C60.8654 50.8913 57.5052 53.7146 54.5565 56.6633C51.053 60.1668 46.0905 61.6154 41.2849 60.4941L41.2581 60.4879L23.4929 56.0808C18.4059 54.8091 13.2295 57.5889 11.5101 62.403L2.56044 87.4622C0.831887 92.3022 3.02554 97.6995 7.72782 99.8786L7.74482 99.8865L24.2516 107.727C24.2544 107.729 24.2572 107.73 24.2599 107.731C28.79 109.838 31.6562 114.192 32.1314 119.103L32.132 119.109C32.5333 123.389 33.337 127.548 34.4147 131.589C35.6753 136.317 34.5957 141.463 31.0275 145.043L18.3666 158.255C14.796 161.94 14.5763 167.814 17.8999 171.711L35.1229 191.965L35.1328 191.977C36.6682 193.841 38.7574 194.878 41.0599 195.251H41.3227L41.4615 195.271C43.8463 195.612 46.2237 195.051 48.2885 193.559L48.3033 193.549L63.1758 183.22C67.1999 180.331 72.4719 179.868 76.9324 181.78L76.9612 181.792L76.9896 181.805C78.9896 182.738 80.9847 183.536 82.9751 184.2L83.0301 184.218L83.0839 184.24C84.8143 184.932 86.6538 185.419 88.5424 185.92C88.7587 185.977 88.9757 186.035 89.1932 186.093C94.028 187.382 97.7028 191.231 98.984 195.867C98.9846 195.869 98.9852 195.871 98.9858 195.873L103.941 213.354C105.32 218.294 110.265 221.399 115.319 220.48ZM123.076 72.9595L123.088 72.9635C144.336 80.6246 155.491 104.049 147.82 125.191C140.289 146.468 116.85 157.447 95.5996 149.93C74.3175 142.402 63.3348 118.959 70.8528 97.7063C78.3811 76.4243 101.824 65.4415 123.076 72.9595ZM145.963 124.525C138.803 144.765 116.498 155.229 96.2576 148.07C76.0175 140.91 65.5532 118.604 72.713 98.3644C79.8727 78.1243 102.178 67.66 122.418 74.8197C142.658 82.1172 153.26 104.423 145.963 124.525Z"/>
</mask>
<path fill-rule="evenodd" clip-rule="evenodd" d="M151.608 204.797L150.094 186.485C149.818 182.216 151.746 178.223 155.188 175.745C158.768 173.267 162.072 170.375 165.102 167.346C168.681 164.73 172.95 163.353 177.08 164.455L194.842 168.861C200.763 170.375 206.959 167.071 209.024 161.288L217.974 136.229C220.039 130.446 217.423 123.974 211.778 121.358L195.255 113.51C191.4 111.72 188.922 108.003 188.508 103.734C188.095 99.3282 187.269 95.0599 186.168 90.9292C185.066 86.7986 186.03 82.3926 189.059 79.3634L201.726 66.1454C205.995 61.7394 206.27 54.7173 202.277 50.0359L185.066 29.7958C183.139 27.4551 180.523 26.2159 177.769 25.8029H177.493C174.602 25.3898 171.711 26.0782 169.232 27.8682L154.224 37.9194C150.782 40.3978 146.238 40.8108 142.383 39.1586C140.318 38.1948 138.252 37.3687 136.187 36.6802C134.122 35.9918 131.919 35.3033 129.853 34.7526C125.723 33.6511 122.556 30.3466 121.454 26.3536L116.222 8.72957C114.57 2.809 108.65 -0.908575 102.591 0.192928L76.4305 5.012C70.3723 6.11351 66.104 11.621 66.6547 17.817L68.1693 36.1295C68.4447 40.3978 66.517 44.3907 63.0748 46.8691C59.6326 49.3475 56.1904 52.2389 53.1613 55.2681C50.1322 58.2972 45.8638 59.5364 41.7332 58.5726L23.9715 54.1666C17.9132 52.652 11.7173 55.9565 9.65195 61.7394L0.702236 86.7986C-1.36308 92.5815 1.25299 99.0528 6.89819 101.669L23.4207 109.517C27.276 111.307 29.7544 115.025 30.1674 119.293C30.5805 123.699 31.4066 127.967 32.5081 132.098C33.6096 136.229 32.6458 140.635 29.6167 143.664L16.9494 156.882C12.6811 161.288 12.4057 168.31 16.3986 172.991L33.6096 193.231C35.5373 195.572 38.1533 196.811 40.9071 197.224H41.1825C44.0739 197.637 46.9654 196.949 49.4437 195.159L64.314 184.832C67.7562 182.354 72.2999 181.941 76.1552 183.593C78.2205 184.557 80.2858 185.383 82.3511 186.072C84.2001 186.811 86.1594 187.33 88.0315 187.826C88.2505 187.884 88.4684 187.941 88.6848 187.999C92.8154 189.101 95.9822 192.405 97.0837 196.398L102.04 213.884C103.693 219.805 109.613 223.523 115.672 222.421L141.832 217.602C147.891 216.501 152.159 210.993 151.608 204.797ZM115.319 220.48L141.479 215.661C146.545 214.74 150.102 210.141 149.643 204.972L149.642 204.96L148.126 186.629L148.124 186.612C147.805 181.654 150.05 177.013 154.035 174.144L154.05 174.133L154.065 174.123C157.524 171.728 160.738 168.919 163.706 165.951L163.814 165.843L163.937 165.753C167.813 162.921 172.684 161.247 177.571 162.543L195.331 166.949C200.259 168.21 205.441 165.453 207.166 160.624L216.115 135.565C217.844 130.725 215.65 125.328 210.948 123.149L210.931 123.141L194.424 115.3C194.422 115.299 194.419 115.297 194.417 115.296C189.886 113.19 187.02 108.835 186.544 103.924L186.544 103.918C186.143 99.638 185.339 95.4788 184.261 91.4376C183.001 86.7102 184.08 81.5638 187.648 77.9838L200.309 64.7725C203.88 61.0867 204.1 55.213 200.776 51.3164L183.553 31.0622L183.543 31.0502C182.008 29.1857 179.919 28.1494 177.616 27.776H177.353L177.214 27.7562C174.83 27.4155 172.452 27.9766 170.387 29.4678L170.359 29.4882L155.349 39.5409C151.327 42.4215 146.061 42.8817 141.606 40.9722L141.577 40.9599L141.549 40.9466C139.549 40.0133 137.553 39.2156 135.563 38.5521C133.519 37.8707 131.357 37.1957 129.345 36.6591C124.514 35.3709 120.842 31.5271 119.558 26.8973L114.326 9.27558L114.322 9.25996C112.943 4.32026 107.999 1.21628 102.946 2.13386C102.946 2.13399 102.945 2.13412 102.944 2.13426L76.7835 6.95334C71.718 7.87433 68.1607 12.4734 68.6201 17.6423L68.6212 17.6543L70.1372 35.9846L70.1383 36.0024C70.4582 40.9598 68.2127 45.6013 64.2278 48.4704C60.8654 50.8913 57.5052 53.7146 54.5565 56.6633C51.053 60.1668 46.0905 61.6154 41.2849 60.4941L41.2581 60.4879L23.4929 56.0808C18.4059 54.8091 13.2295 57.5889 11.5101 62.403L2.56044 87.4622C0.831887 92.3022 3.02554 97.6995 7.72782 99.8786L7.74482 99.8865L24.2516 107.727C24.2544 107.729 24.2572 107.73 24.2599 107.731C28.79 109.838 31.6562 114.192 32.1314 119.103L32.132 119.109C32.5333 123.389 33.337 127.548 34.4147 131.589C35.6753 136.317 34.5957 141.463 31.0275 145.043L18.3666 158.255C14.796 161.94 14.5763 167.814 17.8999 171.711L35.1229 191.965L35.1328 191.977C36.6682 193.841 38.7574 194.878 41.0599 195.251H41.3227L41.4615 195.271C43.8463 195.612 46.2237 195.051 48.2885 193.559L48.3033 193.549L63.1758 183.22C67.1999 180.331 72.4719 179.868 76.9324 181.78L76.9612 181.792L76.9896 181.805C78.9896 182.738 80.9847 183.536 82.9751 184.2L83.0301 184.218L83.0839 184.24C84.8143 184.932 86.6538 185.419 88.5424 185.92C88.7587 185.977 88.9757 186.035 89.1932 186.093C94.028 187.382 97.7028 191.231 98.984 195.867C98.9846 195.869 98.9852 195.871 98.9858 195.873L103.941 213.354C105.32 218.294 110.265 221.399 115.319 220.48ZM123.076 72.9595L123.088 72.9635C144.336 80.6246 155.491 104.049 147.82 125.191C140.289 146.468 116.85 157.447 95.5996 149.93C74.3175 142.402 63.3348 118.959 70.8528 97.7063C78.3811 76.4243 101.824 65.4415 123.076 72.9595ZM145.963 124.525C138.803 144.765 116.498 155.229 96.2576 148.07C76.0175 140.91 65.5532 118.604 72.713 98.3644C79.8727 78.1243 102.178 67.66 122.418 74.8197C142.658 82.1172 153.26 104.423 145.963 124.525Z" fill="#2C48FF" stroke="#2C48FF" stroke-width="2" mask="url(#path-4-inside-2)"/>
<path d="M96.133 106.979L96.6045 107.145L96.133 106.979L96.1229 107.008L96.1116 107.036C95.932 107.485 95.8287 108.011 95.7101 108.614L95.703 108.65C95.682 108.757 95.6604 108.867 95.6376 108.981L96.0588 109.065L95.6376 108.981L95.6307 109.015L95.6222 109.049C95.585 109.198 95.5539 109.319 95.5277 109.421C95.524 109.436 95.5203 109.45 95.5168 109.464C95.4313 109.797 95.3908 109.954 95.3908 110.206V110.273L95.3848 110.34C95.2642 111.666 95.3803 113.018 95.6281 114.276L95.6307 114.289L95.634 114.302C95.6922 114.531 95.7512 114.738 95.816 114.965L95.8188 114.974L96.2995 114.837L95.8188 114.974C95.8763 115.176 95.9386 115.394 96.002 115.639L96.0101 115.67L96.0222 115.7C96.5438 116.996 97.0412 118.088 97.7595 119.165C97.8457 119.294 97.9648 119.44 98.1473 119.659C98.1473 119.659 98.1473 119.659 98.1473 119.659L98.1698 119.686C98.3156 119.86 98.5093 120.093 98.6808 120.342L98.6897 120.354L98.6993 120.367C99.542 121.438 100.507 122.283 101.619 123.025C101.776 123.129 101.97 123.241 102.221 123.385L102.221 123.385L102.246 123.399C102.422 123.499 102.63 123.618 102.833 123.745L102.866 123.766L102.902 123.782C103.24 123.926 103.563 124.087 103.842 124.226L103.842 124.226L103.87 124.241L103.87 124.241C104.186 124.398 104.449 124.529 104.696 124.633L104.725 124.645L104.754 124.654C105.663 124.911 106.644 125.15 107.476 125.27L107.479 125.27C113.675 126.118 119.858 122.7 122.234 116.65L122.239 116.652L122.327 116.408C122.354 116.335 122.381 116.261 122.407 116.187L122.409 116.182L122.411 116.176C125.018 108.975 121.311 101.042 113.871 98.5374L113.86 98.5336L113.848 98.5303C112.921 98.2667 111.915 98.0188 111.064 97.8967L111.06 97.8963C104.708 97.027 98.3698 100.641 96.133 106.979ZM123.326 116.507L123.324 116.511C120.928 123.301 114.138 127.166 107.343 126.234C106.421 126.102 105.356 125.837 104.407 125.567C104.093 125.44 103.775 125.281 103.435 125.111L103.426 125.107C103.103 124.945 102.76 124.774 102.413 124.632C102.202 124.494 101.967 124.36 101.747 124.234L101.739 124.229L101.491 124.664L101.739 124.229C101.494 124.09 101.269 123.961 101.079 123.834C99.8822 123.036 98.8262 122.112 97.9029 120.928C97.7524 120.705 97.5706 120.487 97.4084 120.292L97.3998 120.282C97.2238 120.07 97.0699 119.885 96.9498 119.705C96.1588 118.518 95.6254 117.327 95.0828 115.972C95.0147 115.703 94.9469 115.465 94.8811 115.235L94.8803 115.232C94.8123 114.994 94.7466 114.764 94.681 114.503C94.4144 113.165 94.2836 111.704 94.4156 110.252L94.4177 110.229V110.206C94.4177 109.823 94.4949 109.519 94.6066 109.091L94.6069 109.09C94.6297 109.003 94.6538 108.91 94.6781 108.813L94.681 108.801L94.6833 108.79C94.7029 108.692 94.7224 108.592 94.7419 108.491L94.7421 108.491C94.8648 107.86 94.992 107.215 95.208 106.674L95.2119 106.665L95.2153 106.655C97.6118 99.8652 104.402 96.0007 111.197 96.9327C112.124 97.0652 113.195 97.3318 114.148 97.6037C122.133 100.272 126.121 108.787 123.326 116.507Z" fill="#2C48FF" stroke="#2C48FF"/>
</svg>
