<svg width="1800" height="875" viewBox="0 0 1800 875" fill="none" xmlns="http://www.w3.org/2000/svg">
<path d="M-158.528 255.589L-85.7558 328.354H-158.528V255.589ZM-85.7558 328.354L-12.9834 401.118V328.354H-85.7558ZM-158.528 291.886H-12.9834L-49.284 255.589H-158.528V291.886ZM-122.056 401.118H-12.9834V364.821H-158.528L-122.056 401.118ZM-122.228 291.886L-85.927 328.182H-13.1547V291.886H-122.228ZM-158.528 328.354V364.65H-49.4552L-85.7558 328.354H-158.528ZM-12.9834 364.65H59.7889L-12.9834 291.886V364.65ZM59.7889 364.65L132.561 437.414V364.65H59.7889ZM-12.9834 328.354H132.561L96.2607 292.057H-12.8122V328.354H-12.9834ZM23.3171 437.414H132.39V401.118H-13.1547L23.3171 437.414ZM23.3171 328.354L59.6177 364.65H132.39V328.354H23.3171ZM-12.9834 364.65V400.947H96.0895L59.7889 364.65H-12.9834ZM132.561 401.118H205.334L132.561 328.354V401.118ZM205.334 401.118L278.106 473.882V401.118H205.334V401.118ZM132.561 364.65H278.106L241.805 328.354H132.733V364.65H132.561ZM168.862 473.882H277.935V437.586H132.39L168.862 473.882ZM168.862 364.65L205.162 400.947H277.935V364.65H168.862ZM132.561 401.118V437.414H241.634L205.334 401.118H132.561ZM278.106 437.414H350.878L278.106 364.65V437.414ZM350.878 437.414L423.651 510.179V437.414H350.878ZM278.106 401.118H423.651L387.35 364.821H278.277V401.118H278.106ZM314.407 510.179H423.48V473.882H277.935L314.407 510.179ZM314.407 401.118L350.707 437.414H423.48V401.118H314.407ZM278.106 437.414V473.711H387.179L350.878 437.414H278.106ZM423.48 473.882H496.252L423.48 401.118V473.882ZM496.252 473.882L569.024 546.646V473.882H496.252ZM423.48 437.414H569.024L532.724 401.118H423.48V437.414ZM459.951 546.646H569.024V510.35H423.48L459.951 546.646ZM459.951 437.414L496.252 473.711H569.024V437.414H459.951ZM423.48 473.882V510.179H532.553L496.252 473.882H423.48ZM569.024 510.179H641.797L569.024 437.414V510.179ZM641.797 510.179L714.569 582.943V510.179H641.797ZM569.024 473.882H714.569L678.269 437.586H569.024V473.882ZM605.496 582.943H714.569V546.646H569.024L605.496 582.943ZM605.496 473.882L641.797 510.179H714.569V473.882H605.496ZM569.024 510.179V546.475H678.097L641.797 510.179H569.024ZM714.569 546.646H787.342L714.569 473.882V546.646ZM787.342 546.646L860.114 619.411V546.646H787.342ZM714.569 510.179H860.114L823.813 473.882H714.569V510.179ZM751.041 619.411H860.114V583.114H714.569L751.041 619.411ZM751.041 510.179L787.342 546.475H860.114V510.179H751.041ZM714.569 546.646V582.943H823.642L787.342 546.646H714.569ZM860.114 582.943H932.886L860.114 510.179V582.943ZM932.886 582.943L1005.66 655.707V582.943H932.886ZM860.114 546.646H1005.66L969.358 510.35H860.114V546.646ZM896.586 655.707H1005.66V619.411H860.114L896.586 655.707ZM896.586 546.646L932.886 582.943H1005.66V546.646H896.586ZM860.114 582.943V619.239H969.187L932.886 582.943H860.114ZM1005.66 619.411H1078.43L1005.66 546.646V619.411ZM1078.43 619.411L1151.2 692.175V619.411H1078.43ZM1005.66 582.943H1151.2L1114.9 546.646H1005.66V582.943ZM1041.96 692.175H1151.2V655.878H1005.66L1041.96 692.175ZM1041.96 582.943L1078.26 619.239H1151.2V582.943H1041.96ZM1005.66 619.411V655.707H1114.73L1078.43 619.411H1005.66ZM1151.2 655.707H1223.98L1151.2 582.943V655.707ZM1223.98 655.707L1296.75 728.471V655.707H1223.98ZM1151.2 619.411H1296.75L1260.45 583.114H1151.2V619.411ZM1187.5 728.471H1296.75V692.175H1151.2L1187.5 728.471ZM1187.5 619.411L1223.8 655.707H1296.75V619.411H1187.5ZM1151.2 655.707V692.004H1260.28L1223.98 655.707H1151.2ZM1296.75 692.175H1369.52L1296.75 619.411V692.175ZM1369.52 692.175L1442.29 764.768V692.004H1369.52V692.175ZM1296.75 655.707H1442.29L1405.99 619.411H1296.75V655.707ZM1333.05 764.939H1442.29V728.643H1296.75L1333.05 764.939ZM1333.05 655.707L1369.35 692.004H1442.29V655.707H1333.05ZM1296.75 692.175V728.471H1405.82L1369.52 692.175H1296.75ZM1442.29 728.471H1515.07L1442.29 655.707V728.471ZM1515.07 728.471L1587.84 801.236V728.471H1515.07ZM1442.29 692.004H1587.84L1551.54 655.707H1442.29V692.004ZM1478.59 801.236H1587.67V764.768H1442.12L1478.59 801.236ZM1478.59 692.004L1514.89 728.3H1587.67V692.004H1478.59ZM1442.29 728.471V764.768H1551.37L1515.07 728.471H1442.29ZM1587.67 764.939H1660.44L1587.67 692.175V764.939ZM1660.44 764.939L1733.21 837.703V764.939H1660.44ZM1587.67 728.471H1733.21L1696.91 692.175H1587.84V728.471H1587.67ZM1624.14 837.532H1733.21V801.236H1587.67L1624.14 837.532ZM1624.14 728.471L1660.44 764.768H1733.21V728.471H1624.14ZM1587.67 764.939V801.236H1696.74L1660.44 764.939H1587.67ZM1733.21 801.236H1805.98L1733.21 728.471V801.236ZM1805.98 801.236L1878.76 874V801.236H1805.98ZM1733.21 764.768H1878.76L1842.46 728.471H1733.38V764.768H1733.21ZM1769.68 874H1878.76V837.703H1733.21L1769.68 874ZM1769.68 764.768L1805.98 801.065H1878.76V764.768H1769.68ZM1733.21 801.236V837.532H1842.28L1805.98 801.236H1733.21ZM-194.829 182.825H-122.056L-194.829 110.061V182.825ZM-122.228 182.825L-49.4552 255.589V182.825H-122.228ZM-194.829 146.357H-49.284L-85.7558 110.061H-194.829V146.357ZM-158.528 255.589H-49.4552V219.293H-195L-158.528 255.589ZM-158.528 146.357L-122.228 182.654H-49.4552V146.357H-158.528ZM-194.829 182.825V219.122H-85.7558L-122.056 182.825H-194.829V182.825ZM-49.4552 219.122H23.3171L-49.4552 146.357V219.122ZM23.3171 219.122L96.0895 291.886V219.122H23.3171ZM-49.4552 182.825H96.0895L59.7889 146.529H-49.4552V182.825ZM-12.9834 291.886H96.0895V255.589H-49.4552L-12.9834 291.886ZM-12.9834 182.825L23.3171 219.122H96.0895V182.825H-12.9834ZM-49.4552 219.122V255.418H59.6177L23.3171 219.122H-49.4552ZM-85.7558 73.5931H-12.9834L-85.7558 1V73.5931ZM-12.9834 73.5931L59.7889 146.357V73.5931H-12.9834ZM-85.7558 37.2965H59.7889L23.3171 1H-85.7558V37.2965ZM-49.4552 146.357H59.6177V110.061H-85.927L-49.4552 146.357ZM-49.4552 37.2965L-13.1547 73.5931H59.6177V37.2965H-49.4552ZM-85.7558 73.5931V109.89H23.3171L-12.9834 73.5931H-85.7558ZM96.0895 255.589H168.862L96.0895 182.825V255.589ZM168.862 255.589L241.634 328.354V255.589H168.862ZM96.0895 219.122H241.634L205.334 182.825H96.2607V219.122H96.0895ZM132.561 328.354H241.634V292.057H96.0895L132.561 328.354ZM132.561 219.122L168.862 255.418H241.634V219.122H132.561ZM96.0895 255.589V291.886H205.162L168.862 255.589H96.0895ZM59.7889 110.061H132.561L59.7889 37.2965V110.061ZM132.561 110.061L205.334 182.825V110.061H132.561ZM59.7889 73.5931H205.334L169.033 37.2965H59.9602V73.5931H59.7889ZM96.0895 182.825H205.162V146.357H59.6177L96.0895 182.825ZM96.0895 73.5931L132.39 109.89H205.162V73.5931H96.0895ZM59.7889 110.061V146.357H168.862L132.561 110.061H59.7889ZM205.334 146.357H278.106L205.334 73.5931V146.357V146.357ZM278.106 146.357L350.878 219.122V146.357H278.106ZM205.334 110.061H350.878L314.578 73.7643H205.505V110.061H205.334ZM241.634 219.122H350.707V182.825H205.162L241.634 219.122ZM241.634 110.061L277.935 146.357H350.707V110.061H241.634ZM205.334 146.357V182.654H314.407L278.106 146.357H205.334ZM350.878 182.825H423.48L350.707 110.061V182.825H350.878ZM423.48 182.825L496.252 255.589V182.825H423.48ZM350.878 146.357H496.423L460.123 110.061H351.05V146.357H350.878ZM387.179 255.589H496.252V219.293H350.707L387.179 255.589ZM387.179 146.357L423.48 182.654H496.252V146.357H387.179ZM350.878 182.825V219.122H459.951L423.48 182.825H350.878ZM496.252 219.122H569.024L496.252 146.357V219.122ZM569.024 219.122L641.797 291.886V219.122H569.024ZM496.252 182.825H641.797L605.496 146.529H496.423V182.825H496.252ZM532.724 291.886H641.797V255.589H496.252L532.724 291.886ZM532.724 182.825L569.024 219.122H641.797V182.825H532.724ZM496.252 219.122V255.418H605.325L569.024 219.122H496.252ZM641.797 255.589H714.569L641.797 182.825V255.589ZM714.569 255.589L787.342 328.354V255.589H714.569ZM641.797 219.122H787.342L751.041 182.825H641.968V219.122H641.797ZM678.269 328.354H787.342V292.057H641.797L678.269 328.354ZM678.269 219.122L714.569 255.418H787.342V219.122H678.269ZM641.797 255.589V291.886H750.87L714.569 255.589H641.797ZM787.342 291.886H860.114L787.342 219.122V291.886ZM860.114 291.886L932.886 364.65V291.886H860.114ZM787.342 255.589H932.886L896.586 219.293H787.513V255.589H787.342ZM823.813 364.65H932.886V328.354H787.342L823.813 364.65ZM823.813 255.589L860.114 291.886H932.886V255.589H823.813ZM787.342 291.886V328.182H896.414L860.114 291.886H787.342ZM932.886 328.354H1005.66L932.886 255.589V328.354ZM1005.66 328.354L1078.43 401.118V328.354H1005.66ZM932.886 291.886H1078.43L1042.13 255.589H933.057V291.886H932.886ZM969.358 401.118H1078.43V364.821H932.886L969.358 401.118ZM969.358 291.886L1005.66 328.182H1078.43V291.886H969.358ZM932.886 328.354V364.65H1041.96L1005.66 328.354H932.886ZM1078.43 364.65H1151.2L1078.43 291.886V364.65ZM1151.2 364.65L1223.98 437.414V364.65H1151.2ZM1078.43 328.354H1223.98L1187.68 292.057H1078.6V328.354H1078.43ZM1114.73 437.414H1223.8V401.118H1078.26L1114.73 437.414ZM1114.73 328.354L1151.03 364.65H1223.8V328.354H1114.73ZM1078.43 364.65V400.947H1187.5L1151.2 364.65H1078.43ZM1223.98 401.118H1296.75L1223.98 328.354V401.118ZM1296.75 401.118L1369.52 473.882V401.118H1296.75V401.118ZM1223.98 364.65H1369.52L1333.22 328.354H1224.15V364.65H1223.98ZM1260.28 473.882H1369.35V437.586H1223.8L1260.28 473.882ZM1260.28 364.65L1296.58 400.947H1369.35V364.65H1260.28ZM1223.98 401.118V437.414H1333.05L1296.75 401.118H1223.98ZM1369.52 437.414H1442.29L1369.52 364.65V437.414ZM1442.29 437.414L1515.07 510.179V437.414H1442.29ZM1369.52 401.118H1515.07L1478.76 364.821H1369.69V401.118H1369.52ZM1405.82 510.179H1514.89V473.882H1369.35L1405.82 510.179ZM1405.82 401.118L1442.12 437.414H1514.89V401.118H1405.82ZM1369.52 437.414V473.711H1478.59L1442.29 437.414H1369.52ZM1514.89 473.882H1587.67L1514.89 401.118V473.882V473.882ZM1587.67 473.882L1660.44 546.646V473.882H1587.67ZM1514.89 437.414H1660.44L1624.14 401.118H1515.07V437.414H1514.89ZM1551.37 546.646H1660.44V510.35H1514.89L1551.37 546.646ZM1551.37 437.414L1587.67 473.711H1660.44V437.414H1551.37ZM1514.89 473.882V510.179H1623.97L1587.67 473.882H1514.89ZM1660.44 510.179H1733.21L1660.44 437.414V510.179ZM1733.21 510.179L1805.98 582.943V510.179H1733.21ZM1660.44 473.882H1805.98L1769.68 437.586H1660.61V473.882H1660.44ZM1696.91 582.943H1805.98V546.646H1660.44L1696.91 582.943ZM1696.91 473.882L1733.21 510.179H1805.98V473.882H1696.91ZM1660.44 510.179V546.475H1769.51L1733.21 510.179H1660.44ZM1805.98 546.646H1878.76L1805.98 473.882V546.646ZM1878.76 546.646L1951.53 619.411V546.646H1878.76ZM1805.98 510.179H1951.53L1915.23 473.882H1806.15V510.179H1805.98ZM1842.46 619.411H1951.53V583.114H1805.98L1842.46 619.411ZM1842.46 510.179L1878.76 546.475H1951.53V510.179H1842.46ZM1805.98 546.646V582.943H1915.06L1878.76 546.646H1805.98ZM241.634 291.886H314.407L241.634 219.122V291.886ZM314.407 291.886L387.179 364.65V291.886H314.407ZM241.634 255.589H387.179L350.878 219.293H241.805V255.589H241.634ZM278.106 364.65H387.179V328.354H241.634L278.106 364.65ZM278.106 255.589L314.407 291.886H387.179V255.589H278.106ZM241.634 291.886V328.182H350.707L314.407 291.886H241.634ZM387.179 328.354H459.951L387.179 255.589V328.354ZM459.951 328.354L532.724 401.118V328.354H459.951ZM387.179 291.886H532.724L496.423 255.589H387.35V291.886H387.179ZM423.651 401.118H532.724V364.821H387.179L423.651 401.118ZM423.48 291.886L459.78 328.182H532.553V291.886H423.48ZM387.179 328.354V364.65H496.252L459.951 328.354H387.179ZM532.724 364.65H605.496L532.724 291.886V364.65ZM605.496 364.65L678.269 437.414V364.65H605.496ZM532.724 328.354H678.269L641.968 292.057H532.895V328.354H532.724ZM569.024 437.414H678.097V401.118H532.553L569.024 437.414ZM569.024 328.354L605.325 364.65H678.097V328.354H569.024ZM532.724 364.65V400.947H641.797L605.496 364.65H532.724ZM678.269 401.118H751.041L678.269 328.354V401.118V401.118ZM751.041 401.118L823.813 473.882V401.118H751.041V401.118ZM678.269 364.65H823.813L787.513 328.354H678.44V364.65H678.269ZM714.569 473.882H823.642V437.586H678.097L714.569 473.882ZM714.569 364.65L750.87 400.947H823.642V364.65H714.569ZM678.269 401.118V437.414H787.342L751.041 401.118H678.269ZM823.813 437.414H896.586L823.813 364.65V437.414ZM896.586 437.414L969.358 510.179V437.414H896.586ZM823.813 401.118H969.358L933.057 364.821H823.985V401.118H823.813ZM860.114 510.179H969.187V473.882H823.642L860.114 510.179ZM860.114 401.118L896.414 437.414H969.187V401.118H860.114ZM823.813 437.414V473.711H932.886L896.586 437.414H823.813ZM969.187 473.882H1041.96L969.187 401.118V473.882ZM1041.96 473.882L1114.73 546.646V473.882H1041.96ZM969.187 437.414H1114.73L1078.43 401.118H969.358V437.414H969.187ZM1005.66 546.646H1114.73V510.35H969.187L1005.66 546.646ZM1005.66 437.414L1041.96 473.711H1114.73V437.414H1005.66ZM969.187 473.882V510.179H1078.26L1041.96 473.882H969.187ZM1114.73 510.179H1187.5L1114.73 437.414V510.179ZM1187.5 510.179L1260.28 582.943V510.179H1187.5ZM1114.73 473.882H1260.28L1223.98 437.586H1114.9V473.882H1114.73ZM1151.2 582.943H1260.28V546.646H1114.73L1151.2 582.943ZM1151.2 473.882L1187.5 510.179H1260.28V473.882H1151.2ZM1114.73 510.179V546.475H1223.8L1187.5 510.179H1114.73ZM1260.28 546.646H1333.05L1260.28 473.882V546.646ZM1333.05 546.646L1405.82 619.411V546.646H1333.05ZM1260.28 510.179H1405.82L1369.52 473.882H1260.45V510.179H1260.28ZM1296.75 619.239H1405.82V582.943H1260.28L1296.75 619.239ZM1296.75 510.179L1333.05 546.475H1405.82V510.179H1296.75ZM1260.28 546.646V582.943H1369.35L1333.05 546.646H1260.28ZM1405.82 582.943H1478.59L1405.82 510.179V582.943ZM1478.59 582.943L1551.37 655.707V582.943H1478.59ZM1405.82 546.646H1551.37L1515.07 510.35H1405.99V546.646H1405.82ZM1442.29 655.707H1551.37V619.411H1405.82L1442.29 655.707ZM1442.29 546.646L1478.59 582.943H1551.37V546.646H1442.29ZM1405.82 582.943V619.239H1514.89L1478.59 582.943H1405.82ZM1551.37 619.411H1624.14L1551.37 546.646V619.411ZM1624.14 619.411L1696.91 692.175V619.411H1624.14ZM1551.37 582.943H1696.91L1660.61 546.646H1551.54V582.943H1551.37ZM1587.67 692.175H1696.74V655.878H1551.19L1587.67 692.175ZM1587.67 582.943L1623.97 619.239H1696.74V582.943H1587.67ZM1551.37 619.411V655.707H1660.44L1624.14 619.411H1551.37ZM1696.91 655.707H1769.68L1696.91 582.943V655.707ZM1769.68 655.707L1842.46 728.471V655.707H1769.68ZM1696.91 619.411H1842.46L1806.15 583.114H1697.08V619.411H1696.91ZM1733.21 728.471H1842.28V692.175H1696.74L1733.21 728.471ZM1733.21 619.411L1769.51 655.707H1842.28V619.411H1733.21ZM1696.91 655.707V692.004H1805.98L1769.68 655.707H1696.91ZM1842.46 692.004H1915.23L1842.46 619.239V692.004ZM1915.23 692.004L1988 764.768V692.004H1915.23ZM1842.46 655.707H1988L1951.7 619.411H1842.63V655.707H1842.46ZM1878.76 764.768H1987.83V728.471H1842.28L1878.76 764.768ZM1878.76 655.707L1915.06 692.004H1987.83V655.707H1878.76ZM1842.46 692.004V728.3H1951.53L1915.23 692.004H1842.46Z" stroke="url(#paint0_linear)" stroke-width="0.7087" stroke-miterlimit="10"/>
<defs>
<linearGradient id="paint0_linear" x1="-196.37" y1="437.447" x2="1989.4" y2="437.447" gradientUnits="userSpaceOnUse">
<stop offset="2.2622e-07" stop-color="#2C37FF"/>
<stop offset="0.0982704" stop-color="#4151FF"/>
<stop offset="0.3242" stop-color="#6E86FF"/>
<stop offset="0.535" stop-color="#92B1FF"/>
<stop offset="0.7245" stop-color="#ABCFFF"/>
<stop offset="0.8859" stop-color="#BAE1FF"/>
<stop offset="1" stop-color="#C0E8FF"/>
</linearGradient>
</defs>
</svg>
