<svg width="744" height="474" viewBox="0 0 744 474" fill="none" xmlns="http://www.w3.org/2000/svg">
<path d="M392.542 215.967L475.721 197.963L485.083 241.713L493.724 281.141L366.617 308.687L318.906 277.721L445.654 250.175L392.542 215.967Z" stroke="white" stroke-width="1.05513" stroke-miterlimit="10" stroke-linejoin="bevel"/>
<path d="M466.179 154.214L418.288 123.247L291.36 150.793L299.822 190.221L309.364 233.971L392.542 215.967L339.251 181.76L466.179 154.214Z" stroke="white" stroke-width="1.05513" stroke-miterlimit="10" stroke-linejoin="bevel"/>
<path d="M479.862 39.3484L538.015 312.828L445.294 332.633L471.58 378.002L389.662 344.515L264.715 371.341L206.562 97.8612L479.862 39.3484Z" stroke="white" stroke-width="1.05513" stroke-miterlimit="10" stroke-linejoin="bevel"/>
<path d="M479.862 39.3484L538.015 312.828L445.294 332.633L471.58 378.002L389.662 344.515L264.715 371.341L206.562 97.8612L479.862 39.3484Z" stroke="white" stroke-width="1.05513" stroke-miterlimit="10" stroke-linejoin="bevel"/>
<path d="M539.095 63.6537L597.428 336.953L504.707 356.938L530.813 402.128L449.075 368.82L324.128 395.466L265.975 121.986L539.095 63.6537Z" stroke="white" stroke-width="1.05513" stroke-miterlimit="10" stroke-linejoin="bevel"/>
<path d="M539.095 63.6537L597.428 336.953L504.707 356.938L530.813 402.128L449.075 368.82L324.128 395.466L265.975 121.986L539.095 63.6537Z" stroke="white" stroke-width="1.05513" stroke-miterlimit="10" stroke-linejoin="bevel"/>
<path d="M539.094 63.6537L597.427 336.953L538.014 312.828L479.861 39.3484L539.094 63.6537Z" stroke="white" stroke-width="1.05513" stroke-miterlimit="10" stroke-linejoin="bevel"/>
<path d="M539.094 63.6537L597.427 336.953L538.014 312.828L479.861 39.3484L539.094 63.6537Z" stroke="white" stroke-width="1.05513" stroke-miterlimit="10" stroke-linejoin="bevel"/>
<path d="M597.428 336.954L504.707 356.938L445.294 332.633L538.015 312.828L597.428 336.954Z" stroke="white" stroke-width="1.05513" stroke-miterlimit="10" stroke-linejoin="bevel"/>
<path d="M597.428 336.954L504.707 356.938L445.294 332.633L538.015 312.828L597.428 336.954Z" stroke="white" stroke-width="1.05513" stroke-miterlimit="10" stroke-linejoin="bevel"/>
<path d="M530.813 402.128L449.075 368.82L389.662 344.515L471.58 378.002L530.813 402.128Z" stroke="white" stroke-width="1.05513" stroke-miterlimit="10" stroke-linejoin="bevel"/>
<path d="M530.813 402.128L449.075 368.82L389.662 344.515L471.58 378.002L530.813 402.128Z" stroke="white" stroke-width="1.05513" stroke-miterlimit="10" stroke-linejoin="bevel"/>
<path d="M324.128 395.466L264.715 371.341L206.562 97.8611L265.975 121.986L324.128 395.466Z" stroke="white" stroke-width="1.05513" stroke-miterlimit="10" stroke-linejoin="bevel"/>
<path d="M324.128 395.466L264.715 371.341L206.562 97.8611L265.975 121.986L324.128 395.466Z" stroke="white" stroke-width="1.05513" stroke-miterlimit="10" stroke-linejoin="bevel"/>
<path d="M493.544 4.06067H569.161C574.202 4.06067 578.163 8.02154 578.163 13.0626V80.9375C578.163 85.9786 582.124 89.9394 587.165 89.9394H619.392" stroke="white" stroke-width="1.05513" stroke-miterlimit="10"/>
<path d="M493.545 1H487.604V6.9413H493.545V1Z" stroke="white" stroke-width="1.05513" stroke-miterlimit="10"/>
<path d="M625.154 86.8788H619.212V92.8201H625.154V86.8788Z" stroke="white" stroke-width="1.05513" stroke-miterlimit="10"/>
<path d="M396.863 436.335H220.245C215.204 436.335 211.243 432.374 211.243 427.333V359.458C211.243 354.417 207.282 350.456 202.241 350.456H170.194" stroke="white" stroke-width="1.05513" stroke-miterlimit="10"/>
<path d="M396.978 439.3H402.919V433.359H396.978V439.3Z" stroke="white" stroke-width="1.05513" stroke-miterlimit="10"/>
<path d="M164.181 353.337H170.123V347.395H164.181V353.337Z" stroke="white" stroke-width="1.05513" stroke-miterlimit="10"/>
<path d="M626.054 159.975H606.97C601.929 159.975 597.968 163.936 597.968 168.977V236.852C597.968 241.893 594.007 245.854 588.966 245.854H486.164" stroke="white" stroke-width="1.05513" stroke-miterlimit="10"/>
<path d="M700.05 159.975H631.996" stroke="white" stroke-width="1.05513" stroke-miterlimit="10"/>
<path d="M705.992 156.914H700.05V162.855H705.992V156.914Z" stroke="white" stroke-width="1.05513" stroke-miterlimit="10"/>
<path d="M687.087 212.186H681.146V218.127H687.087V212.186Z" stroke="white" stroke-width="1.05513" stroke-miterlimit="10"/>
<path d="M631.996 156.914H626.054V162.855H631.996V156.914Z" stroke="white" stroke-width="1.05513" stroke-miterlimit="10"/>
<path d="M629.115 162.855V206.245C629.115 211.286 633.076 215.247 638.117 215.247H681.146" stroke="white" stroke-width="1.05513" stroke-miterlimit="10"/>
<path d="M275.157 267.098H199.54C194.499 267.098 190.538 263.137 190.538 258.096V190.221C190.538 185.18 186.577 181.219 181.536 181.219H6.89795" stroke="white" stroke-width="1.05513" stroke-miterlimit="10"/>
<path d="M281.091 269.997V264.056H275.15V269.997H281.091Z" stroke="white" stroke-width="1.05513" stroke-miterlimit="10"/>
<path d="M6.94141 184.162L6.94141 178.221H1.0001L1.0001 184.162H6.94141Z" stroke="white" stroke-width="1.05513" stroke-miterlimit="10"/>
<path d="M48.0137 161.969V156.028H42.0724V161.969H48.0137Z" stroke="white" stroke-width="1.05513" stroke-miterlimit="10"/>
<path d="M121.583 181.219V167.896C121.583 162.855 117.623 158.895 112.582 158.895H48.1274" stroke="white" stroke-width="1.05513" stroke-miterlimit="10"/>
<path d="M126.117 227.348V221.406H120.176V227.348H126.117Z" stroke="white" stroke-width="1.05513" stroke-miterlimit="10"/>
<path d="M190.719 224.249H126.084" stroke="white" stroke-width="1.05513" stroke-miterlimit="10"/>
<path d="M651.8 370.441H576.183C571.142 370.441 567.181 374.402 567.181 379.443V447.138C567.181 452.179 563.22 456.14 558.179 456.14H525.952" stroke="white" stroke-width="1.05513" stroke-miterlimit="10"/>
<path d="M651.895 373.401L657.836 373.401L657.836 367.46L651.895 367.46L651.895 373.401Z" stroke="white" stroke-width="1.05513" stroke-miterlimit="10"/>
<path d="M520.025 459.185L525.966 459.185L525.966 453.243L520.025 453.243L520.025 459.185Z" stroke="white" stroke-width="1.05513" stroke-miterlimit="10"/>
<path d="M737.058 345.018L743 345.018L743 339.077L737.058 339.077L737.058 345.018Z" stroke="white" stroke-width="1.05513" stroke-miterlimit="10"/>
<path d="M567.361 399.787H731.017C736.058 399.787 740.019 395.826 740.019 390.785V344.875" stroke="white" stroke-width="1.05513" stroke-miterlimit="10"/>
<path d="M352.033 467.122H346.092V473.063H352.033V467.122Z" stroke="white" stroke-width="1.05513" stroke-miterlimit="10"/>
<path d="M267.055 436.335V461.181C267.055 466.222 271.016 470.183 276.057 470.183H346.272" stroke="white" stroke-width="1.05513" stroke-miterlimit="10"/>
<rect x="467.491" y="195.251" width="18.2683" height="18.2683" fill="#8AE3FF"/>
<rect x="457.342" y="208.445" width="18.2683" height="18.2683" fill="#8AE3FF"/>
<rect x="505.042" y="167.848" width="9.13416" height="9.13416" fill="#8AE3FF"/>
<rect x="604.503" y="42" width="9.13416" height="9.13416" fill="#8AE3FF"/>
<rect x="604.503" y="131.312" width="16.2385" height="16.2385" fill="#8AE3FF"/>
<rect x="538.534" y="199.311" width="9.13416" height="9.13416" fill="#8AE3FF"/>
<rect x="530.415" y="188.147" width="3.04472" height="3.04472" fill="#8AE3FF"/>
<rect x="537.52" y="182.057" width="3.04472" height="3.04472" fill="#8AE3FF"/>
<rect x="452.267" y="173.938" width="3.04472" height="3.04472" fill="#8AE3FF"/>
<rect x="459.372" y="167.848" width="3.04472" height="3.04472" fill="#8AE3FF"/>
<rect x="398.477" y="238.892" width="9.13416" height="9.13416" fill="#8AE3FF"/>
<rect x="444.148" y="250.056" width="9.13416" height="9.13416" fill="#8AE3FF"/>
<rect x="436.029" y="238.892" width="3.04472" height="3.04472" fill="#8AE3FF"/>
<rect x="443.133" y="232.803" width="3.04472" height="3.04472" fill="#8AE3FF"/>
<rect x="366" y="265.28" width="9.13416" height="9.13416" fill="#8AE3FF"/>
<rect x="370.06" y="258.175" width="9.13416" height="9.13416" fill="#8AE3FF"/>
<rect x="479.67" y="241.937" width="9.13416" height="9.13416" fill="#8AE3FF"/>
<rect x="513.162" y="273.399" width="9.13416" height="9.13416" fill="#8AE3FF"/>
<rect x="505.042" y="262.235" width="3.04472" height="3.04472" fill="#8AE3FF"/>
<rect x="512.146" y="256.145" width="3.04472" height="3.04472" fill="#8AE3FF"/>
</svg>
