<?xml version="1.0" encoding="utf-8"?>
<!-- Generator: Adobe Illustrator 23.0.6, SVG Export Plug-In . SVG Version: 6.00 Build 0)  -->
<svg version="1.1" id="レイヤー_1" xmlns="http://www.w3.org/2000/svg" xmlns:xlink="http://www.w3.org/1999/xlink" x="0px"
	 y="0px" viewBox="0 0 646 433" style="enable-background:new 0 0 646 433;" xml:space="preserve">
<style type="text/css">
	.st0{fill:none;stroke:#2C48FF;stroke-miterlimit:10;}
	.st1{fill:#2C48FF;}
	.st2{fill:none;stroke:#FFFFFF;stroke-miterlimit:10;}
	.st3{fill:none;stroke:#2C48FF;stroke-width:0.75;stroke-miterlimit:10;}
</style>
<path class="st0" d="M219.1,281.4l-0.8,6.9"/>
<path class="st0" d="M226.6,215.4l-6.3,56.1"/>
<path class="st0" d="M235.6,281.6l-0.8,7.4"/>
<path class="st0" d="M247.1,180.3l-10.3,91.2"/>
<path class="st0" d="M252.1,281.8l-0.9,7.9"/>
<path class="st0" d="M262.1,194l-8.8,77.5"/>
<path class="st0" d="M268.7,281.7l-1,8.6"/>
<path class="st0" d="M275.9,217.4l-6.1,54.1"/>
<path class="st0" d="M285.2,281.7l-1.1,9.4"/>
<path class="st0" d="M294.9,195.4l-8.6,76.4"/>
<path class="st0" d="M307.3,232.5l-6.7,59.2"/>
<path class="st0" d="M314.7,166.6l-5.1,44.8"/>
<path class="st0" d="M324.2,229.1l-7.1,63.3"/>
<path class="st0" d="M339.8,236.8l-6.4,56.3"/>
<path class="st0" d="M357.4,228.1l-7.4,65.7"/>
<path class="st0" d="M374.1,226.3l-7.7,68.2"/>
<path class="st0" d="M377.2,198.8l-1.8,16.1"/>
<path class="st0" d="M567.5,153.7h-18.7c-2.3,0-4.6,0.9-6.2,2.6c-1.6,1.6-2.6,3.9-2.6,6.2v66.1c0,2.3-0.9,4.6-2.6,6.2
	c-1.6,1.6-3.9,2.6-6.2,2.6h-49.9"/>
<path class="st0" d="M639.7,153.7h-66.4"/>
<path class="st0" d="M645.4,150.8h-5.8v5.8h5.8V150.8z"/>
<path class="st0" d="M626.9,204.8h-5.8v5.8h5.8V204.8z"/>
<path class="st0" d="M573.3,150.8h-5.8v5.8h5.8V150.8z"/>
<path class="st0" d="M570.4,156.6v42.3c0,2.3,0.9,4.6,2.6,6.2c1.6,1.6,3.9,2.6,6.2,2.6h41.9"/>
<path class="st1" d="M81,253.4c1.3,0,2.6,0.2,3.8,0.7c1.2,0.5,2.3,1.3,3.2,2.2l0,0c1,0.9,1.7,2,2.3,3.2c0.5,1.2,0.7,2.5,0.7,3.8
	c0,1.3-0.2,2.6-0.7,3.9c-0.5,1.2-1.3,2.3-2.2,3.3c-0.9,0.9-2,1.6-3.1,2c-1.2,0.5-2.4,0.7-3.7,0.6c-2.7,0.1-5.4-0.8-7.4-2.6
	c-1.8-1.9-2.7-4.5-2.7-7.1c-0.1-1.3,0.1-2.6,0.6-3.9c0.5-1.2,1.2-2.4,2.1-3.3c0.9-0.9,2-1.7,3.2-2.2c1.2-0.5,2.5-0.8,3.8-0.7
	L81,253.4z M80.9,252.4c-1.4,0-2.9,0.3-4.2,0.8c-1.3,0.6-2.5,1.4-3.5,2.4c-1,1-1.7,2.2-2.2,3.6c-0.5,1.3-0.7,2.7-0.7,4.2
	c-0.1,2.9,1,5.6,2.9,7.7c2.2,2,5.2,3.1,8.2,3c1.4,0,2.7-0.2,4-0.7c1.3-0.5,2.4-1.3,3.4-2.2c1-1,1.9-2.2,2.4-3.5
	c0.6-1.3,0.8-2.8,0.8-4.2c0-2.9-1.2-5.7-3.2-7.7c-2.1-2.1-4.8-3.2-7.7-3.2L80.9,252.4z"/>
<path class="st1" d="M87.5,233.4c0.1,0,0.2,0,0.3,0c0.1,0,0.2,0.1,0.2,0.1c0.1,0.1,0.1,0.1,0.2,0.2c0,0.1,0.1,0.2,0.1,0.2l1.3,8.1
	v0.4l0.4,0.2l4.8,2.9l0.4,0.2l0.4-0.2l7.7-2.9h0.4c0.1,0,0.2,0,0.3,0.1c0.1,0.1,0.2,0.1,0.2,0.2l6.1,10.5c0,0.2,0.3,0.7,0.2,0.9
	l-6.7,5.1l-0.4,0.3v0.5l0.3,3.1l-0.3,2.8v0.5l0.4,0.3l6.7,5.1c0.1,0.2-0.1,0.7-0.2,0.9l-6.1,10.7c-0.1,0.3-0.2,0.4-0.4,0.4
	c-0.1,0-0.3-0.1-0.4-0.1l0,0l-7.7-2.9l-0.4-0.1l-0.4,0.2l-4.8,2.9l-0.4,0.2v0.4l-1.3,8.3c0,0.2-0.3,0.5-0.9,0.6H75.3
	c-0.5-0.1-0.8-0.3-0.8-0.4V293l-1.3-8.4v-0.4l-0.4-0.2l-5.2-2.9l-0.4-0.2l-0.4,0.1l-7.7,2.9H59c-0.1,0.1-0.2,0.1-0.4,0.1
	c-0.1,0-0.2-0.1-0.4-0.4l-6.1-10.5c-0.3-0.6-0.1-0.7,0.1-0.8l6.4-5.2l0.3-0.3v-7l-0.3-0.3l-6.5-5.3c-0.2-0.1-0.3-0.2,0-0.8l6.1-10.5
	c0.1-0.1,0.1-0.2,0.3-0.2c0.1-0.1,0.2-0.1,0.3-0.1h0.4l7.7,2.9l0.4,0.2l0.4-0.2l5.2-2.9l0.4-0.2v-0.4l1.3-8.1v-0.1
	c0-0.2,0-0.4,0.7-0.4L87.5,233.4L87.5,233.4z M87.5,232.6H75.2c-1.1,0-1.6,0.4-1.6,1.3l-1.3,8.1l-5.2,2.9l-7.7-2.9
	c-0.2-0.1-0.4-0.1-0.6-0.1c-0.3,0-0.5,0.1-0.8,0.2c-0.2,0.1-0.4,0.3-0.6,0.5l-6.1,10.6c-0.4,0.9-0.3,1.5,0.3,1.9l6.4,5.2v6.1
	l-6.4,5.2c-0.6,0.4-0.8,1.1-0.3,1.9l6.1,10.6c0.1,0.2,0.2,0.5,0.5,0.6c0.2,0.2,0.5,0.2,0.7,0.3c0.3,0,0.5-0.1,0.8-0.2l7.7-2.9
	l5.2,2.9l1.3,8.4c0,0.6,0.5,1.1,1.6,1.3h12.3c0.4,0,0.7-0.2,1-0.4c0.3-0.2,0.5-0.5,0.6-0.9l1.3-8.4l4.8-2.9l7.7,2.9
	c0.2,0.1,0.5,0.2,0.8,0.2c0.3,0,0.5-0.1,0.7-0.3c0.2-0.2,0.4-0.4,0.4-0.6l6.1-10.6c0.4-0.9,0.4-1.5,0-1.9l-6.8-5.2l0.3-2.9l-0.3-3.2
	l6.8-5.2c0.4-0.4,0.4-1.1,0-1.9l-6.1-10.6c-0.1-0.2-0.3-0.4-0.6-0.5c-0.2-0.1-0.5-0.2-0.8-0.2c-0.2,0-0.4,0-0.6,0.1l-7.7,2.9
	l-4.8-2.9l-1.3-8.1c-0.1-0.4-0.3-0.7-0.6-1C88.2,232.7,87.9,232.5,87.5,232.6L87.5,232.6z"/>
<path class="st1" d="M590.3,261.7v169.9h-261L250.1,352h261.8l-1.5-1.5l-88.7-88.7H590.3L590.3,261.7z M591.1,260.8H419.5l90.2,90.2
	H247.9l80.9,81.4h262.3L591.1,260.8L591.1,260.8z"/>
<path class="st1" d="M364.2,0.9l79.4,79.6H181.8l1.5,1.5l88.7,88.7H103.5V0.9H364.2z M364.6,0h-262v171.6h171.6l-90.2-90.2h261.8
	L364.6,0z"/>
<path class="st0" d="M310,221.2h73.7c2.3,0,4.6-0.9,6.2-2.6c1.6-1.6,2.6-3.9,2.6-6.2v-66.2c0-2.3,0.9-4.6,2.6-6.2
	c1.6-1.6,3.9-2.6,6.2-2.6h31.4"/>
<path class="st0" d="M310,218.3h-5.8v5.8h5.8V218.3z"/>
<path class="st0" d="M438.5,134.6h-5.8v5.8h5.8V134.6z"/>
<path class="st0" d="M290.7,277.1h-73.7c-2.3,0-4.6-0.9-6.2-2.6c-1.6-1.6-2.6-3.9-2.6-6.2v-48.1c0-2.3-0.9-4.6-2.6-6.2
	c-1.6-1.6-3.9-2.6-6.2-2.6H6.8"/>
<path class="st2" d="M296.4,279.9v-5.8h-5.8v5.8H296.4z"/>
<path class="st0" d="M6.8,214.2v-5.8H1v5.8H6.8z"/>
<path class="st0" d="M46.8,192.4v-5.8h-5.8v5.8H46.8z"/>
<path class="st0" d="M118.5,211.4v-13c0-2.3-0.9-4.6-2.6-6.2c-1.6-1.6-3.9-2.6-6.2-2.6H46.8"/>
<path class="st1" d="M333.1,110.9h1.9c24.8,1.4,46,10.2,62.9,26.3c16.9,16.1,27.1,36.6,30.3,60.8v0.6l0.7,0.1
	c16.7,1.9,32,10.4,42.5,23.5c10.8,12.8,15.8,28.7,14.7,47c-1.5,18.4-9.9,35.7-23.4,48.3c-13.2,12-30.5,18.6-48.3,18.2h-1.2
	l-177.3-6.6c-22.6-1.8-41.4-10.7-55.7-26.6c-13.9-16-20.3-35.8-18.9-58.9c2.1-21.9,10.6-40.3,25.2-54.8
	c14.3-14.4,33.2-23.3,53.4-25.2h0.4l0.2-0.4c9.8-16.1,23.6-29.4,40-38.8C296.5,115.4,314.7,110.8,333.1,110.9L333.1,110.9z
	 M333.1,110.1c-18.6-0.2-36.9,4.5-53.1,13.7c-16.5,9.4-30.4,22.8-40.3,39.1c-20.4,1.9-39.5,10.9-54,25.5
	c-14.8,14.7-23.3,33.1-25.4,55.3c-1.4,23.5,5,43.4,19.1,59.6c14.5,16.3,33.3,25.2,56.3,26.9l177.3,6.6h1.4
	c19.1,0,35.4-6.1,48.9-18.4c13.7-12.7,22.2-30.2,23.7-48.8c1-18.7-3.9-34.6-14.9-47.7c-10.7-13.3-26.2-21.8-43.1-23.8
	c-3.2-24.6-13.4-45-30.5-61.3c-17.1-16.3-38.3-25.2-63.4-26.6L333.1,110.1z"/>
<path class="st1" d="M311.7,95.3v0.9h1.9c24.8,1.4,46,10.2,62.9,26.3c16.9,16.1,27.1,36.6,30.3,60.8v0.7h0.7
	c16.8,2,32.1,10.4,42.6,23.6c10.8,12.9,15.8,28.7,14.7,47c-1.5,18.5-9.9,35.7-23.5,48.3c-13.2,12-30.5,18.5-48.3,18.2h-1.3
	l-177.3-6.6c-22.6-1.8-41.4-10.7-55.7-26.7c-13.9-16-20.3-35.8-18.9-58.9c2.1-21.9,10.5-40.4,25.2-54.8
	c14.4-14.4,33.3-23.3,53.5-25.2h0.4l0.2-0.4c9.8-16.1,23.6-29.5,40-38.8c16.1-9,34.2-13.7,52.7-13.6L311.7,95.3L311.7,95.3z
	 M311.7,95.3c-18.6-0.2-36.9,4.5-53.1,13.7c-16.5,9.4-30.4,22.8-40.3,39.1c-20.4,1.9-39.5,10.9-54,25.5
	c-14.8,14.7-23.3,33.2-25.5,55.3c-1.4,23.5,5,43.4,19.1,59.7c14.6,16.2,33.3,25.2,56.3,26.9l177.3,6.6h1.3
	c19.1,0,35.4-6.1,48.9-18.4c13.7-12.8,22.2-30.2,23.7-48.9c1.1-18.7-3.9-34.6-14.9-47.7c-10.7-13.3-26.1-21.9-43.1-23.9
	c-3.2-24.6-13.4-45-30.5-61.3c-17.1-16.3-38.3-25.2-63.4-26.7L311.7,95.3z"/>
<path class="st0" d="M428.6,198.3l-21.4-14.7"/>
<path class="st3" d="M435.9,194.1l20.8,14.3"/>
<path class="st3" d="M174.6,302.2l17,11.5"/>
<path class="st3" d="M218.5,148.5l21.5,14.7"/>
<path class="st3" d="M366.2,113.4l19.1,13.2"/>
<path class="st1" d="M161.1,335.7c3.2-0.1,6.3,0.5,9.2,1.7c2.9,1.2,5.6,3,7.8,5.2c2.3,2.1,4,4.7,5.2,7.5c1.2,2.8,1.7,5.9,1.6,9
	c0.1,3.2-0.5,6.3-1.7,9.2c-1.2,2.9-2.9,5.6-5.2,7.8c-2.2,2.3-4.8,4.2-7.7,5.4c-2.9,1.3-6.1,1.9-9.3,1.9c-3.2,0-6.3-0.7-9.3-1.9
	c-2.9-1.3-5.6-3.1-7.7-5.4c-2.2-2.2-4-4.9-5.2-7.8s-1.8-6.1-1.7-9.2c-0.1-3.1,0.5-6.2,1.7-9c1.2-2.8,3-5.4,5.2-7.5
	c2.2-2.2,4.9-4,7.8-5.2C154.8,336.2,157.9,335.6,161.1,335.7L161.1,335.7z M161.1,334.8c-3.3-0.1-6.5,0.5-9.5,1.8
	c-3,1.2-5.8,3.1-8,5.4c-2.3,2.2-4.2,4.8-5.4,7.8c-1.2,3-1.8,6.1-1.7,9.4c-0.1,3.3,0.5,6.5,1.8,9.5c1.2,3,3.1,5.8,5.4,8
	c2.3,2.4,5,4.3,8,5.6c3,1.3,6.3,2,9.6,2s6.6-0.7,9.6-2c3-1.3,5.8-3.2,8-5.6c2.3-2.3,4.2-5,5.4-8c1.2-3,1.8-6.3,1.8-9.5
	c0.1-3.2-0.5-6.4-1.7-9.4c-1.2-3-3.1-5.6-5.4-7.8c-2.3-2.3-5-4.2-8-5.4c-3-1.2-6.3-1.8-9.5-1.8H161.1z"/>
<path class="st0" d="M229.2,340.6l-15.2,11.9l0.5,6.7l-0.5,7.1l15.2,11.9c0.6,0.5,1,1.3,1.1,2c0.1,0.8-0.1,1.6-0.6,2.2l-13.8,24.8
	c-0.5,0.7-1.3,1.3-2.1,1.6c-0.9,0.3-1.8,0.2-2.6-0.1l-17.6-7.1c-3.6,2.9-7.6,5.3-11.9,7.1l-2.9,18.6c-0.1,0.9-0.5,1.7-1.1,2.3
	c-0.6,0.6-1.4,1-2.3,1.1h-28.6c-0.9-0.1-1.7-0.5-2.3-1.1c-0.6-0.6-1-1.4-1.1-2.3l-2.9-18.6c-4.2-2-8.2-4.4-11.9-7.2l-17.6,7.1
	c-0.8,0.4-1.6,0.4-2.4,0.1c-0.8-0.3-1.5-0.8-1.9-1.6l-14.3-24.8c-0.2-0.3-0.4-0.7-0.5-1.1c-0.1-0.4-0.1-0.8,0-1.2
	c0.1-0.4,0.3-0.8,0.5-1.1c0.2-0.3,0.5-0.6,0.9-0.8l14.8-11.9l-0.5-7.1l0.5-6.7l-14.8-11.9c-0.7-0.5-1.3-1.3-1.4-2.2
	c-0.2-0.9,0-1.8,0.5-2.6l14.3-24.3c0.4-0.8,1-1.4,1.8-1.7s1.7-0.4,2.5-0.2l17.6,7.6c3.5-3,7.6-5.4,11.9-7.1l2.9-19"/>
<path class="st1" d="M484.9,122.4c2-0.1,4,0.3,5.9,1c1.9,0.8,3.5,1.9,4.9,3.4c1.5,1.4,2.7,3,3.4,4.9c0.8,1.9,1.1,3.9,1,5.9
	c0,2-0.3,4-1.1,5.9c-0.8,1.9-1.9,3.6-3.4,5c-1.4,1.3-3,2.4-4.8,3.1c-1.8,0.7-3.7,1-5.6,1c-4.1,0.1-8.2-1.3-11.3-4
	c-2.7-3-4.1-6.8-4-10.8c-0.1-2,0.2-4,0.9-5.8c0.7-1.9,1.8-3.6,3.1-5c1.4-1.4,3.1-2.6,4.9-3.4C480.8,122.8,482.8,122.4,484.9,122.4
	L484.9,122.4z M484.8,121.5c-2.1,0-4.2,0.4-6.2,1.2c-2,0.8-3.7,2-5.2,3.5c-1.5,1.5-2.6,3.3-3.4,5.3c-0.7,2-1.1,4.1-1,6.2
	c-0.1,4.2,1.5,8.4,4.4,11.5c3.3,2.9,7.5,4.4,11.9,4.3c2,0.1,4-0.3,5.9-1c1.9-0.7,3.6-1.9,5-3.3c1.5-1.5,2.8-3.3,3.6-5.2
	c0.8-2,1.2-4.1,1.2-6.2c0-4.3-1.7-8.4-4.8-11.4C493.3,123.3,489.2,121.6,484.8,121.5L484.8,121.5z"/>
<path class="st1" d="M494.4,92.9c0.4,0,0.7,0.1,1,0.3c0.3,0.2,0.5,0.5,0.5,0.9l1.9,11.9v0.4l0.4,0.2l7.1,4.3l0.4,0.2l0.4-0.2
	l11.4-4.3c0.2,0,0.4,0,0.6,0c0.2,0,0.5,0,0.7,0.2c0.2,0.1,0.4,0.3,0.5,0.5l9.1,15.6c0.4,0.9,0.5,1.5,0.2,1.8l-9.9,7.6l-0.4,0.3v0.5
	l0.5,4.7l-0.5,4.2v0.5l0.4,0.3l9.9,7.6c0.3,0.3,0.2,0.9-0.2,1.8l-9.1,15.8c-0.4,0.8-0.8,0.8-0.9,0.8c-0.3,0-0.5-0.1-0.8-0.2h-0.1
	l-11.4-4.3l-0.4-0.2l-0.4,0.2l-7.1,4.3l-0.4,0.2v0.4l-1.9,12.3c-0.2,0.3-0.4,0.6-0.7,0.8c-0.3,0.2-0.6,0.4-1,0.4h-18
	c-1.1-0.2-1.6-0.6-1.6-1v-0.1l-1.9-12.3v-0.4l-0.4-0.2l-7.6-4.3l-0.4-0.2l-0.4,0.1l-11.4,4.3c-0.2,0.1-0.5,0.2-0.8,0.2
	c-0.1,0-0.5,0-0.9-0.8l-9-15.7c-0.6-1.2-0.1-1.5,0.2-1.8l9.5-7.6l0.3-0.3v-10l-0.3-0.3l-9.7-7.6c-0.3-0.2-0.8-0.5-0.2-1.8l9-15.7
	c0.1-0.2,0.3-0.4,0.5-0.5c0.2-0.1,0.5-0.2,0.7-0.2c0.2,0,0.4,0,0.6,0l11.3,4.4l0.4,0.1l0.4-0.2l7.6-4.3l0.4-0.2V106l1.9-11.9v-0.1
	c0-0.4,0-1,1.5-1h18.1H494.4z M494.3,92h-18c-1.6,0-2.4,0.6-2.4,1.9l-1.9,11.9l-7.6,4.3l-11.4-4.3c-0.3-0.1-0.6-0.1-0.9-0.1
	c-0.4,0-0.8,0.1-1.1,0.3c-0.3,0.2-0.6,0.5-0.8,0.8l-9,15.8c-0.6,1.3-0.5,2.2,0.5,2.8l9.5,7.6v9l-9.5,7.6c-0.9,0.6-1.1,1.6-0.5,2.8
	l9,15.8c0.1,0.4,0.4,0.7,0.7,0.9c0.3,0.2,0.7,0.4,1.1,0.4c0.4,0,0.8-0.1,1.2-0.3l11.4-4.3l7.6,4.3l1.9,12.3c0,0.9,0.8,1.6,2.4,1.9
	h18.1c0.5-0.1,1-0.3,1.4-0.6c0.4-0.3,0.7-0.8,0.9-1.3l1.9-12.3l7.1-4.3l11.4,4.3c0.4,0.2,0.8,0.3,1.2,0.3c0.4,0,0.8-0.1,1.1-0.4
	c0.3-0.2,0.6-0.6,0.7-0.9l9.1-15.8c0.6-1.3,0.6-2.2,0-2.8l-10-7.6l0.5-4.3l-0.5-4.8l10-7.6c0.6-0.6,0.6-1.6,0-2.8l-9.1-15.8
	c-0.2-0.3-0.5-0.6-0.8-0.8c-0.3-0.2-0.7-0.3-1.1-0.3c-0.3,0-0.6,0-0.9,0.1L506,110l-7.1-4.3l-1.9-11.9c-0.1-0.6-0.4-1.1-0.8-1.4
	c-0.4-0.4-1-0.5-1.6-0.5L494.3,92z"/>
</svg>
