<svg width="51" height="54" viewBox="0 0 51 54" fill="none" xmlns="http://www.w3.org/2000/svg">
<path d="M46.9816 44.7973C46.5672 44.8387 46.1957 45.0982 46.0554 45.5188C45.9675 45.7828 45.8592 46.0414 45.7326 46.2735L45.7283 46.2813L45.7243 46.2893C45.5853 46.5673 45.455 46.8042 45.3091 47.013C45.0608 47.3629 45.0808 47.8429 45.2912 48.1831L46.2682 49.8035C46.2683 49.8036 46.2683 49.8037 46.2684 49.8038C46.7746 50.6477 46.5334 51.7114 45.706 52.2572C45.1542 52.6185 44.4627 52.6682 43.893 52.3741L43.893 52.3741L43.8872 52.3712C43.6222 52.2387 43.4023 52.0535 43.2388 51.8173L43.2388 51.8173L43.2358 51.8131L42.1405 50.2654C42.0519 50.1346 41.919 50.0018 41.7376 49.9111L41.719 49.9018L41.6997 49.8941C41.5333 49.8276 41.3143 49.772 41.069 49.8181C40.502 49.9084 39.9278 49.9508 39.3866 49.9082C38.9228 49.8611 38.5494 50.16 38.3672 50.4516L38.3605 50.4623L38.3544 50.4733L37.4229 52.1452L37.4229 52.1452L37.4204 52.1498C36.9505 53.0143 35.9068 53.3465 35.0298 52.8986C34.1388 52.4436 33.7716 51.4147 34.1822 50.5189L34.9703 48.7992L34.9704 48.7992L34.9727 48.7939C35.1353 48.4282 35.1099 47.9783 34.8238 47.6445L34.8239 47.6444L34.8168 47.6365C34.4423 47.218 34.1344 46.756 33.8921 46.2494L33.8819 46.2281L33.8698 46.2079C33.7922 46.0786 33.6538 45.8623 33.3847 45.7468C33.2327 45.6736 33.067 45.6308 32.8917 45.6308V45.6307L32.8854 45.6308L30.9746 45.6547L30.9611 45.6549L30.9476 45.6558C30.6958 45.6725 30.4021 45.6048 30.1297 45.4686L30.1297 45.4685L30.1239 45.4657C29.5544 45.1902 29.1773 44.616 29.1394 43.9526L29.1394 43.9523C29.083 42.9749 29.7951 42.136 30.766 42.0426L30.7685 42.0424L32.6548 41.8514L32.605 41.3538L32.6554 41.8513L32.6549 41.8513C33.0693 41.8099 33.4408 41.5504 33.581 41.1298C33.669 40.8658 33.7772 40.6073 33.9038 40.3751L33.9164 40.3522L33.9264 40.328C34.0249 40.0916 34.1675 39.864 34.3272 39.6358C34.5756 39.2858 34.5557 38.8058 34.3452 38.4655L33.3682 36.8451C33.3681 36.845 33.368 36.8449 33.368 36.8448C32.8618 36.0008 33.1031 34.9371 33.9305 34.3913C34.4823 34.0301 35.1738 33.9805 35.7435 34.2745L35.7434 34.2745L35.7492 34.2774C36.0142 34.4099 36.2341 34.5951 36.3976 34.8313L36.3976 34.8313L36.4006 34.8355L37.4959 36.3833C37.5846 36.5141 37.7174 36.6468 37.8988 36.7375L37.9174 36.7468L37.9367 36.7545C38.103 36.8211 38.3222 36.8766 38.5674 36.8305C39.1344 36.7403 39.7085 36.6978 40.2498 36.7404C40.689 36.7853 41.0805 36.5379 41.2821 36.1752C41.2822 36.1751 41.2823 36.175 41.2823 36.1748L42.212 34.5061C42.2123 34.5057 42.2125 34.5053 42.2127 34.5049C42.7023 33.6401 43.7492 33.3212 44.6343 33.752C45.5226 34.2079 45.8881 35.2352 45.4781 36.1297L44.6899 37.8494L44.6899 37.8494L44.6876 37.8547C44.525 38.2204 44.5504 38.6704 44.8365 39.0041L44.8364 39.0042L44.8435 39.0121C45.218 39.4306 45.5259 39.8926 45.7682 40.3992L45.7784 40.4205L45.7905 40.4407C45.8681 40.57 46.0065 40.7863 46.2756 40.9019C46.4276 40.9751 46.5933 41.0179 46.7686 41.0179V41.0179L46.7749 41.0178L48.6857 40.9939L48.6992 40.9938L48.7127 40.9929C48.9645 40.9761 49.2582 41.0438 49.5306 41.18L49.5306 41.1801L49.5364 41.1829C50.1038 41.4575 50.4779 42.0506 50.4964 42.6822L50.4962 42.6822L50.497 42.6963C50.5534 43.6737 49.8413 44.5127 48.8704 44.606L48.8679 44.6063L46.9816 44.7973ZM46.9816 44.7973L47.0314 45.2948M46.9816 44.7973L46.981 44.7973L47.0314 45.2948M47.0314 45.2948L48.9183 45.1037M47.0314 45.2948C46.7925 45.3187 46.6014 45.462 46.5298 45.677C46.4343 45.9636 46.3148 46.2502 46.1715 46.5129C46.0282 46.7995 45.8849 47.0623 45.7177 47.3011C45.5983 47.4683 45.5983 47.731 45.7177 47.9221L48.9183 45.1037M48.9183 45.1037C50.1603 44.9843 51.0679 43.9095 50.9962 42.6675C50.9723 41.8554 50.4946 41.0911 49.7542 40.7328C49.4198 40.5656 49.0377 40.4701 48.6794 40.494L48.9183 45.1037ZM42.8277 52.1019C43.0426 52.4124 43.3292 52.6513 43.6636 52.8185C44.4041 53.2006 45.2878 53.129 45.9804 52.6752C47.0314 51.9825 47.3419 50.6211 46.697 49.5463L42.8277 52.1019ZM42.8277 52.1019L41.729 50.5494C41.6812 50.4778 41.6096 50.4061 41.514 50.3583C41.3946 50.3106 41.2752 50.2867 41.1557 50.3106C40.5586 50.4061 39.9376 50.4539 39.3405 50.4061C39.1255 50.3822 38.9106 50.5255 38.7912 50.7166L37.8597 52.3885M42.8277 52.1019L37.8597 52.3885M37.8597 52.3885C37.2625 53.4872 35.925 53.9172 34.8024 53.3439C33.6799 52.7707 33.2022 51.457 33.7276 50.3106L34.5158 48.5909L37.8597 52.3885ZM36.8087 34.5467C36.5938 34.2362 36.3072 33.9974 35.9728 33.8302M36.8087 34.5467L36.8087 34.5467L36.8087 34.5467ZM36.8087 34.5467L37.9074 36.0992C37.9552 36.1709 38.0269 36.2425 38.1224 36.2903L35.9728 33.8302M35.9728 33.8302C35.2324 33.448 34.3486 33.5197 33.656 33.9735L35.9728 33.8302ZM45.1445 38.0578C45.0489 38.2727 45.0728 38.5116 45.2161 38.6788C45.6222 39.1326 45.9566 39.6341 46.2193 40.1835C46.2909 40.3029 46.3626 40.3984 46.482 40.4462C46.5776 40.494 46.6731 40.5179 46.7686 40.5179L45.1445 38.0578ZM45.1445 38.0578L45.9327 36.3381C46.4581 35.1916 45.9804 33.8779 44.8579 33.3047L45.1445 38.0578ZM33.9187 39.3475C33.7515 39.5864 33.5843 39.8491 33.4649 40.1357L33.9187 38.7265C34.0381 38.9176 34.0381 39.1803 33.9187 39.3475ZM41.0186 46.1999L41.0262 46.1995L41.0338 46.1988C41.4453 46.1614 41.8498 45.9323 42.0568 45.5184L42.9364 43.7592C43.1542 43.3564 43.0856 42.882 42.8743 42.5297L42.8681 42.5195L42.8615 42.5096L41.7628 40.8615C41.5315 40.5145 41.1044 40.2672 40.6415 40.3058L38.6656 40.4248L38.658 40.4253L38.6504 40.426C38.2389 40.4634 37.8344 40.6924 37.6274 41.1063L36.7437 42.8738C36.5415 43.2783 36.583 43.7558 36.8226 44.1152L37.9213 45.7632C38.1527 46.1102 38.5798 46.3575 39.0427 46.319L41.0186 46.1999Z" stroke="#1624BE"/>
<path d="M19.6774 17.2841L19.6906 17.2897L19.7042 17.2946C20.8306 17.7025 21.4155 18.9482 21.0495 20.0539C20.7 21.0378 19.7142 21.6002 18.7242 21.4644L18.7243 21.4643L18.7183 21.4636C18.5245 21.4393 18.4225 21.4213 18.3278 21.3807L18.3278 21.3806L18.3165 21.376C18.193 21.3267 18.1098 21.2924 18.0298 21.2443L18.0133 21.2345L17.9961 21.2259C17.9361 21.1959 17.89 21.1662 17.8264 21.124C17.6312 20.9714 17.4717 20.8293 17.3367 20.6751L17.3258 20.6625L17.314 20.6508C17.2816 20.6184 17.2583 20.5856 17.2093 20.512L17.2016 20.5005L17.1933 20.4894C17.0887 20.3499 16.9966 20.1685 16.9408 19.9868C16.9279 19.9361 16.9152 19.8918 16.9044 19.8541L16.9038 19.8519C16.8929 19.8137 16.8839 19.7821 16.8752 19.748C16.8383 19.5589 16.821 19.3613 16.8348 19.1704C16.8464 19.1162 16.8531 19.0698 16.8576 19.0375C16.8579 19.0359 16.8581 19.0344 16.8583 19.0329C16.8645 18.9898 16.8674 18.9717 16.8723 18.9521L16.8752 18.9405L16.8775 18.9289C16.8817 18.9077 16.8856 18.8879 16.8893 18.8694C16.9113 18.758 16.9247 18.69 16.947 18.6344L16.9508 18.6248L16.9543 18.6151C17.3024 17.6286 18.2896 17.0644 19.2809 17.2004L19.2809 17.2005L19.2869 17.2012C19.4807 17.2254 19.5827 17.2435 19.6774 17.2841Z" stroke="#1624BE"/>
<path d="M33.9231 28.8077L33.9195 28.8069L30.8424 28.0435C29.9341 27.8031 29.041 28.1171 28.3451 28.6257L28.3139 28.6485L28.2865 28.6759C27.7765 29.1859 27.2262 29.6665 26.6358 30.0753L26.6357 30.0752L26.6282 30.0806C25.8936 30.6096 25.4787 31.4666 25.5377 32.3816L25.5376 32.3816L25.5383 32.3906L25.8011 35.5673L25.8013 35.5703C25.8737 36.3849 25.3135 37.11 24.5141 37.2554L24.513 37.2556L19.976 38.0913C19.976 38.0913 19.976 38.0914 19.9759 38.0914C19.1796 38.2361 18.3998 37.7466 18.1825 36.968L18.182 36.9661L17.3231 33.9361C17.3229 33.9355 17.3227 33.935 17.3226 33.9344C17.086 33.079 16.4079 32.3677 15.5129 32.129C15.4751 32.1189 15.4376 32.109 15.4003 32.0991C15.0713 32.0118 14.7618 31.9298 14.4711 31.8135L14.4575 31.808L14.4435 31.8034C14.1042 31.6903 13.7638 31.5542 13.422 31.3947L13.4149 31.3914L13.4076 31.3882C12.5854 31.0359 11.6126 31.1203 10.868 31.6544L8.29178 33.4434L8.29173 33.4434L8.28423 33.4488C7.95912 33.6836 7.5878 33.7707 7.21461 33.7174L7.17943 33.7124H7.1439H7.14376H7.14362H7.14348H7.14334H7.14321H7.14307H7.14293H7.1428H7.14266H7.14253H7.14239H7.14226H7.14213H7.14199H7.14186H7.14173H7.1416H7.14147H7.14134H7.14121H7.14108H7.14095H7.14082H7.14069H7.14057H7.14044H7.14031H7.14019H7.14006H7.13994H7.13981H7.13969H7.13957H7.13944H7.13932H7.1392H7.13908H7.13896H7.13884H7.13872H7.1386H7.13848H7.13836H7.13824H7.13812H7.13801H7.13789H7.13777H7.13766H7.13754H7.13743H7.13731H7.1372H7.13708H7.13697H7.13686H7.13674H7.13663H7.13652H7.13641H7.1363H7.13619H7.13608H7.13597H7.13586H7.13575H7.13564H7.1356C6.7725 33.6511 6.4516 33.4877 6.21621 33.2019L6.21626 33.2018L6.21115 33.1958L3.22557 29.6848L3.22508 29.6842C2.70205 29.071 2.73571 28.1439 3.29933 27.5621L3.3012 27.5601L5.49509 25.2709C6.15714 24.6058 6.3537 23.6539 6.12229 22.7861C5.93725 22.0922 5.79962 21.3795 5.73095 20.647L5.7308 20.6455C5.64339 19.7423 5.1152 18.9362 4.27544 18.5453C4.27474 18.545 4.27404 18.5447 4.27334 18.5444L1.41115 17.1848L1.41116 17.1848L1.40686 17.1828C0.666523 16.8397 0.319755 15.9893 0.592687 15.2251L2.14519 10.8781C2.41579 10.1204 3.23224 9.68011 4.03705 9.88132L4.03794 9.88154L7.11906 10.6458L7.11904 10.6459L7.12582 10.6475C8.0134 10.8546 8.92974 10.5865 9.57542 9.94088C10.0805 9.4358 10.6568 8.95149 11.2337 8.53613C11.9683 8.00719 12.3833 7.15019 12.3243 6.23517L12.3243 6.23516L12.3236 6.22615L12.0609 3.04949L12.0609 3.04949L12.0606 3.04643C11.9882 2.23188 12.5485 1.5067 13.3478 1.36137L13.3489 1.36116L17.8859 0.525402C17.8861 0.52537 17.8862 0.525337 17.8864 0.525304C18.6826 0.380824 19.4622 0.870227 19.6794 1.64871L19.6794 1.64873L19.6817 1.65661L20.588 4.70947C20.8255 5.56343 21.5029 6.27327 22.3968 6.51163C22.7416 6.60359 23.1133 6.7196 23.4662 6.83724C23.8055 6.95033 24.1459 7.08644 24.4877 7.24591L24.4949 7.24927L24.5021 7.25239C25.323 7.60419 26.294 7.52059 27.0381 6.98883L29.6348 5.24972L29.6422 5.2448L29.6494 5.23962C29.9745 5.00482 30.3458 4.91767 30.719 4.97098L30.7542 4.97601H30.7897H30.7898H30.79H30.7901H30.7902H30.7904H30.7905H30.7907H30.7908H30.7909H30.7911H30.7912H30.7913H30.7915H30.7916H30.7917H30.7919H30.792H30.7921H30.7923H30.7924H30.7925H30.7926H30.7928H30.7929H30.793H30.7931H30.7933H30.7934H30.7935H30.7937H30.7938H30.7939H30.794H30.7941H30.7943H30.7944H30.7945H30.7946H30.7948H30.7949H30.795H30.7951H30.7952H30.7953H30.7955H30.7956H30.7957H30.7958H30.7959H30.796H30.7962H30.7963H30.7964H30.7965H30.7966H30.7967H30.7968H30.797H30.7971H30.7972H30.7973H30.7974H30.7975H30.7976H30.7977H30.7978H30.7979H30.798C31.1611 5.03733 31.482 5.20069 31.7174 5.48652L31.7173 5.48656L31.7224 5.49256L34.708 9.00361L34.7085 9.00418C35.2315 9.61739 35.1979 10.5445 34.6343 11.1263L34.6324 11.1283L32.4385 13.4175C31.7765 14.0826 31.5799 15.0345 31.8113 15.9023C31.9963 16.5962 32.134 17.3089 32.2026 18.0414L32.2028 18.0429C32.2902 18.9461 32.8184 19.7523 33.6582 20.1431C33.6589 20.1434 33.6596 20.1437 33.6603 20.144L36.5224 21.5036L36.5267 21.5056C37.2671 21.8487 37.6138 22.6991 37.3409 23.4633L35.7884 27.8103C35.5165 28.5717 34.6985 29.0061 33.9231 28.8077ZM21.4054 12.5086L21.4026 12.5076C17.6349 11.1748 13.4775 13.1214 12.1421 16.8965C10.8093 20.6641 12.7559 24.8215 16.531 26.1569C20.2981 27.4895 24.4548 25.5437 25.7908 21.7699C27.1511 18.0193 25.1719 13.8666 21.4054 12.5086Z" stroke="#1624BE"/>
<path d="M21.0047 20.0698L21.0033 20.0736C20.6553 21.0596 19.6689 21.6238 18.678 21.4884C18.5521 21.4703 18.3981 21.4333 18.2478 21.3911C18.216 21.3773 18.1793 21.3592 18.1277 21.3333L18.1213 21.3301C18.0768 21.3079 18.0195 21.2792 17.9578 21.2524C17.9214 21.2299 17.8859 21.2097 17.859 21.1943L17.8536 21.1912C17.808 21.1652 17.7822 21.1501 17.7634 21.1376C17.5898 21.0219 17.4434 20.8932 17.3163 20.7324C17.2804 20.681 17.2419 20.6348 17.2179 20.6061C17.2163 20.6042 17.2148 20.6024 17.2134 20.6006C17.1796 20.5601 17.168 20.5453 17.1617 20.5359C17.0525 20.3721 16.9743 20.2034 16.8874 19.9884C16.8765 19.9469 16.866 19.9101 16.8568 19.878L16.8562 19.8757C16.8453 19.8376 16.8363 19.806 16.8276 19.7719C16.7886 19.5724 16.7716 19.3632 16.7898 19.1627L16.7918 19.1401V19.1174C16.7918 19.114 16.7919 19.1084 16.7957 19.0908C16.7979 19.0804 16.801 19.0676 16.8061 19.0478C16.8073 19.0432 16.8088 19.0377 16.8104 19.0315C16.8146 19.0154 16.8199 18.995 16.8247 18.976L16.8276 18.9644L16.8299 18.9527C16.8341 18.9316 16.838 18.9118 16.8417 18.8932C16.8637 18.7819 16.8771 18.7138 16.8994 18.6582L16.9032 18.6487L16.9066 18.6389C17.2547 17.6529 18.2411 17.0888 19.2319 17.2241C19.3625 17.2429 19.5232 17.2819 19.6786 17.3261C20.8357 17.7177 21.4103 18.9495 21.0047 20.0698Z" stroke="#1624BE"/>
</svg>
