<svg width="1800" height="818" viewBox="0 0 1800 818" fill="none" xmlns="http://www.w3.org/2000/svg">
<path d="M-89.9006 238.967L-21.8619 306.98H-89.9006V238.967ZM-21.8619 306.98L46.1767 374.993V306.98H-21.8619ZM-89.9006 272.893H46.1767L12.2374 238.967H-89.9006V272.893ZM-55.8012 374.993H46.1767V341.067H-89.9006L-55.8012 374.993ZM-55.9613 272.893L-22.022 306.82H46.0166V272.893H-55.9613ZM-89.9006 306.98V340.907H12.0773L-21.8619 306.98H-89.9006ZM46.1767 340.907H114.215L46.1767 272.893V340.907ZM114.215 340.907L182.254 408.92V340.907H114.215ZM46.1767 306.98H182.254L148.315 273.053H46.3368V306.98H46.1767ZM80.116 408.92H182.094V374.993H46.0166L80.116 408.92ZM80.116 306.98L114.055 340.907H182.094V306.98H80.116ZM46.1767 340.907V374.833H148.155L114.215 340.907H46.1767ZM182.254 374.993H250.293L182.254 306.98V374.993ZM250.293 374.993L318.331 443.007V374.993H250.293V374.993ZM182.254 340.907H318.331L284.392 306.98H182.414V340.907H182.254ZM216.193 443.007H318.171V409.08H182.094L216.193 443.007ZM216.193 340.907L250.133 374.833H318.171V340.907H216.193ZM182.254 374.993V408.92H284.232L250.293 374.993H182.254ZM318.331 408.92H386.37L318.331 340.907V408.92ZM386.37 408.92L454.409 476.933V408.92H386.37ZM318.331 374.993H454.409L420.469 341.067H318.492V374.993H318.331ZM352.271 476.933H454.249V443.007H318.171L352.271 476.933ZM352.271 374.993L386.21 408.92H454.249V374.993H352.271ZM318.331 408.92V442.847H420.309L386.37 408.92H318.331ZM454.249 443.007H522.287L454.249 374.993V443.007ZM522.287 443.007L590.326 511.02V443.007H522.287ZM454.249 408.92H590.326L556.387 374.993H454.249V408.92ZM488.348 511.02H590.326V477.093H454.249L488.348 511.02ZM488.348 408.92L522.287 442.847H590.326V408.92H488.348ZM454.249 443.007V476.933H556.227L522.287 443.007H454.249ZM590.326 476.933H658.365L590.326 408.92V476.933ZM658.365 476.933L726.403 544.947V476.933H658.365ZM590.326 443.007H726.403L692.464 409.08H590.326V443.007ZM624.425 544.947H726.403V511.02H590.326L624.425 544.947ZM624.425 443.007L658.365 476.933H726.403V443.007H624.425ZM590.326 476.933V510.86H692.304L658.365 476.933H590.326ZM726.403 511.02H794.442L726.403 443.007V511.02ZM794.442 511.02L862.481 579.033V511.02H794.442ZM726.403 476.933H862.481L828.541 443.007H726.403V476.933ZM760.503 579.033H862.481V545.107H726.403L760.503 579.033ZM760.503 476.933L794.442 510.86H862.481V476.933H760.503ZM726.403 511.02V544.947H828.381L794.442 511.02H726.403ZM862.481 544.947H930.519L862.481 476.933V544.947ZM930.519 544.947L998.558 612.96V544.947H930.519ZM862.481 511.02H998.558L964.619 477.093H862.481V511.02ZM896.58 612.96H998.558V579.033H862.481L896.58 612.96ZM896.58 511.02L930.519 544.947H998.558V511.02H896.58ZM862.481 544.947V578.873H964.459L930.519 544.947H862.481ZM998.558 579.033H1066.6L998.558 511.02V579.033ZM1066.6 579.033L1134.64 647.047V579.033H1066.6ZM998.558 544.947H1134.64L1100.7 511.02H998.558V544.947ZM1032.5 647.047H1134.64V613.12H998.558L1032.5 647.047ZM1032.5 544.947L1066.44 578.873H1134.64V544.947H1032.5ZM998.558 579.033V612.96H1100.54L1066.6 579.033H998.558ZM1134.64 612.96H1202.67L1134.64 544.947V612.96ZM1202.67 612.96L1270.71 680.973V612.96H1202.67ZM1134.64 579.033H1270.71L1236.77 545.107H1134.64V579.033ZM1168.57 680.973H1270.71V647.047H1134.64L1168.57 680.973ZM1168.57 579.033L1202.51 612.96H1270.71V579.033H1168.57ZM1134.64 612.96V646.887H1236.61L1202.67 612.96H1134.64ZM1270.71 647.047H1338.75L1270.71 579.033V647.047ZM1338.75 647.047L1406.79 714.9V646.887H1338.75V647.047ZM1270.71 612.96H1406.79L1372.85 579.033H1270.71V612.96ZM1304.65 715.06H1406.79V681.133H1270.71L1304.65 715.06ZM1304.65 612.96L1338.59 646.887H1406.79V612.96H1304.65ZM1270.71 647.047V680.973H1372.69L1338.75 647.047H1270.71ZM1406.79 680.973H1474.83L1406.79 612.96V680.973ZM1474.83 680.973L1542.87 748.987V680.973H1474.83ZM1406.79 646.887H1542.87L1508.93 612.96H1406.79V646.887ZM1440.73 748.987H1542.71V714.9H1406.63L1440.73 748.987ZM1440.73 646.887L1474.67 680.813H1542.71V646.887H1440.73ZM1406.79 680.973V714.9H1508.77L1474.83 680.973H1406.79ZM1542.71 715.06H1610.75L1542.71 647.047V715.06ZM1610.75 715.06L1678.78 783.073V715.06H1610.75ZM1542.71 680.973H1678.78L1644.85 647.047H1542.87V680.973H1542.71ZM1576.81 782.913H1678.78V748.987H1542.71L1576.81 782.913ZM1576.81 680.973L1610.75 714.9H1678.78V680.973H1576.81ZM1542.71 715.06V748.987H1644.69L1610.75 715.06H1542.71ZM1678.78 748.987H1746.82L1678.78 680.973V748.987ZM1746.82 748.987L1814.86 817V748.987H1746.82ZM1678.78 714.9H1814.86L1780.92 680.973H1678.94V714.9H1678.78ZM1712.88 817H1814.86V783.073H1678.78L1712.88 817ZM1712.88 714.9L1746.82 748.827H1814.86V714.9H1712.88ZM1678.78 748.987V782.913H1780.76L1746.82 748.987H1678.78ZM-123.84 170.953H-55.8012L-123.84 102.94V170.953ZM-55.9613 170.953L12.0773 238.967V170.953H-55.9613ZM-123.84 136.867H12.2374L-21.8619 102.94H-123.84V136.867ZM-89.9006 238.967H12.0773V205.04H-124L-89.9006 238.967ZM-89.9006 136.867L-55.9613 170.793H12.0773V136.867H-89.9006ZM-123.84 170.953V204.88H-21.8619L-55.8012 170.953H-123.84V170.953ZM12.0773 204.88H80.116L12.0773 136.867V204.88ZM80.116 204.88L148.155 272.893V204.88H80.116ZM12.0773 170.953H148.155L114.215 137.027H12.0773V170.953ZM46.1767 272.893H148.155V238.967H12.0773L46.1767 272.893ZM46.1767 170.953L80.116 204.88H148.155V170.953H46.1767ZM12.0773 204.88V238.807H114.055L80.116 204.88H12.0773ZM-21.8619 68.8533H46.1767L-21.8619 1V68.8533ZM46.1767 68.8533L114.215 136.867V68.8533H46.1767ZM-21.8619 34.9267H114.215L80.116 1H-21.8619V34.9267ZM12.0773 136.867H114.055V102.94H-22.022L12.0773 136.867ZM12.0773 34.9267L46.0166 68.8533H114.055V34.9267H12.0773ZM-21.8619 68.8533V102.78H80.116L46.1767 68.8533H-21.8619ZM148.155 238.967H216.193L148.155 170.953V238.967ZM216.193 238.967L284.232 306.98V238.967H216.193ZM148.155 204.88H284.232L250.293 170.953H148.315V204.88H148.155ZM182.254 306.98H284.232V273.053H148.155L182.254 306.98ZM182.254 204.88L216.193 238.807H284.232V204.88H182.254ZM148.155 238.967V272.893H250.133L216.193 238.967H148.155ZM114.215 102.94H182.254L114.215 34.9267V102.94ZM182.254 102.94L250.293 170.953V102.94H182.254ZM114.215 68.8533H250.293L216.353 34.9267H114.375V68.8533H114.215ZM148.155 170.953H250.133V136.867H114.055L148.155 170.953ZM148.155 68.8533L182.094 102.78H250.133V68.8533H148.155ZM114.215 102.94V136.867H216.193L182.254 102.94H114.215ZM250.293 136.867H318.331L250.293 68.8533V136.867V136.867ZM318.331 136.867L386.37 204.88V136.867H318.331ZM250.293 102.94H386.37L352.431 69.0133H250.453V102.94H250.293ZM284.232 204.88H386.21V170.953H250.133L284.232 204.88ZM284.232 102.94L318.171 136.867H386.21V102.94H284.232ZM250.293 136.867V170.793H352.271L318.331 136.867H250.293ZM386.37 170.953H454.249L386.21 102.94V170.953H386.37ZM454.249 170.953L522.287 238.967V170.953H454.249ZM386.37 136.867H522.447L488.508 102.94H386.53V136.867H386.37ZM420.309 238.967H522.287V205.04H386.21L420.309 238.967ZM420.309 136.867L454.249 170.793H522.287V136.867H420.309ZM386.37 170.953V204.88H488.348L454.249 170.953H386.37ZM522.287 204.88H590.326L522.287 136.867V204.88ZM590.326 204.88L658.365 272.893V204.88H590.326ZM522.287 170.953H658.365L624.425 137.027H522.447V170.953H522.287ZM556.387 272.893H658.365V238.967H522.287L556.387 272.893ZM556.387 170.953L590.326 204.88H658.365V170.953H556.387ZM522.287 204.88V238.807H624.265L590.326 204.88H522.287ZM658.365 238.967H726.403L658.365 170.953V238.967ZM726.403 238.967L794.442 306.98V238.967H726.403ZM658.365 204.88H794.442L760.503 170.953H658.525V204.88H658.365ZM692.464 306.98H794.442V273.053H658.365L692.464 306.98ZM692.464 204.88L726.403 238.807H794.442V204.88H692.464ZM658.365 238.967V272.893H760.343L726.403 238.967H658.365ZM794.442 272.893H862.481L794.442 204.88V272.893ZM862.481 272.893L930.519 340.907V272.893H862.481ZM794.442 238.967H930.519L896.58 205.04H794.602V238.967H794.442ZM828.541 340.907H930.519V306.98H794.442L828.541 340.907ZM828.541 238.967L862.481 272.893H930.519V238.967H828.541ZM794.442 272.893V306.82H896.42L862.481 272.893H794.442ZM930.519 306.98H998.558L930.519 238.967V306.98ZM998.558 306.98L1066.6 374.993V306.98H998.558ZM930.519 272.893H1066.6L1032.66 238.967H930.679V272.893H930.519ZM964.619 374.993H1066.6V341.067H930.519L964.619 374.993ZM964.619 272.893L998.558 306.82H1066.6V272.893H964.619ZM930.519 306.98V340.907H1032.5L998.558 306.98H930.519ZM1066.6 340.907H1134.64L1066.6 272.893V340.907ZM1134.64 340.907L1202.67 408.92V340.907H1134.64ZM1066.6 306.98H1202.67L1168.73 273.053H1066.76V306.98H1066.6ZM1100.54 408.92H1202.51V374.993H1066.44L1100.54 408.92ZM1100.54 306.98L1134.48 340.907H1202.51V306.98H1100.54ZM1066.6 340.907V374.833H1168.57L1134.64 340.907H1066.6ZM1202.67 374.993H1270.71L1202.67 306.98V374.993ZM1270.71 374.993L1338.75 443.007V374.993H1270.71V374.993ZM1202.67 340.907H1338.75L1304.81 306.98H1202.83V340.907H1202.67ZM1236.61 443.007H1338.59V409.08H1202.51L1236.61 443.007ZM1236.61 340.907L1270.55 374.833H1338.59V340.907H1236.61ZM1202.67 374.993V408.92H1304.65L1270.71 374.993H1202.67ZM1338.75 408.92H1406.79L1338.75 340.907V408.92ZM1406.79 408.92L1474.83 476.933V408.92H1406.79ZM1338.75 374.993H1474.83L1440.89 341.067H1338.91V374.993H1338.75ZM1372.69 476.933H1474.67V443.007H1338.59L1372.69 476.933ZM1372.69 374.993L1406.63 408.92H1474.67V374.993H1372.69ZM1338.75 408.92V442.847H1440.73L1406.79 408.92H1338.75ZM1474.67 443.007H1542.71L1474.67 374.993V443.007V443.007ZM1542.71 443.007L1610.75 511.02V443.007H1542.71ZM1474.67 408.92H1610.75L1576.81 374.993H1474.83V408.92H1474.67ZM1508.77 511.02H1610.75V477.093H1474.67L1508.77 511.02ZM1508.77 408.92L1542.71 442.847H1610.75V408.92H1508.77ZM1474.67 443.007V476.933H1576.65L1542.71 443.007H1474.67ZM1610.75 476.933H1678.78L1610.75 408.92V476.933ZM1678.78 476.933L1746.82 544.947V476.933H1678.78ZM1610.75 443.007H1746.82L1712.88 409.08H1610.91V443.007H1610.75ZM1644.85 544.947H1746.82V511.02H1610.75L1644.85 544.947ZM1644.85 443.007L1678.78 476.933H1746.82V443.007H1644.85ZM1610.75 476.933V510.86H1712.72L1678.78 476.933H1610.75ZM1746.82 511.02H1814.86L1746.82 443.007V511.02ZM1814.86 511.02L1882.9 579.033V511.02H1814.86ZM1746.82 476.933H1882.9L1848.96 443.007H1746.98V476.933H1746.82ZM1780.92 579.033H1882.9V545.107H1746.82L1780.92 579.033ZM1780.92 476.933L1814.86 510.86H1882.9V476.933H1780.92ZM1746.82 511.02V544.947H1848.8L1814.86 511.02H1746.82ZM284.232 272.893H352.271L284.232 204.88V272.893ZM352.271 272.893L420.309 340.907V272.893H352.271ZM284.232 238.967H420.309L386.37 205.04H284.392V238.967H284.232ZM318.331 340.907H420.309V306.98H284.232L318.331 340.907ZM318.331 238.967L352.271 272.893H420.309V238.967H318.331ZM284.232 272.893V306.82H386.21L352.271 272.893H284.232ZM420.309 306.98H488.348L420.309 238.967V306.98ZM488.348 306.98L556.387 374.993V306.98H488.348ZM420.309 272.893H556.387L522.447 238.967H420.469V272.893H420.309ZM454.409 374.993H556.387V341.067H420.309L454.409 374.993ZM454.249 272.893L488.188 306.82H556.227V272.893H454.249ZM420.309 306.98V340.907H522.287L488.348 306.98H420.309ZM556.387 340.907H624.425L556.387 272.893V340.907ZM624.425 340.907L692.464 408.92V340.907H624.425ZM556.387 306.98H692.464L658.525 273.053H556.547V306.98H556.387ZM590.326 408.92H692.304V374.993H556.227L590.326 408.92ZM590.326 306.98L624.265 340.907H692.304V306.98H590.326ZM556.387 340.907V374.833H658.365L624.425 340.907H556.387ZM692.464 374.993H760.503L692.464 306.98V374.993V374.993ZM760.503 374.993L828.541 443.007V374.993H760.503V374.993ZM692.464 340.907H828.541L794.602 306.98H692.624V340.907H692.464ZM726.403 443.007H828.381V409.08H692.304L726.403 443.007ZM726.403 340.907L760.343 374.833H828.381V340.907H726.403ZM692.464 374.993V408.92H794.442L760.503 374.993H692.464ZM828.541 408.92H896.58L828.541 340.907V408.92ZM896.58 408.92L964.619 476.933V408.92H896.58ZM828.541 374.993H964.619L930.679 341.067H828.702V374.993H828.541ZM862.481 476.933H964.459V443.007H828.381L862.481 476.933ZM862.481 374.993L896.42 408.92H964.459V374.993H862.481ZM828.541 408.92V442.847H930.519L896.58 408.92H828.541ZM964.459 443.007H1032.5L964.459 374.993V443.007ZM1032.5 443.007L1100.54 511.02V443.007H1032.5ZM964.459 408.92H1100.54L1066.6 374.993H964.619V408.92H964.459ZM998.558 511.02H1100.54V477.093H964.459L998.558 511.02ZM998.558 408.92L1032.5 442.847H1100.54V408.92H998.558ZM964.459 443.007V476.933H1066.44L1032.5 443.007H964.459ZM1100.54 476.933H1168.57L1100.54 408.92V476.933ZM1168.57 476.933L1236.61 544.947V476.933H1168.57ZM1100.54 443.007H1236.61L1202.67 409.08H1100.7V443.007H1100.54ZM1134.64 544.947H1236.61V511.02H1100.54L1134.64 544.947ZM1134.64 443.007L1168.57 476.933H1236.61V443.007H1134.64ZM1100.54 476.933V510.86H1202.51L1168.57 476.933H1100.54ZM1236.61 511.02H1304.65L1236.61 443.007V511.02ZM1304.65 511.02L1372.69 579.033V511.02H1304.65ZM1236.61 476.933H1372.69L1338.75 443.007H1236.77V476.933H1236.61ZM1270.71 578.873H1372.69V544.947H1236.61L1270.71 578.873ZM1270.71 476.933L1304.65 510.86H1372.69V476.933H1270.71ZM1236.61 511.02V544.947H1338.59L1304.65 511.02H1236.61ZM1372.69 544.947H1440.73L1372.69 476.933V544.947ZM1440.73 544.947L1508.77 612.96V544.947H1440.73ZM1372.69 511.02H1508.77L1474.83 477.093H1372.85V511.02H1372.69ZM1406.79 612.96H1508.77V579.033H1372.69L1406.79 612.96ZM1406.79 511.02L1440.73 544.947H1508.77V511.02H1406.79ZM1372.69 544.947V578.873H1474.67L1440.73 544.947H1372.69ZM1508.77 579.033H1576.81L1508.77 511.02V579.033ZM1576.81 579.033L1644.85 647.047V579.033H1576.81ZM1508.77 544.947H1644.85L1610.91 511.02H1508.93V544.947H1508.77ZM1542.71 647.047H1644.69V613.12H1508.61L1542.71 647.047ZM1542.71 544.947L1576.65 578.873H1644.69V544.947H1542.71ZM1508.77 579.033V612.96H1610.75L1576.81 579.033H1508.77ZM1644.85 612.96H1712.88L1644.85 544.947V612.96ZM1712.88 612.96L1780.92 680.973V612.96H1712.88ZM1644.85 579.033H1780.92L1746.98 545.107H1645.01V579.033H1644.85ZM1678.78 680.973H1780.76V647.047H1644.69L1678.78 680.973ZM1678.78 579.033L1712.72 612.96H1780.76V579.033H1678.78ZM1644.85 612.96V646.887H1746.82L1712.88 612.96H1644.85ZM1780.92 646.887H1848.96L1780.92 578.873V646.887ZM1848.96 646.887L1917 714.9V646.887H1848.96ZM1780.92 612.96H1917L1883.06 579.033H1781.08V612.96H1780.92ZM1814.86 714.9H1916.84V680.973H1780.76L1814.86 714.9ZM1814.86 612.96L1848.8 646.887H1916.84V612.96H1814.86ZM1780.92 646.887V680.813H1882.9L1848.96 646.887H1780.92Z" stroke="url(#paint0_linear)" stroke-width="0.7087" stroke-miterlimit="10"/>
<defs>
<linearGradient id="paint0_linear" x1="-125.281" y1="408.95" x2="1918.31" y2="408.95" gradientUnits="userSpaceOnUse">
<stop offset="2.2622e-07" stop-color="#2C37FF"/>
<stop offset="0.0982704" stop-color="#4151FF"/>
<stop offset="0.3242" stop-color="#6E86FF"/>
<stop offset="0.535" stop-color="#92B1FF"/>
<stop offset="0.7245" stop-color="#ABCFFF"/>
<stop offset="0.8859" stop-color="#BAE1FF"/>
<stop offset="1" stop-color="#C0E8FF"/>
</linearGradient>
</defs>
</svg>
