<svg width="1800" height="830" viewBox="0 0 1800 830" fill="none" xmlns="http://www.w3.org/2000/svg">
<path opacity="0.3" d="M-89.7837 242.33L-21.5116 311.305H-89.7837V242.33ZM-21.5116 311.305L46.7604 380.279V311.305H-21.5116ZM-89.7837 276.736H46.7604L12.7047 242.33H-89.7837V276.736ZM-55.5673 380.279H46.7604V345.873H-89.7837L-55.5673 380.279ZM-55.728 276.736L-21.6723 311.142H46.5997V276.736H-55.728ZM-89.7837 311.305V345.711H12.5441L-21.5116 311.305H-89.7837ZM46.7604 345.711H115.032L46.7604 276.736V345.711ZM115.032 345.711L183.304 414.685V345.711H115.032ZM46.7604 311.305H183.304L149.249 276.898H46.921V311.305H46.7604ZM80.8161 414.685H183.144V380.279H46.5997L80.8161 414.685ZM80.8161 311.305L114.872 345.711H183.144V311.305H80.8161ZM46.7604 345.711V380.117H149.088L115.032 345.711H46.7604ZM183.304 380.279H251.576L183.304 311.305V380.279ZM251.576 380.279L319.849 449.254V380.279H251.576V380.279ZM183.304 345.711H319.849L285.793 311.305H183.465V345.711H183.304ZM217.36 449.254H319.688V414.848H183.144L217.36 449.254ZM217.36 345.711L251.416 380.117H319.688V345.711H217.36ZM183.304 380.279V414.685H285.632L251.576 380.279H183.304ZM319.849 414.685H388.121L319.849 345.711V414.685ZM388.121 414.685L456.393 483.66V414.685H388.121ZM319.849 380.279H456.393L422.337 345.873H320.009V380.279H319.849ZM353.904 483.66H456.232V449.254H319.688L353.904 483.66ZM353.904 380.279L387.96 414.685H456.232V380.279H353.904ZM319.849 414.685V449.091H422.176L388.121 414.685H319.849ZM456.232 449.254H524.504L456.232 380.279V449.254ZM524.504 449.254L592.776 518.228V449.254H524.504ZM456.232 414.685H592.776L558.72 380.279H456.232V414.685ZM490.448 518.228H592.776V483.822H456.232L490.448 518.228ZM490.448 414.685L524.504 449.091H592.776V414.685H490.448ZM456.232 449.254V483.66H558.56L524.504 449.254H456.232ZM592.776 483.66H661.048L592.776 414.685V483.66ZM661.048 483.66L729.32 552.634V483.66H661.048ZM592.776 449.254H729.32L695.264 414.848H592.776V449.254ZM626.992 552.634H729.32V518.228H592.776L626.992 552.634ZM626.992 449.254L661.048 483.66H729.32V449.254H626.992ZM592.776 483.66V518.066H695.104L661.048 483.66H592.776ZM729.32 518.228H797.592L729.32 449.254V518.228ZM797.592 518.228L865.864 587.203V518.228H797.592ZM729.32 483.66H865.864L831.808 449.254H729.32V483.66ZM763.536 587.203H865.864V552.797H729.32L763.536 587.203ZM763.536 483.66L797.592 518.066H865.864V483.66H763.536ZM729.32 518.228V552.634H831.648L797.592 518.228H729.32ZM865.864 552.634H934.136L865.864 483.66V552.634ZM934.136 552.634L1002.41 621.609V552.634H934.136ZM865.864 518.228H1002.41L968.352 483.822H865.864V518.228ZM900.08 621.609H1002.41V587.203H865.864L900.08 621.609ZM900.08 518.228L934.136 552.634H1002.41V518.228H900.08ZM865.864 552.634V587.041H968.192L934.136 552.634H865.864ZM1002.41 587.203H1070.68L1002.41 518.228V587.203ZM1070.68 587.203L1138.95 656.178V587.203H1070.68ZM1002.41 552.634H1138.95L1104.9 518.228H1002.41V552.634ZM1036.46 656.178H1138.95V621.771H1002.41L1036.46 656.178ZM1036.46 552.634L1070.52 587.041H1138.95V552.634H1036.46ZM1002.41 587.203V621.609H1104.74L1070.68 587.203H1002.41ZM1138.95 621.609H1207.22L1138.95 552.634V621.609ZM1207.22 621.609L1275.5 690.584V621.609H1207.22ZM1138.95 587.203H1275.5L1241.44 552.797H1138.95V587.203ZM1173.01 690.584H1275.5V656.178H1138.95L1173.01 690.584ZM1173.01 587.203L1207.06 621.609H1275.5V587.203H1173.01ZM1138.95 621.609V656.015H1241.28L1207.22 621.609H1138.95ZM1275.5 656.178H1343.77L1275.5 587.203V656.178ZM1343.77 656.178L1412.04 724.99V656.015H1343.77V656.178ZM1275.5 621.609H1412.04L1377.98 587.203H1275.5V621.609ZM1309.55 725.152H1412.04V690.746H1275.5L1309.55 725.152ZM1309.55 621.609L1343.61 656.015H1412.04V621.609H1309.55ZM1275.5 656.178V690.584H1377.82L1343.77 656.178H1275.5ZM1412.04 690.584H1480.31L1412.04 621.609V690.584ZM1480.31 690.584L1548.58 759.558V690.584H1480.31ZM1412.04 656.015H1548.58L1514.53 621.609H1412.04V656.015ZM1446.1 759.558H1548.42V724.99H1411.88L1446.1 759.558ZM1446.1 656.015L1480.15 690.421H1548.42V656.015H1446.1ZM1412.04 690.584V724.99H1514.37L1480.31 690.584H1412.04ZM1548.42 725.152H1616.7L1548.42 656.178V725.152ZM1616.7 725.152L1684.97 794.127V725.152H1616.7ZM1548.42 690.584H1684.97L1650.91 656.178H1548.58V690.584H1548.42ZM1582.64 793.964H1684.97V759.558H1548.42L1582.64 793.964ZM1582.64 690.584L1616.7 724.99H1684.97V690.584H1582.64ZM1548.42 725.152V759.558H1650.75L1616.7 725.152H1548.42ZM1684.97 759.558H1753.24L1684.97 690.584V759.558ZM1753.24 759.558L1821.51 828.533V759.558H1753.24ZM1684.97 724.99H1821.51L1787.46 690.584H1685.13V724.99H1684.97ZM1719.18 828.533H1821.51V794.127H1684.97L1719.18 828.533ZM1719.18 724.99L1753.24 759.396H1821.51V724.99H1719.18ZM1684.97 759.558V793.964H1787.3L1753.24 759.558H1684.97ZM-123.839 173.355H-55.5673L-123.839 104.381V173.355ZM-55.728 173.355L12.5441 242.33V173.355H-55.728ZM-123.839 138.787H12.7047L-21.5116 104.381H-123.839V138.787ZM-89.7837 242.33H12.5441V207.924H-124L-89.7837 242.33ZM-89.7837 138.787L-55.728 173.193H12.5441V138.787H-89.7837ZM-123.839 173.355V207.762H-21.5116L-55.5673 173.355H-123.839V173.355ZM12.5441 207.762H80.8161L12.5441 138.787V207.762ZM80.8161 207.762L149.088 276.736V207.762H80.8161ZM12.5441 173.355H149.088L115.032 138.949H12.5441V173.355ZM46.7604 276.736H149.088V242.33H12.5441L46.7604 276.736ZM46.7604 173.355L80.8161 207.762H149.088V173.355H46.7604ZM12.5441 207.762V242.168H114.872L80.8161 207.762H12.5441ZM-21.5116 69.8123H46.7604L-21.5116 1V69.8123ZM46.7604 69.8123L115.032 138.787V69.8123H46.7604ZM-21.5116 35.4062H115.032L80.8161 1H-21.5116V35.4062ZM12.5441 138.787H114.872V104.381H-21.6723L12.5441 138.787ZM12.5441 35.4062L46.5997 69.8123H114.872V35.4062H12.5441ZM-21.5116 69.8123V104.218H80.8161L46.7604 69.8123H-21.5116ZM149.088 242.33H217.36L149.088 173.355V242.33ZM217.36 242.33L285.632 311.305V242.33H217.36ZM149.088 207.762H285.632L251.576 173.355H149.249V207.762H149.088ZM183.304 311.305H285.632V276.898H149.088L183.304 311.305ZM183.304 207.762L217.36 242.168H285.632V207.762H183.304ZM149.088 242.33V276.736H251.416L217.36 242.33H149.088ZM115.032 104.381H183.304L115.032 35.4062V104.381ZM183.304 104.381L251.576 173.355V104.381H183.304ZM115.032 69.8123H251.576L217.521 35.4062H115.193V69.8123H115.032ZM149.088 173.355H251.416V138.787H114.872L149.088 173.355ZM149.088 69.8123L183.144 104.218H251.416V69.8123H149.088ZM115.032 104.381V138.787H217.36L183.304 104.381H115.032ZM251.576 138.787H319.849L251.576 69.8123V138.787V138.787ZM319.849 138.787L388.121 207.762V138.787H319.849ZM251.576 104.381H388.121L354.065 69.9746H251.737V104.381H251.576ZM285.632 207.762H387.96V173.355H251.416L285.632 207.762ZM285.632 104.381L319.688 138.787H387.96V104.381H285.632ZM251.576 138.787V173.193H353.904L319.849 138.787H251.576ZM388.121 173.355H456.232L387.96 104.381V173.355H388.121ZM456.232 173.355L524.504 242.33V173.355H456.232ZM388.121 138.787H524.665L490.609 104.381H388.281V138.787H388.121ZM422.176 242.33H524.504V207.924H387.96L422.176 242.33ZM422.176 138.787L456.232 173.193H524.504V138.787H422.176ZM388.121 173.355V207.762H490.448L456.232 173.355H388.121ZM524.504 207.762H592.776L524.504 138.787V207.762ZM592.776 207.762L661.048 276.736V207.762H592.776ZM524.504 173.355H661.048L626.992 138.949H524.665V173.355H524.504ZM558.72 276.736H661.048V242.33H524.504L558.72 276.736ZM558.72 173.355L592.776 207.762H661.048V173.355H558.72ZM524.504 207.762V242.168H626.832L592.776 207.762H524.504ZM661.048 242.33H729.32L661.048 173.355V242.33ZM729.32 242.33L797.592 311.305V242.33H729.32ZM661.048 207.762H797.592L763.536 173.355H661.209V207.762H661.048ZM695.264 311.305H797.592V276.898H661.048L695.264 311.305ZM695.264 207.762L729.32 242.168H797.592V207.762H695.264ZM661.048 242.33V276.736H763.376L729.32 242.33H661.048ZM797.592 276.736H865.864L797.592 207.762V276.736ZM865.864 276.736L934.136 345.711V276.736H865.864ZM797.592 242.33H934.136L900.08 207.924H797.753V242.33H797.592ZM831.808 345.711H934.136V311.305H797.592L831.808 345.711ZM831.808 242.33L865.864 276.736H934.136V242.33H831.808ZM797.592 276.736V311.142H899.92L865.864 276.736H797.592ZM934.136 311.305H1002.41L934.136 242.33V311.305ZM1002.41 311.305L1070.68 380.279V311.305H1002.41ZM934.136 276.736H1070.68L1036.62 242.33H934.297V276.736H934.136ZM968.352 380.279H1070.68V345.873H934.136L968.352 380.279ZM968.352 276.736L1002.41 311.142H1070.68V276.736H968.352ZM934.136 311.305V345.711H1036.46L1002.41 311.305H934.136ZM1070.68 345.711H1138.95L1070.68 276.736V345.711ZM1138.95 345.711L1207.22 414.685V345.711H1138.95ZM1070.68 311.305H1207.22L1173.17 276.898H1070.84V311.305H1070.68ZM1104.74 414.685H1207.06V380.279H1070.52L1104.74 414.685ZM1104.74 311.305L1138.79 345.711H1207.06V311.305H1104.74ZM1070.68 345.711V380.117H1173.01L1138.95 345.711H1070.68ZM1207.22 380.279H1275.5L1207.22 311.305V380.279ZM1275.5 380.279L1343.77 449.254V380.279H1275.5V380.279ZM1207.22 345.711H1343.77L1309.71 311.305H1207.38V345.711H1207.22ZM1241.28 449.254H1343.61V414.848H1207.06L1241.28 449.254ZM1241.28 345.711L1275.34 380.117H1343.61V345.711H1241.28ZM1207.22 380.279V414.685H1309.55L1275.5 380.279H1207.22ZM1343.77 414.685H1412.04L1343.77 345.711V414.685ZM1412.04 414.685L1480.31 483.66V414.685H1412.04ZM1343.77 380.279H1480.31L1446.26 345.873H1343.93V380.279H1343.77ZM1377.82 483.66H1480.15V449.254H1343.61L1377.82 483.66ZM1377.82 380.279L1411.88 414.685H1480.15V380.279H1377.82ZM1343.77 414.685V449.091H1446.1L1412.04 414.685H1343.77ZM1480.15 449.254H1548.42L1480.15 380.279V449.254V449.254ZM1548.42 449.254L1616.7 518.228V449.254H1548.42ZM1480.15 414.685H1616.7L1582.64 380.279H1480.31V414.685H1480.15ZM1514.37 518.228H1616.7V483.822H1480.15L1514.37 518.228ZM1514.37 414.685L1548.42 449.091H1616.7V414.685H1514.37ZM1480.15 449.254V483.66H1582.48L1548.42 449.254H1480.15ZM1616.7 483.66H1684.97L1616.7 414.685V483.66ZM1684.97 483.66L1753.24 552.634V483.66H1684.97ZM1616.7 449.254H1753.24L1719.18 414.848H1616.86V449.254H1616.7ZM1650.91 552.634H1753.24V518.228H1616.7L1650.91 552.634ZM1650.91 449.254L1684.97 483.66H1753.24V449.254H1650.91ZM1616.7 483.66V518.066H1719.02L1684.97 483.66H1616.7ZM1753.24 518.228H1821.51L1753.24 449.254V518.228ZM1821.51 518.228L1889.78 587.203V518.228H1821.51ZM1753.24 483.66H1889.78L1855.73 449.254H1753.4V483.66H1753.24ZM1787.46 587.203H1889.78V552.797H1753.24L1787.46 587.203ZM1787.46 483.66L1821.51 518.066H1889.78V483.66H1787.46ZM1753.24 518.228V552.634H1855.57L1821.51 518.228H1753.24ZM285.632 276.736H353.904L285.632 207.762V276.736ZM353.904 276.736L422.176 345.711V276.736H353.904ZM285.632 242.33H422.176L388.121 207.924H285.793V242.33H285.632ZM319.849 345.711H422.176V311.305H285.632L319.849 345.711ZM319.849 242.33L353.904 276.736H422.176V242.33H319.849ZM285.632 276.736V311.142H387.96L353.904 276.736H285.632ZM422.176 311.305H490.448L422.176 242.33V311.305ZM490.448 311.305L558.72 380.279V311.305H490.448ZM422.176 276.736H558.72L524.665 242.33H422.337V276.736H422.176ZM456.393 380.279H558.72V345.873H422.176L456.393 380.279ZM456.232 276.736L490.288 311.142H558.56V276.736H456.232ZM422.176 311.305V345.711H524.504L490.448 311.305H422.176ZM558.72 345.711H626.992L558.72 276.736V345.711ZM626.992 345.711L695.264 414.685V345.711H626.992ZM558.72 311.305H695.264L661.209 276.898H558.881V311.305H558.72ZM592.776 414.685H695.104V380.279H558.56L592.776 414.685ZM592.776 311.305L626.832 345.711H695.104V311.305H592.776ZM558.72 345.711V380.117H661.048L626.992 345.711H558.72ZM695.264 380.279H763.536L695.264 311.305V380.279V380.279ZM763.536 380.279L831.808 449.254V380.279H763.536V380.279ZM695.264 345.711H831.808L797.753 311.305H695.425V345.711H695.264ZM729.32 449.254H831.648V414.848H695.104L729.32 449.254ZM729.32 345.711L763.376 380.117H831.648V345.711H729.32ZM695.264 380.279V414.685H797.592L763.536 380.279H695.264ZM831.808 414.685H900.08L831.808 345.711V414.685ZM900.08 414.685L968.352 483.66V414.685H900.08ZM831.808 380.279H968.352L934.297 345.873H831.969V380.279H831.808ZM865.864 483.66H968.192V449.254H831.648L865.864 483.66ZM865.864 380.279L899.92 414.685H968.192V380.279H865.864ZM831.808 414.685V449.091H934.136L900.08 414.685H831.808ZM968.192 449.254H1036.46L968.192 380.279V449.254ZM1036.46 449.254L1104.74 518.228V449.254H1036.46ZM968.192 414.685H1104.74L1070.68 380.279H968.352V414.685H968.192ZM1002.41 518.228H1104.74V483.822H968.192L1002.41 518.228ZM1002.41 414.685L1036.46 449.091H1104.74V414.685H1002.41ZM968.192 449.254V483.66H1070.52L1036.46 449.254H968.192ZM1104.74 483.66H1173.01L1104.74 414.685V483.66ZM1173.01 483.66L1241.28 552.634V483.66H1173.01ZM1104.74 449.254H1241.28L1207.22 414.848H1104.9V449.254H1104.74ZM1138.95 552.634H1241.28V518.228H1104.74L1138.95 552.634ZM1138.95 449.254L1173.01 483.66H1241.28V449.254H1138.95ZM1104.74 483.66V518.066H1207.06L1173.01 483.66H1104.74ZM1241.28 518.228H1309.55L1241.28 449.254V518.228ZM1309.55 518.228L1377.82 587.203V518.228H1309.55ZM1241.28 483.66H1377.82L1343.77 449.254H1241.44V483.66H1241.28ZM1275.5 587.041H1377.82V552.634H1241.28L1275.5 587.041ZM1275.5 483.66L1309.55 518.066H1377.82V483.66H1275.5ZM1241.28 518.228V552.634H1343.61L1309.55 518.228H1241.28ZM1377.82 552.634H1446.1L1377.82 483.66V552.634ZM1446.1 552.634L1514.37 621.609V552.634H1446.1ZM1377.82 518.228H1514.37L1480.31 483.822H1377.98V518.228H1377.82ZM1412.04 621.609H1514.37V587.203H1377.82L1412.04 621.609ZM1412.04 518.228L1446.1 552.634H1514.37V518.228H1412.04ZM1377.82 552.634V587.041H1480.15L1446.1 552.634H1377.82ZM1514.37 587.203H1582.64L1514.37 518.228V587.203ZM1582.64 587.203L1650.91 656.178V587.203H1582.64ZM1514.37 552.634H1650.91L1616.86 518.228H1514.53V552.634H1514.37ZM1548.42 656.178H1650.75V621.771H1514.21L1548.42 656.178ZM1548.42 552.634L1582.48 587.041H1650.75V552.634H1548.42ZM1514.37 587.203V621.609H1616.7L1582.64 587.203H1514.37ZM1650.91 621.609H1719.18L1650.91 552.634V621.609ZM1719.18 621.609L1787.46 690.584V621.609H1719.18ZM1650.91 587.203H1787.46L1753.4 552.797H1651.07V587.203H1650.91ZM1684.97 690.584H1787.3V656.178H1650.75L1684.97 690.584ZM1684.97 587.203L1719.02 621.609H1787.3V587.203H1684.97ZM1650.91 621.609V656.015H1753.24L1719.18 621.609H1650.91ZM1787.46 656.015H1855.73L1787.46 587.041V656.015ZM1855.73 656.015L1924 724.99V656.015H1855.73ZM1787.46 621.609H1924L1889.94 587.203H1787.62V621.609H1787.46ZM1821.51 724.99H1923.84V690.584H1787.3L1821.51 724.99ZM1821.51 621.609L1855.57 656.015H1923.84V621.609H1821.51ZM1787.46 656.015V690.421H1889.78L1855.73 656.015H1787.46Z" stroke="url(#paint0_linear_4860_71733)" stroke-width="0.664406" stroke-miterlimit="10"/>
<defs>
<linearGradient id="paint0_linear_4860_71733" x1="-125.285" y1="414.716" x2="1925.31" y2="414.716" gradientUnits="userSpaceOnUse">
<stop offset="2.2622e-07" stop-color="#2C37FF"/>
<stop offset="0.0982704" stop-color="#4151FF"/>
<stop offset="0.3242" stop-color="#6E86FF"/>
<stop offset="0.535" stop-color="#92B1FF"/>
<stop offset="0.7245" stop-color="#ABCFFF"/>
<stop offset="0.8859" stop-color="#BAE1FF"/>
<stop offset="1" stop-color="#C0E8FF"/>
</linearGradient>
</defs>
</svg>
