<?xml version="1.0" encoding="utf-8"?>
<!-- Generator: Adobe Illustrator 23.1.1, SVG Export Plug-In . SVG Version: 6.00 Build 0)  -->
<svg version="1.1" id="レイヤー_1" xmlns="http://www.w3.org/2000/svg" xmlns:xlink="http://www.w3.org/1999/xlink" x="0px"
	 y="0px" viewBox="0 0 730.3 148.5" style="enable-background:new 0 0 730.3 148.5;" xml:space="preserve">
<style type="text/css">
	.st0{opacity:0.6;}
	.st1{fill:#FFFFFF;}
</style>
<g class="st0">
	<path class="st1" d="M1.6,43.9h2.2l2.9-27.1L20,45.1l13.3-28.3l3,27.1h2.2L34.7,9L20,40.2L5.4,9L1.6,43.9z M63.3,23.2v3.6
		c-2.1-2.8-4.7-4-8.1-4c-5.9,0-10.1,4.4-10.1,10.7c0,6.4,4.2,11,10.1,11c3.4,0,6.2-1.5,8-4.2v3.7h2V23.2H63.3z M55.3,24.7
		c1.9,0,4,0.8,5.6,2.2c1.8,1.6,2.6,3.6,2.6,6.5c0,5.4-3.4,9.2-8.1,9.2c-4.7,0-8.1-3.9-8.1-9.2C47.2,28.5,50.7,24.7,55.3,24.7z
		 M77.9,33.1l-8.4,10.8h2.7l7.1-9.3l7.1,9.3H89l-8.3-10.8l7.5-9.8h-2.6l-6.3,8.2l-6.4-8.2h-2.6L77.9,33.1z M95,23.2h-2v20.6h2V23.2z
		 M94,14.6c-1,0-1.8,0.8-1.8,1.8c0,1.1,0.8,1.9,1.8,1.9c1,0,1.8-0.8,1.8-1.9C95.8,15.4,95,14.6,94,14.6z M102.2,23.2v20.6h2V31.9
		c0-1.9,0.3-3.4,0.9-4.6c0.8-1.6,2.6-2.7,4.4-2.7c1.6,0,3,0.8,3.8,2.2c0.6,0.9,0.8,2,0.8,3.7v13.3h2V31.4c0-4.4,1.8-6.8,5.2-6.8
		c1.5,0,2.8,0.6,3.5,1.5c0.7,1,0.9,1.8,0.9,3.9v13.8h2V30.4c0-2.8-0.3-4.1-1.3-5.3c-1.1-1.4-3-2.3-5.1-2.3c-2.8,0-4.7,1.2-6.1,3.7
		c-1.2-2.5-3.1-3.7-5.8-3.7c-2.4,0-4,0.9-5.3,3v-2.6H102.2z M137.1,23.2h-2v20.6h2V23.2z M136,14.6c-1,0-1.8,0.8-1.8,1.8
		c0,1.1,0.8,1.9,1.8,1.9c1,0,1.8-0.8,1.8-1.9C137.9,15.4,137.1,14.6,136,14.6z M145.9,42l16.7-18.8h-18.4v1.9h14.2l-16.8,18.8h21V42
		H145.9z M184.6,33.8c-0.1-6.6-4-11-9.9-11c-5.8,0-10.1,4.6-10.1,10.9c0,6.2,4.2,10.8,10.1,10.8c4,0,7.1-1.9,9.2-5.6l-1.7-1
		c-0.9,1.5-1.4,2.1-2.1,2.8c-1.4,1.2-3.3,2-5.2,2c-2.8,0-5.6-1.6-6.9-4.1c-0.8-1.3-1.1-2.5-1.1-4.7H184.6z M167.1,31.9
		c0.6-4.2,3.8-7.2,7.6-7.2c3.8,0,6.8,2.9,7.6,7.2H167.1z M205.4,25.1h3.6v-1.9h-3.6v-7.4h-2v7.4h-2.3v1.9h2.3v18.8h2V25.1z M213.2,7
		v36.9h2V33.2c0-2.8,0.3-4.2,1.1-5.7c1-1.8,2.8-2.8,5-2.8c1.8,0,3.5,0.8,4.2,2c0.6,0.9,0.8,2,0.8,4.2v13h2v-13c0-2.5-0.3-4-1-5.2
		c-1.1-1.8-3.3-2.9-5.7-2.9c-2.8,0-4.7,1.1-6.3,3.7V7H213.2z M254.2,33.8c-0.1-6.6-4-11-9.9-11c-5.8,0-10.1,4.6-10.1,10.9
		c0,6.2,4.2,10.8,10.1,10.8c4,0,7.1-1.9,9.2-5.6l-1.7-1c-0.9,1.5-1.4,2.1-2.1,2.8c-1.4,1.2-3.3,2-5.2,2c-2.8,0-5.6-1.6-6.9-4.1
		c-0.8-1.3-1.1-2.5-1.1-4.7H254.2z M236.6,31.9c0.6-4.2,3.8-7.2,7.6-7.2c3.8,0,6.8,2.9,7.6,7.2H236.6z M289.2,25.4
		c-2.4-1.9-4.5-2.6-7.2-2.6c-6.1,0-10.7,4.7-10.7,11c0,6,4.6,10.7,10.6,10.7c2.8,0,5.1-0.9,7.5-2.9v-2.7c-2.2,2.5-4.7,3.7-7.5,3.7
		c-4.8,0-8.5-3.9-8.5-8.9c0-5.1,3.7-9,8.5-9c2.7,0,4.8,1,7.2,3.4V25.4z M296.5,7h-2v36.9h2V7z M313.3,22.8
		c-5.9,0-10.8,4.8-10.8,10.6c0,6.2,4.7,11,10.7,11c6.1,0,10.9-4.7,10.9-10.8C324,27.5,319.3,22.8,313.3,22.8z M313.2,24.7
		c5,0,8.8,3.9,8.8,9s-3.8,9-8.9,9c-4.9,0-8.6-4-8.6-9.1C304.5,28.6,308.4,24.7,313.2,24.7z M331.9,23.2h-2v13c0,2.9,0.4,4.3,1.5,5.7
		c1.3,1.6,3.5,2.5,5.9,2.5c2.4,0,4.6-1,5.9-2.5c1.2-1.4,1.5-2.8,1.5-5.7v-13h-2v12.3c0,2.4-0.2,3.6-0.7,4.6
		c-0.8,1.5-2.7,2.5-4.7,2.5c-2.1,0-4-1-4.8-2.5c-0.5-1-0.7-2.2-0.7-4.6V23.2z M368.7,7v19.8c-2.1-2.8-4.7-4-8.1-4
		c-5.9,0-10.1,4.4-10.1,10.7c0,6.4,4.2,11,10.1,11c3.4,0,6.2-1.5,8-4.2v3.7h2V7H368.7z M360.8,24.7c1.9,0,4,0.8,5.6,2.2
		c1.8,1.6,2.6,3.6,2.6,6.5c0,5.4-3.4,9.2-8.1,9.2c-4.7,0-8.1-3.9-8.1-9.2C352.7,28.5,356.2,24.7,360.8,24.7z M389.8,23.2h-2.4
		l9.5,21.9l9.4-21.9H404l-7.1,16.7L389.8,23.2z M426.7,23.2v3.6c-2.1-2.8-4.7-4-8.1-4c-5.9,0-10.1,4.4-10.1,10.7
		c0,6.4,4.2,11,10.1,11c3.4,0,6.2-1.5,8-4.2v3.7h2V23.2H426.7z M418.7,24.7c1.9,0,4,0.8,5.6,2.2c1.8,1.6,2.6,3.6,2.6,6.5
		c0,5.4-3.4,9.2-8.1,9.2c-4.7,0-8.1-3.9-8.1-9.2C410.6,28.5,414.1,24.7,418.7,24.7z M437.9,7h-2v36.9h2V7z M447.1,23.2h-2v13
		c0,2.9,0.4,4.3,1.5,5.7c1.3,1.6,3.5,2.5,5.9,2.5c2.4,0,4.6-1,5.9-2.5c1.2-1.4,1.5-2.8,1.5-5.7v-13h-2v12.3c0,2.4-0.2,3.6-0.7,4.6
		c-0.8,1.5-2.7,2.5-4.7,2.5c-2.1,0-4-1-4.8-2.5c-0.5-1-0.7-2.2-0.7-4.6V23.2z M485.7,33.8c-0.1-6.6-4-11-9.9-11
		c-5.8,0-10.1,4.6-10.1,10.9c0,6.2,4.2,10.8,10.1,10.8c4,0,7.1-1.9,9.2-5.6l-1.7-1c-0.9,1.5-1.4,2.1-2.1,2.8c-1.4,1.2-3.3,2-5.2,2
		c-2.8,0-5.6-1.6-6.9-4.1c-0.8-1.3-1.1-2.5-1.1-4.7H485.7z M468.2,31.9c0.6-4.2,3.8-7.2,7.6-7.2c3.8,0,6.8,2.9,7.6,7.2H468.2z"/>
	<path class="st1" d="M20.4,72.7v-2.2L0,79.2l16.7,6.7L0,92.5l20.4,8.9v-2.2L5,92.5l16.7-6.7L5,79.2L20.4,72.7z M20.4,107.3v-1.9
		H1.2v1.9H20.4z M28.6,106.4c0-0.9-0.8-1.7-1.7-1.7c-1,0-1.7,0.8-1.7,1.7c0,0.9,0.8,1.7,1.7,1.7C27.8,108.1,28.6,107.3,28.6,106.4z
		 M18.7,116.2v3.4h1.7v-3.4h6.9v-1.9h-6.9v-2.1h-1.7v2.1H1.2v1.9H18.7z M35.6,123.6H1.2v1.9h10c2.6,0,4,0.2,5.3,1
		c1.7,0.9,2.6,2.6,2.6,4.6c0,1.7-0.7,3.3-1.9,3.9c-0.9,0.5-1.9,0.7-3.9,0.7H1.2v1.9h12.1c2.3,0,3.8-0.3,4.9-0.9
		c1.7-1,2.7-3.1,2.7-5.3c0-2.6-1-4.3-3.4-5.9h18.2V123.6z"/>
	<path class="st1" d="M99,70.9c-6-6.6-12.6-9.7-20.9-9.7c-13.6,0-23.6,9.5-23.6,21.9c0,9.5,5.2,15.3,18.8,21.3
		c11,4.8,14.1,8.1,14.1,15.3c0,10.1-7,16.8-17.2,16.8c-8.9,0-14.7-4.1-18.6-13.2l-6.2,2.7c5,12,13,17.6,24.8,17.6
		c14.7,0,25.2-9.7,25.2-23.2c0-10.7-4.5-16.1-18.6-22.5c-11.6-5.2-14.3-7.9-14.3-14.5c0-8.7,6.8-15.1,16.1-15.1c5.8,0,11,2.3,15.9,7
		L99,70.9z M122.1,101.1h64.7c-0.4-9.9-1.2-14.9-3.1-19.9c-5.2-13-16.7-20.7-30.8-20.7c-22.3,0-38.3,19.4-38.3,46.1
		c0,22.1,14.5,37.2,36.2,37.2c13,0,20.9-4.3,30.2-16.3l-5.2-3.7c-7.7,9.3-14.3,12.8-24.4,12.8c-17.2,0-29.2-12.4-29.2-30V101.1z
		 M123.2,94.1c1.9-7.7,3.7-11.4,7.2-15.9c5.6-6.8,13.8-10.7,22.5-10.7c9.1,0,17.2,4.5,22.1,12c2.3,3.9,3.5,7.4,4.3,14.5H123.2z
		 M222.6,63.7h-7.6l-9.5,77.5h7.6l5.2-41.4C219.9,87,223,79.4,229.2,74c3.9-3.5,8.1-5.2,12.2-5.2c2.5,0,4.5,0.6,8.3,2.3l4.1-6.6
		c-4.8-2.3-7.2-2.9-10.7-2.9c-7.7,0-12.6,3.1-21.9,13.6L222.6,63.7z M264.7,63.7l23.4,84.8l46.9-84.8h-8.9l-35.4,64.5l-18-64.5
		H264.7z M348.7,101.1h64.7c-0.4-9.9-1.2-14.9-3.1-19.9c-5.2-13-16.7-20.7-30.8-20.7c-22.3,0-38.3,19.4-38.3,46.1
		c0,22.1,14.5,37.2,36.2,37.2c13,0,20.9-4.3,30.2-16.3l-5.2-3.7c-7.7,9.3-14.3,12.8-24.4,12.8c-17.2,0-29.2-12.4-29.2-30V101.1z
		 M349.8,94.1c1.9-7.7,3.7-11.4,7.2-15.9c5.6-6.8,13.8-10.7,22.5-10.7c9.1,0,17.2,4.5,22.1,12c2.3,3.9,3.5,7.4,4.3,14.5H349.8z
		 M449.2,63.7h-7.6l-9.5,77.5h7.6l5.2-41.4c1.5-12.8,4.6-20.3,10.8-25.8c3.9-3.5,8.1-5.2,12.2-5.2c2.5,0,4.5,0.6,8.3,2.3l4.1-6.6
		c-4.8-2.3-7.2-2.9-10.7-2.9c-7.7,0-12.6,3.1-21.9,13.6L449.2,63.7z M513.4,0h-7.6l-17.4,141.2h7.6L513.4,0z M531.7,101.1h64.7
		c-0.4-9.9-1.2-14.9-3.1-19.9c-5.2-13-16.7-20.7-30.8-20.7c-22.3,0-38.3,19.4-38.3,46.1c0,22.1,14.5,37.2,36.2,37.2
		c13,0,20.9-4.3,30.2-16.3l-5.2-3.7c-7.7,9.3-14.3,12.8-24.4,12.8c-17.2,0-29.2-12.4-29.2-30V101.1z M532.9,94.1
		c1.9-7.7,3.7-11.4,7.2-15.9c5.6-6.8,13.8-10.7,22.5-10.7c9.1,0,17.2,4.5,22.1,12c2.3,3.9,3.5,7.4,4.3,14.5H532.9z M663.9,70.9
		c-6-6.6-12.6-9.7-20.9-9.7c-13.6,0-23.6,9.5-23.6,21.9c0,9.5,5.2,15.3,18.8,21.3c11,4.8,14.1,8.1,14.1,15.3
		c0,10.1-7,16.8-17.2,16.8c-8.9,0-14.7-4.1-18.6-13.2l-6.2,2.7c5,12,13,17.6,24.8,17.6c14.7,0,25.2-9.7,25.2-23.2
		c0-10.7-4.5-16.1-18.6-22.5c-11.6-5.2-14.3-7.9-14.3-14.5c0-8.7,6.8-15.1,16.1-15.1c5.8,0,11,2.3,15.9,7L663.9,70.9z M730.3,70.9
		c-6-6.6-12.6-9.7-20.9-9.7c-13.6,0-23.6,9.5-23.6,21.9c0,9.5,5.2,15.3,18.8,21.3c11,4.8,14.1,8.1,14.1,15.3
		c0,10.1-7,16.8-17.2,16.8c-8.9,0-14.7-4.1-18.6-13.2l-6.2,2.7c5,12,13,17.6,24.8,17.6c14.7,0,25.2-9.7,25.2-23.2
		c0-10.7-4.5-16.1-18.6-22.5c-11.6-5.2-14.3-7.9-14.3-14.5c0-8.7,6.8-15.1,16.1-15.1c5.8,0,11,2.3,15.9,7L730.3,70.9z"/>
</g>
</svg>
