<svg width="1800" height="562" viewBox="0 0 1800 562" fill="none" xmlns="http://www.w3.org/2000/svg">
<mask id="mask0" mask-type="alpha" maskUnits="userSpaceOnUse" x="0" y="0" width="1800" height="562">
<rect x="1800" y="562" width="1800" height="562" transform="rotate(-180 1800 562)" fill="url(#paint0_linear)"/>
</mask>
<g mask="url(#mask0)">
<g opacity="0.3">
<path d="M1482.18 586.102L1482.18 424.807L1643.48 586.102L1482.18 586.102Z" stroke="#2C48FF" stroke-miterlimit="10"/>
<path d="M1724.32 424.807L1482.18 424.807L1482.18 505.264L1804.77 505.264L1724.32 424.807Z" stroke="#2C48FF" stroke-miterlimit="10"/>
<path d="M1804.77 586.102L1804.77 505.265L1563.02 505.265L1643.48 586.102L1804.77 586.102Z" stroke="#2C48FF" stroke-miterlimit="10"/>
<path d="M1482.18 505.264L1320.89 505.264L1482.18 666.559L1482.18 505.264Z" stroke="#2C48FF" stroke-miterlimit="10"/>
<path d="M1159.59 505.264L1159.59 343.969L1320.89 505.264L1159.59 505.264Z" stroke="#2C48FF" stroke-miterlimit="10"/>
<path d="M1401.73 343.97L1159.59 343.969L1159.59 424.807L1482.18 424.807L1401.73 343.97Z" stroke="#2C48FF" stroke-miterlimit="10"/>
<path d="M1159.59 586.101L1159.59 505.264L1320.89 505.264L1401.72 586.101L1159.59 586.101Z" stroke="#2C48FF" stroke-miterlimit="10"/>
<path d="M1482.18 505.264L1482.18 424.807L1240.43 424.807L1320.89 505.264L1482.18 505.264Z" stroke="#2C48FF" stroke-miterlimit="10"/>
<path d="M1159.59 424.807L998.676 424.807L1159.59 586.101L1159.59 424.807Z" stroke="#2C48FF" stroke-miterlimit="10"/>
<path d="M837.38 424.807L837.38 263.512L998.675 424.807L837.38 424.807Z" stroke="#2C48FF" stroke-miterlimit="10"/>
<path d="M1159.59 505.264L837.382 505.264L917.839 586.101L1159.59 586.101L1159.59 505.264Z" stroke="#2C48FF" stroke-miterlimit="10"/>
<path d="M1079.14 263.512L837.384 263.512L837.384 343.97L1159.59 343.97L1079.14 263.512Z" stroke="#2C48FF" stroke-miterlimit="10"/>
<path d="M837.382 505.264L837.382 424.807L998.677 424.807L1079.13 505.264L837.382 505.264Z" stroke="#2C48FF" stroke-miterlimit="10"/>
<path d="M1159.59 424.807L1159.59 343.97L917.841 343.97L998.678 424.807L1159.59 424.807Z" stroke="#2C48FF" stroke-miterlimit="10"/>
<path d="M837.386 343.97L676.091 343.97L837.386 505.264L837.386 343.97Z" stroke="#2C48FF" stroke-miterlimit="10"/>
<path d="M514.795 343.969L514.795 182.675L676.09 343.969L514.795 343.969Z" stroke="#2C48FF" stroke-miterlimit="10"/>
<path d="M837.386 424.807L514.796 424.807L595.254 505.264L837.386 505.264L837.386 424.807Z" stroke="#2C48FF" stroke-miterlimit="10"/>
<path d="M756.547 182.675L514.794 182.675L514.794 263.512L837.384 263.512L756.547 182.675Z" stroke="#2C48FF" stroke-miterlimit="10"/>
<path d="M514.796 424.806L514.796 343.969L676.091 343.969L756.549 424.807L514.796 424.806Z" stroke="#2C48FF" stroke-miterlimit="10"/>
<path d="M837.384 343.969L837.384 263.512L595.252 263.512L676.089 343.969L837.384 343.969Z" stroke="#2C48FF" stroke-miterlimit="10"/>
<path d="M514.791 263.512L353.496 263.512L514.791 424.807L514.791 263.512Z" stroke="#2C48FF" stroke-miterlimit="10"/>
<path d="M192.206 263.512L192.206 102.217L353.501 263.512L192.206 263.512Z" stroke="#2C48FF" stroke-miterlimit="10"/>
<path d="M514.791 343.969L192.201 343.969L272.659 424.806L514.791 424.807L514.791 343.969Z" stroke="#2C48FF" stroke-miterlimit="10"/>
<path d="M433.959 102.217L192.206 102.217L192.206 182.675L514.796 182.675L433.959 102.217Z" stroke="#2C48FF" stroke-miterlimit="10"/>
<path d="M192.206 343.969L192.206 263.512L353.5 263.512L433.958 343.969L192.206 343.969Z" stroke="#2C48FF" stroke-miterlimit="10"/>
<path d="M514.796 263.512L514.796 182.675L272.664 182.675L353.501 263.512L514.796 263.512Z" stroke="#2C48FF" stroke-miterlimit="10"/>
<path d="M192.207 182.675L30.9118 182.675L192.207 343.969L192.207 182.675Z" stroke="#2C48FF" stroke-miterlimit="10"/>
<path d="M-130.383 182.674L-130.383 21.3796L30.9116 182.674L-130.383 182.674Z" stroke="#2C48FF" stroke-miterlimit="10"/>
<path d="M192.207 263.512L-130.383 263.512L-49.9254 343.969L192.207 343.969L192.207 263.512Z" stroke="#2C48FF" stroke-miterlimit="10"/>
<path d="M111.369 21.3797L-130.384 21.3796L-130.384 102.217L192.206 102.217L111.369 21.3797Z" stroke="#2C48FF" stroke-miterlimit="10"/>
<path d="M-130.384 263.512L-130.384 182.674L30.911 182.674L111.369 263.512L-130.384 263.512Z" stroke="#2C48FF" stroke-miterlimit="10"/>
<path d="M192.206 182.674L192.206 102.217L-49.9258 102.217L30.9113 182.674L192.206 182.674Z" stroke="#2C48FF" stroke-miterlimit="10"/>
<path d="M595.251 666.559L595.251 505.264L756.546 666.559L595.251 666.559Z" stroke="#2C48FF" stroke-miterlimit="10"/>
<path d="M837.383 505.264L595.251 505.264L595.251 586.101L917.841 586.101L837.383 505.264Z" stroke="#2C48FF" stroke-miterlimit="10"/>
<path d="M272.659 586.102L272.659 424.807L433.954 586.102L272.659 586.102Z" stroke="#2C48FF" stroke-miterlimit="10"/>
<path d="M514.791 424.807L272.659 424.807L272.659 505.264L595.249 505.264L514.791 424.807Z" stroke="#2C48FF" stroke-miterlimit="10"/>
<path d="M595.249 586.102L595.249 505.264L353.497 505.264L433.954 586.102L595.249 586.102Z" stroke="#2C48FF" stroke-miterlimit="10"/>
<path d="M272.66 505.264L111.365 505.264L272.66 666.559L272.66 505.264Z" stroke="#2C48FF" stroke-miterlimit="10"/>
<path d="M-49.9276 505.264L-49.9276 343.969L111.367 505.264L-49.9276 505.264Z" stroke="#2C48FF" stroke-miterlimit="10"/>
<path d="M192.204 343.969L-49.9275 343.969L-49.9275 424.806L272.662 424.807L192.204 343.969Z" stroke="#2C48FF" stroke-miterlimit="10"/>
<path d="M-49.9288 586.101L-49.9288 505.264L111.366 505.264L192.203 586.101L-49.9288 586.101Z" stroke="#2C48FF" stroke-miterlimit="10"/>
<path d="M272.662 505.264L272.662 424.807L30.9096 424.807L111.367 505.264L272.662 505.264Z" stroke="#2C48FF" stroke-miterlimit="10"/>
</g>
</g>
<defs>
<linearGradient id="paint0_linear" x1="2012.3" y1="1058.2" x2="2257.08" y2="275.387" gradientUnits="userSpaceOnUse">
<stop offset="1.15328e-07" stop-color="#181878"/>
<stop offset="0.998" stop-color="#187FC4"/>
</linearGradient>
</defs>
</svg>
