<svg width="431" height="411" viewBox="0 0 431 411" fill="none" xmlns="http://www.w3.org/2000/svg">
<path opacity="0.8" d="M236.766 87.4163L293.942 134.633L108.447 154.227L107.261 154.353L108.181 155.11L172.229 207.876L51.6054 220.48L51.1763 160.789L51.1763 160.788L50.7468 106.85L236.766 87.4163Z" stroke="white"/>
<path opacity="0.8" d="M237.31 86.5691L188.716 2.15947L244.763 48.6519L293.36 132.855L237.31 86.5691Z" stroke="white"/>
<path opacity="0.6" d="M59.2899 68.2445L244.881 48.8551L294.361 134.588L108.77 154.193L59.2899 68.2445Z" stroke="white"/>
<path opacity="0.8" d="M108.887 154.397L60.286 69.9754L122.838 121.681L171.65 206.104L108.887 154.397Z" stroke="white"/>
<path opacity="0.6" d="M1.68497 134.556L122.955 121.884L172.65 207.833L51.3798 220.504L1.68497 134.556Z" stroke="white"/>
<path opacity="0.7" d="M50.5957 219.147L1.3653 134.002L0.933117 73.8912L0.933114 73.8908L0.515092 21.6053L49.7441 106.536L50.1762 160.795L50.1762 160.796L50.5957 219.147Z" stroke="white"/>
<path opacity="0.7" d="M50.5132 105.869L0.819246 20.1364L186.625 0.531616L236.105 86.4799L50.5132 105.869Z" stroke="white"/>
<path opacity="0.6" d="M186.739 0.519592L243.918 47.9507L58.4206 67.3303L57.2359 67.4541L58.154 68.213L121.989 120.979L1.36229 133.583L0.933117 73.8916L0.933114 73.8912L0.503611 20.1697L186.739 0.519592Z" stroke="white"/>
<path d="M243.464 409.55L186.283 362.118L371.782 342.522L372.968 342.397L372.048 341.639L308.215 289.088L428.84 276.27L429.269 335.961V335.962L429.699 389.9L243.464 409.55Z" stroke="white"/>
<path opacity="0.8" d="M429.269 335.961L429.269 335.961L429.687 388.459L380.458 303.316L380.026 249.273L380.026 249.273L379.606 190.917L428.837 275.851L429.269 335.961Z" stroke="white"/>
<path d="M185.322 361.213L135.842 275.264L321.217 255.875L370.911 341.608L185.322 361.213Z" stroke="white"/>
<path d="M258.558 203.977L321.099 255.673L369.906 339.876L307.364 288.388L258.558 203.977Z" stroke="white"/>
<path opacity="0.8" d="M307.247 288.185L257.552 202.237L378.822 189.565L428.517 275.299L307.247 288.185Z" stroke="white"/>
<path opacity="0.6" d="M193.221 322.653L136.255 275.222L321.539 255.843L322.723 255.719L321.805 254.96L257.971 202.194L378.597 189.589L379.026 249.281V249.282L379.456 303.003L193.221 322.653Z" stroke="white"/>
<path opacity="0.7" d="M136.852 277.02L192.675 323.499L241.475 407.9L185.439 361.417L136.852 277.02Z" stroke="white"/>
<path opacity="0.5" d="M193.882 323.588L379.689 303.983L429.384 389.933L243.577 409.538L193.882 323.588Z" stroke="white"/>
</svg>
