<?xml version="1.0" standalone="no"?>
<!DOCTYPE svg PUBLIC "-//W3C//DTD SVG 20010904//EN"
 "http://www.w3.org/TR/2001/REC-SVG-20010904/DTD/svg10.dtd">
<svg version="1.0" xmlns="http://www.w3.org/2000/svg"
 width="240.000000pt" height="56.000000pt" viewBox="0 0 240.000000 56.000000"
 preserveAspectRatio="xMidYMid meet">

<g transform="translate(0.000000,56.000000) scale(0.100000,-0.100000)"
fill="#000000" stroke="none">
<path d="M182 258 l3 -163 118 -3 117 -3 0 26 c0 25 0 25 -90 25 l-90 0 0 140
0 140 -30 0 -30 0 2 -162z"/>
<path d="M470 255 l0 -165 30 0 30 0 0 165 0 165 -30 0 -30 0 0 -165z"/>
<path d="M620 254 l0 -166 104 4 c94 3 107 5 130 27 34 32 35 79 1 119 -21 25
-23 32 -11 41 33 27 26 99 -12 127 -11 9 -50 13 -114 14 l-98 0 0 -166z m178
104 c7 -7 12 -20 12 -29 0 -32 -29 -49 -81 -49 l-49 0 0 45 0 45 53 0 c29 0
58 -5 65 -12z m10 -140 c7 -7 12 -21 12 -33 0 -34 -20 -45 -82 -45 l-58 0 0
45 0 45 58 0 c32 0 63 -5 70 -12z"/>
<path d="M950 255 l0 -165 115 0 115 0 0 25 c0 25 -1 25 -85 25 l-85 0 0 50 0
50 70 0 c63 0 70 2 70 20 0 18 -7 20 -70 20 l-70 0 0 45 0 45 80 0 c79 0 80 0
80 25 l0 25 -110 0 -110 0 0 -165z"/>
<path d="M1250 255 l0 -165 115 0 115 0 0 25 c0 25 -1 25 -90 25 l-90 0 0 140
0 140 -25 0 -25 0 0 -165z"/>
<path d="M1532 258 l3 -163 28 -3 27 -3 0 165 0 166 -30 0 -30 0 2 -162z"/>
<path d="M1660 395 c0 -25 0 -25 95 -25 l95 0 -95 -116 c-62 -76 -95 -124 -95
-140 l0 -24 130 0 130 0 0 25 c0 25 -1 25 -90 25 -49 0 -90 3 -90 6 0 4 41 57
90 119 50 62 90 122 90 134 0 20 -4 21 -130 21 l-130 0 0 -25z"/>
<path d="M1990 255 l0 -165 115 0 115 0 0 25 c0 25 -1 25 -85 25 l-85 0 0 50
0 50 70 0 c63 0 70 2 70 20 0 18 -7 20 -70 20 l-70 0 0 45 0 45 80 0 c79 0 80
0 80 25 l0 25 -110 0 -110 0 0 -165z"/>
</g>
</svg>
