<svg width="961" height="380" viewBox="0 0 961 380" fill="none" xmlns="http://www.w3.org/2000/svg">
<path fill-rule="evenodd" clip-rule="evenodd" d="M189.351 378.703C293.927 378.703 378.703 293.927 378.703 189.351C378.703 84.7755 293.927 0 189.351 0C84.7755 0 0 84.7755 0 189.351C0 293.927 84.7755 378.703 189.351 378.703ZM189.351 366.487C287.181 366.487 366.487 287.181 366.487 189.351C366.487 91.5224 287.181 12.2162 189.351 12.2162C91.5224 12.2162 12.2162 91.5224 12.2162 189.351C12.2162 287.181 91.5224 366.487 189.351 366.487Z" fill="#232538"/>
<path fill-rule="evenodd" clip-rule="evenodd" d="M160.375 67.5464H218.876L312.264 290.117H246.615L189.905 147.649L133.999 290.117H67.5464L160.375 67.5464Z" fill="#232538"/>
<mask id="mask0" mask-type="alpha" maskUnits="userSpaceOnUse" x="67" y="67" width="246" height="224">
<path fill-rule="evenodd" clip-rule="evenodd" d="M160.375 67.5464H218.876L312.264 290.117H246.615L189.905 147.649L133.999 290.117H67.5464L160.375 67.5464Z" fill="white"/>
</mask>
<g mask="url(#mask0)">
</g>
<path fill-rule="evenodd" clip-rule="evenodd" d="M491.27 108.475H523.711L593.231 269.853H558.702L508.209 147.474L457.621 269.853H423.051L491.27 108.475Z" fill="#232538"/>
<path fill-rule="evenodd" clip-rule="evenodd" d="M657.505 108.475H625.507V238.73V269.852V269.853H734.071V238.73H657.505V108.475Z" fill="#232538"/>
<path fill-rule="evenodd" clip-rule="evenodd" d="M766.346 108.475H797.861V141.017L766.346 157.288V108.475Z" fill="#232538"/>
<path fill-rule="evenodd" clip-rule="evenodd" d="M766.346 168.136L797.861 151.864V269.588H766.346V168.136Z" fill="#232538"/>
<path fill-rule="evenodd" clip-rule="evenodd" d="M858.554 231.447C871.289 241.451 886.44 246.523 904.007 246.663C924.794 246.383 935.334 239.282 935.627 225.361C935.773 213.959 928.82 207.103 914.766 204.795C908.325 203.955 901.262 203.011 893.577 201.961C879.816 199.793 869.35 194.931 862.177 187.376C854.784 179.611 851.088 170.167 851.088 159.044C851.088 145.683 855.736 134.91 865.031 126.725C874.034 118.61 886.806 114.483 903.348 114.343C923.257 114.763 940.567 120.044 955.279 130.188L941.775 149.285C929.771 141.73 916.56 137.813 902.14 137.533C894.675 137.533 888.453 139.317 883.476 142.884C878.279 146.592 875.608 152.119 875.461 159.464C875.461 163.871 877.255 167.858 880.841 171.426C884.428 175.064 890.173 177.582 898.078 178.981C902.47 179.681 908.472 180.485 916.084 181.395C931.089 183.353 942.177 188.495 949.35 196.82C956.45 205.005 960 214.518 960 225.361C959.195 254.603 940.457 269.433 903.787 269.853C880.072 269.853 859.688 262.857 842.634 248.866L858.554 231.447Z" fill="#232538" stroke="#232538" stroke-width="0.4"/>
</svg>
