<svg width="170" height="27" viewBox="0 0 170 27" fill="none" xmlns="http://www.w3.org/2000/svg">
<path d="M62.6758 19.5375V25.1066H65.5075V19.1599C65.5075 17.6497 66.1683 17.0833 67.6786 17.0833H70.0384V15.573H67.1122C63.9029 15.4786 62.6758 16.6114 62.6758 19.5375Z" fill="#231815"/>
<path d="M98.4502 19.5375V25.1066H101.282V19.1599C101.282 17.6497 101.943 17.0833 103.453 17.0833H105.813V15.573H102.887C99.7717 15.4786 98.4502 16.6114 98.4502 19.5375Z" fill="#231815"/>
<path d="M139.605 19.5375V25.1066H142.437V19.1599C142.437 17.6497 143.098 17.0833 144.608 17.0833H146.968V15.573H144.042C140.833 15.4786 139.605 16.6114 139.605 19.5375Z" fill="#231815"/>
<path d="M166.13 19.2543C163.675 18.0272 163.203 17.9328 163.298 17.2721C163.392 16.8001 164.053 16.6113 165.469 16.6113C165.941 16.6113 168.017 16.8001 169.433 17.5553V15.7618C168.112 15.2899 166.13 15.1011 165.28 15.1011C162.071 15.1011 160.372 15.7618 160.183 17.0833C159.9 18.9711 161.882 19.8207 164.053 20.7646C165.846 21.6141 166.979 21.9917 166.885 22.6524C166.885 23.3132 166.035 23.6907 164.242 23.6907C162.826 23.6907 160.938 23.2188 159.994 22.6524V24.5403C161.41 25.0122 163.203 25.201 164.619 25.201C166.224 25.201 169.905 24.9178 170 22.558C170 21.0478 168.206 20.2926 166.13 19.2543Z" fill="#231815"/>
<path d="M54.7465 15.1953C52.7643 15.1953 51.1596 15.7617 50.1213 16.8944C49.2718 17.7439 48.7998 18.971 48.7998 20.2925C48.7998 23.4074 51.254 25.2953 55.4072 25.2953C56.6343 25.2953 58.3334 25.1065 59.6549 24.4457V22.4635C58.5222 23.313 57.0119 23.785 55.4072 23.785C53.425 23.785 51.9147 22.6523 51.726 21.0476H60.5044C60.5044 20.2925 60.5044 19.6317 60.3156 19.1598C59.6549 16.2336 56.9175 15.1953 54.7465 15.1953ZM51.726 19.5373C51.8203 17.7439 53.0474 16.6112 54.7465 16.6112C56.4456 16.6112 57.5783 17.7439 57.6727 19.5373H51.726Z" fill="#231815"/>
<path d="M90.6156 15.1953C88.6334 15.1953 87.0287 15.7617 85.9904 16.8944C85.1409 17.7439 84.6689 18.971 84.6689 20.2925C84.6689 23.4074 87.1231 25.2953 91.2764 25.2953C92.5035 25.2953 94.2025 25.1065 95.524 24.4457V22.4635C94.3913 23.313 92.881 23.785 91.2764 23.785C89.2942 23.785 87.7839 22.6523 87.5951 21.0476H96.3736C96.3736 20.2925 96.3736 19.6317 96.1848 19.1598C95.6184 16.2336 92.8811 15.1953 90.6156 15.1953ZM87.6895 19.5373C87.7839 17.7439 89.011 16.6112 90.71 16.6112C92.4091 16.6112 93.5418 17.7439 93.6362 19.5373H87.6895Z" fill="#231815"/>
<path d="M158.295 15.4786H155.746L151.498 19.6318V11.231H148.572V25.1066H151.498V20.4814L156.029 25.1066H159.333L153.953 19.6318L158.295 15.4786Z" fill="#231815"/>
<path d="M78.1562 23.2187L74.0973 15.4785H70.6992L75.4188 23.9738C75.8908 24.8233 76.4571 25.1065 77.4954 25.1065H79.3833L84.6692 15.4785H82.215L78.1562 23.2187Z" fill="#231815"/>
<path d="M119.5 22.7467L117.046 15.4785H114.78L112.42 22.7467H112.609L110.155 15.4785H107.04L110.155 23.6906C110.533 24.7289 111.193 25.1065 112.232 25.1065H114.025L115.724 19.9149L117.046 23.8794C117.423 24.8233 117.895 25.1065 119.028 25.1065H120.916L124.314 15.4785H121.86L119.5 22.7467Z" fill="#231815"/>
<path d="M131.016 15.2898C126.863 15.2898 124.598 17.0832 124.598 20.2926C124.598 23.5019 126.863 25.2953 131.016 25.2953C135.17 25.2953 137.435 23.5019 137.435 20.2926C137.529 17.0832 135.17 15.2898 131.016 15.2898ZM131.016 23.8795C128.751 23.8795 127.429 22.6524 127.429 20.387C127.429 18.1216 128.657 16.8945 131.016 16.8945C133.282 16.8945 134.603 18.1216 134.603 20.387C134.603 22.558 133.376 23.8795 131.016 23.8795Z" fill="#231815"/>
<path d="M42.287 17.6494C39.7384 16.5167 38.4169 15.9504 38.5113 15.1008C38.6057 14.3457 39.9272 14.1569 41.6263 14.1569C43.1365 14.1569 45.402 14.7233 46.7234 15.384V13.4018C45.1188 12.9298 42.759 12.5522 41.3431 12.5522C38.2282 12.5522 35.2076 13.0242 34.9244 15.1008C34.6413 17.555 37.1899 18.4045 40.0216 19.726C42.1926 20.7643 43.8917 21.3307 43.7029 22.4634C43.6085 23.4073 42.5702 23.7849 40.2104 23.6905C38.1338 23.5961 35.8684 23.0298 34.5469 22.2746V24.3512C35.774 24.9176 38.1338 25.3896 40.3992 25.3896C42.3814 25.3896 47.0066 25.2008 47.1954 22.1802C47.4786 20.0092 45.1188 18.9709 42.287 17.6494Z" fill="#231815"/>
<path d="M9.4392 12.0805C14.9139 11.9861 20.0111 10.5703 24.5419 8.21047L24.4475 8.11608C21.1438 9.06 16.8018 9.24878 12.4597 8.02168C8.58967 6.88898 4.43642 4.81236 0.47196 1.60303L0 1.79181C2.45419 4.05722 5.56913 7.54972 6.13548 12.0805C7.26818 12.0805 8.3065 12.1749 9.4392 12.0805Z" fill="#F8B500"/>
<path d="M34.3587 0.564697C27.2793 8.68241 17.1793 14.0628 5.75788 15.1011C5.00275 16.5169 4.24761 18.4992 4.342 20.9534C12.8373 18.4048 20.483 14.1571 27.0905 8.68241L27.3737 8.7768C21.0494 15.1955 13.498 20.387 5.00275 23.7851C5.85227 25.5786 7.74011 26.9001 9.91113 26.9001C19.8223 19.9151 28.3176 11.0422 34.6418 0.753481L34.3587 0.564697Z" fill="#D00F31"/>
</svg>
