<svg width="464" height="635" viewBox="0 0 464 635" fill="none" xmlns="http://www.w3.org/2000/svg">
<ellipse cx="226" cy="142.5" rx="227" ry="226.5" fill="url(#paint0_radial_6_2351)" fill-opacity="0.4"/>
<path d="M198.102 187.207H221.966" stroke="white" stroke-width="0.5" stroke-miterlimit="10"/>
<path d="M221.966 187.207V226.858H198.102V187.207" stroke="white" stroke-width="0.5" stroke-miterlimit="10"/>
<path d="M254.726 142.813H230.861V226.859H254.726V142.813Z" stroke="white" stroke-width="0.5" stroke-miterlimit="10"/>
<path d="M287.486 157.711H263.621V226.859H287.486V157.711Z" stroke="white" stroke-width="0.5" stroke-miterlimit="10"/>
<path d="M320.244 172.015H296.379V226.859H320.244V172.015Z" stroke="white" stroke-width="0.5" stroke-miterlimit="10"/>
<path d="M353.001 190.321H329.137V226.859H353.001V190.321Z" stroke="white" stroke-width="0.5" stroke-miterlimit="10"/>
<path d="M223.156 107.98H254.284C256.359 107.98 257.99 109.611 257.99 111.686V129.622C257.99 131.697 259.62 133.327 261.696 133.327H288.747" stroke="white" stroke-width="0.5" stroke-miterlimit="10"/>
<path d="M223.155 106.794H220.709V109.24H223.155V106.794Z" stroke="white" stroke-width="0.5" stroke-miterlimit="10"/>
<path d="M291.266 132.144H288.82V134.59H291.266V132.144Z" stroke="white" stroke-width="0.5" stroke-miterlimit="10"/>
<path d="M333.582 107.387H302.454C300.379 107.387 298.749 105.756 298.749 103.681V75.7399C298.749 73.6647 297.118 72.0342 295.043 72.0342H223.152" stroke="white" stroke-width="0.5" stroke-miterlimit="10"/>
<path d="M336.086 108.575V106.129H333.64V108.575H336.086Z" stroke="white" stroke-width="0.5" stroke-miterlimit="10"/>
<path d="M223.156 73.2397V70.7939H220.71V73.2397H223.156Z" stroke="white" stroke-width="0.5" stroke-miterlimit="10"/>
<path d="M240.064 64.104V61.6582H237.619V64.104H240.064Z" stroke="white" stroke-width="0.5" stroke-miterlimit="10"/>
<path d="M270.364 72.0349V66.5504C270.364 64.4752 268.733 62.8447 266.658 62.8447H240.125" stroke="white" stroke-width="0.5" stroke-miterlimit="10"/>
<path d="M131.474 78.1857C128.064 78.1857 125.322 75.4435 125.322 72.0343C125.322 68.625 128.064 65.8828 131.474 65.8828C134.883 65.8828 137.625 68.625 137.625 72.0343C137.625 75.3694 134.883 78.1857 131.474 78.1857Z" stroke="white" stroke-width="0.5" stroke-miterlimit="10"/>
<path d="M221.967 73.2951V75.2221C221.967 76.1856 221.226 76.9267 220.262 76.9267H144.962C143.999 76.9267 143.258 76.1856 143.258 75.2221V68.9224C143.258 67.9589 143.999 67.2178 144.962 67.2178H220.262C221.226 67.2178 221.967 67.9589 221.967 68.9224V70.9235" stroke="white" stroke-width="0.5" stroke-miterlimit="10"/>
<path d="M220.262 94.8621H144.962C143.999 94.8621 143.258 94.121 143.258 93.1575V86.7837C143.258 85.8202 143.999 85.0791 144.962 85.0791H220.262C221.226 85.0791 221.967 85.8202 221.967 86.7837V93.0834C221.967 94.0469 221.226 94.8621 220.262 94.8621Z" stroke="white" stroke-width="0.5" stroke-miterlimit="10"/>
<path d="M221.967 109.167V111.094C221.967 112.058 221.226 112.799 220.262 112.799H144.962C143.999 112.799 143.258 112.058 143.258 111.094V104.794C143.258 103.831 143.999 103.09 144.962 103.09H220.262C221.226 103.09 221.967 103.831 221.967 104.794V106.796" stroke="white" stroke-width="0.5" stroke-miterlimit="10"/>
<path d="M220.262 130.809H144.962C143.999 130.809 143.258 130.067 143.258 129.104V122.804C143.258 121.841 143.999 121.1 144.962 121.1H220.262C221.226 121.1 221.967 121.841 221.967 122.804V129.104C221.967 130.067 221.226 130.809 220.262 130.809Z" stroke="white" stroke-width="0.5" stroke-miterlimit="10"/>
<path d="M131.474 96.1223C128.064 96.1223 125.322 93.38 125.322 89.9708C125.322 86.5616 128.064 83.8193 131.474 83.8193C134.883 83.8193 137.625 86.5616 137.625 89.9708C137.625 93.38 134.883 96.1223 131.474 96.1223Z" stroke="white" stroke-width="0.5" stroke-miterlimit="10"/>
<path d="M131.474 114.133C128.064 114.133 125.322 111.391 125.322 107.982C125.322 104.573 128.064 101.83 131.474 101.83C134.883 101.83 137.625 104.573 137.625 107.982C137.625 111.391 134.883 114.133 131.474 114.133Z" stroke="white" stroke-width="0.5" stroke-miterlimit="10"/>
<path d="M131.474 132.144C128.064 132.144 125.322 129.402 125.322 125.992C125.322 122.583 128.064 119.841 131.474 119.841C134.883 119.841 137.625 122.583 137.625 125.992C137.625 129.327 134.883 132.144 131.474 132.144Z" stroke="white" stroke-width="0.5" stroke-miterlimit="10"/>
<path d="M220.262 148.82H144.962C143.999 148.82 143.258 148.079 143.258 147.116V140.816C143.258 139.852 143.999 139.111 144.962 139.111H220.262C221.226 139.111 221.967 139.852 221.967 140.816V147.116C221.967 148.005 221.226 148.82 220.262 148.82Z" stroke="white" stroke-width="0.5" stroke-miterlimit="10"/>
<path d="M131.474 150.079C128.064 150.079 125.322 147.336 125.322 143.927C125.322 140.518 128.064 137.776 131.474 137.776C134.883 137.776 137.625 140.518 137.625 143.927C137.625 147.336 134.883 150.079 131.474 150.079Z" stroke="white" stroke-width="0.5" stroke-miterlimit="10"/>
<path d="M164.456 206.036C152.746 206.036 143.26 196.549 143.26 184.839C143.26 173.129 152.746 163.643 164.456 163.643C176.166 163.643 185.653 173.129 185.653 184.839C185.653 196.549 176.166 206.036 164.456 206.036Z" stroke="white" stroke-width="0.5" stroke-miterlimit="10"/>
<path d="M155.193 184.912L161.271 191.063L173.722 178.612" stroke="white" stroke-width="0.5" stroke-miterlimit="10"/>
<path d="M316.315 152.745C308.755 152.745 302.604 146.594 302.604 139.034C302.604 131.475 308.755 125.323 316.315 125.323C323.874 125.323 330.026 131.475 330.026 139.034C330.026 146.668 323.874 152.745 316.315 152.745Z" stroke="white" stroke-width="0.5" stroke-miterlimit="10"/>
<path d="M310.311 139.108L314.239 143.111L322.317 135.032" stroke="white" stroke-width="0.5" stroke-miterlimit="10"/>
<path d="M341.07 119.766V177.204" stroke="white" stroke-width="0.5" stroke-miterlimit="10"/>
<path d="M329.879 166.013L341.07 177.204L352.335 166.013" stroke="white" stroke-width="0.5" stroke-miterlimit="10"/>
<path d="M278.369 57.1406V114.579" stroke="white" stroke-width="0.5" stroke-miterlimit="10"/>
<path d="M267.178 103.388L278.369 114.579L289.634 103.388" stroke="white" stroke-width="0.5" stroke-miterlimit="10"/>
<path d="M210.037 157.713V180.54" stroke="white" stroke-width="0.5" stroke-miterlimit="10"/>
<path d="M205.59 176.092L210.037 180.539L214.484 176.092" stroke="white" stroke-width="0.5" stroke-miterlimit="10"/>
<path d="M112.867 163.274H127.764C129.839 163.274 131.47 164.905 131.47 166.98V216.711C131.47 218.786 133.1 220.416 135.175 220.416H148.442" stroke="white" stroke-width="0.5" stroke-miterlimit="10"/>
<path d="M112.87 162.012H110.424V164.457H112.87V162.012Z" stroke="white" stroke-width="0.5" stroke-miterlimit="10"/>
<path d="M150.889 219.155H148.443V221.601H150.889V219.155Z" stroke="white" stroke-width="0.5" stroke-miterlimit="10"/>
<path d="M101.17 197.162V194.716H98.7242V197.162H101.17Z" stroke="white" stroke-width="0.5" stroke-miterlimit="10"/>
<path d="M131.473 205.147V199.663C131.473 197.588 129.842 195.957 127.767 195.957H101.16" stroke="white" stroke-width="0.5" stroke-miterlimit="10"/>
<rect x="180.551" y="157" width="17.1917" height="17.1917" fill="#8AE3FF"/>
<rect x="171" y="169.416" width="17.1917" height="17.1917" fill="#8AE3FF"/>
<rect x="207.594" y="136.609" width="8.59584" height="8.59584" fill="#8AE3FF"/>
<rect x="389" y="53" width="8.59584" height="8.59584" fill="#8AE3FF"/>
<rect x="342.438" y="84.9316" width="15.2815" height="15.2815" fill="#8AE3FF"/>
<rect x="239.111" y="166.217" width="8.59584" height="8.59584" fill="#8AE3FF"/>
<rect x="237" y="155.729" width="2.86528" height="2.86528" fill="#8AE3FF"/>
<rect x="243.684" y="150" width="2.86528" height="2.86528" fill="#8AE3FF"/>
<rect x="145" y="159" width="2.86528" height="2.86528" fill="#8AE3FF"/>
<rect x="90" y="108" width="2.86528" height="2.86528" fill="#8AE3FF"/>
<rect x="99" y="137" width="8.59584" height="8.59584" fill="#8AE3FF"/>
<rect x="369.883" y="124.117" width="8.59584" height="8.59584" fill="#8AE3FF"/>
<rect x="368" y="114.789" width="2.86528" height="2.86528" fill="#8AE3FF"/>
<rect x="374.688" y="110" width="2.86528" height="2.86528" fill="#8AE3FF"/>
<rect x="76" y="233.687" width="8.59584" height="8.59584" fill="#8AE3FF"/>
<rect x="79.8203" y="227" width="8.59584" height="8.59584" fill="#8AE3FF"/>
<rect x="183.719" y="206.33" width="8.59584" height="8.59584" fill="#8AE3FF"/>
<rect x="214.453" y="232.678" width="8.59584" height="8.59584" fill="#8AE3FF"/>
<rect x="207.867" y="225.433" width="2.86528" height="2.86528" fill="#8AE3FF"/>
<rect x="214.279" y="219.503" width="2.86528" height="2.86528" fill="#8AE3FF"/>
<defs>
<radialGradient id="paint0_radial_6_2351" cx="0" cy="0" r="1" gradientUnits="userSpaceOnUse" gradientTransform="translate(226 142.5) rotate(90) scale(216.523 217.001)">
<stop stop-color="#00FFF0"/>
<stop offset="1" stop-color="#E1FBFF" stop-opacity="0"/>
</radialGradient>
</defs>
</svg>
