<svg width="501" height="209" viewBox="0 0 501 209" fill="none" xmlns="http://www.w3.org/2000/svg">
<g opacity="0.5">
<path d="M162.447 36.2284C160.889 35.8389 158.941 35.4493 157.383 35.4493C154.656 35.4493 152.319 35.8389 150.371 37.0076C148.423 38.1762 146.086 39.7344 143.749 42.4613V35.4493H129.725V98.9465H143.749V66.2241C143.749 54.927 147.644 49.0837 155.046 49.0837C157.383 49.0837 160.11 49.8628 162.837 51.8106V36.2284H162.447Z" fill="#02007C"/>
<path d="M326.837 36.2284C325.279 35.8389 323.331 35.4493 321.773 35.4493C319.046 35.4493 316.708 35.8389 314.761 37.0076C312.813 38.1762 310.475 39.7344 308.138 42.4613V35.4493H294.114V98.9465H308.138V66.2241C308.138 54.927 312.034 49.0837 319.435 49.0837C321.773 49.0837 324.499 49.8628 327.226 51.8106V36.2284H326.837Z" fill="#02007C"/>
<path d="M122.711 70.1197H79.8597C80.2492 75.1839 81.8074 79.0794 84.5343 81.8063C87.2612 84.5332 91.1567 86.0914 95.4418 86.0914C98.9478 86.0914 101.675 85.3123 104.012 83.7541C106.349 82.1958 108.687 79.0794 111.413 74.7943L121.152 84.5332C119.984 86.4809 118.815 88.0391 117.257 89.2078C115.309 91.5451 112.972 93.1033 110.634 94.6615C108.297 96.2198 105.96 96.9989 103.233 97.778C100.506 98.5571 97.7791 98.9466 94.6627 98.9466C85.703 98.9466 78.691 96.2198 73.2373 90.3765C67.7835 84.5332 65.0566 76.7421 65.0566 67.3928C65.0566 58.0435 67.7835 50.2525 72.8477 44.4092C78.3015 38.5659 85.3134 35.839 93.8836 35.839C102.843 35.839 109.855 38.5659 114.919 44.4092C119.984 49.8629 122.711 57.654 122.711 67.7824V70.1197ZM108.687 58.8226C106.739 51.4211 102.064 47.9151 94.6627 47.9151C93.1045 47.9151 91.5462 48.3047 89.988 48.6943C88.4298 49.0838 87.2612 49.8629 86.0925 51.0316C84.9238 51.8107 83.7552 52.9793 82.9761 54.5375C82.197 55.7062 81.4179 57.2644 81.0283 59.2122H108.687V58.8226Z" fill="#02007C"/>
<path d="M287.102 70.1197H244.251C244.641 75.1839 246.199 79.0794 248.926 81.8063C251.653 84.5332 255.548 86.0914 259.833 86.0914C263.339 86.0914 266.066 85.3123 268.404 83.7541C270.741 82.1958 273.078 79.0794 275.805 74.7943L285.544 84.5332C284.375 86.4809 283.207 88.0391 281.648 89.2078C279.701 91.5451 277.363 93.1033 275.026 94.6615C272.689 96.2198 270.351 96.9989 267.624 97.778C264.898 98.5571 262.171 98.9466 259.054 98.9466C250.095 98.9466 243.083 96.2198 237.629 90.3765C232.175 84.5332 229.448 76.7421 229.448 67.3928C229.448 58.0435 232.175 50.2525 237.239 44.4092C242.693 38.5659 249.705 35.839 258.275 35.839C267.235 35.839 274.247 38.5659 279.311 44.4092C284.375 49.8629 287.102 57.654 287.102 67.7824V70.1197ZM272.689 58.8226C270.741 51.4211 266.066 47.9151 258.665 47.9151C257.107 47.9151 255.548 48.3047 253.99 48.6943C252.432 49.0838 251.263 49.8629 250.095 51.0316C248.926 51.8107 247.757 52.9793 246.978 54.5375C246.199 55.7062 245.42 57.2644 245.03 59.2122H272.689V58.8226Z" fill="#02007C"/>
<path d="M411.758 70.1197H368.908C369.297 75.1839 370.855 79.0794 373.582 81.8063C376.309 84.5332 380.205 86.0914 384.49 86.0914C387.996 86.0914 390.723 85.3123 393.06 83.7541C395.397 82.1958 397.734 79.0794 400.461 74.7943L410.2 84.5332C409.031 86.4809 407.863 88.0391 406.305 89.2078C404.357 91.5451 402.02 93.1033 399.682 94.6615C397.345 96.2198 395.008 96.9989 392.281 97.778C389.554 98.5571 386.827 98.9466 383.711 98.9466C374.751 98.9466 367.739 96.2198 362.285 90.3765C356.831 84.5332 354.104 76.7421 354.104 67.3928C354.104 58.0435 356.831 50.2525 361.896 44.4092C367.349 38.5659 374.361 35.839 382.931 35.839C391.891 35.839 398.903 38.5659 403.967 44.4092C409.032 49.8629 411.758 57.654 411.758 67.7824V70.1197ZM397.734 58.8226C395.787 51.4211 391.112 47.9151 383.711 47.9151C382.152 47.9151 380.594 48.3047 379.036 48.6943C377.478 49.0838 376.309 49.8629 375.14 51.0316C373.972 51.8107 372.803 52.9793 372.024 54.5375C371.245 55.7062 370.466 57.2644 370.076 59.2122H397.734V58.8226Z" fill="#02007C"/>
<path d="M181.536 35.4493L197.898 70.8987L214.259 35.4493H229.841L197.898 101.284L166.344 35.4493H181.536Z" fill="#02007C"/>
<path d="M347.484 17.9195V104.4L333.46 90.3764V3.89557L347.484 17.9195Z" fill="#02007C"/>
<path d="M440.587 53.3688C438.639 49.8628 436.691 47.915 433.964 47.915C432.796 47.915 431.627 48.3046 430.848 49.0837C430.069 49.8628 429.679 51.0315 429.679 52.2001C429.679 54.5375 432.406 56.8748 437.86 59.2121C445.261 62.3285 450.326 65.4449 452.663 67.7823C455.39 70.5091 456.559 74.0151 456.559 78.6898C456.559 84.5331 454.611 89.2077 450.326 93.1032C446.041 96.6092 440.976 98.557 435.133 98.557C426.563 98.557 420.33 95.051 416.045 88.039L425.784 78.3002C427.342 81.0271 428.511 82.9749 429.679 83.754C431.238 85.3122 433.185 86.0913 435.523 86.0913C440.197 86.0913 442.535 84.1435 442.535 79.8584C442.535 77.5211 440.587 75.1838 437.081 72.8465C435.523 72.0674 434.354 71.2883 432.796 70.8987C431.238 70.1196 430.069 69.73 428.511 68.9509C424.615 67.0032 421.499 65.0554 419.94 63.1076C417.993 60.7703 416.824 57.2643 416.824 53.3688C416.824 48.3046 418.772 44.0195 422.278 40.5135C425.784 37.0076 430.458 35.4493 435.523 35.4493C442.145 35.4493 447.209 38.1762 450.715 44.0195L440.587 53.3688Z" fill="#02007C"/>
<path d="M484.607 53.3688C482.66 49.8628 480.712 47.915 477.985 47.915C476.816 47.915 475.648 48.3046 474.868 49.0837C474.089 49.8628 473.7 51.0315 473.7 52.2001C473.7 54.5375 476.427 56.8748 481.88 59.2121C489.282 62.3285 494.346 65.4449 496.683 67.7823C499.41 70.5091 500.579 74.0151 500.579 78.6898C500.579 84.5331 498.631 89.2077 494.346 93.1032C490.061 96.6092 484.997 98.557 479.154 98.557C470.583 98.557 464.351 95.051 460.065 88.039L469.804 78.3002C471.362 81.0271 472.531 82.9749 473.7 83.754C475.258 85.3122 477.206 86.0913 479.543 86.0913C484.218 86.0913 486.555 84.1435 486.555 79.8584C486.555 77.5211 484.607 75.1838 481.101 72.8465C479.543 72.0674 478.374 71.2883 476.816 70.8987C475.258 70.1196 474.089 69.73 472.531 68.9509C468.636 67.0032 465.519 65.0554 463.961 63.1076C462.013 60.7703 460.845 57.2643 460.845 53.3688C460.845 48.3046 462.792 44.0195 466.298 40.5135C469.804 37.0076 474.479 35.4493 479.543 35.4493C486.166 35.4493 491.23 38.1762 494.736 44.0195L484.607 53.3688Z" fill="#02007C"/>
<path d="M44.4101 22.9837C42.0728 19.0881 40.1251 16.7508 38.1773 15.5821C36.2295 14.4135 33.5027 13.6344 30.3862 13.6344C26.4907 13.6344 22.9847 14.803 20.6474 17.1403C17.9205 19.4777 16.7519 22.2045 16.7519 25.321C16.7519 29.9956 20.2578 33.5016 27.2698 36.618L36.6191 40.5135C44.4101 43.63 49.8639 47.5255 53.3699 51.8106C56.8759 56.0957 58.8236 61.939 58.8236 68.1718C58.8236 76.742 56.0967 84.1435 50.2534 89.9868C44.4101 95.8301 37.0086 98.557 28.4385 98.557C20.2578 98.557 13.2459 96.2197 8.18169 91.1555C4.67571 88.0391 2.33839 84.1435 0.390625 79.4689L12.4668 67.3927C13.2459 72.8465 14.4145 76.742 15.9728 79.0793C19.0892 83.3644 23.3743 85.3122 28.828 85.3122C33.1131 85.3122 37.0086 83.754 40.1251 80.6376C43.2415 77.5211 44.4101 74.0151 44.4101 69.3405C44.4101 67.3927 44.0206 65.8345 43.6311 64.2763C43.2415 62.7181 42.4624 61.1599 41.2937 59.9912C40.125 58.8226 38.9564 57.6539 37.0086 56.4852C35.4504 55.3166 33.1131 54.1479 30.7758 53.3688L21.4265 49.4733C8.57124 44.0195 1.94883 35.8389 1.94883 25.321C1.94883 18.309 4.67571 12.0762 10.1295 7.40151C15.5832 2.33732 22.2056 0 30.3862 0C40.1251 0 48.3057 4.28509 54.149 13.2448L44.4101 22.9837Z" fill="#02007C"/>
<path d="M235.68 142.967C234.121 142.578 232.563 142.188 231.394 142.188C229.057 142.188 227.109 142.578 225.162 143.357C223.603 144.136 221.656 145.694 219.318 148.031V141.798H207.242V197.115H219.318V168.678C219.318 158.939 222.435 153.875 229.057 153.875C231.394 153.875 233.342 154.654 235.68 156.212V142.967Z" fill="#02007C"/>
<path d="M0 154.263C0 142.577 4.2851 132.448 12.8553 124.268C21.4254 116.087 31.5538 111.802 43.63 111.802C55.3166 111.802 65.445 116.087 74.0151 124.268C82.5853 132.838 86.8704 142.966 86.8704 154.653C86.8704 166.729 82.5853 176.468 74.0151 185.038C65.445 193.219 55.3166 197.504 43.2404 197.504C32.7225 197.504 22.9837 193.998 14.4135 186.596C4.67464 178.026 0 167.508 0 154.263ZM12.4657 154.263C12.4657 163.223 15.5821 171.014 21.815 176.857C28.0478 182.701 35.0598 185.817 42.8509 185.817C51.421 185.817 58.8225 182.701 64.6658 176.857C70.5091 170.625 73.6256 163.223 73.6256 154.653C73.6256 145.693 70.5091 138.292 64.6658 132.448C58.8225 126.605 51.421 123.489 42.8509 123.489C34.2807 123.489 26.8792 126.605 21.0359 132.448C15.5821 138.292 12.4657 145.693 12.4657 154.263Z" fill="#02007C"/>
<path d="M104.402 208.412H92.3262V142.188H104.402V149.2C109.077 144.525 114.531 142.188 120.764 142.188C127.776 142.188 134.008 144.915 138.293 149.979C142.968 155.043 145.305 161.666 145.305 169.846C145.305 177.637 142.968 184.26 138.293 189.324C133.619 194.388 127.776 197.115 120.764 197.115C114.531 197.115 109.077 194.778 104.402 189.713V208.412ZM132.84 170.236C132.84 165.172 131.671 161.276 128.944 158.16C126.217 155.043 122.711 153.485 118.426 153.485C114.141 153.485 110.246 155.043 107.519 158.16C104.792 161.276 103.234 165.172 103.234 170.236C103.234 175.3 104.792 179.195 107.519 182.312C110.246 185.428 113.752 186.986 118.037 186.986C122.322 186.986 125.828 185.428 128.555 182.312C131.671 178.806 132.84 174.91 132.84 170.236Z" fill="#02007C"/>
<path d="M201.009 172.573H163.612C164.002 176.858 165.17 180.364 167.897 182.701C170.235 185.039 173.351 186.597 177.247 186.597C180.363 186.597 182.7 185.818 184.648 184.649C186.596 183.091 188.933 180.754 191.271 176.858L199.841 185.428C198.672 186.987 197.893 188.155 196.724 189.713C195.166 191.661 193.218 193.219 191.271 194.388C189.323 195.557 186.985 196.336 184.648 197.115C182.311 197.504 179.974 197.894 177.247 197.894C169.456 197.894 163.223 195.557 158.548 190.493C153.873 185.428 151.536 178.806 151.536 170.625C151.536 162.445 153.873 155.822 158.548 150.758C163.223 145.694 169.066 143.357 176.857 143.357C184.648 143.357 190.491 145.694 195.166 150.758C199.451 155.433 201.789 162.445 201.789 171.015L201.009 172.573ZM188.544 162.834C186.985 156.601 182.7 153.095 176.468 153.095C174.909 153.095 173.741 153.485 172.182 153.875C171.014 154.264 169.845 155.043 168.676 155.822C167.508 156.601 166.729 157.77 165.95 158.939C165.17 160.107 164.781 161.276 164.391 162.834H188.544Z" fill="#02007C"/>
<path d="M279.702 142.188H291.778V197.115H279.702V190.103C274.638 194.778 269.574 197.115 263.73 197.115C256.329 197.115 250.485 194.388 245.811 189.324C241.136 183.87 238.799 177.248 238.799 169.457C238.799 161.666 241.136 155.043 245.811 149.979C250.485 144.915 256.329 142.188 263.341 142.188C269.574 142.188 275.027 144.525 279.702 149.589V142.188ZM250.875 169.457C250.875 174.521 252.044 178.416 254.771 181.533C257.497 184.649 261.003 186.207 265.288 186.207C269.574 186.207 273.469 184.649 276.196 181.533C278.923 178.416 280.481 174.521 280.481 169.457C280.481 164.392 278.923 160.497 276.196 157.38C273.469 154.264 269.963 152.706 265.678 152.706C261.393 152.706 257.887 154.264 255.16 157.38C252.433 160.886 250.875 164.782 250.875 169.457Z" fill="#02007C"/>
<path d="M319.047 153.485V197.504H306.97V153.485H297.621V142.188H306.97V124.658H319.047V142.188H328.396V153.485H319.047Z" fill="#02007C"/>
<path d="M334.239 130.501C334.239 128.943 335.018 127.385 336.187 126.216C337.356 125.047 338.914 124.268 340.472 124.268C342.03 124.268 343.589 125.047 344.757 126.216C345.926 127.385 346.705 128.943 346.705 130.501C346.705 132.059 345.926 133.618 344.757 134.786C343.589 135.955 342.03 136.734 340.472 136.734C338.914 136.734 337.356 135.955 336.187 134.786C335.018 133.618 334.239 132.059 334.239 130.501Z" fill="#02007C"/>
<path d="M346.315 142.188H334.239V197.505H346.315V142.188Z" fill="#02007C"/>
<path d="M352.156 169.457C352.156 162.055 354.883 155.433 360.337 150.368C365.791 144.915 372.413 142.577 380.204 142.577C387.995 142.577 394.618 145.304 400.071 150.368C405.525 155.822 408.252 162.055 408.252 169.846C408.252 177.637 405.525 184.26 400.071 189.324C394.618 194.388 387.995 197.115 380.204 197.115C372.413 197.115 365.791 194.388 360.726 188.934C354.883 183.87 352.156 177.248 352.156 169.457ZM364.622 169.457C364.622 174.521 366.18 178.806 368.907 181.922C371.634 185.039 375.529 186.597 380.204 186.597C384.879 186.597 388.774 185.039 391.501 181.922C394.228 178.806 395.786 174.91 395.786 169.846C395.786 164.782 394.228 160.886 391.501 157.77C388.774 154.653 384.879 153.095 380.204 153.095C375.529 153.095 372.023 154.653 368.907 157.77C366.18 160.886 364.622 164.782 364.622 169.457Z" fill="#02007C"/>
<path d="M413.707 142.188H425.783V148.421C430.068 144.136 434.743 142.188 440.197 142.188C446.429 142.188 451.104 144.136 454.22 148.031C457.337 151.148 458.506 156.601 458.506 164.003V197.504H446.429V166.73C446.429 161.666 445.65 158.16 444.092 156.212C442.534 154.264 440.197 153.095 436.301 153.095C432.406 153.095 429.289 154.264 427.731 156.991C426.173 159.718 425.394 164.003 425.394 170.625V197.115H413.317V142.188H413.707Z" fill="#02007C"/>
<path d="M486.552 157.77C484.994 154.654 483.046 153.095 480.709 153.095C479.54 153.095 478.761 153.485 477.982 154.264C477.203 155.043 476.813 155.822 476.813 156.991C476.813 158.939 479.151 160.887 483.825 162.834C490.058 165.561 494.343 168.288 496.681 170.625C499.018 172.963 500.187 176.079 500.187 179.975C500.187 185.039 498.239 189.324 494.733 192.44C491.227 195.557 486.942 197.115 481.488 197.115C474.087 197.115 468.633 193.999 464.737 188.155L473.308 179.585C474.866 181.922 475.645 183.481 476.424 184.26C477.982 185.428 479.54 186.208 481.488 186.208C485.384 186.208 487.721 184.26 487.721 180.754C487.721 178.416 486.163 176.469 483.046 174.91C481.878 174.131 480.709 173.742 479.54 172.963C478.372 172.573 477.203 171.794 476.034 171.015C472.528 169.457 470.191 167.509 468.633 165.951C466.685 163.613 465.906 160.887 465.906 157.381C465.906 152.706 467.464 149.2 470.581 146.084C473.697 142.967 477.593 141.798 482.267 141.798C487.721 141.798 492.396 144.136 495.512 149.2L486.552 157.77Z" fill="#02007C"/>
</g>
</svg>
