<svg width="834" height="201" viewBox="0 0 834 201" fill="none" xmlns="http://www.w3.org/2000/svg">
<path d="M40.2991 46H42.5779L45.5818 18.2404L59.099 47.243L72.7199 18.2404L75.8273 46H78.1061L74.17 10.2647L59.099 42.2193L44.1834 10.2647L40.2991 46ZM103.404 24.8696V28.5467C101.228 25.6982 98.6389 24.4034 95.1172 24.4034C89.0577 24.4034 84.8109 28.9092 84.8109 35.3312C84.8109 41.8568 89.1613 46.5697 95.1689 46.5697C98.6389 46.5697 101.539 45.0678 103.404 42.2193V46H105.475V24.8696H103.404ZM95.2207 26.3197C97.1888 26.3197 99.3122 27.1483 100.918 28.5467C102.73 30.1522 103.559 32.2238 103.559 35.2276C103.559 40.7692 100.089 44.6535 95.2207 44.6535C90.456 44.6535 86.9343 40.6656 86.9343 35.2276C86.9343 30.204 90.5596 26.3197 95.2207 26.3197ZM118.399 34.9169L109.801 46H112.546L119.797 36.5224L127.047 46H129.741L121.247 34.9169L128.912 24.8696H126.219L119.797 33.3114L113.271 24.8696H110.578L118.399 34.9169ZM135.923 24.8696L133.851 24.8696V46H135.923V24.8696ZM134.887 15.9616C133.851 15.9616 133.022 16.7903 133.022 17.8261C133.022 18.9137 133.851 19.7423 134.887 19.7423C135.923 19.7423 136.751 18.9137 136.751 17.8261C136.751 16.7903 135.923 15.9616 134.887 15.9616ZM143.309 24.8696V46H145.38V33.7775C145.38 31.8612 145.691 30.2557 146.261 29.0646C147.09 27.4073 148.902 26.3197 150.767 26.3197C152.424 26.3197 153.874 27.1483 154.651 28.5985C155.221 29.5307 155.428 30.6183 155.428 32.4309V46H157.499V33.2596C157.499 28.7538 159.364 26.3197 162.834 26.3197C164.336 26.3197 165.682 26.8894 166.459 27.8734C167.184 28.8574 167.391 29.6861 167.391 31.913V46H169.463V32.172C169.463 29.3235 169.152 27.977 168.168 26.734C167.029 25.2839 165.061 24.4034 162.937 24.4034C160.037 24.4034 158.121 25.5946 156.723 28.2359C155.48 25.6464 153.563 24.4034 150.818 24.4034C148.384 24.4034 146.727 25.3357 145.38 27.5109V24.8696H143.309ZM178.963 24.8696H176.892V46H178.963V24.8696ZM177.927 15.9616C176.892 15.9616 176.063 16.7903 176.063 17.8261C176.063 18.9137 176.892 19.7423 177.927 19.7423C178.963 19.7423 179.792 18.9137 179.792 17.8261C179.792 16.7903 178.963 15.9616 177.927 15.9616ZM188.058 44.0838L205.201 24.8696L186.349 24.8696V26.7858H200.851L183.605 46L205.098 46V44.0838L188.058 44.0838ZM227.662 35.6937C227.558 28.9092 223.519 24.4034 217.563 24.4034C211.659 24.4034 207.256 29.1164 207.256 35.5384C207.256 41.9086 211.607 46.5697 217.615 46.5697C221.706 46.5697 224.865 44.6535 226.989 40.821L225.228 39.7852C224.347 41.2871 223.829 41.9604 223.104 42.6336C221.706 43.8766 219.686 44.6535 217.77 44.6535C214.87 44.6535 212.073 42.9962 210.675 40.4584C209.898 39.1119 209.587 37.8689 209.535 35.6937H227.662ZM209.691 33.7257C210.312 29.4271 213.575 26.3197 217.511 26.3197C221.395 26.3197 224.503 29.2717 225.28 33.7257H209.691ZM253.369 46.3625L248.19 58.3779H250.521L264.711 24.8696H262.329L254.457 43.6176L245.808 24.8696H243.374L253.369 46.3625ZM277.919 24.4034C271.859 24.4034 266.836 29.3235 266.836 35.2794C266.836 41.5978 271.652 46.5697 277.815 46.5697C284.082 46.5697 288.95 41.7532 288.95 35.4866C288.95 29.2717 284.134 24.4034 277.919 24.4034ZM277.815 26.3197C282.891 26.3197 286.827 30.3075 286.827 35.4866C286.827 40.6656 282.891 44.6535 277.763 44.6535C272.791 44.6535 268.959 40.562 268.959 35.3312C268.959 30.3593 272.947 26.3197 277.815 26.3197ZM297.009 24.8696H294.937V38.1797C294.937 41.1317 295.3 42.5818 296.491 43.9802C297.837 45.5857 300.064 46.5697 302.55 46.5697C304.984 46.5697 307.211 45.5857 308.558 43.9802C309.749 42.5818 310.112 41.1317 310.112 38.1797V24.8696H308.04V37.4546C308.04 39.8887 307.833 41.1317 307.367 42.1157C306.59 43.6176 304.622 44.6535 302.55 44.6535C300.427 44.6535 298.459 43.6176 297.682 42.1157C297.216 41.1317 297.009 39.8887 297.009 37.4546V24.8696ZM317.494 24.8696V46H319.566V34.6579C319.566 30.4629 319.773 29.2199 320.705 28.0288C321.534 26.9412 322.777 26.2679 323.916 26.2679C324.382 26.2679 324.745 26.3715 325.366 26.734L326.506 24.9213C325.522 24.507 325.004 24.4034 324.227 24.4034C322.104 24.4034 320.705 25.3875 319.566 27.6144V24.8696H317.494ZM360.831 27.0965C358.396 25.1803 356.273 24.4034 353.476 24.4034C347.261 24.4034 342.549 29.2199 342.549 35.6419C342.549 41.805 347.261 46.5697 353.425 46.5697C356.273 46.5697 358.655 45.6375 361.089 43.6176V40.821C358.811 43.4105 356.325 44.6535 353.425 44.6535C348.556 44.6535 344.672 40.6138 344.672 35.5384C344.672 30.3593 348.504 26.3197 353.425 26.3197C356.221 26.3197 358.345 27.3037 360.831 29.8414V27.0965ZM368.322 8.24487H366.25V46L368.322 46V8.24487ZM385.444 24.4034C379.385 24.4034 374.361 29.3235 374.361 35.2794C374.361 41.5978 379.178 46.5697 385.341 46.5697C391.607 46.5697 396.476 41.7532 396.476 35.4866C396.476 29.2717 391.659 24.4034 385.444 24.4034ZM385.341 26.3197C390.416 26.3197 394.352 30.3075 394.352 35.4866C394.352 40.6656 390.416 44.6535 385.289 44.6535C380.317 44.6535 376.485 40.562 376.485 35.3312C376.485 30.3593 380.472 26.3197 385.341 26.3197ZM404.534 24.8696H402.463V38.1797C402.463 41.1317 402.825 42.5818 404.016 43.9802C405.363 45.5857 407.59 46.5697 410.076 46.5697C412.51 46.5697 414.737 45.5857 416.083 43.9802C417.275 42.5818 417.637 41.1317 417.637 38.1797V24.8696H415.566V37.4546C415.566 39.8887 415.358 41.1317 414.892 42.1157C414.115 43.6176 412.147 44.6535 410.076 44.6535C407.952 44.6535 405.984 43.6176 405.208 42.1157C404.741 41.1317 404.534 39.8887 404.534 37.4546V24.8696ZM442.266 8.24487V28.5467C440.091 25.6982 437.501 24.4034 433.979 24.4034C427.92 24.4034 423.673 28.9092 423.673 35.3312C423.673 41.8568 428.024 46.5697 434.031 46.5697C437.501 46.5697 440.401 45.0678 442.266 42.2193V46H444.338V8.24487H442.266ZM434.083 26.3197C436.051 26.3197 438.174 27.1483 439.78 28.5467C441.593 30.1522 442.421 32.2238 442.421 35.2276C442.421 40.7692 438.951 44.6535 434.083 44.6535C429.318 44.6535 425.797 40.6656 425.797 35.2276C425.797 30.204 429.422 26.3197 434.083 26.3197ZM463.792 24.8696H461.358L471.095 47.2948L480.728 24.8696H478.397L471.095 41.9604L463.792 24.8696ZM501.592 24.8696V28.5467C499.417 25.6982 496.827 24.4034 493.306 24.4034C487.246 24.4034 482.999 28.9092 482.999 35.3312C482.999 41.8568 487.35 46.5697 493.357 46.5697C496.827 46.5697 499.728 45.0678 501.592 42.2193V46H503.664V24.8696H501.592ZM493.409 26.3197C495.377 26.3197 497.501 27.1483 499.106 28.5467C500.919 30.1522 501.747 32.2238 501.747 35.2276C501.747 40.7692 498.278 44.6535 493.409 44.6535C488.645 44.6535 485.123 40.6656 485.123 35.2276C485.123 30.204 488.748 26.3197 493.409 26.3197ZM513.071 8.24487H511V46H513.071V8.24487ZM522.529 24.8696H520.458V38.1797C520.458 41.1317 520.82 42.5818 522.011 43.9802C523.358 45.5857 525.585 46.5697 528.071 46.5697C530.505 46.5697 532.732 45.5857 534.078 43.9802C535.27 42.5818 535.632 41.1317 535.632 38.1797V24.8696H533.56V37.4546C533.56 39.8887 533.353 41.1317 532.887 42.1157C532.11 43.6176 530.142 44.6535 528.071 44.6535C525.947 44.6535 523.979 43.6176 523.202 42.1157C522.736 41.1317 522.529 39.8887 522.529 37.4546V24.8696ZM562.073 35.6937C561.97 28.9092 557.93 24.4034 551.974 24.4034C546.07 24.4034 541.668 29.1164 541.668 35.5384C541.668 41.9086 546.018 46.5697 552.026 46.5697C556.118 46.5697 559.277 44.6535 561.4 40.821L559.639 39.7852C558.759 41.2871 558.241 41.9604 557.516 42.6336C556.118 43.8766 554.098 44.6535 552.182 44.6535C549.281 44.6535 546.485 42.9962 545.086 40.4584C544.309 39.1119 543.999 37.8689 543.947 35.6937H562.073ZM544.102 33.7257C544.724 29.4271 547.987 26.3197 551.923 26.3197C555.807 26.3197 558.914 29.2717 559.691 33.7257H544.102Z" fill="white"/>
<path d="M61.4233 78.6254L61.4233 76.285L39.3926 85.6976L57.4038 92.8715L39.3926 100.045L61.4233 109.662L61.4233 107.27L44.7349 100.045L62.6952 92.8715L44.7349 85.6467L61.4233 78.6254ZM61.4233 116.005L61.4233 113.97L40.6646 113.97L40.6646 116.005L61.4233 116.005ZM70.1745 114.988C70.1745 113.97 69.3604 113.156 68.3428 113.156C67.2744 113.156 66.4603 113.97 66.4603 114.988C66.4603 116.005 67.2744 116.819 68.3428 116.819C69.3604 116.819 70.1745 116.005 70.1745 114.988ZM59.5407 125.547L59.5407 129.21L61.4233 129.21L61.4233 125.547L68.8516 125.547L68.8516 123.512L61.4233 123.512L61.4233 121.222L59.5407 121.222L59.5407 123.512L40.6646 123.512L40.6646 125.547L59.5407 125.547ZM77.7554 133.491L40.6646 133.491L40.6646 135.526L51.451 135.526C54.3002 135.526 55.7248 135.781 57.1494 136.646C58.9811 137.663 59.9987 139.444 59.9987 141.632C59.9987 143.464 59.2355 145.143 57.9635 145.855C57.0477 146.415 55.9283 146.618 53.7405 146.618L40.6646 146.618L40.6646 148.653L53.7405 148.653C56.2336 148.653 57.8109 148.348 58.9811 147.636C60.7618 146.567 61.8812 144.278 61.8812 141.886C61.8812 139.088 60.8127 137.205 58.167 135.526L77.7554 135.526L77.7554 133.491Z" fill="white"/>
<path d="M145.185 76.4324C138.715 69.3372 131.62 65.9982 122.647 65.9982C108.039 65.9982 97.1873 76.2237 97.1873 89.5795C97.1873 99.805 102.822 106.065 117.43 112.535C129.325 117.752 132.664 121.299 132.664 129.021C132.664 139.872 125.151 147.176 114.091 147.176C104.491 147.176 98.2307 142.794 94.057 132.986L87.3791 135.907C92.8049 148.846 101.361 154.897 114.091 154.897C129.951 154.897 141.22 144.463 141.22 129.855C141.22 118.378 136.42 112.535 121.186 105.648C108.665 100.014 105.743 97.0921 105.743 89.9968C105.743 80.6061 113.047 73.7195 123.064 73.7195C129.325 73.7195 134.959 76.2237 140.176 81.2321L145.185 76.4324ZM170.055 108.987L239.755 108.987C239.338 98.3442 238.503 92.9184 236.416 87.4926C230.782 73.5108 218.469 65.1635 203.236 65.1635C179.237 65.1635 161.916 86.0319 161.916 114.83C161.916 138.62 177.567 154.897 200.94 154.897C214.922 154.897 223.478 150.306 233.495 137.368L227.86 133.403C219.513 143.42 212.418 147.176 201.566 147.176C182.993 147.176 170.055 133.82 170.055 114.83V108.987ZM171.307 101.474C173.394 93.1271 175.272 89.1621 179.028 84.3624C185.08 77.0585 193.845 72.8848 203.236 72.8848C213.044 72.8848 221.808 77.6845 227.025 85.8232C229.53 89.9968 230.782 93.7532 231.617 101.474L171.307 101.474ZM278.379 68.7111H270.24L260.015 152.185H268.154L273.788 107.526C275.457 93.7532 278.796 85.6145 285.474 79.7713C289.648 76.015 294.239 74.1369 298.621 74.1369C301.334 74.1369 303.421 74.7629 307.595 76.6411L311.977 69.5458C306.76 67.0416 304.256 66.4156 300.499 66.4156C292.152 66.4156 286.935 69.7545 276.918 81.0234L278.379 68.7111ZM323.788 68.7111L349.039 160.115L399.541 68.7111H389.941L351.752 138.203L332.344 68.7111H323.788ZM414.203 108.987H483.904C483.486 98.3442 482.652 92.9184 480.565 87.4926C474.93 73.5108 462.618 65.1635 447.384 65.1635C423.385 65.1635 406.065 86.0319 406.065 114.83C406.065 138.62 421.716 154.897 445.088 154.897C459.07 154.897 467.626 150.306 477.643 137.368L472.009 133.403C463.661 143.42 456.566 147.176 445.715 147.176C427.142 147.176 414.203 133.82 414.203 114.83V108.987ZM415.455 101.474C417.542 93.1271 419.42 89.1621 423.177 84.3624C429.229 77.0585 437.993 72.8848 447.384 72.8848C457.192 72.8848 465.957 77.6845 471.174 85.8232C473.678 89.9968 474.93 93.7532 475.765 101.474H415.455ZM522.527 68.7111H514.389L504.163 152.185H512.302L517.936 107.526C519.606 93.7532 522.945 85.6145 529.623 79.7713C533.796 76.015 538.387 74.1369 542.77 74.1369C545.483 74.1369 547.57 74.7629 551.743 76.6411L556.126 69.5458C550.908 67.0416 548.404 66.4156 544.648 66.4156C536.301 66.4156 531.084 69.7545 521.067 81.0234L522.527 68.7111ZM591.679 0.0541904L583.541 0.0541904L564.759 152.185L572.898 152.185L591.679 0.0541904ZM611.479 108.987L681.18 108.987C680.762 98.3442 679.928 92.9184 677.841 87.4926C672.206 73.5108 659.894 65.1635 644.66 65.1635C620.662 65.1635 603.341 86.0319 603.341 114.83C603.341 138.62 618.992 154.897 642.365 154.897C656.346 154.897 664.902 150.306 674.919 137.368L669.285 133.403C660.937 143.42 653.842 147.176 642.991 147.176C624.418 147.176 611.479 133.82 611.479 114.83V108.987ZM612.732 101.474C614.818 93.1271 616.697 89.1621 620.453 84.3624C626.505 77.0585 635.269 72.8848 644.66 72.8848C654.468 72.8848 663.233 77.6845 668.45 85.8232C670.954 89.9968 672.206 93.7532 673.041 101.474H612.732ZM753.858 76.4324C747.389 69.3372 740.294 65.9982 731.32 65.9982C716.712 65.9982 705.861 76.2237 705.861 89.5795C705.861 99.805 711.495 106.065 726.103 112.535C737.998 117.752 741.337 121.299 741.337 129.021C741.337 139.872 733.825 147.176 722.764 147.176C713.165 147.176 706.904 142.794 702.731 132.986L696.053 135.907C701.479 148.846 710.035 154.897 722.764 154.897C738.624 154.897 749.893 144.463 749.893 129.855C749.893 118.378 745.093 112.535 729.86 105.648C717.339 100.014 714.417 97.0921 714.417 89.9968C714.417 80.6061 721.721 73.7195 731.738 73.7195C737.998 73.7195 743.633 76.2237 748.85 81.2321L753.858 76.4324ZM825.459 76.4324C818.99 69.3372 811.894 65.9982 802.921 65.9982C788.313 65.9982 777.462 76.2237 777.462 89.5795C777.462 99.805 783.096 106.065 797.704 112.535C809.599 117.752 812.938 121.299 812.938 129.021C812.938 139.872 805.425 147.176 794.365 147.176C784.766 147.176 778.505 142.794 774.331 132.986L767.654 135.907C773.079 148.846 781.635 154.897 794.365 154.897C810.225 154.897 821.494 144.463 821.494 129.855C821.494 118.378 816.694 112.535 801.46 105.648C788.939 100.014 786.018 97.0921 786.018 89.9968C786.018 80.6061 793.322 73.7195 803.338 73.7195C809.599 73.7195 815.233 76.2237 820.451 81.2321L825.459 76.4324Z" fill="white"/>
</svg>
