<svg width="428" height="261" viewBox="0 0 428 261" fill="none" xmlns="http://www.w3.org/2000/svg">
<g opacity="0.2" filter="url(#filter0_d)">
<path d="M30.0002 26H339.352L398 84.6486L398 226.5H88.6486L30 167.851L30.0002 26Z" fill="white"/>
</g>
<g clip-path="url(#clip0)">
<path d="M182.374 125.468C183.507 126.053 184.717 126.477 185.967 126.728C187.54 127.095 189.15 127.279 190.765 127.277C192.259 127.28 193.745 127.068 195.178 126.646C196.431 126.286 197.605 125.694 198.639 124.9C199.584 124.157 200.356 123.217 200.902 122.145C201.458 121.021 201.739 119.781 201.722 118.527C201.742 116.951 201.231 115.414 200.272 114.164C199.309 112.903 197.702 111.903 195.449 111.163L191.036 109.751C189.784 109.422 188.614 108.836 187.6 108.03C187.313 107.751 187.085 107.417 186.93 107.047C186.775 106.678 186.697 106.281 186.699 105.88C186.66 105.326 186.777 104.772 187.037 104.281C187.297 103.79 187.688 103.381 188.168 103.1C189.448 102.453 190.876 102.153 192.309 102.23C194.37 102.198 196.415 102.606 198.305 103.428C198.676 103.631 199.083 103.761 199.503 103.813C199.975 103.813 200.209 103.479 200.209 102.829V101.329C200.229 100.964 200.135 100.602 199.938 100.295C199.685 99.9799 199.372 99.7184 199.017 99.5259C198.595 99.3099 198.157 99.1286 197.706 98.9837C197.157 98.8009 196.571 98.637 195.934 98.492C195.268 98.3404 194.595 98.2226 193.917 98.1389C193.221 98.0461 192.52 97.9998 191.818 98.0002C190.491 97.9923 189.17 98.1771 187.897 98.5487C186.725 98.8753 185.625 99.4207 184.656 100.156C183.733 100.847 182.964 101.723 182.399 102.728C181.819 103.788 181.528 104.982 181.555 106.189C181.556 107.829 182.104 109.422 183.112 110.716C184.146 112.098 185.806 113.149 188.092 113.868L192.618 115.286C193.778 115.587 194.856 116.145 195.77 116.919C196.048 117.212 196.264 117.558 196.406 117.936C196.548 118.313 196.613 118.716 196.596 119.119C196.616 119.709 196.477 120.293 196.194 120.81C195.911 121.328 195.495 121.761 194.989 122.063C193.599 122.829 192.021 123.188 190.437 123.097C189.192 123.096 187.95 122.969 186.73 122.719C185.551 122.478 184.401 122.11 183.301 121.622L182.506 121.3C182.323 121.23 182.129 121.194 181.933 121.193C181.46 121.193 181.227 121.515 181.227 122.17V123.753C181.213 124.126 181.317 124.494 181.522 124.806C181.728 125.118 182.026 125.358 182.374 125.493" fill="#222D3F"/>
<path d="M129.696 110.344C128.604 110.184 127.502 110.101 126.399 110.098C123.209 110.098 120.666 110.907 118.77 112.525C117.845 113.309 117.109 114.293 116.619 115.402C116.129 116.512 115.897 117.718 115.94 118.93C115.887 120.033 116.063 121.135 116.457 122.167C116.85 123.199 117.454 124.138 118.228 124.925C119.754 126.413 121.826 127.157 124.444 127.157C126.197 127.185 127.933 126.811 129.52 126.065C131.106 125.319 132.501 124.219 133.598 122.851C133.926 123.545 134.228 124.15 134.55 124.679C134.859 125.206 135.234 125.691 135.666 126.123C135.783 126.255 135.925 126.361 136.084 126.436C136.244 126.511 136.416 126.552 136.592 126.558C136.886 126.548 137.17 126.454 137.412 126.287L139.373 124.982C139.54 124.886 139.682 124.751 139.786 124.589C139.89 124.426 139.954 124.241 139.971 124.049C139.96 123.8 139.886 123.557 139.757 123.343C139.356 122.63 139.019 121.883 138.748 121.111C138.482 120.21 138.363 119.271 138.395 118.331V108.194C138.395 104.777 137.525 102.224 135.804 100.534C134.083 98.845 131.391 98.0128 127.659 98.0128C126.023 98.0028 124.391 98.2019 122.805 98.6054C121.454 98.9445 120.14 99.4197 118.884 100.024C118.545 100.159 118.244 100.375 118.008 100.654C117.837 100.991 117.763 101.369 117.793 101.745V103.264C117.793 103.895 118.008 104.254 118.424 104.254C118.59 104.243 118.755 104.213 118.915 104.166C119.288 104.057 119.653 103.923 120.006 103.762C121.102 103.332 122.23 102.986 123.379 102.728C124.475 102.462 125.598 102.324 126.726 102.319C129.128 102.319 130.818 102.804 131.77 103.762C132.722 104.72 133.245 106.385 133.245 108.749V111.037C132.009 110.747 130.818 110.52 129.67 110.356L129.696 110.344ZM133.245 115.835C133.262 116.743 133.16 117.651 132.942 118.533C132.746 119.269 132.384 119.95 131.883 120.525C131.096 121.437 130.08 122.123 128.939 122.511C127.906 122.878 126.82 123.071 125.724 123.085C125.132 123.124 124.538 123.045 123.976 122.854C123.415 122.662 122.897 122.361 122.452 121.969C122.048 121.526 121.738 121.005 121.542 120.438C121.346 119.871 121.267 119.27 121.311 118.672C121.272 117.995 121.389 117.318 121.653 116.694C121.918 116.069 122.323 115.514 122.837 115.072C123.85 114.231 125.392 113.811 127.464 113.811C128.44 113.812 129.415 113.877 130.383 114.007C131.345 114.127 132.3 114.297 133.245 114.517V115.835Z" fill="#222D3F"/>
<path d="M148.911 124.925C148.996 125.386 149.216 125.812 149.541 126.148C149.896 126.38 150.317 126.487 150.739 126.451H153.406C153.851 126.491 154.297 126.375 154.667 126.123C154.999 125.776 155.219 125.336 155.297 124.862L160.095 104.809L164.943 124.862C165.018 125.337 165.238 125.777 165.573 126.123C165.942 126.376 166.388 126.492 166.834 126.451H169.5C169.924 126.486 170.347 126.379 170.705 126.148C171.03 125.812 171.25 125.386 171.335 124.925L178.824 100.837C178.938 100.516 179.007 100.257 179.051 100.081C179.093 99.9151 179.121 99.7464 179.133 99.5762C179.148 99.4726 179.138 99.367 179.105 99.2678C179.072 99.1685 179.016 99.0783 178.942 99.0043C178.868 98.9303 178.778 98.8745 178.679 98.8414C178.58 98.8083 178.474 98.7987 178.37 98.8134H175.483C175.052 98.7737 174.62 98.8779 174.254 99.1097C173.939 99.457 173.722 99.881 173.623 100.339L168.227 121.212L163.322 100.339C163.257 99.8765 163.048 99.4462 162.723 99.1097C162.346 98.8789 161.904 98.7751 161.463 98.8134H158.941C158.5 98.7742 158.058 98.8781 157.68 99.1097C157.342 99.4404 157.121 99.8718 157.05 100.339L152.195 120.941L146.982 100.345C146.886 99.8863 146.669 99.4616 146.351 99.116C145.977 98.8782 145.532 98.7738 145.091 98.8197H142.096C141.991 98.8008 141.883 98.807 141.781 98.8378C141.679 98.8686 141.586 98.9231 141.509 98.9969C141.432 99.0708 141.374 99.1617 141.339 99.2624C141.304 99.3631 141.294 99.4707 141.308 99.5762C141.351 100.005 141.442 100.428 141.579 100.837L148.911 124.925Z" fill="#222D3F"/>
<path d="M195.164 140.017C183.97 144.732 171.956 147.189 159.81 147.248C143.554 147.261 127.578 143.021 113.468 134.949C112.308 134.318 111.457 135.466 112.415 136.336C125.117 147.783 141.634 154.077 158.732 153.987C171.536 153.987 186.401 149.965 196.652 142.4C198.348 141.139 196.898 139.248 195.164 140.005" fill="#F49D00"/>
<path d="M188.69 135.75C187.788 136.38 187.946 137.263 188.948 137.143C192.252 136.746 199.609 135.882 200.926 137.54C202.244 139.198 199.464 146.139 198.228 149.228C197.856 150.167 198.663 150.545 199.489 149.858C204.986 145.256 206.424 135.617 205.282 134.224C204.141 132.831 194.565 131.658 188.677 135.775" fill="#F49D00"/>
<path d="M229.938 119.995C229.887 120.003 229.836 119.998 229.787 119.982C229.739 119.966 229.695 119.939 229.659 119.903C229.622 119.867 229.595 119.822 229.579 119.774C229.563 119.725 229.559 119.674 229.566 119.623V102.81C229.559 102.759 229.563 102.707 229.579 102.659C229.596 102.61 229.623 102.566 229.659 102.529C229.695 102.493 229.738 102.465 229.787 102.448C229.835 102.431 229.887 102.425 229.938 102.432H230.404C230.458 102.423 230.513 102.427 230.565 102.442C230.617 102.458 230.665 102.484 230.705 102.521C230.746 102.557 230.778 102.602 230.799 102.652C230.82 102.702 230.829 102.756 230.827 102.81L230.928 103.825C231.596 103.269 232.344 102.817 233.147 102.482C233.856 102.217 234.609 102.087 235.366 102.098C236.086 102.069 236.804 102.209 237.46 102.507C238.117 102.805 238.695 103.252 239.148 103.812C240.136 105.182 240.624 106.849 240.529 108.534C240.618 110.274 240.103 111.991 239.073 113.395C238.603 113.983 238.002 114.453 237.317 114.766C236.633 115.079 235.885 115.227 235.133 115.198C233.582 115.186 232.095 114.584 230.972 113.515V119.623C230.979 119.674 230.975 119.725 230.959 119.774C230.943 119.822 230.915 119.867 230.879 119.903C230.843 119.939 230.799 119.966 230.751 119.982C230.702 119.998 230.65 120.003 230.6 119.995H229.938ZM234.981 113.88C235.56 113.919 236.14 113.819 236.672 113.587C237.204 113.356 237.673 113 238.039 112.55C238.724 111.667 239.068 110.352 239.073 108.604C239.073 105.098 237.742 103.348 235.082 103.352C233.572 103.404 232.124 103.964 230.972 104.941V112.184C231.563 112.704 232.23 113.13 232.951 113.445C233.594 113.717 234.284 113.856 234.981 113.855" fill="#222D3F"/>
<path d="M246.683 115.166C246.188 115.193 245.693 115.12 245.226 114.952C244.76 114.784 244.331 114.525 243.966 114.189C243.625 113.844 243.359 113.431 243.186 112.978C243.014 112.524 242.938 112.039 242.964 111.554C242.941 111.014 243.042 110.476 243.261 109.982C243.48 109.488 243.81 109.05 244.225 108.705C245.185 107.962 246.38 107.591 247.591 107.658C248.794 107.675 249.988 107.868 251.134 108.232V106.151C251.165 105.758 251.113 105.362 250.982 104.989C250.851 104.617 250.643 104.276 250.371 103.989C249.682 103.498 248.837 103.274 247.995 103.359C246.765 103.381 245.547 103.594 244.382 103.989C244.261 104.033 244.133 104.059 244.004 104.065C243.84 104.065 243.758 103.957 243.758 103.743V103.359C243.752 103.25 243.779 103.143 243.834 103.05C243.896 102.965 243.982 102.899 244.08 102.861C245.408 102.345 246.822 102.086 248.247 102.098C249.398 102.005 250.543 102.33 251.475 103.012C251.845 103.367 252.131 103.801 252.313 104.28C252.495 104.76 252.569 105.274 252.527 105.786V114.523C252.535 114.574 252.53 114.625 252.514 114.674C252.498 114.722 252.471 114.767 252.435 114.803C252.399 114.839 252.355 114.866 252.306 114.882C252.258 114.898 252.206 114.903 252.155 114.895H251.632C251.58 114.902 251.528 114.897 251.478 114.881C251.428 114.865 251.383 114.838 251.344 114.803C251.306 114.767 251.276 114.724 251.256 114.676C251.236 114.628 251.227 114.575 251.229 114.523L251.14 113.445C249.9 114.518 248.323 115.122 246.683 115.154V115.166ZM246.879 113.893C247.575 113.882 248.263 113.752 248.915 113.508C249.685 113.229 250.423 112.868 251.115 112.43V109.322C250.068 109.033 248.987 108.883 247.9 108.875C245.589 108.875 244.431 109.766 244.427 111.548C244.406 111.866 244.452 112.184 244.56 112.483C244.669 112.783 244.838 113.057 245.057 113.288C245.569 113.714 246.226 113.927 246.891 113.88" fill="#222D3F"/>
<path d="M256.712 114.895C256.662 114.903 256.61 114.898 256.562 114.882C256.513 114.866 256.469 114.839 256.433 114.803C256.397 114.766 256.37 114.722 256.354 114.674C256.337 114.625 256.333 114.574 256.34 114.523V102.81C256.333 102.759 256.338 102.707 256.354 102.659C256.37 102.61 256.397 102.566 256.433 102.529C256.469 102.492 256.513 102.465 256.561 102.448C256.61 102.431 256.661 102.425 256.712 102.432H257.185C257.238 102.424 257.292 102.429 257.344 102.444C257.395 102.46 257.442 102.487 257.482 102.523C257.522 102.559 257.553 102.604 257.574 102.653C257.594 102.703 257.604 102.756 257.601 102.81L257.734 104.241C258.248 103.637 258.873 103.136 259.574 102.766C260.215 102.473 260.913 102.327 261.617 102.337C261.827 102.326 262.037 102.326 262.247 102.337C262.299 102.334 262.351 102.342 262.4 102.361C262.448 102.381 262.491 102.41 262.527 102.448C262.562 102.486 262.589 102.531 262.605 102.581C262.621 102.63 262.626 102.683 262.619 102.734V103.365C262.617 103.433 262.591 103.498 262.544 103.548C262.52 103.576 262.49 103.598 262.456 103.614C262.422 103.629 262.385 103.636 262.348 103.636H261.976H261.453C260.757 103.622 260.067 103.766 259.436 104.058C258.784 104.392 258.207 104.856 257.74 105.42V114.523C257.747 114.574 257.743 114.625 257.727 114.674C257.711 114.722 257.684 114.766 257.647 114.803C257.611 114.839 257.567 114.866 257.519 114.882C257.47 114.898 257.419 114.903 257.368 114.895H256.712Z" fill="#222D3F"/>
<path d="M269.194 115.04C268.79 115.068 268.384 115.014 268.002 114.881C267.619 114.747 267.268 114.538 266.968 114.265C266.695 113.957 266.486 113.598 266.354 113.208C266.222 112.818 266.17 112.406 266.199 111.995V103.674H264.239C264.188 103.681 264.137 103.677 264.088 103.661C264.04 103.645 263.995 103.617 263.959 103.581C263.923 103.545 263.896 103.501 263.88 103.453C263.864 103.404 263.859 103.352 263.867 103.302V103.056C263.857 102.952 263.881 102.848 263.936 102.76C263.976 102.72 264.023 102.688 264.075 102.666C264.127 102.644 264.182 102.633 264.239 102.634L266.243 102.457L266.42 99.1916C266.422 99.0875 266.46 98.9874 266.527 98.9079C266.562 98.8768 266.603 98.8529 266.647 98.8378C266.692 98.8226 266.739 98.8164 266.786 98.8196H267.233C267.284 98.8122 267.335 98.8167 267.384 98.8328C267.432 98.8489 267.476 98.876 267.513 98.9122C267.549 98.9483 267.576 98.9924 267.592 99.0409C267.608 99.0894 267.613 99.141 267.605 99.1916V102.432H271.199C271.249 102.426 271.299 102.431 271.347 102.447C271.395 102.464 271.438 102.491 271.473 102.527C271.509 102.563 271.535 102.607 271.551 102.655C271.567 102.703 271.571 102.754 271.564 102.804V103.302C271.573 103.352 271.569 103.404 271.554 103.452C271.539 103.501 271.512 103.545 271.477 103.581C271.441 103.618 271.397 103.645 271.349 103.661C271.3 103.677 271.249 103.682 271.199 103.674H267.605V111.926C267.554 112.441 267.708 112.955 268.034 113.357C268.445 113.678 268.964 113.829 269.484 113.779C269.907 113.783 270.33 113.741 270.745 113.653L271.18 113.571C271.255 113.548 271.334 113.535 271.413 113.534C271.596 113.534 271.684 113.634 271.684 113.83V114.202C271.684 114.479 271.596 114.656 271.413 114.719C270.692 114.948 269.938 115.056 269.181 115.04" fill="#222D3F"/>
<path d="M274.692 114.895C274.641 114.903 274.59 114.898 274.541 114.882C274.493 114.866 274.449 114.839 274.412 114.803C274.376 114.766 274.349 114.722 274.333 114.674C274.317 114.625 274.312 114.574 274.32 114.523V102.81C274.313 102.759 274.317 102.707 274.333 102.659C274.349 102.61 274.377 102.566 274.412 102.529C274.448 102.492 274.492 102.465 274.541 102.448C274.589 102.431 274.641 102.425 274.692 102.432H275.19C275.243 102.424 275.298 102.429 275.349 102.445C275.401 102.46 275.448 102.487 275.489 102.523C275.529 102.559 275.561 102.603 275.582 102.653C275.603 102.703 275.614 102.756 275.612 102.81L275.713 103.875C276.486 103.312 277.335 102.86 278.235 102.533C279.07 102.231 279.95 102.071 280.838 102.06C281.339 102.026 281.842 102.093 282.317 102.258C282.791 102.423 283.227 102.681 283.6 103.018C283.938 103.399 284.197 103.845 284.36 104.327C284.524 104.81 284.589 105.321 284.552 105.83V114.523C284.559 114.574 284.554 114.625 284.538 114.674C284.522 114.722 284.495 114.766 284.459 114.803C284.423 114.839 284.379 114.866 284.33 114.882C284.282 114.898 284.23 114.903 284.18 114.895H283.518C283.467 114.902 283.415 114.898 283.366 114.882C283.318 114.866 283.273 114.838 283.237 114.803C283.2 114.767 283.172 114.723 283.155 114.674C283.139 114.626 283.133 114.574 283.139 114.523V106.422C283.208 105.593 282.985 104.766 282.509 104.083C282.257 103.829 281.953 103.632 281.618 103.507C281.283 103.382 280.924 103.331 280.567 103.358C278.833 103.387 277.147 103.938 275.732 104.941V114.523C275.739 114.573 275.735 114.624 275.719 114.672C275.703 114.72 275.677 114.764 275.641 114.8C275.606 114.836 275.563 114.863 275.515 114.88C275.467 114.896 275.416 114.901 275.366 114.895H274.692Z" fill="#222D3F"/>
<path d="M293.667 115.261C291.7 115.261 290.229 114.706 289.254 113.597C288.265 112.475 287.767 110.823 287.767 108.629C287.767 106.549 288.265 104.935 289.261 103.787C289.79 103.214 290.44 102.765 291.164 102.473C291.888 102.181 292.667 102.053 293.447 102.098C294.079 102.053 294.713 102.142 295.309 102.359C295.904 102.577 296.447 102.917 296.901 103.359C297.759 104.389 298.19 105.709 298.105 107.047C298.118 107.545 298.082 108.043 297.998 108.535C297.992 108.639 297.944 108.736 297.867 108.806C297.789 108.876 297.687 108.912 297.582 108.906H289.185C289.185 110.642 289.563 111.922 290.32 112.746C291.076 113.569 292.226 113.99 293.768 114.007C294.928 114.01 296.079 113.797 297.16 113.376C297.302 113.313 297.453 113.273 297.607 113.256C297.64 113.256 297.673 113.263 297.702 113.278C297.732 113.292 297.757 113.313 297.778 113.338C297.829 113.398 297.856 113.474 297.853 113.553V113.925C297.866 114.028 297.847 114.133 297.799 114.226C297.75 114.318 297.675 114.393 297.582 114.442C296.356 115.009 295.018 115.296 293.667 115.28V115.261ZM296.712 107.772C296.712 107.545 296.744 107.267 296.744 106.958C296.812 105.979 296.5 105.01 295.874 104.254C295.533 103.937 295.13 103.694 294.691 103.54C294.251 103.386 293.785 103.324 293.321 103.359C290.711 103.359 289.332 104.83 289.185 107.772H296.712Z" fill="#222D3F"/>
<path d="M301.592 114.895C301.542 114.903 301.49 114.898 301.442 114.882C301.393 114.866 301.349 114.839 301.313 114.803C301.277 114.766 301.249 114.722 301.233 114.674C301.217 114.625 301.213 114.574 301.22 114.523V102.81C301.213 102.759 301.218 102.707 301.234 102.659C301.25 102.61 301.277 102.566 301.313 102.529C301.349 102.492 301.393 102.465 301.441 102.448C301.49 102.431 301.541 102.425 301.592 102.432H302.065C302.118 102.424 302.173 102.429 302.224 102.445C302.276 102.46 302.324 102.487 302.364 102.523C302.404 102.559 302.436 102.603 302.457 102.653C302.478 102.703 302.489 102.756 302.487 102.81L302.613 104.241C303.128 103.637 303.752 103.136 304.454 102.766C305.095 102.473 305.793 102.327 306.497 102.337C306.707 102.326 306.917 102.326 307.127 102.337C307.179 102.334 307.231 102.342 307.279 102.361C307.328 102.381 307.371 102.41 307.407 102.448C307.442 102.486 307.469 102.531 307.485 102.581C307.501 102.63 307.506 102.683 307.499 102.734V103.365C307.497 103.433 307.47 103.498 307.424 103.548C307.4 103.576 307.37 103.599 307.336 103.615C307.302 103.63 307.265 103.637 307.228 103.636H306.856H306.339C305.641 103.621 304.949 103.765 304.316 104.058C303.663 104.391 303.085 104.854 302.62 105.42V114.523C302.627 114.574 302.623 114.625 302.607 114.674C302.591 114.722 302.563 114.766 302.527 114.803C302.491 114.839 302.447 114.866 302.399 114.882C302.35 114.898 302.298 114.903 302.248 114.895H301.592Z" fill="#222D3F"/>
<path d="M229.938 142.406C229.888 142.414 229.836 142.409 229.787 142.393C229.738 142.377 229.694 142.35 229.657 142.314C229.621 142.278 229.593 142.234 229.576 142.185C229.559 142.137 229.554 142.085 229.56 142.034V130.321C229.554 130.27 229.559 130.219 229.576 130.17C229.593 130.122 229.621 130.078 229.657 130.042C229.694 130.006 229.738 129.979 229.787 129.963C229.836 129.947 229.888 129.942 229.938 129.949H230.436C230.489 129.942 230.543 129.946 230.593 129.962C230.644 129.977 230.691 130.003 230.731 130.039C230.77 130.074 230.802 130.118 230.823 130.167C230.844 130.215 230.854 130.268 230.853 130.321L230.953 131.387C231.738 130.824 232.597 130.374 233.507 130.05C234.339 129.746 235.217 129.586 236.104 129.577C236.605 129.543 237.108 129.611 237.582 129.775C238.056 129.94 238.493 130.199 238.865 130.536C239.205 130.916 239.465 131.361 239.628 131.844C239.792 132.327 239.856 132.839 239.817 133.347V142.034C239.826 142.085 239.822 142.136 239.807 142.185C239.792 142.233 239.765 142.278 239.729 142.314C239.694 142.35 239.65 142.378 239.602 142.394C239.553 142.41 239.502 142.414 239.451 142.406H238.783C238.732 142.415 238.68 142.411 238.63 142.396C238.581 142.38 238.536 142.353 238.499 142.317C238.462 142.281 238.435 142.236 238.418 142.187C238.402 142.138 238.397 142.086 238.405 142.034V133.94C238.473 133.109 238.25 132.28 237.775 131.595C237.518 131.336 237.208 131.137 236.866 131.011C236.524 130.886 236.158 130.838 235.795 130.87C234.062 130.897 232.379 131.449 230.966 132.452V142.034C230.973 142.085 230.969 142.137 230.953 142.185C230.937 142.234 230.91 142.278 230.873 142.314C230.837 142.35 230.793 142.377 230.745 142.393C230.696 142.409 230.645 142.414 230.594 142.406H229.938Z" fill="#222D3F"/>
<path d="M248.909 142.779C246.948 142.779 245.466 142.224 244.496 141.108C243.525 139.992 243.008 138.341 243.008 136.14C243.008 134.06 243.512 132.446 244.508 131.299C245.035 130.717 245.686 130.261 246.413 129.963C247.139 129.665 247.923 129.533 248.707 129.578C249.339 129.534 249.973 129.623 250.568 129.84C251.164 130.058 251.706 130.398 252.161 130.839C253.022 131.87 253.453 133.193 253.366 134.533C253.376 135.031 253.342 135.529 253.265 136.021C253.255 136.125 253.206 136.222 253.127 136.291C253.049 136.36 252.947 136.396 252.842 136.393H244.433C244.433 138.128 244.811 139.408 245.567 140.232C246.324 141.056 247.471 141.476 249.009 141.493C250.169 141.497 251.32 141.283 252.401 140.862C252.543 140.799 252.694 140.756 252.849 140.736C252.883 140.737 252.916 140.746 252.947 140.761C252.977 140.776 253.004 140.798 253.025 140.824C253.073 140.883 253.1 140.957 253.101 141.033V141.404C253.114 141.51 253.094 141.616 253.044 141.71C252.995 141.803 252.918 141.879 252.823 141.928C251.596 142.493 250.259 142.779 248.909 142.766V142.779ZM251.96 135.264C251.96 135.031 251.96 134.76 251.96 134.445C252.031 133.466 251.719 132.499 251.09 131.746C250.751 131.425 250.349 131.177 249.91 131.02C249.47 130.862 249.002 130.799 248.537 130.832C245.927 130.832 244.55 132.303 244.407 135.245L251.96 135.264Z" fill="#222D3F"/>
<path d="M260.306 142.558C259.901 142.586 259.494 142.531 259.11 142.396C258.726 142.262 258.374 142.051 258.074 141.777C257.801 141.47 257.593 141.112 257.461 140.723C257.328 140.334 257.276 139.923 257.305 139.513V131.192H255.351C255.3 131.199 255.249 131.195 255.2 131.179C255.152 131.163 255.108 131.135 255.072 131.099C255.035 131.063 255.008 131.019 254.992 130.971C254.976 130.922 254.972 130.87 254.979 130.82V130.568C254.969 130.463 254.995 130.358 255.055 130.271C255.134 130.193 255.24 130.148 255.351 130.145L257.356 129.975L257.532 126.703C257.537 126.6 257.575 126.5 257.639 126.42C257.676 126.389 257.718 126.366 257.764 126.352C257.809 126.338 257.857 126.333 257.904 126.338H258.345C258.396 126.329 258.447 126.332 258.496 126.348C258.544 126.363 258.589 126.39 258.625 126.425C258.661 126.461 258.689 126.505 258.705 126.553C258.721 126.601 258.725 126.653 258.717 126.703V129.95H262.311C262.361 129.942 262.413 129.947 262.462 129.963C262.51 129.979 262.554 130.006 262.59 130.042C262.626 130.079 262.654 130.123 262.67 130.171C262.686 130.22 262.69 130.271 262.683 130.322V130.82C262.69 130.87 262.686 130.922 262.67 130.971C262.654 131.019 262.626 131.063 262.59 131.099C262.554 131.135 262.51 131.163 262.462 131.179C262.413 131.195 262.361 131.199 262.311 131.192H258.717V139.444C258.668 139.959 258.822 140.472 259.146 140.875C259.561 141.194 260.082 141.343 260.602 141.291C261.026 141.297 261.449 141.257 261.863 141.171L262.298 141.083C262.374 141.062 262.453 141.05 262.531 141.045C262.714 141.045 262.809 141.146 262.809 141.348V141.713C262.809 141.997 262.714 142.174 262.531 142.237C261.812 142.463 261.06 142.571 260.306 142.558Z" fill="#222D3F"/>
<path d="M268.381 142.406C268.275 142.412 268.171 142.381 268.085 142.319C267.999 142.257 267.937 142.168 267.908 142.066L263.968 130.542C263.915 130.424 263.881 130.299 263.867 130.17C263.867 130.025 263.968 129.949 264.17 129.949H264.964C265.06 129.944 265.155 129.974 265.232 130.033C265.308 130.092 265.361 130.176 265.38 130.271L268.772 140.774L271.804 130.296C271.832 130.194 271.895 130.104 271.98 130.041C272.066 129.978 272.171 129.946 272.277 129.949H273.185C273.291 129.946 273.396 129.978 273.481 130.041C273.567 130.104 273.629 130.194 273.658 130.296L276.633 140.849L280.1 130.271C280.12 130.175 280.174 130.09 280.251 130.031C280.329 129.972 280.425 129.943 280.523 129.949H281.26C281.456 129.949 281.557 130.025 281.557 130.17C281.54 130.298 281.506 130.423 281.456 130.542L277.421 142.066C277.391 142.167 277.328 142.255 277.242 142.316C277.157 142.378 277.054 142.41 276.948 142.406H276.135C276.029 142.413 275.924 142.383 275.838 142.321C275.752 142.259 275.69 142.169 275.662 142.066L272.662 131.538L269.692 142.066C269.664 142.168 269.601 142.257 269.516 142.319C269.43 142.381 269.325 142.412 269.219 142.406H268.381Z" fill="#222D3F"/>
<path d="M288.939 142.778C288.147 142.823 287.355 142.689 286.621 142.388C285.887 142.087 285.229 141.626 284.696 141.038C283.687 139.872 283.189 138.252 283.189 136.172C283.189 134.091 283.687 132.471 284.696 131.311C285.827 130.201 287.348 129.579 288.933 129.579C290.517 129.579 292.038 130.201 293.169 131.311C294.178 132.471 294.682 134.085 294.682 136.172C294.682 138.258 294.178 139.872 293.169 141.038C292.638 141.626 291.983 142.087 291.251 142.388C290.519 142.689 289.729 142.823 288.939 142.778ZM288.939 141.518C291.788 141.518 293.215 139.744 293.219 136.197C293.224 132.65 291.797 130.88 288.939 130.889C286.077 130.889 284.648 132.658 284.652 136.197C284.656 139.736 286.085 141.509 288.939 141.518Z" fill="#222D3F"/>
<path d="M298.282 142.407C298.231 142.415 298.18 142.41 298.131 142.394C298.082 142.378 298.038 142.351 298.002 142.315C297.966 142.278 297.939 142.234 297.923 142.186C297.907 142.137 297.902 142.086 297.91 142.035V130.322C297.902 130.271 297.907 130.22 297.923 130.171C297.939 130.123 297.966 130.079 298.002 130.043C298.038 130.006 298.082 129.979 298.131 129.963C298.18 129.947 298.231 129.943 298.282 129.95H298.754C298.808 129.942 298.862 129.945 298.913 129.96C298.965 129.975 299.013 130.001 299.053 130.037C299.093 130.072 299.125 130.116 299.147 130.166C299.168 130.215 299.178 130.268 299.177 130.322L299.303 131.759C299.817 131.155 300.442 130.654 301.144 130.284C301.783 129.987 302.481 129.838 303.186 129.849C303.457 129.849 303.665 129.849 303.817 129.849C303.868 129.847 303.919 129.856 303.967 129.876C304.014 129.895 304.057 129.925 304.092 129.963C304.127 130.001 304.153 130.046 304.168 130.095C304.184 130.144 304.189 130.195 304.182 130.246V130.877C304.184 130.946 304.16 131.014 304.113 131.066C304.088 131.094 304.057 131.117 304.022 131.132C303.987 131.147 303.949 131.155 303.911 131.154H303.546C303.426 131.154 303.256 131.154 303.022 131.154C302.326 131.141 301.636 131.288 301.005 131.583C300.351 131.914 299.772 132.375 299.303 132.938V142.035C299.312 142.085 299.308 142.137 299.293 142.186C299.278 142.234 299.251 142.278 299.215 142.315C299.18 142.351 299.136 142.378 299.087 142.394C299.039 142.411 298.988 142.415 298.937 142.407H298.282Z" fill="#222D3F"/>
<path d="M306.793 142.407C306.743 142.414 306.691 142.41 306.643 142.394C306.594 142.378 306.55 142.35 306.514 142.314C306.478 142.278 306.451 142.234 306.435 142.186C306.419 142.137 306.414 142.085 306.421 142.035V124.453C306.414 124.402 306.419 124.35 306.435 124.302C306.451 124.253 306.478 124.209 306.514 124.173C306.55 124.137 306.594 124.11 306.643 124.094C306.691 124.078 306.743 124.073 306.793 124.081H307.462C307.512 124.073 307.564 124.078 307.612 124.094C307.661 124.11 307.705 124.137 307.741 124.173C307.777 124.209 307.804 124.253 307.82 124.302C307.837 124.35 307.841 124.402 307.834 124.453V135.51L313.778 130.208C313.86 130.125 313.959 130.059 314.067 130.016C314.176 129.973 314.292 129.952 314.409 129.956H315.304C315.499 129.956 315.6 130.032 315.6 130.177C315.6 130.322 315.512 130.391 315.329 130.549L309.334 135.857L315.808 141.814C315.96 141.947 316.029 142.06 316.029 142.136C316.029 142.211 315.934 142.382 315.733 142.382H314.674C314.471 142.38 314.277 142.301 314.131 142.161L307.827 136.292V142.01C307.835 142.06 307.83 142.112 307.814 142.16C307.798 142.209 307.771 142.253 307.735 142.289C307.699 142.325 307.655 142.352 307.606 142.368C307.557 142.385 307.506 142.389 307.455 142.382L306.793 142.407Z" fill="#222D3F"/>
</g>
<defs>
<filter id="filter0_d" x="0" y="0" width="428" height="260.5" filterUnits="userSpaceOnUse" color-interpolation-filters="sRGB">
<feFlood flood-opacity="0" result="BackgroundImageFix"/>
<feColorMatrix in="SourceAlpha" type="matrix" values="0 0 0 0 0 0 0 0 0 0 0 0 0 0 0 0 0 0 127 0"/>
<feOffset dy="4"/>
<feGaussianBlur stdDeviation="15"/>
<feColorMatrix type="matrix" values="0 0 0 0 0 0 0 0 0 0 0 0 0 0 0 0 0 0 0.25 0"/>
<feBlend mode="normal" in2="BackgroundImageFix" result="effect1_dropShadow"/>
<feBlend mode="normal" in="SourceGraphic" in2="effect1_dropShadow" result="shape"/>
</filter>
<clipPath id="clip0">
<rect width="204.028" height="56" fill="white" transform="translate(112 98)"/>
</clipPath>
</defs>
</svg>
