<svg width="457" height="408" viewBox="0 0 457 408" fill="none" xmlns="http://www.w3.org/2000/svg">
<g opacity="0.5">
<path d="M260.349 324.505L286.659 348.587H286.559L286.707 348.735C286.417 348.746 286.125 348.756 285.831 348.766L285.827 348.766C285.16 348.788 284.484 348.811 283.806 348.856L283.794 348.857L283.556 348.878C281.676 349.05 279.896 349.212 278.038 349.212H177.355H177.217L177.098 349.283L86.1443 403.819L86.1075 403.841L86.075 403.869C83.5699 406.029 80.4705 407.229 77.3864 407.229C75.669 407.229 73.9504 406.886 72.3162 406.198C67.6821 404.224 64.6777 399.766 64.5872 394.701L66.2827 341.516L66.2944 341.149L65.9476 341.028C50.6274 335.684 34.2516 327.79 21.7135 316.394C9.18595 305.009 0.5 290.14 0.5 270.808V136.564C0.5 93.2822 35.6226 58.1604 78.8146 58.1604H82.8287C82.7068 58.5586 82.5941 58.964 82.4829 59.369C82.464 59.4378 82.4452 59.5065 82.4263 59.5753C82.2884 60.0788 82.1508 60.5813 81.9962 61.0837L81.9946 61.0889C78.947 71.3972 77.2435 82.3344 77.2435 93.6313V208.06C77.2435 272.244 129.415 324.505 193.689 324.505H260.349Z" stroke="white"/>
<path d="M269.54 301.323L269.397 301.191H269.202H193.69C142.286 301.191 100.559 259.375 100.559 208.06V93.6313C100.559 42.2276 142.375 0.5 193.69 0.5H363.369C414.773 0.5 456.5 42.2273 456.5 93.6313V207.97C456.5 246.145 433.507 278.995 400.568 293.378L400.272 293.507L400.268 293.83L399.732 336.585C399.556 351.294 390.749 364.505 377.273 370.317L377.265 370.321C372.606 372.431 367.589 373.401 362.566 373.401C353.403 373.401 344.332 370.053 337.377 363.626L337.376 363.625L269.54 301.323ZM362.138 336.513L362.962 337.27L362.976 336.151L363.333 307.32L363.863 264.522C394.795 264.256 419.833 239.054 419.833 208.06V93.6313C419.833 62.472 394.528 37.1668 363.369 37.1668H193.69C162.531 37.1668 137.225 62.472 137.225 93.6313V208.06C137.225 239.219 162.531 264.524 193.69 264.524H283.735L362.138 336.513Z" stroke="white"/>
<path d="M212.969 93.4172H344.089C348.547 93.4172 352.157 96.9456 352.157 101.486C352.157 105.94 348.543 109.555 344.089 109.555H212.969C208.515 109.555 204.9 105.94 204.9 101.486C204.9 97.0315 208.515 93.4172 212.969 93.4172Z" stroke="white"/>
<path d="M212.969 138.225H344.089C348.543 138.225 352.157 141.839 352.157 146.293C352.157 150.748 348.543 154.362 344.089 154.362H212.969C208.515 154.362 204.9 150.748 204.9 146.293C204.9 141.839 208.515 138.225 212.969 138.225Z" stroke="white"/>
<path d="M212.969 183.032H284.197C288.651 183.032 292.266 186.646 292.266 191.101C292.266 195.555 288.651 199.17 284.197 199.17H212.969C208.515 199.17 204.9 195.555 204.9 191.101C204.9 186.646 208.515 183.032 212.969 183.032Z" stroke="white"/>
</g>
</svg>
