<svg width="428" height="261" viewBox="0 0 428 261" fill="none" xmlns="http://www.w3.org/2000/svg">
<g opacity="0.2" filter="url(#filter0_d)">
<path d="M30.0002 26H339.352L398 84.6486L398 226.5H88.6486L30 167.851L30.0002 26Z" fill="white"/>
</g>
<path fill-rule="evenodd" clip-rule="evenodd" d="M195.905 154C194.046 154 192.249 153.736 190.516 153.208C188.782 152.68 187.41 151.98 186.4 151.107L187.95 147.629C188.937 148.41 190.149 149.046 191.583 149.54C193.018 150.034 194.459 150.281 195.905 150.281C197.696 150.281 199.034 149.994 199.918 149.42C200.802 148.846 201.243 148.088 201.243 147.147C201.243 146.458 200.997 145.89 200.503 145.442C200.009 144.994 199.384 144.644 198.626 144.392C197.868 144.139 196.835 143.852 195.527 143.531C193.69 143.094 192.203 142.658 191.067 142.222C189.93 141.786 188.954 141.103 188.14 140.173C187.325 139.243 186.917 137.986 186.917 136.402C186.917 135.071 187.279 133.859 188.002 132.769C188.725 131.678 189.816 130.812 191.273 130.169C192.731 129.526 194.517 129.204 196.629 129.204C198.098 129.204 199.545 129.388 200.968 129.755C202.391 130.123 203.62 130.651 204.653 131.339L203.241 134.818C202.185 134.198 201.083 133.727 199.935 133.406C198.787 133.084 197.673 132.924 196.594 132.924C194.826 132.924 193.512 133.222 192.651 133.819C191.79 134.416 191.36 135.208 191.36 136.195C191.36 136.884 191.606 137.447 192.1 137.883C192.593 138.319 193.219 138.664 193.977 138.916C194.735 139.168 195.768 139.456 197.076 139.777C198.867 140.19 200.337 140.621 201.485 141.068C202.632 141.516 203.614 142.199 204.429 143.117C205.244 144.036 205.652 145.276 205.652 146.837C205.652 148.168 205.29 149.374 204.567 150.453C203.844 151.532 202.747 152.393 201.278 153.036C199.808 153.678 198.018 154 195.905 154ZM219.132 135.059C221.451 135.059 223.311 135.736 224.711 137.091C226.111 138.445 226.812 140.454 226.812 143.117V153.656H222.507V143.669C222.507 142.061 222.128 140.85 221.37 140.035C220.613 139.22 219.534 138.813 218.133 138.813C216.549 138.813 215.298 139.289 214.379 140.242C213.461 141.194 213.002 142.566 213.002 144.357V153.656H208.697V128.102H213.002V137.401C213.714 136.643 214.591 136.063 215.636 135.662C216.681 135.26 217.846 135.059 219.132 135.059ZM231.303 135.265H235.608V153.656H231.303V135.265ZM233.473 132.235C232.692 132.235 232.038 131.988 231.51 131.494C230.982 131.001 230.718 130.387 230.718 129.652C230.718 128.917 230.982 128.303 231.51 127.81C232.038 127.316 232.692 127.069 233.473 127.069C234.254 127.069 234.908 127.304 235.436 127.775C235.964 128.246 236.228 128.837 236.228 129.549C236.228 130.306 235.97 130.943 235.453 131.46C234.937 131.977 234.277 132.235 233.473 132.235ZM247.745 131.339C245.932 131.339 245.025 132.327 245.025 134.301V135.403H250.087V138.847H245.162V153.656H240.858V138.847H237.827V135.403H240.858V134.232C240.858 132.258 241.432 130.702 242.58 129.566C243.727 128.429 245.346 127.861 247.435 127.861C249.089 127.861 250.386 128.194 251.327 128.86L250.122 132.097C249.387 131.592 248.595 131.339 247.745 131.339ZM263.051 152.657C262.546 153.07 261.932 153.38 261.208 153.587C260.485 153.793 259.722 153.897 258.918 153.897C256.898 153.897 255.337 153.369 254.235 152.313C253.133 151.256 252.582 149.718 252.582 147.698V138.847H249.551V135.403H252.582V131.202H256.886V135.403H261.811V138.847H256.886V147.595C256.886 148.49 257.105 149.173 257.541 149.644C257.977 150.114 258.608 150.35 259.435 150.35C260.399 150.35 261.203 150.097 261.846 149.592L263.051 152.657ZM282.282 144.564C282.282 144.862 282.259 145.287 282.214 145.838H267.784C268.036 147.193 268.696 148.266 269.764 149.058C270.832 149.85 272.157 150.246 273.742 150.246C275.762 150.246 277.427 149.581 278.735 148.249L281.043 150.901C280.216 151.888 279.172 152.634 277.909 153.139C276.646 153.644 275.223 153.897 273.638 153.897C271.618 153.897 269.839 153.495 268.3 152.691C266.762 151.888 265.574 150.769 264.736 149.334C263.898 147.899 263.479 146.274 263.479 144.461C263.479 142.67 263.886 141.057 264.701 139.622C265.517 138.187 266.647 137.068 268.094 136.264C269.54 135.461 271.17 135.059 272.984 135.059C274.775 135.059 276.376 135.455 277.788 136.247C279.2 137.039 280.302 138.152 281.094 139.588C281.886 141.023 282.282 142.681 282.282 144.564ZM272.984 138.503C271.606 138.503 270.441 138.91 269.488 139.725C268.536 140.54 267.956 141.625 267.749 142.98H278.184C278.001 141.648 277.438 140.569 276.497 139.743C275.555 138.916 274.384 138.503 272.984 138.503ZM289.529 137.952C290.769 136.023 292.95 135.059 296.073 135.059V139.157C295.705 139.088 295.372 139.054 295.074 139.054C293.398 139.054 292.089 139.542 291.148 140.517C290.207 141.493 289.736 142.899 289.736 144.736V153.656H285.431V135.265H289.529V137.952Z" fill="#451D39"/>
<path fill-rule="evenodd" clip-rule="evenodd" d="M175.971 112.452L163.364 125.982V112.452H175.971Z" fill="url(#paint0_linear)"/>
<path d="M138.457 125.059C141.004 125.059 143.069 122.994 143.069 120.447C143.069 117.899 141.004 115.834 138.457 115.834C135.91 115.834 133.845 117.899 133.845 120.447C133.845 122.994 135.91 125.059 138.457 125.059Z" fill="url(#paint1_linear)"/>
<path fill-rule="evenodd" clip-rule="evenodd" d="M152.756 153.963C160.483 153.963 166.747 147.699 166.747 139.972H138.766C138.766 147.699 145.029 153.963 152.756 153.963Z" fill="url(#paint2_linear)"/>
<path fill-rule="evenodd" clip-rule="evenodd" d="M132 98H144.914V110.914H132V98Z" fill="url(#paint3_linear)"/>
<path fill-rule="evenodd" clip-rule="evenodd" d="M148.604 112.452H157.214V136.129H148.604V112.452Z" fill="url(#paint4_linear)"/>
<defs>
<filter id="filter0_d" x="0" y="0" width="428" height="260.5" filterUnits="userSpaceOnUse" color-interpolation-filters="sRGB">
<feFlood flood-opacity="0" result="BackgroundImageFix"/>
<feColorMatrix in="SourceAlpha" type="matrix" values="0 0 0 0 0 0 0 0 0 0 0 0 0 0 0 0 0 0 127 0"/>
<feOffset dy="4"/>
<feGaussianBlur stdDeviation="15"/>
<feColorMatrix type="matrix" values="0 0 0 0 0 0 0 0 0 0 0 0 0 0 0 0 0 0 0.25 0"/>
<feBlend mode="normal" in2="BackgroundImageFix" result="effect1_dropShadow"/>
<feBlend mode="normal" in="SourceGraphic" in2="effect1_dropShadow" result="shape"/>
</filter>
<linearGradient id="paint0_linear" x1="132.084" y1="112.452" x2="175.971" y2="112.452" gradientUnits="userSpaceOnUse">
<stop stop-color="#BD529E"/>
<stop offset="1" stop-color="#FB1C57"/>
</linearGradient>
<linearGradient id="paint1_linear" x1="132.084" y1="110.674" x2="175.983" y2="112.467" gradientUnits="userSpaceOnUse">
<stop stop-color="#BD529E"/>
<stop offset="1" stop-color="#FB1C57"/>
</linearGradient>
<linearGradient id="paint2_linear" x1="132.108" y1="110.87" x2="175.403" y2="116.763" gradientUnits="userSpaceOnUse">
<stop stop-color="#BD529E"/>
<stop offset="1" stop-color="#FB1C57"/>
</linearGradient>
<linearGradient id="paint3_linear" x1="132" y1="110.914" x2="175.958" y2="112.445" gradientUnits="userSpaceOnUse">
<stop stop-color="#BD529E"/>
<stop offset="1" stop-color="#FB1C57"/>
</linearGradient>
<linearGradient id="paint4_linear" x1="132.017" y1="110.755" x2="175.432" y2="110.979" gradientUnits="userSpaceOnUse">
<stop stop-color="#BD529E"/>
<stop offset="1" stop-color="#FB1C57"/>
</linearGradient>
</defs>
</svg>
