<svg width="834" height="201" viewBox="0 0 834 201" fill="none" xmlns="http://www.w3.org/2000/svg">
<g style="mix-blend-mode:lighten" opacity="0.8">
<path d="M40.2986 46H42.5774L45.5812 18.2404L59.0985 47.243L72.7193 18.2404L75.8267 46H78.1055L74.1695 10.2647L59.0985 42.2193L44.1829 10.2647L40.2986 46ZM103.403 24.8696V28.5467C101.228 25.6982 98.6383 24.4034 95.1166 24.4034C89.0571 24.4034 84.8103 28.9092 84.8103 35.3312C84.8103 41.8568 89.1607 46.5697 95.1684 46.5697C98.6383 46.5697 101.539 45.0678 103.403 42.2193V46H105.475V24.8696H103.403ZM95.2202 26.3197C97.1882 26.3197 99.3116 27.1483 100.917 28.5467C102.73 30.1522 103.558 32.2238 103.558 35.2276C103.558 40.7692 100.088 44.6535 95.2202 44.6535C90.4555 44.6535 86.9337 40.6656 86.9337 35.2276C86.9337 30.204 90.5591 26.3197 95.2202 26.3197ZM118.398 34.9169L109.801 46H112.546L119.796 36.5224L127.047 46H129.74L121.246 34.9169L128.911 24.8696H126.218L119.796 33.3114L113.271 24.8696H110.578L118.398 34.9169ZM135.922 24.8696L133.85 24.8696V46H135.922V24.8696ZM134.886 15.9616C133.85 15.9616 133.022 16.7903 133.022 17.8261C133.022 18.9137 133.85 19.7423 134.886 19.7423C135.922 19.7423 136.751 18.9137 136.751 17.8261C136.751 16.7903 135.922 15.9616 134.886 15.9616ZM143.308 24.8696V46H145.38V33.7775C145.38 31.8612 145.691 30.2557 146.26 29.0646C147.089 27.4073 148.902 26.3197 150.766 26.3197C152.423 26.3197 153.874 27.1483 154.65 28.5985C155.22 29.5307 155.427 30.6183 155.427 32.4309V46H157.499V33.2596C157.499 28.7538 159.363 26.3197 162.833 26.3197C164.335 26.3197 165.682 26.8894 166.459 27.8734C167.184 28.8574 167.391 29.6861 167.391 31.913V46H169.462V32.172C169.462 29.3235 169.152 27.977 168.168 26.734C167.028 25.2839 165.06 24.4034 162.937 24.4034C160.037 24.4034 158.12 25.5946 156.722 28.2359C155.479 25.6464 153.563 24.4034 150.818 24.4034C148.384 24.4034 146.726 25.3357 145.38 27.5109V24.8696H143.308ZM178.963 24.8696H176.891V46H178.963V24.8696ZM177.927 15.9616C176.891 15.9616 176.062 16.7903 176.062 17.8261C176.062 18.9137 176.891 19.7423 177.927 19.7423C178.963 19.7423 179.791 18.9137 179.791 17.8261C179.791 16.7903 178.963 15.9616 177.927 15.9616ZM188.058 44.0838L205.201 24.8696L186.349 24.8696V26.7858H200.85L183.604 46L205.097 46V44.0838L188.058 44.0838ZM227.661 35.6937C227.558 28.9092 223.518 24.4034 217.562 24.4034C211.658 24.4034 207.256 29.1164 207.256 35.5384C207.256 41.9086 211.606 46.5697 217.614 46.5697C221.705 46.5697 224.865 44.6535 226.988 40.821L225.227 39.7852C224.347 41.2871 223.829 41.9604 223.104 42.6336C221.705 43.8766 219.686 44.6535 217.769 44.6535C214.869 44.6535 212.072 42.9962 210.674 40.4584C209.897 39.1119 209.587 37.8689 209.535 35.6937H227.661ZM209.69 33.7257C210.312 29.4271 213.574 26.3197 217.51 26.3197C221.395 26.3197 224.502 29.2717 225.279 33.7257H209.69ZM253.369 46.3625L248.19 58.3779H250.52L264.711 24.8696H262.328L254.456 43.6176L245.807 24.8696H243.373L253.369 46.3625ZM277.918 24.4034C271.859 24.4034 266.835 29.3235 266.835 35.2794C266.835 41.5978 271.652 46.5697 277.815 46.5697C284.081 46.5697 288.949 41.7532 288.949 35.4866C288.949 29.2717 284.133 24.4034 277.918 24.4034ZM277.815 26.3197C282.89 26.3197 286.826 30.3075 286.826 35.4866C286.826 40.6656 282.89 44.6535 277.763 44.6535C272.791 44.6535 268.958 40.562 268.958 35.3312C268.958 30.3593 272.946 26.3197 277.815 26.3197ZM297.008 24.8696H294.937V38.1797C294.937 41.1317 295.299 42.5818 296.49 43.9802C297.837 45.5857 300.064 46.5697 302.55 46.5697C304.984 46.5697 307.211 45.5857 308.557 43.9802C309.749 42.5818 310.111 41.1317 310.111 38.1797V24.8696H308.039V37.4546C308.039 39.8887 307.832 41.1317 307.366 42.1157C306.589 43.6176 304.621 44.6535 302.55 44.6535C300.426 44.6535 298.458 43.6176 297.681 42.1157C297.215 41.1317 297.008 39.8887 297.008 37.4546V24.8696ZM317.494 24.8696V46H319.565V34.6579C319.565 30.4629 319.772 29.2199 320.705 28.0288C321.533 26.9412 322.776 26.2679 323.916 26.2679C324.382 26.2679 324.744 26.3715 325.366 26.734L326.505 24.9213C325.521 24.507 325.003 24.4034 324.226 24.4034C322.103 24.4034 320.705 25.3875 319.565 27.6144V24.8696H317.494ZM360.83 27.0965C358.396 25.1803 356.272 24.4034 353.476 24.4034C347.261 24.4034 342.548 29.2199 342.548 35.6419C342.548 41.805 347.261 46.5697 353.424 46.5697C356.272 46.5697 358.655 45.6375 361.089 43.6176V40.821C358.81 43.4105 356.324 44.6535 353.424 44.6535C348.556 44.6535 344.671 40.6138 344.671 35.5384C344.671 30.3593 348.504 26.3197 353.424 26.3197C356.221 26.3197 358.344 27.3037 360.83 29.8414V27.0965ZM368.321 8.24487H366.249V46L368.321 46V8.24487ZM385.444 24.4034C379.384 24.4034 374.361 29.3235 374.361 35.2794C374.361 41.5978 379.177 46.5697 385.34 46.5697C391.607 46.5697 396.475 41.7532 396.475 35.4866C396.475 29.2717 391.659 24.4034 385.444 24.4034ZM385.34 26.3197C390.416 26.3197 394.352 30.3075 394.352 35.4866C394.352 40.6656 390.416 44.6535 385.288 44.6535C380.316 44.6535 376.484 40.562 376.484 35.3312C376.484 30.3593 380.472 26.3197 385.34 26.3197ZM404.534 24.8696H402.462V38.1797C402.462 41.1317 402.825 42.5818 404.016 43.9802C405.362 45.5857 407.589 46.5697 410.075 46.5697C412.509 46.5697 414.736 45.5857 416.083 43.9802C417.274 42.5818 417.637 41.1317 417.637 38.1797V24.8696H415.565V37.4546C415.565 39.8887 415.358 41.1317 414.892 42.1157C414.115 43.6176 412.147 44.6535 410.075 44.6535C407.952 44.6535 405.984 43.6176 405.207 42.1157C404.741 41.1317 404.534 39.8887 404.534 37.4546V24.8696ZM442.265 8.24487V28.5467C440.09 25.6982 437.501 24.4034 433.979 24.4034C427.919 24.4034 423.673 28.9092 423.673 35.3312C423.673 41.8568 428.023 46.5697 434.031 46.5697C437.501 46.5697 440.401 45.0678 442.265 42.2193V46H444.337V8.24487H442.265ZM434.082 26.3197C436.051 26.3197 438.174 27.1483 439.779 28.5467C441.592 30.1522 442.421 32.2238 442.421 35.2276C442.421 40.7692 438.951 44.6535 434.082 44.6535C429.318 44.6535 425.796 40.6656 425.796 35.2276C425.796 30.204 429.421 26.3197 434.082 26.3197ZM463.792 24.8696H461.358L471.094 47.2948L480.727 24.8696H478.397L471.094 41.9604L463.792 24.8696ZM501.592 24.8696V28.5467C499.416 25.6982 496.827 24.4034 493.305 24.4034C487.246 24.4034 482.999 28.9092 482.999 35.3312C482.999 41.8568 487.349 46.5697 493.357 46.5697C496.827 46.5697 499.727 45.0678 501.592 42.2193V46H503.663V24.8696H501.592ZM493.409 26.3197C495.377 26.3197 497.5 27.1483 499.106 28.5467C500.918 30.1522 501.747 32.2238 501.747 35.2276C501.747 40.7692 498.277 44.6535 493.409 44.6535C488.644 44.6535 485.122 40.6656 485.122 35.2276C485.122 30.204 488.748 26.3197 493.409 26.3197ZM513.071 8.24487H510.999V46H513.071V8.24487ZM522.529 24.8696H520.457V38.1797C520.457 41.1317 520.82 42.5818 522.011 43.9802C523.357 45.5857 525.584 46.5697 528.07 46.5697C530.504 46.5697 532.731 45.5857 534.078 43.9802C535.269 42.5818 535.632 41.1317 535.632 38.1797V24.8696H533.56V37.4546C533.56 39.8887 533.353 41.1317 532.887 42.1157C532.11 43.6176 530.142 44.6535 528.07 44.6535C525.947 44.6535 523.979 43.6176 523.202 42.1157C522.736 41.1317 522.529 39.8887 522.529 37.4546V24.8696ZM562.073 35.6937C561.969 28.9092 557.93 24.4034 551.974 24.4034C546.07 24.4034 541.668 29.1164 541.668 35.5384C541.668 41.9086 546.018 46.5697 552.026 46.5697C556.117 46.5697 559.276 44.6535 561.4 40.821L559.639 39.7852C558.758 41.2871 558.24 41.9604 557.515 42.6336C556.117 43.8766 554.097 44.6535 552.181 44.6535C549.281 44.6535 546.484 42.9962 545.086 40.4584C544.309 39.1119 543.998 37.8689 543.946 35.6937H562.073ZM544.102 33.7257C544.723 29.4271 547.986 26.3197 551.922 26.3197C555.806 26.3197 558.914 29.2717 559.691 33.7257H544.102Z" fill="white"/>
<path d="M61.4227 78.6254L61.4227 76.285L39.3921 85.6976L57.4033 92.8715L39.3921 100.045L61.4227 109.662L61.4227 107.27L44.7344 100.045L62.6947 92.8715L44.7344 85.6467L61.4227 78.6254ZM61.4227 116.005L61.4227 113.97L40.6641 113.97L40.6641 116.005L61.4227 116.005ZM70.1739 114.988C70.1739 113.97 69.3598 113.156 68.3423 113.156C67.2738 113.156 66.4597 113.97 66.4597 114.988C66.4597 116.005 67.2738 116.819 68.3423 116.819C69.3598 116.819 70.1739 116.005 70.1739 114.988ZM59.5402 125.547L59.5402 129.21L61.4227 129.21L61.4227 125.547L68.8511 125.547L68.8511 123.512L61.4227 123.512L61.4227 121.222L59.5402 121.222L59.5402 123.512L40.6641 123.512L40.6641 125.547L59.5402 125.547ZM77.7549 133.491L40.6641 133.491L40.6641 135.526L51.4504 135.526C54.2996 135.526 55.7243 135.781 57.1489 136.646C58.9805 137.663 59.9981 139.444 59.9981 141.632C59.9981 143.464 59.2349 145.143 57.9629 145.855C57.0471 146.415 55.9278 146.618 53.74 146.618L40.6641 146.618L40.6641 148.653L53.74 148.653C56.2331 148.653 57.8103 148.348 58.9805 147.636C60.7613 146.567 61.8806 144.278 61.8806 141.886C61.8806 139.088 60.8122 137.205 58.1665 135.526L77.7549 135.526L77.7549 133.491Z" fill="white"/>
<path d="M145.184 76.4324C138.715 69.3372 131.62 65.9982 122.646 65.9982C108.038 65.9982 97.1867 76.2237 97.1867 89.5795C97.1867 99.805 102.821 106.065 117.429 112.535C129.324 117.752 132.663 121.299 132.663 129.021C132.663 139.872 125.15 147.176 114.09 147.176C104.491 147.176 98.2301 142.794 94.0565 132.986L87.3786 135.907C92.8044 148.846 101.36 154.897 114.09 154.897C129.95 154.897 141.219 144.463 141.219 129.855C141.219 118.378 136.419 112.535 121.185 105.648C108.664 100.014 105.743 97.0921 105.743 89.9968C105.743 80.6061 113.047 73.7195 123.064 73.7195C129.324 73.7195 134.958 76.2237 140.176 81.2321L145.184 76.4324ZM170.054 108.987L239.755 108.987C239.337 98.3442 238.503 92.9184 236.416 87.4926C230.781 73.5108 218.469 65.1635 203.235 65.1635C179.236 65.1635 161.916 86.0319 161.916 114.83C161.916 138.62 177.567 154.897 200.939 154.897C214.921 154.897 223.477 150.306 233.494 137.368L227.86 133.403C219.512 143.42 212.417 147.176 201.566 147.176C182.993 147.176 170.054 133.82 170.054 114.83V108.987ZM171.306 101.474C173.393 93.1271 175.271 89.1621 179.028 84.3624C185.08 77.0585 193.844 72.8848 203.235 72.8848C213.043 72.8848 221.808 77.6845 227.025 85.8232C229.529 89.9968 230.781 93.7532 231.616 101.474L171.306 101.474ZM278.378 68.7111H270.24L260.014 152.185H268.153L273.787 107.526C275.457 93.7532 278.796 85.6145 285.474 79.7713C289.647 76.015 294.238 74.1369 298.621 74.1369C301.334 74.1369 303.421 74.7629 307.594 76.6411L311.977 69.5458C306.759 67.0416 304.255 66.4156 300.499 66.4156C292.152 66.4156 286.935 69.7545 276.918 81.0234L278.378 68.7111ZM323.788 68.7111L349.039 160.115L399.54 68.7111H389.941L351.751 138.203L332.344 68.7111H323.788ZM414.203 108.987H483.903C483.486 98.3442 482.651 92.9184 480.564 87.4926C474.93 73.5108 462.617 65.1635 447.383 65.1635C423.385 65.1635 406.064 86.0319 406.064 114.83C406.064 138.62 421.715 154.897 445.088 154.897C459.07 154.897 467.626 150.306 477.643 137.368L472.008 133.403C463.661 143.42 456.566 147.176 445.714 147.176C427.141 147.176 414.203 133.82 414.203 114.83V108.987ZM415.455 101.474C417.542 93.1271 419.42 89.1621 423.176 84.3624C429.228 77.0585 437.993 72.8848 447.383 72.8848C457.192 72.8848 465.956 77.6845 471.173 85.8232C473.678 89.9968 474.93 93.7532 475.764 101.474H415.455ZM522.527 68.7111H514.388L504.163 152.185H512.301L517.936 107.526C519.605 93.7532 522.944 85.6145 529.622 79.7713C533.796 76.015 538.387 74.1369 542.769 74.1369C545.482 74.1369 547.569 74.7629 551.743 76.6411L556.125 69.5458C550.908 67.0416 548.404 66.4156 544.647 66.4156C536.3 66.4156 531.083 69.7545 521.066 81.0234L522.527 68.7111ZM591.679 0.0541904L583.54 0.0541904L564.759 152.185L572.897 152.185L591.679 0.0541904ZM611.479 108.987L681.179 108.987C680.762 98.3442 679.927 92.9184 677.84 87.4926C672.206 73.5108 659.893 65.1635 644.66 65.1635C620.661 65.1635 603.34 86.0319 603.34 114.83C603.34 138.62 618.991 154.897 642.364 154.897C656.346 154.897 664.902 150.306 674.919 137.368L669.284 133.403C660.937 143.42 653.842 147.176 642.99 147.176C624.417 147.176 611.479 133.82 611.479 114.83V108.987ZM612.731 101.474C614.818 93.1271 616.696 89.1621 620.452 84.3624C626.504 77.0585 635.269 72.8848 644.66 72.8848C654.468 72.8848 663.232 77.6845 668.45 85.8232C670.954 89.9968 672.206 93.7532 673.041 101.474H612.731ZM753.858 76.4324C747.388 69.3372 740.293 65.9982 731.32 65.9982C716.712 65.9982 705.86 76.2237 705.86 89.5795C705.86 99.805 711.495 106.065 726.103 112.535C737.998 117.752 741.337 121.299 741.337 129.021C741.337 139.872 733.824 147.176 722.764 147.176C713.164 147.176 706.904 142.794 702.73 132.986L696.052 135.907C701.478 148.846 710.034 154.897 722.764 154.897C738.624 154.897 749.893 144.463 749.893 129.855C749.893 118.378 745.093 112.535 729.859 105.648C717.338 100.014 714.416 97.0921 714.416 89.9968C714.416 80.6061 721.72 73.7195 731.737 73.7195C737.998 73.7195 743.632 76.2237 748.849 81.2321L753.858 76.4324ZM825.458 76.4324C818.989 69.3372 811.894 65.9982 802.921 65.9982C788.313 65.9982 777.461 76.2237 777.461 89.5795C777.461 99.805 783.096 106.065 797.703 112.535C809.598 117.752 812.937 121.299 812.937 129.021C812.937 139.872 805.425 147.176 794.365 147.176C784.765 147.176 778.505 142.794 774.331 132.986L767.653 135.907C773.079 148.846 781.635 154.897 794.365 154.897C810.224 154.897 821.493 144.463 821.493 129.855C821.493 118.378 816.694 112.535 801.46 105.648C788.939 100.014 786.017 97.0921 786.017 89.9968C786.017 80.6061 793.321 73.7195 803.338 73.7195C809.598 73.7195 815.233 76.2237 820.45 81.2321L825.458 76.4324Z" fill="white"/>
</g>
</svg>
