<svg width="260" height="72" viewBox="0 0 260 72" fill="none" xmlns="http://www.w3.org/2000/svg">
<g clip-path="url(#clip0_4867_71871)">
<path d="M89.6823 35.0028C91.1265 35.7488 92.6678 36.2896 94.2615 36.6095C96.2656 37.0771 98.3171 37.3117 100.375 37.3084C102.278 37.3125 104.172 37.0419 105.999 36.5051C107.595 36.0464 109.091 35.2915 110.409 34.2798C111.613 33.3324 112.598 32.1345 113.293 30.7691C114.002 29.3364 114.359 27.7559 114.337 26.1578C114.363 24.1498 113.712 22.1915 112.49 20.5985C111.263 18.9918 109.215 17.7171 106.344 16.7745L100.721 14.975C99.1246 14.5559 97.6335 13.8089 96.3422 12.7818C95.9762 12.426 95.6858 12 95.4884 11.5292C95.291 11.0585 95.1906 10.5528 95.1934 10.0423C95.1444 9.33605 95.2937 8.63013 95.6244 8.00415C95.9551 7.37817 96.4541 6.85704 97.0652 6.49951C98.6972 5.67422 100.517 5.29193 102.343 5.39087C104.97 5.3494 107.574 5.86982 109.983 6.91726C110.457 7.17525 110.975 7.34151 111.51 7.40731C112.112 7.40731 112.409 6.98153 112.409 6.15406V4.24206C112.436 3.77747 112.315 3.31638 112.064 2.92455C111.742 2.52301 111.343 2.18979 110.891 1.94445C110.354 1.66923 109.795 1.43817 109.22 1.25356C108.521 1.02058 107.774 0.811709 106.963 0.626935C106.114 0.433789 105.256 0.283636 104.392 0.177052C103.505 0.058738 102.611 -0.000305611 101.717 0.000312719C100.026 -0.00980472 98.3428 0.225627 96.7198 0.699238C95.2264 1.1154 93.8253 1.8105 92.5905 2.74781C91.4138 3.62796 90.4342 4.74442 89.7145 6.02553C88.9748 7.37575 88.6036 8.89684 88.638 10.436C88.6398 12.5258 89.338 14.5555 90.6223 16.2041C91.9398 17.9662 94.0553 19.3051 96.9688 20.2209L102.737 22.0285C104.215 22.4112 105.588 23.1224 106.754 24.1092C107.108 24.4825 107.383 24.9229 107.564 25.4045C107.745 25.8861 107.827 26.399 107.806 26.9129C107.831 27.6642 107.654 28.4084 107.293 29.0681C106.933 29.7279 106.403 30.2791 105.758 30.6646C103.987 31.6406 101.976 32.0973 99.9573 31.9821C98.3705 31.9809 96.7879 31.8194 95.2336 31.5001C93.7306 31.1933 92.2653 30.7247 90.8633 30.1023L89.851 29.6926C89.6177 29.603 89.3699 29.5567 89.12 29.556C88.5175 29.556 88.2202 29.9657 88.2202 30.8012V32.8176C88.2032 33.2934 88.3349 33.7626 88.5969 34.16C88.859 34.5573 89.2384 34.8632 89.6823 35.0349" fill="white"/>
<path d="M22.5489 15.7308C21.1576 15.5268 19.7535 15.4221 18.3474 15.4175C14.2823 15.4175 11.0421 16.4485 8.62668 18.5105C7.44728 19.5096 6.50989 20.7632 5.8851 22.177C5.2603 23.5908 4.96437 25.1279 5.01958 26.6726C4.95198 28.0784 5.17618 29.4829 5.67807 30.7978C6.17996 32.1127 6.94867 33.3094 7.93579 34.3126C9.87992 36.2085 12.5203 37.1565 15.8569 37.1565C18.0909 37.1917 20.3034 36.7156 22.3251 35.7646C24.3469 34.8136 26.1244 33.4129 27.5217 31.6695C27.9395 32.5532 28.3251 33.3244 28.7348 33.9993C29.1294 34.6699 29.6072 35.2881 30.1568 35.839C30.3058 36.0066 30.4873 36.1421 30.6903 36.2374C30.8933 36.3327 31.1136 36.3857 31.3377 36.3933C31.7117 36.3802 32.0741 36.2603 32.3821 36.0478L34.8805 34.3849C35.0937 34.2623 35.2743 34.0904 35.4071 33.8835C35.5399 33.6765 35.6211 33.4407 35.6437 33.1959C35.6287 32.878 35.5348 32.5688 35.3706 32.2961C34.8597 31.3876 34.4296 30.436 34.0852 29.4522C33.7458 28.3032 33.5938 27.1069 33.6353 25.9094V12.9914C33.6353 8.63713 32.5267 5.38352 30.3335 3.23051C28.1403 1.0775 24.71 0.01706 19.9541 0.01706C17.8684 0.00429704 15.7896 0.258071 13.7682 0.772219C12.0458 1.20435 10.3716 1.80997 8.77128 2.57978C8.33877 2.75186 7.95526 3.02777 7.65461 3.38315C7.43684 3.81226 7.34229 4.29335 7.38147 4.77296V6.70906C7.38147 7.51242 7.65461 7.97034 8.18483 7.97034C8.39723 7.95622 8.6074 7.9185 8.81145 7.85787C9.28642 7.71995 9.75089 7.54812 10.2013 7.34372C11.5982 6.79536 13.035 6.3549 14.4993 6.02621C15.896 5.68681 17.3277 5.51156 18.7651 5.50402C21.8259 5.50402 23.9789 6.12261 25.192 7.34372C26.4051 8.56483 27.0719 10.6857 27.0719 13.6983V16.6145C25.4973 16.245 23.9789 15.9558 22.5168 15.7469L22.5489 15.7308ZM27.0719 22.7281C27.0936 23.8861 26.9639 25.042 26.6863 26.1665C26.436 27.1046 25.9743 27.973 25.3366 28.7051C24.3337 29.8677 23.0385 30.7413 21.5849 31.2357C20.2687 31.703 18.8844 31.95 17.4878 31.9668C16.7333 32.0167 15.9765 31.9167 15.2609 31.6726C14.5453 31.4286 13.885 31.0453 13.3183 30.5448C12.8031 29.9801 12.4084 29.3162 12.1584 28.5938C11.9084 27.8714 11.8083 27.1056 11.8642 26.3432C11.8141 25.4806 11.9634 24.6181 12.3006 23.8226C12.6377 23.027 13.1537 22.3199 13.8084 21.756C15.0991 20.6849 17.0647 20.1493 19.705 20.1493C20.949 20.1507 22.1916 20.2338 23.4246 20.3983C24.6509 20.5516 25.8683 20.7688 27.0719 21.0491V22.7281Z" fill="white"/>
<path d="M47.0385 34.3112C47.1472 34.8984 47.4267 35.4405 47.8419 35.8697C48.2931 36.1655 48.8306 36.3013 49.3682 36.2553H52.7665C53.3343 36.3066 53.9023 36.1589 54.3732 35.8376C54.7965 35.395 55.0765 34.835 55.1766 34.2308L61.2901 8.67589L67.468 34.2308C67.5647 34.8361 67.8451 35.3971 68.2714 35.8376C68.742 36.1595 69.3102 36.3073 69.8781 36.2553H73.2763C73.8163 36.2994 74.3557 36.1638 74.8107 35.8697C75.2259 35.4405 75.5054 34.8984 75.6141 34.3112L85.158 3.61471C85.3026 3.205 85.391 2.87562 85.4472 2.65068C85.5005 2.43986 85.5355 2.22483 85.5517 2.00799C85.5704 1.87596 85.5582 1.74137 85.516 1.61487C85.4738 1.48837 85.4028 1.37343 85.3085 1.27913C85.2142 1.18483 85.0992 1.11376 84.9727 1.07155C84.8462 1.02934 84.7116 1.01714 84.5796 1.03592H80.9002C80.3507 0.985311 79.7998 1.11808 79.3336 1.4135C78.9329 1.85605 78.6558 2.39637 78.5303 2.98006L71.6535 29.5794L65.4033 2.98006C65.3202 2.39055 65.0531 1.84233 64.6402 1.4135C64.1586 1.11936 63.5956 0.987045 63.0334 1.03592H59.82C59.2578 0.985898 58.6944 1.11829 58.2133 1.4135C57.7828 1.83485 57.5009 2.38462 57.4099 2.98006L51.224 29.2339L44.5802 2.98809C44.4584 2.40309 44.1808 1.86185 43.7768 1.42154C43.299 1.11848 42.7329 0.985452 42.1701 1.04395H38.3542C38.2205 1.01982 38.083 1.0277 37.953 1.06695C37.823 1.1062 37.7041 1.1757 37.6061 1.26977C37.5081 1.36383 37.4338 1.47977 37.3893 1.60809C37.3448 1.73641 37.3313 1.87345 37.35 2.00799C37.405 2.55474 37.5209 3.09365 37.6954 3.61471L47.0385 34.3112Z" fill="white"/>
<path d="M105.977 53.5441C91.713 59.5518 76.4026 62.6832 60.9249 62.7587C40.2097 62.7747 19.8507 57.3713 1.86976 47.0851C0.391569 46.2818 -0.692971 47.7439 0.528139 48.8525C16.7144 63.4398 37.762 71.4612 59.5511 71.3466C75.8674 71.3466 94.8107 66.2212 107.873 56.5809C110.034 54.9741 108.187 52.564 105.977 53.5281" fill="white"/>
<path d="M97.7286 48.1053C96.5798 48.9087 96.7806 50.0334 98.058 49.8808C102.268 49.3747 111.643 48.274 113.322 50.3869C115.001 52.4997 111.458 61.3447 109.883 65.2812C109.409 66.4782 110.438 66.9603 111.49 66.0846C118.495 60.22 120.327 47.9366 118.873 46.1612C117.419 44.3858 105.216 42.8915 97.7125 48.1375" fill="white"/>
<path d="M150.295 28.0289C150.23 28.0384 150.165 28.0326 150.103 28.0121C150.041 27.9917 149.985 27.957 149.939 27.911C149.893 27.8649 149.858 27.8087 149.838 27.7469C149.817 27.6851 149.811 27.6193 149.821 27.5549V6.12926C149.812 6.06453 149.818 5.99856 149.838 5.93648C149.859 5.8744 149.893 5.81786 149.939 5.77125C149.985 5.72464 150.041 5.68921 150.102 5.66771C150.164 5.6462 150.23 5.6392 150.295 5.64724H150.889C150.958 5.63642 151.028 5.64097 151.094 5.66053C151.16 5.6801 151.221 5.7142 151.273 5.76035C151.325 5.80651 151.365 5.86356 151.392 5.92737C151.419 5.99118 151.431 6.06015 151.428 6.12926L151.556 7.42267C152.408 6.71448 153.361 6.13771 154.384 5.71151C155.288 5.37413 156.247 5.20795 157.212 5.22146C158.13 5.18494 159.044 5.3635 159.881 5.74289C160.718 6.12228 161.454 6.692 162.032 7.4066C163.291 9.15131 163.912 11.2757 163.791 13.4238C163.904 15.6405 163.249 17.8283 161.936 19.6177C161.337 20.3672 160.571 20.9657 159.699 21.3648C158.827 21.7639 157.873 21.9525 156.915 21.9153C154.939 21.8998 153.043 21.1329 151.612 19.7703V27.5549C151.622 27.6193 151.616 27.6851 151.596 27.7469C151.575 27.8087 151.54 27.8649 151.494 27.911C151.448 27.957 151.392 27.9917 151.33 28.0121C151.269 28.0326 151.203 28.0384 151.138 28.0289H150.295ZM156.722 20.2363C157.459 20.2862 158.198 20.1583 158.876 19.8633C159.554 19.5684 160.152 19.1149 160.618 18.5412C161.491 17.4165 161.93 15.7401 161.936 13.5122C161.936 9.04546 160.24 6.81479 156.85 6.82015C154.926 6.88646 153.081 7.59971 151.612 8.84462V18.0752C152.365 18.7378 153.216 19.2798 154.135 19.682C154.953 20.0281 155.833 20.2057 156.722 20.2042" fill="white"/>
<path d="M171.631 21.8756C171 21.9093 170.369 21.8165 169.774 21.6027C169.179 21.3888 168.633 21.0582 168.168 20.6303C167.733 20.1907 167.394 19.6648 167.174 19.0865C166.955 18.5081 166.858 17.8902 166.891 17.2723C166.861 16.5842 166.991 15.8985 167.27 15.2687C167.548 14.6389 167.969 14.0819 168.498 13.6411C169.721 12.695 171.244 12.2215 172.788 12.3075C174.32 12.3292 175.842 12.5756 177.303 13.0386V10.3875C177.342 9.88575 177.276 9.38127 177.109 8.90664C176.941 8.432 176.676 7.99776 176.331 7.63196C175.452 7.00589 174.376 6.72039 173.302 6.82859C171.735 6.85776 170.183 7.12875 168.699 7.63196C168.544 7.68862 168.381 7.72114 168.217 7.72836C168.008 7.72836 167.903 7.59179 167.903 7.31865V6.82859C167.896 6.69074 167.929 6.55376 168 6.43495C168.079 6.32645 168.188 6.24285 168.313 6.19394C170.006 5.53684 171.808 5.20698 173.623 5.22187C175.09 5.10398 176.55 5.51743 177.737 6.38675C178.208 6.83964 178.573 7.39174 178.805 8.00309C179.037 8.61444 179.131 9.26974 179.078 9.92154V21.0561C179.088 21.1206 179.082 21.1863 179.061 21.2481C179.041 21.31 179.006 21.3661 178.96 21.4122C178.914 21.4582 178.858 21.4929 178.796 21.5134C178.734 21.5338 178.669 21.5396 178.604 21.5301H177.937C177.871 21.5383 177.804 21.5321 177.741 21.5118C177.677 21.4914 177.619 21.4575 177.57 21.4124C177.521 21.3673 177.483 21.312 177.457 21.2505C177.432 21.189 177.42 21.1226 177.423 21.0561L177.311 19.6824C175.73 21.049 173.72 21.8192 171.631 21.8595V21.8756ZM171.88 20.2528C172.767 20.2384 173.644 20.0727 174.475 19.7627C175.456 19.4068 176.396 18.9462 177.279 18.389V14.4284C175.944 14.0598 174.566 13.8681 173.181 13.858C170.236 13.858 168.76 14.9934 168.755 17.2643C168.729 17.6692 168.787 18.0752 168.925 18.4567C169.063 18.8383 169.279 19.1871 169.558 19.4815C170.211 20.0253 171.049 20.2959 171.896 20.2367" fill="white"/>
<path d="M184.41 21.5307C184.346 21.5401 184.28 21.5344 184.218 21.5139C184.156 21.4934 184.1 21.4588 184.054 21.4127C184.008 21.3667 183.973 21.3105 183.953 21.2487C183.932 21.1869 183.927 21.1211 183.936 21.0567V6.13023C183.927 6.06551 183.933 5.99954 183.953 5.93746C183.974 5.87538 184.008 5.81884 184.054 5.77223C184.1 5.72562 184.156 5.69019 184.218 5.66869C184.279 5.64718 184.345 5.64017 184.41 5.64821H185.013C185.08 5.63871 185.149 5.64424 185.215 5.6644C185.28 5.68456 185.34 5.71887 185.391 5.76487C185.441 5.81088 185.481 5.86746 185.507 5.93061C185.534 5.99375 185.546 6.06191 185.543 6.13023L185.711 7.95387C186.367 7.18368 187.163 6.54564 188.057 6.074C188.874 5.70132 189.763 5.51473 190.66 5.52771C190.928 5.51355 191.196 5.51355 191.464 5.52771C191.53 5.52363 191.596 5.53419 191.657 5.55866C191.719 5.58312 191.774 5.62087 191.82 5.66922C191.865 5.71757 191.899 5.77532 191.919 5.83835C191.94 5.90138 191.946 5.96812 191.938 6.03383V6.83719C191.935 6.92406 191.901 7.007 191.841 7.07017C191.81 7.10606 191.772 7.13475 191.729 7.15419C191.686 7.17363 191.639 7.18334 191.592 7.18264H191.118H190.451C189.565 7.16454 188.686 7.34862 187.881 7.72089C187.05 8.14665 186.315 8.73706 185.72 9.45615V21.0567C185.729 21.1211 185.723 21.1869 185.703 21.2487C185.682 21.3105 185.648 21.3667 185.602 21.4127C185.556 21.4588 185.499 21.4934 185.438 21.5139C185.376 21.5344 185.31 21.5401 185.246 21.5307H184.41Z" fill="white"/>
<path d="M200.318 21.7145C199.803 21.7501 199.286 21.681 198.799 21.5111C198.312 21.3413 197.864 21.0743 197.482 20.7263C197.134 20.3341 196.868 19.8761 196.7 19.3794C196.531 18.8827 196.464 18.3573 196.502 17.8342V7.22987H194.004C193.939 7.23932 193.874 7.23359 193.812 7.21311C193.75 7.19263 193.694 7.15799 193.648 7.11194C193.602 7.06589 193.567 7.00971 193.547 6.94789C193.526 6.88607 193.52 6.82032 193.53 6.75588V6.44257C193.517 6.31045 193.548 6.1779 193.618 6.06499C193.669 6.01386 193.729 5.97331 193.795 5.94572C193.861 5.91813 193.932 5.90405 194.004 5.90432L196.558 5.67938L196.783 1.51796C196.786 1.38536 196.834 1.25773 196.92 1.15645C196.965 1.11677 197.017 1.08638 197.073 1.06707C197.13 1.04776 197.19 1.03991 197.249 1.04398H197.82C197.884 1.03452 197.95 1.04026 198.012 1.06074C198.074 1.08121 198.13 1.11586 198.176 1.16191C198.222 1.20796 198.257 1.26413 198.277 1.32596C198.297 1.38778 198.303 1.45353 198.294 1.51796V5.64724H202.873C202.937 5.63916 203.002 5.64593 203.062 5.66702C203.123 5.68811 203.178 5.72295 203.223 5.76883C203.268 5.8147 203.302 5.87037 203.322 5.9315C203.342 5.99262 203.348 6.05755 203.339 6.12123V6.75588C203.35 6.81986 203.345 6.88552 203.326 6.94746C203.307 7.00939 203.273 7.06582 203.227 7.11211C203.182 7.1584 203.126 7.19321 203.064 7.21368C203.003 7.23416 202.937 7.2397 202.873 7.22987H198.294V17.7459C198.228 18.402 198.424 19.0575 198.84 19.5695C199.365 19.9784 200.026 20.171 200.688 20.1078C201.228 20.1129 201.766 20.059 202.295 19.9471L202.849 19.8427C202.945 19.8123 203.045 19.7961 203.146 19.7944C203.379 19.7944 203.492 19.923 203.492 20.172V20.646C203.492 20.9995 203.379 21.2244 203.146 21.3048C202.227 21.5967 201.266 21.7351 200.302 21.7145" fill="white"/>
<path d="M207.324 21.5304C207.26 21.5399 207.194 21.5341 207.132 21.5137C207.07 21.4932 207.014 21.4585 206.968 21.4125C206.922 21.3664 206.887 21.3103 206.867 21.2484C206.846 21.1866 206.841 21.1209 206.85 21.0564V6.12997C206.841 6.06524 206.847 5.99928 206.867 5.93719C206.888 5.87511 206.922 5.81858 206.968 5.77197C207.014 5.72536 207.07 5.68993 207.132 5.66842C207.193 5.64691 207.259 5.63991 207.324 5.64795H207.959C208.027 5.63861 208.096 5.64419 208.162 5.6643C208.228 5.68442 208.288 5.71859 208.339 5.76444C208.391 5.8103 208.431 5.86674 208.458 5.92985C208.486 5.99297 208.499 6.06126 208.497 6.12997L208.626 7.48765C209.611 6.76925 210.693 6.1932 211.839 5.77649C212.904 5.39198 214.025 5.18833 215.157 5.17397C215.795 5.13074 216.436 5.21659 217.041 5.42639C217.645 5.63619 218.201 5.96564 218.676 6.39508C219.107 6.8809 219.437 7.4483 219.645 8.06372C219.853 8.67913 219.936 9.33008 219.889 9.97807V21.0564C219.898 21.1209 219.892 21.1866 219.872 21.2484C219.851 21.3103 219.817 21.3664 219.771 21.4125C219.725 21.4585 219.669 21.4932 219.607 21.5137C219.545 21.5341 219.479 21.5399 219.415 21.5304H218.571C218.506 21.5395 218.441 21.5336 218.378 21.5132C218.316 21.4927 218.26 21.4582 218.213 21.4124C218.167 21.3666 218.131 21.3106 218.11 21.2489C218.088 21.1872 218.081 21.1213 218.089 21.0564V10.7332C218.177 9.67646 217.893 8.62218 217.286 7.75276C216.965 7.42835 216.578 7.17766 216.15 7.01812C215.723 6.85858 215.266 6.79401 214.811 6.82889C212.601 6.86463 210.453 7.5675 208.65 8.84533V21.0564C208.659 21.1201 208.653 21.185 208.633 21.2462C208.613 21.3073 208.579 21.363 208.534 21.4088C208.489 21.4547 208.434 21.4895 208.373 21.5106C208.312 21.5317 208.248 21.5385 208.184 21.5304H207.324Z" fill="white"/>
<path d="M231.506 21.9971C228.999 21.9971 227.125 21.2901 225.882 19.8762C224.621 18.4462 223.986 16.3414 223.986 13.5457C223.986 10.8946 224.621 8.83803 225.89 7.37591C226.565 6.64527 227.394 6.07324 228.316 5.70097C229.238 5.3287 230.232 5.16543 231.225 5.2229C232.03 5.1657 232.839 5.27926 233.597 5.55614C234.356 5.83302 235.048 6.26698 235.627 6.82962C236.72 8.14249 237.269 9.8242 237.161 11.5293C237.177 12.1642 237.131 12.7991 237.025 13.4252C237.017 13.5581 236.956 13.6823 236.857 13.771C236.758 13.8598 236.628 13.9058 236.495 13.8992H225.794C225.794 16.1111 226.276 17.7419 227.24 18.7917C228.204 19.8414 229.669 20.377 231.634 20.3984C233.113 20.4033 234.579 20.1308 235.956 19.595C236.138 19.515 236.33 19.4636 236.527 19.4424C236.569 19.4421 236.61 19.4513 236.647 19.4694C236.685 19.4875 236.718 19.514 236.744 19.5468C236.809 19.6227 236.843 19.7201 236.84 19.82V20.294C236.857 20.4259 236.833 20.5598 236.771 20.6776C236.709 20.7953 236.613 20.8914 236.495 20.9527C234.932 21.676 233.228 22.041 231.506 22.0212V21.9971ZM235.386 12.4532C235.386 12.1639 235.426 11.8105 235.426 11.4168C235.513 10.1683 235.116 8.93438 234.318 7.97039C233.883 7.56635 233.37 7.25646 232.81 7.06015C232.25 6.86384 231.656 6.78536 231.064 6.82962C227.738 6.82962 225.981 8.70413 225.794 12.4532H235.386Z" fill="white"/>
<path d="M241.601 21.5307C241.537 21.5401 241.471 21.5344 241.409 21.5139C241.348 21.4934 241.291 21.4588 241.245 21.4127C241.199 21.3667 241.165 21.3105 241.144 21.2487C241.124 21.1869 241.118 21.1211 241.127 21.0567V6.13023C241.118 6.06551 241.124 5.99954 241.145 5.93746C241.165 5.87538 241.2 5.81884 241.246 5.77223C241.291 5.72562 241.347 5.69019 241.409 5.66869C241.471 5.64718 241.537 5.64017 241.601 5.64821H242.204C242.272 5.63887 242.341 5.64445 242.407 5.66457C242.473 5.68468 242.533 5.71885 242.585 5.76471C242.636 5.81056 242.676 5.867 242.704 5.93012C242.731 5.99324 242.744 6.06152 242.742 6.13023L242.903 7.95387C243.558 7.18368 244.354 6.54564 245.249 6.074C246.065 5.70132 246.954 5.51473 247.852 5.52771C248.119 5.51355 248.387 5.51355 248.655 5.52771C248.721 5.52363 248.787 5.53419 248.849 5.55866C248.91 5.58312 248.966 5.62087 249.011 5.66922C249.056 5.71757 249.09 5.77532 249.111 5.83835C249.131 5.90138 249.137 5.96812 249.129 6.03383V6.83719C249.127 6.92406 249.092 7.007 249.033 7.07017C249.003 7.10697 248.965 7.1363 248.921 7.15582C248.878 7.17535 248.831 7.18452 248.784 7.18264H248.31H247.651C246.761 7.1636 245.879 7.34769 245.072 7.72089C244.24 8.14454 243.504 8.73527 242.911 9.45615V21.0567C242.92 21.1211 242.915 21.1869 242.894 21.2487C242.874 21.3105 242.839 21.3667 242.793 21.4127C242.747 21.4588 242.691 21.4934 242.629 21.5139C242.567 21.5344 242.501 21.5401 242.437 21.5307H241.601Z" fill="white"/>
<path d="M150.294 56.5883C150.229 56.5974 150.163 56.5915 150.101 56.5711C150.039 56.5506 149.982 56.5161 149.936 56.4703C149.889 56.4245 149.854 56.3685 149.832 56.3068C149.811 56.245 149.804 56.1792 149.812 56.1143V41.1879C149.804 41.123 149.811 41.0571 149.832 40.9954C149.854 40.9337 149.889 40.8777 149.936 40.8319C149.982 40.7861 150.039 40.7516 150.101 40.7311C150.163 40.7106 150.229 40.7047 150.294 40.7139H150.929C150.996 40.7045 151.064 40.7099 151.129 40.7296C151.193 40.7493 151.253 40.7828 151.303 40.828C151.354 40.8731 151.394 40.9286 151.421 40.9908C151.448 41.0529 151.461 41.1202 151.459 41.1879L151.587 42.5455C152.587 41.8283 153.682 41.255 154.841 40.8424C155.902 40.4542 157.021 40.2504 158.151 40.2399C158.789 40.1967 159.43 40.2825 160.034 40.4923C160.639 40.7021 161.195 41.0316 161.669 41.461C162.103 41.9456 162.434 42.5128 162.642 43.1285C162.851 43.7443 162.932 44.3958 162.883 45.044V56.1143C162.893 56.1783 162.889 56.244 162.87 56.3059C162.85 56.3678 162.816 56.4243 162.771 56.4705C162.725 56.5168 162.67 56.5516 162.608 56.5721C162.546 56.5926 162.481 56.5981 162.417 56.5883H161.565C161.5 56.5992 161.433 56.5945 161.37 56.5747C161.308 56.5548 161.25 56.5204 161.203 56.4741C161.156 56.4279 161.121 56.3712 161.1 56.3087C161.079 56.2461 161.073 56.1795 161.083 56.1143V45.7992C161.169 44.74 160.886 43.6837 160.28 42.8106C159.953 42.4806 159.558 42.2267 159.122 42.067C158.686 41.9073 158.22 41.8458 157.757 41.8868C155.549 41.9216 153.404 42.6247 151.603 43.9032V56.1143C151.613 56.1788 151.607 56.2445 151.587 56.3063C151.566 56.3681 151.531 56.4243 151.485 56.4704C151.439 56.5164 151.383 56.5511 151.321 56.5715C151.26 56.592 151.194 56.5978 151.129 56.5883H150.294Z" fill="white"/>
<path d="M174.469 57.0634C171.97 57.0634 170.082 56.3564 168.845 54.9345C167.608 53.5125 166.949 51.4077 166.949 48.604C166.949 45.9529 167.592 43.8963 168.861 42.4342C169.533 41.6927 170.362 41.111 171.288 40.7315C172.214 40.352 173.213 40.1844 174.212 40.241C175.017 40.1848 175.825 40.2988 176.584 40.5757C177.342 40.8525 178.034 41.2859 178.614 41.8477C179.711 43.1618 180.26 44.8474 180.148 46.5554C180.161 47.1899 180.118 47.8244 180.02 48.4513C180.008 48.5841 179.945 48.7072 179.845 48.7954C179.745 48.8835 179.615 48.93 179.482 48.9253H168.765C168.765 51.1373 169.247 52.7681 170.211 53.8178C171.175 54.8675 172.637 55.4031 174.597 55.4245C176.075 55.4294 177.542 55.1569 178.919 54.6212C179.101 54.5399 179.293 54.4858 179.49 54.4605C179.533 54.4617 179.576 54.4723 179.615 54.4918C179.653 54.5112 179.688 54.5389 179.715 54.573C179.776 54.6478 179.81 54.7413 179.811 54.8381V55.3121C179.827 55.446 179.802 55.5818 179.739 55.7011C179.676 55.8203 179.578 55.9173 179.458 55.9789C177.894 56.6993 176.19 57.0642 174.469 57.0473V57.0634ZM178.357 47.4873C178.357 47.1901 178.357 46.8446 178.357 46.4429C178.447 45.1964 178.05 43.9636 177.248 43.0046C176.817 42.5946 176.305 42.2792 175.744 42.0786C175.184 41.878 174.588 41.7966 173.995 41.8397C170.669 41.8397 168.915 43.7142 168.733 47.4632L178.357 47.4873Z" fill="white"/>
<path d="M188.992 56.7818C188.475 56.8171 187.957 56.7469 187.468 56.5757C186.979 56.4044 186.53 56.1357 186.148 55.7857C185.8 55.3949 185.534 54.9383 185.366 54.4429C185.198 53.9475 185.13 53.4234 185.168 52.9016V42.2972H182.678C182.613 42.3067 182.547 42.3009 182.486 42.2805C182.424 42.26 182.368 42.2253 182.322 42.1793C182.276 42.1332 182.241 42.0771 182.22 42.0152C182.2 41.9534 182.194 41.8877 182.204 41.8232V41.5019C182.19 41.3686 182.225 41.2349 182.3 41.1243C182.401 41.0244 182.536 40.9669 182.678 40.9636L185.232 40.7467L185.457 36.5773C185.464 36.4454 185.511 36.3189 185.594 36.2158C185.64 36.1769 185.694 36.1476 185.752 36.1297C185.81 36.1118 185.871 36.1055 185.931 36.1113H186.494C186.558 36.1004 186.623 36.1048 186.685 36.1242C186.747 36.1437 186.804 36.1775 186.85 36.223C186.896 36.2685 186.931 36.3244 186.951 36.3859C186.972 36.4475 186.977 36.5131 186.968 36.5773V40.7146H191.547C191.611 40.7051 191.677 40.7109 191.739 40.7313C191.801 40.7518 191.857 40.7865 191.903 40.8325C191.949 40.8786 191.984 40.9347 192.004 40.9966C192.024 41.0584 192.03 41.1241 192.021 41.1886V41.8232C192.03 41.8877 192.024 41.9534 192.004 42.0152C191.984 42.0771 191.949 42.1332 191.903 42.1793C191.857 42.2253 191.801 42.26 191.739 42.2805C191.677 42.3009 191.611 42.3067 191.547 42.2972H186.968V52.8132C186.905 53.4691 187.101 54.1237 187.514 54.6369C188.042 55.0434 188.706 55.233 189.37 55.1671C189.909 55.1747 190.448 55.1236 190.976 55.0144L191.531 54.902C191.628 54.8756 191.727 54.8594 191.828 54.8538C192.061 54.8538 192.181 54.9823 192.181 55.2394V55.7053C192.181 56.0668 192.061 56.2918 191.828 56.3721C190.911 56.6602 189.953 56.7986 188.992 56.7818Z" fill="white"/>
<path d="M199.281 56.5885C199.147 56.5953 199.014 56.556 198.904 56.4772C198.795 56.3984 198.715 56.2846 198.679 56.1547L193.658 41.4692C193.59 41.3191 193.547 41.1591 193.529 40.9952C193.529 40.8105 193.658 40.7141 193.915 40.7141H194.927C195.05 40.7077 195.171 40.7455 195.268 40.8207C195.365 40.8958 195.433 41.0034 195.457 41.1238L199.779 54.5078L203.644 41.1559C203.68 41.0252 203.759 40.9105 203.868 40.8303C203.977 40.7501 204.111 40.7092 204.246 40.7141H205.403C205.538 40.7092 205.672 40.7501 205.781 40.8303C205.89 40.9105 205.969 41.0252 206.006 41.1559L209.797 54.6042L214.216 41.1238C214.241 41.0019 214.309 40.8933 214.408 40.8179C214.507 40.7426 214.63 40.7057 214.754 40.7141H215.694C215.943 40.7141 216.072 40.8105 216.072 40.9952C216.05 41.1583 216.007 41.3177 215.943 41.4692L210.802 56.1547C210.763 56.2832 210.683 56.3953 210.574 56.4737C210.465 56.5521 210.333 56.5925 210.199 56.5885H209.163C209.028 56.5968 208.894 56.5581 208.784 56.4791C208.674 56.4 208.595 56.2854 208.56 56.1547L204.736 42.7385L200.952 56.1547C200.916 56.2846 200.837 56.3984 200.727 56.4772C200.618 56.556 200.485 56.5953 200.35 56.5885H199.281Z" fill="white"/>
<path d="M225.479 57.0622C224.47 57.1185 223.46 56.9487 222.525 56.5651C221.589 56.1815 220.752 55.5938 220.072 54.8449C218.787 53.3587 218.152 51.2941 218.152 48.643C218.152 45.9919 218.787 43.9272 220.072 42.449C221.513 41.034 223.452 40.2412 225.471 40.2412C227.49 40.2412 229.429 41.034 230.87 42.449C232.155 43.9272 232.798 45.9838 232.798 48.643C232.798 51.3021 232.155 53.3587 230.87 54.8449C230.194 55.5934 229.358 56.1811 228.426 56.5648C227.493 56.9484 226.486 57.1184 225.479 57.0622ZM225.479 55.4555C229.11 55.4555 230.928 53.1953 230.934 48.6751C230.939 44.1548 229.121 41.9001 225.479 41.9108C221.832 41.9108 220.011 44.1656 220.016 48.6751C220.022 53.1846 221.842 55.4447 225.479 55.4555Z" fill="white"/>
<path d="M237.387 56.5892C237.322 56.5986 237.256 56.5929 237.195 56.5724C237.133 56.5519 237.077 56.5173 237.031 56.4712C236.985 56.4252 236.95 56.369 236.929 56.3072C236.909 56.2454 236.903 56.1796 236.913 56.1152V41.1887C236.903 41.1243 236.909 41.0585 236.929 40.9967C236.95 40.9349 236.985 40.8787 237.031 40.8327C237.077 40.7866 237.133 40.752 237.195 40.7315C237.256 40.711 237.322 40.7053 237.387 40.7147H237.989C238.057 40.7041 238.126 40.7085 238.192 40.7276C238.257 40.7467 238.318 40.7801 238.37 40.8253C238.421 40.8706 238.462 40.9266 238.489 40.9894C238.516 41.0522 238.529 41.1203 238.527 41.1887L238.688 43.0204C239.343 42.2496 240.139 41.6115 241.034 41.1405C241.848 40.7614 242.738 40.5719 243.637 40.5862C243.982 40.5862 244.247 40.5862 244.44 40.5862C244.506 40.5833 244.571 40.5948 244.631 40.6198C244.692 40.6448 244.746 40.6827 244.791 40.7309C244.835 40.7792 244.868 40.8365 244.888 40.8989C244.908 40.9613 244.914 41.0273 244.906 41.0923V41.8957C244.909 41.9844 244.877 42.0707 244.818 42.1367C244.785 42.1728 244.746 42.2015 244.701 42.2209C244.657 42.2403 244.609 42.25 244.561 42.2492H244.095C243.942 42.2492 243.725 42.2492 243.428 42.2492C242.541 42.2327 241.661 42.4196 240.857 42.7954C240.024 43.2176 239.286 43.8053 238.688 44.5227V56.1152C238.699 56.1792 238.695 56.2448 238.675 56.3068C238.656 56.3687 238.622 56.4251 238.576 56.4714C238.531 56.5177 238.475 56.5525 238.413 56.573C238.352 56.5935 238.286 56.599 238.222 56.5892H237.387Z" fill="white"/>
<path d="M248.23 56.5896C248.166 56.5991 248.1 56.5933 248.038 56.5728C247.977 56.5524 247.92 56.5177 247.874 56.4717C247.828 56.4256 247.794 56.3694 247.773 56.3076C247.753 56.2458 247.747 56.18 247.756 56.1156V33.7099C247.747 33.6454 247.753 33.5797 247.773 33.5178C247.794 33.456 247.828 33.3998 247.874 33.3538C247.92 33.3077 247.977 33.2731 248.038 33.2526C248.1 33.2322 248.166 33.2264 248.23 33.2359H249.082C249.146 33.2264 249.212 33.2322 249.274 33.2526C249.336 33.2731 249.392 33.3077 249.438 33.3538C249.484 33.3998 249.519 33.456 249.539 33.5178C249.56 33.5797 249.565 33.6454 249.556 33.7099V47.8008L257.132 41.0445C257.236 40.9383 257.361 40.8549 257.5 40.7996C257.638 40.7443 257.786 40.7183 257.935 40.7232H259.076C259.325 40.7232 259.453 40.8196 259.453 41.0044C259.453 41.1892 259.341 41.2775 259.108 41.4784L251.468 48.2427L259.718 55.8344C259.911 56.0031 260 56.1477 260 56.2442C260 56.3406 259.879 56.5575 259.622 56.5575H258.272C258.015 56.5559 257.767 56.4552 257.581 56.2763L249.548 48.797V56.0835C249.557 56.1479 249.552 56.2137 249.531 56.2755C249.511 56.3373 249.476 56.3935 249.43 56.4395C249.384 56.4856 249.328 56.5202 249.266 56.5407C249.204 56.5612 249.138 56.5669 249.074 56.5575L248.23 56.5896Z" fill="white"/>
</g>
<defs>
<clipPath id="clip0_4867_71871">
<rect width="260" height="71.3626" fill="white"/>
</clipPath>
</defs>
</svg>
