<svg width="1685" height="866" viewBox="0 0 1685 866" fill="none" xmlns="http://www.w3.org/2000/svg">
<rect x="478.589" y="395.873" width="66.6973" height="66.6973" transform="rotate(-180 478.589 395.873)" fill="#8AE3FF" fill-opacity="0.1"/>
<rect x="515.645" y="347.703" width="66.6973" height="66.6973" transform="rotate(-180 515.645 347.703)" fill="#8AE3FF" fill-opacity="0.1"/>
<rect x="341.489" y="495.919" width="33.3487" height="33.3487" transform="rotate(-180 341.489 495.919)" fill="#8AE3FF" fill-opacity="0.1"/>
<rect x="219.21" y="381.052" width="33.3487" height="33.3487" transform="rotate(-180 219.21 381.052)" fill="#8AE3FF" fill-opacity="0.1"/>
<rect x="534.175" y="473.687" width="11.1162" height="11.1162" transform="rotate(-180 534.175 473.687)" fill="#8AE3FF" fill-opacity="0.1"/>
<rect x="508.234" y="495.919" width="11.1162" height="11.1162" transform="rotate(-180 508.234 495.919)" fill="#8AE3FF" fill-opacity="0.1"/>
<rect x="658.425" y="306.902" width="33.3487" height="33.3487" transform="rotate(-180 658.425 306.902)" fill="#8AE3FF" fill-opacity="0.1"/>
<rect x="805.281" y="182.266" width="33.3487" height="33.3487" transform="rotate(-180 805.281 182.266)" fill="#8AE3FF" fill-opacity="0.1"/>
<rect x="1079.91" y="246.885" width="33.3487" height="33.3487" transform="rotate(-180 1079.91 246.885)" fill="#8AE3FF" fill-opacity="0.1"/>
<rect x="434.125" y="225.424" width="33.3487" height="33.3487" transform="rotate(-180 434.125 225.424)" fill="#8AE3FF" fill-opacity="0.1"/>
<rect x="311.844" y="110.557" width="33.3487" height="33.3487" transform="rotate(-180 311.844 110.557)" fill="#8AE3FF" fill-opacity="0.1"/>
<rect x="341.489" y="151.316" width="11.1162" height="11.1162" transform="rotate(-180 341.489 151.316)" fill="#8AE3FF" fill-opacity="0.1"/>
<rect x="1209.32" y="260.458" width="66.6973" height="66.6973" fill="#8AE3FF" fill-opacity="0.1"/>
<rect x="1172.27" y="308.629" width="66.6973" height="66.6973" fill="#8AE3FF" fill-opacity="0.1"/>
<rect x="1346.43" y="160.413" width="33.3487" height="33.3487" fill="#8AE3FF" fill-opacity="0.1"/>
<rect x="1468.7" y="275.28" width="33.3487" height="33.3487" fill="#8AE3FF" fill-opacity="0.1"/>
<rect x="1179.68" y="160.413" width="11.1162" height="11.1162" fill="#8AE3FF" fill-opacity="0.1"/>
<rect x="1070.42" y="352.459" width="33.3487" height="33.3487" fill="#8AE3FF" fill-opacity="0.1"/>
<rect x="882.633" y="474.066" width="33.3487" height="33.3487" fill="#8AE3FF" fill-opacity="0.1"/>
<rect x="608" y="409.446" width="33.3487" height="33.3487" fill="#8AE3FF" fill-opacity="0.1"/>
<rect x="1420.91" y="515.775" width="33.3487" height="33.3487" fill="#8AE3FF" fill-opacity="0.1"/>
<rect x="1372.36" y="482.783" width="11.1162" height="11.1162" fill="#8AE3FF" fill-opacity="0.1"/>
</svg>
