<svg width="1800" height="891" viewBox="0 0 1800 891" fill="none" xmlns="http://www.w3.org/2000/svg">
<path d="M1982.88 260.255L1908.8 334.353L1982.88 334.353L1982.88 260.255ZM1908.8 334.353L1834.73 408.451L1834.73 334.353L1908.8 334.353ZM1982.88 297.217L1834.73 297.217L1871.68 260.255L1982.88 260.255L1982.88 297.217ZM1945.75 408.451L1834.73 408.451L1834.73 371.489L1982.88 371.489L1945.75 408.451ZM1945.93 297.217L1908.98 334.179L1834.91 334.179L1834.91 297.217L1945.93 297.217ZM1982.88 334.353L1982.88 371.315L1871.86 371.315L1908.8 334.353L1982.88 334.353ZM1834.73 371.315L1760.66 371.315L1834.73 297.217L1834.73 371.315ZM1760.66 371.315L1686.59 445.413L1686.59 371.315L1760.66 371.315ZM1834.73 334.353L1686.59 334.353L1723.54 297.391L1834.56 297.391L1834.56 334.353L1834.73 334.353ZM1797.78 445.413L1686.76 445.413L1686.76 408.451L1834.91 408.451L1797.78 445.413ZM1797.78 334.353L1760.83 371.315L1686.76 371.315L1686.76 334.353L1797.78 334.353ZM1834.73 371.315L1834.73 408.277L1723.71 408.277L1760.66 371.315L1834.73 371.315ZM1686.59 408.451L1612.51 408.451L1686.59 334.353L1686.59 408.451ZM1612.51 408.451L1538.44 482.549L1538.44 408.451L1612.51 408.451V408.451ZM1686.59 371.315L1538.44 371.315L1575.39 334.353L1686.41 334.353L1686.41 371.315L1686.59 371.315ZM1649.64 482.549L1538.62 482.549L1538.62 445.587L1686.76 445.587L1649.64 482.549ZM1649.64 371.315L1612.69 408.277L1538.62 408.277L1538.62 371.315L1649.64 371.315ZM1686.59 408.451L1686.59 445.413L1575.57 445.413L1612.51 408.451L1686.59 408.451ZM1538.44 445.413L1464.37 445.413L1538.44 371.315L1538.44 445.413ZM1464.37 445.413L1390.3 519.511L1390.3 445.413L1464.37 445.413ZM1538.44 408.451L1390.3 408.451L1427.25 371.489L1538.27 371.489L1538.27 408.451L1538.44 408.451ZM1501.49 519.511L1390.47 519.511L1390.47 482.549L1538.62 482.549L1501.49 519.511ZM1501.49 408.451L1464.54 445.413L1390.47 445.413L1390.47 408.451L1501.49 408.451ZM1538.44 445.413L1538.44 482.375L1427.42 482.375L1464.37 445.413L1538.44 445.413ZM1390.47 482.549L1316.4 482.549L1390.47 408.451L1390.47 482.549ZM1316.4 482.549L1242.33 556.647L1242.33 482.549L1316.4 482.549ZM1390.47 445.413L1242.33 445.413L1279.28 408.451L1390.47 408.451L1390.47 445.413ZM1353.35 556.647L1242.33 556.647L1242.33 519.685L1390.47 519.685L1353.35 556.647ZM1353.35 445.413L1316.4 482.375L1242.33 482.375L1242.33 445.413L1353.35 445.413ZM1390.47 482.549L1390.47 519.511L1279.45 519.511L1316.4 482.549L1390.47 482.549ZM1242.33 519.511L1168.25 519.511L1242.33 445.413L1242.33 519.511ZM1168.25 519.511L1094.18 593.609L1094.18 519.511L1168.25 519.511ZM1242.33 482.549L1094.18 482.549L1131.13 445.587L1242.33 445.587L1242.33 482.549ZM1205.2 593.608L1094.18 593.609L1094.18 556.647L1242.33 556.647L1205.2 593.608ZM1205.2 482.549L1168.25 519.511L1094.18 519.511L1094.18 482.549L1205.2 482.549ZM1242.33 519.511L1242.33 556.472L1131.3 556.472L1168.25 519.511L1242.33 519.511ZM1094.18 556.647L1020.11 556.647L1094.18 482.549L1094.18 556.647ZM1020.11 556.647L946.036 630.745L946.036 556.647L1020.11 556.647ZM1094.18 519.511L946.036 519.511L982.985 482.549L1094.18 482.549L1094.18 519.511ZM1057.06 630.745L946.036 630.745L946.036 593.783L1094.18 593.783L1057.06 630.745ZM1057.06 519.511L1020.11 556.472L946.036 556.472L946.036 519.511L1057.06 519.511ZM1094.18 556.647L1094.18 593.609L983.16 593.609L1020.11 556.647L1094.18 556.647ZM946.036 593.609L871.964 593.609L946.036 519.511L946.036 593.609ZM871.964 593.609L797.891 667.706L797.891 593.609L871.964 593.609ZM946.036 556.647L797.891 556.647L834.84 519.685L946.036 519.685L946.036 556.647ZM908.913 667.706L797.891 667.706L797.891 630.745L946.036 630.745L908.913 667.706ZM908.913 556.647L871.964 593.609L797.891 593.609L797.891 556.647L908.913 556.647ZM946.036 593.609L946.036 630.57L835.015 630.57L871.964 593.609L946.036 593.609ZM797.891 630.745L723.819 630.745L797.891 556.647L797.891 630.745ZM723.819 630.745L649.746 704.843L649.746 630.745L723.819 630.745ZM797.891 593.609L649.746 593.609L686.695 556.647L797.891 556.647L797.891 593.609ZM760.942 704.843L649.746 704.843L649.746 667.881L797.891 667.881L760.942 704.843ZM760.942 593.609L723.993 630.57L649.746 630.57L649.746 593.609L760.942 593.609ZM797.891 630.745L797.891 667.706L686.87 667.706L723.819 630.745L797.891 630.745ZM649.746 667.706L575.674 667.706L649.746 593.609L649.746 667.706ZM575.674 667.706L501.601 741.804L501.601 667.706L575.674 667.706ZM649.746 630.745L501.601 630.745L538.55 593.783L649.746 593.783L649.746 630.745ZM612.797 741.804L501.601 741.804L501.601 704.843L649.746 704.843L612.797 741.804ZM612.797 630.745L575.848 667.706L501.601 667.706L501.601 630.745L612.797 630.745ZM649.746 667.706L649.746 704.668L538.725 704.668L575.674 667.706L649.746 667.706ZM501.601 704.843L427.529 704.843L501.601 630.745L501.601 704.843ZM427.529 704.843L353.456 778.766L353.456 704.668L427.529 704.668L427.529 704.843ZM501.601 667.706L353.456 667.706L390.405 630.745L501.601 630.745L501.601 667.706ZM464.652 778.94L353.456 778.94L353.456 741.979L501.601 741.979L464.652 778.94ZM464.652 667.706L427.703 704.668L353.456 704.668L353.456 667.706L464.652 667.706ZM501.601 704.843L501.601 741.804L390.58 741.804L427.529 704.843L501.601 704.843ZM353.456 741.804L279.384 741.804L353.456 667.706L353.456 741.804ZM279.384 741.804L205.312 815.902L205.312 741.804L279.384 741.804ZM353.456 704.668L205.312 704.668L242.261 667.706L353.456 667.706L353.456 704.668ZM316.507 815.902L205.486 815.902L205.486 778.766L353.631 778.766L316.507 815.902ZM316.507 704.668L279.558 741.63L205.486 741.63L205.486 704.668L316.507 704.668ZM353.456 741.804L353.456 778.766L242.435 778.766L279.384 741.804L353.456 741.804ZM205.486 778.94L131.413 778.94L205.486 704.843L205.486 778.94ZM131.413 778.94L57.3408 853.038L57.3408 778.94L131.413 778.94ZM205.486 741.804L57.3408 741.804L94.29 704.843L205.312 704.843L205.312 741.804L205.486 741.804ZM168.363 852.864L57.3408 852.864L57.3408 815.902L205.486 815.902L168.363 852.864ZM168.363 741.804L131.413 778.766L57.3408 778.766L57.3408 741.804L168.363 741.804ZM205.486 778.94L205.486 815.902L94.4643 815.902L131.413 778.94L205.486 778.94ZM57.3408 815.902L-16.7317 815.902L57.3408 741.804L57.3408 815.902ZM-16.7317 815.902L-90.8041 890L-90.8041 815.902L-16.7317 815.902ZM57.3408 778.766L-90.8042 778.766L-53.8549 741.804L57.1666 741.804L57.1666 778.766L57.3408 778.766ZM20.2176 890L-90.8041 890L-90.8041 853.038L57.3408 853.038L20.2176 890ZM20.2176 778.766L-16.7317 815.728L-90.8041 815.728L-90.8042 778.766L20.2176 778.766ZM57.3408 815.902L57.3408 852.864L-53.6807 852.864L-16.7317 815.902L57.3408 815.902ZM2019.83 186.157L1945.75 186.157L2019.83 112.06L2019.83 186.157ZM1945.93 186.157L1871.86 260.255L1871.86 186.157L1945.93 186.157ZM2019.83 149.021L1871.68 149.021L1908.8 112.06L2019.83 112.06L2019.83 149.021ZM1982.88 260.255L1871.86 260.255L1871.86 223.294L2020 223.294L1982.88 260.255ZM1982.88 149.021L1945.93 185.983L1871.86 185.983L1871.86 149.021L1982.88 149.021ZM2019.83 186.157L2019.83 223.119L1908.8 223.119L1945.75 186.157L2019.83 186.157V186.157ZM1871.86 223.119L1797.78 223.119L1871.86 149.021L1871.86 223.119ZM1797.78 223.119L1723.71 297.217L1723.71 223.119L1797.78 223.119ZM1871.86 186.157L1723.71 186.157L1760.66 149.196L1871.86 149.196L1871.86 186.157ZM1834.73 297.217L1723.71 297.217L1723.71 260.255L1871.86 260.255L1834.73 297.217ZM1834.73 186.157L1797.78 223.119L1723.71 223.119L1723.71 186.157L1834.73 186.157ZM1871.86 223.119L1871.86 260.081L1760.83 260.081L1797.78 223.119L1871.86 223.119ZM1908.8 74.9235L1834.73 74.9235L1908.8 1.00001L1908.8 74.9235ZM1834.73 74.9235L1760.66 149.021L1760.66 74.9235L1834.73 74.9235ZM1908.8 37.9618L1760.66 37.9618L1797.78 1.00002L1908.8 1.00001L1908.8 37.9618ZM1871.86 149.021L1760.83 149.021L1760.83 112.06L1908.98 112.06L1871.86 149.021ZM1871.86 37.9618L1834.91 74.9235L1760.83 74.9235L1760.83 37.9618L1871.86 37.9618ZM1908.8 74.9235L1908.8 111.885L1797.78 111.885L1834.73 74.9235L1908.8 74.9235ZM1723.71 260.255L1649.64 260.255L1723.71 186.157L1723.71 260.255ZM1649.64 260.255L1575.57 334.353L1575.57 260.255L1649.64 260.255ZM1723.71 223.119L1575.57 223.119L1612.51 186.157L1723.54 186.157L1723.54 223.119L1723.71 223.119ZM1686.59 334.353L1575.57 334.353L1575.57 297.391L1723.71 297.391L1686.59 334.353ZM1686.59 223.119L1649.64 260.081L1575.57 260.081L1575.57 223.119L1686.59 223.119ZM1723.71 260.255L1723.71 297.217L1612.69 297.217L1649.64 260.255L1723.71 260.255ZM1760.66 112.06L1686.59 112.06L1760.66 37.9618L1760.66 112.06ZM1686.59 112.06L1612.51 186.157L1612.51 112.06L1686.59 112.06ZM1760.66 74.9235L1612.51 74.9235L1649.46 37.9618L1760.48 37.9618L1760.48 74.9235L1760.66 74.9235ZM1723.71 186.157L1612.69 186.157L1612.69 149.021L1760.83 149.021L1723.71 186.157ZM1723.71 74.9235L1686.76 111.885L1612.69 111.885L1612.69 74.9235L1723.71 74.9235ZM1760.66 112.06L1760.66 149.021L1649.64 149.021L1686.59 112.06L1760.66 112.06ZM1612.51 149.021L1538.44 149.021L1612.51 74.9235L1612.51 149.021V149.021ZM1538.44 149.021L1464.37 223.119L1464.37 149.021L1538.44 149.021ZM1612.51 112.06L1464.37 112.06L1501.32 75.0979L1612.34 75.0979L1612.34 112.06L1612.51 112.06ZM1575.57 223.119L1464.54 223.119L1464.54 186.157L1612.69 186.157L1575.57 223.119ZM1575.57 112.06L1538.62 149.021L1464.54 149.021L1464.54 112.06L1575.57 112.06ZM1612.51 149.021L1612.51 185.983L1501.49 185.983L1538.44 149.021L1612.51 149.021ZM1464.37 186.157L1390.47 186.157L1464.54 112.06L1464.54 186.157L1464.37 186.157ZM1390.47 186.157L1316.4 260.255L1316.4 186.158L1390.47 186.157ZM1464.37 149.021L1316.22 149.021L1353.17 112.06L1464.19 112.06L1464.19 149.021L1464.37 149.021ZM1427.42 260.255L1316.4 260.255L1316.4 223.294L1464.54 223.294L1427.42 260.255ZM1427.42 149.021L1390.47 185.983L1316.4 185.983L1316.4 149.021L1427.42 149.021ZM1464.37 186.157L1464.37 223.119L1353.35 223.119L1390.47 186.157L1464.37 186.157ZM1316.4 223.119L1242.33 223.119L1316.4 149.021L1316.4 223.119ZM1242.33 223.119L1168.25 297.217L1168.25 223.119L1242.33 223.119ZM1316.4 186.158L1168.25 186.158L1205.2 149.196L1316.22 149.196L1316.22 186.158L1316.4 186.158ZM1279.28 297.217L1168.25 297.217L1168.25 260.255L1316.4 260.255L1279.28 297.217ZM1279.28 186.158L1242.33 223.119L1168.25 223.119L1168.25 186.158L1279.28 186.158ZM1316.4 223.119L1316.4 260.081L1205.38 260.081L1242.33 223.119L1316.4 223.119ZM1168.25 260.255L1094.18 260.255L1168.25 186.158L1168.25 260.255ZM1094.18 260.255L1020.11 334.353L1020.11 260.255L1094.18 260.255ZM1168.25 223.119L1020.11 223.119L1057.06 186.158L1168.08 186.158L1168.08 223.119L1168.25 223.119ZM1131.13 334.353L1020.11 334.353L1020.11 297.391L1168.25 297.391L1131.13 334.353ZM1131.13 223.119L1094.18 260.081L1020.11 260.081L1020.11 223.119L1131.13 223.119ZM1168.25 260.255L1168.25 297.217L1057.23 297.217L1094.18 260.255L1168.25 260.255ZM1020.11 297.217L946.036 297.217L1020.11 223.119L1020.11 297.217ZM946.036 297.217L871.964 371.315L871.964 297.217L946.036 297.217ZM1020.11 260.255L871.964 260.255L908.913 223.294L1019.93 223.294L1019.93 260.255L1020.11 260.255ZM982.985 371.315L871.964 371.315L871.964 334.353L1020.11 334.353L982.985 371.315ZM982.985 260.255L946.036 297.217L871.964 297.217L871.964 260.255L982.985 260.255ZM1020.11 297.217L1020.11 334.179L909.087 334.179L946.036 297.217L1020.11 297.217ZM871.964 334.353L797.891 334.353L871.964 260.255L871.964 334.353ZM797.891 334.353L723.819 408.451L723.819 334.353L797.891 334.353ZM871.964 297.217L723.819 297.217L760.768 260.255L871.789 260.255L871.789 297.217L871.964 297.217ZM834.84 408.451L723.819 408.451L723.819 371.489L871.964 371.489L834.84 408.451ZM834.84 297.217L797.891 334.179L723.819 334.179L723.819 297.217L834.84 297.217ZM871.964 334.353L871.964 371.315L760.942 371.315L797.891 334.353L871.964 334.353ZM723.819 371.315L649.746 371.315L723.819 297.217L723.819 371.315ZM649.746 371.315L575.674 445.413L575.674 371.315L649.746 371.315ZM723.819 334.353L575.674 334.353L612.623 297.392L723.644 297.392L723.644 334.353L723.819 334.353ZM686.87 445.413L575.848 445.413L575.848 408.451L723.993 408.451L686.87 445.413ZM686.87 334.353L649.921 371.315L575.848 371.315L575.848 334.353L686.87 334.353ZM723.819 371.315L723.819 408.277L612.797 408.277L649.746 371.315L723.819 371.315ZM575.674 408.451L501.601 408.451L575.674 334.353L575.674 408.451ZM501.601 408.451L427.529 482.549L427.529 408.451L501.601 408.451V408.451ZM575.674 371.315L427.529 371.315L464.478 334.353L575.5 334.353L575.5 371.315L575.674 371.315ZM538.725 482.549L427.703 482.549L427.703 445.587L575.848 445.587L538.725 482.549ZM538.725 371.315L501.776 408.277L427.703 408.277L427.703 371.315L538.725 371.315ZM575.674 408.451L575.674 445.413L464.652 445.413L501.601 408.451L575.674 408.451ZM427.529 445.413L353.456 445.413L427.529 371.315L427.529 445.413ZM353.456 445.413L279.384 519.511L279.384 445.413L353.456 445.413ZM427.529 408.451L279.384 408.451L316.333 371.489L427.355 371.489L427.355 408.451L427.529 408.451ZM390.58 519.511L279.558 519.511L279.558 482.549L427.703 482.549L390.58 519.511ZM390.58 408.451L353.631 445.413L279.558 445.413L279.558 408.451L390.58 408.451ZM427.529 445.413L427.529 482.375L316.507 482.375L353.456 445.413L427.529 445.413ZM279.558 482.549L205.486 482.549L279.558 408.451L279.558 482.549V482.549ZM205.486 482.549L131.413 556.647L131.413 482.549L205.486 482.549ZM279.558 445.413L131.413 445.413L168.362 408.451L279.384 408.451L279.384 445.413L279.558 445.413ZM242.435 556.647L131.413 556.647L131.413 519.685L279.558 519.685L242.435 556.647ZM242.435 445.413L205.486 482.375L131.413 482.375L131.413 445.413L242.435 445.413ZM279.558 482.549L279.558 519.511L168.537 519.511L205.486 482.549L279.558 482.549ZM131.413 519.511L57.3408 519.511L131.413 445.413L131.413 519.511ZM57.3408 519.511L-16.7317 593.609L-16.7317 519.511L57.3408 519.511ZM131.413 482.549L-16.7317 482.549L20.2175 445.587L131.239 445.587L131.239 482.549L131.413 482.549ZM94.29 593.609L-16.7317 593.609L-16.7317 556.647L131.413 556.647L94.29 593.609ZM94.29 482.549L57.3408 519.511L-16.7317 519.511L-16.7317 482.549L94.29 482.549ZM131.413 519.511L131.413 556.473L20.3918 556.473L57.3408 519.511L131.413 519.511ZM-16.7317 556.647L-90.8042 556.647L-16.7317 482.549L-16.7317 556.647ZM-90.8042 556.647L-164.877 630.745L-164.877 556.647L-90.8042 556.647ZM-16.7317 519.511L-164.877 519.511L-127.927 482.549L-16.9059 482.549L-16.9059 519.511L-16.7317 519.511ZM-53.8549 630.745L-164.877 630.745L-164.877 593.783L-16.7317 593.783L-53.8549 630.745ZM-53.855 519.511L-90.8042 556.473L-164.877 556.473L-164.877 519.511L-53.855 519.511ZM-16.7317 556.647L-16.7317 593.609L-127.753 593.609L-90.8042 556.647L-16.7317 556.647ZM1575.57 297.217L1501.49 297.217L1575.57 223.119L1575.57 297.217ZM1501.49 297.217L1427.42 371.315L1427.42 297.217L1501.49 297.217ZM1575.57 260.255L1427.42 260.255L1464.37 223.294L1575.39 223.294L1575.39 260.255L1575.57 260.255ZM1538.44 371.315L1427.42 371.315L1427.42 334.353L1575.57 334.353L1538.44 371.315ZM1538.44 260.255L1501.49 297.217L1427.42 297.217L1427.42 260.255L1538.44 260.255ZM1575.57 297.217L1575.57 334.179L1464.54 334.179L1501.49 297.217L1575.57 297.217ZM1427.42 334.353L1353.35 334.353L1427.42 260.255L1427.42 334.353ZM1353.35 334.353L1279.28 408.451L1279.28 334.353L1353.35 334.353ZM1427.42 297.217L1279.28 297.217L1316.22 260.255L1427.25 260.255L1427.25 297.217L1427.42 297.217ZM1390.3 408.451L1279.28 408.451L1279.28 371.489L1427.42 371.489L1390.3 408.451ZM1390.47 297.217L1353.52 334.179L1279.45 334.179L1279.45 297.217L1390.47 297.217ZM1427.42 334.353L1427.42 371.315L1316.4 371.315L1353.35 334.353L1427.42 334.353ZM1279.28 371.315L1205.2 371.315L1279.28 297.217L1279.28 371.315ZM1205.2 371.315L1131.13 445.413L1131.13 371.315L1205.2 371.315ZM1279.28 334.353L1131.13 334.353L1168.08 297.391L1279.1 297.391L1279.1 334.353L1279.28 334.353ZM1242.33 445.413L1131.3 445.413L1131.3 408.451L1279.45 408.451L1242.33 445.413ZM1242.33 334.353L1205.38 371.315L1131.3 371.315L1131.3 334.353L1242.33 334.353ZM1279.28 371.315L1279.28 408.277L1168.25 408.277L1205.2 371.315L1279.28 371.315ZM1131.13 408.451L1057.06 408.451L1131.13 334.353L1131.13 408.451V408.451ZM1057.06 408.451L982.985 482.549L982.985 408.451L1057.06 408.451V408.451ZM1131.13 371.315L982.985 371.315L1019.93 334.353L1130.96 334.353L1130.96 371.315L1131.13 371.315ZM1094.18 482.549L983.16 482.549L983.16 445.587L1131.3 445.587L1094.18 482.549ZM1094.18 371.315L1057.23 408.277L983.16 408.277L983.16 371.315L1094.18 371.315ZM1131.13 408.451L1131.13 445.413L1020.11 445.413L1057.06 408.451L1131.13 408.451ZM982.985 445.413L908.913 445.413L982.985 371.315L982.985 445.413ZM908.913 445.413L834.84 519.511L834.84 445.413L908.913 445.413ZM982.985 408.451L834.84 408.451L871.789 371.489L982.811 371.489L982.811 408.451L982.985 408.451ZM946.036 519.511L835.015 519.511L835.015 482.549L983.16 482.549L946.036 519.511ZM946.036 408.451L909.087 445.413L835.015 445.413L835.015 408.451L946.036 408.451ZM982.985 445.413L982.985 482.375L871.964 482.375L908.913 445.413L982.985 445.413ZM835.015 482.549L760.942 482.549L835.015 408.451L835.015 482.549ZM760.942 482.549L686.87 556.647L686.87 482.549L760.942 482.549ZM835.015 445.413L686.87 445.413L723.819 408.451L834.84 408.451L834.84 445.413L835.015 445.413ZM797.891 556.647L686.87 556.647L686.87 519.685L835.015 519.685L797.891 556.647ZM797.891 445.413L760.942 482.375L686.87 482.375L686.87 445.413L797.891 445.413ZM835.015 482.549L835.015 519.511L723.993 519.511L760.942 482.549L835.015 482.549ZM686.87 519.511L612.797 519.511L686.87 445.413L686.87 519.511ZM612.797 519.511L538.725 593.609L538.725 519.511L612.797 519.511ZM686.87 482.549L538.725 482.549L575.674 445.587L686.695 445.587L686.695 482.549L686.87 482.549ZM649.746 593.609L538.725 593.609L538.725 556.647L686.87 556.647L649.746 593.609ZM649.746 482.549L612.797 519.511L538.725 519.511L538.725 482.549L649.746 482.549ZM686.87 519.511L686.87 556.472L575.848 556.472L612.797 519.511L686.87 519.511ZM538.725 556.647L464.652 556.647L538.725 482.549L538.725 556.647ZM464.652 556.647L390.58 630.745L390.58 556.647L464.652 556.647ZM538.725 519.511L390.58 519.511L427.529 482.549L538.55 482.549L538.55 519.511L538.725 519.511ZM501.601 630.57L390.58 630.57L390.58 593.609L538.725 593.609L501.601 630.57ZM501.601 519.511L464.652 556.472L390.58 556.472L390.58 519.511L501.601 519.511ZM538.725 556.647L538.725 593.609L427.703 593.609L464.652 556.647L538.725 556.647ZM390.58 593.609L316.507 593.609L390.58 519.511L390.58 593.609ZM316.507 593.609L242.435 667.706L242.435 593.609L316.507 593.609ZM390.58 556.647L242.435 556.647L279.384 519.685L390.405 519.685L390.405 556.647L390.58 556.647ZM353.456 667.706L242.435 667.706L242.435 630.745L390.58 630.745L353.456 667.706ZM353.456 556.647L316.507 593.609L242.435 593.609L242.435 556.647L353.456 556.647ZM390.58 593.609L390.58 630.57L279.558 630.57L316.507 593.609L390.58 593.609ZM242.435 630.745L168.363 630.745L242.435 556.647L242.435 630.745ZM168.363 630.745L94.29 704.843L94.29 630.745L168.363 630.745ZM242.435 593.609L94.29 593.609L131.239 556.647L242.261 556.647L242.261 593.609L242.435 593.609ZM205.486 704.843L94.4643 704.843L94.4643 667.881L242.609 667.881L205.486 704.843ZM205.486 593.609L168.537 630.57L94.4643 630.57L94.4643 593.609L205.486 593.609ZM242.435 630.745L242.435 667.706L131.413 667.706L168.363 630.745L242.435 630.745ZM94.29 667.706L20.2175 667.706L94.29 593.609L94.29 667.706ZM20.2175 667.706L-53.8549 741.804L-53.8549 667.706L20.2175 667.706ZM94.29 630.745L-53.8549 630.745L-16.9059 593.783L94.1156 593.783L94.1156 630.745L94.29 630.745ZM57.3408 741.804L-53.6807 741.804L-53.6807 704.843L94.4643 704.843L57.3408 741.804ZM57.3408 630.745L20.3918 667.706L-53.6807 667.706L-53.6807 630.745L57.3408 630.745ZM94.29 667.706L94.29 704.668L-16.7317 704.668L20.2175 667.706L94.29 667.706ZM-53.8549 704.668L-127.927 704.668L-53.8549 630.57L-53.8549 704.668ZM-127.927 704.668L-202 778.766L-202 704.668L-127.927 704.668ZM-53.8549 667.706L-202 667.706L-165.051 630.745L-54.0294 630.745L-54.0294 667.706L-53.8549 667.706ZM-90.8042 778.766L-201.826 778.766L-201.826 741.804L-53.6807 741.804L-90.8042 778.766ZM-90.8042 667.706L-127.753 704.668L-201.826 704.668L-201.826 667.706L-90.8042 667.706ZM-53.8549 704.668L-53.8549 741.63L-164.877 741.63L-127.927 704.668L-53.8549 704.668Z" stroke="url(#paint0_linear)" stroke-width="0.7087" stroke-miterlimit="10"/>
<defs>
<linearGradient id="paint0_linear" x1="2021.39" y1="445.446" x2="-203.424" y2="445.446" gradientUnits="userSpaceOnUse">
<stop offset="2.2622e-07" stop-color="#2C37FF"/>
<stop offset="0.0982704" stop-color="#4151FF"/>
<stop offset="0.3242" stop-color="#6E86FF"/>
<stop offset="0.535" stop-color="#92B1FF"/>
<stop offset="0.7245" stop-color="#ABCFFF"/>
<stop offset="0.8859" stop-color="#BAE1FF"/>
<stop offset="1" stop-color="#C0E8FF"/>
</linearGradient>
</defs>
</svg>
