<svg width="375" height="299" viewBox="0 0 375 299" fill="none" xmlns="http://www.w3.org/2000/svg">
<path opacity="0.8" d="M216.269 91.1885L235.998 107.48L171.993 114.241L171.584 114.285L171.902 114.546L194.001 132.753L152.38 137.102L152.232 116.505L152.232 116.505L152.084 97.8942L216.269 91.1885Z" stroke="white" stroke-width="0.345047"/>
<path opacity="0.8" d="M216.457 90.8962L199.69 61.7709L219.029 77.813L235.797 106.867L216.457 90.8962Z" stroke="white" stroke-width="0.345047"/>
<path opacity="0.6" d="M155.031 84.5733L219.069 77.8831L236.141 107.465L172.104 114.23L155.031 84.5733Z" stroke="white" stroke-width="0.345047"/>
<path opacity="0.8" d="M172.144 114.3L155.375 85.1706L176.958 103.011L193.801 132.141L172.144 114.3Z" stroke="white" stroke-width="0.345047"/>
<path opacity="0.6" d="M135.155 107.454L176.998 103.082L194.145 132.738L152.302 137.11L135.155 107.454Z" stroke="white" stroke-width="0.345047"/>
<path opacity="0.7" d="M152.031 136.642L135.044 107.263L134.895 86.5217L134.895 86.5216L134.751 68.4806L151.737 97.7858L151.886 116.508L151.886 116.508L152.031 136.642Z" stroke="white" stroke-width="0.345047"/>
<path opacity="0.7" d="M152.003 97.5557L134.856 67.9738L198.968 61.2092L216.041 90.8654L152.003 97.5557Z" stroke="white" stroke-width="0.345047"/>
<path opacity="0.6" d="M199.007 61.205L218.736 77.571L154.731 84.2579L154.322 84.3006L154.639 84.5625L176.665 102.769L135.043 107.118L134.895 86.5219L134.895 86.5217L134.747 67.9852L199.007 61.205Z" stroke="white" stroke-width="0.345047"/>
<path d="M218.58 202.34L198.85 185.973L262.856 179.212L263.265 179.169L262.947 178.907L240.922 160.775L282.544 156.352L282.692 176.948V176.948L282.84 195.56L218.58 202.34Z" stroke="white" stroke-width="0.345047"/>
<path opacity="0.8" d="M282.691 176.948L282.691 176.948L282.835 195.063L265.849 165.684L265.7 147.037L265.7 147.037L265.555 126.901L282.542 156.207L282.691 176.948Z" stroke="white" stroke-width="0.345047"/>
<path d="M198.518 185.661L181.445 156.005L245.408 149.315L262.555 178.897L198.518 185.661Z" stroke="white" stroke-width="0.345047"/>
<path d="M223.788 131.407L245.367 149.245L262.208 178.299L240.628 160.533L223.788 131.407Z" stroke="white" stroke-width="0.345047"/>
<path opacity="0.8" d="M240.588 160.463L223.441 130.807L265.285 126.435L282.432 156.017L240.588 160.463Z" stroke="white" stroke-width="0.345047"/>
<path opacity="0.6" d="M201.244 172.356L181.588 155.99L245.519 149.303L245.928 149.261L245.611 148.999L223.585 130.792L265.207 126.443L265.355 147.039V147.04L265.503 165.576L201.244 172.356Z" stroke="white" stroke-width="0.345047"/>
<path opacity="0.7" d="M181.794 156.611L201.055 172.648L217.894 201.77L198.559 185.732L181.794 156.611Z" stroke="white" stroke-width="0.345047"/>
<path opacity="0.5" d="M201.472 172.679L265.584 165.914L282.731 195.571L218.619 202.336L201.472 172.679Z" stroke="white" stroke-width="0.345047"/>
<rect x="204.618" y="126.24" width="6.21085" height="6.21085" fill="#8AE3FF"/>
<rect x="201.168" y="130.725" width="6.21085" height="6.21085" fill="#8AE3FF"/>
<rect x="217.385" y="116.923" width="3.10542" height="3.10542" fill="#8AE3FF"/>
<rect x="251.199" y="74.1375" width="3.10542" height="3.10542" fill="#8AE3FF"/>
<rect x="251.199" y="104.502" width="5.52075" height="5.52075" fill="#8AE3FF"/>
<rect x="228.771" y="127.62" width="3.10542" height="3.10542" fill="#8AE3FF"/>
<rect x="226.011" y="123.824" width="1.03514" height="1.03514" fill="#8AE3FF"/>
<rect x="228.427" y="121.754" width="1.03514" height="1.03514" fill="#8AE3FF"/>
<rect x="199.442" y="118.994" width="1.03514" height="1.03514" fill="#8AE3FF"/>
<rect x="201.857" y="116.923" width="1.03514" height="1.03514" fill="#8AE3FF"/>
<rect x="181.155" y="141.077" width="3.10542" height="3.10542" fill="#8AE3FF"/>
<rect x="196.682" y="144.872" width="3.10542" height="3.10542" fill="#8AE3FF"/>
<rect x="193.922" y="141.077" width="1.03514" height="1.03514" fill="#8AE3FF"/>
<rect x="196.337" y="139.006" width="1.03514" height="1.03514" fill="#8AE3FF"/>
<rect x="170.113" y="150.048" width="3.10542" height="3.10542" fill="#8AE3FF"/>
<rect x="171.493" y="147.633" width="3.10542" height="3.10542" fill="#8AE3FF"/>
<rect x="208.759" y="142.112" width="3.10542" height="3.10542" fill="#8AE3FF"/>
<rect x="220.146" y="152.808" width="3.10542" height="3.10542" fill="#8AE3FF"/>
<rect x="217.385" y="149.013" width="1.03514" height="1.03514" fill="#8AE3FF"/>
<rect x="219.8" y="146.942" width="1.03514" height="1.03514" fill="#8AE3FF"/>
<rect x="83.3643" y="136.547" width="23.0137" height="23.0137" transform="rotate(-180 83.3643 136.547)" fill="#8AE3FF" fill-opacity="0.1"/>
<rect x="96.1504" y="119.926" width="23.0137" height="23.0137" transform="rotate(-180 96.1504 119.926)" fill="#8AE3FF" fill-opacity="0.1"/>
<rect x="36.0586" y="171.068" width="11.5069" height="11.5069" transform="rotate(-180 36.0586 171.068)" fill="#8AE3FF" fill-opacity="0.1"/>
<rect x="102.544" y="163.397" width="3.83562" height="3.83562" transform="rotate(-180 102.544 163.397)" fill="#8AE3FF" fill-opacity="0.1"/>
<rect x="93.5928" y="171.068" width="3.83562" height="3.83562" transform="rotate(-180 93.5928 171.068)" fill="#8AE3FF" fill-opacity="0.1"/>
<rect x="145.416" y="105.848" width="11.5069" height="11.5069" transform="rotate(-180 145.416 105.848)" fill="#8AE3FF" fill-opacity="0.1"/>
<rect x="196.088" y="62.8429" width="11.5069" height="11.5069" transform="rotate(-180 196.088 62.8429)" fill="#8AE3FF" fill-opacity="0.1"/>
<rect x="290.85" y="85.1396" width="11.5069" height="11.5069" transform="rotate(-180 290.85 85.1396)" fill="#8AE3FF" fill-opacity="0.1"/>
<rect x="68.0225" y="77.7345" width="11.5069" height="11.5069" transform="rotate(-180 68.0225 77.7345)" fill="#8AE3FF" fill-opacity="0.1"/>
<rect x="25.8291" y="38.0998" width="11.5069" height="11.5069" transform="rotate(-180 25.8291 38.0998)" fill="#8AE3FF" fill-opacity="0.1"/>
<rect x="36.0586" y="52.1638" width="3.83562" height="3.83562" transform="rotate(-180 36.0586 52.1638)" fill="#8AE3FF" fill-opacity="0.1"/>
<rect x="335.503" y="89.8228" width="23.0137" height="23.0137" fill="#8AE3FF" fill-opacity="0.1"/>
<rect x="322.717" y="106.444" width="23.0137" height="23.0137" fill="#8AE3FF" fill-opacity="0.1"/>
<rect x="325.274" y="55.3023" width="3.83562" height="3.83562" fill="#8AE3FF" fill-opacity="0.1"/>
<rect x="287.575" y="121.567" width="11.5069" height="11.5069" fill="#8AE3FF" fill-opacity="0.1"/>
<rect x="222.779" y="163.527" width="11.5069" height="11.5069" fill="#8AE3FF" fill-opacity="0.1"/>
<rect x="128.018" y="141.231" width="11.5069" height="11.5069" fill="#8AE3FF" fill-opacity="0.1"/>
</svg>
