<svg width="569" height="381" viewBox="0 0 569 381" fill="none" xmlns="http://www.w3.org/2000/svg">
<g opacity="0.5">
<path d="M192.924 247.594L192.244 253.68" stroke="#1624BE" stroke-width="0.879848" stroke-miterlimit="10"/>
<path d="M199.49 189.484L193.913 238.836" stroke="#1624BE" stroke-width="0.879848" stroke-miterlimit="10"/>
<path d="M207.444 247.733L206.718 254.267" stroke="#1624BE" stroke-width="0.879848" stroke-miterlimit="10"/>
<path d="M217.515 158.653L208.448 238.898" stroke="#1624BE" stroke-width="0.879848" stroke-miterlimit="10"/>
<path d="M221.964 247.934L221.176 254.87" stroke="#1624BE" stroke-width="0.879848" stroke-miterlimit="10"/>
<path d="M230.693 170.701L222.985 238.914" stroke="#1624BE" stroke-width="0.879848" stroke-miterlimit="10"/>
<path d="M236.515 247.873L235.65 255.472" stroke="#1624BE" stroke-width="0.879848" stroke-miterlimit="10"/>
<path d="M242.895 191.275L237.52 238.882" stroke="#1624BE" stroke-width="0.879848" stroke-miterlimit="10"/>
<path d="M251.05 247.826L250.124 256.059" stroke="#1624BE" stroke-width="0.879848" stroke-miterlimit="10"/>
<path d="M259.622 171.891L252.038 239.114" stroke="#1624BE" stroke-width="0.879848" stroke-miterlimit="10"/>
<path d="M270.483 204.544L264.598 256.661" stroke="#1624BE" stroke-width="0.879848" stroke-miterlimit="10"/>
<path d="M277.035 146.558L272.586 185.962" stroke="#1624BE" stroke-width="0.879848" stroke-miterlimit="10"/>
<path d="M285.341 201.609L279.069 257.264" stroke="#1624BE" stroke-width="0.879848" stroke-miterlimit="10"/>
<path d="M299.138 208.329L293.531 257.851" stroke="#1624BE" stroke-width="0.879848" stroke-miterlimit="10"/>
<path d="M314.537 200.653L308.003 258.454" stroke="#1624BE" stroke-width="0.879848" stroke-miterlimit="10"/>
<path d="M329.256 199.076L322.475 259.04" stroke="#1624BE" stroke-width="0.879848" stroke-miterlimit="10"/>
<path d="M331.975 174.871L330.384 189.02" stroke="#1624BE" stroke-width="0.879848" stroke-miterlimit="10"/>
<path d="M499.434 135.266H483.014C480.966 135.266 479.001 136.079 477.553 137.528C476.104 138.976 475.291 140.941 475.291 142.989V201.176C475.291 203.225 474.477 205.189 473.028 206.638C471.58 208.086 469.616 208.9 467.567 208.9H423.637" stroke="#1624BE" stroke-width="0.879848" stroke-miterlimit="10"/>
<path d="M562.918 135.266H504.514" stroke="#1624BE" stroke-width="0.879848" stroke-miterlimit="10"/>
<path d="M568.001 132.718H562.919V137.8H568.001V132.718Z" stroke="#1624BE" stroke-width="0.879848" stroke-miterlimit="10"/>
<path d="M551.69 180.17H546.608V185.252H551.69V180.17Z" stroke="#1624BE" stroke-width="0.879848" stroke-miterlimit="10"/>
<path d="M504.514 132.718H499.432V137.8H504.514V132.718Z" stroke="#1624BE" stroke-width="0.879848" stroke-miterlimit="10"/>
<path d="M501.982 137.799V174.994C501.982 177.043 502.796 179.007 504.244 180.456C505.692 181.904 507.657 182.718 509.705 182.718H546.607" stroke="#1624BE" stroke-width="0.879848" stroke-miterlimit="10"/>
<path d="M71.4068 222.941C72.5621 222.897 73.7132 223.105 74.7801 223.551C75.8471 223.996 76.8043 224.668 77.5855 225.521C78.4437 226.297 79.1199 227.254 79.5658 228.322C80.0117 229.39 80.2164 230.543 80.1651 231.699C80.1857 232.868 79.9644 234.028 79.5152 235.108C79.066 236.187 78.3984 237.162 77.5546 237.971C76.7706 238.747 75.8353 239.353 74.8068 239.751C73.7784 240.15 72.6788 240.333 71.5767 240.288C69.1827 240.378 66.8448 239.549 65.0428 237.971C63.486 236.259 62.6503 234.012 62.7103 231.699C62.653 230.543 62.8338 229.388 63.2415 228.305C63.6492 227.221 64.2751 226.234 65.0803 225.402C65.8856 224.571 66.853 223.914 67.9227 223.472C68.9924 223.03 70.1415 222.812 71.2987 222.833L71.4068 222.941ZM71.2987 222.061C70.0291 222.042 68.7693 222.285 67.5975 222.774C66.4257 223.263 65.3669 223.988 64.4867 224.903C63.6264 225.806 62.9572 226.873 62.5193 228.041C62.0814 229.209 61.8836 230.453 61.938 231.699C61.8848 234.212 62.7969 236.65 64.4867 238.511C66.4472 240.292 69.0217 241.245 71.6694 241.168C72.8747 241.211 74.076 241.007 75.1996 240.568C76.3232 240.13 77.3453 239.467 78.2033 238.619C79.1156 237.738 79.8372 236.678 80.3235 235.507C80.8097 234.335 81.0502 233.076 81.0301 231.807C81.0179 229.255 79.9985 226.81 78.1935 225.005C76.3885 223.2 73.9439 222.181 71.3914 222.169L71.2987 222.061Z" fill="#1624BE"/>
<path d="M77.0751 205.348C77.1514 205.335 77.2296 205.337 77.3049 205.355C77.3802 205.373 77.4511 205.406 77.5132 205.453C77.5753 205.499 77.6274 205.557 77.6662 205.624C77.7051 205.691 77.73 205.765 77.7393 205.842L78.8669 212.932V213.287L79.1759 213.473L83.4237 216.021L83.7481 216.222L84.1033 216.083L90.8535 213.55H91.1624C91.263 213.545 91.3631 213.567 91.4526 213.613C91.5421 213.659 91.6179 213.728 91.6722 213.813L97.0322 223.081C97.0322 223.22 97.3257 223.683 97.2021 223.868L91.3015 228.363L90.9616 228.626V229.058L91.2397 231.808L90.9771 234.279V234.712L91.3324 234.974L97.2639 239.423C97.3875 239.608 97.1712 240.072 97.1249 240.18L91.7494 249.618C91.6413 249.85 91.5332 249.958 91.4405 249.958C91.3152 249.95 91.1936 249.913 91.0852 249.85L84.2887 247.285L83.9334 247.162L83.609 247.347L79.3612 249.911L79.0523 250.097V250.452L77.9247 257.758C77.9247 257.928 77.693 258.16 77.1678 258.299H66.386C65.9535 258.206 65.66 258.067 65.66 257.944V257.82L64.517 250.452V250.081L64.1926 249.896L59.6513 247.347L59.3115 247.146L58.9871 247.27L52.1751 249.834H52.0515C51.9476 249.895 51.8316 249.932 51.7117 249.942C51.6036 249.942 51.4955 249.834 51.3719 249.572L45.9965 240.304C45.7339 239.778 45.8729 239.686 46.0737 239.562L51.7426 235.021L52.0361 234.789V228.61L51.7426 228.379L46.0119 223.745C45.8729 223.652 45.7339 223.559 46.0119 223.081L51.3719 213.813C51.4248 213.721 51.5016 213.645 51.594 213.593C51.6865 213.542 51.7912 213.516 51.8971 213.519H52.206L58.9716 216.052L59.3115 216.253L59.6358 216.083L64.1772 213.535L64.5015 213.349V212.978L65.6446 205.888V205.765C65.6446 205.564 65.6446 205.394 66.2779 205.394H77.0906L77.0751 205.348ZM77.0906 204.622H66.2779C65.3357 204.622 64.8723 205.008 64.8723 205.765L63.7292 212.855L59.1879 215.404L52.3759 212.855C52.2047 212.808 52.0283 212.782 51.8507 212.778C51.6154 212.773 51.3831 212.831 51.177 212.945C50.971 213.059 50.7985 213.225 50.6768 213.426L45.2859 222.787C44.9152 223.544 45.0079 224.1 45.5794 224.486L51.2483 229.028V234.418L45.5794 238.96C45.0079 239.33 44.9152 239.902 45.2859 240.659L50.6768 250.019C50.7546 250.231 50.8925 250.416 51.0736 250.55C51.2547 250.685 51.4711 250.763 51.6963 250.776C51.9362 250.769 52.1702 250.699 52.3759 250.576L59.1879 248.027L63.7292 250.576L64.8723 257.959C64.8723 258.531 65.3357 258.901 66.2779 259.087H77.0906C77.4069 259.044 77.7058 258.916 77.9559 258.718C78.206 258.52 78.398 258.257 78.5116 257.959L79.6547 250.576L83.9025 248.027L90.7145 250.576C90.9247 250.702 91.1643 250.771 91.4096 250.776C91.6326 250.762 91.8466 250.683 92.025 250.548C92.2035 250.414 92.3386 250.23 92.4136 250.019L97.8045 240.659C98.1752 239.902 98.1752 239.33 97.8045 238.96L91.8421 234.418L92.1356 231.854L91.8421 229.028L97.8045 224.486C98.1752 224.1 98.1752 223.544 97.8045 222.787L92.4136 213.426C92.2931 213.224 92.1208 213.057 91.9145 212.943C91.7082 212.829 91.4753 212.772 91.2397 212.778C91.0621 212.782 90.8857 212.808 90.7145 212.855L83.9025 215.404L79.6547 212.855L78.5116 205.765C78.4619 205.431 78.2881 205.127 78.0247 204.915C77.7613 204.704 77.4278 204.599 77.0906 204.622Z" fill="#1624BE"/>
<path d="M519.469 230.278V379.724H289.855L220.128 309.673H450.515L449.202 308.345L371.119 230.278H519.407H519.469ZM520.179 229.505H369.25L448.646 308.901H218.259L289.468 380.496H520.241V229.505H520.179Z" fill="#1624BE"/>
<path d="M320.591 0.772332L390.456 70.8229H160.069L161.382 72.1359L239.465 150.219H91.1771V0.772332H320.591ZM320.9 0H90.343V150.991H241.334L161.938 71.5952H392.325L320.9 0Z" fill="#1624BE"/>
<path d="M272.892 194.627H337.768C339.816 194.627 341.781 193.814 343.229 192.365C344.677 190.917 345.491 188.953 345.491 186.904V128.686C345.491 126.637 346.305 124.673 347.753 123.225C349.202 121.776 351.166 120.962 353.214 120.962H380.879" stroke="#1624BE" stroke-width="0.879848" stroke-miterlimit="10"/>
<path d="M272.909 192.064H267.827V197.146H272.909V192.064Z" stroke="#1624BE" stroke-width="0.879848" stroke-miterlimit="10"/>
<path d="M385.93 118.413H380.848V123.495H385.93V118.413Z" stroke="#1624BE" stroke-width="0.879848" stroke-miterlimit="10"/>
<path d="M255.87 243.764H190.994C188.946 243.764 186.981 242.951 185.533 241.502C184.084 240.054 183.271 238.089 183.271 236.041V193.686C183.271 191.638 182.457 189.673 181.008 188.225C179.56 186.777 177.596 185.963 175.547 185.963H6.08203" stroke="#1624BE" stroke-width="0.879848" stroke-miterlimit="10"/>
<path d="M260.936 246.312V241.23H255.854V246.312H260.936Z" stroke="#1624BE" stroke-width="0.879848" stroke-miterlimit="10"/>
<path d="M6.08203 188.496V183.414H1.00008V188.496H6.08203Z" stroke="#1624BE" stroke-width="0.879848" stroke-miterlimit="10"/>
<path d="M41.3333 169.326V164.244H36.2513V169.326H41.3333Z" stroke="#1624BE" stroke-width="0.879848" stroke-miterlimit="10"/>
<path d="M104.417 185.963V174.548C104.417 172.499 103.604 170.535 102.155 169.086C100.707 167.638 98.7424 166.824 96.694 166.824H41.3333" stroke="#1624BE" stroke-width="0.879848" stroke-miterlimit="10"/>
<path d="M293.221 97.5621H294.859C316.7 98.7515 335.314 106.552 350.189 120.732C365.064 134.912 374.023 152.923 376.819 174.255V174.826L377.406 174.919C392.122 176.626 405.571 184.069 414.833 195.633C424.302 206.924 428.735 220.857 427.762 236.999C426.409 253.227 419.063 268.369 407.156 279.477C395.571 290.07 380.357 295.805 364.662 295.495H363.612L207.601 289.703C187.69 288.158 171.193 280.311 158.573 266.255C146.324 252.198 140.717 234.744 141.937 214.401C143.806 195.169 151.282 178.95 164.149 166.192C176.758 153.547 193.379 145.693 211.153 143.979H211.54L211.725 143.67C220.371 129.502 232.473 117.761 246.897 109.549C261.028 101.572 277.01 97.4539 293.237 97.6084L293.221 97.5621ZM293.237 96.8361C276.881 96.6614 260.771 100.818 246.542 108.884C231.985 117.127 219.781 128.959 211.092 143.253C193.117 144.946 176.302 152.875 163.562 165.666C150.505 178.58 143.044 194.794 141.18 214.308C139.944 234.986 145.551 252.461 158.001 266.734C170.781 281.037 187.283 288.925 207.508 290.398L363.519 296.191H364.709C381.504 296.191 395.839 290.784 407.712 279.972C419.791 268.756 427.235 253.427 428.58 236.999C429.497 220.523 425.126 206.538 415.466 195.046C406.071 183.342 392.428 175.83 377.514 174.147C374.692 152.521 365.738 134.536 350.652 120.191C335.566 105.847 316.984 98.0512 294.905 96.8052L293.237 96.8361Z" fill="#1624BE"/>
<path d="M274.391 83.8445V84.6168H276.028C297.87 85.8062 316.483 93.6067 331.358 107.787C346.233 121.967 355.192 139.978 357.988 161.294V161.881H358.575C373.318 163.602 386.785 171.074 396.049 182.672C405.533 193.979 409.951 207.896 408.993 224.038C407.63 240.281 400.261 255.432 388.325 266.532C376.736 277.117 361.524 282.845 345.832 282.535H344.689L188.677 276.742C168.767 275.198 152.27 267.335 139.65 253.279C127.385 239.222 121.793 221.768 123.014 201.424C124.883 182.193 132.282 165.897 145.211 153.215C157.842 140.57 174.485 132.721 192.277 131.019H192.647L192.848 130.694C201.503 116.509 213.622 104.757 228.066 96.5416C242.203 88.579 258.182 84.467 274.406 84.6168V83.8445H274.391ZM274.406 83.8445C258.042 83.6647 241.922 87.8161 227.68 95.8774C213.127 104.126 200.928 115.963 192.246 130.262C174.272 131.943 157.455 139.868 144.716 152.659C131.669 165.614 124.193 181.843 122.288 201.347C121.052 222.035 126.659 239.542 139.109 253.866C151.93 268.159 168.447 276.063 188.662 277.576L344.673 283.384H345.847C362.643 283.384 376.982 277.983 388.866 267.181C400.944 255.96 408.383 240.624 409.719 224.193C410.646 207.716 406.28 193.737 396.62 182.255C387.247 170.525 373.615 162.979 358.699 161.263C355.877 139.638 346.923 121.653 331.837 107.308C316.751 92.9631 298.163 85.1471 276.075 83.8599L274.406 83.8445Z" fill="#1624BE"/>
<path d="M377.219 174.486L358.375 161.511" stroke="#1624BE" stroke-width="0.879848" stroke-miterlimit="10"/>
<path d="M383.675 170.811L402.01 183.369" stroke="#1624BE" stroke-width="0.879848" stroke-miterlimit="10"/>
<path d="M153.719 265.898L168.394 275.969" stroke="#1624BE" stroke-width="0.879848" stroke-miterlimit="10"/>
<path d="M192.245 130.261L211.075 143.206" stroke="#1624BE" stroke-width="0.879848" stroke-miterlimit="10"/>
<path d="M322.352 99.7852L339.127 111.386" stroke="#1624BE" stroke-width="0.879848" stroke-miterlimit="10"/>
<path d="M141.858 295.355C144.636 295.295 147.397 295.804 149.971 296.851C152.545 297.898 154.878 299.46 156.826 301.441C158.811 303.29 160.377 305.542 161.418 308.047C162.46 310.552 162.954 313.25 162.865 315.961C162.925 318.734 162.419 321.49 161.378 324.061C160.337 326.632 158.783 328.964 156.81 330.913C154.891 332.956 152.573 334.584 150 335.697C147.427 336.81 144.654 337.384 141.85 337.384C139.047 337.384 136.273 336.81 133.7 335.697C131.128 334.584 128.81 332.956 126.89 330.913C124.918 328.964 123.363 326.632 122.322 324.061C121.281 321.49 120.775 318.734 120.835 315.961C120.752 313.247 121.249 310.546 122.293 308.04C123.337 305.533 124.905 303.278 126.89 301.426C128.841 299.449 131.174 297.89 133.748 296.847C136.322 295.803 139.081 295.295 141.858 295.355ZM141.858 294.583C138.991 294.525 136.143 295.053 133.487 296.134C130.831 297.215 128.423 298.827 126.411 300.87C124.347 302.791 122.718 305.132 121.634 307.735C120.549 310.338 120.035 313.143 120.125 315.961C120.065 318.828 120.592 321.677 121.673 324.333C122.754 326.99 124.367 329.397 126.411 331.408C128.4 333.525 130.802 335.211 133.468 336.365C136.134 337.518 139.007 338.113 141.912 338.113C144.817 338.113 147.69 337.518 150.356 336.365C153.022 335.211 155.424 333.525 157.413 331.408C159.457 329.397 161.07 326.99 162.151 324.333C163.232 321.677 163.759 318.828 163.7 315.961C163.789 313.143 163.275 310.338 162.19 307.735C161.106 305.132 159.477 302.791 157.413 300.87C155.401 298.826 152.994 297.214 150.338 296.133C147.682 295.052 144.833 294.525 141.966 294.583H141.858Z" fill="#1624BE"/>
<path d="M201.761 299.665L188.354 310.138L188.786 316.008L188.354 322.295L201.761 332.767C202.295 333.226 202.635 333.87 202.712 334.57C202.789 335.269 202.599 335.972 202.178 336.536L190.037 358.316C189.586 358.97 188.927 359.452 188.166 359.682C187.405 359.912 186.589 359.877 185.851 359.583L170.405 353.296C167.226 355.872 163.7 357.988 159.932 359.583L157.414 375.91C157.342 376.664 157.01 377.369 156.474 377.905C155.939 378.441 155.233 378.773 154.479 378.845H129.286C128.532 378.773 127.826 378.441 127.291 377.905C126.755 377.369 126.423 376.664 126.351 375.91L123.833 359.583C120.134 357.845 116.629 355.723 113.376 353.25L97.929 359.536C97.2586 359.852 96.4923 359.896 95.79 359.66C95.0877 359.424 94.5037 358.926 94.16 358.27L81.5864 336.49C81.3816 336.192 81.2402 335.854 81.1712 335.499C81.1022 335.144 81.1069 334.778 81.1851 334.424C81.2634 334.071 81.4134 333.738 81.6259 333.444C81.8384 333.151 82.1089 332.905 82.4205 332.721L95.4112 322.248L94.9941 315.962L95.4112 310.092L82.3588 299.665C81.7078 299.209 81.2579 298.519 81.1025 297.739C80.9472 296.96 81.0984 296.15 81.5246 295.479L94.0982 274.101C94.4505 273.426 95.0203 272.889 95.7156 272.578C96.4108 272.267 97.1907 272.199 97.929 272.387L113.376 279.09C116.495 276.43 120.034 274.306 123.848 272.804L126.366 256.044" stroke="#1624BE" stroke-width="0.879848" stroke-miterlimit="10"/>
<path d="M426.756 107.709C428.525 107.631 430.288 107.943 431.922 108.624C433.556 109.305 435.02 110.337 436.21 111.648C437.524 112.841 438.559 114.31 439.24 115.949C439.921 117.589 440.231 119.359 440.149 121.132C440.18 122.91 439.846 124.676 439.169 126.321C438.491 127.965 437.484 129.453 436.21 130.694C435.014 131.873 433.591 132.796 432.027 133.407C430.462 134.018 428.79 134.304 427.112 134.246C423.476 134.358 419.933 133.088 417.195 130.694C414.844 128.095 413.574 124.697 413.642 121.194C413.557 119.45 413.828 117.707 414.439 116.071C415.049 114.435 415.987 112.94 417.195 111.679C418.425 110.406 419.902 109.398 421.536 108.715C423.169 108.033 424.924 107.69 426.695 107.709H426.756ZM426.695 106.937C424.834 106.907 422.987 107.259 421.268 107.971C419.549 108.683 417.993 109.739 416.698 111.075C415.403 112.411 414.395 113.998 413.736 115.738C413.078 117.479 412.783 119.335 412.87 121.194C412.805 124.928 414.176 128.544 416.701 131.296C419.586 133.837 423.33 135.184 427.173 135.065C428.952 135.127 430.725 134.825 432.382 134.177C434.04 133.529 435.547 132.548 436.812 131.296C438.162 129.996 439.232 128.433 439.954 126.703C440.677 124.974 441.037 123.115 441.014 121.24C440.989 117.467 439.479 113.854 436.811 111.186C434.142 108.517 430.53 107.007 426.756 106.983L426.695 106.937Z" fill="#1624BE"/>
<path d="M435.144 81.7433C435.455 81.7038 435.769 81.7887 436.018 81.9797C436.267 82.1706 436.43 82.452 436.472 82.7628L438.156 93.2356V93.5909L438.465 93.7762L444.752 97.5452L445.076 97.746L445.416 97.607L455.425 93.8535C455.615 93.8338 455.807 93.8338 455.997 93.8535C456.206 93.8443 456.413 93.891 456.598 93.9888C456.782 94.0865 456.937 94.2318 457.047 94.4095L465.033 108.126C465.419 108.883 465.466 109.408 465.203 109.671L456.46 116.344L456.12 116.591V117.023L456.537 121.132L456.136 124.824V125.256L456.491 125.519L465.234 132.192C465.497 132.486 465.45 133.026 465.079 133.737L457.109 147.639C456.754 148.334 456.429 148.334 456.306 148.334C456.068 148.314 455.836 148.246 455.626 148.133H455.549L445.478 144.349L445.138 144.21L444.813 144.41L438.527 148.179L438.218 148.365V148.72L436.565 159.533C436.431 159.819 436.228 160.067 435.975 160.256C435.721 160.444 435.425 160.567 435.113 160.614H419.296C418.369 160.429 417.89 160.12 417.89 159.718V159.594L416.206 148.782V148.411L415.866 148.226L409.163 144.457L408.854 144.287L408.514 144.41L398.458 148.179C398.248 148.292 398.016 148.361 397.778 148.38C397.655 148.38 397.315 148.38 396.96 147.654L389.02 133.86C388.48 132.794 388.912 132.501 389.221 132.316L397.609 125.612L397.902 125.38V116.622L397.609 116.39L389.067 109.671C388.804 109.501 388.371 109.207 388.881 108.126L396.821 94.3323C396.928 94.1423 397.086 93.9856 397.277 93.8794C397.468 93.7731 397.684 93.7214 397.902 93.7299C398.087 93.7094 398.273 93.7094 398.458 93.7299L408.406 97.607L408.746 97.7306L409.055 97.5607L415.758 93.7917L416.098 93.6063V93.2356L417.782 82.7628V82.6392C417.782 82.2839 417.782 81.7433 419.11 81.7433H435.036H435.144ZM435.036 80.971H419.218C417.828 80.971 417.118 81.527 417.118 82.6392L415.449 93.112L408.746 96.881L398.69 93.112C398.432 93.0478 398.168 93.0116 397.902 93.0039C397.557 92.9991 397.217 93.0833 396.914 93.2483C396.61 93.4133 396.355 93.6537 396.172 93.9461L388.217 107.848C387.661 108.96 387.8 109.794 388.634 110.35L397.022 117.054V124.963L388.634 131.667C387.8 132.223 387.661 133.057 388.217 134.169L396.172 148.071C396.285 148.394 396.493 148.674 396.769 148.876C397.045 149.077 397.375 149.19 397.717 149.199C398.073 149.186 398.422 149.091 398.736 148.921L408.792 145.152L415.496 148.921L417.164 159.733C417.164 160.568 417.875 161.124 419.265 161.402H435.19C435.654 161.332 436.091 161.142 436.458 160.849C436.824 160.556 437.106 160.171 437.276 159.733L438.959 148.921L445.246 145.152L455.302 148.921C455.615 149.091 455.964 149.186 456.321 149.199C456.663 149.192 456.995 149.08 457.271 148.878C457.547 148.677 457.755 148.395 457.866 148.071L465.836 134.169C466.392 133.057 466.392 132.223 465.836 131.667L457.032 124.963L457.449 121.194L457.032 116.993L465.836 110.289C466.392 109.733 466.392 108.899 465.836 107.786L457.866 93.8844C457.686 93.5921 457.434 93.3515 457.133 93.1863C456.833 93.0211 456.494 92.937 456.151 92.9421C455.886 92.9498 455.621 92.9861 455.364 93.0502L445.308 96.8192L439.021 93.0502L437.337 82.5774C437.261 82.089 437.005 81.6468 436.619 81.338C436.233 81.0293 435.745 80.8762 435.252 80.9092L435.036 80.971Z" fill="#1624BE"/>
</g>
</svg>
