<svg width="652" height="415" viewBox="0 0 652 415" fill="none" xmlns="http://www.w3.org/2000/svg">
<g opacity="0.5">
<path d="M343.959 189.342L416.843 173.574L425.078 211.944L432.612 246.458L321.271 270.549L279.485 243.392L390.475 219.302L343.959 189.342Z" stroke="#1624BE" stroke-width="0.924279" stroke-miterlimit="10" stroke-linejoin="bevel"/>
<path d="M408.52 135.205L366.559 108.048L255.393 132.139L262.839 166.653L271.162 205.023L344.046 189.255L297.354 159.295L408.52 135.205Z" stroke="#1624BE" stroke-width="0.924279" stroke-miterlimit="10" stroke-linejoin="bevel"/>
<path d="M420.522 34.5513L471.419 274.14L390.212 291.485L413.252 331.256L341.506 301.91L232.092 325.387L181.109 85.8855L420.522 34.5513Z" stroke="#1624BE" stroke-width="0.924279" stroke-miterlimit="10" stroke-linejoin="bevel"/>
<path d="M420.522 34.5513L471.419 274.14L390.212 291.485L413.252 331.256L341.506 301.91L232.092 325.387L181.109 85.8855L420.522 34.5513Z" stroke="#1624BE" stroke-width="0.924279" stroke-miterlimit="10" stroke-linejoin="bevel"/>
<path d="M472.382 55.9263L523.454 295.34L442.248 312.86L465.112 352.456L393.541 323.285L284.128 346.587L233.144 106.998L472.382 55.9263Z" stroke="#1624BE" stroke-width="0.924279" stroke-miterlimit="10" stroke-linejoin="bevel"/>
<path d="M472.382 55.9263L523.454 295.34L442.248 312.86L465.112 352.456L393.541 323.285L284.128 346.587L233.144 106.998L472.382 55.9263Z" stroke="#1624BE" stroke-width="0.924279" stroke-miterlimit="10" stroke-linejoin="bevel"/>
<path d="M472.382 55.9259L523.454 295.34L471.418 274.14L420.522 34.5513L472.382 55.9259Z" stroke="#1624BE" stroke-width="0.924279" stroke-miterlimit="10" stroke-linejoin="bevel"/>
<path d="M472.382 55.9259L523.454 295.34L471.418 274.14L420.522 34.5513L472.382 55.9259Z" stroke="#1624BE" stroke-width="0.924279" stroke-miterlimit="10" stroke-linejoin="bevel"/>
<path d="M523.454 295.34L442.248 312.86L390.213 291.573L471.419 274.228L523.454 295.34Z" stroke="#1624BE" stroke-width="0.924279" stroke-miterlimit="10" stroke-linejoin="bevel"/>
<path d="M523.454 295.34L442.248 312.86L390.213 291.573L471.419 274.228L523.454 295.34Z" stroke="#1624BE" stroke-width="0.924279" stroke-miterlimit="10" stroke-linejoin="bevel"/>
<path d="M465.111 352.368L393.54 323.197L341.505 301.91L413.251 331.257L465.111 352.368Z" stroke="#1624BE" stroke-width="0.924279" stroke-miterlimit="10" stroke-linejoin="bevel"/>
<path d="M465.111 352.368L393.54 323.197L341.505 301.91L413.251 331.257L465.111 352.368Z" stroke="#1624BE" stroke-width="0.924279" stroke-miterlimit="10" stroke-linejoin="bevel"/>
<path d="M284.04 346.586L232.005 325.474L181.109 85.8853L233.144 106.997L284.04 346.586Z" stroke="#1624BE" stroke-width="0.924279" stroke-miterlimit="10" stroke-linejoin="bevel"/>
<path d="M284.04 346.586L232.005 325.474L181.109 85.8853L233.144 106.997L284.04 346.586Z" stroke="#1624BE" stroke-width="0.924279" stroke-miterlimit="10" stroke-linejoin="bevel"/>
<path d="M432.436 3.71533H498.662C503.042 3.71533 506.546 7.21938 506.546 11.5994V71.0806C506.546 75.4606 510.05 78.9647 514.43 78.9647H542.638" stroke="#1624BE" stroke-width="0.924279" stroke-miterlimit="10"/>
<path d="M432.435 1H427.266V6.16847H432.435V1Z" stroke="#1624BE" stroke-width="0.924279" stroke-miterlimit="10"/>
<path d="M547.807 76.2495H542.639V81.418H547.807V76.2495Z" stroke="#1624BE" stroke-width="0.924279" stroke-miterlimit="10"/>
<path d="M347.813 382.328H193.022C188.642 382.328 185.138 378.824 185.138 374.444V314.963C185.138 310.583 181.634 307.079 177.254 307.079H149.221" stroke="#1624BE" stroke-width="0.924279" stroke-miterlimit="10"/>
<path d="M347.901 384.955H353.069V379.787H347.901V384.955Z" stroke="#1624BE" stroke-width="0.924279" stroke-miterlimit="10"/>
<path d="M143.966 309.619H149.134V304.45H143.966V309.619Z" stroke="#1624BE" stroke-width="0.924279" stroke-miterlimit="10"/>
<path d="M548.594 140.286H531.862C527.482 140.286 523.978 143.79 523.978 148.17V207.651C523.978 212.031 520.474 215.535 516.094 215.535H426.04" stroke="#1624BE" stroke-width="0.924279" stroke-miterlimit="10"/>
<path d="M613.331 140.286H553.762" stroke="#1624BE" stroke-width="0.924279" stroke-miterlimit="10"/>
<path d="M618.589 137.57H613.333V142.739H618.501V137.57H618.589Z" stroke="#1624BE" stroke-width="0.924279" stroke-miterlimit="10"/>
<path d="M602.032 186.013H596.863V191.182H602.032V186.013Z" stroke="#1624BE" stroke-width="0.924279" stroke-miterlimit="10"/>
<path d="M553.763 137.57H548.594V142.739H553.763V137.57Z" stroke="#1624BE" stroke-width="0.924279" stroke-miterlimit="10"/>
<path d="M551.222 142.827V180.846C551.222 185.226 554.726 188.73 559.106 188.73H596.775" stroke="#1624BE" stroke-width="0.924279" stroke-miterlimit="10"/>
<path d="M241.202 234.106H174.976C170.596 234.106 167.091 230.602 167.091 226.222V166.741C167.091 162.361 163.587 158.857 159.207 158.857H6.16821" stroke="#1624BE" stroke-width="0.924279" stroke-miterlimit="10"/>
<path d="M246.371 236.647V231.479H241.202V236.647H246.371Z" stroke="#1624BE" stroke-width="0.924279" stroke-miterlimit="10"/>
<path d="M6.16847 161.485V156.317H1V161.485H6.16847Z" stroke="#1624BE" stroke-width="0.924279" stroke-miterlimit="10"/>
<path d="M42.1719 142.038V136.782H37.0034V141.95H42.1719V142.038Z" stroke="#1624BE" stroke-width="0.924279" stroke-miterlimit="10"/>
<path d="M106.647 158.857V147.206C106.647 142.826 103.143 139.322 98.763 139.322H42.2603" stroke="#1624BE" stroke-width="0.924279" stroke-miterlimit="10"/>
<path d="M110.589 199.241V194.073H105.42V199.241H110.589Z" stroke="#1624BE" stroke-width="0.924279" stroke-miterlimit="10"/>
<path d="M167.179 196.525H110.589" stroke="#1624BE" stroke-width="0.924279" stroke-miterlimit="10"/>
<path d="M571.109 324.599H504.883C500.502 324.599 496.998 328.103 496.998 332.483V391.789C496.998 396.169 493.494 399.673 489.114 399.673H460.907" stroke="#1624BE" stroke-width="0.924279" stroke-miterlimit="10"/>
<path d="M571.198 327.226H576.366V322.058H571.198V327.226Z" stroke="#1624BE" stroke-width="0.924279" stroke-miterlimit="10"/>
<path d="M455.651 402.388H460.82V397.22H455.651V402.388Z" stroke="#1624BE" stroke-width="0.924279" stroke-miterlimit="10"/>
<path d="M645.831 302.348H650.999V297.18H645.831V302.348Z" stroke="#1624BE" stroke-width="0.924279" stroke-miterlimit="10"/>
<path d="M497.172 350.353H640.488C644.868 350.353 648.372 346.849 648.372 342.469V302.26" stroke="#1624BE" stroke-width="0.924279" stroke-miterlimit="10"/>
<path d="M308.48 409.31H303.311V414.478H308.48V409.31Z" stroke="#1624BE" stroke-width="0.924279" stroke-miterlimit="10"/>
<path d="M234.106 382.328V404.053C234.106 408.433 237.61 411.937 241.99 411.937H303.486" stroke="#1624BE" stroke-width="0.924279" stroke-miterlimit="10"/>
</g>
</svg>
