<svg width="230" height="153" viewBox="0 0 230 153" fill="none" xmlns="http://www.w3.org/2000/svg">
<path fill-rule="evenodd" clip-rule="evenodd" d="M111.374 116.887H90.0006V116.087H111.374V116.887Z" fill="#2C48FF"/>
<path fill-rule="evenodd" clip-rule="evenodd" d="M90.4006 151.598V116.487H89.6006V152.398H111.774V116.487H110.974V151.598H90.4006Z" fill="#2C48FF"/>
<path fill-rule="evenodd" clip-rule="evenodd" d="M118.939 76.3286H141.112V152.399H118.939V76.3286ZM119.739 77.1286V151.599H140.312V77.1286H119.739Z" fill="#2C48FF"/>
<path fill-rule="evenodd" clip-rule="evenodd" d="M148.277 89.6704H170.45V152.399H148.277V89.6704ZM149.077 90.4704V151.599H169.65V90.4704H149.077Z" fill="#2C48FF"/>
<path fill-rule="evenodd" clip-rule="evenodd" d="M177.615 102.481H199.789V152.4H177.615V102.481ZM178.415 103.281V151.6H198.989V103.281H178.415Z" fill="#2C48FF"/>
<path fill-rule="evenodd" clip-rule="evenodd" d="M206.953 118.876H229.126V152.4H206.953V118.876ZM207.753 119.676V151.6H228.326V119.676H207.753Z" fill="#2C48FF"/>
<path fill-rule="evenodd" clip-rule="evenodd" d="M140.314 45.9318H112.436V45.1318H140.314C142.393 45.1318 144.033 46.7712 144.033 48.8506V64.9136C144.033 66.5512 145.314 67.8324 146.951 67.8324H171.179V68.6324H146.951C144.872 68.6324 143.233 66.9931 143.233 64.9136V48.8506C143.233 47.213 141.951 45.9318 140.314 45.9318Z" fill="#2C48FF"/>
<path fill-rule="evenodd" clip-rule="evenodd" d="M109.845 44.0693H112.836V47.0597H109.845V44.0693ZM110.645 44.8693V46.2597H112.036V44.8693H110.645Z" fill="#2C48FF"/>
<path fill-rule="evenodd" clip-rule="evenodd" d="M170.845 66.7725H173.835V69.7629H170.845V66.7725ZM171.645 67.5725V68.9629H173.035V67.5725H171.645Z" fill="#2C48FF"/>
<path fill-rule="evenodd" clip-rule="evenodd" d="M112.436 12.9385H176.821C178.9 12.9385 180.539 14.5778 180.539 16.6573V41.681C180.539 43.3186 181.821 44.5998 183.458 44.5998H211.336V45.3998H183.458C181.379 45.3998 179.739 43.7605 179.739 41.681V16.6573C179.739 15.0197 178.458 13.7385 176.821 13.7385H112.436V12.9385Z" fill="#2C48FF"/>
<path fill-rule="evenodd" clip-rule="evenodd" d="M213.979 43.4736V46.464H210.988V43.4736H213.979ZM213.179 44.2736H211.788V45.664H213.179V44.2736Z" fill="#2C48FF"/>
<path fill-rule="evenodd" clip-rule="evenodd" d="M112.841 11.8281V14.8185H109.85V11.8281H112.841ZM112.041 12.6281H110.65V14.0185H112.041V12.6281Z" fill="#2C48FF"/>
<path fill-rule="evenodd" clip-rule="evenodd" d="M127.983 3.64746V6.63787H124.993V3.64746L127.983 3.64746ZM127.183 4.44746H125.793V5.83787H127.183V4.44746Z" fill="#2C48FF"/>
<path fill-rule="evenodd" clip-rule="evenodd" d="M127.636 4.70996H151.398C153.478 4.70996 155.117 6.34932 155.117 8.42876V13.3406H154.317V8.42876C154.317 6.79115 153.036 5.50996 151.398 5.50996H127.636V4.70996Z" fill="#2C48FF"/>
<path fill-rule="evenodd" clip-rule="evenodd" d="M30.3293 8.22969C27.4969 8.22969 25.22 10.5065 25.22 13.3389C25.22 16.1713 27.4969 18.4481 30.3293 18.4481C33.1585 18.4481 35.4385 16.108 35.4385 13.3389C35.4385 10.5065 33.1616 8.22969 30.3293 8.22969ZM24.42 13.3389C24.42 10.0647 27.055 7.42969 30.3293 7.42969C33.6035 7.42969 36.2385 10.0647 36.2385 13.3389C36.2385 16.5436 33.6066 19.2481 30.3293 19.2481C27.055 19.2481 24.42 16.6131 24.42 13.3389Z" fill="#2C48FF"/>
<path fill-rule="evenodd" clip-rule="evenodd" d="M42.4088 9.425C41.7669 9.425 41.2822 9.90967 41.2822 10.5516V16.1936C41.2822 16.8356 41.7669 17.3203 42.4088 17.3203H109.847C110.489 17.3203 110.973 16.8356 110.973 16.1936V14.4678H111.773V16.1936C111.773 17.2774 110.931 18.1203 109.847 18.1203H42.4088C41.325 18.1203 40.4822 17.2774 40.4822 16.1936V10.5516C40.4822 9.46785 41.325 8.625 42.4088 8.625H109.847C110.931 8.625 111.773 9.46784 111.773 10.5516V12.3438H110.973V10.5516C110.973 9.90967 110.489 9.425 109.847 9.425H42.4088Z" fill="#2C48FF"/>
<path fill-rule="evenodd" clip-rule="evenodd" d="M42.4088 25.4221C41.7669 25.4221 41.2822 25.9067 41.2822 26.5487V32.2571C41.2822 32.899 41.7669 33.3837 42.4088 33.3837H109.847C110.467 33.3837 110.973 32.8552 110.973 32.1907V26.5487C110.973 25.9067 110.489 25.4221 109.847 25.4221H42.4088ZM40.4822 26.5487C40.4822 25.4649 41.325 24.6221 42.4088 24.6221H109.847C110.931 24.6221 111.773 25.4649 111.773 26.5487V32.1907C111.773 33.252 110.952 34.1837 109.847 34.1837H42.4088C41.325 34.1837 40.4822 33.3409 40.4822 32.2571V26.5487Z" fill="#2C48FF"/>
<path fill-rule="evenodd" clip-rule="evenodd" d="M42.4088 41.552C41.7669 41.552 41.2822 42.0366 41.2822 42.6786V48.3206C41.2822 48.9625 41.7669 49.4472 42.4088 49.4472H109.847C110.489 49.4472 110.973 48.9625 110.973 48.3206V46.5948H111.773V48.3206C111.773 49.4044 110.931 50.2472 109.847 50.2472H42.4088C41.325 50.2472 40.4822 49.4044 40.4822 48.3206V42.6786C40.4822 41.5948 41.325 40.752 42.4088 40.752H109.847C110.931 40.752 111.773 41.5948 111.773 42.6786V44.4708H110.973V42.6786C110.973 42.0366 110.489 41.552 109.847 41.552H42.4088Z" fill="#2C48FF"/>
<path fill-rule="evenodd" clip-rule="evenodd" d="M42.4088 57.6813C41.7669 57.6813 41.2822 58.166 41.2822 58.808V64.45C41.2822 65.0919 41.7669 65.5766 42.4088 65.5766H109.847C110.489 65.5766 110.973 65.0919 110.973 64.45V58.808C110.973 58.166 110.489 57.6813 109.847 57.6813H42.4088ZM40.4822 58.808C40.4822 57.7242 41.325 56.8813 42.4088 56.8813H109.847C110.931 56.8813 111.773 57.7242 111.773 58.808V64.45C111.773 65.5338 110.931 66.3766 109.847 66.3766H42.4088C41.325 66.3766 40.4822 65.5338 40.4822 64.45V58.808Z" fill="#2C48FF"/>
<path fill-rule="evenodd" clip-rule="evenodd" d="M30.3288 24.2932C27.4964 24.2932 25.2196 26.57 25.2196 29.4024C25.2196 32.2348 27.4964 34.5116 30.3288 34.5116C33.1611 34.5116 35.438 32.2348 35.438 29.4024C35.438 26.57 33.1611 24.2932 30.3288 24.2932ZM24.4196 29.4024C24.4196 26.1282 27.0546 23.4932 30.3288 23.4932C33.603 23.4932 36.238 26.1282 36.238 29.4024C36.238 32.6766 33.603 35.3116 30.3288 35.3116C27.0546 35.3116 24.4196 32.6766 24.4196 29.4024Z" fill="#2C48FF"/>
<path fill-rule="evenodd" clip-rule="evenodd" d="M30.3288 40.424C27.4964 40.424 25.2196 42.7008 25.2196 45.5332C25.2196 48.3656 27.4964 50.6424 30.3288 50.6424C33.1611 50.6424 35.438 48.3656 35.438 45.5332C35.438 42.7008 33.1611 40.424 30.3288 40.424ZM24.4196 45.5332C24.4196 42.259 27.0546 39.624 30.3288 39.624C33.603 39.624 36.238 42.259 36.238 45.5332C36.238 48.8074 33.603 51.4424 30.3288 51.4424C27.0546 51.4424 24.4196 48.8074 24.4196 45.5332Z" fill="#2C48FF"/>
<path fill-rule="evenodd" clip-rule="evenodd" d="M30.3288 56.5534C27.4964 56.5534 25.2196 58.8302 25.2196 61.6626C25.2196 64.495 27.4964 66.7718 30.3288 66.7718C33.158 66.7718 35.438 64.4318 35.438 61.6626C35.438 58.8302 33.1611 56.5534 30.3288 56.5534ZM24.4196 61.6626C24.4196 58.3884 27.0546 55.7534 30.3288 55.7534C33.603 55.7534 36.238 58.3884 36.238 61.6626C36.238 64.8673 33.6061 67.5718 30.3288 67.5718C27.0546 67.5718 24.4196 64.9368 24.4196 61.6626Z" fill="#2C48FF"/>
<path fill-rule="evenodd" clip-rule="evenodd" d="M42.4088 73.8122C41.7669 73.8122 41.2822 74.2969 41.2822 74.9389V80.5808C41.2822 81.2228 41.7669 81.7075 42.4088 81.7075H109.847C110.478 81.7075 110.973 81.1678 110.973 80.5808V74.9389C110.973 74.2969 110.489 73.8122 109.847 73.8122H42.4088ZM40.4822 74.9389C40.4822 73.8551 41.325 73.0122 42.4088 73.0122H109.847C110.931 73.0122 111.773 73.8551 111.773 74.9389V80.5808C111.773 81.5869 110.942 82.5075 109.847 82.5075H42.4088C41.325 82.5075 40.4822 81.6646 40.4822 80.5808V74.9389Z" fill="#2C48FF"/>
<path fill-rule="evenodd" clip-rule="evenodd" d="M30.3288 72.6159C27.4964 72.6159 25.2196 74.8927 25.2196 77.7251C25.2196 80.5575 27.4964 82.8343 30.3288 82.8343C33.1611 82.8343 35.438 80.5575 35.438 77.7251C35.438 74.8927 33.1611 72.6159 30.3288 72.6159ZM24.4196 77.7251C24.4196 74.4509 27.0546 71.8159 30.3288 71.8159C33.603 71.8159 36.238 74.4509 36.238 77.7251C36.238 80.9993 33.603 83.6343 30.3288 83.6343C27.0546 83.6343 24.4196 80.9993 24.4196 77.7251Z" fill="#2C48FF"/>
<path fill-rule="evenodd" clip-rule="evenodd" d="M59.8658 95.7829C49.5993 95.7829 41.2823 104.1 41.2823 114.366C41.2823 124.633 49.5993 132.95 59.8658 132.95C70.1323 132.95 78.4494 124.633 78.4494 114.366C78.4494 104.1 70.1323 95.7829 59.8658 95.7829ZM40.4823 114.366C40.4823 103.658 49.1575 94.9829 59.8658 94.9829C70.5742 94.9829 79.2494 103.658 79.2494 114.366C79.2494 125.075 70.5742 133.75 59.8658 133.75C49.1575 133.75 40.4823 125.075 40.4823 114.366Z" fill="#2C48FF"/>
<path fill-rule="evenodd" clip-rule="evenodd" d="M68.4463 109.073L57.0106 120.508L51.2849 114.713L51.854 114.151L57.014 119.373L67.8806 108.507L68.4463 109.073Z" fill="#2C48FF"/>
<path fill-rule="evenodd" clip-rule="evenodd" d="M195.87 61.4646C189.321 61.4646 183.991 66.7947 183.991 73.3441C183.991 79.8936 189.321 85.2237 195.87 85.2237C202.421 85.2237 207.75 79.9585 207.75 73.3441C207.75 66.7947 202.42 61.4646 195.87 61.4646ZM183.191 73.3441C183.191 66.3528 188.879 60.6646 195.87 60.6646C202.862 60.6646 208.55 66.3528 208.55 73.3441C208.55 80.4032 202.86 86.0237 195.87 86.0237C188.879 86.0237 183.191 80.3354 183.191 73.3441Z" fill="#2C48FF"/>
<path fill-rule="evenodd" clip-rule="evenodd" d="M201.529 70.0422L194.009 77.5627L190.208 73.6903L190.779 73.1299L194.014 76.426L200.964 69.4766L201.529 70.0422Z" fill="#2C48FF"/>
<path fill-rule="evenodd" clip-rule="evenodd" d="M217.64 107.528V56.0864H218.44V107.528H217.64Z" fill="#2C48FF"/>
<path fill-rule="evenodd" clip-rule="evenodd" d="M228.411 97.7887L218.039 108.092L207.734 97.7878L208.3 97.2221L218.04 106.963L227.847 97.2212L228.411 97.7887Z" fill="#2C48FF"/>
<path fill-rule="evenodd" clip-rule="evenodd" d="M161.486 51.4414V0H162.286V51.4414H161.486Z" fill="#2C48FF"/>
<path fill-rule="evenodd" clip-rule="evenodd" d="M172.257 41.7023L161.885 52.0061L151.58 41.7014L152.146 41.1357L161.887 50.8766L171.693 41.1348L172.257 41.7023Z" fill="#2C48FF"/>
<path fill-rule="evenodd" clip-rule="evenodd" d="M100.286 110.516V90.0723H101.086V110.516H100.286Z" fill="#2C48FF"/>
<path fill-rule="evenodd" clip-rule="evenodd" d="M96.4215 106.816L96.9872 106.25L100.687 109.95L104.387 106.25L104.952 106.816L100.687 111.081L96.4215 106.816Z" fill="#2C48FF"/>
<path fill-rule="evenodd" clip-rule="evenodd" d="M27.0092 95.4528H13.6676V94.6528H27.0092C29.0886 94.6528 30.728 96.2922 30.728 98.3716V142.91C30.728 144.548 32.0092 145.829 33.6468 145.829H45.5281V146.629H33.6468C31.5673 146.629 29.928 144.989 29.928 142.91V98.3716C29.928 96.734 28.6468 95.4528 27.0092 95.4528Z" fill="#2C48FF"/>
<path fill-rule="evenodd" clip-rule="evenodd" d="M11.0773 93.522H14.0677V96.5124H11.0773V93.522ZM11.8773 94.322V95.7124H13.2677V94.322H11.8773Z" fill="#2C48FF"/>
<path fill-rule="evenodd" clip-rule="evenodd" d="M45.1281 144.7H48.1185V147.69H45.1281V144.7ZM45.9281 145.5V146.89H47.3185V145.5H45.9281Z" fill="#2C48FF"/>
<path fill-rule="evenodd" clip-rule="evenodd" d="M3.59033 122.812L3.59033 125.802H0.599922L0.599922 122.812H3.59033ZM2.79033 123.612H1.39992L1.39992 125.002H2.79033L2.79033 123.612Z" fill="#2C48FF"/>
<path fill-rule="evenodd" clip-rule="evenodd" d="M3.18042 123.923H27.0094C29.0888 123.923 30.7282 125.563 30.7282 127.642V132.554H29.9282V127.642C29.9282 126.005 28.647 124.723 27.0094 124.723H3.18042V123.923Z" fill="#2C48FF"/>
</svg>
