<svg width="211" height="171" viewBox="0 0 211 171" fill="none" xmlns="http://www.w3.org/2000/svg">
<path fill-rule="evenodd" clip-rule="evenodd" d="M197.854 126.352L194.921 126.352L194.921 129.285L197.854 129.285L197.854 126.352ZM197.054 127.152L197.054 128.485L195.721 128.485L195.721 127.152L197.054 127.152Z" fill="#2C48FF"/>
<path fill-rule="evenodd" clip-rule="evenodd" d="M137.585 138.401L164.74 138.401L164.74 137.601L137.585 137.601C135.554 137.601 133.952 139.202 133.952 141.233L133.952 165.608C133.952 167.197 132.709 168.441 131.119 168.441L119.546 168.441L119.546 169.241L131.119 169.241C133.151 169.241 134.752 167.639 134.752 165.608L134.752 141.233C134.752 139.644 135.995 138.401 137.585 138.401Z" fill="#2C48FF"/>
<path fill-rule="evenodd" clip-rule="evenodd" d="M167.273 136.565L164.34 136.565L164.34 139.499L167.273 139.499L167.273 136.565ZM166.473 137.365L166.473 138.699L165.14 138.699L165.14 137.365L166.473 137.365Z" fill="#2C48FF"/>
<path fill-rule="evenodd" clip-rule="evenodd" d="M120.011 167.406L117.077 167.406L117.077 170.34L120.011 170.34L120.011 167.406ZM119.211 168.206L119.211 169.54L117.877 169.54L117.877 168.206L119.211 168.206Z" fill="#2C48FF"/>
<path fill-rule="evenodd" clip-rule="evenodd" d="M196.02 128.887L196.02 145.374C196.02 146.963 194.777 148.206 193.188 148.206L134.417 148.206L134.417 149.006L193.188 149.006C195.219 149.006 196.82 147.405 196.82 145.374L196.82 128.887L196.02 128.887Z" fill="#2C48FF"/>
<path fill-rule="evenodd" clip-rule="evenodd" d="M184.083 20.4482L85.3963 20.4482L85.3963 119.135L130.414 119.135L148.25 131.3L143.535 119.135L184.083 119.135L184.083 20.4482ZM183.283 21.2482L183.283 118.335L142.367 118.335L146.574 129.188L130.661 118.335L86.1963 118.335L86.1963 21.2482L183.283 21.2482Z" fill="#2C48FF"/>
<path fill-rule="evenodd" clip-rule="evenodd" d="M24.6451 54.093L79.654 54.093L79.654 53.293L23.8451 53.293L23.8451 151.98L64.3934 151.98L59.6765 164.148L77.4503 151.98L122.467 151.98L122.467 124.102L121.667 124.102L121.667 151.18L77.2027 151.18L61.3561 162.029L65.5615 151.18L24.6451 151.18L24.6451 54.093Z" fill="#2C48FF"/>
<path fill-rule="evenodd" clip-rule="evenodd" d="M7.6224e-05 39.3527L44.4177 39.3527L44.4177 38.5527L7.62939e-05 38.5527L7.6224e-05 39.3527Z" fill="#2C48FF"/>
<path fill-rule="evenodd" clip-rule="evenodd" d="M9.96911 76.6462L9.96912 29.3838L9.16912 29.3838L9.16911 76.6462L9.96911 76.6462Z" fill="#2C48FF"/>
<path fill-rule="evenodd" clip-rule="evenodd" d="M35.2495 70.2561L79.7844 70.2561L79.7844 69.4561L34.4495 69.4561L34.4495 103.282L35.2495 103.282L35.2495 70.2561Z" fill="#2C48FF"/>
<path fill-rule="evenodd" clip-rule="evenodd" d="M34.8491 83.1213L79.7839 83.1213L79.7839 82.3213L34.8491 82.3213L34.8491 83.1213Z" fill="#2C48FF"/>
<path fill-rule="evenodd" clip-rule="evenodd" d="M34.8491 95.9875L79.7839 95.9875L79.7839 95.1875L34.8491 95.1875L34.8491 95.9875Z" fill="#2C48FF"/>
<path fill-rule="evenodd" clip-rule="evenodd" d="M48.6968 98.3025L48.6968 69.8545L47.8968 69.8545L47.8968 98.3025L48.6968 98.3025Z" fill="#2C48FF"/>
<path fill-rule="evenodd" clip-rule="evenodd" d="M62.2745 98.3025L62.2745 69.8545L61.4745 69.8545L61.4745 98.3025L62.2745 98.3025Z" fill="#2C48FF"/>
<path fill-rule="evenodd" clip-rule="evenodd" d="M75.7871 98.3025L75.7871 69.8545L74.9871 69.8545L74.9871 98.3025L75.7871 98.3025Z" fill="#2C48FF"/>
<path fill-rule="evenodd" clip-rule="evenodd" d="M101.883 141.354L101.883 124.232L102.683 124.232L102.683 142.154L44.4168 142.154L44.4168 141.354L101.883 141.354Z" fill="#2C48FF"/>
<path fill-rule="evenodd" clip-rule="evenodd" d="M102.283 128.486L50.6237 128.486L50.6237 129.286L102.283 129.286L102.283 128.486Z" fill="#2C48FF"/>
<path fill-rule="evenodd" clip-rule="evenodd" d="M79.7828 115.621L50.6237 115.621L50.6237 116.421L79.7828 116.421L79.7828 115.621Z" fill="#2C48FF"/>
<path fill-rule="evenodd" clip-rule="evenodd" d="M88.4349 124.232L88.4349 141.754L89.2349 141.754L89.2349 124.232L88.4349 124.232Z" fill="#2C48FF"/>
<path fill-rule="evenodd" clip-rule="evenodd" d="M74.8572 113.305L74.8572 141.753L75.6572 141.753L75.6572 113.305L74.8572 113.305Z" fill="#2C48FF"/>
<path fill-rule="evenodd" clip-rule="evenodd" d="M61.344 113.305L61.344 141.753L62.144 141.753L62.144 113.305L61.344 113.305Z" fill="#2C48FF"/>
<path fill-rule="evenodd" clip-rule="evenodd" d="M155.506 36.2881L111.323 36.2881L111.323 48.5319L155.506 48.5319L155.506 36.2881ZM154.706 37.0881L154.706 47.7319L112.123 47.7319L112.123 37.0881L154.706 37.0881Z" fill="#2C48FF"/>
<path fill-rule="evenodd" clip-rule="evenodd" d="M174.32 74.1094L149.792 74.1094L149.792 81.1809L174.32 81.1809L174.32 74.1094ZM173.52 74.9094L173.52 80.3809L150.592 80.3809L150.592 74.9094L173.52 74.9094Z" fill="#2C48FF"/>
<path fill-rule="evenodd" clip-rule="evenodd" d="M138.566 70.9424L95.159 70.9424L95.159 82.2811L138.566 82.2811L138.566 70.9424ZM137.766 71.7424L137.766 81.4811L95.959 81.4811L95.959 71.7424L137.766 71.7424Z" fill="#2C48FF"/>
<path fill-rule="evenodd" clip-rule="evenodd" d="M174.32 92.9238L163.693 92.9238L163.693 101.741L174.32 101.741L174.32 92.9238ZM173.52 93.7238L173.52 100.941L164.493 100.941L164.493 93.7238L173.52 93.7238Z" fill="#2C48FF"/>
<path fill-rule="evenodd" clip-rule="evenodd" d="M160.42 92.9238L149.792 92.9238L149.792 101.741L160.42 101.741L160.42 92.9238ZM159.62 93.7238L159.62 100.941L150.592 100.941L150.592 93.7238L159.62 93.7238Z" fill="#2C48FF"/>
<path fill-rule="evenodd" clip-rule="evenodd" d="M138.566 92.9238L120.374 92.9238L120.374 101.741L138.566 101.741L138.566 92.9238ZM137.766 93.7238L137.766 100.941L121.174 100.941L121.174 93.7238L137.766 93.7238Z" fill="#2C48FF"/>
<path fill-rule="evenodd" clip-rule="evenodd" d="M113.416 92.9238L95.2237 92.9238L95.2237 101.741L113.416 101.741L113.416 92.9238ZM112.616 93.7238L112.616 100.941L96.0237 100.941L96.0237 93.7238L112.616 93.7238Z" fill="#2C48FF"/>
<path fill-rule="evenodd" clip-rule="evenodd" d="M133.847 63.5712L133.847 48.1309L133.047 48.1309L133.047 64.3712L168.607 64.3712L168.607 74.5099L169.407 74.5099L169.407 63.5712L133.847 63.5712Z" fill="#2C48FF"/>
<path fill-rule="evenodd" clip-rule="evenodd" d="M115.162 58.7463L133.447 58.7463L133.447 57.9463L114.362 57.9463L114.362 71.3418L115.162 71.3418L115.162 58.7463Z" fill="#2C48FF"/>
<path fill-rule="evenodd" clip-rule="evenodd" d="M129.903 93.3257L129.903 81.8818L129.103 81.8818L129.103 93.3257L129.903 93.3257Z" fill="#2C48FF"/>
<path fill-rule="evenodd" clip-rule="evenodd" d="M162.425 88.7357L162.425 80.7832L161.625 80.7832L161.625 88.7357L162.425 88.7357Z" fill="#2C48FF"/>
<path fill-rule="evenodd" clip-rule="evenodd" d="M104.687 93.3257L104.687 81.8818L103.887 81.8818L103.887 93.3257L104.687 93.3257Z" fill="#2C48FF"/>
<path fill-rule="evenodd" clip-rule="evenodd" d="M169.407 88.3359L154.707 88.3359L154.707 93.3264L155.507 93.3264L155.507 89.1359L168.607 89.1359L168.607 93.3264L169.407 93.3264L169.407 88.3359Z" fill="#2C48FF"/>
<path fill-rule="evenodd" clip-rule="evenodd" d="M81.2059 13.6193L108.361 13.6193L108.361 12.8193L81.2059 12.8193C79.1747 12.8193 77.5732 14.4208 77.5732 16.4521L77.5732 40.8268C77.5732 42.4162 76.3299 43.6595 74.7405 43.6595L63.1673 43.6595L63.1673 44.4595L74.7405 44.4595C76.7717 44.4595 78.3732 42.858 78.3732 40.8268L78.3732 16.4521C78.3732 14.8626 79.6165 13.6193 81.2059 13.6193Z" fill="#2C48FF"/>
<path fill-rule="evenodd" clip-rule="evenodd" d="M110.895 11.7832L107.961 11.7832L107.961 14.7168L110.895 14.7168L110.895 11.7832ZM110.095 12.5832L110.095 13.9168L108.761 13.9168L108.761 12.5832L110.095 12.5832Z" fill="#2C48FF"/>
<path fill-rule="evenodd" clip-rule="evenodd" d="M63.5674 42.627L60.6338 42.627L60.6338 45.5606L63.5674 45.5606L63.5674 42.627ZM62.7674 43.427L62.7674 44.7606L61.4338 44.7606L61.4338 43.427L62.7674 43.427Z" fill="#2C48FF"/>
<path fill-rule="evenodd" clip-rule="evenodd" d="M85.7963 104.629L48.8786 104.629C46.8473 104.629 45.2458 106.23 45.2458 108.262L45.2458 132.636C45.2458 134.226 44.0025 135.469 42.4131 135.469L35.5597 135.469L35.5597 136.269L42.4131 136.269C44.4443 136.269 46.0458 134.668 46.0458 132.636L46.0458 108.262C46.0458 106.672 47.2891 105.429 48.8786 105.429L85.7963 105.429L85.7963 104.629Z" fill="#2C48FF"/>
<path fill-rule="evenodd" clip-rule="evenodd" d="M33.4263 135.471L8.98686 135.471L8.98686 136.271L33.4263 136.271L33.4263 135.471Z" fill="#2C48FF"/>
<path fill-rule="evenodd" clip-rule="evenodd" d="M9.38635 134.437L6.45276 134.437L6.45276 137.37L9.38635 137.37L9.38635 134.437ZM8.58635 135.237L8.58635 136.57L7.25276 136.57L7.25276 135.237L8.58635 135.237Z" fill="#2C48FF"/>
<path fill-rule="evenodd" clip-rule="evenodd" d="M16.1752 114.588L13.2416 114.588L13.2416 117.521L16.1752 117.521L16.1752 114.588ZM15.3752 115.388L15.3752 116.721L14.0416 116.721L14.0416 115.388L15.3752 115.388Z" fill="#2C48FF"/>
<path fill-rule="evenodd" clip-rule="evenodd" d="M35.9592 134.437L33.0256 134.437L33.0256 137.37L35.9592 137.37L35.9592 134.437ZM35.1592 135.237L35.1592 136.57L33.8256 136.57L33.8256 135.237L35.1592 135.237Z" fill="#2C48FF"/>
<path fill-rule="evenodd" clip-rule="evenodd" d="M31.2277 116.42C32.8172 116.42 34.0605 117.663 34.0605 119.253L34.0605 134.835L34.8605 134.835L34.8605 119.253C34.8605 117.222 33.259 115.62 31.2277 115.62L15.7753 115.62L15.7753 116.42L31.2277 116.42Z" fill="#2C48FF"/>
<path fill-rule="evenodd" clip-rule="evenodd" d="M170.764 30.2857L170.764 3.13086L169.964 3.13086L169.964 30.2857C169.964 32.317 171.566 33.9185 173.597 33.9185L197.972 33.9185C199.561 33.9185 200.805 35.1618 200.805 36.7512L200.805 99.4661L201.605 99.4661L201.605 36.7512C201.605 34.72 200.003 33.1185 197.972 33.1185L173.597 33.1185C172.008 33.1185 170.764 31.8752 170.764 30.2857Z" fill="#2C48FF"/>
<path fill-rule="evenodd" clip-rule="evenodd" d="M171.863 0.599609L168.929 0.599609L168.929 3.53321L171.863 3.53321L171.863 0.599609ZM171.063 1.39961L171.063 2.73321L169.729 2.73321L169.729 1.39961L171.063 1.39961Z" fill="#2C48FF"/>
<path fill-rule="evenodd" clip-rule="evenodd" d="M202.639 99.0674L199.705 99.0674L199.705 102.001L202.639 102.001L202.639 99.0674ZM201.839 99.8674L201.839 101.201L200.505 101.201L200.505 99.8674L201.839 99.8674Z" fill="#2C48FF"/>
<path fill-rule="evenodd" clip-rule="evenodd" d="M210.721 84.3271L207.787 84.3271L207.787 87.2607L210.721 87.2607L210.721 84.3271ZM209.921 85.1271L209.921 86.4607L208.587 86.4607L208.587 85.1271L209.921 85.1271Z" fill="#2C48FF"/>
<path fill-rule="evenodd" clip-rule="evenodd" d="M209.622 61.5819C209.622 59.5507 208.021 57.9492 205.989 57.9492L201.205 57.9492L201.205 58.7492L205.989 58.7492C207.579 58.7492 208.822 59.9925 208.822 61.5819L208.822 84.7283L209.622 84.7283L209.622 61.5819Z" fill="#2C48FF"/>
</svg>
