<svg width="277" height="170" viewBox="0 0 277 170" fill="none" xmlns="http://www.w3.org/2000/svg">
<path d="M174.083 0.664551L201.046 127.372L158.082 136.57L170.229 157.557L132.31 142.088L74.4359 154.479L47.4736 27.7723L174.083 0.664551Z" stroke="#2C48FF" stroke-width="0.8" stroke-linejoin="bevel"/>
<path d="M174.083 0.664551L201.046 127.372L158.082 136.57L170.229 157.557L132.31 142.088L74.4359 154.479L47.4736 27.7723L174.083 0.664551Z" stroke="#2C48FF" stroke-width="0.8" stroke-linejoin="bevel"/>
<path d="M201.582 11.8906L228.545 138.598L185.581 147.796L197.728 168.783L159.809 153.314L101.935 165.704L74.9727 38.9984L201.582 11.8906Z" stroke="#2C48FF" stroke-width="0.8" stroke-linejoin="bevel"/>
<path d="M201.582 11.8906L228.545 138.598L185.581 147.796L197.728 168.783L159.809 153.314L101.935 165.704L74.9727 38.9984L201.582 11.8906Z" stroke="#2C48FF" stroke-width="0.8" stroke-linejoin="bevel"/>
<path d="M201.582 11.8905L228.545 138.597L201.046 127.372L174.083 0.664551L201.582 11.8905Z" stroke="#2C48FF" stroke-width="0.8" stroke-linejoin="bevel"/>
<path d="M201.582 11.8905L228.545 138.597L201.046 127.372L174.083 0.664551L201.582 11.8905Z" stroke="#2C48FF" stroke-width="0.8" stroke-linejoin="bevel"/>
<path d="M228.544 138.598L185.581 147.796L158.082 136.57L201.046 127.372L228.544 138.598Z" stroke="#2C48FF" stroke-width="0.8" stroke-linejoin="bevel"/>
<path d="M228.544 138.598L185.581 147.796L158.082 136.57L201.046 127.372L228.544 138.598Z" stroke="#2C48FF" stroke-width="0.8" stroke-linejoin="bevel"/>
<path d="M197.728 168.783L159.809 153.314L132.311 142.088L170.229 157.557L197.728 168.783Z" stroke="#2C48FF" stroke-width="0.8" stroke-linejoin="bevel"/>
<path d="M197.728 168.783L159.809 153.314L132.311 142.088L170.229 157.557L197.728 168.783Z" stroke="#2C48FF" stroke-width="0.8" stroke-linejoin="bevel"/>
<path d="M101.935 165.704L74.4359 154.479L47.4736 27.7725L74.9724 38.9984L101.935 165.704Z" stroke="#2C48FF" stroke-width="0.8" stroke-linejoin="bevel"/>
<path d="M101.935 165.704L74.4359 154.479L47.4736 27.7725L74.9724 38.9984L101.935 165.704Z" stroke="#2C48FF" stroke-width="0.8" stroke-linejoin="bevel"/>
<path d="M27.1977 146.661H32.8322L43.1853 154.301L42.8843 146.661H48.1494C62.6702 146.661 74.4416 134.89 74.4416 120.369V120.369C74.4416 105.848 62.6702 94.0767 48.1494 94.0767H27.1977C12.6769 94.0767 0.905518 105.848 0.905518 120.369V120.369C0.905518 134.89 12.6769 146.661 27.1977 146.661Z" stroke="#2C48FF" stroke-width="0.8" stroke-miterlimit="10"/>
<path d="M20.8073 117.483H23.1067C24.7002 117.483 25.9921 118.775 25.9921 120.369C25.9921 121.962 24.7002 123.254 23.1067 123.254H20.8073C19.2137 123.254 17.9219 121.962 17.9219 120.369C17.9219 118.775 19.2137 117.483 20.8073 117.483Z" stroke="#2C48FF" stroke-width="0.8" stroke-miterlimit="10"/>
<path d="M36.5236 117.483H38.823C40.4166 117.483 41.7084 118.775 41.7084 120.369C41.7084 121.962 40.4166 123.254 38.823 123.254H36.5236C34.9301 123.254 33.6382 121.962 33.6382 120.369C33.6381 118.775 34.93 117.483 36.5236 117.483Z" stroke="#2C48FF" stroke-width="0.8" stroke-miterlimit="10"/>
<path d="M52.2399 117.483H54.5393C56.1329 117.483 57.4247 118.775 57.4247 120.369C57.4247 121.962 56.1329 123.254 54.5393 123.254H52.2399C50.6464 123.254 49.3545 121.962 49.3545 120.369C49.3545 118.775 50.6464 117.483 52.2399 117.483Z" stroke="#2C48FF" stroke-width="0.8" stroke-miterlimit="10"/>
<path d="M249.708 78.753H244.073L233.72 86.3926L234.021 78.753H228.756C214.235 78.753 202.464 66.9816 202.464 52.4608V52.4607C202.464 37.9399 214.235 26.1685 228.756 26.1685H249.708C264.229 26.1685 276 37.9399 276 52.4607V52.4608C276 66.9815 264.229 78.753 249.708 78.753Z" stroke="#2C48FF" stroke-width="0.8" stroke-miterlimit="10"/>
<path d="M248.863 43.2051H219.48" stroke="#2C48FF" stroke-width="0.8" stroke-miterlimit="10"/>
<path d="M264.819 49.8214L219.48 49.8213" stroke="#2C48FF" stroke-width="0.8" stroke-miterlimit="10"/>
<path d="M258.008 56.4365H219.48" stroke="#2C48FF" stroke-width="0.8" stroke-miterlimit="10"/>
<path d="M248.863 63.0532H219.48" stroke="#2C48FF" stroke-width="0.8" stroke-miterlimit="10"/>
<path d="M124.271 66.4556L144.694 61.7767C158.848 58.534 172.951 67.3793 176.193 81.5334V81.5335C179.436 95.6876 170.591 109.79 156.437 113.033L136.014 117.712C121.86 120.955 107.757 112.11 104.514 97.9554V97.9553C101.272 83.8013 110.117 69.6984 124.271 66.4556Z" stroke="#2C48FF" stroke-width="0.8" stroke-miterlimit="10"/>
<path d="M134.152 109.584C124.482 111.778 114.865 105.718 112.671 96.0481C110.483 86.4071 116.501 76.8117 126.133 74.5838L146.556 69.9049C156.226 67.7112 165.843 73.7718 168.037 83.4415C170.224 93.0821 164.206 102.677 154.575 104.905L134.152 109.584Z" stroke="#2C48FF" stroke-width="0.8" stroke-miterlimit="10"/>
<path d="M109.76 108.829C103.423 110.281 97.1099 106.321 95.6582 99.9847C94.2065 93.6484 98.1664 87.335 104.503 85.8833" stroke="#2C48FF" stroke-width="0.8" stroke-miterlimit="10"/>
<path d="M176.124 93.6245C182.461 92.1728 186.42 85.8594 184.969 79.5231C183.517 73.1868 177.204 69.2271 170.867 70.6788" stroke="#2C48FF" stroke-width="0.8" stroke-miterlimit="10"/>
<path d="M127.839 95.196C129.964 95.196 131.687 93.4729 131.687 91.3475C131.687 89.222 129.964 87.499 127.839 87.499C125.713 87.499 123.99 89.222 123.99 91.3475C123.99 93.4729 125.713 95.196 127.839 95.196Z" stroke="#2C48FF" stroke-width="0.8" stroke-miterlimit="10"/>
<path d="M152.318 89.5876C154.444 89.5876 156.167 87.8646 156.167 85.7391C156.167 83.6136 154.444 81.8906 152.318 81.8906C150.193 81.8906 148.47 83.6136 148.47 85.7391C148.47 87.8646 150.193 89.5876 152.318 89.5876Z" stroke="#2C48FF" stroke-width="0.8" stroke-miterlimit="10"/>
<path d="M130.976 64.9192C131.271 62.8133 133.217 61.3453 135.323 61.6402C136.409 61.7924 137.379 62.4006 137.989 63.3124" stroke="#2C48FF" stroke-width="0.8" stroke-miterlimit="10"/>
<path d="M131.385 56.8271C134.826 56.8271 137.616 54.0373 137.616 50.5959C137.616 47.1545 134.826 44.3647 131.385 44.3647C127.943 44.3647 125.154 47.1545 125.154 50.5959C125.154 54.0373 127.943 56.8271 131.385 56.8271Z" stroke="#2C48FF" stroke-width="0.8" stroke-miterlimit="10"/>
<path d="M133.929 61.7006L132.776 56.6694" stroke="#2C48FF" stroke-width="0.8" stroke-miterlimit="10"/>
<path d="M138.262 96.9554L145.296 95.3438C145.669 95.2583 146.041 95.4915 146.126 95.8647C146.212 96.238 145.979 96.6098 145.605 96.6953L138.571 98.3068C138.198 98.3923 137.826 98.1591 137.741 97.7859C137.655 97.4127 137.889 97.0409 138.262 96.9554Z" stroke="#2C48FF" stroke-width="0.8" stroke-miterlimit="10"/>
</svg>
