<svg width="229" height="157" viewBox="0 0 229 157" fill="none" xmlns="http://www.w3.org/2000/svg">
<path fill-rule="evenodd" clip-rule="evenodd" d="M71.2933 104.077C71.2933 101.976 72.9494 100.32 75.0502 100.32L103.248 100.32L103.248 101.12L75.0502 101.12C73.3912 101.12 72.0933 102.418 72.0933 104.077L72.0933 129.388C72.0933 131.489 70.4372 133.145 68.3364 133.145L3.21228 133.145L3.21228 132.345L68.3364 132.345C69.9953 132.345 71.2933 131.047 71.2933 129.388L71.2933 104.077Z" fill="#2C48FF"/>
<path fill-rule="evenodd" clip-rule="evenodd" d="M104.407 102.27C103.574 102.27 102.899 101.594 102.899 100.762C102.899 99.929 103.574 99.254 104.407 99.254C105.24 99.254 105.915 99.929 105.915 100.762C105.915 101.594 105.24 102.27 104.407 102.27ZM103.699 100.762C103.699 101.153 104.016 101.47 104.407 101.47C104.798 101.47 105.115 101.153 105.115 100.762C105.115 100.371 104.798 100.054 104.407 100.054C104.016 100.054 103.699 100.371 103.699 100.762Z" fill="#2C48FF"/>
<path fill-rule="evenodd" clip-rule="evenodd" d="M104.366 131.047C103.533 131.047 102.858 130.372 102.858 129.539C102.858 128.706 103.533 128.031 104.366 128.031C105.198 128.031 105.873 128.706 105.873 129.539C105.873 130.372 105.198 131.047 104.366 131.047ZM103.658 129.539C103.658 129.93 103.975 130.247 104.366 130.247C104.757 130.247 105.073 129.93 105.073 129.539C105.073 129.148 104.757 128.831 104.366 128.831C103.975 128.831 103.658 129.148 103.658 129.539Z" fill="#2C48FF"/>
<path fill-rule="evenodd" clip-rule="evenodd" d="M137.008 130.992C136.175 130.992 135.5 130.317 135.5 129.484C135.5 128.652 136.175 127.977 137.008 127.977C137.84 127.977 138.515 128.652 138.515 129.484C138.515 130.317 137.84 130.992 137.008 130.992ZM136.3 129.484C136.3 129.875 136.617 130.192 137.008 130.192C137.399 130.192 137.715 129.875 137.715 129.484C137.715 129.094 137.399 128.777 137.008 128.777C136.617 128.777 136.3 129.094 136.3 129.484Z" fill="#2C48FF"/>
<path fill-rule="evenodd" clip-rule="evenodd" d="M62.9901 27.4561C62.1574 27.4561 61.4823 26.781 61.4823 25.9483C61.4823 25.1156 62.1574 24.4405 62.9901 24.4405C63.8228 24.4405 64.4979 25.1156 64.4979 25.9483C64.4979 26.781 63.8228 27.4561 62.9901 27.4561ZM62.2823 25.9483C62.2823 26.3392 62.5992 26.6561 62.9901 26.6561C63.381 26.6561 63.6979 26.3392 63.6979 25.9483C63.6979 25.5574 63.381 25.2405 62.9901 25.2405C62.5992 25.2405 62.2823 25.5574 62.2823 25.9483Z" fill="#2C48FF"/>
<path fill-rule="evenodd" clip-rule="evenodd" d="M121.696 15.8857C120.863 15.8857 120.188 15.2107 120.188 14.378C120.188 13.5452 120.863 12.8702 121.696 12.8702C122.528 12.8702 123.203 13.5452 123.203 14.378C123.203 15.2107 122.528 15.8857 121.696 15.8857ZM120.988 14.378C120.988 14.7689 121.305 15.0857 121.696 15.0857C122.087 15.0857 122.403 14.7689 122.403 14.378C122.403 13.9871 122.087 13.6702 121.696 13.6702C121.305 13.6702 120.988 13.9871 120.988 14.378Z" fill="#2C48FF"/>
<path fill-rule="evenodd" clip-rule="evenodd" d="M180.409 3.61523C179.576 3.61523 178.901 2.94017 178.901 2.10745C178.901 1.27473 179.576 0.599661 180.409 0.599661C181.242 0.59966 181.917 1.27473 181.917 2.10745C181.917 2.94017 181.242 3.61523 180.409 3.61523ZM179.701 2.10745C179.701 2.49835 180.018 2.81523 180.409 2.81523C180.8 2.81523 181.117 2.49835 181.117 2.10745C181.117 1.71655 180.8 1.39966 180.409 1.39966C180.018 1.39966 179.701 1.71655 179.701 2.10745Z" fill="#2C48FF"/>
<path fill-rule="evenodd" clip-rule="evenodd" d="M169.65 131.005C168.818 131.005 168.143 130.33 168.143 129.497C168.143 128.664 168.818 127.989 169.65 127.989C170.483 127.989 171.158 128.664 171.158 129.497C171.158 130.33 170.483 131.005 169.65 131.005ZM168.943 129.497C168.943 129.888 169.26 130.205 169.65 130.205C170.041 130.205 170.358 129.888 170.358 129.497C170.358 129.106 170.041 128.789 169.65 128.789C169.26 128.789 168.943 129.106 168.943 129.497Z" fill="#2C48FF"/>
<path fill-rule="evenodd" clip-rule="evenodd" d="M2.10776 134.277C1.27503 134.277 0.599976 133.602 0.599975 132.77C0.599975 131.937 1.27503 131.262 2.10776 131.262C2.94048 131.262 3.61554 131.937 3.61554 132.77C3.61554 133.602 2.94048 134.277 2.10776 134.277ZM1.39998 132.77C1.39998 133.16 1.71686 133.477 2.10776 133.477C2.49865 133.477 2.81554 133.16 2.81554 132.77C2.81554 132.379 2.49865 132.062 2.10776 132.062C1.71686 132.062 1.39998 132.379 1.39998 132.77Z" fill="#2C48FF"/>
<path fill-rule="evenodd" clip-rule="evenodd" d="M17.4913 142.556C16.6586 142.556 15.9835 141.881 15.9835 141.048C15.9835 140.215 16.6586 139.54 17.4913 139.54C18.324 139.54 18.9991 140.215 18.9991 141.048C18.9991 141.881 18.324 142.556 17.4913 142.556ZM16.7835 141.048C16.7835 141.439 17.1004 141.756 17.4913 141.756C17.8822 141.756 18.1991 141.439 18.1991 141.048C18.1991 140.657 17.8822 140.34 17.4913 140.34C17.1004 140.34 16.7835 140.657 16.7835 141.048Z" fill="#2C48FF"/>
<path fill-rule="evenodd" clip-rule="evenodd" d="M45.5798 137.714L45.5798 132.746L46.3798 132.746L46.3798 137.714C46.3798 139.815 44.7237 141.471 42.6229 141.471L18.5874 141.471L18.5874 140.671L42.6229 140.671C44.2818 140.671 45.5798 139.373 45.5798 137.714Z" fill="#2C48FF"/>
<path fill-rule="evenodd" clip-rule="evenodd" d="M208.985 83.0469C208.152 83.0469 207.477 82.3718 207.477 81.5391C207.477 80.7064 208.152 80.0313 208.985 80.0313C209.817 80.0313 210.492 80.7064 210.492 81.5391C210.492 82.3718 209.817 83.0469 208.985 83.0469ZM208.277 81.5391C208.277 81.93 208.594 82.2469 208.985 82.2469C209.375 82.2469 209.692 81.93 209.692 81.5391C209.692 81.1482 209.375 80.8313 208.985 80.8313C208.594 80.8313 208.277 81.1482 208.277 81.5391Z" fill="#2C48FF"/>
<path fill-rule="evenodd" clip-rule="evenodd" d="M187.04 78.2311L187.04 61.5137L187.84 61.5137L187.84 78.2311C187.84 79.89 189.138 81.188 190.797 81.188L207.85 81.188L207.85 81.988L190.797 81.988C188.696 81.988 187.04 80.3319 187.04 78.2311Z" fill="#2C48FF"/>
<path fill-rule="evenodd" clip-rule="evenodd" d="M103.99 77.5596C103.99 75.4589 105.646 73.8027 107.747 73.8027L135.945 73.8027L135.945 74.6027L107.747 74.6027C106.088 74.6027 104.79 75.9007 104.79 77.5596L104.79 99.6481L103.99 99.6481L103.99 77.5596Z" fill="#2C48FF"/>
<path fill-rule="evenodd" clip-rule="evenodd" d="M137 75.6768C136.167 75.6768 135.492 75.0017 135.492 74.169C135.492 73.3363 136.167 72.6612 137 72.6612C137.832 72.6612 138.508 73.3363 138.508 74.169C138.508 75.0017 137.832 75.6768 137 75.6768ZM136.292 74.169C136.292 74.5599 136.609 74.8768 137 74.8768C137.391 74.8768 137.708 74.5599 137.708 74.169C137.708 73.7781 137.391 73.4612 137 73.4612C136.609 73.4612 136.292 73.7781 136.292 74.169Z" fill="#2C48FF"/>
<path fill-rule="evenodd" clip-rule="evenodd" d="M136.619 51.0382C136.619 48.9374 138.275 47.2812 140.376 47.2812L168.574 47.2812L168.574 48.0812L140.376 48.0812C138.717 48.0812 137.419 49.3792 137.419 51.0382L137.419 73.1266L136.619 73.1266L136.619 51.0382Z" fill="#2C48FF"/>
<path fill-rule="evenodd" clip-rule="evenodd" d="M169.659 49.1523C168.827 49.1523 168.151 48.4773 168.151 47.6446C168.151 46.8118 168.827 46.1368 169.659 46.1368C170.492 46.1368 171.167 46.8118 171.167 47.6446C171.167 48.4773 170.492 49.1523 169.659 49.1523ZM168.951 47.6446C168.951 48.0355 169.268 48.3523 169.659 48.3523C170.05 48.3523 170.367 48.0355 170.367 47.6446C170.367 47.2537 170.05 46.9368 169.659 46.9368C169.268 46.9368 168.951 47.2537 168.951 47.6446Z" fill="#2C48FF"/>
<path fill-rule="evenodd" clip-rule="evenodd" d="M169.249 24.4522C169.249 22.3514 170.905 20.6953 173.005 20.6953L201.204 20.6953L201.204 21.4953L173.005 21.4953C171.346 21.4953 170.049 22.7933 170.049 24.4522L170.049 46.5407L169.249 46.5407L169.249 24.4522Z" fill="#2C48FF"/>
<path fill-rule="evenodd" clip-rule="evenodd" d="M202.319 22.6309C201.487 22.6309 200.812 21.9558 200.812 21.1231C200.812 20.2904 201.487 19.6153 202.319 19.6153C203.152 19.6153 203.827 20.2904 203.827 21.1231C203.827 21.9558 203.152 22.6309 202.319 22.6309ZM201.612 21.1231C201.612 21.514 201.928 21.8309 202.319 21.8309C202.71 21.8309 203.027 21.514 203.027 21.1231C203.027 20.7322 202.71 20.4153 202.319 20.4153C201.928 20.4153 201.612 20.7322 201.612 21.1231Z" fill="#2C48FF"/>
<path fill-rule="evenodd" clip-rule="evenodd" d="M71.3604 125.496C71.3604 123.395 73.0165 121.739 75.1173 121.739L104.39 121.739L104.39 122.539L75.1173 122.539C73.4583 122.539 72.1604 123.837 72.1604 125.496L71.3604 125.496Z" fill="#2C48FF"/>
<path fill-rule="evenodd" clip-rule="evenodd" d="M103.99 117.909C103.99 115.808 105.646 114.152 107.747 114.152L137.019 114.152L137.019 114.952L107.747 114.952C106.088 114.952 104.79 116.25 104.79 117.909L103.99 117.909Z" fill="#2C48FF"/>
<path fill-rule="evenodd" clip-rule="evenodd" d="M136.619 91.3897C136.619 89.2889 138.275 87.6328 140.376 87.6328L169.648 87.6328L169.648 88.4328L140.376 88.4328C138.717 88.4328 137.419 89.7308 137.419 91.3897L137.419 113.478L136.619 113.478L136.619 91.3897Z" fill="#2C48FF"/>
<path fill-rule="evenodd" clip-rule="evenodd" d="M169.249 64.8702C169.249 62.7694 170.905 61.1133 173.005 61.1133L201.204 61.1133L201.204 61.9133L173.005 61.9133C171.346 61.9133 170.049 63.2112 170.049 64.8702L170.049 86.9587L169.249 86.9587L169.249 64.8702Z" fill="#2C48FF"/>
<path fill-rule="evenodd" clip-rule="evenodd" d="M202.311 62.9883C201.478 62.9883 200.803 62.3132 200.803 61.4805C200.803 60.6478 201.478 59.9727 202.311 59.9727C203.144 59.9727 203.819 60.6478 203.819 61.4805C203.819 62.3132 203.144 62.9883 202.311 62.9883ZM201.603 61.4805C201.603 61.8714 201.92 62.1883 202.311 62.1883C202.702 62.1883 203.019 61.8714 203.019 61.4805C203.019 61.0896 202.702 60.7727 202.311 60.7727C201.92 60.7727 201.603 61.0896 201.603 61.4805Z" fill="#2C48FF"/>
<path fill-rule="evenodd" clip-rule="evenodd" d="M218.567 11.2646C219.4 11.2646 220.075 11.9397 220.075 12.7724C220.075 13.6051 219.4 14.2802 218.567 14.2802C217.734 14.2802 217.059 13.6051 217.059 12.7724C217.059 11.9397 217.734 11.2646 218.567 11.2646ZM219.275 12.7724C219.275 12.3815 218.958 12.0646 218.567 12.0646C218.176 12.0646 217.859 12.3815 217.859 12.7724C217.859 13.1633 218.176 13.4802 218.567 13.4802C218.958 13.4802 219.275 13.1633 219.275 12.7724Z" fill="#2C48FF"/>
<path fill-rule="evenodd" clip-rule="evenodd" d="M193.415 13.173C191.756 13.173 190.458 14.471 190.458 16.13L190.458 21.0982L189.658 21.0982L189.658 16.13C189.658 14.0292 191.314 12.373 193.415 12.373L217.451 12.373L217.451 13.173L193.415 13.173Z" fill="#2C48FF"/>
<path fill-rule="evenodd" clip-rule="evenodd" d="M55.379 145.708L228.73 145.708L228.73 146.508L55.379 146.508L55.379 145.708Z" fill="#2C48FF"/>
<path fill-rule="evenodd" clip-rule="evenodd" d="M218.192 156.245L218.192 23.7812L218.992 23.7812L218.992 156.245L218.192 156.245Z" fill="#2C48FF"/>
<path fill-rule="evenodd" clip-rule="evenodd" d="M169.249 128.382L169.249 48.7559L170.049 48.7559L170.049 128.382L169.249 128.382Z" fill="#2C48FF"/>
<path fill-rule="evenodd" clip-rule="evenodd" d="M136.619 128.383L136.619 75.2764L137.419 75.2764L137.419 128.383L136.619 128.383Z" fill="#2C48FF"/>
<path fill-rule="evenodd" clip-rule="evenodd" d="M103.99 128.381L103.99 101.861L104.79 101.861L104.79 128.381L103.99 128.381Z" fill="#2C48FF"/>
<path fill-rule="evenodd" clip-rule="evenodd" d="M179.528 3.10695L1.88066 114.221L1.45643 113.542L179.104 2.4287L179.528 3.10695Z" fill="#2C48FF"/>
<path fill-rule="evenodd" clip-rule="evenodd" d="M146.888 1.69531L179.316 1.69531L179.316 2.49531L146.888 2.49531L146.888 1.69531Z" fill="#2C48FF"/>
<path fill-rule="evenodd" clip-rule="evenodd" d="M180.858 3.16992L180.858 16.1947L180.058 16.1947L180.058 3.16992L180.858 3.16992Z" fill="#2C48FF"/>
<path fill-rule="evenodd" clip-rule="evenodd" d="M120.783 15.3921L1.88074 89.7812L1.45643 89.103L120.358 14.7139L120.783 15.3921Z" fill="#2C48FF"/>
<path fill-rule="evenodd" clip-rule="evenodd" d="M88.1423 13.9834L120.57 13.9834L120.57 14.7834L88.1423 14.7834L88.1423 13.9834Z" fill="#2C48FF"/>
<path fill-rule="evenodd" clip-rule="evenodd" d="M122.044 15.5225L122.044 32.2399L121.244 32.2399L121.244 15.5225L122.044 15.5225Z" fill="#2C48FF"/>
<path fill-rule="evenodd" clip-rule="evenodd" d="M62.1036 26.939L1.88063 64.6036L1.45642 63.9253L61.6794 26.2607L62.1036 26.939Z" fill="#2C48FF"/>
<path fill-rule="evenodd" clip-rule="evenodd" d="M29.4639 25.4619L61.8916 25.4619L61.8916 26.2619L29.4639 26.2619L29.4639 25.4619Z" fill="#2C48FF"/>
<path fill-rule="evenodd" clip-rule="evenodd" d="M63.3652 27.0703L63.3652 44.0563L62.5652 44.0563L62.5652 27.0703L63.3652 27.0703Z" fill="#2C48FF"/>
</svg>
