<svg width="249" height="200" viewBox="0 0 249 200" fill="none" xmlns="http://www.w3.org/2000/svg">
<path d="M105.537 54.7588H121.463C122.51 54.7588 123.36 55.6081 123.36 56.6558C123.36 56.6558 123.36 56.6558 123.36 56.6559V70.9496C123.36 71.9973 124.209 72.8466 125.257 72.8466H132.051" stroke="#2C48FF" stroke-width="0.8" stroke-miterlimit="10"/>
<path d="M105.937 54.1348V53.7348H105.537H104.289H103.889V54.1348V55.3829V55.7829H104.289H105.537H105.937V55.3829V54.1348Z" stroke="#2C48FF" stroke-width="0.8" stroke-miterlimit="10"/>
<path d="M133.699 72.2227V71.8227H133.299H132.051H131.651V72.2227V73.4708V73.8708H132.051H133.299H133.699V73.4708V72.2227Z" stroke="#2C48FF" stroke-width="0.8" stroke-miterlimit="10"/>
<path d="M145.063 117.964H157.817C158.656 117.964 159.337 118.644 159.337 119.483V130.931C159.337 131.77 160.017 132.45 160.856 132.45H166.298" stroke="#2C48FF" stroke-width="0.8" stroke-miterlimit="10"/>
<path d="M145.463 117.464V117.064H145.063H144.063H143.663V117.464V118.464V118.864H144.063H145.063H145.463V118.464V117.464Z" stroke="#2C48FF" stroke-width="0.8" stroke-miterlimit="10"/>
<path d="M167.697 131.951V131.551H167.297H166.298H165.898V131.951V132.951V133.351H166.298H167.297H167.697V132.951V131.951Z" stroke="#2C48FF" stroke-width="0.8" stroke-miterlimit="10"/>
<path d="M92.3716 120.931H79.617C78.7779 120.931 78.0977 121.611 78.0977 122.45V133.898C78.0977 134.737 77.4175 135.417 76.5784 135.417H65.9343" stroke="#2C48FF" stroke-width="0.8" stroke-miterlimit="10"/>
<path d="M93.7712 120.431V120.031H93.3712H92.3716H91.9716V120.431V121.43V121.83H92.3716H93.3712H93.7712V121.43V120.431Z" stroke="#2C48FF" stroke-width="0.8" stroke-miterlimit="10"/>
<path d="M66.3342 134.917V134.517H65.9342H64.9346H64.5346V134.917V135.917V136.317H64.9346H65.9342H66.3342V135.917V134.917Z" stroke="#2C48FF" stroke-width="0.8" stroke-miterlimit="10"/>
<path d="M148.892 61.3462H144.409C143.244 61.3462 142.3 62.2904 142.3 63.4552V79.346C142.3 80.5108 141.356 81.455 140.191 81.455H116.088" stroke="#2C48FF" stroke-width="0.8" stroke-miterlimit="10"/>
<path d="M166.228 61.3462H150.28" stroke="#2C48FF" stroke-width="0.8" stroke-miterlimit="10"/>
<path d="M168.015 60.6528V60.2528H167.615H166.228H165.828V60.6528V62.0403V62.4403H166.228H167.615H168.015V62.0403V60.6528Z" stroke="#2C48FF" stroke-width="0.8" stroke-miterlimit="10"/>
<path d="M163.562 73.6108V73.2108H163.162H161.775H161.375V73.6108V74.9983V75.3983H161.775H163.162H163.562V74.9983V73.6108Z" stroke="#2C48FF" stroke-width="0.8" stroke-miterlimit="10"/>
<path d="M150.679 60.6528V60.2528H150.279H148.892H148.492V60.6528V62.0403V62.4403H148.892H150.279H150.679V62.0403V60.6528Z" stroke="#2C48FF" stroke-width="0.8" stroke-miterlimit="10"/>
<path d="M149.586 62.04V72.1955C149.586 73.3603 150.53 74.3045 151.695 74.3045H161.775" stroke="#2C48FF" stroke-width="0.8" stroke-miterlimit="10"/>
<path d="M137.983 96.9546H118.414C117.127 96.9546 116.083 95.911 116.083 94.6236V77.06C116.083 75.7726 115.039 74.729 113.752 74.729H68.5142" stroke="#2C48FF" stroke-width="0.8" stroke-miterlimit="10"/>
<path d="M139.916 96.188V95.788H139.516H137.983H137.583V96.188V97.7216V98.1216H137.983H139.516H139.916V97.7216V96.188Z" stroke="#2C48FF" stroke-width="0.8" stroke-miterlimit="10"/>
<path d="M68.9143 73.9619V73.5619H68.5143H66.9807H66.5807V73.9619V75.4955V75.8955H66.9807H68.5143H68.9143V75.4955V73.9619Z" stroke="#2C48FF" stroke-width="0.8" stroke-miterlimit="10"/>
<path d="M79.553 68.1782V67.7782H79.153H77.6194H77.2194V68.1782V69.7118V70.1118H77.6194H79.153H79.553V69.7118V68.1782Z" stroke="#2C48FF" stroke-width="0.8" stroke-miterlimit="10"/>
<path d="M98.1936 74.7289V71.2758C98.1936 69.9884 97.15 68.9448 95.8626 68.9448H79.1531" stroke="#2C48FF" stroke-width="0.8" stroke-miterlimit="10"/>
<path d="M99.3788 85.1001H97.8452V86.6337H99.3788V85.1001Z" stroke="#2C48FF" stroke-width="0.8" stroke-miterlimit="10"/>
<path d="M116.088 85.8667H99.3787" stroke="#2C48FF" stroke-width="0.8" stroke-miterlimit="10"/>
<path d="M133.212 104.887H118.596C117.635 104.887 116.855 105.667 116.855 106.628V119.746C116.855 120.708 116.076 121.487 115.114 121.487H108.879" stroke="#2C48FF" stroke-width="0.8" stroke-miterlimit="10"/>
<path d="M134.757 104.314V103.914H134.357H133.212H132.812V104.314V105.46V105.86H133.212H134.357H134.757V105.46V104.314Z" stroke="#2C48FF" stroke-width="0.8" stroke-miterlimit="10"/>
<path d="M109.279 120.915V120.515H108.879H107.733H107.333V120.915V122.06V122.46H107.733H108.879H109.279V122.06V120.915Z" stroke="#2C48FF" stroke-width="0.8" stroke-miterlimit="10"/>
<path d="M151.228 98.8193V98.4193H150.828H149.682H149.282V98.8193V99.9647V100.365H149.682H150.828H151.228V99.9647V98.8193Z" stroke="#2C48FF" stroke-width="0.8" stroke-miterlimit="10"/>
<path d="M116.855 110.58H148.514C149.476 110.58 150.255 109.801 150.255 108.839V99.9653" stroke="#2C48FF" stroke-width="0.8" stroke-miterlimit="10"/>
<path d="M109.337 103.814H74.7392C73.7648 103.814 72.9749 103.024 72.9749 102.05V88.7569C72.9749 87.7825 72.185 86.9927 71.2107 86.9927H64.8918" stroke="#2C48FF" stroke-width="0.8" stroke-miterlimit="10"/>
<path d="M110.898 103.234V102.834H110.498H109.337H108.937V103.234V104.395V104.795H109.337H110.498H110.898V104.395V103.234Z" stroke="#2C48FF" stroke-width="0.8" stroke-miterlimit="10"/>
<path d="M65.2917 86.4121V86.0121H64.8917H63.731H63.331V86.4121V87.5728V87.9728H63.731H64.8917H65.2917V87.5728V86.4121Z" stroke="#2C48FF" stroke-width="0.8" stroke-miterlimit="10"/>
<path d="M100.951 109.859V109.459H100.551H99.3901H98.9901V109.859V111.02V111.42H99.3901H100.551H100.951V111.02V109.859Z" stroke="#2C48FF" stroke-width="0.8" stroke-miterlimit="10"/>
<path d="M83.8713 103.814V108.675C83.8713 109.65 84.6612 110.44 85.6356 110.44H99.3903" stroke="#2C48FF" stroke-width="0.8" stroke-miterlimit="10"/>
<path d="M59.0276 165.353H29.6473C28.6729 165.353 27.8831 164.563 27.8831 163.589V147.251" stroke="#2C48FF" stroke-width="0.8" stroke-miterlimit="10"/>
<path d="M60.5883 164.773V164.373H60.1883H59.0276H58.6276V164.773V165.934V166.334H59.0276H60.1883H60.5883V165.934V164.773Z" stroke="#2C48FF" stroke-width="0.8" stroke-miterlimit="10"/>
<path d="M50.6413 171.398V170.998H50.2413H49.0806H48.6806V171.398V172.559V172.959H49.0806H50.2413H50.6413V172.559V171.398Z" stroke="#2C48FF" stroke-width="0.8" stroke-miterlimit="10"/>
<path d="M33.5615 165.353V170.214C33.5615 171.189 34.3514 171.979 35.3257 171.979H49.0804" stroke="#2C48FF" stroke-width="0.8" stroke-miterlimit="10"/>
<path d="M19.1862 168.827V168.427H18.7862H17.6255H17.2255V168.827V169.987V170.387H17.6255H18.7862H19.1862V169.987V168.827Z" stroke="#2C48FF" stroke-width="0.8" stroke-miterlimit="10"/>
<path d="M27.8828 153.308H19.97C18.9956 153.308 18.2058 154.098 18.2058 155.072V168.827" stroke="#2C48FF" stroke-width="0.8" stroke-miterlimit="10"/>
<path d="M67.2628 5.74902V44.6229C67.2628 47.0253 65.3153 48.9729 62.9129 48.9729H35.7207C28.9138 48.9729 23.3958 54.4909 23.3958 61.2978V142.86" stroke="#2C48FF" stroke-width="0.8" stroke-miterlimit="10"/>
<path d="M76.2372 5.74902V45.6224C76.2372 52.4293 70.7192 57.9473 63.9123 57.9473H36.7201C34.3177 57.9473 32.3701 59.8949 32.3701 62.2973V142.86" stroke="#2C48FF" stroke-width="0.8" stroke-miterlimit="10"/>
<path d="M76.2373 43.0659H67.2629" stroke="#2C48FF" stroke-width="0.8" stroke-miterlimit="10"/>
<path d="M32.3702 65.064H23.3958" stroke="#2C48FF" stroke-width="0.8" stroke-miterlimit="10"/>
<path d="M61.3774 48.9731V57.9475" stroke="#2C48FF" stroke-width="0.8" stroke-miterlimit="10"/>
<path d="M38.5754 48.9731V57.9475" stroke="#2C48FF" stroke-width="0.8" stroke-miterlimit="10"/>
<path d="M77.7852 1.5669V5.1821H65.7146V1.5669H77.7852ZM78.3521 1H65.1477V5.749H78.3522V1H78.3521Z" fill="#2C48FF" stroke="#2C48FF" stroke-width="0.2"/>
<path d="M33.9183 143.427V147.042H21.8477V143.427H33.9183ZM34.4853 142.86H21.2808V147.609H34.4853V142.86Z" fill="#2C48FF" stroke="#2C48FF" stroke-width="0.2"/>
<path d="M202.508 35.7227V74.5966C202.508 76.999 200.56 78.9466 198.158 78.9466H170.966C164.159 78.9466 158.641 84.4646 158.641 91.2715V100.026" stroke="#2C48FF" stroke-width="0.8" stroke-miterlimit="10"/>
<path d="M211.482 35.7227V75.5961C211.482 82.403 205.964 87.9209 199.157 87.9209H171.965C169.563 87.9209 167.615 89.8686 167.615 92.271V100.026" stroke="#2C48FF" stroke-width="0.8" stroke-miterlimit="10"/>
<path d="M211.482 73.0396H202.508" stroke="#2C48FF" stroke-width="0.8" stroke-miterlimit="10"/>
<path d="M167.615 95.0376H158.641" stroke="#2C48FF" stroke-width="0.8" stroke-miterlimit="10"/>
<path d="M196.623 78.9468V87.9212" stroke="#2C48FF" stroke-width="0.8" stroke-miterlimit="10"/>
<path d="M173.821 78.9463V87.9208" stroke="#2C48FF" stroke-width="0.8" stroke-miterlimit="10"/>
<path d="M213.031 31.5405V35.1557H200.96V31.5405H213.031ZM213.598 30.9736H200.393V35.7226H213.598L213.598 30.9736Z" fill="#2C48FF" stroke="#2C48FF" stroke-width="0.2"/>
<path d="M169.163 100.592V104.207H157.093V100.592H169.163ZM169.73 100.025H156.526V104.774H169.73L169.73 100.025Z" fill="#2C48FF" stroke="#2C48FF" stroke-width="0.2"/>
<path d="M187.467 174.155H159.34C156.938 174.155 154.99 172.207 154.99 169.805V142.613C154.99 135.806 149.472 130.288 142.665 130.288H93.1353" stroke="#2C48FF" stroke-width="0.8" stroke-miterlimit="10"/>
<path d="M187.467 183.13H158.341C151.534 183.13 146.016 177.612 146.016 170.805V143.613C146.016 141.211 144.068 139.263 141.666 139.263H93.1353" stroke="#2C48FF" stroke-width="0.8" stroke-miterlimit="10"/>
<path d="M160.897 183.13V174.156" stroke="#2C48FF" stroke-width="0.8" stroke-miterlimit="10"/>
<path d="M138.899 139.263V130.288" stroke="#2C48FF" stroke-width="0.8" stroke-miterlimit="10"/>
<path d="M154.99 168.271H146.016" stroke="#2C48FF" stroke-width="0.8" stroke-miterlimit="10"/>
<path d="M154.99 145.469H146.016" stroke="#2C48FF" stroke-width="0.8" stroke-miterlimit="10"/>
<path d="M191.42 172.608V184.679H187.805V172.608H191.42ZM191.987 172.041H187.238V185.246H191.987V172.041Z" fill="#2C48FF" stroke="#2C48FF" stroke-width="0.2"/>
<path d="M92.5682 128.741V140.811H88.953V128.741H92.5682ZM93.1352 128.174H88.386V141.378H93.1351L93.1352 128.174Z" fill="#2C48FF" stroke="#2C48FF" stroke-width="0.2"/>
<path d="M177.755 150.189H45.562V23.7261H100.551L110.949 33.0581H177.755V150.189Z" stroke="#2C48FF" stroke-width="0.8" stroke-miterlimit="10"/>
<path d="M187.238 159.673H55.0459V33.21H94.5049L104.903 42.541H187.238V159.673Z" stroke="#2C48FF" stroke-width="0.8" stroke-miterlimit="10"/>
<path d="M70.237 172.482V192.612H1V126.376H17.445" stroke="#2C48FF" stroke-width="0.8" stroke-miterlimit="10"/>
<path d="M76.1511 172.48V186.228H6.91406V119.993H17.4461" stroke="#2C48FF" stroke-width="0.8" stroke-miterlimit="10"/>
<path d="M198.11 103.657H226.764" stroke="#2C48FF" stroke-width="0.8" stroke-miterlimit="10"/>
<path d="M198.509 103.076V102.676H198.109H196.949H196.549V103.076V104.237V104.637H196.949H198.109H198.509V104.237V103.076Z" stroke="#2C48FF" stroke-width="0.8" stroke-miterlimit="10"/>
<path d="M208.236 96.4507V96.0507H207.836H206.676H206.276V96.4507V97.6114V98.0114H206.676H207.836H208.236V97.6114V96.4507Z" stroke="#2C48FF" stroke-width="0.8" stroke-miterlimit="10"/>
<path d="M221.367 103.656V98.7951C221.367 97.8207 220.577 97.0309 219.603 97.0308H207.836" stroke="#2C48FF" stroke-width="0.8" stroke-miterlimit="10"/>
<path d="M226.764 83.9165L226.764 113.297C226.764 114.271 225.974 115.061 225 115.061L200.334 115.061" stroke="#2C48FF" stroke-width="0.8" stroke-miterlimit="10"/>
<path d="M227.745 82.7559V82.3559H227.345H226.184H225.784V82.7559V83.9166V84.3166H226.184H227.345H227.745V83.9166V82.7559Z" stroke="#2C48FF" stroke-width="0.8" stroke-miterlimit="10"/>
<path d="M200.735 114.48V114.08H200.335H199.174H198.774V114.48V115.641V116.041H199.174H200.335H200.735V115.641V114.48Z" stroke="#2C48FF" stroke-width="0.8" stroke-miterlimit="10"/>
<path d="M234.37 92.7026V92.3026H233.97H232.809H232.409V92.7026V93.8633V94.2633H232.809H233.97H234.37V93.8633V92.7026Z" stroke="#2C48FF" stroke-width="0.8" stroke-miterlimit="10"/>
<path d="M226.764 109.382H231.626C232.6 109.382 233.39 108.592 233.39 107.618V93.8633" stroke="#2C48FF" stroke-width="0.8" stroke-miterlimit="10"/>
<path d="M231.799 124.158V123.758H231.399H230.238H229.838V124.158V125.318V125.718H230.238H231.399H231.799V125.318V124.158Z" stroke="#2C48FF" stroke-width="0.8" stroke-miterlimit="10"/>
<path d="M214.719 115.061V122.974C214.719 123.948 215.509 124.738 216.483 124.738H230.238" stroke="#2C48FF" stroke-width="0.8" stroke-miterlimit="10"/>
<path d="M218.125 72.4902H248.285V141.726H194.347" stroke="#2C48FF" stroke-width="0.8" stroke-miterlimit="10"/>
<path d="M218.123 66.5762H241.901V135.812H194.347" stroke="#2C48FF" stroke-width="0.8" stroke-miterlimit="10"/>
<path d="M194.347 159.494H218.695V199.093L179.097 199.092V189.648" stroke="#2C48FF" stroke-width="0.8" stroke-miterlimit="10"/>
<path d="M194.914 25.0881V15.5371H225.053V45.6761H216.741" stroke="#2C48FF" stroke-width="0.8" stroke-miterlimit="10"/>
<path d="M29.7151 41.4368H19.4971V9.19482H51.7401V18.0868" stroke="#2C48FF" stroke-width="0.8" stroke-miterlimit="10"/>
</svg>
