<svg width="225" height="187" viewBox="0 0 225 187" fill="none" xmlns="http://www.w3.org/2000/svg">
<path d="M71.4991 162.267C37.4456 167.871 10.687 162.525 3.10182 145.956C-4.73767 128.831 9.8803 104.037 38.1596 81.3042" stroke="#2C48FF" stroke-width="0.8" stroke-miterlimit="10"/>
<path d="M191.821 105.275C176.565 118.941 156.214 132.194 132.608 143.001C114.788 151.278 96.0556 157.426 76.7974 161.318" stroke="#2C48FF" stroke-width="0.8" stroke-miterlimit="10"/>
<path d="M169.042 28.6115C194.319 27.3313 213.282 33.3789 219.472 46.9017C226.02 61.2052 216.9 80.8597 197.238 100.195" stroke="#2C48FF" stroke-width="0.8" stroke-miterlimit="10"/>
<path d="M43.469 77.1811C57.9558 66.4504 73.5425 57.2906 89.9664 49.8562C116.107 37.8893 141.909 30.9047 163.651 28.9873" stroke="#2C48FF" stroke-width="0.8" stroke-miterlimit="10"/>
<path d="M197.259 105.446C218.431 126.272 228.782 145.254 222.436 155.709C211.726 173.356 157.505 160.023 101.329 125.929C78.0134 111.779 58.0258 96.2761 43.3857 81.7197" stroke="#2C48FF" stroke-width="0.8" stroke-miterlimit="10"/>
<path d="M38.1628 76.3233C21.1077 57.9712 13.2944 41.6537 19.0051 32.2442C29.7152 14.5974 83.937 27.9304 140.113 62.0243C160.315 74.2853 178.019 87.5615 191.911 100.358" stroke="#2C48FF" stroke-width="0.8" stroke-miterlimit="10"/>
<path d="M73.3972 159.029C67.7225 139.437 68.2388 111.424 76.203 81.9482C89.9265 31.1573 120.568 -4.74365 144.643 1.76128C154.203 4.34447 161.29 13.2264 165.501 26.1778" stroke="#2C48FF" stroke-width="0.8" stroke-miterlimit="10"/>
<path d="M167.011 31.4873C171.793 50.8782 170.943 77.5328 163.385 105.505C149.661 156.296 119.02 192.197 94.9453 185.692C86.1587 183.318 79.4612 175.623 75.1655 164.338" stroke="#2C48FF" stroke-width="0.8" stroke-miterlimit="10"/>
<path d="M184.615 156.884C185.128 154.235 184.595 151.49 183.128 149.225C181.7 146.95 179.394 145.367 176.758 144.851C174.205 144.201 171.495 144.69 169.329 146.19C164.691 149.255 163.329 155.45 166.252 160.178C167.589 162.449 169.843 164.029 172.434 164.511C175.043 165.148 177.8 164.679 180.052 163.213C182.334 161.773 183.969 159.505 184.615 156.884Z" stroke="#2C48FF" stroke-width="0.8" stroke-linecap="round" stroke-linejoin="round"/>
<path d="M173.169 126.028L176.565 133.116L179.253 133.509L182.047 134.322L188.103 129.312C188.643 128.911 189.402 128.992 189.846 129.498L198.47 137.141C198.983 137.696 199.045 138.531 198.621 139.157L194.248 145.527C195.095 147.217 195.699 149.018 196.043 150.877L203.166 153.632C203.85 153.856 204.282 154.531 204.198 155.247L201.704 166.589C201.48 167.273 200.804 167.705 200.089 167.621L192.468 167.133C191.324 168.634 190.026 170.009 188.593 171.236L189.89 178.853C190.047 179.546 189.633 180.24 188.948 180.43L177.871 183.939C177.249 184.193 176.538 183.894 176.284 183.271C176.273 183.243 176.263 183.215 176.253 183.187L172.816 176.287L169.939 175.853L167.334 175.082L161.32 179.902C160.759 180.423 159.887 180.406 159.346 179.864L150.953 172.073C150.417 171.609 150.26 170.843 150.571 170.205L155.134 163.876C154.245 162.204 153.638 160.397 153.338 158.527L146.026 155.73" stroke="#2C48FF" stroke-width="0.8" stroke-linecap="round" stroke-linejoin="round"/>
<path d="M64.1209 25.7957C63.2671 27.6893 63.1797 29.8399 63.877 31.7966C64.5441 33.7538 65.9907 35.3481 67.874 36.2019C69.6715 37.141 71.7878 37.2554 73.676 36.5154C75.6332 35.8483 77.2275 34.4017 78.0812 32.5184C79.0212 30.6768 79.1582 28.5284 78.4594 26.5822C77.8605 24.6446 76.4516 23.0614 74.5966 22.2416C72.7548 21.3016 70.6065 21.1647 68.6603 21.8634C66.6959 22.5382 65.069 23.9475 64.1209 25.7957Z" stroke="#2C48FF" stroke-width="0.8" stroke-linecap="round" stroke-linejoin="round"/>
<path d="M67.2269 50.9378L65.9394 45.0267L63.9956 44.2558L62.0466 43.1521L56.6225 45.8312C56.1464 46.0362 55.5927 45.8414 55.3499 45.3836L50.2443 38.1301C49.9583 37.6235 50.0593 36.9867 50.488 36.5935L54.8929 32.5964C54.5577 31.1805 54.4239 29.7244 54.4956 28.2711L49.6486 24.9448C49.1754 24.6559 48.9716 24.0735 49.1612 23.5526L53.0397 15.4986C53.3286 15.0255 53.9111 14.8217 54.4319 15.0114L60.0548 16.727C61.177 15.8058 62.3935 15.0059 63.684 14.3407L64.0625 8.4045C64.0672 7.85768 64.5007 7.41119 65.0471 7.39045L73.9663 6.72471C74.4779 6.64493 74.9572 6.995 75.037 7.50649C75.0405 7.52918 75.0432 7.55205 75.045 7.57492L76.397 13.3521L78.4751 14.1875L80.2897 15.2267L85.6494 12.6815C86.1616 12.3906 86.8123 12.5577 87.121 13.0595L92.0276 20.3831C92.3471 20.8255 92.3288 21.4277 91.9828 21.8498L87.4434 25.7821C87.8126 27.1923 87.947 28.6537 87.8409 30.1076L92.8224 33.4986" stroke="#2C48FF" stroke-width="0.8" stroke-linecap="round" stroke-linejoin="round"/>
<path d="M34.886 137.563C36.4779 137.618 38.0221 137.014 39.1538 135.893C40.3607 134.728 41.0323 133.116 41.0094 131.439C41.0808 129.753 40.4012 128.122 39.1538 126.986C38.0173 125.738 36.3864 125.059 34.7004 125.13C31.3717 125.074 28.6275 127.727 28.5712 131.055C28.569 131.183 28.5709 131.311 28.5769 131.439C28.5436 133.083 29.1413 134.676 30.247 135.893C31.5235 137.021 33.1831 137.618 34.886 137.563Z" stroke="#2C48FF" stroke-width="0.8" stroke-linecap="round" stroke-linejoin="round"/>
<path d="M48.0609 133.109L51.9577 136.078C52.205 136.325 52.205 136.697 51.9577 137.191L48.432 143.315C48.3039 143.699 47.8885 143.907 47.5042 143.779C47.4383 143.757 47.3758 143.726 47.3186 143.686L42.8651 142.016L40.0817 143.686L39.3395 148.511C39.1864 148.907 38.832 149.191 38.4116 149.253H31.3603C30.7418 149.129 30.4326 148.882 30.4325 148.511L29.6903 143.686L26.7213 142.016L22.2679 143.686C21.9349 143.917 21.478 143.834 21.2474 143.5C21.2078 143.443 21.1765 143.381 21.1546 143.315L17.6289 137.191C17.3815 136.697 17.4433 136.325 17.8145 136.078L21.5258 133.109V129.583L17.8145 126.614C17.4434 126.367 17.3815 125.996 17.6289 125.501L21.1546 119.378C21.3933 119.009 21.8557 118.855 22.2679 119.006L26.7213 120.676L29.6903 119.006L30.4325 114.367C30.4325 113.873 30.7417 113.625 31.3603 113.625H38.4116C38.8669 113.593 39.2704 113.916 39.3395 114.367L40.0817 119.006L42.8651 120.676L47.3186 119.006C47.7309 118.855 48.1933 119.009 48.432 119.378L51.9576 125.501C52.205 125.996 52.205 126.367 51.9576 126.614L48.0608 129.583L48.2464 131.439L48.0609 133.109Z" stroke="#2C48FF" stroke-width="0.8" stroke-linecap="round" stroke-linejoin="round"/>
<path d="M106.604 146.82C75.0735 146.308 52.8403 121.071 56.5804 90.7598C48.7351 79.4212 67.7865 70.8934 99.133 71.7126C95.3929 102.024 98.6838 135.74 106.604 146.82Z" stroke="#2C48FF" stroke-width="0.8" stroke-miterlimit="10"/>
<path d="M78.7903 138.795C74.8217 133.059 84.4589 128.745 100.316 129.159" stroke="#2C48FF" stroke-width="0.8" stroke-miterlimit="10"/>
<path d="M60.8805 118.652C54.1019 108.855 70.5631 101.487 97.6476 102.194" stroke="#2C48FF" stroke-width="0.8" stroke-miterlimit="10"/>
<path d="M106.604 146.82C75.3951 140.671 53.4198 110.911 57.1599 80.6001" stroke="#2C48FF" stroke-width="0.8" stroke-miterlimit="10"/>
<path d="M106.604 146.821C83.8652 136.88 68.6856 104.078 72.4256 73.7671" stroke="#2C48FF" stroke-width="0.8" stroke-miterlimit="10"/>
<path d="M106.604 146.82C98.6838 135.74 95.3929 102.023 99.133 71.7124C130.479 72.5316 162.251 82.3875 170.096 93.7262C166.356 124.037 138.058 147.954 106.604 146.82Z" stroke="#2C48FF" stroke-width="0.8" stroke-miterlimit="10"/>
<path d="M100.316 129.159C116.173 129.574 132.245 134.559 136.213 140.295" stroke="#2C48FF" stroke-width="0.8" stroke-miterlimit="10"/>
<path d="M97.6477 102.194C124.732 102.902 152.184 111.418 158.963 121.215" stroke="#2C48FF" stroke-width="0.8" stroke-miterlimit="10"/>
<path d="M106.604 146.82C115.655 137.711 125.979 105.575 129.719 75.2642" stroke="#2C48FF" stroke-width="0.8" stroke-miterlimit="10"/>
<path d="M106.604 146.82C129.78 142.093 151.437 113.473 155.177 83.1616" stroke="#2C48FF" stroke-width="0.8" stroke-miterlimit="10"/>
<path d="M106.604 146.821C138.058 147.955 166.356 124.038 170.096 93.7266C177.941 105.065 158.89 113.593 127.543 112.774C123.803 143.085 114.447 158.523 106.604 146.821Z" stroke="#2C48FF" stroke-width="0.8" stroke-miterlimit="10"/>
<path d="M136.213 140.295C140.182 146.031 130.544 150.345 114.688 149.93" stroke="#2C48FF" stroke-width="0.8" stroke-miterlimit="10"/>
<path d="M158.962 121.215C165.741 131.012 149.28 138.381 122.195 137.673" stroke="#2C48FF" stroke-width="0.8" stroke-miterlimit="10"/>
<path d="M106.604 146.82C137.736 153.591 165.777 134.197 169.516 103.886" stroke="#2C48FF" stroke-width="0.8" stroke-miterlimit="10"/>
<path d="M106.604 146.821C129.266 157.383 150.511 141.03 154.251 110.719" stroke="#2C48FF" stroke-width="0.8" stroke-miterlimit="10"/>
<path d="M106.604 146.821C114.447 158.523 123.803 143.085 127.543 112.774C96.1969 111.955 64.4256 102.099 56.5803 90.7603C52.8403 121.071 75.0734 146.309 106.604 146.821Z" stroke="#2C48FF" stroke-width="0.8" stroke-miterlimit="10"/>
<path d="M114.688 149.93C98.8307 149.516 82.759 144.53 78.7903 138.794" stroke="#2C48FF" stroke-width="0.8" stroke-miterlimit="10"/>
<path d="M122.195 137.673C95.1107 136.965 67.659 128.449 60.8804 118.652" stroke="#2C48FF" stroke-width="0.8" stroke-miterlimit="10"/>
<path d="M106.604 146.82C97.4767 156.552 93.2172 139.533 96.9573 109.222" stroke="#2C48FF" stroke-width="0.8" stroke-miterlimit="10"/>
<path d="M106.604 146.82C83.3511 152.17 67.7591 131.635 71.499 101.324" stroke="#2C48FF" stroke-width="0.8" stroke-miterlimit="10"/>
<path d="M56.5804 90.7601C60.3205 60.449 88.6187 36.532 119.791 37.3466C119.747 37.2827 119.854 37.2347 120.031 37.2392C112.229 25.9636 102.873 41.4018 99.1331 71.7129C67.7865 70.8937 48.7351 79.4214 56.5804 90.7601Z" stroke="#2C48FF" stroke-width="0.8" stroke-miterlimit="10"/>
<path d="M67.7034 63.2595C60.9231 53.4601 77.3883 46.09 104.479 46.798" stroke="#2C48FF" stroke-width="0.8" stroke-miterlimit="10"/>
<path d="M90.3796 44.0965C86.3979 38.3418 96.0671 34.0137 111.976 34.4295" stroke="#2C48FF" stroke-width="0.8" stroke-miterlimit="10"/>
<path d="M57.1597 80.6001C60.8997 50.289 88.9399 30.8945 119.794 37.2889" stroke="#2C48FF" stroke-width="0.8" stroke-miterlimit="10"/>
<path d="M72.4255 73.767C76.1656 43.4559 97.4103 27.1032 119.88 37.2505" stroke="#2C48FF" stroke-width="0.8" stroke-miterlimit="10"/>
<path d="M99.1328 71.7129C102.873 41.4018 112.229 25.9636 120.031 37.2392C120.174 37.2317 120.316 37.2758 120.431 37.3633C151.603 38.1779 173.836 63.4155 170.096 93.7266C162.251 82.3879 130.479 72.532 99.1328 71.7129Z" stroke="#2C48FF" stroke-width="0.8" stroke-miterlimit="10"/>
<path d="M104.479 46.7974C131.571 47.5053 159.029 56.0233 165.809 65.8227" stroke="#2C48FF" stroke-width="0.8" stroke-miterlimit="10"/>
<path d="M111.976 34.4297C127.886 34.8455 144.01 39.8476 147.992 45.6024" stroke="#2C48FF" stroke-width="0.8" stroke-miterlimit="10"/>
<path d="M129.719 75.2645C133.459 44.9534 129.2 27.9342 120.203 37.2592" stroke="#2C48FF" stroke-width="0.8" stroke-miterlimit="10"/>
<path d="M155.177 83.1618C158.917 52.8507 143.325 32.3159 120.347 37.3036" stroke="#2C48FF" stroke-width="0.8" stroke-miterlimit="10"/>
<path d="M170.096 93.7262C173.836 63.4151 151.603 38.1775 120.431 37.3628C120.475 37.4267 120.368 37.4747 120.191 37.4702C127.993 48.7458 131.284 82.4623 127.544 112.773C158.89 113.593 177.941 105.065 170.096 93.7262Z" stroke="#2C48FF" stroke-width="0.8" stroke-miterlimit="10"/>
<path d="M165.809 65.8232C172.59 75.6227 156.124 82.9928 129.033 82.2847" stroke="#2C48FF" stroke-width="0.8" stroke-miterlimit="10"/>
<path d="M147.992 45.6021C151.974 51.3567 142.305 55.6848 126.396 55.2691" stroke="#2C48FF" stroke-width="0.8" stroke-miterlimit="10"/>
<path d="M169.516 103.886C173.256 73.5746 151.281 43.8144 120.427 37.4199" stroke="#2C48FF" stroke-width="0.8" stroke-miterlimit="10"/>
<path d="M154.251 110.719C157.991 80.4078 142.811 47.6059 120.341 37.4585" stroke="#2C48FF" stroke-width="0.8" stroke-miterlimit="10"/>
<path d="M127.543 112.774C131.283 82.4625 127.992 48.746 120.191 37.4704C120.047 37.4779 119.905 37.434 119.791 37.3464C88.6186 36.5318 60.3204 60.4488 56.5803 90.7598C64.4257 102.099 96.1969 111.954 127.543 112.774Z" stroke="#2C48FF" stroke-width="0.8" stroke-miterlimit="10"/>
<path d="M129.033 82.2846C101.942 81.5767 74.4837 73.0587 67.7034 63.2593" stroke="#2C48FF" stroke-width="0.8" stroke-miterlimit="10"/>
<path d="M126.395 55.2689C110.486 54.853 94.3614 49.851 90.3796 44.0962" stroke="#2C48FF" stroke-width="0.8" stroke-miterlimit="10"/>
<path d="M96.9573 109.222C100.697 78.9112 111.022 46.7757 120.018 37.4507" stroke="#2C48FF" stroke-width="0.8" stroke-miterlimit="10"/>
<path d="M71.499 101.324C75.2391 71.0133 96.8963 42.3934 119.875 37.4058" stroke="#2C48FF" stroke-width="0.8" stroke-miterlimit="10"/>
<path d="M64.776 125.396C64.0685 124.287 63.0721 122.84 62.4176 121.699C61.5955 120.266 60.567 118.315 59.8579 116.822C58.6382 114.075 57.5823 111.258 56.6958 108.386C56.1532 106.68 55.736 104.936 55.4477 103.169C55.2128 101.605 54.8581 99.5233 54.6957 97.9498C54.5515 96.5521 54.4497 94.6788 54.4265 93.274C54.3869 90.5158 54.533 87.7581 54.8638 85.0195C55.3029 81.88 55.9429 78.772 56.7803 75.7145C57.6798 72.7582 58.7798 69.8666 60.0726 67.0598C61.1192 64.7947 62.3331 62.6108 63.7045 60.5262C65.3478 58.072 67.1308 55.7143 69.0449 53.4649C70.9763 51.3032 73.0518 49.2748 75.2573 47.3936C81.859 41.8328 89.6005 37.7884 97.9358 35.5458C99.8169 35.0377 101.723 34.6257 103.646 34.3111C105.422 33.9995 107.465 33.8111 108.234 33.7403C125.755 32.2233 143.04 38.5988 155.379 51.1298C158.773 54.5984 161.736 58.4637 164.204 62.6419C165.596 65.105 166.849 67.6437 167.959 70.246C168.456 71.5069 169.095 73.1989 169.499 74.4924C169.971 76.0051 170.563 78.0382 170.875 79.5916C171.588 82.8126 172.027 86.0877 172.19 89.3825C172.266 92.549 172.163 95.7174 171.883 98.8725C171.33 103.771 170.164 108.58 168.412 113.188C167.269 116.021 165.958 118.783 164.486 121.46C163.288 123.585 161.939 125.621 160.449 127.552C158.655 129.863 156.717 132.058 154.645 134.123C152.294 136.416 149.753 138.505 147.048 140.368C140.582 144.828 133.287 147.945 125.594 149.534C114.299 151.846 102.577 150.862 91.8245 146.702C88.2285 145.311 84.7781 143.57 81.5234 141.503C79.7439 140.351 77.4479 138.694 75.7999 137.361C74.3377 136.178 72.5288 134.435 71.1733 133.131C70.1906 132.162 69.2581 131.144 68.3796 130.079C67.2497 128.713 65.806 126.839 64.776 125.396ZM64.776 125.396C73.6109 138.165 88.5901 146.528 106.604 146.82C88.5901 146.528 73.6109 138.165 64.776 125.396Z" stroke="#2C48FF" stroke-width="0.8" stroke-miterlimit="10"/>
<path d="M169.043 26.1777H163.733V31.4871H169.043V26.1777Z" stroke="#2C48FF" stroke-width="0.8" stroke-linecap="round" stroke-linejoin="round"/>
<path d="M197.22 100.176H191.911V105.486H197.22V100.176Z" stroke="#2C48FF" stroke-width="0.8" stroke-linecap="round" stroke-linejoin="round"/>
<path d="M43.4691 76.3267H38.1597V81.636H43.4691V76.3267Z" stroke="#2C48FF" stroke-width="0.8" stroke-linecap="round" stroke-linejoin="round"/>
<path d="M76.8084 159.029H71.499V164.338H76.8084V159.029Z" stroke="#2C48FF" stroke-width="0.8" stroke-linecap="round" stroke-linejoin="round"/>
</svg>
