<svg width="160" height="90" viewBox="0 0 160 90" fill="none" xmlns="http://www.w3.org/2000/svg">
<path d="M0 0H160V90H0V0Z" fill="white"/>
<path d="M69.0001 36.5881H59.353V34.647H64.2354L65.2942 30.647H60.353V28.647H67.8236L66.353 34.647H68.9413L69.0001 36.5881Z" fill="#231815"/>
<path d="M77.0002 27.2354C76.7061 27.8825 76.412 28.4707 76.0591 29.0589C75.7061 29.6472 75.3532 30.2354 74.9414 30.8236C75.3532 31.2354 75.6473 31.5295 75.8826 31.7648C76.1179 32.0001 76.412 32.2942 76.6473 32.5295L75.1767 33.7648C74.9414 33.4707 74.7061 33.2354 74.4708 33.0001C74.2355 32.7648 74.0002 32.4707 73.7649 32.2354C73.2355 32.7648 72.7061 33.2942 72.1179 33.7648C71.5296 34.2354 70.9414 34.6472 70.2943 35.0001L68.9414 33.5883C69.5885 33.2354 70.1767 32.8236 70.7649 32.3531C71.3532 31.9413 71.8826 31.4707 72.3532 30.9413C72.0002 30.6472 71.7061 30.3531 71.3532 30.1178C71.0002 29.8825 70.6473 29.5883 70.2355 29.2942L71.6473 28.1178C71.8826 28.2942 72.1767 28.5295 72.4708 28.7648C72.7649 29.0001 73.1179 29.2942 73.5296 29.5884C73.8826 29.1178 74.1767 28.5884 74.4708 28.0589C74.7649 27.5884 75.0591 27.0589 75.2943 26.4707L77.0002 27.2354Z" fill="#231815"/>
<path d="M83.4119 36.1765L82.706 37.7059C81.5883 37.4118 80.5295 37.1177 79.4707 36.8824C78.4118 36.6471 77.353 36.4706 76.353 36.353L77.0001 34.8236C77.7648 34.9412 78.4707 35.0589 79.2354 35.1765C80.0001 35.353 80.8824 35.5294 82.0001 35.8236C82.1177 35.8236 82.2942 35.8824 82.6471 36C82.9413 36.0589 83.2354 36.1177 83.4119 36.1765ZM82.706 33.5883L82.1177 35C81.4118 34.7647 80.706 34.5883 79.9413 34.4706C79.1766 34.353 78.4119 34.1765 77.5295 34.0589L78.1766 32.5883C78.9413 32.7059 79.6471 32.8236 80.4118 33C81.1766 33.1765 81.9413 33.353 82.706 33.5883ZM83.706 31.2941L83.0589 32.7647C82.706 32.6471 82.353 32.5883 82.0001 32.4706C81.6471 32.353 81.2354 32.2941 80.8824 32.1765C80.4118 32.0589 79.9413 32 79.4707 31.8824C79.0001 31.8236 78.353 31.7059 77.6471 31.5883L78.2354 30.1177C79.0589 30.2353 79.8824 30.4118 80.7648 30.5883C81.6471 30.7647 82.5883 31 83.706 31.2941Z" fill="#231815"/>
<path d="M87.3532 28.3532C87.3532 29.5296 87.3532 30.5885 87.2944 31.5296C87.2355 32.4708 87.1179 33.2943 86.8826 34.0591C86.7061 34.5885 86.4708 35.0591 86.2355 35.4708C86.0002 35.8826 85.5885 36.2943 85.1767 36.7061L83.9414 35.2943C84.5296 34.7061 84.8826 34.1767 85.1179 33.5885C85.3532 33.0002 85.4708 32.2943 85.5296 31.412C85.5296 30.9414 85.5885 30.5296 85.5885 30.0591C85.5885 29.5885 85.5885 29.0591 85.5885 28.3532H87.3532ZM93.1767 31.7649C92.8826 32.5885 92.5885 33.2943 92.2355 33.8238C91.9414 34.412 91.5296 34.8826 91.0591 35.3532C90.5885 35.7649 90.1767 36.0002 89.7649 36.1767C89.3532 36.3532 88.7649 36.4708 88.0591 36.5885V27.9414H89.7649V34.0591C90.2355 33.5885 90.5885 33.0591 90.8826 32.5296C91.1767 32.0002 91.412 31.2943 91.6473 30.5296L93.1767 31.7649Z" fill="#231815"/>
<path d="M95.7061 36.7649L94.412 37.5296C94.1767 37.1178 93.9414 36.7061 93.7061 36.3531C93.4708 36.0002 93.1767 35.7061 92.9414 35.4119L94.0591 34.7061C94.3532 35.059 94.6473 35.3531 94.9414 35.7061C95.1767 36.059 95.4708 36.4119 95.7061 36.7649Z" fill="#231815"/>
<path d="M108.706 32.9412H105.353C105.118 34.0588 104.765 34.8824 104.235 35.4118C103.706 36 102.941 36.4706 101.824 36.9412L100.647 35.4706C101.412 35.1765 102.059 34.8824 102.471 34.4706C102.941 34.1176 103.235 33.5882 103.412 32.9412H99.8237V31.1765H103.53C103.53 31.0588 103.53 30.9412 103.53 30.8235C103.53 30.7059 103.53 30.5882 103.53 30.4706C103.059 30.5294 102.647 30.5294 102.177 30.5882C101.706 30.6471 101.294 30.6471 100.824 30.7059L100.235 29C101.53 28.9412 102.765 28.8235 103.883 28.6471C105 28.5294 106.118 28.2941 107.177 28L108 29.5294C107.471 29.6471 107 29.7647 106.588 29.8824C106.177 30 105.765 30.0588 105.353 30.1765V31.1765H108.588V32.9412H108.706Z" fill="#231815"/>
<path d="M116.471 31.9413C116.471 32.8825 116.412 33.9413 116.353 35.1178C116.294 36.2942 116.177 37.0001 116 37.3531C115.882 37.5883 115.706 37.7648 115.471 37.8825C115.235 38.0001 115.059 38.0589 114.765 38.1178C114.529 38.1766 114.235 38.1766 113.882 38.1766C113.529 38.1766 113.294 38.1766 113.235 38.1766L112.882 36.5295H113.882C114.235 36.5295 114.529 36.4707 114.588 36.2942C114.647 36.1178 114.765 35.8236 114.765 35.4119C114.765 35.1178 114.824 34.7648 114.824 34.4707C114.824 34.1766 114.882 33.8236 114.882 33.4707H113.353C113.177 34.6472 112.882 35.5884 112.471 36.2942C112.059 37.0001 111.353 37.6472 110.353 38.2354L109.235 36.8825C110 36.4119 110.588 35.9413 110.941 35.4707C111.294 35.0001 111.588 34.2942 111.765 33.4707H109.412V31.9413H111.882C111.882 31.706 111.882 31.5295 111.882 31.2942C111.882 31.0589 111.882 30.8236 111.882 30.4707H113.471C113.471 30.7648 113.471 31.0589 113.471 31.2942C113.471 31.5295 113.471 31.706 113.471 31.9413H116.471Z" fill="#231815"/>
<path d="M125.412 29.4709C125.235 31.5297 124.588 32.9415 123.471 33.765C122.353 34.5885 120.706 35.1179 118.529 35.2944L117.765 33.5297C118.765 33.5297 119.588 33.4121 120.353 33.2944C121.059 33.1768 121.765 32.8826 122.294 32.4121C122.471 32.2356 122.647 32.0591 122.765 31.8826C122.882 31.7062 123.059 31.4709 123.176 31.1768H116.882V29.4121L125.412 29.4709ZM124.647 28.8826H117.706V27.1768H124.647V28.8826Z" fill="#231815"/>
<path d="M96.4705 62.9413H94.4117V55.3531H86.7058V62.9413H84.647V47.4707H86.7058V53.5295H94.4117V47.4707H96.4705V62.9413Z" fill="#E50012"/>
<path d="M112.118 49.2942H106.588V62.9413H104.529V49.2942H99V47.4707H112.118V49.2942Z" fill="#231815"/>
<path d="M122.647 52.3531C122.529 52.706 122.294 52.9413 121.941 53.1766C121.588 53.3531 121.235 53.5295 120.882 53.5883C120.529 53.6472 120 53.706 119.353 53.706H116.706V49.2942H119.176C119.882 49.2942 120.412 49.2942 120.882 49.3531C121.353 49.4119 121.765 49.5295 122.059 49.706C122.353 49.8825 122.529 50.0589 122.647 50.3531C122.765 50.5883 122.823 50.9413 122.823 51.2942C122.823 51.6472 122.765 52.0589 122.647 52.3531ZM125.412 55.5295C124.823 54.8236 124 54.3531 122.941 54.1766V54.1178C123.588 53.8236 124.059 53.3531 124.412 52.8825C124.765 52.3531 125 51.7648 125 51.0001C125 50.3531 124.882 49.7648 124.588 49.2942C124.353 48.8236 123.941 48.4707 123.353 48.1178C122.823 47.8825 122.294 47.706 121.765 47.5884C121.176 47.5295 120.353 47.4707 119.235 47.4707H114.647V62.9413H120.118C121.176 62.9413 122.059 62.8236 122.765 62.6472C123.471 62.4707 124.118 62.1178 124.706 61.6472C125.176 61.2942 125.588 60.7648 125.882 60.1766C126.176 59.5883 126.294 58.8825 126.294 58.1178C126.294 57.1178 126 56.2354 125.412 55.5295ZM123.882 59.5883C123.706 59.9413 123.412 60.2354 123.059 60.4707C122.706 60.706 122.235 60.8825 121.647 61.0001C121.059 61.1178 120.353 61.1178 119.412 61.1178H116.706V55.4707H119.941C120.647 55.4707 121.176 55.4707 121.706 55.5295C122.176 55.5884 122.588 55.706 122.941 55.8825C123.412 56.1178 123.765 56.4119 123.941 56.8236C124.118 57.1766 124.235 57.6472 124.235 58.2942C124.176 58.8236 124.059 59.2354 123.882 59.5883Z" fill="#231815"/>
<path d="M46.9409 42.7061V62.9413H82.0586V42.7061H46.9409ZM80.9997 43.7649C80.9997 44.7649 80.9997 60.8237 80.9997 61.8237C79.9997 61.8237 49.0586 61.8237 48.0586 61.8237C48.0586 60.8237 48.0586 44.7649 48.0586 43.7649C49.0586 43.7649 79.9997 43.7649 80.9997 43.7649Z" fill="#231815"/>
<path d="M50.9409 47.0001C50.4115 47.2942 49.8821 47.706 50.0585 48.353C50.1762 48.8825 50.4703 49.4119 50.8232 49.7648C51.2938 50.2354 51.9409 50.8236 52.6468 50.8825C52.588 50.1766 52.6468 49.4119 52.7056 48.706C52.6468 48.5883 52.588 48.5295 52.5291 48.4119C52.235 47.8825 51.8232 46.5295 50.9409 47.0001Z" fill="#FFE33F"/>
<path d="M76.0587 59.8828C76.0587 59.8828 76.294 59.6475 76.3528 59.5299C78.294 57.4122 78.941 54.5887 78.5881 51.7651C78.0587 48.2357 76.4116 45.1769 73.4116 43.0593C70.7057 41.1181 67.4704 39.824 64.1175 40.0004C61.1763 40.1769 58.1175 41.2946 56.0587 43.471C52.5292 47.1769 52.294 52.8828 55.8234 56.5299C56.7645 57.2946 61.8822 60.3534 61.8822 60.3534C61.8822 60.3534 62.2351 60.471 62.4116 60.5887C62.6469 60.6475 63.0587 60.824 63.0587 60.824L71.3528 61.824H72.3528L76.0587 59.8828Z" fill="#FFE33F"/>
<path d="M57.7058 44.7062C56.4705 45.2356 55.3528 46.6474 55.1763 48.0591C54.9999 49.765 56.294 50.7062 57.7058 50.5885C59.1175 50.4121 60.0587 48.3532 60.294 46.8238C60.5293 45.3532 59.3528 44.0591 57.7058 44.7062Z" fill="#3F3927"/>
<path d="M58.7059 46C58.5294 45.8824 58.0588 46 57.9412 46.0589C57.3529 46.353 56.8824 47.1765 56.7059 47.8236C56.5882 48.2353 56.9412 49.2353 57.6471 49C58.2353 48.8236 58.6471 48.0589 58.8824 47.4706C58.9412 47.2942 59.4118 46.4706 58.7059 46Z" fill="white"/>
<path d="M73.6471 57.8237C74.8236 57.0002 75.8236 54.8825 75.2354 53.4707C74.9412 52.706 74.353 52.2355 73.6471 52.0002C74.0589 51.2943 73.0001 50.4119 72.2354 51.0002C71.7059 51.4707 71.2942 52.0002 70.8824 52.5296C70.8236 52.5884 70.7648 52.6472 70.7648 52.7649C70.353 53.4119 70.0589 54.059 69.7059 54.706C69.1765 55.706 70.6471 56.5296 71.1765 55.5884C71.5295 54.9413 71.8236 54.2355 72.2354 53.6472C72.7648 53.2355 73.5883 53.6472 73.7059 54.1766C73.8236 54.706 73.2354 56.0002 72.8236 56.2943C71.8824 57.0002 72.7648 58.4707 73.6471 57.8237Z" fill="#3F3927"/>
<path d="M76 61.0003C75.0588 59.2945 73.1176 60.2945 73 61.8827H76.1176C76.1765 61.8827 76.1176 61.2945 76 61.0003Z" fill="#FFE33F"/>
<path d="M64.0586 60.5885C64.7056 59.2356 66.1762 58.4709 67.6468 58.3532C69.4703 58.1768 70.6468 59.4709 70.7644 61.2356C70.7644 61.4709 70.7644 61.8826 70.7644 61.8826H71.4703C71.4703 61.8826 71.5292 61.4121 71.4703 61.2356C71.0586 56.4121 64.8233 56.8238 63.235 60.7062C63.235 60.765 63.1762 60.8238 63.1762 60.8826C62.9409 60.8238 62.7056 60.7062 62.5292 60.6473C62.3527 60.5885 62.1762 60.5297 61.9997 60.4121C61.8233 59.2356 61.2939 58.0591 60.5292 57.1768L60.4703 57.1179L60.4115 57.0591C59.0586 55.8826 57.3527 55.765 55.9409 56.5885C52.4115 52.9415 52.6468 47.1768 56.1762 43.5297C58.235 41.3532 61.2939 40.2356 64.235 40.0591C67.588 39.8826 70.8233 41.1768 73.5292 43.1179C76.5292 45.2356 78.1762 48.2356 78.7056 51.8238C79.0586 54.6473 78.4115 57.4121 76.4703 59.5885C76.3527 59.7062 76.235 59.8238 76.1762 59.9415C75.4703 59.3532 74.5292 59.2944 73.6468 59.8238C72.8821 60.2944 72.4703 61.1768 72.4703 61.9415H73.1174C73.235 60.3532 75.235 59.3532 76.1174 61.0591C76.235 61.3532 76.2939 61.9415 76.235 61.9415H76.9997C76.9997 61.1768 76.9997 61.1768 76.8233 60.765C76.8233 60.765 76.8233 60.7062 76.7644 60.6473C76.7644 60.6473 76.7644 60.5885 76.7056 60.5885L76.6468 60.5297C78.9997 58.3532 79.8821 55.0003 79.4703 51.8238V51.765V51.7062C79.0586 48.8826 78.0586 46.5297 76.1174 44.4121C74.1762 42.2944 71.4703 40.765 68.7056 39.9415C63.7056 38.4121 57.8233 40.1179 54.7056 44.2944C53.7644 45.2944 53.235 46.4709 52.9409 47.7062C52.7644 47.2944 52.588 46.9415 52.3527 46.6473C51.588 45.7062 50.1174 46.2356 49.588 47.1179C48.4703 48.8826 50.7644 51.4709 52.7644 51.6473C52.9997 53.3532 53.7056 55.0003 54.8233 56.4121C54.9997 56.5885 55.1762 56.8238 55.3527 57.0003C54.9409 57.3532 54.588 57.8238 54.2939 58.3532C53.7056 59.5297 53.7056 61.0591 54.1174 61.8826H54.9409C54.7056 61.1179 54.588 60.7062 54.588 60.1768C54.6468 57.4121 57.8233 55.765 59.9409 57.7062C60.8821 58.7062 61.4115 60.3532 61.235 61.8826H61.9997C61.9997 61.8826 62.0586 61.4709 62.0586 61.2944C62.3527 61.4121 62.7056 61.5297 63.0586 61.6473C63.0586 61.7062 63.0586 61.8826 63.0586 61.8826H63.8233C63.7644 61.1179 63.8821 61.0003 64.0586 60.5885ZM52.6468 50.9415C51.9409 50.8238 51.235 50.2944 50.8233 49.8238C50.4703 49.4121 50.1762 48.9415 50.0586 48.4121C49.8821 47.7062 50.4115 47.2944 50.9409 47.0591C51.8233 46.5885 52.235 48.0003 52.5292 48.5297C52.588 48.6473 52.6468 48.7062 52.7056 48.8238C52.588 49.4709 52.588 50.1768 52.6468 50.9415Z" fill="#3F3927"/>
<path d="M67.5879 58.353C66.1762 58.4707 64.6467 59.2942 63.9997 60.5883C63.8232 61.0001 63.7056 61.0589 63.7056 61.8824H70.7056C70.7056 61.8824 70.7056 61.4118 70.7056 61.2354C70.5879 59.4707 69.4115 58.1765 67.5879 58.353Z" fill="#FFE33F"/>
<path d="M59.8822 57.7063C57.7646 55.7651 54.5881 57.4122 54.5293 60.1769C54.5293 60.7651 54.6469 61.1181 54.8822 61.8828H61.1764C61.3528 60.3534 60.8234 58.7063 59.8822 57.7063Z" fill="#FFE33F"/>
<path d="M60.5883 50.8237C60.4707 50.8237 60.353 50.8826 60.2942 51.059C60.1177 52.2943 59.9412 53.2943 60.4118 54.4708C60.9412 55.7649 62.2942 56.5884 63.6471 56.7061H63.7059C65.4118 56.7061 66.7059 55.6473 67.6471 54.2943C67.7059 54.1767 67.7059 54.0002 67.5883 53.9414C65.5883 52.5296 63.0589 51.2943 60.5883 50.8237Z" fill="#3F3927"/>
<path d="M60.7647 54.0003C61.2941 55.2945 62.3529 56.118 63.7058 56.2356C65.1764 56.2356 66.2353 55.3533 67.1176 54.2356C65.2353 53.0003 62.9411 51.8827 60.7058 51.4121C60.5882 52.2356 60.4117 53.118 60.7647 54.0003Z" fill="#F4B1B1"/>
<path d="M46.2353 34.8237C45.7647 33.2943 44.8824 32.706 43.2941 32.706C41.7059 32.706 40.5294 33.4707 39.8236 34.9413C39.4118 35.8237 39.2353 36.5884 39.0589 38.1178C39.7059 37.4707 40.0589 37.2354 40.7059 36.9413C41.7059 36.4707 42.8236 36.2943 44.1177 36.2943C48.8236 36.2354 51.7647 39.059 51.7647 43.4707C51.7647 47.9413 48.2353 51.059 43.1765 51.059C40.4706 51.059 38.2353 50.1766 36.7059 48.4707C35 46.5296 34.1177 43.6472 34.1177 40.1766C34.1177 36.9413 34.9412 33.8825 36.2353 32.059C37.9412 29.706 40.2941 28.5884 43.5294 28.5884C46.0589 28.5884 48.1765 29.4119 49.5883 30.8825C50.353 31.706 50.7647 32.4119 51.2941 33.7648L46.2353 34.8237ZM39.5883 43.6472C39.5883 45.5296 41.1177 46.9413 43.1765 46.9413C45.2941 46.9413 46.8236 45.5884 46.8236 43.5884C46.8236 41.5884 45.4706 40.4119 43.2353 40.4119C41 40.3531 39.5883 41.6472 39.5883 43.6472Z" fill="#E50012"/>
</svg>
