<svg width="160" height="90" viewBox="0 0 160 90" fill="none" xmlns="http://www.w3.org/2000/svg">
<path d="M0 0H160V90H0V0Z" fill="white"/>
<path d="M54.4722 43.464C54.0271 43.464 53.6648 43.1028 53.6648 42.6566V31.3218H49.4121V43.4128C49.4121 45.5861 51.174 47.3487 53.3467 47.3487H59.151V43.464H54.4722Z" fill="#E75400"/>
<path d="M106.372 43.464C105.927 43.464 105.564 43.1028 105.564 42.6566V31.3218H101.311V43.4128C101.311 45.5861 103.073 47.3487 105.247 47.3487H111.05V43.464H106.372Z" fill="#E75400"/>
<path d="M67.6255 31.3232H63.3115V47.3489H67.6255V31.3232Z" fill="#E75400"/>
<path d="M96.3535 31.3232H92.0396V47.3489H96.3535V31.3232Z" fill="#E75400"/>
<path d="M82.9046 38.7252L88.2805 31.3241L84.8401 28.8237L79.8319 35.7175L74.8242 28.8237L71.3823 31.3241L76.7595 38.7252C77.0037 39.0604 77.0037 39.6089 76.7595 39.9461L71.3823 47.3475L74.8242 49.8475L79.8319 42.9537L84.8401 49.8475L88.2805 47.3475L82.9046 39.9461C82.6602 39.6089 82.6602 39.0604 82.9046 38.7252Z" fill="#E75400"/>
<path d="M57.3245 55.6006C56.9372 55.6006 56.5409 55.7936 56.2013 56.1451V55.6759H55.5698V59.666H56.2013V56.722C56.4659 56.448 56.9077 56.1573 57.2723 56.1573C57.6816 56.1573 57.8631 56.3563 57.8631 56.8016V59.666H58.4944V56.7856C58.4944 56.0438 58.0572 55.6006 57.3245 55.6006Z" fill="#54585A"/>
<path d="M62.5072 55.6757H61.7385L60.2161 57.5806V54.1616H59.585V59.6658H60.2161V58.4677L60.881 57.7067L61.8975 59.6658H62.6382L61.3202 57.1659L62.5072 55.6757Z" fill="#54585A"/>
<path d="M66.651 59.1843C66.3024 59.1843 66.2547 59.0708 66.2547 58.9592V56.232H67.1544V55.6756H66.2547V54.3945H65.623V55.6756H64.9858V56.232H65.623V59.0504C65.623 59.6239 65.9593 59.7398 66.5012 59.7398C66.8272 59.7398 67.0478 59.7077 67.1443 59.6783L67.1771 59.668V59.1385L67.1235 59.1468C66.9657 59.1719 66.8114 59.1843 66.651 59.1843Z" fill="#54585A"/>
<path d="M69.3268 55.6006C68.3296 55.6006 67.6846 56.4129 67.6846 57.6703C67.6846 58.9278 68.3298 59.7399 69.3268 59.7399C70.3255 59.7399 70.9705 58.9276 70.9705 57.6703C70.9705 56.4129 70.3253 55.6006 69.3268 55.6006ZM69.3268 59.1845C68.6942 59.1845 68.3161 58.6174 68.3161 57.6703C68.3161 56.7229 68.6942 56.1571 69.3268 56.1571C69.9609 56.1571 70.3379 56.7229 70.3379 57.6703C70.3377 58.6173 69.9607 59.1845 69.3268 59.1845Z" fill="#54585A"/>
<path d="M75.6719 54.6874C76.324 54.6874 76.7261 55.0462 76.9771 55.8479L76.9896 55.8866L77.6485 55.7558L77.6348 55.7089C77.3233 54.6167 76.6715 54.0859 75.6423 54.0859C74.9928 54.0859 73.4819 54.3622 73.4819 56.9134C73.4819 59.4642 74.9928 59.7396 75.6423 59.7396C76.2434 59.7396 76.7407 59.5575 77.0272 59.2362V59.6655H77.6142V56.9725H75.7002V57.5734H76.9223V57.9845C76.9223 58.5436 76.5945 59.1383 75.6719 59.1383C75.113 59.1383 74.1737 58.849 74.1737 56.9136C74.1735 54.9768 75.113 54.6874 75.6719 54.6874Z" fill="#54585A"/>
<path d="M80.1017 55.6006C79.1043 55.6006 78.4595 56.4129 78.4595 57.6703C78.4595 58.9278 79.1043 59.7399 80.1017 59.7399C81.0991 59.7399 81.7442 58.9276 81.7442 57.6703C81.7442 56.4129 81.0991 55.6006 80.1017 55.6006ZM80.1017 59.1845C79.4677 59.1845 79.0906 58.6174 79.0906 57.6703C79.0906 56.7229 79.4677 56.1571 80.1017 56.1571C80.7345 56.1571 81.1125 56.7229 81.1125 57.6703C81.1125 58.6173 80.7345 59.1845 80.1017 59.1845Z" fill="#54585A"/>
<path d="M83.9798 55.6006C82.9812 55.6006 82.3359 56.4129 82.3359 57.6703C82.3359 58.9278 82.9812 59.7399 83.9798 59.7399C84.977 59.7399 85.621 58.9276 85.621 57.6703C85.621 56.4129 84.977 55.6006 83.9798 55.6006ZM83.9798 59.1845C83.3461 59.1845 82.9678 58.6174 82.9678 57.6703C82.9678 56.7229 83.3461 56.1571 83.9798 56.1571C84.6124 56.1571 84.9895 56.7229 84.9895 57.6703C84.9895 58.6173 84.6124 59.1845 83.9798 59.1845Z" fill="#54585A"/>
<path d="M89.5325 58.9366L89.5336 58.7652V54.1616H88.9023V56.0097C88.6557 55.8156 88.2922 55.6004 87.8914 55.6004C87.2928 55.6004 86.2783 56.0365 86.2783 57.6702C86.2783 59.198 87.1643 59.7397 87.9208 59.7397C88.3171 59.7397 88.6975 59.586 88.9214 59.3411L88.985 59.6657H89.5709L89.563 59.6123C89.528 59.3877 89.5304 59.1583 89.5325 58.9366ZM88.9021 56.6684V58.6857C88.5202 59.0583 88.2819 59.1844 87.9662 59.1844C87.2948 59.1844 86.9098 58.6423 86.9098 57.701C86.9098 56.6764 87.2653 56.1571 87.9662 56.1571C88.2581 56.1571 88.6067 56.3483 88.9021 56.6684Z" fill="#54585A"/>
<path d="M93.304 54.1616H92.6123V59.6648H95.7836V59.064H93.304V54.1616Z" fill="#54585A"/>
<path d="M97.1901 54.0864H96.5586V54.8236H97.1901V54.0864Z" fill="#54585A"/>
<path d="M97.1901 55.6758H96.5586V59.6661H97.1901V55.6758Z" fill="#54585A"/>
<path d="M99.614 58.8132L98.652 55.6758H98.0078L99.2357 59.6659H100.023L101.221 55.6758H100.577L99.614 58.8132Z" fill="#54585A"/>
<path d="M102.671 54.0864H102.039V54.8236H102.671V54.0864Z" fill="#54585A"/>
<path d="M102.671 55.6758H102.039V59.6661H102.671V55.6758Z" fill="#54585A"/>
<path d="M105.573 55.6006C105.186 55.6006 104.789 55.7936 104.45 56.1456V55.6757H103.818V59.6658H104.45V56.7218C104.713 56.4478 105.156 56.1571 105.521 56.1571C105.93 56.1571 106.112 56.3561 106.112 56.8015V59.6658H106.744V56.7854C106.744 56.0438 106.306 55.6006 105.573 55.6006Z" fill="#54585A"/>
<path d="M108.57 58.8687C108.397 58.8687 108.292 58.7802 108.292 58.6299C108.292 58.4758 108.381 58.3711 108.555 58.3179C108.749 58.3736 108.922 58.4214 109.244 58.4214C110.068 58.4214 110.714 57.8021 110.714 57.0105C110.714 56.6856 110.591 56.4017 110.471 56.2359C110.599 56.1882 110.797 56.1572 110.998 56.1572H111.044V55.5215L110.993 55.5258C110.736 55.553 110.426 55.6772 110.157 55.861C109.891 55.6815 109.592 55.6006 109.191 55.6006C108.31 55.6006 107.669 56.1934 107.669 57.0105C107.669 57.4512 107.841 57.8248 108.168 58.0941C107.889 58.2691 107.676 58.4232 107.676 58.7654C107.676 58.997 107.845 59.2164 108.097 59.3276C107.712 59.5377 107.503 59.739 107.503 60.115C107.503 60.7716 108.085 61.1055 109.229 61.1055C110.572 61.1055 111.052 60.5385 111.052 60.0092C111.052 59.1791 110.379 58.8687 108.57 58.8687ZM109.169 56.1573C109.777 56.1573 110.112 56.4711 110.112 57.0412C110.112 57.4512 109.84 57.8646 109.228 57.8646C108.664 57.8646 108.271 57.5137 108.271 57.0105C108.271 56.4844 108.615 56.1573 109.169 56.1573ZM109.319 60.5488C108.199 60.5488 108.106 60.3297 108.106 60.1069C108.106 59.8138 108.379 59.5004 109.147 59.5004C110.305 59.5004 110.446 59.8045 110.449 60.0308C110.443 60.4124 109.861 60.5488 109.319 60.5488Z" fill="#54585A"/>
<path d="M50.5358 54.1616H49.8428V59.6648H53.0155V59.064H50.5358V54.1616Z" fill="#54585A"/>
<path d="M54.4217 54.0864H53.79V54.8236H54.4217V54.0864Z" fill="#54585A"/>
<path d="M54.4217 55.6758H53.79V59.6661H54.4217V55.6758Z" fill="#54585A"/>
</svg>
