<svg width="160" height="90" viewBox="0 0 160 90" fill="none" xmlns="http://www.w3.org/2000/svg">
<path d="M0 0H160V90H0V0Z" fill="white"/>
<path d="M28.3369 44.9018L28.4891 53.174L34.4776 53.3263L40.4153 53.4785V52.159C40.4153 50.8903 40.4153 50.8903 35.8478 50.8903H31.2803V43.7853V36.6804H29.7578H28.2354L28.3369 44.9018Z" fill="black"/>
<path d="M42.9526 45.054V53.4277H44.4751H45.9976V45.054V36.6803H44.4751H42.9526V45.054Z" fill="black"/>
<path d="M50.5654 45.1048V53.5293L55.8434 53.3263C60.6139 53.174 61.2736 53.0725 62.4409 51.9561C64.1664 50.3321 64.2171 47.9468 62.4916 45.9168C61.4259 44.6481 61.3244 44.2928 61.9334 43.8361C63.6081 42.4659 63.2529 38.8119 61.3244 37.3909C60.7661 36.9341 58.7869 36.7311 55.5389 36.6804H50.5654V45.1048ZM59.5989 39.8269C59.9541 40.1821 60.2079 40.8419 60.2079 41.2986C60.2079 42.9226 58.7361 43.7854 56.0971 43.7854H53.6104V41.5016V39.2179H56.3001C57.7719 39.2179 59.2436 39.4716 59.5989 39.8269ZM60.1064 46.9318C60.4616 47.2871 60.7154 47.9976 60.7154 48.6066C60.7154 50.3321 59.7004 50.8903 56.5539 50.8903H53.6104V48.6066V46.3228H56.5539C58.1779 46.3228 59.7511 46.5766 60.1064 46.9318Z" fill="black"/>
<path d="M67.3125 45.054V53.4277H73.1487H78.9849V52.159C78.9849 50.8902 78.9342 50.8902 74.6712 50.8902H70.3575V48.3528V45.8153H73.91C77.1072 45.8153 77.4624 45.7138 77.4624 44.8003C77.4624 43.8868 77.1072 43.7853 73.91 43.7853H70.3575V41.5016V39.2178H74.4175C78.4267 39.2178 78.4774 39.2178 78.4774 37.9491V36.6803H72.895H67.3125V45.054Z" fill="black"/>
<path d="M82.5376 45.054V53.4277H88.3738H94.21V52.159C94.21 50.8902 94.1593 50.8902 89.6426 50.8902H85.0751V43.7853V36.6803H83.8063H82.5376V45.054Z" fill="black"/>
<path d="M96.8491 44.9018L97.0013 53.174L98.4223 53.3263L99.7925 53.4785V45.1048V36.6804H98.2701H96.7476L96.8491 44.9018Z" fill="black"/>
<path d="M103.345 37.9491C103.345 39.2178 103.345 39.2178 108.166 39.2178H112.987L108.166 45.1048C105.019 48.9618 103.345 51.3977 103.345 52.2097V53.4277H109.942H116.54V52.159C116.54 50.8902 116.489 50.8902 111.972 50.8902C109.485 50.8902 107.405 50.738 107.405 50.5858C107.405 50.3828 109.485 47.693 111.972 44.5465C114.51 41.4001 116.54 38.3551 116.54 37.7461C116.54 36.7311 116.337 36.6803 109.942 36.6803H103.345V37.9491Z" fill="black"/>
<path d="M120.092 45.054V53.4277H125.929H131.765V52.159C131.765 50.8902 131.714 50.8902 127.451 50.8902H123.137V48.3528V45.8153H126.69C129.887 45.8153 130.242 45.7138 130.242 44.8003C130.242 43.8868 129.887 43.7853 126.69 43.7853H123.137V41.5016V39.2178H127.197C131.206 39.2178 131.257 39.2178 131.257 37.9491V36.6803H125.675H120.092V45.054Z" fill="black"/>
</svg>
