<svg width="160" height="90" viewBox="0 0 160 90" fill="none" xmlns="http://www.w3.org/2000/svg">
<path d="M0 0H160V90H0V0Z" fill="white"/>
<path d="M64.4048 49.3243V53.27H66.4111V49.0568C66.4111 47.9868 66.8792 47.5856 67.9492 47.5856H69.6211V46.5156H67.5479C65.2742 46.4487 64.4048 47.2512 64.4048 49.3243Z" fill="#231815"/>
<path d="M89.7505 49.3248V53.2705H91.7568V49.0573C91.7568 47.9873 92.2249 47.5861 93.2949 47.5861H94.9668V46.516H92.8937C90.6867 46.4492 89.7505 47.2517 89.7505 49.3248Z" fill="#231815"/>
<path d="M118.91 49.3243V53.27H120.916V49.0568C120.916 47.9868 121.384 47.5856 122.454 47.5856H124.126V46.5156H122.053C119.779 46.4487 118.91 47.2512 118.91 49.3243Z" fill="#231815"/>
<path d="M137.703 49.1242C135.964 48.2548 135.63 48.1879 135.697 47.7198C135.763 47.3854 136.232 47.2517 137.235 47.2517C137.569 47.2517 139.04 47.3854 140.044 47.9204V46.6498C139.107 46.3154 137.703 46.1816 137.101 46.1816C134.827 46.1816 133.623 46.6498 133.49 47.586C133.289 48.9236 134.693 49.5254 136.232 50.1942C137.502 50.7961 138.305 51.0636 138.238 51.5317C138.238 51.9998 137.636 52.2673 136.365 52.2673C135.362 52.2673 134.025 51.933 133.356 51.5317V52.8692C134.359 53.2036 135.63 53.3374 136.633 53.3374C137.77 53.3374 140.378 53.1367 140.445 51.4648C140.445 50.3948 139.174 49.8598 137.703 49.1242Z" fill="#231815"/>
<path d="M58.7884 46.2485C57.384 46.2485 56.2471 46.6498 55.5115 47.4523C54.9096 48.0542 54.5752 48.9236 54.5752 49.8598C54.5752 52.0667 56.314 53.4042 59.2565 53.4042C60.1259 53.4042 61.3297 53.2705 62.2659 52.8024V51.398C61.4634 51.9999 60.3934 52.3342 59.2565 52.3342C57.8521 52.3342 56.7821 51.5317 56.6483 50.3948H62.8678C62.8678 49.8598 62.8678 49.3917 62.734 49.0573C62.2659 46.9842 60.3265 46.2485 58.7884 46.2485ZM56.6483 49.3248C56.7152 48.0542 57.5846 47.2517 58.7884 47.2517C59.9921 47.2517 60.7946 48.0542 60.8615 49.3248H56.6483Z" fill="#231815"/>
<path d="M84.2005 46.248C82.7961 46.248 81.6592 46.6493 80.9236 47.4518C80.3217 48.0537 79.9873 48.9231 79.9873 49.8593C79.9873 52.0662 81.7261 53.4038 84.6686 53.4038C85.538 53.4038 86.7418 53.27 87.678 52.8019V51.3975C86.8755 51.9994 85.8055 52.3337 84.6686 52.3337C83.2642 52.3337 82.1942 51.5312 82.0605 50.3943H88.2799C88.2799 49.8593 88.2799 49.3912 88.1462 49.0568C87.7449 46.9837 85.8055 46.248 84.2005 46.248ZM82.1273 49.3243C82.1942 48.0537 83.0636 47.2512 84.2674 47.2512C85.4711 47.2512 86.2736 48.0537 86.3405 49.3243H82.1273Z" fill="#231815"/>
<path d="M132.149 46.4489H130.343L127.334 49.3914V43.4395H125.261V53.2702H127.334V49.9933L130.544 53.2702H132.885L129.073 49.3914L132.149 46.4489Z" fill="#231815"/>
<path d="M75.373 51.9325L72.4974 46.4487H70.0898L73.4336 52.4676C73.768 53.0694 74.1693 53.2701 74.9049 53.2701H76.2424L79.9875 46.4487H78.2487L75.373 51.9325Z" fill="#231815"/>
<path d="M104.665 51.5982L102.926 46.4487H101.321L99.6488 51.5982H99.7826L98.0438 46.4487H95.8369L98.0438 52.2669C98.3113 53.0026 98.7795 53.2701 99.5151 53.2701H100.786L101.989 49.5919L102.926 52.4007C103.193 53.0694 103.528 53.2701 104.33 53.2701H105.668L108.075 46.4487H106.336L104.665 51.5982V51.5982Z" fill="#231815"/>
<path d="M112.823 46.3149C109.881 46.3149 108.276 47.5856 108.276 49.8594C108.276 52.1331 109.881 53.4038 112.823 53.4038C115.766 53.4038 117.371 52.1331 117.371 49.8594C117.438 47.5856 115.766 46.3149 112.823 46.3149ZM112.823 52.4006C111.218 52.4006 110.282 51.5313 110.282 49.9262C110.282 48.3212 111.152 47.4518 112.823 47.4518C114.428 47.4518 115.365 48.3212 115.365 49.9262C115.365 51.4644 114.495 52.4006 112.823 52.4006Z" fill="#231815"/>
<path d="M49.9604 47.9868C48.1547 47.1843 47.2185 46.783 47.2853 46.1811C47.3522 45.6461 48.2885 45.5124 49.4922 45.5124C50.5623 45.5124 52.1673 45.9136 53.1035 46.3818V44.9774C51.9667 44.643 50.2948 44.3755 49.2916 44.3755C47.0847 44.3755 44.9447 44.7099 44.7441 46.1811C44.5434 47.9199 46.3491 48.5218 48.3554 49.4581C49.8935 50.1937 51.0973 50.5949 50.9635 51.3975C50.8966 52.0662 50.161 52.3337 48.4891 52.2668C47.0178 52.2 45.4128 51.7987 44.4766 51.2637V52.735C45.3459 53.1362 47.0178 53.4706 48.6229 53.4706C50.0273 53.4706 53.3042 53.3368 53.4379 51.1968C53.6386 49.6587 51.9667 48.923 49.9604 47.9868Z" fill="#231815"/>
<path d="M26.6876 44.0414C30.5664 43.9745 34.1777 42.9714 37.3877 41.2995L37.3208 41.2326C34.9802 41.9014 31.9039 42.0351 28.8276 41.1657C26.0857 40.3632 23.1432 38.8919 20.3344 36.6182L20 36.7519C21.7388 38.3569 23.9457 40.8313 24.3469 44.0414C25.1494 44.0414 25.8851 44.1083 26.6876 44.0414Z" fill="#F8B500"/>
<path d="M44.344 35.8823C39.3283 41.6336 32.1726 45.4456 24.0806 46.1812C23.5456 47.1843 23.0106 48.5887 23.0775 50.3275C29.0963 48.5219 34.5132 45.5124 39.1945 41.6336L39.3952 41.7005C34.9145 46.2481 29.5644 49.9263 23.5456 52.3338C24.1475 53.6044 25.485 54.5407 27.0231 54.5407C34.0451 49.5919 40.0639 43.3055 44.5446 36.0161L44.344 35.8823Z" fill="#D00F31"/>
</svg>
