<!DOCTYPE svg PUBLIC "-//W3C//DTD SVG 20010904//EN" "http://www.w3.org/TR/2001/REC-SVG-20010904/DTD/svg10.dtd"[]><svg version="1.0" xmlns="http://www.w3.org/2000/svg" width="160" height="90" viewBox="0 0 318.000000 112.000000" preserveAspectRatio="xMidYMid meet"><g transform="translate(0.000000,112.000000) scale(0.100000,-0.100000)" fill="#000000" stroke="none"><path d="M510 899 c-141 -25 -252 -113 -275 -217 l-7 -33 124 7 c67 4 132 10 143 14 12 5 76 51 143 104 67 53 125 96 129 96 4 0 -27 -32 -68 -71 l-74 -71 83 62 c45 35 82 66 82 71 0 12 -96 37 -165 43 -33 3 -85 0 -115 -5z" /><path d="M720 777 l-85 -80 85 64 c118 90 126 92 40 9 l-75 -72 70 53 c39 28 77 57 85 62 8 6 -12 -18 -45 -53 l-60 -63 68 52 c38 29 71 51 73 48 3 -2 -28 -33 -67 -68 l-72 -64 54 -7 c30 -3 78 -6 108 -7 91 -2 49 -13 -85 -23 l-128 -9 -110 -86 c-159 -124 -160 -124 -61 -28 l90 88 -70 -55 c-134 -104 -152 -112 -70 -33 l80 77 -88 -66 c-48 -36 -90 -66 -94 -66 -4 0 24 30 62 66 l70 66 -65 -49 c-96 -73 -103 -72 -25 4 75 72 74 72 -23 -1 -35 -27 -65 -46 -68 -43 -2 2 25 30 61 62 37 32 63 61 58 65 -4 4 -52 10 -105 14 -111 7 -114 5 -78 -69 48 -102 156 -166 304 -181 201 -20 406 111 406 261 0 65 -60 158 -126 196 l-29 17 -85 -81z" /><path d="M1120 669 c0 -77 5 -149 10 -160 22 -40 61 -49 210 -49 l140 0 0 138 c0 200 -13 212 -230 212 l-130 0 0 -141z m268 -37 l3 -73 -83 3 -83 3 -3 73 -3 73 83 -3 83 -3 3 -73z" /><path d="M1502 638 l3 -173 48 -3 47 -3 0 125 0 126 80 0 80 0 0 -40 0 -40 -70 0 -70 0 0 -33 c0 -52 12 -57 132 -57 l108 0 0 90 c0 161 -23 180 -225 180 l-135 0 2 -172z" /><path d="M1860 781 c0 -54 8 -61 66 -61 l54 0 0 -130 0 -130 46 0 45 0 -3 130 -3 130 68 0 67 0 0 29 c0 62 3 61 -176 61 l-164 0 0 -29z" /><path d="M2220 664 l0 -146 29 -29 29 -29 146 0 146 0 0 34 c0 59 -17 66 -146 66 l-114 0 0 80 0 80 126 0 125 0 -3 43 -3 42 -167 3 -168 2 0 -146z" /><path d="M2580 777 c0 -38 15 -57 45 -57 33 0 45 -20 45 -77 0 -47 -5 -60 -45 -116 l-46 -62 47 -3 c25 -2 52 -1 59 2 11 4 255 330 255 341 0 3 -25 5 -55 5 -54 0 -56 -1 -88 -46 -28 -40 -33 -43 -42 -28 -5 10 -23 31 -39 46 -24 24 -37 28 -82 28 l-54 0 0 -33z" /><path d="M594 708 l-19 -23 23 19 c21 18 27 26 19 26 -2 0 -12 -10 -23 -22z" /><path d="M2332 638 l3 -43 103 -3 102 -3 0 34 c0 51 -13 57 -118 57 l-93 0 3 -42z" /><path d="M2802 586 c-31 -42 -33 -50 -22 -75 14 -36 48 -51 110 -51 50 0 50 0 50 33 0 45 -12 59 -56 66 -35 6 -40 10 -44 40 l-5 33 -33 -46z" /><path d="M1132 368 c-21 -21 -13 -47 19 -63 36 -19 33 -40 -5 -40 -31 1 -29 -19 3 -23 53 -8 69 49 21 76 -34 19 -34 35 -2 40 12 2 22 8 22 13 0 13 -44 11 -58 -3z" /><path d="M1572 371 c2 -7 7 -12 11 -12 12 1 9 15 -3 20 -7 2 -11 -2 -8 -8z" /><path d="M1944 366 c-10 -25 1 -119 14 -124 9 -3 12 15 12 67 0 66 -12 93 -26 57z" /><path d="M2682 371 c2 -7 7 -12 11 -12 12 1 9 15 -3 20 -7 2 -11 -2 -8 -8z" /><path d="M2590 343 c-10 -12 -11 -18 -2 -21 7 -2 12 -19 12 -38 0 -34 22 -56 38 -39 4 4 1 10 -5 12 -17 6 -17 60 -1 65 9 3 8 9 -4 21 -20 20 -19 20 -38 0z" /><path d="M1242 328 c-19 -19 -15 -66 7 -78 25 -13 61 -13 61 0 0 6 -11 10 -24 10 -14 0 -28 5 -31 10 -4 6 8 10 29 10 38 0 43 8 26 41 -12 21 -50 25 -68 7z m48 -13 c11 -13 8 -15 -15 -15 -23 0 -26 2 -15 15 7 8 14 15 15 15 1 0 8 -7 15 -15z" /><path d="M1350 288 c0 -56 17 -65 22 -11 2 27 8 39 21 41 14 3 17 -4 17 -38 0 -47 23 -53 28 -7 5 43 -14 67 -53 65 -35 -1 -35 -1 -35 -50z" /><path d="M1473 323 c-4 -10 2 -23 15 -34 27 -21 28 -29 2 -29 -11 0 -20 -4 -20 -10 0 -16 46 -11 61 6 12 14 9 20 -16 40 -28 23 -29 24 -7 24 12 0 22 5 22 10 0 17 -50 11 -57 -7z" /><path d="M1570 290 c0 -27 5 -50 10 -50 6 0 10 23 10 50 0 28 -4 50 -10 50 -5 0 -10 -22 -10 -50z" /><path d="M1630 288 c0 -60 23 -63 28 -4 3 29 7 36 20 34 12 -2 18 -15 20 -41 4 -48 22 -48 22 1 0 51 -10 62 -53 60 l-37 -1 0 -49z" /><path d="M1762 328 c-33 -33 2 -97 44 -81 12 4 15 2 12 -8 -3 -8 -18 -17 -34 -20 -24 -5 -26 -7 -11 -14 10 -4 29 -3 43 3 21 10 24 18 24 70 l0 59 -33 1 c-19 1 -39 -4 -45 -10z m53 -38 c0 -31 -31 -39 -40 -11 -8 26 2 43 23 39 11 -2 17 -13 17 -28z" /><path d="M2002 293 c4 -60 28 -71 28 -13 0 34 3 41 18 38 12 -2 18 -14 20 -41 5 -55 24 -45 20 11 l-3 47 -43 2 -43 2 3 -46z" /><path d="M2122 293 c4 -60 28 -71 28 -13 0 34 3 41 18 38 12 -2 18 -14 20 -41 5 -55 24 -45 20 11 l-3 47 -43 2 -43 2 3 -46z" /><path d="M2252 328 c-19 -19 -15 -66 7 -78 31 -16 49 -12 67 15 24 36 6 75 -34 75 -15 0 -33 -5 -40 -12z m56 -35 c-3 -31 -32 -43 -41 -18 -9 23 3 45 25 45 15 0 19 -6 16 -27z" /><path d="M2360 330 c0 -24 34 -90 44 -87 6 2 19 25 28 50 15 40 16 47 3 47 -8 0 -15 -8 -15 -17 0 -10 -5 -25 -10 -33 -7 -12 -12 -8 -21 18 -10 30 -29 44 -29 22z" /><path d="M2480 331 c0 -6 12 -11 28 -12 l27 -1 -27 -11 c-53 -21 -46 -68 8 -64 35 2 35 2 32 47 -3 43 -5 45 -35 48 -19 2 -33 -1 -33 -7z m50 -56 c0 -8 -7 -15 -15 -15 -8 0 -15 7 -15 15 0 8 7 15 15 15 8 0 15 -7 15 -15z" /><path d="M2680 290 c0 -27 5 -50 10 -50 6 0 10 23 10 50 0 28 -4 50 -10 50 -5 0 -10 -22 -10 -50z" /><path d="M2754 332 c-23 -14 -25 -49 -5 -73 16 -20 23 -22 47 -14 50 18 42 95 -10 95 -11 0 -26 -4 -32 -8z m51 -22 c10 -16 -5 -50 -21 -50 -17 0 -28 24 -20 45 6 17 32 20 41 5z" /><path d="M2860 288 c0 -56 17 -65 22 -11 2 26 8 39 20 41 13 2 17 -5 20 -35 4 -47 22 -50 26 -5 4 44 -12 62 -54 60 -34 -1 -34 -2 -34 -50z" /></g></svg>