<?xml version="1.0" encoding="utf-8"?>
<!-- Generator: Adobe Illustrator 21.0.2, SVG Export Plug-In . SVG Version: 6.00 Build 0)  -->
<svg version="1.1" id="header_x5F_logo" xmlns="http://www.w3.org/2000/svg" xmlns:xlink="http://www.w3.org/1999/xlink" x="0px"
	 y="0px" width="156.7px" height="62px" viewBox="0 0 156.7 62" style="enable-background:new 0 0 156.7 62;" xml:space="preserve">
<style type="text/css">
	.st0{fill:#231815;}
	.st1{fill:#E50012;}
	.st2{fill:none;}
	.st3{fill:#FFE33F;}
	.st4{fill:#3F3927;}
	.st5{fill:#FFFFFF;}
	.st6{fill:#F4B1B1;}
</style>
<g>
	<path class="st0" d="M59.3,17.2H42.9v-3.3h8.3L53,7.1h-8.4V3.7h12.7l-2.5,10.2h4.4L59.3,17.2L59.3,17.2z"/>
	<path class="st0" d="M72.9,1.3c-0.5,1.1-1,2.1-1.6,3.1s-1.2,2-1.9,3C70.1,8.1,70.6,8.6,71,9s0.9,0.9,1.3,1.3l-2.5,2.1
		c-0.4-0.5-0.8-0.9-1.2-1.3c-0.4-0.4-0.8-0.9-1.2-1.3c-0.9,0.9-1.8,1.8-2.8,2.6s-2,1.5-3.1,2.1l-2.3-2.4c1.1-0.6,2.1-1.3,3.1-2.1
		c1-0.7,1.9-1.5,2.7-2.4c-0.6-0.5-1.1-1-1.7-1.4c-0.6-0.4-1.2-0.9-1.9-1.4l2.4-2c0.4,0.3,0.9,0.7,1.4,1.1s1.1,0.9,1.8,1.4
		c0.6-0.8,1.1-1.7,1.6-2.6C69.1,1.9,69.6,1,70,0L72.9,1.3z"/>
	<path class="st0" d="M83.8,16.5l-1.2,2.6c-1.9-0.5-3.7-1-5.5-1.4s-3.6-0.7-5.3-0.9l1.1-2.6c1.3,0.2,2.5,0.4,3.8,0.6
		c1.3,0.3,2.8,0.6,4.7,1.1c0.2,0,0.5,0.1,1.1,0.3C83,16.3,83.5,16.4,83.8,16.5z M82.6,12.1l-1,2.4c-1.2-0.4-2.4-0.7-3.7-0.9
		c-1.3-0.2-2.6-0.5-4.1-0.7l1.1-2.5c1.3,0.2,2.5,0.4,3.8,0.7C80,11.4,81.3,11.7,82.6,12.1z M84.3,8.2l-1.1,2.5
		c-0.6-0.2-1.2-0.3-1.8-0.5c-0.6-0.2-1.3-0.3-1.9-0.5c-0.8-0.2-1.6-0.3-2.4-0.5c-0.8-0.1-1.9-0.3-3.1-0.5l1-2.5
		c1.4,0.2,2.8,0.5,4.3,0.8S82.4,7.7,84.3,8.2z"/>
	<path class="st0" d="M90.5,3.2c0,2,0,3.8-0.1,5.4s-0.3,3-0.7,4.3c-0.3,0.9-0.7,1.7-1.1,2.4s-1.1,1.4-1.8,2.1L84.7,15
		c1-1,1.6-1.9,2-2.9s0.6-2.2,0.7-3.7c0-0.8,0.1-1.5,0.1-2.3s0-1.7,0-2.9L90.5,3.2L90.5,3.2z M100.4,9c-0.5,1.4-1,2.6-1.6,3.5
		c-0.5,1-1.2,1.8-2,2.6c-0.8,0.7-1.5,1.1-2.2,1.4s-1.7,0.5-2.9,0.7V2.5h2.9v10.4c0.8-0.8,1.4-1.7,1.9-2.6c0.5-0.9,0.9-2.1,1.3-3.4
		L100.4,9z"/>
	<path class="st0" d="M104.7,17.5l-2.2,1.3c-0.4-0.7-0.8-1.4-1.2-2c-0.4-0.6-0.9-1.1-1.3-1.6l1.9-1.2c0.5,0.6,1,1.1,1.5,1.7
		C103.8,16.3,104.3,16.9,104.7,17.5z"/>
	<path class="st0" d="M126.8,11h-5.7c-0.4,1.9-1,3.3-1.9,4.2c-0.9,1-2.2,1.8-4.1,2.6l-2-2.5c1.3-0.5,2.4-1,3.1-1.7
		c0.8-0.6,1.3-1.5,1.6-2.6h-6.1V8h6.3c0-0.2,0-0.4,0-0.6s0-0.4,0-0.6c-0.8,0.1-1.5,0.1-2.3,0.2s-1.5,0.1-2.3,0.2l-1-2.9
		c2.2-0.1,4.3-0.3,6.2-0.6c1.9-0.2,3.8-0.6,5.6-1.1l1.4,2.6c-0.9,0.2-1.7,0.4-2.4,0.6c-0.7,0.2-1.4,0.3-2.1,0.5V8h5.5v3H126.8z"/>
	<path class="st0" d="M140,9.3c0,1.6-0.1,3.4-0.2,5.4c-0.1,2-0.3,3.2-0.6,3.8c-0.2,0.4-0.5,0.7-0.9,0.9c-0.4,0.2-0.7,0.3-1.2,0.4
		c-0.4,0.1-0.9,0.1-1.5,0.1s-1,0-1.1,0l-0.6-2.8h1.7c0.6,0,1.1-0.1,1.2-0.4c0.1-0.3,0.3-0.8,0.3-1.5c0-0.5,0.1-1.1,0.1-1.6
		s0.1-1.1,0.1-1.7h-2.6c-0.3,2-0.8,3.6-1.5,4.8s-1.9,2.3-3.6,3.3l-1.9-2.3c1.3-0.8,2.3-1.6,2.9-2.4c0.6-0.8,1.1-2,1.4-3.4h-4V9.3
		h4.2c0-0.4,0-0.7,0-1.1c0-0.4,0-0.8,0-1.4h2.7c0,0.5,0,1,0,1.4c0,0.4,0,0.7,0,1.1H140L140,9.3z"/>
	<path class="st0" d="M155.2,5.1c-0.3,3.5-1.4,5.9-3.3,7.3c-1.9,1.4-4.7,2.3-8.4,2.6l-1.3-3c1.7,0,3.1-0.2,4.4-0.4
		c1.2-0.2,2.4-0.7,3.3-1.5c0.3-0.3,0.6-0.6,0.8-0.9c0.2-0.3,0.5-0.7,0.7-1.2h-10.7V5L155.2,5.1L155.2,5.1z M153.9,4.1h-11.8V1.2
		h11.8V4.1z"/>
	<g>
		<g>
			<path class="st1" d="M106,62h-3.5V49.1H89.4V62h-3.5V35.7h3.5V46h13.1V35.7h3.5V62L106,62z"/>
			<path class="st0" d="M132.6,38.8h-9.4V62h-3.5V38.8h-9.4v-3.1h22.3V38.8L132.6,38.8z"/>
			<path class="st0" d="M150.5,44c-0.2,0.6-0.6,1-1.2,1.4c-0.6,0.3-1.2,0.6-1.8,0.7c-0.6,0.1-1.5,0.2-2.6,0.2h-4.5v-7.5h4.2
				c1.2,0,2.1,0,2.9,0.1c0.8,0.1,1.5,0.3,2,0.6s0.8,0.6,1,1.1c0.2,0.4,0.3,1,0.3,1.6C150.8,42.8,150.7,43.5,150.5,44z M155.2,49.4
				c-1-1.2-2.4-2-4.2-2.3V47c1.1-0.5,1.9-1.3,2.5-2.1c0.6-0.9,1-1.9,1-3.2c0-1.1-0.2-2.1-0.7-2.9c-0.4-0.8-1.1-1.4-2.1-2
				c-0.9-0.4-1.8-0.7-2.7-0.9c-1-0.1-2.4-0.2-4.3-0.2h-7.8V62h9.3c1.8,0,3.3-0.2,4.5-0.5s2.3-0.9,3.3-1.7c0.8-0.6,1.5-1.5,2-2.5
				s0.7-2.2,0.7-3.5C156.7,52.1,156.2,50.6,155.2,49.4z M152.6,56.3c-0.3,0.6-0.8,1.1-1.4,1.5c-0.6,0.4-1.4,0.7-2.4,0.9
				s-2.2,0.2-3.8,0.2h-4.6v-9.6h5.5c1.2,0,2.1,0,3,0.1c0.8,0.1,1.5,0.3,2.1,0.6c0.8,0.4,1.4,0.9,1.7,1.6c0.3,0.6,0.5,1.4,0.5,2.5
				C153.1,55,152.9,55.7,152.6,56.3z"/>
		</g>
	</g>
	<path class="st0" d="M21.8,27.6V62h59.7V27.6H21.8z M79.7,29.4c0,1.7,0,29,0,30.7c-1.7,0-54.3,0-56,0c0-1.7,0-29,0-30.7
		C25.4,29.4,78,29.4,79.7,29.4z"/>
	<path class="st2" d="M79.7,29.4c0,1.7,0,29,0,30.7c-1.7,0-54.3,0-56,0c0-1.7,0-29,0-30.7C25.4,29.4,78,29.4,79.7,29.4z"/>
	<g>
		<path class="st2" d="M47.4,59.2c0,0.3-0.1,0.7-0.1,1H49c0-0.1,0-0.3,0-0.4C48.5,59.6,47.9,59.4,47.4,59.2z"/>
		<path class="st3" d="M28.6,34.9c-0.9,0.5-1.8,1.2-1.5,2.3c0.2,0.9,0.7,1.8,1.3,2.4c0.8,0.8,1.9,1.8,3.1,1.9
			c-0.1-1.2,0-2.5,0.1-3.7c-0.1-0.2-0.2-0.3-0.3-0.5C30.8,36.4,30.1,34.1,28.6,34.9z"/>
		<path class="st3" d="M71.3,56.8c0,0,0.4-0.4,0.5-0.6c3.3-3.6,4.4-8.4,3.8-13.2c-0.9-6-3.7-11.2-8.8-14.8
			C62.2,24.9,56.7,22.7,51,23c-5,0.3-10.2,2.2-13.7,5.9c-6,6.3-6.4,16-0.4,22.2c1.6,1.3,10.3,6.5,10.3,6.5s0.6,0.2,0.9,0.4
			c0.4,0.1,1.1,0.4,1.1,0.4l14.1,1.7H65L71.3,56.8z"/>
		<path class="st4" d="M40.1,31c-2.1,0.9-4,3.3-4.3,5.7c-0.3,2.9,1.9,4.5,4.3,4.3c2.4-0.3,4-3.8,4.4-6.4
			C44.9,32.1,42.9,29.9,40.1,31z"/>
		<path class="st5" d="M41.8,33.2c-0.3-0.2-1.1,0-1.3,0.1c-1,0.5-1.8,1.9-2.1,3c-0.2,0.7,0.4,2.4,1.6,2c1-0.3,1.7-1.6,2.1-2.6
			C42.2,35.4,43,34,41.8,33.2z"/>
		<path class="st4" d="M67.2,53.3c2-1.4,3.7-5,2.7-7.4c-0.5-1.3-1.5-2.1-2.7-2.5c0.7-1.2-1.1-2.7-2.4-1.7c-0.9,0.8-1.6,1.7-2.3,2.6
			c-0.1,0.1-0.2,0.2-0.2,0.4c-0.7,1.1-1.2,2.2-1.8,3.3c-0.9,1.7,1.6,3.1,2.5,1.5c0.6-1.1,1.1-2.3,1.8-3.3c0.9-0.7,2.3,0,2.5,0.9
			s-0.8,3.1-1.5,3.6C64.2,51.9,65.7,54.4,67.2,53.3z"/>
		<path class="st3" d="M71.2,58.7c-1.6-2.9-4.9-1.2-5.1,1.5h5.3C71.5,60.2,71.4,59.2,71.2,58.7z"/>
		<path class="st4" d="M50.9,58c1.1-2.3,3.6-3.6,6.1-3.8c3.1-0.3,5.1,1.9,5.3,4.9c0,0.4,0,1.1,0,1.1h1.2c0,0,0.1-0.8,0-1.1
			c-0.7-8.2-11.3-7.5-14-0.9c0,0.1-0.1,0.2-0.1,0.3c-0.4-0.1-0.8-0.3-1.1-0.4c-0.3-0.1-0.6-0.2-0.9-0.4c-0.3-2-1.2-4-2.5-5.5
			l-0.1-0.1L44.7,52c-2.3-2-5.2-2.2-7.6-0.8c-6-6.2-5.6-16,0.4-22.2c3.5-3.7,8.7-5.6,13.7-5.9c5.7-0.3,11.2,1.9,15.8,5.2
			c5.1,3.6,7.9,8.7,8.8,14.8c0.6,4.8-0.5,9.5-3.8,13.2c-0.2,0.2-0.4,0.4-0.5,0.6c-1.2-1-2.8-1.1-4.3-0.2c-1.3,0.8-2,2.3-2,3.6h1.1
			c0.2-2.7,3.6-4.4,5.1-1.5c0.2,0.5,0.3,1.5,0.2,1.5h1.3c0-1.3,0-1.3-0.3-2c0,0,0-0.1-0.1-0.2c0,0,0-0.1-0.1-0.1l-0.1-0.1
			c4-3.7,5.5-9.4,4.8-14.8V43v-0.1c-0.7-4.8-2.4-8.8-5.7-12.4c-3.3-3.6-7.9-6.2-12.6-7.6c-8.5-2.6-18.5,0.3-23.8,7.4
			c-1.6,1.7-2.5,3.7-3,5.8c-0.3-0.7-0.6-1.3-1-1.8c-1.3-1.6-3.8-0.7-4.7,0.8c-1.9,3,2,7.4,5.4,7.7c0.4,2.9,1.6,5.7,3.5,8.1
			c0.3,0.3,0.6,0.7,0.9,1c-0.7,0.6-1.3,1.4-1.8,2.3c-1,2-1,4.6-0.3,6h1.4c-0.4-1.3-0.6-2-0.6-2.9c0.1-4.7,5.5-7.5,9.1-4.2
			c1.6,1.7,2.5,4.5,2.2,7.1h1.3c0,0,0.1-0.7,0.1-1c0.5,0.2,1.1,0.4,1.7,0.6c0,0.1,0,0.4,0,0.4h1.3C50.4,58.9,50.6,58.7,50.9,58z
			 M31.5,41.6c-1.2-0.2-2.4-1.1-3.1-1.9c-0.6-0.7-1.1-1.5-1.3-2.4c-0.3-1.2,0.6-1.9,1.5-2.3c1.5-0.8,2.2,1.6,2.7,2.5
			c0.1,0.2,0.2,0.3,0.3,0.5C31.4,39.1,31.4,40.3,31.5,41.6z"/>
		<path class="st3" d="M56.9,54.2c-2.4,0.2-5,1.6-6.1,3.8c-0.3,0.7-0.5,0.8-0.5,2.2h11.9c0,0,0-0.8,0-1.1C62,56.1,60,53.9,56.9,54.2
			z"/>
		<path class="st3" d="M43.8,53.1c-3.6-3.3-9-0.5-9.1,4.2c0,1,0.2,1.6,0.6,2.9H46C46.3,57.6,45.4,54.8,43.8,53.1z"/>
		<path class="st4" d="M45,41.4c-0.2,0-0.4,0.1-0.5,0.4c-0.3,2.1-0.6,3.8,0.2,5.8c0.9,2.2,3.2,3.6,5.5,3.8h0.1l0,0
			c2.9,0,5.1-1.8,6.7-4.1c0.1-0.2,0.1-0.5-0.1-0.6C53.5,44.3,49.2,42.2,45,41.4z"/>
		<path class="st6" d="M45.3,46.8c0.9,2.2,2.7,3.6,5,3.8c2.5,0,4.3-1.5,5.8-3.4c-3.2-2.1-7.1-4-10.9-4.8
			C45,43.8,44.7,45.3,45.3,46.8z"/>
	</g>
	<path class="st1" d="M20.6,14.2c-0.8-2.6-2.3-3.6-5-3.6s-4.7,1.3-5.9,3.8c-0.7,1.5-1,2.8-1.3,5.4c1.1-1.1,1.7-1.5,2.8-2
		c1.7-0.8,3.6-1.1,5.8-1.1c8-0.1,13,4.7,13,12.2c0,7.6-6,12.9-14.6,12.9c-4.6,0-8.4-1.5-11-4.4C1.5,34.1,0,29.2,0,23.3
		c0-5.5,1.4-10.7,3.6-13.8c2.9-4,6.9-5.9,12.4-5.9c4.3,0,7.9,1.4,10.3,3.9c1.3,1.4,2,2.6,2.9,4.9L20.6,14.2z M9.3,29.2
		c0,3.2,2.6,5.6,6.1,5.6c3.6,0,6.2-2.3,6.2-5.7s-2.3-5.4-6.1-5.4C11.7,23.6,9.3,25.8,9.3,29.2z"/>
</g>
</svg>
