<svg width="230" height="161" viewBox="0 0 230 161" fill="none" xmlns="http://www.w3.org/2000/svg">
<path fill-rule="evenodd" clip-rule="evenodd" d="M110.998 125.2H89.5014V124.5H110.998V125.2Z" fill="#2C48FF"/>
<path fill-rule="evenodd" clip-rule="evenodd" d="M89.8513 160.223V124.851H89.1513V160.923H111.349V124.851H110.649V160.223H89.8513Z" fill="#2C48FF"/>
<path fill-rule="evenodd" clip-rule="evenodd" d="M118.652 84.5303H140.849V160.923H118.652V84.5303ZM119.352 85.2303V160.223H140.149V85.2303H119.352Z" fill="#2C48FF"/>
<path fill-rule="evenodd" clip-rule="evenodd" d="M148.152 97.979H170.349V160.922H148.152V97.979ZM148.852 98.679V160.222H169.649V98.679H148.852Z" fill="#2C48FF"/>
<path fill-rule="evenodd" clip-rule="evenodd" d="M30.1505 97.979H52.3473V160.922H30.1505V97.979ZM30.8505 98.679V160.222H51.6473V98.679H30.8505Z" fill="#2C48FF"/>
<path fill-rule="evenodd" clip-rule="evenodd" d="M177.653 110.857H199.849V160.922H177.653V110.857ZM178.353 111.557V160.222H199.149V111.557H178.353Z" fill="#2C48FF"/>
<path fill-rule="evenodd" clip-rule="evenodd" d="M59.6509 110.857H81.8477V160.922H59.6509V110.857ZM60.3509 111.557V160.222H81.1477V111.557H60.3509Z" fill="#2C48FF"/>
<path fill-rule="evenodd" clip-rule="evenodd" d="M207.153 127.31H229.35V160.922H207.153V127.31ZM207.853 128.01V160.222H228.65V128.01H207.853Z" fill="#2C48FF"/>
<path fill-rule="evenodd" clip-rule="evenodd" d="M0.649994 127.31H22.8468V160.922H0.649994V127.31ZM1.34999 128.01V160.222H22.1468V128.01H1.34999Z" fill="#2C48FF"/>
<path fill-rule="evenodd" clip-rule="evenodd" d="M217.902 115.888V64.1621H218.602V115.888H217.902Z" fill="#2C48FF"/>
<path fill-rule="evenodd" clip-rule="evenodd" d="M207.884 106.015L208.379 105.52L218.252 115.392L228.124 105.52L228.619 106.014L218.252 116.382L207.884 106.015Z" fill="#2C48FF"/>
<path fill-rule="evenodd" clip-rule="evenodd" d="M192.287 50.334V74.5989H191.587V50.334H192.287Z" fill="#2C48FF"/>
<path fill-rule="evenodd" clip-rule="evenodd" d="M191.937 49.8384L202.305 60.2063L201.81 60.7012L191.937 50.8283L182.065 60.7012L181.57 60.2063L191.937 49.8384Z" fill="#2C48FF"/>
<path fill-rule="evenodd" clip-rule="evenodd" d="M99.8998 118.168V97.2939H100.6V118.168H99.8998Z" fill="#2C48FF"/>
<path fill-rule="evenodd" clip-rule="evenodd" d="M105.283 113.63L100.25 118.663L95.2171 113.63L95.7121 113.135L100.25 117.673L104.788 113.135L105.283 113.63Z" fill="#2C48FF"/>
<path fill-rule="evenodd" clip-rule="evenodd" d="M11.3984 120.044V106.795H12.0984V120.044H11.3984Z" fill="#2C48FF"/>
<path fill-rule="evenodd" clip-rule="evenodd" d="M16.9809 115.307L11.7482 120.54L6.51562 115.307L7.0106 114.812L11.7482 119.55L16.4859 114.812L16.9809 115.307Z" fill="#2C48FF"/>
<path d="M82.054 64.5222C81.896 64.2134 81.5775 64.0199 81.2306 64.0221H81.2269C80.8798 64.0209 80.5618 64.2159 80.4053 64.5258L72.6778 80.2182C72.5428 80.4922 72.5623 80.8171 72.7291 81.073C72.9009 81.3325 73.1919 81.4878 73.503 81.4863H80.8901C81.2406 81.4891 81.5621 81.2924 81.7191 80.979L85.763 72.6948C85.8798 72.4525 85.8785 72.1698 85.7594 71.9287L82.054 64.5222ZM100.05 74.3921H97.7449L87.818 53.6238C87.6622 53.3067 87.3386 53.1069 86.9854 53.1095H78.0924C77.5949 53.102 77.1855 53.4989 77.1774 53.9963L77.1719 59.3169C77.1734 59.5538 77.2704 59.7802 77.4408 59.9447C77.6145 60.1115 77.8461 60.2043 78.0868 60.2036H82.1271L92.1016 80.9736C92.257 81.2891 92.5789 81.4881 92.9306 81.4862H100.051C100.548 81.4937 100.957 81.0968 100.965 80.5994V75.2788C100.957 74.7814 100.548 74.3846 100.05 74.3921Z" stroke="#2C48FF" stroke-width="0.7" stroke-miterlimit="10"/>
<path fill-rule="evenodd" clip-rule="evenodd" d="M86.1736 43.0125C71.9931 43.0125 60.4974 54.5081 60.4974 68.6887V68.6887C60.4974 82.8693 71.993 94.3649 86.1736 94.3649H86.1736C100.354 94.3649 111.85 82.8693 111.85 68.6887V68.6887C111.85 54.5081 100.354 43.0125 86.1736 43.0125ZM59.7974 68.6887C59.7974 54.1215 71.6065 42.3125 86.1736 42.3125C100.741 42.3125 112.55 54.1215 112.55 68.6887V68.6887C112.55 83.2559 100.741 95.0649 86.1736 95.0649H86.1736C71.6064 95.0649 59.7974 83.2559 59.7974 68.6887V68.6887Z" fill="#2C48FF"/>
<path fill-rule="evenodd" clip-rule="evenodd" d="M27.0612 22.1512C21.9988 22.1512 17.8949 26.2551 17.8949 31.3176C17.8949 36.38 21.9988 40.4839 27.0612 40.4839C32.1237 40.4839 36.2276 36.38 36.2276 31.3176C36.2276 26.2551 32.1237 22.1512 27.0612 22.1512ZM17.1949 31.3176C17.1949 25.8685 21.6122 21.4512 27.0612 21.4512C32.5103 21.4512 36.9276 25.8685 36.9276 31.3176C36.9276 36.7666 32.5103 41.1839 27.0612 41.1839C21.6122 41.1839 17.1949 36.7666 17.1949 31.3176Z" fill="#2C48FF"/>
<path fill-rule="evenodd" clip-rule="evenodd" d="M31.4685 28.7763L25.6421 34.602L22.6541 31.6141L23.1491 31.1191L25.6421 33.6121L30.9736 28.2812L31.4685 28.7763Z" fill="#2C48FF"/>
<path fill-rule="evenodd" clip-rule="evenodd" d="M20.2802 55.7049C17.1994 55.7049 14.702 58.2023 14.7019 61.2831C14.7019 64.3639 17.1994 66.8614 20.2802 66.8614C23.3609 66.8614 25.8584 64.3639 25.8584 61.2831C25.8584 58.2024 23.3609 55.7049 20.2802 55.7049ZM14.0019 61.2831C14.002 57.8157 16.8128 55.0049 20.2802 55.0049C23.7475 55.0049 26.5584 57.8158 26.5584 61.2831C26.5584 64.7505 23.7475 67.5614 20.2802 67.5614C16.8128 67.5614 14.0019 64.7505 14.0019 61.2831Z" fill="#2C48FF"/>
<path fill-rule="evenodd" clip-rule="evenodd" d="M23.1191 59.7934L19.3958 63.5159L17.4415 61.5616L17.9364 61.0666L19.3958 62.526L22.6241 59.2983L23.1191 59.7934Z" fill="#2C48FF"/>
<path fill-rule="evenodd" clip-rule="evenodd" d="M165.091 38.3626C160.029 38.3626 155.925 42.4665 155.925 47.529C155.925 52.5914 160.029 56.6954 165.091 56.6954C170.154 56.6954 174.258 52.5914 174.258 47.529C174.258 42.4665 170.154 38.3626 165.091 38.3626ZM155.225 47.529C155.225 42.0799 159.642 37.6626 165.091 37.6626C170.541 37.6626 174.958 42.0799 174.958 47.529C174.958 52.978 170.541 57.3954 165.091 57.3954C159.642 57.3954 155.225 52.978 155.225 47.529Z" fill="#2C48FF"/>
<path fill-rule="evenodd" clip-rule="evenodd" d="M169.499 44.9862L163.672 50.8127L160.684 47.8247L161.179 47.3298L163.672 49.8227L169.004 44.4912L169.499 44.9862Z" fill="#2C48FF"/>
<path fill-rule="evenodd" clip-rule="evenodd" d="M68.4319 1.3499C63.9689 1.3499 60.3509 4.96785 60.3509 9.43085C60.3509 13.8938 63.9689 17.5118 68.4319 17.5118C72.8949 17.5118 76.5128 13.8938 76.5128 9.43085C76.5128 4.96785 72.8949 1.3499 68.4319 1.3499ZM59.6509 9.43085C59.6509 4.58125 63.5823 0.649902 68.4319 0.649902C73.2815 0.649902 77.2128 4.58125 77.2128 9.43085C77.2128 14.2804 73.2815 18.2118 68.4319 18.2118C63.5823 18.2118 59.6509 14.2804 59.6509 9.43085Z" fill="#2C48FF"/>
<path fill-rule="evenodd" clip-rule="evenodd" d="M72.3645 7.20738L67.1745 12.3973L64.4995 9.72159L64.9946 9.22669L67.1746 11.4073L71.8695 6.7124L72.3645 7.20738Z" fill="#2C48FF"/>
<path fill-rule="evenodd" clip-rule="evenodd" d="M119.002 5.54863C112.381 5.54863 107.014 10.9158 107.014 17.5367C107.014 24.1575 112.381 29.5247 119.002 29.5247C125.623 29.5247 130.99 24.1575 130.99 17.5367C130.99 10.9159 125.623 5.54863 119.002 5.54863ZM106.314 17.5367C106.314 10.5292 111.994 4.84863 119.002 4.84863C126.009 4.84863 131.69 10.5293 131.69 17.5367C131.69 24.5441 126.009 30.2247 119.002 30.2247C111.994 30.2247 106.314 24.5441 106.314 17.5367Z" fill="#2C48FF"/>
<path fill-rule="evenodd" clip-rule="evenodd" d="M124.642 14.1673L117.162 21.648L113.361 17.8473L113.856 17.3523L117.162 20.658L124.147 13.6724L124.642 14.1673Z" fill="#2C48FF"/>
<path fill-rule="evenodd" clip-rule="evenodd" d="M64.3118 54.6096L34.3262 37.5548L34.6723 36.9463L64.6579 54.0012L64.3118 54.6096Z" fill="#2C48FF"/>
<path fill-rule="evenodd" clip-rule="evenodd" d="M60.096 68.033L26.0883 62.981L26.1912 62.2886L60.1988 67.3406L60.096 68.033Z" fill="#2C48FF"/>
<path fill-rule="evenodd" clip-rule="evenodd" d="M113.899 28.8334L101.255 47.47L100.676 47.077L113.319 28.4404L113.899 28.8334Z" fill="#2C48FF"/>
<path fill-rule="evenodd" clip-rule="evenodd" d="M71.0852 17.438L78.7973 43.7266L78.1256 43.9236L70.4135 17.635L71.0852 17.438Z" fill="#2C48FF"/>
<path fill-rule="evenodd" clip-rule="evenodd" d="M155.994 50.3302L111.542 62.8029L111.353 62.1289L155.805 49.6562L155.994 50.3302Z" fill="#2C48FF"/>
<path fill-rule="evenodd" clip-rule="evenodd" d="M205.339 94.0096L173.617 74.2967L173.987 73.7021L205.708 93.4151L205.339 94.0096Z" fill="#2C48FF"/>
<path fill-rule="evenodd" clip-rule="evenodd" d="M171.109 74.0135L156.341 79.8672L156.083 79.2164L170.851 73.3628L171.109 74.0135Z" fill="#2C48FF"/>
<path fill-rule="evenodd" clip-rule="evenodd" d="M153.23 79.6844L135.658 70.6197L135.979 69.9976L153.55 79.0623L153.23 79.6844Z" fill="#2C48FF"/>
<path fill-rule="evenodd" clip-rule="evenodd" d="M170.63 71.8397C170.63 71.6464 170.787 71.4897 170.98 71.4897H173.802C173.995 71.4897 174.152 71.6464 174.152 71.8397V74.6615C174.152 74.8548 173.995 75.0115 173.802 75.0115H170.98C170.787 75.0115 170.63 74.8548 170.63 74.6615V71.8397ZM171.33 72.1897V74.3115H173.452V72.1897H171.33Z" fill="#2C48FF"/>
<path fill-rule="evenodd" clip-rule="evenodd" d="M153.04 78.5414C153.04 78.3481 153.197 78.1914 153.39 78.1914H156.212C156.405 78.1914 156.562 78.3481 156.562 78.5414V81.3631C156.562 81.5564 156.405 81.7131 156.212 81.7131H153.39C153.197 81.7131 153.04 81.5564 153.04 81.3631V78.5414ZM153.74 78.8914V81.0131H155.862V78.8914H153.74Z" fill="#2C48FF"/>
<path fill-rule="evenodd" clip-rule="evenodd" d="M132.628 68.6889C132.628 68.4956 132.784 68.3389 132.978 68.3389H135.799C135.993 68.3389 136.149 68.4956 136.149 68.6889V71.5106C136.149 71.7039 135.993 71.8606 135.799 71.8606H132.978C132.784 71.8606 132.628 71.7039 132.628 71.5106V68.6889ZM133.328 69.0389V71.1606H135.449V69.0389H133.328Z" fill="#2C48FF"/>
<path fill-rule="evenodd" clip-rule="evenodd" d="M205.173 93.1718C205.173 92.9785 205.33 92.8218 205.523 92.8218H208.345C208.538 92.8218 208.695 92.9785 208.695 93.1718V95.9934C208.695 96.1867 208.538 96.3434 208.345 96.3434H205.523C205.33 96.3434 205.173 96.1867 205.173 95.9934V93.1718ZM205.873 93.5218V95.6434H207.995V93.5218H205.873Z" fill="#2C48FF"/>
<path fill-rule="evenodd" clip-rule="evenodd" d="M133.309 69.9881C133.371 70.1712 133.273 70.3698 133.09 70.4317L110.727 77.9848C110.544 78.0467 110.345 77.9484 110.283 77.7653C110.221 77.5821 110.32 77.3835 110.503 77.3217L132.866 69.7685C133.049 69.7066 133.247 69.805 133.309 69.9881Z" fill="#2C48FF"/>
<path fill-rule="evenodd" clip-rule="evenodd" d="M122.573 44.585L154.294 20.2515L154.72 20.8069L122.999 45.1404L122.573 44.585Z" fill="#2C48FF"/>
<path fill-rule="evenodd" clip-rule="evenodd" d="M157.486 20.2163L192.667 37.8498L192.353 38.4756L157.172 20.8421L157.486 20.2163Z" fill="#2C48FF"/>
<path fill-rule="evenodd" clip-rule="evenodd" d="M154.157 19.1186C154.157 18.9253 154.314 18.7686 154.507 18.7686H157.329C157.522 18.7686 157.679 18.9253 157.679 19.1186V21.9403C157.679 22.1336 157.522 22.2903 157.329 22.2903H154.507C154.314 22.2903 154.157 22.1336 154.157 21.9403V19.1186ZM154.857 19.4686V21.5903H156.979V19.4686H154.857Z" fill="#2C48FF"/>
<path fill-rule="evenodd" clip-rule="evenodd" d="M192.16 36.7519C192.16 36.5586 192.316 36.4019 192.51 36.4019H195.331C195.525 36.4019 195.681 36.5586 195.681 36.7519V39.5736C195.681 39.7669 195.525 39.9236 195.331 39.9236H192.51C192.316 39.9236 192.16 39.7669 192.16 39.5736V36.7519ZM192.86 37.1019V39.2236H194.981V37.1019H192.86Z" fill="#2C48FF"/>
<path fill-rule="evenodd" clip-rule="evenodd" d="M216.863 21.932C216.863 21.7387 217.019 21.582 217.213 21.582H220.034C220.228 21.582 220.384 21.7387 220.384 21.932V24.7538C220.384 24.9471 220.228 25.1038 220.034 25.1038H217.213C217.019 25.1038 216.863 24.9471 216.863 24.7538V21.932ZM217.563 22.282V24.4038H219.684V22.282H217.563Z" fill="#2C48FF"/>
<path fill-rule="evenodd" clip-rule="evenodd" d="M119.614 44.8627C119.614 44.6694 119.771 44.5127 119.964 44.5127H122.786C122.979 44.5127 123.136 44.6694 123.136 44.8627V47.6844C123.136 47.8777 122.979 48.0344 122.786 48.0344H119.964C119.771 48.0344 119.614 47.8777 119.614 47.6844V44.8627ZM120.314 45.2127V47.3344H122.436V45.2127H120.314Z" fill="#2C48FF"/>
<path fill-rule="evenodd" clip-rule="evenodd" d="M217.511 24.571C217.612 24.7358 217.56 24.9513 217.395 25.0523L195.514 38.4613C195.35 38.5623 195.134 38.5106 195.033 38.3457C194.932 38.1809 194.984 37.9654 195.149 37.8644L217.03 24.4554C217.194 24.3544 217.41 24.4062 217.511 24.571Z" fill="#2C48FF"/>
<path fill-rule="evenodd" clip-rule="evenodd" d="M3.68236 99.4141L26.8389 80.3633L27.2837 80.9039L4.12708 99.9547L3.68236 99.4141Z" fill="#2C48FF"/>
<path fill-rule="evenodd" clip-rule="evenodd" d="M30.0293 79.4062L60.4346 93.394L60.1421 94.0299L29.7367 80.0422L30.0293 79.4062Z" fill="#2C48FF"/>
<path fill-rule="evenodd" clip-rule="evenodd" d="M62.9841 93.3857L71.6476 90.0454L71.8994 90.6985L63.2359 94.0389L62.9841 93.3857Z" fill="#2C48FF"/>
<path fill-rule="evenodd" clip-rule="evenodd" d="M26.7113 77.8114C26.7113 77.6181 26.868 77.4614 27.0613 77.4614H29.883C30.0763 77.4614 30.233 77.6181 30.233 77.8114V80.6331C30.233 80.8264 30.0763 80.9832 29.883 80.9832H27.0613C26.868 80.9832 26.7113 80.8264 26.7113 80.6331V77.8114ZM27.4113 78.1614V80.2831H29.533V78.1614H27.4113Z" fill="#2C48FF"/>
<path fill-rule="evenodd" clip-rule="evenodd" d="M59.9383 92.3012C59.9383 92.1079 60.095 91.9512 60.2883 91.9512H63.11C63.3033 91.9512 63.46 92.1079 63.46 92.3012V95.1228C63.46 95.3161 63.3033 95.4728 63.11 95.4728H60.2883C60.095 95.4728 59.9383 95.3161 59.9383 95.1228V92.3012ZM60.6383 92.6512V94.7728H62.76V92.6512H60.6383Z" fill="#2C48FF"/>
<path fill-rule="evenodd" clip-rule="evenodd" d="M0.732986 99.1439C0.732986 98.9506 0.889687 98.7939 1.08299 98.7939H3.90471C4.09801 98.7939 4.25471 98.9506 4.25471 99.1439V101.966C4.25471 102.159 4.09801 102.316 3.90471 102.316H1.08299C0.889687 102.316 0.732986 102.159 0.732986 101.966V99.1439ZM1.43299 99.4939V101.616H3.55471V99.4939H1.43299Z" fill="#2C48FF"/>
</svg>
