<svg width="230" height="153" viewBox="0 0 230 153" fill="none" xmlns="http://www.w3.org/2000/svg">
<path d="M90.001 116.487H111.374" stroke="#2C48FF" stroke-width="0.8" stroke-miterlimit="10"/>
<path d="M111.374 116.487V151.998H90.001V116.487" stroke="#2C48FF" stroke-width="0.8" stroke-miterlimit="10"/>
<path d="M140.712 76.7285H119.339V151.999H140.712V76.7285Z" stroke="#2C48FF" stroke-width="0.8" stroke-miterlimit="10"/>
<path d="M170.05 90.0703H148.677V151.999H170.05V90.0703Z" stroke="#2C48FF" stroke-width="0.8" stroke-miterlimit="10"/>
<path d="M199.389 102.881H178.016V151.999H199.389V102.881Z" stroke="#2C48FF" stroke-width="0.8" stroke-miterlimit="10"/>
<path d="M228.727 119.276H207.354V152H228.727V119.276Z" stroke="#2C48FF" stroke-width="0.8" stroke-miterlimit="10"/>
<path d="M112.436 45.5322H140.313C142.172 45.5322 143.632 46.9925 143.632 48.851V64.914C143.632 66.7726 145.093 68.2328 146.951 68.2328H171.178" stroke="#2C48FF" stroke-width="0.8" stroke-miterlimit="10"/>
<path d="M112.436 44.4697H110.245V46.6601H112.436V44.4697Z" stroke="#2C48FF" stroke-width="0.8" stroke-miterlimit="10"/>
<path d="M173.436 67.1729H171.245V69.3633H173.436V67.1729Z" stroke="#2C48FF" stroke-width="0.8" stroke-miterlimit="10"/>
<path d="M211.336 45.0002H183.458C181.599 45.0002 180.139 43.5399 180.139 41.6814V16.6577C180.139 14.7991 178.679 13.3389 176.82 13.3389H112.436" stroke="#2C48FF" stroke-width="0.8" stroke-miterlimit="10"/>
<path d="M213.578 46.0644V43.874H211.388V46.0644H213.578Z" stroke="#2C48FF" stroke-width="0.8" stroke-miterlimit="10"/>
<path d="M112.44 14.4189V12.2285H110.25V14.4189H112.44Z" stroke="#2C48FF" stroke-width="0.8" stroke-miterlimit="10"/>
<path d="M127.583 6.23728V4.04688H125.393V6.23728H127.583Z" stroke="#2C48FF" stroke-width="0.8" stroke-miterlimit="10"/>
<path d="M154.717 13.34V8.42818C154.717 6.56965 153.257 5.10938 151.398 5.10938H127.636" stroke="#2C48FF" stroke-width="0.8" stroke-miterlimit="10"/>
<path d="M30.3295 18.8485C27.2762 18.8485 24.8203 16.3926 24.8203 13.3393C24.8203 10.286 27.2762 7.83008 30.3295 7.83008C33.3828 7.83008 35.8387 10.286 35.8387 13.3393C35.8387 16.3262 33.3828 18.8485 30.3295 18.8485Z" stroke="#2C48FF" stroke-width="0.8" stroke-miterlimit="10"/>
<path d="M111.373 14.4682V16.194C111.373 17.0569 110.709 17.7206 109.847 17.7206H42.4085C41.5456 17.7206 40.8818 17.0569 40.8818 16.194V10.552C40.8818 9.68915 41.5456 9.02539 42.4085 9.02539H109.847C110.709 9.02539 111.373 9.68915 111.373 10.552V12.3442" stroke="#2C48FF" stroke-width="0.8" stroke-miterlimit="10"/>
<path d="M109.847 33.7841H42.4085C41.5456 33.7841 40.8818 33.1203 40.8818 32.2574V26.5491C40.8818 25.6862 41.5456 25.0225 42.4085 25.0225H109.847C110.709 25.0225 111.373 25.6862 111.373 26.5491V32.1911C111.373 33.054 110.709 33.7841 109.847 33.7841Z" stroke="#2C48FF" stroke-width="0.8" stroke-miterlimit="10"/>
<path d="M111.373 46.5952V48.321C111.373 49.1838 110.709 49.8476 109.847 49.8476H42.4085C41.5456 49.8476 40.8818 49.1838 40.8818 48.321V42.679C40.8818 41.8161 41.5456 41.1523 42.4085 41.1523H109.847C110.709 41.1523 111.373 41.8161 111.373 42.679V44.4711" stroke="#2C48FF" stroke-width="0.8" stroke-miterlimit="10"/>
<path d="M109.847 65.9775H42.4085C41.5456 65.9775 40.8818 65.3137 40.8818 64.4508V58.8089C40.8818 57.946 41.5456 57.2822 42.4085 57.2822H109.847C110.709 57.2822 111.373 57.946 111.373 58.8089V64.4508C111.373 65.3137 110.709 65.9775 109.847 65.9775Z" stroke="#2C48FF" stroke-width="0.8" stroke-miterlimit="10"/>
<path d="M30.3285 34.912C27.2753 34.912 24.8193 32.4561 24.8193 29.4028C24.8193 26.3495 27.2753 23.8936 30.3285 23.8936C33.3818 23.8936 35.8378 26.3495 35.8378 29.4028C35.8378 32.4561 33.3818 34.912 30.3285 34.912Z" stroke="#2C48FF" stroke-width="0.8" stroke-miterlimit="10"/>
<path d="M30.3285 51.0428C27.2753 51.0428 24.8193 48.5869 24.8193 45.5336C24.8193 42.4803 27.2753 40.0244 30.3285 40.0244C33.3818 40.0244 35.8378 42.4803 35.8378 45.5336C35.8378 48.5869 33.3818 51.0428 30.3285 51.0428Z" stroke="#2C48FF" stroke-width="0.8" stroke-miterlimit="10"/>
<path d="M30.3285 67.1727C27.2753 67.1727 24.8193 64.7168 24.8193 61.6635C24.8193 58.6102 27.2753 56.1543 30.3285 56.1543C33.3818 56.1543 35.8378 58.6102 35.8378 61.6635C35.8378 64.6504 33.3818 67.1727 30.3285 67.1727Z" stroke="#2C48FF" stroke-width="0.8" stroke-miterlimit="10"/>
<path d="M109.847 82.1083H42.4085C41.5456 82.1083 40.8818 81.4446 40.8818 80.5817V74.9397C40.8818 74.0768 41.5456 73.4131 42.4085 73.4131H109.847C110.709 73.4131 111.373 74.0768 111.373 74.9397V80.5817C111.373 81.3782 110.709 82.1083 109.847 82.1083Z" stroke="#2C48FF" stroke-width="0.8" stroke-miterlimit="10"/>
<path d="M30.3285 83.2352C27.2753 83.2352 24.8193 80.7793 24.8193 77.726C24.8193 74.6727 27.2753 72.2168 30.3285 72.2168C33.3818 72.2168 35.8378 74.6727 35.8378 77.726C35.8378 80.7793 33.3818 83.2352 30.3285 83.2352Z" stroke="#2C48FF" stroke-width="0.8" stroke-miterlimit="10"/>
<path d="M59.8654 133.35C49.378 133.35 40.8818 124.854 40.8818 114.366C40.8818 103.879 49.378 95.3828 59.8654 95.3828C70.3528 95.3828 78.8489 103.879 78.8489 114.366C78.8489 124.854 70.3528 133.35 59.8654 133.35Z" stroke="#2C48FF" stroke-width="0.8" stroke-miterlimit="10"/>
<path d="M51.5693 114.432L57.0122 119.941L68.1633 108.79" stroke="#2C48FF" stroke-width="0.8" stroke-miterlimit="10"/>
<path d="M195.87 85.6236C189.1 85.6236 183.591 80.1144 183.591 73.344C183.591 66.5737 189.1 61.0645 195.87 61.0645C202.641 61.0645 208.15 66.5737 208.15 73.344C208.15 80.1807 202.641 85.6236 195.87 85.6236Z" stroke="#2C48FF" stroke-width="0.8" stroke-miterlimit="10"/>
<path d="M190.494 73.4104L194.012 76.9948L201.247 69.7598" stroke="#2C48FF" stroke-width="0.8" stroke-miterlimit="10"/>
<path d="M218.04 56.0869V107.528" stroke="#2C48FF" stroke-width="0.8" stroke-miterlimit="10"/>
<path d="M208.017 97.5059L218.039 107.529L228.129 97.5059" stroke="#2C48FF" stroke-width="0.8" stroke-miterlimit="10"/>
<path d="M161.887 0V51.4414" stroke="#2C48FF" stroke-width="0.8" stroke-miterlimit="10"/>
<path d="M151.863 41.4189L161.886 51.4417L171.975 41.4189" stroke="#2C48FF" stroke-width="0.8" stroke-miterlimit="10"/>
<path d="M100.687 90.0723V110.516" stroke="#2C48FF" stroke-width="0.8" stroke-miterlimit="10"/>
<path d="M96.7041 106.533L100.687 110.516L104.669 106.533" stroke="#2C48FF" stroke-width="0.8" stroke-miterlimit="10"/>
<path d="M13.668 95.0527H27.0095C28.8681 95.0527 30.3283 96.513 30.3283 98.3715V142.91C30.3283 144.768 31.7886 146.229 33.6471 146.229H45.5285" stroke="#2C48FF" stroke-width="0.8" stroke-miterlimit="10"/>
<path d="M13.6679 93.9219H11.4775V96.1123H13.6679V93.9219Z" stroke="#2C48FF" stroke-width="0.8" stroke-miterlimit="10"/>
<path d="M47.7187 145.1H45.5283V147.29H47.7187V145.1Z" stroke="#2C48FF" stroke-width="0.8" stroke-miterlimit="10"/>
<path d="M3.19043 125.402L3.19043 123.212H1.00002L1.00002 125.402H3.19043Z" stroke="#2C48FF" stroke-width="0.8" stroke-miterlimit="10"/>
<path d="M30.3284 132.554V127.642C30.3284 125.784 28.8682 124.323 27.0096 124.323H3.18066" stroke="#2C48FF" stroke-width="0.8" stroke-miterlimit="10"/>
</svg>
