<svg width="270" height="88" viewBox="0 0 270 88" fill="none" xmlns="http://www.w3.org/2000/svg">
<g clip-path="url(#clip0)">
<path d="M108.808 43.5626C109.739 44.0435 110.732 44.3921 111.759 44.5983C113.051 44.8997 114.374 45.0509 115.7 45.0488C116.927 45.0515 118.148 44.8771 119.325 44.531C120.354 44.2353 121.319 43.7487 122.168 43.0966C122.945 42.4859 123.579 41.7137 124.027 40.8336C124.484 39.9101 124.715 38.8913 124.7 37.8612C124.717 36.5668 124.298 35.3045 123.509 34.2777C122.719 33.242 121.398 32.4204 119.548 31.8128L115.923 30.6528C114.894 30.3826 113.933 29.9012 113.101 29.2391C112.865 29.0097 112.678 28.7351 112.55 28.4317C112.423 28.1283 112.358 27.8023 112.36 27.4732C112.329 27.018 112.425 26.5629 112.638 26.1594C112.851 25.7559 113.173 25.42 113.567 25.1896C114.619 24.6576 115.792 24.4112 116.969 24.4749C118.662 24.4482 120.341 24.7837 121.894 25.4588C122.199 25.6251 122.533 25.7323 122.878 25.7747C123.266 25.7747 123.458 25.5003 123.458 24.9669V23.7344C123.475 23.4349 123.397 23.1377 123.235 22.8851C123.027 22.6263 122.77 22.4115 122.479 22.2534C122.132 22.076 121.772 21.927 121.402 21.808C120.951 21.6579 120.47 21.5232 119.947 21.4041C119.399 21.2796 118.846 21.1828 118.289 21.1141C117.718 21.0379 117.142 20.9998 116.565 21.0002C115.475 20.9937 114.39 21.1454 113.344 21.4507C112.381 21.719 111.478 22.167 110.682 22.7712C109.924 23.3386 109.292 24.0582 108.829 24.884C108.352 25.7544 108.112 26.7349 108.135 27.727C108.136 29.0741 108.586 30.3824 109.414 31.4451C110.263 32.5809 111.627 33.444 113.505 34.0343L117.223 35.1995C118.176 35.4461 119.061 35.9046 119.812 36.5407C120.04 36.7813 120.218 37.0652 120.334 37.3756C120.451 37.686 120.504 38.0167 120.49 38.3479C120.506 38.8322 120.392 39.3119 120.16 39.7372C119.928 40.1625 119.586 40.5178 119.17 40.7663C118.028 41.3954 116.732 41.6898 115.431 41.6155C114.408 41.6147 113.388 41.5106 112.386 41.3048C111.417 41.1071 110.473 40.805 109.569 40.4038L108.917 40.1397C108.766 40.0819 108.606 40.0521 108.445 40.0516C108.057 40.0516 107.865 40.3157 107.865 40.8543V42.1541C107.854 42.4607 107.939 42.7632 108.108 43.0193C108.277 43.2755 108.522 43.4726 108.808 43.5833" fill="#222D3F"/>
<path d="M65.5354 31.1396C64.6386 31.008 63.7335 30.9405 62.8271 30.9376C60.2068 30.9376 58.1182 31.6022 56.5612 32.9313C55.801 33.5753 55.1967 34.3834 54.794 35.2947C54.3913 36.2061 54.2005 37.1969 54.2361 38.1926C54.1925 39.0987 54.337 40.0041 54.6606 40.8517C54.9841 41.6992 55.4796 42.4706 56.1159 43.1173C57.3691 44.3394 59.071 44.9504 61.2218 44.9504C62.6618 44.9731 64.088 44.6663 65.3912 44.0532C66.6944 43.4402 67.8402 42.5373 68.7409 41.4136C69.0102 41.9832 69.2587 42.4803 69.5228 42.9153C69.7772 43.3476 70.0852 43.7461 70.4394 44.1012C70.5355 44.2092 70.6525 44.2966 70.7833 44.358C70.9142 44.4194 71.0562 44.4536 71.2006 44.4585C71.4417 44.45 71.6753 44.3728 71.8738 44.2358L73.4843 43.1639C73.6217 43.0849 73.7381 42.974 73.8238 42.8407C73.9094 42.7073 73.9617 42.5553 73.9763 42.3975C73.9666 42.1925 73.9061 41.9932 73.8002 41.8175C73.4709 41.2318 73.1937 40.6184 72.9717 39.9843C72.7528 39.2436 72.6549 38.4725 72.6817 37.7006V29.3737C72.6817 26.567 71.967 24.4697 70.5533 23.0819C69.1396 21.6941 66.9284 21.0105 63.8628 21.0105C62.5184 21.0023 61.1784 21.1659 59.8754 21.4973C58.7651 21.7759 57.686 22.1662 56.6544 22.6625C56.3756 22.7734 56.1284 22.9512 55.9346 23.1803C55.7943 23.4569 55.7333 23.767 55.7586 24.0762V25.3242C55.7586 25.842 55.9346 26.1372 56.2764 26.1372C56.4133 26.1281 56.5488 26.1038 56.6803 26.0647C56.9865 25.9758 57.2859 25.865 57.5762 25.7333C58.4766 25.3798 59.4028 25.0959 60.3466 24.884C61.247 24.6652 62.1698 24.5523 63.0964 24.5474C65.0694 24.5474 66.4572 24.9462 67.2391 25.7333C68.0211 26.5204 68.4509 27.8875 68.4509 29.8294V31.7092C67.4359 31.471 66.4572 31.2846 65.5147 31.1499L65.5354 31.1396ZM68.4509 35.65C68.4649 36.3964 68.3813 37.1415 68.2023 37.8663C68.041 38.471 67.7434 39.0308 67.3324 39.5027C66.6859 40.2521 65.851 40.8153 64.914 41.1339C64.0656 41.4352 63.1733 41.5944 62.273 41.6052C61.7867 41.6373 61.2989 41.5729 60.8376 41.4156C60.3763 41.2583 59.9507 41.0112 59.5854 40.6886C59.2533 40.3246 58.9989 39.8966 58.8378 39.431C58.6766 38.9653 58.6121 38.4717 58.6481 37.9803C58.6158 37.4243 58.7121 36.8683 58.9294 36.3555C59.1467 35.8427 59.4793 35.3868 59.9013 35.0234C60.7333 34.3329 62.0003 33.9877 63.7023 33.9877C64.5041 33.9886 65.3051 34.0422 66.0999 34.1482C66.8903 34.247 67.6751 34.387 68.4509 34.5677V35.65Z" fill="#222D3F"/>
<path d="M81.32 43.117C81.3901 43.4955 81.5702 43.8449 81.8379 44.1216C82.1288 44.3123 82.4752 44.3998 82.8218 44.3702H85.0122C85.3783 44.4032 85.7444 44.308 86.0479 44.1009C86.3208 43.8156 86.5012 43.4546 86.5658 43.0652L90.5066 26.5926L94.4888 43.0652C94.5511 43.4554 94.7319 43.8169 95.0066 44.1009C95.31 44.3084 95.6763 44.4037 96.0423 44.3702H98.2328C98.5809 44.3986 98.9286 44.3112 99.2219 44.1216C99.4895 43.8449 99.6696 43.4955 99.7397 43.117L105.892 23.3302C105.985 23.0661 106.042 22.8538 106.078 22.7088C106.112 22.5729 106.135 22.4343 106.145 22.2945C106.158 22.2094 106.15 22.1227 106.122 22.0411C106.095 21.9596 106.049 21.8855 105.989 21.8247C105.928 21.7639 105.854 21.7181 105.772 21.6909C105.691 21.6637 105.604 21.6558 105.519 21.6679H103.147C102.793 21.6353 102.438 21.7209 102.137 21.9113C101.879 22.1966 101.7 22.5449 101.619 22.9211L97.1867 40.0669L93.1579 22.9211C93.1043 22.5411 92.9322 22.1877 92.666 21.9113C92.3556 21.7217 91.9926 21.6364 91.6303 21.6679H89.5589C89.1965 21.6357 88.8333 21.721 88.5232 21.9113C88.2458 22.1829 88.064 22.5373 88.0054 22.9211L84.018 39.8442L79.7354 22.9263C79.6569 22.5492 79.478 22.2003 79.2176 21.9165C78.9096 21.7211 78.5447 21.6354 78.1819 21.6731H75.7221C75.636 21.6575 75.5474 21.6626 75.4635 21.6879C75.3797 21.7132 75.3031 21.758 75.2399 21.8187C75.1768 21.8793 75.1289 21.954 75.1002 22.0367C75.0715 22.1195 75.0628 22.2078 75.0748 22.2945C75.1103 22.6469 75.185 22.9943 75.2975 23.3302L81.32 43.117Z" fill="#222D3F"/>
<path d="M119.314 55.5146C110.119 59.3871 100.25 61.4056 90.2732 61.4542C76.9203 61.4646 63.797 57.9816 52.2066 51.3511C51.2537 50.8333 50.5547 51.7758 51.3418 52.4904C61.7753 61.8932 75.3425 67.0638 89.3877 66.99C99.9051 66.99 112.116 63.6861 120.536 57.472C121.929 56.4363 120.738 54.8828 119.314 55.5042" fill="#F49D00"/>
<path d="M113.996 52.0084C113.255 52.5262 113.385 53.2512 114.208 53.1528C116.921 52.8265 122.965 52.1171 124.047 53.479C125.129 54.841 122.845 60.5424 121.831 63.0798C121.525 63.8514 122.188 64.1621 122.866 63.5977C127.382 59.8174 128.562 51.8996 127.625 50.7552C126.688 49.6107 118.822 48.6476 113.985 52.0291" fill="#F49D00"/>
<path d="M147.878 39.0674C147.837 39.0735 147.794 39.0698 147.755 39.0566C147.715 39.0434 147.678 39.021 147.649 38.9913C147.619 38.9617 147.597 38.9254 147.584 38.8856C147.57 38.8458 147.567 38.8034 147.573 38.7618V24.951C147.567 24.9092 147.571 24.8667 147.584 24.8267C147.597 24.7867 147.619 24.7502 147.649 24.7202C147.678 24.6901 147.714 24.6673 147.754 24.6534C147.794 24.6396 147.837 24.6351 147.878 24.6403H148.262C148.306 24.6333 148.351 24.6362 148.393 24.6488C148.436 24.6614 148.476 24.6834 148.509 24.7132C148.542 24.7429 148.568 24.7797 148.585 24.8208C148.603 24.862 148.611 24.9064 148.608 24.951L148.691 25.7847C149.241 25.3282 149.855 24.9564 150.514 24.6817C151.097 24.4642 151.715 24.3571 152.337 24.3658C152.929 24.3423 153.518 24.4574 154.057 24.7019C154.597 24.9465 155.072 25.3137 155.444 25.7743C156.256 26.899 156.656 28.2683 156.578 29.653C156.651 31.0819 156.228 32.4921 155.382 33.6455C154.996 34.1287 154.502 34.5144 153.94 34.7717C153.378 35.029 152.763 35.1505 152.145 35.1266C150.872 35.1166 149.65 34.6223 148.728 33.7439V38.7618C148.734 38.8034 148.73 38.8458 148.717 38.8856C148.704 38.9254 148.681 38.9617 148.652 38.9913C148.622 39.021 148.586 39.0434 148.546 39.0566C148.506 39.0698 148.464 39.0735 148.422 39.0674H147.878ZM152.021 34.0443C152.497 34.0765 152.973 33.994 153.41 33.8039C153.847 33.6137 154.232 33.3215 154.533 32.9516C155.095 32.2267 155.378 31.1461 155.382 29.7099C155.382 26.8307 154.289 25.3929 152.104 25.3963C150.864 25.439 149.674 25.8988 148.728 26.7013V32.6513C149.213 33.0784 149.761 33.4278 150.354 33.687C150.881 33.9101 151.448 34.0246 152.021 34.0236" fill="#222D3F"/>
<path d="M161.632 35.1011C161.226 35.1229 160.819 35.0631 160.435 34.9252C160.052 34.7874 159.7 34.5743 159.401 34.2985C159.12 34.0151 158.902 33.6761 158.76 33.3033C158.618 32.9305 158.556 32.5322 158.577 32.1339C158.558 31.6903 158.642 31.2484 158.821 30.8424C159.001 30.4364 159.272 30.0774 159.613 29.7932C160.401 29.1834 161.383 28.8782 162.378 28.9336C163.366 28.9476 164.347 29.1064 165.288 29.4048V27.696C165.314 27.3725 165.271 27.0474 165.164 26.7414C165.056 26.4355 164.885 26.1556 164.662 25.9198C164.095 25.5162 163.402 25.3322 162.71 25.4019C161.7 25.4207 160.699 25.5954 159.742 25.9198C159.643 25.9563 159.538 25.9772 159.432 25.9819C159.297 25.9819 159.23 25.8939 159.23 25.7178V25.4019C159.225 25.3131 159.247 25.2248 159.292 25.1482C159.343 25.0782 159.413 25.0243 159.494 24.9928C160.585 24.5693 161.746 24.3566 162.917 24.3662C163.862 24.2902 164.803 24.5567 165.568 25.1171C165.872 25.409 166.107 25.7649 166.257 26.159C166.407 26.5531 166.467 26.9755 166.433 27.3956V34.5729C166.439 34.6144 166.435 34.6568 166.422 34.6967C166.409 34.7365 166.387 34.7727 166.357 34.8024C166.327 34.8321 166.291 34.8544 166.251 34.8676C166.211 34.8808 166.169 34.8845 166.127 34.8784H165.698C165.655 34.8838 165.612 34.8797 165.571 34.8666C165.53 34.8535 165.493 34.8316 165.461 34.8026C165.429 34.7735 165.405 34.7379 165.388 34.6982C165.372 34.6585 165.364 34.6158 165.366 34.5729L165.294 33.6874C164.275 34.5683 162.979 35.0648 161.632 35.0908V35.1011ZM161.793 34.0551C162.364 34.0458 162.93 33.939 163.466 33.7392C164.098 33.5098 164.704 33.2129 165.273 32.8537V30.3007C164.412 30.0631 163.525 29.9395 162.632 29.933C160.733 29.933 159.782 30.6649 159.779 32.1287C159.762 32.3897 159.799 32.6514 159.888 32.8974C159.978 33.1433 160.116 33.3682 160.296 33.5579C160.717 33.9085 161.257 34.0829 161.803 34.0447" fill="#222D3F"/>
<path d="M169.871 34.8784C169.83 34.8845 169.787 34.8808 169.747 34.8676C169.708 34.8544 169.671 34.8321 169.642 34.8024C169.612 34.7727 169.59 34.7365 169.576 34.6967C169.563 34.6568 169.56 34.6144 169.566 34.5729V24.9514C169.56 24.9097 169.564 24.8671 169.577 24.8271C169.59 24.7871 169.612 24.7507 169.642 24.7206C169.671 24.6906 169.707 24.6677 169.747 24.6539C169.787 24.64 169.829 24.6355 169.871 24.6407H170.26C170.303 24.6346 170.348 24.6381 170.39 24.6511C170.432 24.6641 170.471 24.6862 170.503 24.7159C170.536 24.7455 170.562 24.782 170.579 24.8227C170.595 24.8634 170.603 24.9073 170.601 24.9514L170.71 26.1269C171.132 25.6304 171.646 25.2192 172.222 24.9151C172.748 24.6749 173.321 24.5546 173.9 24.563C174.072 24.5539 174.245 24.5539 174.418 24.563C174.46 24.5604 174.503 24.5672 174.543 24.5829C174.582 24.5987 174.618 24.623 174.647 24.6542C174.677 24.6854 174.698 24.7226 174.712 24.7632C174.725 24.8039 174.729 24.8469 174.723 24.8892V25.4071C174.722 25.4631 174.7 25.5165 174.661 25.5573C174.641 25.5804 174.617 25.5989 174.589 25.6114C174.561 25.624 174.531 25.6302 174.501 25.6298H174.195H173.765C173.194 25.6181 172.627 25.7367 172.108 25.9767C171.573 26.2512 171.099 26.6317 170.715 27.0953V34.5729C170.721 34.6144 170.718 34.6568 170.704 34.6967C170.691 34.7365 170.669 34.7727 170.639 34.8024C170.61 34.8321 170.573 34.8544 170.533 34.8676C170.494 34.8808 170.451 34.8845 170.41 34.8784H169.871Z" fill="#222D3F"/>
<path d="M180.124 34.9974C179.793 35.0204 179.459 34.9758 179.145 34.8663C178.831 34.7568 178.542 34.5847 178.296 34.3604C178.072 34.1076 177.901 33.8124 177.792 33.4922C177.684 33.172 177.64 32.8334 177.665 32.4962V25.6607H176.054C176.013 25.6668 175.97 25.6631 175.93 25.6499C175.891 25.6367 175.854 25.6143 175.825 25.5846C175.795 25.555 175.773 25.5187 175.759 25.4789C175.746 25.439 175.743 25.3967 175.749 25.3551V25.1532C175.741 25.068 175.761 24.9826 175.806 24.9098C175.838 24.8768 175.877 24.8507 175.919 24.8329C175.962 24.8151 176.008 24.806 176.054 24.8062L177.701 24.6612L177.846 21.9788C177.848 21.8933 177.879 21.811 177.934 21.7458C177.963 21.7202 177.996 21.7006 178.033 21.6882C178.069 21.6757 178.108 21.6706 178.146 21.6733H178.514C178.556 21.6672 178.598 21.6709 178.638 21.6841C178.678 21.6973 178.714 21.7196 178.743 21.7493C178.773 21.779 178.796 21.8152 178.809 21.855C178.822 21.8949 178.826 21.9373 178.82 21.9788V24.6405H181.771C181.812 24.6353 181.854 24.6397 181.893 24.6533C181.932 24.6668 181.968 24.6893 181.997 24.7189C182.026 24.7484 182.048 24.7843 182.061 24.8237C182.074 24.8631 182.077 24.905 182.072 24.946V25.3551C182.079 25.3964 182.076 25.4387 182.063 25.4786C182.051 25.5185 182.029 25.5549 182 25.5848C181.97 25.6146 181.934 25.637 181.895 25.6502C181.855 25.6634 181.813 25.667 181.771 25.6607H178.82V32.4392C178.777 32.8622 178.904 33.2847 179.172 33.6147C179.51 33.8783 179.936 34.0024 180.363 33.9617C180.711 33.965 181.058 33.9302 181.398 33.8581L181.756 33.7908C181.818 33.7712 181.882 33.7608 181.947 33.7597C182.097 33.7597 182.17 33.8426 182.17 34.0031V34.3086C182.17 34.5365 182.097 34.6815 181.947 34.7333C181.355 34.9214 180.736 35.0107 180.114 34.9974" fill="#222D3F"/>
<path d="M184.64 34.8784C184.598 34.8845 184.556 34.8808 184.516 34.8676C184.476 34.8544 184.44 34.8321 184.41 34.8024C184.38 34.7727 184.358 34.7365 184.345 34.6967C184.332 34.6568 184.328 34.6144 184.334 34.5729V24.9514C184.328 24.9096 184.332 24.8671 184.345 24.8271C184.358 24.7871 184.381 24.7507 184.41 24.7206C184.44 24.6906 184.476 24.6677 184.516 24.6539C184.555 24.64 184.598 24.6355 184.64 24.6407H185.049C185.093 24.6346 185.137 24.6382 185.18 24.6512C185.222 24.6642 185.261 24.6862 185.294 24.7158C185.327 24.7453 185.353 24.7817 185.371 24.8224C185.388 24.8631 185.397 24.9071 185.396 24.9514L185.479 25.8265C186.114 25.3634 186.811 24.9921 187.55 24.7235C188.236 24.4757 188.959 24.3444 189.689 24.3351C190.1 24.3073 190.513 24.3626 190.903 24.4979C191.293 24.6331 191.651 24.8454 191.957 25.1223C192.235 25.4354 192.447 25.8012 192.582 26.1979C192.716 26.5946 192.769 27.0141 192.739 27.4318V34.5729C192.745 34.6144 192.741 34.6568 192.728 34.6967C192.715 34.7365 192.692 34.7727 192.663 34.8024C192.633 34.8321 192.597 34.8544 192.557 34.8676C192.517 34.8808 192.475 34.8845 192.433 34.8784H191.889C191.848 34.8843 191.805 34.8805 191.765 34.8673C191.725 34.8541 191.689 34.8319 191.659 34.8024C191.629 34.7728 191.606 34.7367 191.592 34.697C191.578 34.6572 191.574 34.6147 191.579 34.5729V27.9186C191.635 27.2374 191.452 26.5578 191.061 25.9974C190.854 25.7883 190.605 25.6267 190.329 25.5239C190.054 25.421 189.759 25.3794 189.466 25.4019C188.041 25.4249 186.657 25.878 185.494 26.7017V34.5729C185.5 34.6139 185.496 34.6558 185.483 34.6952C185.471 34.7346 185.449 34.7705 185.42 34.8001C185.391 34.8296 185.355 34.8521 185.316 34.8657C185.277 34.8793 185.235 34.8836 185.194 34.8784H184.64Z" fill="#222D3F"/>
<path d="M200.227 35.1788C198.612 35.1788 197.403 34.7231 196.602 33.8117C195.789 32.8899 195.38 31.5332 195.38 29.7311C195.38 28.0222 195.789 26.6965 196.608 25.754C197.043 25.2831 197.577 24.9143 198.171 24.6744C198.766 24.4344 199.406 24.3292 200.046 24.3662C200.565 24.3294 201.086 24.4025 201.575 24.581C202.065 24.7595 202.51 25.0392 202.884 25.4019C203.589 26.2482 203.942 27.3322 203.873 28.4313C203.883 28.8405 203.853 29.2498 203.785 29.6534C203.779 29.739 203.741 29.8191 203.677 29.8763C203.613 29.9335 203.529 29.9632 203.443 29.9589H196.545C196.545 31.3847 196.856 32.4359 197.478 33.1126C198.099 33.7892 199.043 34.1345 200.31 34.1483C201.263 34.1514 202.208 33.9758 203.096 33.6304C203.213 33.5789 203.337 33.5457 203.464 33.532C203.491 33.5318 203.517 33.5378 203.542 33.5495C203.566 33.5611 203.587 33.5782 203.604 33.5994C203.645 33.6483 203.668 33.711 203.666 33.7754V34.081C203.676 34.166 203.661 34.2523 203.621 34.3282C203.581 34.4041 203.519 34.466 203.443 34.5056C202.436 34.9718 201.337 35.2071 200.227 35.1943V35.1788ZM202.728 29.0268C202.728 28.8404 202.754 28.6125 202.754 28.3588C202.81 27.554 202.554 26.7586 202.04 26.1372C201.76 25.8768 201.429 25.677 201.068 25.5505C200.707 25.424 200.324 25.3734 199.942 25.4019C197.799 25.4019 196.666 26.6102 196.545 29.0268H202.728Z" fill="#222D3F"/>
<path d="M206.737 34.8784C206.695 34.8845 206.653 34.8808 206.613 34.8676C206.573 34.8544 206.537 34.8321 206.507 34.8024C206.478 34.7727 206.455 34.7365 206.442 34.6967C206.429 34.6568 206.425 34.6144 206.431 34.5729V24.9514C206.425 24.9097 206.429 24.8671 206.442 24.8271C206.456 24.7871 206.478 24.7507 206.507 24.7206C206.537 24.6906 206.573 24.6677 206.613 24.6539C206.652 24.64 206.695 24.6355 206.737 24.6407H207.125C207.169 24.6347 207.214 24.6382 207.256 24.6512C207.298 24.6642 207.337 24.6862 207.37 24.7158C207.403 24.7453 207.43 24.7817 207.447 24.8224C207.465 24.8631 207.473 24.9071 207.472 24.9514L207.576 26.1269C207.998 25.6304 208.511 25.2192 209.088 24.9151C209.614 24.6749 210.187 24.5546 210.766 24.563C210.938 24.5539 211.111 24.5539 211.283 24.563C211.326 24.5604 211.369 24.5672 211.408 24.5829C211.448 24.5987 211.484 24.623 211.513 24.6542C211.542 24.6854 211.564 24.7226 211.577 24.7632C211.59 24.8039 211.594 24.8469 211.589 24.8892V25.4071C211.587 25.4631 211.565 25.5165 211.527 25.5573C211.507 25.581 211.483 25.5999 211.455 25.6125C211.427 25.6251 211.397 25.631 211.366 25.6298H211.061H210.636C210.063 25.6175 209.494 25.7361 208.974 25.9767C208.438 26.2498 207.963 26.6306 207.581 27.0953V34.5729C207.587 34.6144 207.583 34.6568 207.57 34.6967C207.557 34.7365 207.534 34.7727 207.505 34.8024C207.475 34.8321 207.439 34.8544 207.399 34.8676C207.359 34.8808 207.317 34.8845 207.275 34.8784H206.737Z" fill="#222D3F"/>
<path d="M147.878 57.4768C147.836 57.4826 147.794 57.4788 147.754 57.4657C147.714 57.4525 147.677 57.4302 147.647 57.4007C147.617 57.3711 147.595 57.3351 147.581 57.2953C147.567 57.2555 147.562 57.2131 147.568 57.1712V47.5497C147.562 47.5079 147.567 47.4654 147.581 47.4257C147.595 47.3859 147.617 47.3498 147.647 47.3203C147.677 47.2907 147.714 47.2685 147.754 47.2553C147.794 47.2421 147.836 47.2383 147.878 47.2442H148.287C148.331 47.2381 148.375 47.2416 148.416 47.2543C148.458 47.267 148.496 47.2886 148.529 47.3177C148.562 47.3468 148.587 47.3826 148.605 47.4227C148.622 47.4627 148.63 47.5061 148.629 47.5497L148.712 48.4249C149.356 47.9625 150.062 47.593 150.809 47.327C151.493 47.0768 152.215 46.9454 152.943 46.9387C153.354 46.9108 153.767 46.9661 154.157 47.1014C154.547 47.2366 154.905 47.449 155.211 47.7258C155.49 48.0381 155.704 48.4037 155.838 48.8007C155.972 49.1976 156.025 49.6176 155.993 50.0354V57.1712C156 57.2125 155.997 57.2548 155.984 57.2947C155.972 57.3346 155.95 57.371 155.921 57.4009C155.891 57.4307 155.855 57.4531 155.816 57.4663C155.776 57.4795 155.734 57.4831 155.692 57.4768H155.144C155.102 57.4838 155.059 57.4808 155.018 57.468C154.978 57.4552 154.941 57.433 154.91 57.4032C154.88 57.3734 154.857 57.3368 154.844 57.2965C154.83 57.2562 154.827 57.2133 154.833 57.1712V50.5221C154.889 49.8394 154.706 49.1585 154.315 48.5958C154.104 48.383 153.85 48.2194 153.568 48.1164C153.287 48.0135 152.987 47.9738 152.689 48.0002C151.266 48.0227 149.883 48.4759 148.722 49.3V57.1712C148.728 57.2128 148.725 57.2552 148.712 57.295C148.698 57.3349 148.676 57.3711 148.646 57.4007C148.617 57.4304 148.58 57.4528 148.541 57.466C148.501 57.4792 148.458 57.4829 148.417 57.4768H147.878Z" fill="#222D3F"/>
<path d="M163.461 57.7823C161.85 57.7823 160.633 57.3266 159.836 56.41C159.038 55.4934 158.614 54.1367 158.614 52.3294C158.614 50.6205 159.028 49.2949 159.846 48.3524C160.279 47.8745 160.814 47.4995 161.41 47.2548C162.007 47.0102 162.651 46.9022 163.295 46.9387C163.814 46.9025 164.335 46.976 164.824 47.1544C165.313 47.3328 165.759 47.6122 166.133 47.9744C166.84 48.8214 167.194 49.9079 167.122 51.0089C167.13 51.4179 167.102 51.8269 167.039 52.231C167.031 52.3166 166.991 52.396 166.926 52.4528C166.862 52.5096 166.778 52.5396 166.692 52.5366H159.784C159.784 53.9624 160.095 55.0136 160.716 55.6902C161.337 56.3669 162.28 56.7121 163.543 56.7259C164.496 56.7291 165.441 56.5534 166.329 56.2081C166.446 56.1557 166.57 56.1208 166.697 56.1045C166.725 56.1053 166.753 56.1121 166.778 56.1247C166.803 56.1372 166.825 56.155 166.842 56.177C166.882 56.2252 166.903 56.2855 166.904 56.3479V56.6534C166.915 56.7398 166.899 56.8273 166.858 56.9042C166.817 56.9811 166.754 57.0436 166.676 57.0832C165.668 57.5476 164.57 57.7828 163.461 57.772V57.7823ZM165.967 51.6096C165.967 51.418 165.967 51.1953 165.967 50.9364C166.025 50.1329 165.769 49.3383 165.252 48.7201C164.974 48.4558 164.644 48.2525 164.283 48.1232C163.922 47.9939 163.538 47.9414 163.155 47.9692C161.011 47.9692 159.881 49.1775 159.763 51.5941L165.967 51.6096Z" fill="#222D3F"/>
<path d="M172.823 57.6018C172.49 57.6245 172.155 57.5793 171.84 57.4689C171.525 57.3585 171.236 57.1853 170.99 56.9597C170.765 56.7078 170.594 56.4135 170.485 56.0942C170.377 55.7748 170.334 55.437 170.358 55.1006V48.2651H168.753C168.711 48.2712 168.669 48.2675 168.629 48.2543C168.589 48.2411 168.553 48.2188 168.523 48.1891C168.493 48.1594 168.471 48.1232 168.458 48.0833C168.445 48.0435 168.441 48.0011 168.447 47.9596V47.7524C168.439 47.6665 168.461 47.5804 168.509 47.509C168.574 47.4447 168.661 47.4076 168.753 47.4055L170.399 47.2657L170.544 44.578C170.548 44.493 170.579 44.4115 170.632 44.345C170.662 44.32 170.697 44.3011 170.734 44.2895C170.772 44.278 170.811 44.274 170.85 44.2777H171.212C171.254 44.2707 171.296 44.2735 171.336 44.286C171.376 44.2985 171.412 44.3204 171.442 44.3497C171.472 44.379 171.494 44.415 171.507 44.4547C171.521 44.4944 171.524 44.5367 171.518 44.578V47.2449H174.47C174.511 47.2388 174.554 47.2425 174.593 47.2557C174.633 47.2689 174.669 47.2913 174.699 47.321C174.729 47.3506 174.751 47.3869 174.764 47.4267C174.778 47.4666 174.781 47.5089 174.775 47.5505V47.9596C174.781 48.0011 174.778 48.0435 174.764 48.0833C174.751 48.1232 174.729 48.1594 174.699 48.1891C174.669 48.2188 174.633 48.2411 174.593 48.2543C174.554 48.2675 174.511 48.2712 174.47 48.2651H171.518V55.0437C171.477 55.4664 171.604 55.8884 171.87 56.2192C172.211 56.4812 172.639 56.6035 173.066 56.5609C173.414 56.5659 173.761 56.5329 174.102 56.4626L174.459 56.3901C174.522 56.3731 174.586 56.3626 174.651 56.359C174.801 56.359 174.879 56.4418 174.879 56.6075V56.9079C174.879 57.1409 174.801 57.2859 174.651 57.3377C174.06 57.5234 173.442 57.6126 172.823 57.6018" fill="#222D3F"/>
<path d="M179.456 57.477C179.369 57.4814 179.284 57.4561 179.213 57.4052C179.143 57.3544 179.091 57.2811 179.068 57.1973L175.831 47.7312C175.788 47.6344 175.76 47.5313 175.749 47.4256C175.749 47.3065 175.831 47.2444 175.997 47.2444H176.65C176.729 47.2403 176.807 47.2647 176.869 47.3131C176.932 47.3616 176.975 47.4309 176.991 47.5085L179.777 56.1358L182.268 47.5292C182.291 47.445 182.342 47.371 182.413 47.3193C182.483 47.2677 182.569 47.2413 182.657 47.2444H183.402C183.49 47.2413 183.575 47.2677 183.646 47.3193C183.716 47.371 183.767 47.445 183.791 47.5292L186.235 56.1979L189.083 47.5085C189.099 47.43 189.143 47.3599 189.207 47.3114C189.271 47.2628 189.35 47.239 189.43 47.2444H190.036C190.196 47.2444 190.279 47.3065 190.279 47.4256C190.265 47.5307 190.238 47.6335 190.196 47.7312L186.882 57.1973C186.857 57.2802 186.806 57.3524 186.735 57.403C186.665 57.4535 186.58 57.4795 186.494 57.477H185.826C185.739 57.4823 185.652 57.4574 185.582 57.4065C185.511 57.3555 185.46 57.2816 185.437 57.1973L182.972 48.5494L180.533 57.1973C180.51 57.2811 180.459 57.3544 180.388 57.4052C180.318 57.4561 180.232 57.4814 180.145 57.477H179.456Z" fill="#222D3F"/>
<path d="M196.343 57.7827C195.692 57.819 195.042 57.7095 194.439 57.4622C193.836 57.215 193.296 56.8361 192.858 56.3534C192.029 55.3954 191.62 54.0646 191.62 52.3557C191.62 50.6468 192.029 49.3159 192.858 48.3631C193.787 47.451 195.036 46.9399 196.338 46.9399C197.64 46.9399 198.889 47.451 199.818 48.3631C200.646 49.3159 201.061 50.6416 201.061 52.3557C201.061 54.0697 200.646 55.3954 199.818 56.3534C199.382 56.8359 198.844 57.2147 198.242 57.462C197.641 57.7093 196.992 57.8189 196.343 57.7827V57.7827ZM196.343 56.747C198.684 56.747 199.856 55.2901 199.859 52.3764C199.863 49.4626 198.691 48.0092 196.343 48.0161C193.992 48.0161 192.818 49.4696 192.822 52.3764C192.825 55.2832 193.999 56.7401 196.343 56.747Z" fill="#222D3F"/>
<path d="M204.018 57.4771C203.977 57.4832 203.934 57.4795 203.894 57.4663C203.854 57.4531 203.818 57.4307 203.789 57.401C203.759 57.3714 203.737 57.3351 203.723 57.2953C203.71 57.2554 203.706 57.2131 203.713 57.1715V47.55C203.706 47.5085 203.71 47.4661 203.723 47.4262C203.737 47.3864 203.759 47.3502 203.789 47.3205C203.818 47.2908 203.854 47.2685 203.894 47.2553C203.934 47.2421 203.977 47.2384 204.018 47.2445H204.406C204.45 47.2376 204.495 47.2404 204.537 47.2528C204.579 47.2651 204.619 47.2866 204.652 47.3158C204.685 47.3449 204.711 47.381 204.729 47.4215C204.746 47.462 204.755 47.5059 204.753 47.55L204.857 48.7307C205.279 48.2339 205.792 47.8225 206.369 47.5189C206.894 47.2746 207.468 47.1524 208.047 47.1616C208.27 47.1616 208.44 47.1616 208.565 47.1616C208.607 47.1598 208.649 47.1672 208.688 47.1833C208.727 47.1994 208.762 47.2238 208.791 47.2549C208.819 47.286 208.841 47.3229 208.854 47.3632C208.867 47.4034 208.87 47.446 208.865 47.4879V48.0057C208.867 48.0629 208.846 48.1185 208.808 48.1611C208.787 48.1843 208.762 48.2028 208.733 48.2153C208.705 48.2279 208.674 48.2341 208.642 48.2336H208.342C208.244 48.2336 208.104 48.2336 207.912 48.2336C207.34 48.223 206.773 48.3434 206.255 48.5857C205.718 48.8578 205.242 49.2366 204.857 49.6991V57.1715C204.864 57.2128 204.861 57.2551 204.849 57.295C204.836 57.3349 204.814 57.3713 204.785 57.4011C204.756 57.431 204.72 57.4534 204.68 57.4666C204.64 57.4798 204.598 57.4834 204.557 57.4771H204.018Z" fill="#222D3F"/>
<path d="M211.009 57.4775C210.967 57.4835 210.925 57.4798 210.885 57.4666C210.845 57.4535 210.809 57.4311 210.779 57.4014C210.75 57.3717 210.727 57.3355 210.714 57.2957C210.701 57.2558 210.697 57.2135 210.703 57.1719V42.7293C210.697 42.6877 210.701 42.6454 210.714 42.6055C210.727 42.5657 210.75 42.5295 210.779 42.4998C210.809 42.4701 210.845 42.4478 210.885 42.4346C210.925 42.4214 210.967 42.4177 211.009 42.4238H211.558C211.599 42.4177 211.642 42.4214 211.682 42.4346C211.721 42.4478 211.758 42.4701 211.787 42.4998C211.817 42.5295 211.839 42.5657 211.852 42.6055C211.866 42.6454 211.869 42.6877 211.863 42.7293V51.8122L216.747 47.4572C216.814 47.3887 216.895 47.335 216.984 47.2993C217.073 47.2636 217.168 47.2469 217.264 47.2501H218C218.16 47.2501 218.243 47.3122 218.243 47.4313C218.243 47.5504 218.171 47.6074 218.02 47.7368L213.096 52.0971L218.414 56.9907C218.538 57.0994 218.595 57.1926 218.595 57.2548C218.595 57.3169 218.518 57.4567 218.352 57.4567H217.482C217.316 57.4557 217.156 57.3908 217.037 57.2755L211.858 52.4544V57.1512C211.864 57.1927 211.86 57.2351 211.847 57.275C211.834 57.3148 211.812 57.351 211.782 57.3807C211.752 57.4104 211.716 57.4327 211.676 57.4459C211.636 57.4591 211.594 57.4628 211.553 57.4567L211.009 57.4775Z" fill="#222D3F"/>
</g>
<defs>
<clipPath id="clip0">
<rect width="167.595" height="46" fill="white" transform="translate(51.0002 21)"/>
</clipPath>
</defs>
</svg>
