<svg width="346" height="395" viewBox="0 0 346 395" fill="none" xmlns="http://www.w3.org/2000/svg">
<mask id="mask0" mask-type="alpha" maskUnits="userSpaceOnUse" x="0" y="0" width="346" height="395">
<rect width="346" height="395" fill="white"/>
</mask>
<g mask="url(#mask0)">
<circle cx="171.346" cy="198.345" r="84.8829" fill="url(#paint0_radial)" fill-opacity="0.4"/>
<path opacity="0.8" d="M187.269 160.188L206.998 176.48L142.993 183.241L142.584 183.284L142.902 183.546L165.001 201.752L123.38 206.101L123.232 185.505L123.232 185.505L123.084 166.894L187.269 160.188Z" stroke="white" stroke-width="0.345047"/>
<path opacity="0.8" d="M187.457 159.896L170.69 130.771L190.029 146.813L206.797 175.867L187.457 159.896Z" stroke="white" stroke-width="0.345047"/>
<path opacity="0.6" d="M126.031 153.573L190.069 146.882L207.141 176.464L143.104 183.229L126.031 153.573Z" stroke="white" stroke-width="0.345047"/>
<path opacity="0.8" d="M143.144 183.3L126.375 154.171L147.958 172.012L164.801 201.142L143.144 183.3Z" stroke="white" stroke-width="0.345047"/>
<path opacity="0.6" d="M106.155 176.453L147.998 172.081L165.145 201.737L123.302 206.109L106.155 176.453Z" stroke="white" stroke-width="0.345047"/>
<path opacity="0.7" d="M105.895 155.522L105.895 155.522L105.751 137.481L122.737 166.786L122.886 185.508L122.886 185.508L123.031 205.642L106.044 176.263L105.895 155.522Z" stroke="white" stroke-width="0.345047"/>
<path opacity="0.7" d="M123.003 166.555L105.856 136.973L169.967 130.209L187.041 159.865L123.003 166.555Z" stroke="white" stroke-width="0.345047"/>
<path opacity="0.6" d="M170.007 130.205L189.736 146.571L125.731 153.257L125.322 153.3L125.639 153.562L147.665 171.769L106.043 176.118L105.895 155.521L105.895 155.521L105.747 136.985L170.007 130.205Z" stroke="white" stroke-width="0.345047"/>
<path d="M189.58 271.34L169.85 254.973L233.856 248.212L234.265 248.169L233.947 247.907L211.922 229.775L253.544 225.352L253.692 245.948V245.948L253.84 264.559L189.58 271.34Z" stroke="white" stroke-width="0.345047"/>
<path opacity="0.8" d="M253.691 245.948V245.948L253.835 264.062L236.849 234.684L236.7 216.036L236.7 216.036L236.555 195.901L253.542 225.207L253.691 245.948Z" stroke="white" stroke-width="0.345047"/>
<path d="M169.518 254.661L152.445 225.004L216.408 218.314L233.555 247.896L169.518 254.661Z" stroke="white" stroke-width="0.345047"/>
<path d="M194.788 200.406L216.367 218.244L233.208 247.298L211.628 229.532L194.788 200.406Z" stroke="white" stroke-width="0.345047"/>
<path opacity="0.8" d="M211.588 229.463L194.441 199.806L236.285 195.434L253.432 225.016L211.588 229.463Z" stroke="white" stroke-width="0.345047"/>
<path opacity="0.6" d="M172.244 241.356L152.588 224.99L216.519 218.303L216.928 218.26L216.611 217.998L194.585 199.791L236.207 195.442L236.355 216.039V216.039L236.503 234.575L172.244 241.356Z" stroke="white" stroke-width="0.345047"/>
<path opacity="0.7" d="M152.794 225.61L172.055 241.647L188.894 270.77L169.559 254.731L152.794 225.61Z" stroke="white" stroke-width="0.345047"/>
<path opacity="0.5" d="M172.472 241.678L236.584 234.914L253.731 264.57L189.619 271.335L172.472 241.678Z" stroke="white" stroke-width="0.345047"/>
<rect x="175.618" y="195.24" width="6.21085" height="6.21085" fill="#8AE3FF"/>
<rect x="172.168" y="199.726" width="6.21085" height="6.21085" fill="#8AE3FF"/>
<rect x="188.385" y="185.924" width="3.10542" height="3.10542" fill="#8AE3FF"/>
<rect x="222.199" y="143.138" width="3.10542" height="3.10542" fill="#8AE3FF"/>
<rect x="222.199" y="173.502" width="5.52075" height="5.52075" fill="#8AE3FF"/>
<rect x="199.771" y="196.62" width="3.10542" height="3.10542" fill="#8AE3FF"/>
<rect x="197.011" y="192.824" width="1.03514" height="1.03514" fill="#8AE3FF"/>
<rect x="199.427" y="190.754" width="1.03514" height="1.03514" fill="#8AE3FF"/>
<rect x="170.442" y="187.994" width="1.03514" height="1.03514" fill="#8AE3FF"/>
<rect x="172.857" y="185.924" width="1.03514" height="1.03514" fill="#8AE3FF"/>
<rect x="152.155" y="210.077" width="3.10542" height="3.10542" fill="#8AE3FF"/>
<rect x="167.682" y="213.872" width="3.10542" height="3.10542" fill="#8AE3FF"/>
<rect x="164.922" y="210.077" width="1.03514" height="1.03514" fill="#8AE3FF"/>
<rect x="167.337" y="208.007" width="1.03514" height="1.03514" fill="#8AE3FF"/>
<rect x="141.113" y="219.048" width="3.10542" height="3.10542" fill="#8AE3FF"/>
<rect x="142.493" y="216.633" width="3.10542" height="3.10542" fill="#8AE3FF"/>
<rect x="179.759" y="211.112" width="3.10542" height="3.10542" fill="#8AE3FF"/>
<rect x="191.146" y="221.809" width="3.10542" height="3.10542" fill="#8AE3FF"/>
<rect x="188.385" y="218.013" width="1.03514" height="1.03514" fill="#8AE3FF"/>
<rect x="190.8" y="215.942" width="1.03514" height="1.03514" fill="#8AE3FF"/>
</g>
<defs>
<radialGradient id="paint0_radial" cx="0" cy="0" r="1" gradientUnits="userSpaceOnUse" gradientTransform="translate(171.346 198.345) rotate(90) scale(81.144)">
<stop stop-color="#00FFF0"/>
<stop offset="1" stop-color="#E1FBFF" stop-opacity="0"/>
</radialGradient>
</defs>
</svg>
