<svg width="346" height="395" viewBox="0 0 346 395" fill="none" xmlns="http://www.w3.org/2000/svg">
<mask id="mask0" mask-type="alpha" maskUnits="userSpaceOnUse" x="0" y="0" width="346" height="395">
<rect width="346" height="395" fill="white"/>
</mask>
<g mask="url(#mask0)">
<rect x="54.3643" y="205.547" width="23.0137" height="23.0137" transform="rotate(-180 54.3643 205.547)" fill="#8AE3FF" fill-opacity="0.1"/>
<rect x="67.1504" y="188.926" width="23.0137" height="23.0137" transform="rotate(-180 67.1504 188.926)" fill="#8AE3FF" fill-opacity="0.1"/>
<rect x="7.05859" y="240.067" width="11.5069" height="11.5069" transform="rotate(-180 7.05859 240.067)" fill="#8AE3FF" fill-opacity="0.1"/>
<rect x="73.5439" y="232.396" width="3.83562" height="3.83562" transform="rotate(-180 73.5439 232.396)" fill="#8AE3FF" fill-opacity="0.1"/>
<rect x="64.5928" y="240.067" width="3.83562" height="3.83562" transform="rotate(-180 64.5928 240.067)" fill="#8AE3FF" fill-opacity="0.1"/>
<rect x="116.416" y="174.848" width="11.5069" height="11.5069" transform="rotate(-180 116.416 174.848)" fill="#8AE3FF" fill-opacity="0.1"/>
<rect x="167.088" y="131.843" width="11.5069" height="11.5069" transform="rotate(-180 167.088 131.843)" fill="#8AE3FF" fill-opacity="0.1"/>
<rect x="261.85" y="154.14" width="11.5069" height="11.5069" transform="rotate(-180 261.85 154.14)" fill="#8AE3FF" fill-opacity="0.1"/>
<rect x="39.0225" y="146.734" width="11.5069" height="11.5069" transform="rotate(-180 39.0225 146.734)" fill="#8AE3FF" fill-opacity="0.1"/>
<rect x="7.05859" y="121.164" width="3.83562" height="3.83562" transform="rotate(-180 7.05859 121.164)" fill="#8AE3FF" fill-opacity="0.1"/>
<rect x="306.503" y="158.823" width="23.0137" height="23.0137" fill="#8AE3FF" fill-opacity="0.1"/>
<rect x="293.717" y="175.444" width="23.0137" height="23.0137" fill="#8AE3FF" fill-opacity="0.1"/>
<rect x="296.274" y="124.303" width="3.83562" height="3.83562" fill="#8AE3FF" fill-opacity="0.1"/>
<rect x="258.575" y="190.567" width="11.5069" height="11.5069" fill="#8AE3FF" fill-opacity="0.1"/>
<rect x="193.779" y="232.527" width="11.5069" height="11.5069" fill="#8AE3FF" fill-opacity="0.1"/>
<rect x="99.0176" y="210.23" width="11.5069" height="11.5069" fill="#8AE3FF" fill-opacity="0.1"/>
</g>
</svg>
