<svg fill="none" height="88" viewBox="0 0 270 88" width="270" xmlns="http://www.w3.org/2000/svg" xmlns:xlink="http://www.w3.org/1999/xlink"><clipPath id="a"><path d="m51.0002 21h167.595v46h-167.595z"/></clipPath><g clip-path="url(#a)"><path d="m108.808 43.5626c.931.4809 1.924.8295 2.951 1.0357 1.292.3014 2.615.4526 3.941.4505 1.227.0027 2.448-.1717 3.625-.5178 1.029-.2957 1.994-.7823 2.843-1.4344.777-.6107 1.411-1.3829 1.859-2.263.457-.9235.688-1.9423.673-2.9724.017-1.2944-.402-2.5567-1.191-3.5835-.79-1.0357-2.111-1.8573-3.961-2.4649l-3.625-1.16c-1.029-.2702-1.99-.7516-2.822-1.4137-.236-.2294-.423-.504-.551-.8074-.127-.3034-.192-.6294-.19-.9585-.031-.4552.065-.9103.278-1.3138s.535-.7394.929-.9698c1.052-.532 2.225-.7784 3.402-.7147 1.693-.0267 3.372.3088 4.925.9839.305.1663.639.2735.984.3159.388 0 .58-.2744.58-.8078v-1.2325c.017-.2995-.061-.5967-.223-.8493-.208-.2588-.465-.4736-.756-.6317-.347-.1774-.707-.3264-1.077-.4454-.451-.1501-.932-.2848-1.455-.4039-.548-.1245-1.101-.2213-1.658-.29-.571-.0762-1.147-.1143-1.724-.1139-1.09-.0065-2.175.1452-3.221.4505-.963.2683-1.866.7163-2.662 1.3205-.758.5674-1.39 1.287-1.853 2.1128-.477.8704-.717 1.8509-.694 2.843.001 1.3471.451 2.6554 1.279 3.7181.849 1.1358 2.213 1.9989 4.091 2.5892l3.718 1.1652c.953.2466 1.838.7051 2.589 1.3412.228.2406.406.5245.522.8349.117.3104.17.6411.156.9723.016.4843-.098.964-.33 1.3893s-.574.7806-.99 1.0291c-1.142.6291-2.438.9235-3.739.8492-1.023-.0008-2.043-.1049-3.045-.3107-.969-.1977-1.913-.4998-2.817-.901l-.652-.2641c-.151-.0578-.311-.0876-.472-.0881-.388 0-.58.2641-.58.8027v1.2998c-.011.3066.074.6091.243.8652.169.2562.414.4533.7.564" fill="#222d3f"/><path d="m65.5354 31.1396c-.8968-.1316-1.8019-.1991-2.7083-.202-2.6203 0-4.7089.6646-6.2659 1.9937-.7602.644-1.3645 1.4521-1.7672 2.3634-.4027.9114-.5935 1.9022-.5579 2.8979-.0436.9061.1009 1.8115.4245 2.6591.3235.8475.819 1.6189 1.4553 2.2656 1.2532 1.2221 2.9551 1.8331 5.1059 1.8331 1.44.0227 2.8662-.2841 4.1694-.8972 1.3032-.613 2.449-1.5159 3.3497-2.6396.2693.5696.5178 1.0667.7819 1.5017.2544.4323.5624.8308.9166 1.1859.0961.108.2131.1954.3439.2568.1309.0614.2729.0956.4173.1005.2411-.0085.4747-.0857.6732-.2227l1.6105-1.0719c.1374-.079.2538-.1899.3395-.3232.0856-.1334.1379-.2854.1525-.4432-.0097-.205-.0702-.4043-.1761-.58-.3293-.5857-.6065-1.1991-.8285-1.8332-.2189-.7407-.3168-1.5118-.29-2.2837v-8.3269c0-2.8067-.7147-4.904-2.1284-6.2918s-3.6249-2.0714-6.6905-2.0714c-1.3444-.0082-2.6844.1554-3.9874.4868-1.1103.2786-2.1894.6689-3.221 1.1652-.2788.1109-.526.2887-.7198.5178-.1403.2766-.2013.5867-.176.8959v1.248c0 .5178.176.813.5178.813.1369-.0091.2724-.0334.4039-.0725.3062-.0889.6056-.1997.8959-.3314.9004-.3535 1.8266-.6374 2.7704-.8493.9004-.2188 1.8232-.3317 2.7498-.3366 1.973 0 3.3608.3988 4.1427 1.1859.782.7871 1.2118 2.1542 1.2118 4.0961v1.8798c-1.015-.2382-1.9937-.4246-2.9362-.5593zm2.9155 4.5104c.014.7464-.0696 1.4915-.2486 2.2163-.1613.6047-.4589 1.1645-.8699 1.6364-.6465.7494-1.4814 1.3126-2.4184 1.6312-.8484.3013-1.7407.4605-2.641.4713-.4863.0321-.9741-.0323-1.4354-.1896s-.8869-.4044-1.2522-.727c-.3321-.364-.5865-.792-.7476-1.2576-.1612-.4657-.2257-.9593-.1897-1.4507-.0323-.556.064-1.112.2813-1.6248s.5499-.9687.9719-1.3321c.832-.6905 2.099-1.0357 3.801-1.0357.8018.0009 1.6028.0545 2.3976.1605.7904.0988 1.5752.2388 2.351.4195z" fill="#222d3f"/><path d="m81.32 43.117c.0701.3785.2502.7279.5179 1.0046.2909.1907.6373.2782.9839.2486h2.1904c.3661.033.7322-.0622 1.0357-.2693.2729-.2853.4533-.6463.5179-1.0357l3.9408-16.4726 3.9822 16.4726c.0623.3902.2431.7517.5178 1.0357.3034.2075.6697.3028 1.0357.2693h2.1905c.3481.0284.6958-.059.9891-.2486.2676-.2767.4477-.6261.5178-1.0046l6.1523-19.7868c.093-.2641.15-.4764.186-.6214.034-.1359.057-.2745.067-.4143.013-.0851.005-.1718-.023-.2534-.027-.0815-.073-.1556-.133-.2164-.061-.0608-.135-.1066-.217-.1338-.081-.0272-.168-.0351-.253-.023h-2.372c-.354-.0326-.709.053-1.01.2434-.258.2853-.437.6336-.518 1.0098l-4.4323 17.1458-4.0288-17.1458c-.0536-.38-.2257-.7334-.4919-1.0098-.3104-.1896-.6734-.2749-1.0357-.2434h-2.0714c-.3624-.0322-.7256.0531-1.0357.2434-.2774.2716-.4592.626-.5178 1.0098l-3.9874 16.9231-4.2826-16.9179c-.0785-.3771-.2574-.726-.5178-1.0098-.308-.1954-.6729-.2811-1.0357-.2434h-2.4598c-.0861-.0156-.1747-.0105-.2586.0148-.0838.0253-.1604.0701-.2236.1308-.0631.0606-.111.1353-.1397.218-.0287.0828-.0374.1711-.0254.2578.0355.3524.1102.6998.2227 1.0357z" fill="#222d3f"/><path d="m119.314 55.5146c-9.195 3.8725-19.064 5.891-29.0408 5.9396-13.3529.0104-26.4762-3.4726-38.0666-10.1031-.9529-.5178-1.6519.4247-.8648 1.1393 10.4335 9.4028 24.0007 14.5734 38.0459 14.4996 10.5174 0 22.7283-3.3039 31.1483-9.518 1.393-1.0357.202-2.5892-1.222-1.9678" fill="#f49d00"/><path d="m113.996 52.0084c-.741.5178-.611 1.2428.212 1.1444 2.713-.3263 8.757-1.0357 9.839.3262 1.082 1.362-1.202 7.0634-2.216 9.6008-.306.7716.357 1.0823 1.035.5179 4.516-3.7803 5.696-11.6981 4.759-12.8425-.937-1.1445-8.803-2.1076-13.64 1.2739" fill="#f49d00"/><g fill="#222d3f"><path d="m147.878 39.0674c-.041.0061-.084.0024-.123-.0108-.04-.0132-.077-.0356-.106-.0653-.03-.0296-.052-.0659-.065-.1057-.014-.0398-.017-.0822-.011-.1238v-13.8108c-.006-.0418-.002-.0843.011-.1243s.035-.0765.065-.1065c.029-.0301.065-.0529.105-.0668.04-.0138.083-.0183.124-.0131h.384c.044-.007.089-.0041.131.0085.043.0126.083.0346.116.0644.033.0297.059.0665.076.1076.018.0412.026.0856.023.1302l.083.8337c.55-.4565 1.164-.8283 1.823-1.103.583-.2175 1.201-.3246 1.823-.3159.592-.0235 1.181.0916 1.72.3361.54.2446 1.015.6118 1.387 1.0724.812 1.1247 1.212 2.494 1.134 3.8787.073 1.4289-.35 2.8391-1.196 3.9925-.386.4832-.88.8689-1.442 1.1262s-1.177.3788-1.795.3549c-1.273-.01-2.495-.5043-3.417-1.3827v5.0179c.006.0416.002.084-.011.1238s-.036.0761-.065.1057c-.03.0297-.066.0521-.106.0653s-.082.0169-.124.0108zm4.143-5.0231c.476.0322.952-.0503 1.389-.2404.437-.1902.822-.4824 1.123-.8523.562-.7249.845-1.8055.849-3.2417 0-2.8792-1.093-4.317-3.278-4.3136-1.24.0427-2.43.5025-3.376 1.305v5.95c.485.4271 1.033.7765 1.626 1.0357.527.2231 1.094.3376 1.667.3366"/><path d="m161.632 35.1011c-.406.0218-.813-.038-1.197-.1759-.383-.1378-.735-.3509-1.034-.6267-.281-.2834-.499-.6224-.641-.9952s-.204-.7711-.183-1.1694c-.019-.4436.065-.8855.244-1.2915.18-.406.451-.765.792-1.0492.788-.6098 1.77-.915 2.765-.8596.988.014 1.969.1728 2.91.4712v-1.7088c.026-.3235-.017-.6486-.124-.9546-.108-.3059-.279-.5858-.502-.8216-.567-.4036-1.26-.5876-1.952-.5179-1.01.0188-2.011.1935-2.968.5179-.099.0365-.204.0574-.31.0621-.135 0-.202-.088-.202-.2641v-.3159c-.005-.0888.017-.1771.062-.2537.051-.07.121-.1239.202-.1554 1.091-.4235 2.252-.6362 3.423-.6266.945-.076 1.886.1905 2.651.7509.304.2919.539.6478.689 1.0419s.21.8165.176 1.2366v7.1773c.006.0415.002.0839-.011.1238-.013.0398-.035.076-.065.1057s-.066.052-.106.0652-.082.0169-.124.0108h-.429c-.043.0054-.086.0013-.127-.0118s-.078-.035-.11-.064c-.032-.0291-.056-.0647-.073-.1044-.016-.0397-.024-.0824-.022-.1253l-.072-.8855c-1.019.8809-2.315 1.3774-3.662 1.4034zm.161-1.046c.571-.0093 1.137-.1161 1.673-.3159.632-.2294 1.238-.5263 1.807-.8855v-2.553c-.861-.2376-1.748-.3612-2.641-.3677-1.899 0-2.85.7319-2.853 2.1957-.017.261.02.5227.109.7687.09.2459.228.4708.408.6605.421.3506.961.525 1.507.4868"/><path d="m169.871 34.8784c-.041.0061-.084.0024-.124-.0108-.039-.0132-.076-.0355-.105-.0652-.03-.0297-.052-.0659-.066-.1057-.013-.0399-.016-.0823-.01-.1238v-9.6215c-.006-.0417-.002-.0843.011-.1243s.035-.0764.065-.1065c.029-.03.065-.0529.105-.0667.04-.0139.082-.0184.124-.0132h.389c.043-.0061.088-.0026.13.0104s.081.0351.113.0648c.033.0296.059.0661.076.1068.016.0407.024.0846.022.1287l.109 1.1755c.422-.4965.936-.9077 1.512-1.2118.526-.2402 1.099-.3605 1.678-.3521.172-.0091.345-.0091.518 0 .042-.0026.085.0042.125.0199.039.0158.075.0401.104.0713.03.0312.051.0684.065.109.013.0407.017.0837.011.126v.5179c-.001.056-.023.1094-.062.1502-.02.0231-.044.0416-.072.0541-.028.0126-.058.0188-.088.0184h-.306-.43c-.571-.0117-1.138.1069-1.657.3469-.535.2745-1.009.655-1.393 1.1186v7.4776c.006.0415.003.0839-.011.1238-.013.0398-.035.076-.065.1057-.029.0297-.066.052-.106.0652-.039.0132-.082.0169-.123.0108z"/><path d="m180.124 34.9974c-.331.023-.665-.0216-.979-.1311s-.603-.2816-.849-.5059c-.224-.2528-.395-.548-.504-.8682-.108-.3202-.152-.6588-.127-.996v-6.8355h-1.611c-.041.0061-.084.0024-.124-.0108-.039-.0132-.076-.0356-.105-.0653-.03-.0296-.052-.0659-.066-.1057-.013-.0399-.016-.0822-.01-.1238v-.2019c-.008-.0852.012-.1706.057-.2434.032-.033.071-.0591.113-.0769.043-.0178.089-.0269.135-.0267l1.647-.145.145-2.6824c.002-.0855.033-.1678.088-.233.029-.0256.062-.0452.099-.0576.036-.0125.075-.0176.113-.0149h.368c.042-.0061.084-.0024.124.0108s.076.0355.105.0652c.03.0297.053.0659.066.1057.013.0399.017.0823.011.1238v2.6617h2.951c.041-.0052.083-.0008.122.0128.039.0135.075.036.104.0656.029.0295.051.0654.064.1048s.016.0813.011.1223v.4091c.007.0413.004.0836-.009.1235-.012.0399-.034.0763-.063.1062-.03.0298-.066.0522-.105.0654-.04.0132-.082.0168-.124.0105h-2.951v6.7785c-.043.423.084.8455.352 1.1755.338.2636.764.3877 1.191.347.348.0033.695-.0315 1.035-.1036l.358-.0673c.062-.0196.126-.03.191-.0311.15 0 .223.0829.223.2434v.3055c0 .2279-.073.3729-.223.4247-.592.1881-1.211.2774-1.833.2641"/><path d="m184.64 34.8784c-.042.0061-.084.0024-.124-.0108s-.076-.0355-.106-.0652-.052-.0659-.065-.1057c-.013-.0399-.017-.0823-.011-.1238v-9.6215c-.006-.0418-.002-.0843.011-.1243s.036-.0764.065-.1065c.03-.03.066-.0529.106-.0667.039-.0139.082-.0184.124-.0132h.409c.044-.0061.088-.0025.131.0105.042.013.081.035.114.0646.033.0295.059.0659.077.1066.017.0407.026.0847.025.129l.083.8751c.635-.4631 1.332-.8344 2.071-1.103.686-.2478 1.409-.3791 2.139-.3884.411-.0278.824.0275 1.214.1628.39.1352.748.3475 1.054.6244.278.3131.49.6789.625 1.0756.134.3967.187.8162.157 1.2339v7.1411c.006.0415.002.0839-.011.1238-.013.0398-.036.076-.065.1057-.03.0297-.066.052-.106.0652s-.082.0169-.124.0108h-.544c-.041.0059-.084.0021-.124-.0111s-.076-.0354-.106-.0649c-.03-.0296-.053-.0657-.067-.1054-.014-.0398-.018-.0823-.013-.1241v-6.6543c.056-.6812-.127-1.3608-.518-1.9212-.207-.2091-.456-.3707-.732-.4735-.275-.1029-.57-.1445-.863-.122-1.425.023-2.809.4761-3.972 1.2998v7.8712c.006.041.002.0829-.011.1223-.012.0394-.034.0753-.063.1049-.029.0295-.065.052-.104.0656s-.081.0179-.122.0127z"/><path d="m200.227 35.1788c-1.615 0-2.824-.4557-3.625-1.3671-.813-.9218-1.222-2.2785-1.222-4.0806 0-1.7089.409-3.0346 1.228-3.9771.435-.4709.969-.8397 1.563-1.0796.595-.24 1.235-.3452 1.875-.3082.519-.0368 1.04.0363 1.529.2148.49.1785.935.4582 1.309.8209.705.8463 1.058 1.9303.989 3.0294.01.4092-.02.8185-.088 1.2221-.006.0856-.044.1657-.108.2229s-.148.0869-.234.0826h-6.898c0 1.4258.311 2.477.933 3.1537.621.6766 1.565 1.0219 2.832 1.0357.953.0031 1.898-.1725 2.786-.5179.117-.0515.241-.0847.368-.0984.027-.0002.053.0058.078.0175.024.0116.045.0287.062.0499.041.0489.064.1116.062.176v.3056c.01.085-.005.1713-.045.2472s-.102.1378-.178.1774c-1.007.4662-2.106.7015-3.216.6887zm2.501-6.152c0-.1864.026-.4143.026-.668.056-.8048-.2-1.6002-.714-2.2216-.28-.2604-.611-.4602-.972-.5867s-.744-.1771-1.126-.1486c-2.143 0-3.276 1.2083-3.397 3.6249z"/><path d="m206.737 34.8784c-.042.0061-.084.0024-.124-.0108s-.076-.0355-.106-.0652c-.029-.0297-.052-.0659-.065-.1057-.013-.0399-.017-.0823-.011-.1238v-9.6215c-.006-.0417-.002-.0843.011-.1243.014-.04.036-.0764.065-.1065.03-.03.066-.0529.106-.0667.039-.0139.082-.0184.124-.0132h.388c.044-.006.089-.0025.131.0105s.081.035.114.0646c.033.0295.06.0659.077.1066.018.0407.026.0847.025.129l.104 1.1755c.422-.4965.935-.9077 1.512-1.2118.526-.2402 1.099-.3605 1.678-.3521.172-.0091.345-.0091.517 0 .043-.0026.086.0042.125.0199.04.0158.076.0401.105.0713s.051.0684.064.109c.013.0407.017.0837.012.126v.5179c-.002.056-.024.1094-.062.1502-.02.0237-.044.0426-.072.0552s-.058.0185-.089.0173h-.305-.425c-.573-.0123-1.142.1063-1.662.3469-.536.2731-1.011.6539-1.393 1.1186v7.4776c.006.0415.002.0839-.011.1238-.013.0398-.036.076-.065.1057-.03.0297-.066.052-.106.0652s-.082.0169-.124.0108z"/><path d="m147.878 57.4768c-.042.0058-.084.002-.124-.0111-.04-.0132-.077-.0355-.107-.065-.03-.0296-.052-.0656-.066-.1054s-.019-.0822-.013-.1241v-9.6215c-.006-.0418-.001-.0843.013-.124.014-.0398.036-.0759.066-.1054.03-.0296.067-.0518.107-.065s.082-.017.124-.0111h.409c.044-.0061.088-.0026.129.0101.042.0127.08.0343.113.0634s.058.0649.076.105c.017.04.025.0834.024.127l.083.8752c.644-.4624 1.35-.8319 2.097-1.0979.684-.2502 1.406-.3816 2.134-.3883.411-.0279.824.0274 1.214.1627.39.1352.748.3476 1.054.6244.279.3123.493.6779.627 1.0749.134.3969.187.8169.155 1.2347v7.1358c.007.0413.004.0836-.009.1235-.012.0399-.034.0763-.063.1062-.03.0298-.066.0522-.105.0654-.04.0132-.082.0168-.124.0105h-.548c-.042.007-.085.004-.126-.0088-.04-.0128-.077-.035-.108-.0648-.03-.0298-.053-.0664-.066-.1067-.014-.0403-.017-.0832-.011-.1253v-6.6491c.056-.6827-.127-1.3636-.518-1.9263-.211-.2128-.465-.3764-.747-.4794-.281-.1029-.581-.1426-.879-.1162-1.423.0225-2.806.4757-3.967 1.2998v7.8712c.006.0416.003.084-.01.1238-.014.0399-.036.0761-.066.1057-.029.0297-.066.0521-.105.0653-.04.0132-.083.0169-.124.0108z"/><path d="m163.461 57.7823c-1.611 0-2.828-.4557-3.625-1.3723-.798-.9166-1.222-2.2733-1.222-4.0806 0-1.7089.414-3.0345 1.232-3.977.433-.4779.968-.8529 1.564-1.0976.597-.2446 1.241-.3526 1.885-.3161.519-.0362 1.04.0373 1.529.2157s.935.4578 1.309.82c.707.847 1.061 1.9335.989 3.0345.008.409-.02.818-.083 1.2221-.008.0856-.048.165-.113.2218-.064.0568-.148.0868-.234.0838h-6.908c0 1.4258.311 2.477.932 3.1536.621.6767 1.564 1.0219 2.827 1.0357.953.0032 1.898-.1725 2.786-.5178.117-.0524.241-.0873.368-.1036.028.0008.056.0076.081.0202.025.0125.047.0303.064.0523.04.0482.061.1085.062.1709v.3055c.011.0864-.005.1739-.046.2508s-.104.1394-.182.179c-1.008.4644-2.106.6996-3.215.6888zm2.506-6.1727c0-.1916 0-.4143 0-.6732.058-.8035-.198-1.5981-.715-2.2163-.278-.2643-.608-.4676-.969-.5969s-.745-.1818-1.128-.154c-2.144 0-3.274 1.2083-3.392 3.6249z"/><path d="m172.823 57.6018c-.333.0227-.668-.0225-.983-.1329s-.604-.2836-.85-.5092c-.225-.2519-.396-.5462-.505-.8655-.108-.3194-.151-.6572-.127-.9936v-6.8355h-1.605c-.042.0061-.084.0024-.124-.0108s-.076-.0355-.106-.0652-.052-.0659-.065-.1058c-.013-.0398-.017-.0822-.011-.1237v-.2072c-.008-.0859.014-.172.062-.2434.065-.0643.152-.1014.244-.1035l1.646-.1398.145-2.6877c.004-.085.035-.1665.088-.233.03-.025.065-.0439.102-.0555.038-.0115.077-.0155.116-.0118h.362c.042-.007.084-.0042.124.0083s.076.0344.106.0637.052.0653.065.105c.014.0397.017.082.011.1233v2.6669h2.952c.041-.0061.084-.0024.123.0108.04.0132.076.0356.106.0653.03.0296.052.0659.065.1057.014.0399.017.0822.011.1238v.4091c.006.0415.003.0839-.011.1237-.013.0399-.035.0761-.065.1058s-.066.052-.106.0652c-.039.0132-.082.0169-.123.0108h-2.952v6.7786c-.041.4227.086.8447.352 1.1755.341.262.769.3843 1.196.3417.348.005.695-.028 1.036-.0983l.357-.0725c.063-.017.127-.0275.192-.0311.15 0 .228.0828.228.2485v.3004c0 .233-.078.378-.228.4298-.591.1857-1.209.2749-1.828.2641"/><path d="m179.456 57.477c-.087.0044-.172-.0209-.243-.0718-.07-.0508-.122-.1241-.145-.2079l-3.237-9.4661c-.043-.0968-.071-.1999-.082-.3056 0-.1191.082-.1812.248-.1812h.653c.079-.0041.157.0203.219.0687.063.0485.106.1178.122.1954l2.786 8.6273 2.491-8.6066c.023-.0842.074-.1582.145-.2099.07-.0516.156-.078.244-.0749h.745c.088-.0031.173.0233.244.0749.07.0517.121.1257.145.2099l2.444 8.6687 2.848-8.6894c.016-.0785.06-.1486.124-.1971.064-.0486.143-.0724.223-.067h.606c.16 0 .243.0621.243.1812-.014.1051-.041.2079-.083.3056l-3.314 9.4661c-.025.0829-.076.1551-.147.2057-.07.0505-.155.0765-.241.074h-.668c-.087.0053-.174-.0196-.244-.0705-.071-.051-.122-.1249-.145-.2092l-2.465-8.6479-2.439 8.6479c-.023.0838-.074.1571-.145.2079-.07.0509-.156.0762-.243.0718z"/><path d="m196.343 57.7827c-.651.0363-1.301-.0732-1.904-.3205-.603-.2472-1.143-.6261-1.581-1.1088-.829-.958-1.238-2.2888-1.238-3.9977s.409-3.0398 1.238-3.9926c.929-.9121 2.178-1.4232 3.48-1.4232s2.551.5111 3.48 1.4232c.828.9528 1.243 2.2785 1.243 3.9926 0 1.714-.415 3.0397-1.243 3.9977-.436.4825-.974.8613-1.576 1.1086-.601.2473-1.25.3569-1.899.3207zm0-1.0357c2.341 0 3.513-1.4569 3.516-4.3706.004-2.9138-1.168-4.3672-3.516-4.3603-2.351 0-3.525 1.4535-3.521 4.3603.003 2.9068 1.177 4.3637 3.521 4.3706z"/><path d="m204.018 57.4771c-.041.0061-.084.0024-.124-.0108s-.076-.0356-.105-.0653c-.03-.0296-.052-.0659-.066-.1057-.013-.0399-.017-.0822-.01-.1238v-9.6215c-.007-.0415-.003-.0839.01-.1238.014-.0398.036-.076.066-.1057.029-.0297.065-.052.105-.0652s.083-.0169.124-.0108h.388c.044-.0069.089-.0041.131.0083.042.0123.082.0338.115.063.033.0291.059.0652.077.1057.017.0405.026.0844.024.1285l.104 1.1807c.422-.4968.935-.9082 1.512-1.2118.525-.2443 1.099-.3665 1.678-.3573h.518c.042-.0018.084.0056.123.0217s.074.0405.103.0716c.028.0311.05.068.063.1083.013.0402.016.0828.011.1247v.5178c.002.0572-.019.1128-.057.1554-.021.0232-.046.0417-.075.0542-.028.0126-.059.0188-.091.0183h-.3c-.098 0-.238 0-.43 0-.572-.0106-1.139.1098-1.657.3521-.537.2721-1.013.6509-1.398 1.1134v7.4724c.007.0413.004.0836-.008.1235-.013.0399-.035.0763-.064.1061-.029.0299-.065.0523-.105.0655s-.082.0168-.123.0105z"/><path d="m211.009 57.4775c-.042.006-.084.0023-.124-.0109-.04-.0131-.076-.0355-.106-.0652-.029-.0297-.052-.0659-.065-.1057-.013-.0399-.017-.0822-.011-.1238v-14.4426c-.006-.0416-.002-.0839.011-.1238.013-.0398.036-.076.065-.1057.03-.0297.066-.052.106-.0652s.082-.0169.124-.0108h.549c.041-.0061.084-.0024.124.0108.039.0132.076.0355.105.0652.03.0297.052.0659.065.1057.014.0399.017.0822.011.1238v9.0829l4.884-4.355c.067-.0685.148-.1222.237-.1579s.184-.0524.28-.0492h.736c.16 0 .243.0621.243.1812s-.072.1761-.223.3055l-4.924 4.3603 5.318 4.8936c.124.1087.181.2019.181.2641 0 .0621-.077.2019-.243.2019h-.87c-.166-.001-.326-.0659-.445-.1812l-5.179-4.8211v4.6968c.006.0415.002.0839-.011.1238-.013.0398-.035.076-.065.1057s-.066.052-.106.0652-.082.0169-.123.0108z"/></g></g></svg>