<svg width="270" height="88" viewBox="0 0 270 88" fill="none" xmlns="http://www.w3.org/2000/svg">
<path fill-rule="evenodd" clip-rule="evenodd" d="M119.059 69.0002C117.399 69.0002 115.795 68.7644 114.247 68.293C112.699 67.8216 111.475 67.1962 110.573 66.4173L111.956 63.3117C112.838 64.0087 113.919 64.5773 115.2 65.0182C116.481 65.4591 117.768 65.6793 119.059 65.6793C120.658 65.6793 121.852 65.4232 122.642 64.9106C123.431 64.398 123.826 63.7218 123.826 62.8812C123.826 62.2662 123.605 61.7588 123.164 61.3591C122.724 60.9594 122.165 60.6467 121.489 60.4213C120.812 60.1959 119.89 59.9394 118.721 59.6525C117.081 59.263 115.754 58.8737 114.739 58.4841C113.725 58.0945 112.853 57.4847 112.126 56.6545C111.398 55.8243 111.034 54.702 111.034 53.2875C111.034 52.0988 111.357 51.0171 112.003 50.0435C112.648 49.07 113.622 48.2961 114.924 47.722C116.225 47.1479 117.819 46.861 119.705 46.861C121.017 46.861 122.309 47.0249 123.58 47.353C124.85 47.6811 125.947 48.1525 126.87 48.7674L125.609 51.8731C124.666 51.3196 123.682 50.8993 122.657 50.6124C121.632 50.3255 120.638 50.1819 119.674 50.1819C118.096 50.1819 116.922 50.4482 116.154 50.9814C115.385 51.5145 115.001 52.2215 115.001 53.103C115.001 53.718 115.221 54.2204 115.662 54.6097C116.102 54.999 116.661 55.3068 117.338 55.5322C118.014 55.7576 118.936 56.014 120.105 56.3009C121.704 56.6699 123.016 57.0543 124.041 57.454C125.066 57.8537 125.942 58.4635 126.67 59.2836C127.398 60.1036 127.761 61.2106 127.761 62.6044C127.761 63.7932 127.439 64.8694 126.793 65.8331C126.147 66.7967 125.168 67.5654 123.856 68.1392C122.544 68.713 120.945 69.0002 119.059 69.0002V69.0002ZM139.797 52.0883C141.868 52.0883 143.528 52.6931 144.779 53.9025C146.029 55.1119 146.654 56.9057 146.654 59.2836V68.6927H142.811V59.7755C142.811 58.3405 142.472 57.2593 141.796 56.5315C141.12 55.8037 140.156 55.4399 138.906 55.4399C137.491 55.4399 136.374 55.8655 135.554 56.716C134.734 57.5666 134.324 58.7916 134.324 60.3905V68.6927H130.48V45.8771H134.324V54.1792C134.96 53.5028 135.743 52.985 136.676 52.6264C137.609 52.2679 138.649 52.0883 139.797 52.0883V52.0883ZM150.665 52.2728H154.508V68.6927H150.665V52.2728ZM152.602 49.5669C151.905 49.5669 151.321 49.3465 150.849 48.9058C150.378 48.4652 150.142 47.9166 150.142 47.2608C150.142 46.6049 150.378 46.0563 150.849 45.6157C151.321 45.175 151.905 44.9546 152.602 44.9546C153.299 44.9546 153.883 45.1646 154.355 45.5849C154.826 46.0053 155.062 46.5329 155.062 47.1685C155.062 47.845 154.831 48.4138 154.37 48.8751C153.909 49.3363 153.319 49.5669 152.602 49.5669V49.5669ZM165.345 48.7674C163.726 48.7674 162.916 49.6487 162.916 51.4119V52.3958H167.436V55.4707H163.039V68.6927H159.195V55.4707H156.49V52.3958H159.195V51.3504C159.195 49.5875 159.708 48.1986 160.733 47.1839C161.758 46.1692 163.203 45.6618 165.069 45.6618C166.544 45.6618 167.703 45.9591 168.543 46.5535L167.467 49.4439C166.811 48.9928 166.104 48.7674 165.345 48.7674V48.7674ZM179.011 67.801C178.56 68.17 178.012 68.4467 177.366 68.6312C176.72 68.8157 176.038 68.9079 175.321 68.9079C173.517 68.9079 172.123 68.4366 171.139 67.4935C170.155 66.5504 169.663 65.1772 169.663 63.3732V55.4707H166.957V52.3958H169.663V48.6445H173.507V52.3958H177.904V55.4707H173.507V63.2809C173.507 64.0804 173.702 64.6901 174.091 65.1105C174.48 65.5308 175.044 65.7408 175.782 65.7408C176.643 65.7408 177.361 65.5154 177.935 65.0643L179.011 67.801ZM196.182 60.575C196.182 60.8413 196.161 61.2207 196.12 61.7127H183.237C183.462 62.9221 184.052 63.8805 185.005 64.5877C185.958 65.295 187.142 65.6486 188.556 65.6486C190.36 65.6486 191.846 65.0542 193.015 63.8651L195.075 66.2328C194.337 67.1141 193.404 67.7804 192.277 68.2315C191.149 68.6826 189.878 68.9079 188.464 68.9079C186.66 68.9079 185.071 68.5491 183.698 67.8317C182.324 67.1144 181.264 66.115 180.515 64.8337C179.767 63.5524 179.393 62.102 179.393 60.4828C179.393 58.8838 179.757 57.4436 180.485 56.1625C181.212 54.8815 182.222 53.8819 183.513 53.1645C184.805 52.4472 186.26 52.0883 187.88 52.0883C189.479 52.0883 190.909 52.4419 192.169 53.1492C193.43 53.8564 194.414 54.8505 195.121 56.1318C195.828 57.4131 196.182 58.894 196.182 60.575V60.575ZM187.88 55.1632C186.65 55.1632 185.609 55.527 184.759 56.2548C183.908 56.9826 183.39 57.9512 183.206 59.1606H192.523C192.359 57.9718 191.857 57.0081 191.016 56.2702C190.176 55.5322 189.13 55.1632 187.88 55.1632ZM202.652 54.6712C203.759 52.9493 205.707 52.0883 208.495 52.0883V55.7474C208.167 55.6859 207.87 55.6552 207.603 55.6552C206.107 55.6552 204.938 56.0909 204.098 56.962C203.257 57.8331 202.837 59.0889 202.837 60.7288V68.6927H198.993V52.2728H202.652V54.6712Z" fill="#451D39"/>
<path fill-rule="evenodd" clip-rule="evenodd" d="M101.26 31.9038L90.0037 43.9837V31.9038H101.26Z" fill="url(#paint0_linear)"/>
<path d="M67.7661 43.1596C70.0405 43.1596 71.8842 41.3159 71.8842 39.0415C71.8842 36.7671 70.0405 34.9233 67.7661 34.9233C65.4917 34.9233 63.6479 36.7671 63.6479 39.0415C63.6479 41.3159 65.4917 43.1596 67.7661 43.1596Z" fill="url(#paint1_linear)"/>
<path fill-rule="evenodd" clip-rule="evenodd" d="M80.5332 68.9668C87.4322 68.9668 93.0249 63.3741 93.0249 56.4751H68.0415C68.0415 63.3741 73.6342 68.9668 80.5332 68.9668Z" fill="url(#paint2_linear)"/>
<path fill-rule="evenodd" clip-rule="evenodd" d="M62.0002 19H73.5311V30.5308H62.0002V19Z" fill="url(#paint3_linear)"/>
<path fill-rule="evenodd" clip-rule="evenodd" d="M76.8257 31.9038H84.5129V53.0436H76.8257V31.9038Z" fill="url(#paint4_linear)"/>
<defs>
<linearGradient id="paint0_linear" x1="62.0748" y1="31.9038" x2="101.26" y2="31.9038" gradientUnits="userSpaceOnUse">
<stop stop-color="#BD529E"/>
<stop offset="1" stop-color="#FB1C57"/>
</linearGradient>
<linearGradient id="paint1_linear" x1="62.0761" y1="30.3154" x2="101.271" y2="31.9163" gradientUnits="userSpaceOnUse">
<stop stop-color="#BD529E"/>
<stop offset="1" stop-color="#FB1C57"/>
</linearGradient>
<linearGradient id="paint2_linear" x1="62.0972" y1="30.4908" x2="100.754" y2="35.7525" gradientUnits="userSpaceOnUse">
<stop stop-color="#BD529E"/>
<stop offset="1" stop-color="#FB1C57"/>
</linearGradient>
<linearGradient id="paint3_linear" x1="62.0002" y1="30.5308" x2="101.249" y2="31.8971" gradientUnits="userSpaceOnUse">
<stop stop-color="#BD529E"/>
<stop offset="1" stop-color="#FB1C57"/>
</linearGradient>
<linearGradient id="paint4_linear" x1="62.0157" y1="30.3885" x2="100.779" y2="30.5889" gradientUnits="userSpaceOnUse">
<stop stop-color="#BD529E"/>
<stop offset="1" stop-color="#FB1C57"/>
</linearGradient>
</defs>
</svg>
