<svg width="283" height="172" viewBox="0 0 283 172" fill="none" xmlns="http://www.w3.org/2000/svg">
<path d="M55.3316 118.361L48.4864 123.071C43.1504 118.613 37.4052 116.348 31.6993 116.348C25.4123 116.348 20.1159 118.603 15.81 123.114C11.4778 127.598 9.31167 133.084 9.31167 139.573C9.31167 145.983 11.4778 151.391 15.81 155.796C20.1423 160.201 25.4519 162.404 31.7389 162.404C34.9881 162.404 37.7486 161.876 40.0204 160.821C41.2883 160.293 43.3928 159.674 46.7741 157.115L52.5812 163.67C46.2106 168.932 37.4316 171.029 31.6201 171.029C22.8763 171.029 15.4138 167.983 9.23242 161.889C3.07747 155.743 0 148.331 0 139.653C0 131.871 2.57557 124.934 7.72671 118.84C14.0666 111.375 22.2688 107.643 32.3333 107.643C42.3978 107.643 49.1326 111.608 55.3316 118.361Z" fill="#2C29BF"/>
<path d="M56.4248 150.375C56.4248 144.81 58.4192 140.075 62.408 136.171C66.3968 132.267 71.2574 130.315 76.9897 130.315C82.7484 130.315 87.6354 132.28 91.6506 136.21C95.613 140.141 97.5942 144.968 97.5942 150.692C97.5942 156.469 95.5998 161.309 91.611 165.213C87.5958 169.09 82.6692 171.029 76.8312 171.029C71.0461 171.029 66.1987 169.051 62.2891 165.094C58.3796 161.19 56.4248 156.284 56.4248 150.375ZM65.5383 150.534C65.5383 154.385 66.5686 157.431 68.629 159.674C70.7423 161.942 73.5292 163.076 76.9897 163.076C80.4766 163.076 83.2635 161.955 85.3504 159.713C87.4373 157.471 88.4807 154.477 88.4807 150.731C88.4807 146.986 87.4373 143.992 85.3504 141.75C83.2371 139.481 80.4502 138.347 76.9897 138.347C73.582 138.347 70.8215 139.481 68.7082 141.75C66.595 144.018 65.5383 146.946 65.5383 150.534Z" fill="#2C29BF"/>
<path d="M128.365 137.951L120.994 141.868C119.832 139.494 118.393 138.307 116.675 138.307C115.857 138.307 115.157 138.584 114.575 139.138C113.994 139.666 113.704 140.352 113.704 141.196C113.704 142.673 115.421 144.137 118.855 145.588C123.583 147.619 126.766 149.492 128.404 151.206C130.042 152.921 130.861 155.229 130.861 158.13C130.861 161.85 129.487 164.962 126.74 167.468C124.072 169.842 120.849 171.029 117.072 171.029C110.6 171.029 106.017 167.877 103.322 161.573L110.93 158.051C111.987 159.898 112.792 161.072 113.347 161.573C114.43 162.575 115.724 163.076 117.23 163.076C120.242 163.076 121.747 161.705 121.747 158.961C121.747 157.379 120.585 155.901 118.26 154.53C117.362 154.081 116.464 153.646 115.566 153.224C114.668 152.802 113.756 152.367 112.832 151.918C110.243 150.652 108.42 149.386 107.364 148.12C106.017 146.511 105.343 144.44 105.343 141.908C105.343 138.558 106.492 135.788 108.79 133.599C111.141 131.409 113.994 130.315 117.349 130.315C122.289 130.315 125.961 132.86 128.365 137.951Z" fill="#2C29BF"/>
<path d="M148.097 139.692V169.921H139.182V139.692H135.378V131.383H139.182V124.393L148.097 118.286V131.383H155.032V139.692H148.097Z" fill="#2C29BF"/>
<path d="M170.01 62.9371V169.921H161.094V68.8708L170.01 62.9371Z" fill="#2C29BF"/>
<path d="M215.322 152.749H187.664C187.902 155.915 188.932 158.434 190.755 160.307C192.578 162.153 194.916 163.076 197.768 163.076C199.987 163.076 201.823 162.549 203.276 161.494C204.703 160.439 206.327 158.487 208.15 155.638L215.679 159.832C214.516 161.81 213.288 163.512 211.994 164.936C210.699 166.334 209.312 167.495 207.833 168.418C206.354 169.315 204.756 169.974 203.038 170.396C201.321 170.818 199.459 171.029 197.451 171.029C191.693 171.029 187.07 169.183 183.583 165.49C180.096 161.771 178.353 156.838 178.353 150.692C178.353 144.598 180.043 139.666 183.425 135.894C186.832 132.174 191.349 130.315 196.976 130.315C202.655 130.315 207.146 132.122 210.448 135.735C213.724 139.323 215.362 144.295 215.362 150.652L215.322 152.749ZM206.169 145.469C204.927 140.721 201.929 138.347 197.174 138.347C196.091 138.347 195.074 138.518 194.123 138.861C193.172 139.178 192.3 139.653 191.508 140.286C190.742 140.892 190.081 141.631 189.527 142.501C188.972 143.372 188.549 144.361 188.259 145.469H206.169Z" fill="#2C29BF"/>
<path d="M247.536 137.951L240.166 141.868C239.004 139.494 237.564 138.307 235.847 138.307C235.028 138.307 234.328 138.584 233.747 139.138C233.166 139.666 232.875 140.352 232.875 141.196C232.875 142.673 234.593 144.137 238.027 145.588C242.755 147.619 245.938 149.492 247.576 151.206C249.214 152.921 250.033 155.229 250.033 158.13C250.033 161.85 248.659 164.962 245.912 167.468C243.244 169.842 240.021 171.029 236.243 171.029C229.772 171.029 225.188 167.877 222.494 161.573L230.102 158.051C231.158 159.898 231.964 161.072 232.519 161.573C233.602 162.575 234.896 163.076 236.402 163.076C239.413 163.076 240.919 161.705 240.919 158.961C240.919 157.379 239.757 155.901 237.432 154.53C236.534 154.081 235.636 153.646 234.738 153.224C233.84 152.802 232.928 152.367 232.004 151.918C229.415 150.652 227.592 149.386 226.536 148.12C225.188 146.511 224.515 144.44 224.515 141.908C224.515 138.558 225.664 135.788 227.962 133.599C230.313 131.409 233.166 130.315 236.521 130.315C241.461 130.315 245.133 132.86 247.536 137.951Z" fill="#2C29BF"/>
<path d="M280.504 137.951L273.134 141.868C271.971 139.494 270.532 138.307 268.815 138.307C267.996 138.307 267.296 138.584 266.714 139.138C266.133 139.666 265.843 140.352 265.843 141.196C265.843 142.673 267.56 144.137 270.994 145.588C275.722 147.619 278.905 149.492 280.543 151.206C282.181 152.921 283 155.229 283 158.13C283 161.85 281.626 164.962 278.879 167.468C276.211 169.842 272.988 171.029 269.211 171.029C262.739 171.029 258.156 167.877 255.461 161.573L263.069 158.051C264.126 159.898 264.931 161.072 265.486 161.573C266.569 162.575 267.864 163.076 269.369 163.076C272.381 163.076 273.886 161.705 273.886 158.961C273.886 157.379 272.724 155.901 270.4 154.53C269.501 154.081 268.603 153.646 267.705 153.224C266.807 152.802 265.896 152.367 264.971 151.918C262.382 150.652 260.56 149.386 259.503 148.12C258.156 146.511 257.482 144.44 257.482 141.908C257.482 138.558 258.631 135.788 260.929 133.599C263.28 131.409 266.133 130.315 269.488 130.315C274.428 130.315 278.1 132.86 280.504 137.951Z" fill="#2C29BF"/>
<path fill-rule="evenodd" clip-rule="evenodd" d="M169.988 0L243.003 74.9703L227.601 78.5386L169.988 39.5369L71.716 107.228L18.1309 68.5709H28.485L71.716 92.0073L169.988 0Z" fill="url(#paint0_linear)"/>
<path fill-rule="evenodd" clip-rule="evenodd" d="M254.871 87.3402L261.541 53.7032L263.68 40.0008L282.919 116.006L207.493 94.6674L221.326 92.9546L254.871 87.3402Z" fill="url(#paint1_linear)"/>
<defs>
<linearGradient id="paint0_linear" x1="170.31" y1="9.23788e-07" x2="166.107" y2="107.667" gradientUnits="userSpaceOnUse">
<stop stop-color="#2C29BF"/>
<stop offset="0.421875" stop-color="#224FD6"/>
<stop offset="1" stop-color="#224FD6" stop-opacity="0.4"/>
</linearGradient>
<linearGradient id="paint1_linear" x1="256.663" y1="40.192" x2="252.351" y2="116.734" gradientUnits="userSpaceOnUse">
<stop stop-color="#2C29BF"/>
<stop offset="0.421875" stop-color="#224FD6"/>
<stop offset="1" stop-color="#224FD6" stop-opacity="0.4"/>
</linearGradient>
</defs>
</svg>
