<svg width="375" height="884" viewBox="0 0 375 884" fill="none" xmlns="http://www.w3.org/2000/svg">
<g clip-path="url(#clip0)">
<mask id="mask0" mask-type="alpha" maskUnits="userSpaceOnUse" x="-170" y="0" width="633" height="143">
<rect x="-170" width="632.606" height="142.688" fill="url(#paint0_linear)"/>
</mask>
<g mask="url(#mask0)">
<g opacity="0.3">
<path d="M90.4251 -21.9932V18.4973L49.9346 -21.9932L90.4251 -21.9932Z" stroke="#02007C" stroke-width="0.351448" stroke-miterlimit="10"/>
<path d="M29.642 18.4972L90.4254 18.4972V-1.70044L9.44434 -1.70044L29.642 18.4972Z" stroke="#02007C" stroke-width="0.351448" stroke-miterlimit="10"/>
<path d="M171.408 -1.70117V38.7893L130.917 -1.70117L171.408 -1.70117Z" stroke="#02007C" stroke-width="0.351448" stroke-miterlimit="10"/>
<path d="M110.623 38.7897L171.407 38.7897V18.4968L90.4258 18.4968L110.623 38.7897Z" stroke="#02007C" stroke-width="0.351448" stroke-miterlimit="10"/>
<path d="M90.4258 -1.70117V18.4965L151.114 18.4965L130.916 -1.70117L90.4258 -1.70117Z" stroke="#02007C" stroke-width="0.351448" stroke-miterlimit="10"/>
<path d="M171.409 18.4971L211.804 18.4971L171.409 -21.9934V18.4971Z" stroke="#02007C" stroke-width="0.351448" stroke-miterlimit="10"/>
<path d="M252.295 18.4971V58.9876L211.805 18.4971L252.295 18.4971Z" stroke="#02007C" stroke-width="0.351448" stroke-miterlimit="10"/>
<path d="M191.606 58.9874L252.294 58.9874V38.7898L171.408 38.7898L191.606 58.9874Z" stroke="#02007C" stroke-width="0.351448" stroke-miterlimit="10"/>
<path d="M252.294 -1.70093V18.4967L211.803 18.4967L191.605 -1.70093L252.294 -1.70093Z" stroke="#02007C" stroke-width="0.351448" stroke-miterlimit="10"/>
<path d="M171.408 18.4971V38.79L232.096 38.79L211.803 18.4971L171.408 18.4971Z" stroke="#02007C" stroke-width="0.351448" stroke-miterlimit="10"/>
<path d="M252.293 38.7901L292.783 38.7901L252.293 -1.70044V38.7901Z" stroke="#02007C" stroke-width="0.351448" stroke-miterlimit="10"/>
<path d="M333.274 38.7898V79.2803L292.783 38.7898L333.274 38.7898Z" stroke="#02007C" stroke-width="0.351448" stroke-miterlimit="10"/>
<path d="M252.293 18.4972L333.274 18.4972L313.076 -1.70044L252.293 -1.70044V18.4972Z" stroke="#02007C" stroke-width="0.351448" stroke-miterlimit="10"/>
<path d="M272.587 79.2807L333.275 79.2807V58.9878L252.294 58.9878L272.587 79.2807Z" stroke="#02007C" stroke-width="0.351448" stroke-miterlimit="10"/>
<path d="M333.274 18.4976V38.7904L292.784 38.7904L272.586 18.4976L333.274 18.4976Z" stroke="#02007C" stroke-width="0.351448" stroke-miterlimit="10"/>
<path d="M252.294 38.7898V58.9874L313.077 58.9874L292.784 38.7898L252.294 38.7898Z" stroke="#02007C" stroke-width="0.351448" stroke-miterlimit="10"/>
<path d="M333.274 58.9873L373.765 58.9873L333.274 18.4968V58.9873Z" stroke="#02007C" stroke-width="0.351448" stroke-miterlimit="10"/>
<path d="M414.254 58.9871V99.4776L373.764 58.9871L414.254 58.9871Z" stroke="#02007C" stroke-width="0.351448" stroke-miterlimit="10"/>
<path d="M333.274 38.7897L414.255 38.7897L394.058 18.4968L333.274 18.4968V38.7897Z" stroke="#02007C" stroke-width="0.351448" stroke-miterlimit="10"/>
<path d="M353.565 99.4782L414.253 99.4782V79.2805L333.272 79.2805L353.565 99.4782Z" stroke="#02007C" stroke-width="0.351448" stroke-miterlimit="10"/>
<path d="M414.254 38.7893V58.9869L373.763 58.9869L353.565 38.7893L414.254 38.7893Z" stroke="#02007C" stroke-width="0.351448" stroke-miterlimit="10"/>
<path d="M333.272 58.9871V79.2799H394.056L373.763 58.9871L333.272 58.9871Z" stroke="#02007C" stroke-width="0.351448" stroke-miterlimit="10"/>
<path d="M394.061 -21.9932V18.4973L353.57 -21.9932L394.061 -21.9932Z" stroke="#02007C" stroke-width="0.351448" stroke-miterlimit="10"/>
<path d="M333.277 18.4972L394.06 18.4972V-1.70044L313.079 -1.70044L333.277 18.4972Z" stroke="#02007C" stroke-width="0.351448" stroke-miterlimit="10"/>
</g>
</g>
<mask id="mask1" mask-type="alpha" maskUnits="userSpaceOnUse" x="-170" y="744" width="633" height="141">
<rect x="462.824" y="884.403" width="632.255" height="140.228" transform="rotate(180 462.824 884.403)" fill="url(#paint1_linear)" stroke="#02007C" stroke-width="0.351448"/>
</mask>
<g mask="url(#mask1)">
<g opacity="0.3">
<path d="M202.471 906.26L202.471 865.769L242.962 906.26L202.471 906.26Z" stroke="#02007C" stroke-width="0.351448" stroke-miterlimit="10"/>
<path d="M263.255 865.769L202.472 865.769L202.472 885.967L283.453 885.967L263.255 865.769Z" stroke="#02007C" stroke-width="0.351448" stroke-miterlimit="10"/>
<path d="M121.491 885.969L121.491 845.478L161.981 885.969L121.491 885.969Z" stroke="#02007C" stroke-width="0.351448" stroke-miterlimit="10"/>
<path d="M182.275 845.478L121.492 845.478L121.492 865.771L202.473 865.771L182.275 845.478Z" stroke="#02007C" stroke-width="0.351448" stroke-miterlimit="10"/>
<path d="M202.473 885.969L202.473 865.771L141.785 865.771L161.982 885.969L202.473 885.969Z" stroke="#02007C" stroke-width="0.351448" stroke-miterlimit="10"/>
<path d="M121.489 865.77L81.094 865.77L121.489 906.261L121.489 865.77Z" stroke="#02007C" stroke-width="0.351448" stroke-miterlimit="10"/>
<path d="M40.6042 865.77L40.6042 825.28L81.0947 865.77L40.6042 865.77Z" stroke="#02007C" stroke-width="0.351448" stroke-miterlimit="10"/>
<path d="M101.294 825.28L40.6054 825.28L40.6054 845.478L121.491 845.478L101.294 825.28Z" stroke="#02007C" stroke-width="0.351448" stroke-miterlimit="10"/>
<path d="M40.6058 885.968L40.6058 865.77L81.0963 865.77L101.294 885.968L40.6058 885.968Z" stroke="#02007C" stroke-width="0.351448" stroke-miterlimit="10"/>
<path d="M121.491 865.77L121.491 845.477L60.8031 845.477L81.0959 865.77L121.491 865.77Z" stroke="#02007C" stroke-width="0.351448" stroke-miterlimit="10"/>
<path d="M40.6055 845.477L0.114957 845.477L40.6055 885.968L40.6055 845.477Z" stroke="#02007C" stroke-width="0.351448" stroke-miterlimit="10"/>
<path d="M-40.3753 845.477L-40.3753 804.987L0.115234 845.477L-40.3753 845.477Z" stroke="#02007C" stroke-width="0.351448" stroke-miterlimit="10"/>
<path d="M40.6055 865.77L-40.3755 865.77L-20.1779 885.968L40.6055 885.968L40.6055 865.77Z" stroke="#02007C" stroke-width="0.351448" stroke-miterlimit="10"/>
<path d="M20.3136 804.987L-40.3746 804.987L-40.3746 825.28L40.6064 825.28L20.3136 804.987Z" stroke="#02007C" stroke-width="0.351448" stroke-miterlimit="10"/>
<path d="M-40.3747 865.77L-40.3747 845.477L0.11584 845.477L20.3135 865.77L-40.3747 865.77Z" stroke="#02007C" stroke-width="0.351448" stroke-miterlimit="10"/>
<path d="M40.6064 845.477L40.6064 825.279L-20.177 825.279L0.115932 845.477L40.6064 845.477Z" stroke="#02007C" stroke-width="0.351448" stroke-miterlimit="10"/>
</g>
</g>
<mask id="mask2" mask-type="alpha" maskUnits="userSpaceOnUse" x="-30" y="24" width="678" height="173">
<rect x="-30" y="24" width="677.943" height="172.809" rx="1.24622" fill="url(#paint2_linear)"/>
</mask>
<g mask="url(#mask2)">
<rect x="45.335" y="100.678" width="18.2623" height="18.2623" fill="#8AE3FF" fill-opacity="0.1"/>
<rect x="35.1885" y="113.867" width="18.2623" height="18.2623" fill="#8AE3FF" fill-opacity="0.1"/>
<rect x="82.874" y="73.2842" width="9.13114" height="9.13114" fill="#8AE3FF" fill-opacity="0.1"/>
<rect x="275.739" y="43.9387" width="9.13114" height="9.13114" fill="#8AE3FF" fill-opacity="0.1"/>
<rect x="210.609" y="109.733" width="16.2331" height="16.2331" fill="#8AE3FF" fill-opacity="0.1"/>
<rect x="137.687" y="112.428" width="9.13114" height="9.13114" fill="#8AE3FF" fill-opacity="0.1"/>
<rect x="37.2178" y="73.2842" width="3.04371" height="3.04371" fill="#8AE3FF" fill-opacity="0.1"/>
<rect x="7.30176" y="125.868" width="9.13114" height="9.13114" fill="#8AE3FF" fill-opacity="0.1"/>
<rect x="112.761" y="164.972" width="9.13114" height="9.13114" fill="#8AE3FF" fill-opacity="0.1"/>
<rect x="89.9756" y="161.552" width="3.04371" height="3.04371" fill="#8AE3FF" fill-opacity="0.1"/>
<rect x="375.948" y="179.189" width="8.40348" height="8.40348" transform="rotate(180 375.948 179.189)" fill="#8AE3FF" fill-opacity="0.1"/>
</g>
</g>
<defs>
<linearGradient id="paint0_linear" x1="-95.3889" y1="125.982" x2="-48.4943" y2="-81.6094" gradientUnits="userSpaceOnUse">
<stop offset="1.15328e-07" stop-color="#181878"/>
<stop offset="0.998" stop-color="#187FC4"/>
</linearGradient>
<linearGradient id="paint1_linear" x1="537.611" y1="1008.7" x2="583.195" y2="803.884" gradientUnits="userSpaceOnUse">
<stop offset="1.15328e-07" stop-color="#181878"/>
<stop offset="0.998" stop-color="#187FC4"/>
</linearGradient>
<linearGradient id="paint2_linear" x1="50.0696" y1="176.558" x2="113.308" y2="-71.5327" gradientUnits="userSpaceOnUse">
<stop stop-color="#00007D"/>
<stop offset="1" stop-color="#2C48FF"/>
</linearGradient>
<clipPath id="clip0">
<rect width="375" height="884" fill="white"/>
</clipPath>
</defs>
</svg>
