<svg width="2632" height="625" viewBox="0 0 2632 625" fill="none" xmlns="http://www.w3.org/2000/svg">
<rect x="1021.51" y="401.635" width="67.6916" height="67.6916" transform="rotate(-180 1021.51 401.635)" fill="#8A9DFF" fill-opacity="0.1"/>
<rect x="1059.12" y="352.746" width="67.6916" height="67.6916" transform="rotate(-180 1059.12 352.746)" fill="#8A9DFF" fill-opacity="0.1"/>
<rect x="882.365" y="503.172" width="33.8458" height="33.8458" transform="rotate(-180 882.365 503.172)" fill="#8A9DFF" fill-opacity="0.1"/>
<rect x="33.8457" y="624.401" width="33.8458" height="33.8458" transform="rotate(-180 33.8457 624.401)" fill="#8A9DFF" fill-opacity="0.1"/>
<rect x="356.17" y="510.17" width="60.1703" height="60.1703" transform="rotate(-180 356.17 510.17)" fill="#8A9DFF" fill-opacity="0.1"/>
<rect x="758.263" y="386.592" width="33.8458" height="33.8458" transform="rotate(-180 758.263 386.592)" fill="#8A9DFF" fill-opacity="0.1"/>
<rect x="1077.92" y="480.608" width="11.2819" height="11.2819" transform="rotate(-180 1077.92 480.608)" fill="#8A9DFF" fill-opacity="0.1"/>
<rect x="1051.6" y="503.172" width="11.2819" height="11.2819" transform="rotate(-180 1051.6 503.172)" fill="#8A9DFF" fill-opacity="0.1"/>
<rect x="1204.03" y="311.337" width="33.8458" height="33.8458" transform="rotate(-180 1204.03 311.337)" fill="#8A9DFF" fill-opacity="0.1"/>
<rect x="1353.07" y="184.843" width="33.8458" height="33.8458" transform="rotate(-180 1353.07 184.843)" fill="#8A9DFF" fill-opacity="0.1"/>
<rect x="1631.8" y="250.426" width="33.8458" height="33.8458" transform="rotate(-180 1631.8 250.426)" fill="#8A9DFF" fill-opacity="0.1"/>
<rect x="976.381" y="228.645" width="33.8458" height="33.8458" transform="rotate(-180 976.381 228.645)" fill="#8A9DFF" fill-opacity="0.1"/>
<rect x="852.278" y="112.065" width="33.8458" height="33.8458" transform="rotate(-180 852.278 112.065)" fill="#8A9DFF" fill-opacity="0.1"/>
<rect x="882.365" y="153.432" width="11.2819" height="11.2819" transform="rotate(-180 882.365 153.432)" fill="#8A9DFF" fill-opacity="0.1"/>
<rect x="1763.14" y="264.201" width="67.6916" height="67.6916" fill="#8A9DFF" fill-opacity="0.1"/>
<rect x="1725.53" y="313.09" width="67.6916" height="67.6916" fill="#8A9DFF" fill-opacity="0.1"/>
<rect x="1902.28" y="162.664" width="33.8458" height="33.8458" fill="#8A9DFF" fill-opacity="0.1"/>
<rect x="2598.04" width="33.8458" height="33.8458" fill="#8A9DFF" fill-opacity="0.1"/>
<rect x="2368.47" y="188.213" width="60.1703" height="60.1703" fill="#8A9DFF" fill-opacity="0.1"/>
<rect x="2026.38" y="279.244" width="33.8458" height="33.8458" fill="#8A9DFF" fill-opacity="0.1"/>
<rect x="1733.05" y="162.664" width="11.2819" height="11.2819" fill="#8A9DFF" fill-opacity="0.1"/>
<rect x="1622.16" y="357.573" width="33.8458" height="33.8458" fill="#8A9DFF" fill-opacity="0.1"/>
<rect x="1431.57" y="480.993" width="33.8458" height="33.8458" fill="#8A9DFF" fill-opacity="0.1"/>
<rect x="1152.85" y="415.41" width="33.8458" height="33.8458" fill="#8A9DFF" fill-opacity="0.1"/>
<rect x="1977.87" y="523.323" width="33.8458" height="33.8458" fill="#8A9DFF" fill-opacity="0.1"/>
<rect x="1928.6" y="489.84" width="11.2819" height="11.2819" fill="#8A9DFF" fill-opacity="0.1"/>
</svg>
