<svg width="154" height="46" viewBox="0 0 154 46" fill="none" xmlns="http://www.w3.org/2000/svg">
<path d="M21.4244 21.4244H42.8489V32.7165V42.8489H10.1324L0 32.7165H32.7165L21.4244 21.4244ZM42.8489 10.1324L32.7165 0H0V10.1324V21.4244H21.4244L10.1324 10.1324H42.8489Z" fill="white"/>
<path d="M82.9506 7.813C82.5843 7.69092 82.2181 7.62989 81.8519 7.62989C81.2415 7.62989 80.7532 7.75196 80.3259 7.93508C79.8986 8.11819 79.4103 8.54546 78.861 9.0948V7.56885H75.8701V21.3025H78.861V14.2831C78.861 11.7805 79.6545 10.5597 81.3025 10.5597C81.8519 10.5597 82.4012 10.7428 82.9506 11.1701V7.813Z" fill="white"/>
<path d="M117.132 7.813C116.766 7.69092 116.4 7.62989 116.034 7.62989C115.423 7.62989 114.935 7.75196 114.508 7.93508C114.08 8.11819 113.592 8.54546 113.043 9.0948V7.56885H110.052V21.3025H113.043V14.2831C113.043 11.7805 113.836 10.5597 115.484 10.5597C116.034 10.5597 116.583 10.7428 117.132 11.1701V7.813Z" fill="white"/>
<path d="M75.0763 15.2597H65.7375C65.7985 16.3584 66.1647 17.1519 66.7751 17.8233C67.3855 18.4337 68.179 18.7389 69.1556 18.7389C69.8881 18.7389 70.4985 18.5557 70.9868 18.1895C71.4751 17.8233 72.0244 17.1519 72.6348 16.2363L74.7101 18.3116C74.4659 18.6778 74.1607 19.044 73.9166 19.3492C73.4893 19.8375 73.001 20.2038 72.5127 20.509C72.0244 20.8142 71.4751 21.0583 70.9257 21.1804C70.3764 21.3025 69.705 21.3635 69.0335 21.3635C67.0803 21.3635 65.5544 20.7531 64.3336 19.4713C63.1739 18.1895 62.5635 16.5415 62.5635 14.4662C62.5635 12.3909 63.1128 10.7428 64.2726 9.46104C65.4323 8.17923 66.9582 7.56885 68.8504 7.56885C70.7426 7.56885 72.2686 8.17923 73.3673 9.4C74.4659 10.6208 75.0153 12.2688 75.0153 14.4662L75.0763 15.2597ZM71.9634 12.7571C71.5361 11.1701 70.5595 10.3766 68.9115 10.3766C68.5452 10.3766 68.179 10.4376 67.8738 10.5597C67.5686 10.6818 67.2634 10.8039 67.0193 11.048C66.7751 11.2311 66.531 11.5363 66.3478 11.7805C66.1647 12.0857 66.0427 12.3909 65.9206 12.7571H71.9634Z" fill="white"/>
<path d="M87.1017 7.69092L90.642 15.3207L94.1822 7.69092H97.6003L90.5809 21.9739L83.6836 7.69092H87.1017Z" fill="white"/>
<path d="M109.258 15.2597H99.9191C99.9801 16.3584 100.346 17.1519 100.957 17.8233C101.567 18.4337 102.361 18.7389 103.337 18.7389C104.07 18.7389 104.68 18.5557 105.168 18.1895C105.657 17.8233 106.206 17.1519 106.816 16.2363L108.892 18.3116C108.648 18.6778 108.342 19.044 108.098 19.3492C107.671 19.8375 107.183 20.2038 106.694 20.509C106.206 20.8142 105.657 21.0583 105.107 21.1804C104.558 21.3025 103.887 21.3635 103.215 21.3635C101.262 21.3635 99.736 20.7531 98.5152 19.4713C97.3555 18.1895 96.7451 16.5415 96.7451 14.4662C96.7451 12.3909 97.2945 10.7428 98.4542 9.46104C99.6139 8.17923 101.14 7.56885 103.032 7.56885C104.924 7.56885 106.45 8.17923 107.549 9.4C108.648 10.6208 109.197 12.2688 109.197 14.4662L109.258 15.2597ZM106.145 12.7571C105.718 11.1701 104.741 10.3766 103.093 10.3766C102.727 10.3766 102.361 10.4376 102.055 10.5597C101.75 10.6818 101.445 10.8039 101.201 11.048C100.957 11.2311 100.713 11.5363 100.529 11.7805C100.346 12.0857 100.224 12.3909 100.102 12.7571H106.145Z" fill="white"/>
<path d="M121.588 4.21158V22.5841L118.597 19.5932V1.2207L121.588 4.21158Z" fill="white"/>
<path d="M134.833 15.2597H125.494C125.555 16.3584 125.922 17.1519 126.532 17.8233C127.142 18.4337 127.936 18.7389 128.912 18.7389C129.645 18.7389 130.255 18.5557 130.744 18.1895C131.232 17.8233 131.781 17.1519 132.392 16.2363L134.467 18.3116C134.223 18.6778 133.918 19.044 133.673 19.3492C133.246 19.8375 132.758 20.2038 132.27 20.509C131.781 20.8142 131.232 21.0583 130.683 21.1804C130.133 21.3025 129.462 21.3635 128.79 21.3635C126.837 21.3635 125.311 20.7531 124.09 19.4713C122.931 18.1895 122.32 16.5415 122.32 14.4662C122.32 12.3909 122.87 10.7428 124.029 9.46104C125.189 8.17923 126.715 7.56885 128.607 7.56885C130.499 7.56885 132.025 8.17923 133.124 9.4C134.223 10.6208 134.772 12.2688 134.772 14.4662L134.833 15.2597ZM131.72 12.7571C131.293 11.1701 130.316 10.3766 128.668 10.3766C128.302 10.3766 127.936 10.4376 127.631 10.5597C127.325 10.6818 127.02 10.8039 126.776 11.048C126.532 11.2311 126.288 11.5363 126.105 11.7805C125.922 12.0857 125.799 12.3909 125.677 12.7571H131.72Z" fill="white"/>
<path d="M141.06 11.5974C140.694 10.8039 140.205 10.3766 139.595 10.3766C139.29 10.3766 139.107 10.4376 138.862 10.6208C138.679 10.8039 138.557 11.048 138.557 11.3532C138.557 11.8415 139.107 12.3298 140.266 12.8181C141.853 13.4896 142.952 14.161 143.501 14.7103C144.051 15.2597 144.356 16.0532 144.356 17.0298C144.356 18.3116 143.868 19.3492 142.952 20.2038C142.036 20.9973 140.938 21.4245 139.717 21.4245C137.886 21.4245 136.482 20.6921 135.566 19.1661L137.642 17.0908C138.008 17.7012 138.252 18.1285 138.435 18.2505C138.801 18.6168 139.229 18.7388 139.717 18.7388C140.755 18.7388 141.243 18.2505 141.243 17.335C141.243 16.7856 140.877 16.2973 140.083 15.809C139.778 15.6869 139.473 15.5038 139.168 15.3817C138.862 15.2597 138.557 15.0766 138.252 14.9545C137.398 14.5272 136.787 14.0999 136.421 13.6727C135.994 13.1233 135.75 12.4519 135.75 11.5974C135.75 10.4376 136.116 9.52207 136.909 8.78961C137.703 8.05715 138.679 7.69092 139.778 7.69092C141.182 7.69092 142.281 8.3013 143.074 9.52207L141.06 11.5974Z" fill="white"/>
<path d="M150.643 11.5974C150.277 10.8039 149.788 10.3766 149.178 10.3766C148.873 10.3766 148.69 10.4376 148.445 10.6208C148.262 10.8039 148.14 11.048 148.14 11.3532C148.14 11.8415 148.69 12.3298 149.849 12.8181C151.436 13.4896 152.535 14.161 153.084 14.7103C153.634 15.2597 153.939 16.0532 153.939 17.0298C153.939 18.3116 153.451 19.3492 152.535 20.2038C151.619 20.9973 150.521 21.4245 149.3 21.4245C147.469 21.4245 146.065 20.6921 145.149 19.1661L147.225 17.0908C147.591 17.7012 147.835 18.1285 148.018 18.2505C148.384 18.6168 148.812 18.7388 149.3 18.7388C150.338 18.7388 150.826 18.2505 150.826 17.335C150.826 16.7856 150.46 16.2973 149.666 15.809C149.361 15.6869 149.056 15.5038 148.751 15.3817C148.445 15.2597 148.14 15.0766 147.835 14.9545C146.981 14.5272 146.37 14.0999 146.004 13.6727C145.577 13.1233 145.333 12.4519 145.333 11.5974C145.333 10.4376 145.699 9.52207 146.492 8.78961C147.286 8.05715 148.262 7.69092 149.361 7.69092C150.765 7.69092 151.864 8.3013 152.657 9.52207L150.643 11.5974Z" fill="white"/>
<path d="M58.7798 5.00514C58.2915 4.21164 57.8642 3.6623 57.4369 3.41814C57.0097 3.11295 56.3993 2.99088 55.7279 2.99088C54.8733 2.99088 54.1409 3.23503 53.5915 3.72334C53.0422 4.21164 52.737 4.82202 52.737 5.55448C52.737 6.5311 53.4695 7.38563 54.9954 7.99602L57.0707 8.85055C58.7188 9.52197 60.0006 10.3765 60.733 11.3531C61.5265 12.3297 61.8927 13.5505 61.8927 14.9544C61.8927 16.8466 61.2824 18.4336 60.0006 19.6543C58.7188 20.8751 57.1318 21.5465 55.2396 21.5465C53.4695 21.5465 51.9435 20.9972 50.7838 19.9595C50.0513 19.2881 49.502 18.4336 49.1357 17.4569L51.8214 14.7713C51.9435 15.992 52.1877 16.8466 52.5539 17.2738C53.2253 18.1894 54.1409 18.6167 55.3616 18.6167C56.3383 18.6167 57.1318 18.3115 57.8032 17.6401C58.4746 16.9686 58.7798 16.1751 58.7798 15.1375C58.7798 14.7102 58.7188 14.344 58.5967 14.0388C58.4746 13.7336 58.2915 13.3674 58.0473 13.1232C57.8032 12.818 57.498 12.5739 57.1318 12.3297C56.7655 12.0856 56.3383 11.8414 55.7889 11.5973L53.7747 10.7427C50.9669 9.52197 49.563 7.8129 49.563 5.49345C49.563 3.96749 50.1734 2.62465 51.3331 1.587C52.4928 0.549344 53.9578 0 55.7279 0C57.8642 0 59.6343 0.976613 60.9161 2.8688L58.7798 5.00514Z" fill="white"/>
<path d="M98.7601 30.9458C98.4549 30.8237 98.0887 30.8237 97.7835 30.8237C97.2341 30.8237 96.8069 30.9458 96.4406 31.1289C96.0744 31.312 95.6471 31.6783 95.1588 32.1666V30.8237H92.5342V42.9093H95.1588V36.5613C95.1588 34.364 95.8913 33.3263 97.2952 33.3263C97.7835 33.3263 98.2718 33.5094 98.7601 33.8756V30.9458Z" fill="white"/>
<path d="M49.1357 33.3877C49.1357 30.8241 50.0513 28.6267 51.9435 26.8566C53.7747 25.0254 56.0331 24.1099 58.6577 24.1099C61.2213 24.1099 63.4187 25.0254 65.3109 26.8566C67.142 28.6877 68.0576 30.8851 68.0576 33.5098C68.0576 36.1344 67.142 38.3318 65.2499 40.1019C63.3577 41.933 61.1603 42.8486 58.4746 42.8486C56.1551 42.8486 54.0188 42.0551 52.1877 40.4071C50.1124 38.637 49.1357 36.2565 49.1357 33.3877ZM51.8825 33.3877C51.8825 35.4019 52.5539 37.05 53.8967 38.3318C55.2396 39.6136 56.7655 40.285 58.5356 40.285C60.4278 40.285 62.0148 39.6136 63.3577 38.3318C64.6395 36.9889 65.3109 35.4019 65.3109 33.5098C65.3109 31.5565 64.6395 29.9695 63.3577 28.6877C62.0759 27.4059 60.4889 26.7345 58.5967 26.7345C56.7045 26.7345 55.1175 27.4059 53.8357 28.6877C52.4928 29.9085 51.8825 31.4955 51.8825 33.3877Z" fill="white"/>
<path d="M71.2926 45.2293H68.668V30.7632H71.2926V32.3502C72.3303 31.3125 73.49 30.7632 74.8328 30.7632C76.4198 30.7632 77.7016 31.3125 78.7393 32.4723C79.7769 33.632 80.2652 35.0969 80.2652 36.806C80.2652 38.515 79.7769 39.9189 78.7393 41.0787C77.7016 42.2384 76.4198 42.7877 74.8939 42.7877C73.551 42.7877 72.3913 42.2384 71.2926 41.2007V45.2293ZM77.5796 36.867C77.5796 35.7683 77.2744 34.9138 76.664 34.1813C76.0536 33.5099 75.3211 33.1437 74.4056 33.1437C73.429 33.1437 72.6355 33.5099 72.0251 34.1203C71.4147 34.7917 71.1095 35.6462 71.1095 36.7449C71.1095 37.8436 71.4147 38.6982 72.0251 39.3696C72.6355 40.041 73.429 40.4072 74.3445 40.4072C75.2601 40.4072 75.9926 40.041 76.6029 39.3696C77.2744 38.7592 77.5796 37.9047 77.5796 36.867Z" fill="white"/>
<path d="M91.8023 37.4164H83.6232C83.6842 38.3319 83.9894 39.1254 84.5388 39.6748C85.0881 40.2241 85.7595 40.4683 86.6141 40.4683C87.2855 40.4683 87.8348 40.2852 88.2621 39.98C88.6894 39.6748 89.1777 39.0644 89.727 38.2709L91.5582 40.102C91.314 40.4072 91.0699 40.7124 90.8257 41.0176C90.4595 41.4449 90.0322 41.7501 89.6049 42.0553C89.1777 42.2994 88.6894 42.5436 88.2011 42.6656C87.7127 42.7877 87.1634 42.8488 86.553 42.8488C84.8439 42.8488 83.5011 42.2994 82.4635 41.2007C81.4258 40.102 80.9375 38.6371 80.9375 36.806C80.9375 34.9748 81.4258 33.5709 82.4635 32.4112C83.5011 31.3125 84.7829 30.7632 86.492 30.7632C88.2011 30.7632 89.4829 31.3125 90.4595 32.3502C91.4361 33.3878 91.9244 34.9138 91.9244 36.7449L91.8023 37.4164ZM89.1166 35.28C88.7504 33.8761 87.8348 33.1437 86.4309 33.1437C86.1258 33.1437 85.8206 33.2047 85.5154 33.2658C85.2102 33.3878 84.966 33.5099 84.7219 33.693C84.4777 33.8761 84.2946 34.1203 84.1115 34.3644C83.9284 34.6086 83.8063 34.9138 83.7453 35.219H89.1166V35.28Z" fill="white"/>
<path d="M107.671 30.7632H110.296V42.7877H107.671V41.2618C106.573 42.2994 105.413 42.7877 104.192 42.7877C102.605 42.7877 101.323 42.2384 100.286 41.0787C99.2481 39.9189 98.7598 38.454 98.7598 36.7449C98.7598 35.0359 99.2481 33.632 100.286 32.4723C101.323 31.3125 102.605 30.7632 104.131 30.7632C105.474 30.7632 106.634 31.3125 107.732 32.4112V30.7632H107.671ZM101.445 36.7449C101.445 37.8436 101.751 38.6982 102.3 39.4306C102.91 40.102 103.643 40.4683 104.558 40.4683C105.535 40.4683 106.329 40.102 106.939 39.4306C107.549 38.7592 107.854 37.8436 107.854 36.806C107.854 35.7683 107.549 34.8527 106.939 34.1813C106.329 33.5099 105.535 33.1437 104.619 33.1437C103.704 33.1437 102.971 33.5099 102.361 34.1813C101.751 34.8527 101.445 35.7683 101.445 36.7449Z" fill="white"/>
<path d="M115.668 33.2659V42.849H113.043V33.2659H110.968V30.8244H113.043V26.979H115.668V30.8244H117.743V33.2659H115.668Z" fill="white"/>
<path d="M120.978 30.7632H118.354V42.8488H120.978V30.7632Z" fill="white"/>
<path d="M120.978 26.9175H118.354V29.5421H120.978V26.9175Z" fill="white"/>
<path d="M122.321 36.7444C122.321 35.0964 122.932 33.6925 124.091 32.5328C125.251 31.3731 126.716 30.8237 128.425 30.8237C130.134 30.8237 131.599 31.4341 132.759 32.5938C133.919 33.7536 134.529 35.1575 134.529 36.8665C134.529 38.5756 133.919 39.9795 132.759 41.1392C131.599 42.2989 130.134 42.8483 128.364 42.8483C126.655 42.8483 125.251 42.2379 124.091 41.0782C122.871 39.9184 122.321 38.4535 122.321 36.7444ZM125.007 36.7444C125.007 37.9042 125.312 38.7587 125.923 39.4301C126.533 40.1016 127.387 40.4678 128.364 40.4678C129.402 40.4678 130.195 40.1626 130.806 39.4912C131.416 38.8197 131.721 37.9652 131.721 36.8055C131.721 35.7068 131.416 34.7912 130.806 34.1198C130.195 33.4484 129.341 33.1432 128.364 33.1432C127.387 33.1432 126.533 33.5094 125.923 34.1198C125.312 34.8523 125.007 35.7068 125.007 36.7444Z" fill="white"/>
<path d="M135.749 30.7632H138.435V32.1671C139.35 31.2515 140.388 30.8242 141.548 30.8242C142.891 30.8242 143.928 31.2515 144.661 32.106C145.271 32.8385 145.637 33.9982 145.637 35.5852V42.9098H143.013V36.1956C143.013 35.0969 142.829 34.3034 142.524 33.8761C142.219 33.4489 141.67 33.2047 140.876 33.2047C140.022 33.2047 139.411 33.5099 138.984 34.0592C138.618 34.6086 138.435 35.6462 138.435 37.0501V42.9098H135.81V30.7632H135.749Z" fill="white"/>
<path d="M151.07 34.1808C150.704 33.4484 150.277 33.1432 149.788 33.1432C149.544 33.1432 149.361 33.2042 149.178 33.3873C148.995 33.5705 148.934 33.7536 148.934 33.9977C148.934 34.425 149.422 34.8523 150.46 35.2795C151.864 35.8899 152.779 36.4393 153.267 36.9276C153.756 37.4159 154 38.1483 154 39.0029C154 40.1016 153.573 41.0171 152.779 41.7496C151.986 42.482 151.009 42.7872 149.91 42.7872C148.262 42.7872 147.103 42.1158 146.248 40.773L148.079 38.9418C148.384 39.4912 148.629 39.8574 148.812 39.9795C149.117 40.2847 149.544 40.4067 149.971 40.4067C150.887 40.4067 151.314 39.9795 151.314 39.186C151.314 38.6977 150.948 38.2704 150.277 37.9042C150.032 37.7821 149.727 37.66 149.483 37.5379C149.239 37.4159 148.934 37.2938 148.69 37.1717C147.896 36.8055 147.408 36.4393 147.103 36.073C146.675 35.5847 146.492 34.9743 146.492 34.2419C146.492 33.2653 146.858 32.4107 147.53 31.8003C148.201 31.1289 149.056 30.8237 150.032 30.8237C151.253 30.8237 152.23 31.3731 152.901 32.4107L151.07 34.1808Z" fill="white"/>
</svg>
