<svg width="375" height="227" viewBox="0 0 375 227" fill="none" xmlns="http://www.w3.org/2000/svg">
<mask id="mask0" mask-type="alpha" maskUnits="userSpaceOnUse" x="0" y="0" width="375" height="228">
<rect x="375" y="227.186" width="375" height="227.186" transform="rotate(-180 375 227.186)" fill="url(#paint0_linear)"/>
</mask>
<g mask="url(#mask0)">
<g opacity="0.2">
<path d="M308.788 232.105L308.788 198.501L342.391 232.105L308.788 232.105Z" stroke="white" stroke-miterlimit="10"/>
<path d="M359.232 198.501L308.788 198.501L308.788 215.263L375.994 215.263L359.232 198.501Z" stroke="white" stroke-miterlimit="10"/>
<path d="M375.994 232.104L375.994 215.263L325.629 215.263L342.391 232.104L375.994 232.104Z" stroke="white" stroke-miterlimit="10"/>
<path d="M308.788 215.263L275.185 215.263L308.788 248.866L308.788 215.263Z" stroke="white" stroke-miterlimit="10"/>
<path d="M241.581 215.263L241.581 181.66L275.185 215.263L241.581 215.263Z" stroke="white" stroke-miterlimit="10"/>
<path d="M292.026 181.66L241.582 181.66L241.582 198.501L308.788 198.501L292.026 181.66Z" stroke="white" stroke-miterlimit="10"/>
<path d="M241.581 232.104L241.581 215.263L275.184 215.263L292.025 232.104L241.581 232.104Z" stroke="white" stroke-miterlimit="10"/>
<path d="M308.788 215.263L308.788 198.501L258.423 198.501L275.185 215.263L308.788 215.263Z" stroke="white" stroke-miterlimit="10"/>
<path d="M241.582 198.501L208.058 198.501L241.582 232.104L241.582 198.501Z" stroke="white" stroke-miterlimit="10"/>
<path d="M174.455 198.501L174.455 164.898L208.058 198.501L174.455 198.501Z" stroke="white" stroke-miterlimit="10"/>
<path d="M241.582 215.263L174.455 215.263L191.217 232.104L241.582 232.104L241.582 215.263Z" stroke="white" stroke-miterlimit="10"/>
<path d="M224.82 164.898L174.455 164.898L174.455 181.66L241.582 181.66L224.82 164.898Z" stroke="white" stroke-miterlimit="10"/>
<path d="M174.454 215.263L174.454 198.501L208.057 198.501L224.819 215.263L174.454 215.263Z" stroke="white" stroke-miterlimit="10"/>
<path d="M241.582 198.501L241.582 181.66L191.217 181.66L208.058 198.501L241.582 198.501Z" stroke="white" stroke-miterlimit="10"/>
<path d="M174.455 181.66L140.852 181.66L174.455 215.263L174.455 181.66Z" stroke="white" stroke-miterlimit="10"/>
<path d="M107.248 181.66L107.248 148.057L140.852 181.66L107.248 181.66Z" stroke="white" stroke-miterlimit="10"/>
<path d="M174.455 198.501L107.249 198.501L124.011 215.263L174.455 215.263L174.455 198.501Z" stroke="white" stroke-miterlimit="10"/>
<path d="M157.614 148.057L107.249 148.057L107.249 164.898L174.455 164.898L157.614 148.057Z" stroke="white" stroke-miterlimit="10"/>
<path d="M107.249 198.501L107.249 181.66L140.852 181.66L157.614 198.501L107.249 198.501Z" stroke="white" stroke-miterlimit="10"/>
<path d="M174.455 181.66L174.455 164.898L124.011 164.898L140.852 181.66L174.455 181.66Z" stroke="white" stroke-miterlimit="10"/>
<path d="M107.248 164.898L73.645 164.898L107.248 198.501L107.248 164.898Z" stroke="white" stroke-miterlimit="10"/>
<path d="M40.0434 164.898L40.0434 131.295L73.6465 164.898L40.0434 164.898Z" stroke="white" stroke-miterlimit="10"/>
<path d="M107.248 181.66L40.0419 181.66L56.8039 198.501L107.248 198.501L107.248 181.66Z" stroke="white" stroke-miterlimit="10"/>
<path d="M90.408 131.295L40.0429 131.295L40.0429 148.057L107.249 148.057L90.408 131.295Z" stroke="white" stroke-miterlimit="10"/>
<path d="M40.0431 181.66L40.0431 164.898L73.6462 164.898L90.4082 181.66L40.0431 181.66Z" stroke="white" stroke-miterlimit="10"/>
<path d="M107.249 164.898L107.249 148.057L56.8049 148.057L73.6459 164.898L107.249 164.898Z" stroke="white" stroke-miterlimit="10"/>
<path d="M40.043 148.057L6.43989 148.057L40.043 181.66L40.043 148.057Z" stroke="white" stroke-miterlimit="10"/>
<path d="M-27.1636 148.057L-27.1636 114.454L6.43945 148.057L-27.1636 148.057Z" stroke="white" stroke-miterlimit="10"/>
<path d="M40.043 164.898L-27.1632 164.898L-10.4012 181.66L40.043 181.66L40.043 164.898Z" stroke="white" stroke-miterlimit="10"/>
<path d="M23.2019 114.454L-27.1632 114.454L-27.1632 131.295L40.043 131.295L23.2019 114.454Z" stroke="white" stroke-miterlimit="10"/>
<path d="M-27.163 164.898L-27.163 148.057L6.44013 148.057L23.2021 164.898L-27.163 164.898Z" stroke="white" stroke-miterlimit="10"/>
<path d="M40.043 148.057L40.043 131.295L-10.4012 131.295L6.43988 148.057L40.043 148.057Z" stroke="white" stroke-miterlimit="10"/>
<path d="M124.01 248.866L124.01 215.263L157.613 248.866L124.01 248.866Z" stroke="white" stroke-miterlimit="10"/>
<path d="M174.455 215.263L124.011 215.263L124.011 232.104L191.217 232.104L174.455 215.263Z" stroke="white" stroke-miterlimit="10"/>
<path d="M56.8041 232.104L56.8041 198.501L90.4072 232.104L56.8041 232.104Z" stroke="white" stroke-miterlimit="10"/>
<path d="M107.249 198.501L56.8046 198.501L56.8046 215.263L124.011 215.263L107.249 198.501Z" stroke="white" stroke-miterlimit="10"/>
<path d="M124.011 232.104L124.011 215.263L73.6456 215.263L90.4077 232.104L124.011 232.104Z" stroke="white" stroke-miterlimit="10"/>
<path d="M56.8037 215.263L23.2006 215.263L56.8037 248.866L56.8037 215.263Z" stroke="white" stroke-miterlimit="10"/>
<path d="M-10.4019 215.263L-10.4019 181.66L23.2012 215.263L-10.4019 215.263Z" stroke="white" stroke-miterlimit="10"/>
<path d="M40.0427 181.66L-10.4015 181.66L-10.4015 198.501L56.8047 198.501L40.0427 181.66Z" stroke="white" stroke-miterlimit="10"/>
<path d="M-10.4022 232.104L-10.4022 215.263L23.2009 215.263L40.042 232.104L-10.4022 232.104Z" stroke="white" stroke-miterlimit="10"/>
<path d="M56.8047 215.263L56.8047 198.501L6.43958 198.501L23.2016 215.263L56.8047 215.263Z" stroke="white" stroke-miterlimit="10"/>
</g>
</g>
<defs>
<linearGradient id="paint0_linear" x1="419.228" y1="427.773" x2="573.29" y2="173.859" gradientUnits="userSpaceOnUse">
<stop offset="1.15328e-07" stop-color="#181878"/>
<stop offset="0.998" stop-color="#187FC4"/>
</linearGradient>
</defs>
</svg>
