<svg width="234" height="68" viewBox="0 0 234 68" fill="none" xmlns="http://www.w3.org/2000/svg">
<path d="M31.7266 32.0484H63.4533V48.7268V63.7751H15.0482L0 48.7268H48.4051L31.7266 32.0484ZM63.4533 15.37L48.4051 0.321777H0V15.37V32.0484H31.7266L15.0482 15.37H63.4533Z" fill="white"/>
<path d="M125.151 11.9841C124.649 11.8587 124.022 11.7333 123.521 11.7333C122.643 11.7333 121.89 11.8587 121.263 12.2349C120.636 12.6111 119.884 13.1128 119.132 13.9906V11.7333H114.617V32.1738H119.132V21.6401C119.132 18.0034 120.386 16.1224 122.768 16.1224C123.521 16.1224 124.399 16.3732 125.276 17.0002V11.9841H125.151Z" fill="white"/>
<path d="M178.07 11.9841C177.568 11.8587 176.941 11.7333 176.44 11.7333C175.562 11.7333 174.809 11.8587 174.182 12.2349C173.555 12.6111 172.803 13.1128 172.051 13.9906V11.7333H167.536V32.1738H172.051V21.6401C172.051 18.0034 173.305 16.1224 175.687 16.1224C176.44 16.1224 177.317 16.3732 178.195 17.0002V11.9841H178.07Z" fill="white"/>
<path d="M112.36 22.8941H98.5656C98.691 24.5243 99.1926 25.7784 100.07 26.6562C100.948 27.534 102.202 28.0356 103.582 28.0356C104.71 28.0356 105.588 27.7848 106.34 27.2832C107.093 26.7816 107.845 25.7784 108.723 24.3989L111.858 27.534C111.482 28.161 111.106 28.6626 110.604 29.0388C109.977 29.7912 109.225 30.2928 108.472 30.7944C107.72 31.296 106.967 31.5468 106.09 31.7976C105.212 32.0484 104.334 32.1738 103.331 32.1738C100.447 32.1738 98.1894 31.296 96.4337 29.415C94.6781 27.534 93.8003 25.0259 93.8003 22.0163C93.8003 19.0067 94.6781 16.4986 96.3083 14.6176C98.064 12.7366 100.321 11.8588 103.08 11.8588C105.964 11.8588 108.221 12.7366 109.852 14.6176C111.482 16.3732 112.36 18.8813 112.36 22.1417V22.8941ZM107.845 19.2575C107.218 16.8748 105.713 15.7462 103.331 15.7462C102.829 15.7462 102.328 15.8716 101.826 15.997C101.324 16.1224 100.948 16.3732 100.572 16.7494C100.196 17.0002 99.8196 17.3764 99.5688 17.878C99.318 18.2543 99.0672 18.7559 98.9418 19.3829H107.845V19.2575Z" fill="white"/>
<path d="M165.279 22.8941H151.485C151.61 24.5243 152.112 25.7784 152.99 26.6562C153.868 27.534 155.122 28.0356 156.501 28.0356C157.63 28.0356 158.507 27.7848 159.26 27.2832C160.012 26.7816 160.765 25.7784 161.643 24.3989L164.778 27.534C164.401 28.161 164.025 28.6626 163.524 29.0388C162.897 29.7912 162.144 30.2928 161.392 30.7944C160.639 31.296 159.887 31.5468 159.009 31.7976C158.131 32.0484 157.253 32.1738 156.25 32.1738C153.366 32.1738 151.109 31.296 149.353 29.415C147.598 27.534 146.72 25.0259 146.72 22.0163C146.72 19.0067 147.598 16.4986 149.228 14.6176C150.983 12.7366 153.241 11.8588 155.999 11.8588C158.884 11.8588 161.141 12.7366 162.771 14.6176C164.401 16.3732 165.279 18.8813 165.279 22.1417V22.8941ZM160.639 19.2575C160.012 16.8748 158.507 15.7462 156.125 15.7462C155.623 15.7462 155.122 15.8716 154.62 15.997C154.118 16.1224 153.742 16.3732 153.366 16.7494C152.99 17.0002 152.614 17.3764 152.363 17.878C152.112 18.2543 151.861 18.7559 151.736 19.3829H160.639V19.2575Z" fill="white"/>
<path d="M205.407 22.8941H191.613C191.738 24.5243 192.24 25.7784 193.118 26.6562C193.996 27.534 195.25 28.0356 196.629 28.0356C197.758 28.0356 198.635 27.7848 199.388 27.2832C200.14 26.7816 200.893 25.7784 201.77 24.3989L204.905 27.534C204.529 28.161 204.153 28.6626 203.651 29.0388C203.024 29.7912 202.272 30.2928 201.52 30.7944C200.767 31.296 200.015 31.5468 199.137 31.7976C198.259 32.0484 197.381 32.1738 196.378 32.1738C193.494 32.1738 191.237 31.296 189.481 29.415C187.725 27.534 186.848 25.0259 186.848 22.0163C186.848 19.0067 187.725 16.4986 189.356 14.6176C191.111 12.7366 193.369 11.8588 196.127 11.8588C199.012 11.8588 201.269 12.7366 202.899 14.6176C204.529 16.3732 205.407 18.8813 205.407 22.1417V22.8941ZM200.893 19.2575C200.266 16.8748 198.761 15.7462 196.378 15.7462C195.877 15.7462 195.375 15.8716 194.873 15.997C194.372 16.1224 193.996 16.3732 193.619 16.7494C193.243 17.0002 192.867 17.3764 192.616 17.878C192.365 18.2543 192.115 18.7559 191.989 19.3829H200.893V19.2575Z" fill="white"/>
<path d="M131.296 11.7333L136.563 23.1449L141.83 11.7333H146.846L136.563 32.9262L126.405 11.7333H131.296Z" fill="white"/>
<path d="M184.717 6.09027V33.9295L180.202 29.415V1.57581L184.717 6.09027Z" fill="white"/>
<path d="M214.687 17.5018C214.06 16.3732 213.433 15.7462 212.555 15.7462C212.179 15.7462 211.803 15.8716 211.552 16.1224C211.301 16.3732 211.176 16.7494 211.176 17.1256C211.176 17.878 212.054 18.6304 213.809 19.3828C216.192 20.3861 217.822 21.3893 218.574 22.1417C219.452 23.0195 219.828 24.1481 219.828 25.6529C219.828 27.534 219.201 29.0388 217.822 30.2928C216.443 31.4214 214.812 32.0484 212.931 32.0484C210.172 32.0484 208.166 30.9198 206.787 28.6626L209.922 25.5275C210.423 26.4053 210.799 27.0323 211.176 27.2832C211.677 27.7848 212.304 28.0356 213.057 28.0356C214.562 28.0356 215.314 27.4086 215.314 26.0291C215.314 25.2767 214.687 24.5243 213.558 23.7719C213.057 23.5211 212.681 23.2703 212.179 23.1449C211.677 22.8941 211.301 22.7687 210.799 22.5179C209.545 21.8909 208.542 21.2639 208.041 20.6369C207.414 19.8845 207.037 18.7558 207.037 17.5018C207.037 15.8716 207.664 14.4922 208.793 13.3636C209.922 12.2349 211.426 11.7333 213.057 11.7333C215.189 11.7333 216.819 12.6111 217.947 14.4922L214.687 17.5018Z" fill="white"/>
<path d="M228.858 17.5018C228.231 16.3732 227.604 15.7462 226.726 15.7462C226.35 15.7462 225.974 15.8716 225.723 16.1224C225.472 16.3732 225.347 16.7494 225.347 17.1256C225.347 17.878 226.225 18.6304 227.981 19.3828C230.363 20.3861 231.993 21.3893 232.746 22.1417C233.624 23.0195 234 24.1481 234 25.6529C234 27.534 233.373 29.0388 231.993 30.2928C230.614 31.4214 228.984 32.0484 227.103 32.0484C224.344 32.0484 222.337 30.9198 220.958 28.6626L224.093 25.5275C224.595 26.4053 224.971 27.0323 225.347 27.2832C225.849 27.7848 226.476 28.0356 227.228 28.0356C228.733 28.0356 229.485 27.4086 229.485 26.0291C229.485 25.2767 228.858 24.5243 227.73 23.7719C227.228 23.5211 226.852 23.2703 226.35 23.1449C225.849 22.8941 225.472 22.7687 224.971 22.5179C223.717 21.8909 222.714 21.2639 222.212 20.6369C221.585 19.8845 221.209 18.7558 221.209 17.5018C221.209 15.8716 221.836 14.4922 222.964 13.3636C224.093 12.2349 225.598 11.7333 227.228 11.7333C229.36 11.7333 230.99 12.6111 232.119 14.4922L228.858 17.5018Z" fill="white"/>
<path d="M87.1538 7.72048C86.4014 6.46646 85.7744 5.71405 85.1474 5.33785C84.5204 4.96164 83.6425 4.71084 82.6393 4.71084C81.3853 4.71084 80.2567 5.08704 79.5043 5.83945C78.6265 6.59186 78.2503 7.46968 78.2503 8.47289C78.2503 9.97771 79.3789 11.1063 81.6361 12.1095L84.6458 13.3636C87.1538 14.3668 88.9094 15.6208 90.038 17.0002C91.1667 18.3796 91.7937 20.2607 91.7937 22.2671C91.7937 25.0259 90.9158 27.4086 89.0348 29.2896C87.1538 31.1706 84.7712 32.0484 82.0123 32.0484C79.3789 32.0484 77.1217 31.296 75.4914 29.6658C74.3628 28.6626 73.6104 27.4086 72.9834 25.9037L76.8708 22.0163C77.1217 23.7719 77.4979 25.0259 77.9995 25.7783C79.0027 27.1577 80.3821 27.7848 82.1377 27.7848C83.5171 27.7848 84.7712 27.2832 85.7744 26.2799C86.7776 25.2767 87.1538 24.1481 87.1538 22.6433C87.1538 22.0163 87.0284 21.5147 86.903 21.0131C86.7776 20.5115 86.5268 20.0098 86.1506 19.6336C85.7744 19.2574 85.3982 18.8812 84.7712 18.505C84.2696 18.1288 83.5171 17.7526 82.7647 17.5018L79.7551 16.2478C75.6168 14.4922 73.485 11.8587 73.485 8.47289C73.485 6.21566 74.3628 4.20923 76.1184 2.70441C77.8741 1.07419 80.0059 0.321777 82.6393 0.321777C85.7744 0.321777 88.4078 1.7012 90.2888 4.58544L87.1538 7.72048Z" fill="white"/>
<path d="M148.726 46.3445C148.224 46.2191 147.723 46.0937 147.347 46.0937C146.594 46.0937 145.967 46.2191 145.34 46.4699C144.839 46.7207 144.212 47.2223 143.459 47.9747V45.9683H139.572V63.7753H143.459V54.621C143.459 51.4859 144.462 49.8557 146.594 49.8557C147.347 49.8557 147.974 50.1065 148.726 50.6081V46.3445Z" fill="white"/>
<path d="M72.8579 49.9809C72.8579 46.2188 74.2373 42.9584 76.9962 40.325C79.755 37.6915 83.0155 36.3121 86.9029 36.3121C90.665 36.3121 93.9254 37.6915 96.6842 40.325C99.4431 43.0838 100.822 46.3442 100.822 50.1063C100.822 53.9937 99.4431 57.1288 96.6842 59.8876C93.9254 62.5211 90.665 63.9005 86.7775 63.9005C83.3917 63.9005 80.2566 62.7719 77.4978 60.3892C74.3627 57.6304 72.8579 54.2445 72.8579 49.9809ZM76.8708 49.9809C76.8708 52.8651 77.874 55.3732 79.8804 57.2542C81.8868 59.1352 84.1441 60.1384 86.6521 60.1384C89.4109 60.1384 91.7936 59.1352 93.6746 57.2542C95.5556 55.2478 96.5588 52.8651 96.5588 50.1063C96.5588 47.2221 95.5556 44.8394 93.6746 42.9584C91.7936 41.0774 89.4109 40.0742 86.6521 40.0742C83.8933 40.0742 81.5106 41.0774 79.6296 42.9584C77.874 44.8394 76.8708 47.222 76.8708 49.9809Z" fill="white"/>
<path d="M106.467 67.412H102.579V46.0937H106.467V48.3509C107.971 46.8461 109.727 46.0937 111.733 46.0937C113.991 46.0937 115.997 46.9715 117.376 48.6017C118.881 50.2319 119.634 52.3638 119.634 54.9972C119.634 57.5052 118.881 59.6371 117.376 61.2673C115.872 62.8975 113.991 63.7753 111.733 63.7753C109.727 63.7753 107.971 63.0229 106.467 61.3927V67.412ZM115.621 55.1226C115.621 53.4924 115.245 52.2384 114.367 51.2352C113.489 50.2319 112.36 49.7303 110.981 49.7303C109.602 49.7303 108.348 50.2319 107.47 51.2352C106.592 52.2384 106.09 53.4924 106.09 55.1226C106.09 56.7528 106.592 58.0069 107.47 59.0101C108.348 60.0133 109.476 60.5149 110.856 60.5149C112.235 60.5149 113.364 60.0133 114.241 59.0101C115.245 57.8814 115.621 56.6274 115.621 55.1226Z" fill="white"/>
<path d="M137.565 55.875H125.527C125.652 57.2545 126.028 58.3831 126.906 59.1355C127.658 59.8879 128.662 60.3895 129.916 60.3895C130.919 60.3895 131.671 60.1387 132.298 59.7625C132.925 59.2609 133.678 58.5085 134.43 57.2545L137.189 60.0133C136.813 60.5149 136.562 60.8911 136.186 61.3927C135.684 62.0197 135.057 62.5213 134.43 62.8975C133.803 63.2737 133.051 63.5245 132.298 63.7753C131.546 63.9007 130.793 64.0262 129.916 64.0262C127.408 64.0262 125.401 63.2737 123.896 61.6435C122.392 60.0133 121.639 57.8815 121.639 55.248C121.639 52.6146 122.392 50.4828 123.896 48.8525C125.401 47.2223 127.282 46.4699 129.79 46.4699C132.298 46.4699 134.179 47.2223 135.684 48.8525C137.064 50.3574 137.816 52.6146 137.816 55.3734L137.565 55.875ZM133.552 52.74C133.051 50.7336 131.671 49.605 129.665 49.605C129.163 49.605 128.787 49.7304 128.285 49.8558C127.909 49.9812 127.533 50.232 127.157 50.4828C126.781 50.7336 126.53 51.1098 126.279 51.486C126.028 51.8622 125.903 52.2384 125.777 52.74H133.552Z" fill="white"/>
<path d="M162.897 46.0937H166.784V63.7753H162.897V61.5181C161.266 63.0229 159.636 63.7753 157.755 63.7753C155.373 63.7753 153.492 62.8975 151.987 61.2673C150.482 59.5117 149.729 57.3798 149.729 54.8718C149.729 52.3638 150.482 50.2319 151.987 48.6017C153.492 46.9715 155.373 46.0937 157.63 46.0937C159.636 46.0937 161.392 46.8461 162.897 48.4763V46.0937ZM153.617 54.8718C153.617 56.502 153.993 57.756 154.871 58.7593C155.749 59.7625 156.877 60.2641 158.257 60.2641C159.636 60.2641 160.89 59.7625 161.768 58.7593C162.646 57.756 163.147 56.502 163.147 54.8718C163.147 53.2416 162.646 51.9876 161.768 50.9844C160.89 49.9811 159.762 49.4795 158.382 49.4795C157.003 49.4795 155.874 49.9811 154.996 50.9844C154.119 52.113 153.617 53.367 153.617 54.8718Z" fill="white"/>
<path d="M175.563 49.7303V63.9007H171.675V49.7303H168.666V46.0936H171.675V40.4506H175.563V46.0936H178.572V49.7303H175.563Z" fill="white"/>
<path d="M180.454 42.3316C180.454 41.83 180.705 41.3284 181.081 40.9522C181.457 40.576 181.959 40.3252 182.461 40.3252C182.962 40.3252 183.464 40.576 183.84 40.9522C184.216 41.3284 184.467 41.83 184.467 42.3316C184.467 42.8332 184.216 43.3348 183.84 43.711C183.464 44.0872 182.962 44.338 182.461 44.338C181.959 44.338 181.457 44.0872 181.081 43.711C180.705 43.3348 180.454 42.8332 180.454 42.3316Z" fill="white"/>
<path d="M184.342 46.0938H180.454V63.9008H184.342V46.0938Z" fill="white"/>
<path d="M186.221 54.8718C186.221 52.4891 187.099 50.3573 188.855 48.7271C190.61 46.9715 192.742 46.2191 195.25 46.2191C197.758 46.2191 199.89 47.0969 201.646 48.7271C203.401 50.4827 204.279 52.4891 204.279 54.9972C204.279 57.5052 203.401 59.637 201.646 61.2673C199.89 62.8975 197.758 63.7753 195.25 63.7753C192.742 63.7753 190.61 62.8975 188.98 61.1419C187.099 59.5116 186.221 57.3798 186.221 54.8718ZM190.234 54.8718C190.234 56.502 190.736 57.8814 191.613 58.8846C192.491 59.8878 193.745 60.3895 195.25 60.3895C196.755 60.3895 198.009 59.8878 198.887 58.8846C199.765 57.8814 200.266 56.6274 200.266 54.9972C200.266 53.367 199.765 52.1129 198.887 51.1097C198.009 50.1065 196.755 49.6049 195.25 49.6049C193.745 49.6049 192.617 50.1065 191.613 51.1097C190.736 52.1129 190.234 53.367 190.234 54.8718Z" fill="white"/>
<path d="M206.035 46.0937H209.923V48.1001C211.302 46.7207 212.807 46.0937 214.562 46.0937C216.569 46.0937 218.074 46.7207 219.077 47.9747C220.08 48.9779 220.456 50.7336 220.456 53.1162V63.9007H216.569V53.994C216.569 52.3638 216.318 51.2352 215.816 50.6081C215.315 49.9811 214.562 49.6049 213.308 49.6049C212.054 49.6049 211.051 49.9811 210.55 50.859C210.048 51.7368 209.797 53.1162 209.797 55.248V63.7753H205.91V46.0937H206.035Z" fill="white"/>
<path d="M229.485 51.1097C228.984 50.1065 228.357 49.6049 227.604 49.6049C227.228 49.6049 226.977 49.7303 226.727 49.9811C226.476 50.2319 226.35 50.4827 226.35 50.8589C226.35 51.4859 227.103 52.1129 228.608 52.74C230.614 53.6178 231.993 54.4956 232.746 55.248C233.498 56.0004 233.874 57.0036 233.874 58.2576C233.874 59.8879 233.247 61.2673 232.119 62.2705C230.99 63.2737 229.611 63.7753 227.855 63.7753C225.473 63.7753 223.717 62.7721 222.463 60.8911L225.222 58.1322C225.723 58.8846 225.974 59.3862 226.225 59.637C226.727 60.0133 227.228 60.2641 227.855 60.2641C229.109 60.2641 229.862 59.637 229.862 58.5084C229.862 57.756 229.36 57.129 228.357 56.6274C227.981 56.3766 227.604 56.2512 227.228 56.0004C226.852 55.875 226.476 55.6242 226.1 55.3734C224.971 54.8718 224.219 54.2448 223.717 53.7432C223.09 52.9908 222.839 52.1129 222.839 50.9843C222.839 49.4795 223.341 48.3509 224.344 47.3477C225.347 46.3445 226.601 45.9683 228.106 45.9683C229.862 45.9683 231.366 46.7207 232.37 48.3509L229.485 51.1097Z" fill="white"/>
</svg>
