<svg width="245" height="163" viewBox="0 0 245 163" fill="none" xmlns="http://www.w3.org/2000/svg">
<path d="M233.207 105.708C234.234 105.743 235.23 105.353 235.96 104.63C236.739 103.879 237.172 102.839 237.157 101.757C237.148 99.5136 235.331 97.697 233.087 97.6876C230.94 97.6512 229.17 99.3624 229.133 101.51C229.132 101.592 229.133 101.675 229.137 101.757C229.116 102.818 229.501 103.846 230.214 104.63C231.038 105.358 232.108 105.743 233.207 105.708Z" stroke="#2C48FF" stroke-width="0.8" stroke-linecap="round" stroke-linejoin="round"/>
<path d="M241.706 102.835L244.219 104.75C244.379 104.91 244.379 105.149 244.219 105.468L241.945 109.418C241.862 109.666 241.595 109.8 241.347 109.718C241.304 109.703 241.264 109.683 241.227 109.658L238.354 108.58L236.559 109.658L236.08 112.77C235.981 113.026 235.752 113.209 235.481 113.249H230.932C230.533 113.169 230.334 113.009 230.334 112.77L229.855 109.658L227.94 108.58L225.067 109.658C224.852 109.806 224.558 109.753 224.409 109.538C224.383 109.501 224.363 109.461 224.349 109.418L222.075 105.468C221.915 105.149 221.955 104.91 222.194 104.75L224.588 102.835V100.56L222.194 98.6452C221.955 98.4856 221.915 98.2462 222.075 97.927L224.349 93.9768C224.503 93.7389 224.801 93.6395 225.067 93.7374L227.94 94.8147L229.855 93.7374L230.334 90.7448C230.334 90.4256 230.533 90.266 230.932 90.266H235.481C235.775 90.2456 236.035 90.4538 236.08 90.7448L236.559 93.7374L238.354 94.8147L241.227 93.7374C241.493 93.6394 241.791 93.7388 241.945 93.9768L244.219 97.927C244.379 98.2462 244.379 98.4856 244.219 98.6452L241.706 100.56L241.825 101.757L241.706 102.835Z" stroke="#2C48FF" stroke-width="0.8" stroke-linecap="round" stroke-linejoin="round"/>
<path d="M20.963 113.694H35.5359C36.6242 113.694 37.5065 114.576 37.5065 115.664V117.355C37.5065 118.443 36.6243 119.326 35.5359 119.326H20.963C19.8748 119.326 18.9924 118.443 18.9924 117.355V115.664C18.9925 114.576 19.8748 113.694 20.963 113.694Z" stroke="#2C48FF" stroke-width="0.8" stroke-miterlimit="10"/>
<path d="M88.2414 113.694H102.814C103.902 113.694 104.785 114.576 104.785 115.664V117.355C104.785 118.443 103.903 119.326 102.814 119.326H88.2414C87.1531 119.326 86.2708 118.443 86.2708 117.355V115.664C86.2708 114.576 87.1531 113.694 88.2414 113.694Z" stroke="#2C48FF" stroke-width="0.8" stroke-miterlimit="10"/>
<path d="M42.8971 113.694H80.8705C81.9588 113.694 82.8411 114.576 82.8411 115.664V117.355C82.8411 118.443 81.9589 119.326 80.8705 119.326H42.8971C41.8088 119.326 40.9265 118.443 40.9265 117.355V115.664C40.9266 114.576 41.8088 113.694 42.8971 113.694Z" stroke="#2C48FF" stroke-width="0.8" stroke-miterlimit="10"/>
<path d="M19.8881 124.113H41.5847C42.673 124.113 43.5554 124.995 43.5554 126.083V127.774C43.5554 128.862 42.6731 129.745 41.5847 129.745H19.8881C18.7998 129.745 17.9175 128.862 17.9175 127.774V126.083C17.9175 124.995 18.7997 124.113 19.8881 124.113Z" stroke="#2C48FF" stroke-width="0.8" stroke-miterlimit="10"/>
<path d="M66.8241 124.113H94.8867C95.975 124.113 96.8573 124.995 96.8573 126.083V127.774C96.8573 128.862 95.9751 129.745 94.8867 129.745H66.8241C65.7358 129.745 64.8535 128.862 64.8535 127.774V126.083C64.8536 124.995 65.7358 124.113 66.8241 124.113Z" stroke="#2C48FF" stroke-width="0.8" stroke-miterlimit="10"/>
<path d="M48.946 124.113H59.463C60.5513 124.113 61.4336 124.995 61.4336 126.083V127.774C61.4336 128.862 60.5514 129.745 59.463 129.745H48.946C47.8577 129.745 46.9753 128.862 46.9753 127.774V126.083C46.9753 124.995 47.8576 124.113 48.946 124.113Z" stroke="#2C48FF" stroke-width="0.8" stroke-miterlimit="10"/>
<path d="M18.1938 134.531H49.3431C50.4314 134.531 51.3137 135.413 51.3137 136.502V138.193C51.3137 139.281 50.4314 140.163 49.3431 140.163H18.1938C17.1055 140.163 16.2231 139.281 16.2231 138.193V136.502C16.2232 135.413 17.1055 134.531 18.1938 134.531Z" stroke="#2C48FF" stroke-width="0.8" stroke-miterlimit="10"/>
<path d="M56.7045 134.531H108.978C110.066 134.531 110.948 135.413 110.948 136.502V138.193C110.948 139.281 110.066 140.163 108.978 140.163H56.7045C55.6162 140.163 54.7339 139.281 54.7339 138.193V136.502C54.7339 135.413 55.6162 134.531 56.7045 134.531Z" stroke="#2C48FF" stroke-width="0.8" stroke-miterlimit="10"/>
<path d="M19.1833 144.949H33.4585C34.5468 144.949 35.4291 145.831 35.4291 146.92V148.611C35.4291 149.699 34.5469 150.581 33.4585 150.581H19.1833C18.095 150.581 17.2126 149.699 17.2126 148.611V146.92C17.2126 145.832 18.0949 144.949 19.1833 144.949Z" stroke="#2C48FF" stroke-width="0.8" stroke-miterlimit="10"/>
<path d="M40.8195 144.949H98.4059C99.4942 144.949 100.377 145.831 100.377 146.92V148.611C100.377 149.699 99.4943 150.581 98.4059 150.581H40.8195C39.7312 150.581 38.8489 149.699 38.8489 148.611V146.92C38.849 145.832 39.7312 144.949 40.8195 144.949Z" stroke="#2C48FF" stroke-width="0.8" stroke-miterlimit="10"/>
<path d="M16.2353 155.368H61.5383C62.6266 155.368 63.5089 156.25 63.5089 157.338V159.029C63.5089 160.117 62.6267 161 61.5383 161H16.2353C15.147 161 14.2646 160.117 14.2646 159.029V157.338C14.2646 156.25 15.147 155.368 16.2353 155.368Z" stroke="#2C48FF" stroke-width="0.8" stroke-miterlimit="10"/>
<path d="M68.8993 155.368H88.9847C90.0729 155.368 90.9553 156.25 90.9553 157.338V159.029C90.9553 160.117 90.073 161 88.9847 161H68.8993C67.811 161 66.9287 160.117 66.9287 159.029V157.338C66.9287 156.25 67.811 155.368 68.8993 155.368Z" stroke="#2C48FF" stroke-width="0.8" stroke-miterlimit="10"/>
<path d="M2.97061 113.694H13.602C14.6902 113.694 15.5726 114.576 15.5726 115.664V117.355C15.5726 118.443 14.6903 119.326 13.602 119.326H2.97061C1.88233 119.326 1 118.443 1 117.355V115.664C1.0001 114.576 1.88233 113.694 2.97061 113.694Z" stroke="#2C48FF" stroke-width="0.8" stroke-miterlimit="10"/>
<path d="M2.97061 124.113H12.5271C13.6154 124.113 14.4977 124.995 14.4977 126.083V127.774C14.4977 128.862 13.6155 129.745 12.5271 129.745H2.97061C1.88233 129.745 1 128.862 1 127.774V126.083C1.0001 124.995 1.88233 124.113 2.97061 124.113Z" stroke="#2C48FF" stroke-width="0.8" stroke-miterlimit="10"/>
<path d="M2.97061 134.531H10.8328C11.9211 134.531 12.8034 135.413 12.8034 136.502V138.193C12.8034 139.281 11.9212 140.163 10.8328 140.163H2.97061C1.88233 140.163 1 139.281 1 138.193V136.502C1.0001 135.413 1.88233 134.531 2.97061 134.531Z" stroke="#2C48FF" stroke-width="0.8" stroke-miterlimit="10"/>
<path d="M2.97061 144.949H11.8221C12.9104 144.949 13.7927 145.831 13.7927 146.92V148.611C13.7927 149.699 12.9105 150.581 11.8221 150.581H2.97061C1.88233 150.581 1 149.699 1 148.611V146.92C1.0001 145.832 1.88233 144.949 2.97061 144.949Z" stroke="#2C48FF" stroke-width="0.8" stroke-miterlimit="10"/>
<path d="M2.97061 155.368H8.87409C9.96236 155.368 10.8447 156.25 10.8447 157.338V159.029C10.8447 160.117 9.96246 161 8.87409 161H2.97061C1.88233 161 1 160.117 1 159.029V157.338C1.0001 156.25 1.88233 155.368 2.97061 155.368Z" stroke="#2C48FF" stroke-width="0.8" stroke-miterlimit="10"/>
<path d="M203.332 57.6343L209.155 64.3616L185.411 161.627L179.588 154.9L203.332 57.6343Z" stroke="#2C48FF" stroke-width="0.8" stroke-linejoin="round"/>
<path d="M179.588 154.9L185.411 161.627L123.059 161.488L117.237 154.761L179.588 154.9Z" stroke="#2C48FF" stroke-width="0.8" stroke-linejoin="round"/>
<path d="M117.237 154.761L140.981 57.4951L146.804 64.2225L123.059 161.488L117.237 154.761Z" stroke="#2C48FF" stroke-width="0.8" stroke-linejoin="round"/>
<path d="M140.98 57.4946L203.332 57.6338L209.155 64.3611L146.804 64.222L140.98 57.4946Z" stroke="#2C48FF" stroke-width="0.8" stroke-linejoin="round"/>
<path d="M158.14 84.9558H151.357C150.297 84.9558 149.437 84.0965 149.437 83.0364C149.437 82.8852 149.455 82.7344 149.491 82.5874L151.149 75.6949C151.357 74.8325 152.128 74.2246 153.015 74.2246H159.798C160.858 74.2246 161.718 75.0839 161.718 76.144C161.718 76.2952 161.7 76.446 161.664 76.593L160.006 83.4854C159.798 84.3479 159.027 84.9558 158.14 84.9558Z" stroke="#2C48FF" stroke-width="0.8" stroke-linejoin="round"/>
<path d="M172.773 84.9558H165.99C164.93 84.9558 164.071 84.0965 164.071 83.0364C164.071 82.8852 164.089 82.7344 164.124 82.5874L165.783 75.6949C165.99 74.8325 166.762 74.2246 167.649 74.2246H174.432C175.492 74.2246 176.351 75.0839 176.351 76.144C176.351 76.2952 176.333 76.446 176.298 76.593L174.639 83.4854C174.432 84.3479 173.66 84.9558 172.773 84.9558Z" stroke="#2C48FF" stroke-width="0.8" stroke-linejoin="round"/>
<path d="M187.406 84.9558H180.623C179.563 84.9558 178.704 84.0965 178.704 83.0364C178.704 82.8852 178.722 82.7344 178.757 82.5874L180.416 75.6949C180.623 74.8325 181.395 74.2246 182.282 74.2246H189.065C190.125 74.2246 190.984 75.0839 190.984 76.144C190.984 76.2952 190.967 76.446 190.931 76.593L189.272 83.4854C189.065 84.3479 188.293 84.9558 187.406 84.9558Z" stroke="#2C48FF" stroke-width="0.8" stroke-linejoin="round"/>
<path d="M144.491 141.675H137.708C136.648 141.675 135.789 140.816 135.789 139.756C135.789 139.604 135.807 139.454 135.842 139.307L137.501 132.414C137.708 131.552 138.48 130.944 139.367 130.944H146.15C147.21 130.944 148.069 131.803 148.069 132.863C148.069 133.014 148.051 133.165 148.016 133.312L146.357 140.205C146.15 141.067 145.378 141.675 144.491 141.675Z" stroke="#2C48FF" stroke-width="0.8" stroke-linejoin="round"/>
<path d="M159.124 141.675H152.341C151.281 141.675 150.422 140.816 150.422 139.756C150.422 139.604 150.44 139.454 150.475 139.307L152.134 132.414C152.341 131.552 153.113 130.944 154 130.944H160.783C161.843 130.944 162.702 131.803 162.702 132.863C162.702 133.014 162.685 133.165 162.649 133.312L160.991 140.205C160.783 141.067 160.011 141.675 159.124 141.675Z" stroke="#2C48FF" stroke-width="0.8" stroke-linejoin="round"/>
<path d="M169.34 99.2238H162.557C161.497 99.2238 160.637 98.3645 160.637 97.3045C160.637 97.1532 160.655 97.0025 160.691 96.8554L162.349 89.963C162.557 89.1005 163.328 88.4927 164.215 88.4927H170.998C172.058 88.4927 172.918 89.352 172.918 90.412C172.918 90.5633 172.9 90.7141 172.864 90.8611L171.206 97.7535C170.998 98.616 170.227 99.2238 169.34 99.2238Z" stroke="#2C48FF" stroke-width="0.8" stroke-linejoin="round"/>
<path d="M151.273 113.491H144.49C143.43 113.491 142.571 112.632 142.571 111.572C142.571 111.42 142.588 111.27 142.624 111.123L144.282 104.23C144.49 103.368 145.262 102.76 146.149 102.76H152.931C153.992 102.76 154.851 103.619 154.851 104.679C154.851 104.83 154.833 104.981 154.798 105.128L153.139 112.021C152.931 112.883 152.16 113.491 151.273 113.491Z" stroke="#2C48FF" stroke-width="0.8" stroke-linejoin="round"/>
<path d="M165.906 113.491H159.123C158.063 113.491 157.204 112.632 157.204 111.572C157.204 111.42 157.222 111.27 157.257 111.123L158.916 104.23C159.123 103.368 159.895 102.76 160.782 102.76H167.565C168.625 102.76 169.484 103.619 169.484 104.679C169.484 104.83 169.467 104.981 169.431 105.128L167.772 112.021C167.565 112.883 166.793 113.491 165.906 113.491Z" stroke="#2C48FF" stroke-width="0.8" stroke-linejoin="round"/>
<path d="M162.473 127.759H155.69C154.63 127.759 153.771 126.9 153.771 125.84C153.771 125.688 153.789 125.538 153.824 125.391L155.483 118.498C155.69 117.636 156.462 117.028 157.349 117.028H164.132C165.192 117.028 166.051 117.887 166.051 118.947C166.051 119.098 166.033 119.249 165.998 119.396L164.339 126.289C164.132 127.151 163.36 127.759 162.473 127.759Z" stroke="#2C48FF" stroke-width="0.8" stroke-linejoin="round"/>
<path d="M177.107 127.759H170.324C169.264 127.759 168.404 126.9 168.404 125.84C168.404 125.688 168.422 125.538 168.458 125.391L170.116 118.498C170.324 117.636 171.095 117.028 171.982 117.028H178.765C179.825 117.028 180.684 117.887 180.684 118.947C180.684 119.098 180.667 119.249 180.631 119.396L178.973 126.289C178.765 127.151 177.994 127.759 177.107 127.759Z" stroke="#2C48FF" stroke-width="0.8" stroke-linejoin="round"/>
<path d="M183.973 99.2238H177.19C176.13 99.2238 175.271 98.3645 175.271 97.3045C175.271 97.1532 175.289 97.0025 175.324 96.8554L176.983 89.963C177.19 89.1005 177.962 88.4927 178.849 88.4927H185.632C186.692 88.4927 187.551 89.352 187.551 90.412C187.551 90.5633 187.533 90.7141 187.498 90.8611L185.839 97.7535C185.632 98.616 184.86 99.2238 183.973 99.2238Z" stroke="#2C48FF" stroke-width="0.8" stroke-linejoin="round"/>
<path d="M125.087 102.035H17.8103V16.5996H141.117V52.0301" stroke="#2C48FF" stroke-width="0.8" stroke-linejoin="round"/>
<path d="M72.9545 46.7607H51.552V94.1962H72.9545V46.7607Z" stroke="#2C48FF" stroke-width="0.8" stroke-miterlimit="10"/>
<path d="M91.0554 24.4395H51.552V40.953H91.0554V24.4395Z" stroke="#2C48FF" stroke-width="0.8" stroke-miterlimit="10"/>
<path d="M127.182 24.4395H96.0671V40.953H127.182V24.4395Z" stroke="#2C48FF" stroke-width="0.8" stroke-miterlimit="10"/>
<path d="M100.068 46.7607H78.6658V94.1962H100.068V46.7607Z" stroke="#2C48FF" stroke-width="0.8" stroke-miterlimit="10"/>
<path d="M127.182 46.7607H105.78V94.1962H127.182V46.7607Z" stroke="#2C48FF" stroke-width="0.8" stroke-miterlimit="10"/>
<path d="M37.8423 16.5996V102.036" stroke="#2C48FF" stroke-width="0.8" stroke-miterlimit="10"/>
<path d="M27.5209 35.8832C30.1457 35.8832 32.2736 33.7554 32.2736 31.1306C32.2736 28.5058 30.1457 26.3779 27.5209 26.3779C24.8961 26.3779 22.7683 28.5058 22.7683 31.1306C22.7683 33.7554 24.8961 35.8832 27.5209 35.8832Z" stroke="#2C48FF" stroke-width="0.8" stroke-miterlimit="10"/>
<path d="M58.46 58.0909C59.7724 58.0909 60.8363 57.027 60.8363 55.7146C60.8363 54.4023 59.7724 53.3384 58.46 53.3384C57.1476 53.3384 56.0837 54.4023 56.0837 55.7146C56.0837 57.027 57.1476 58.0909 58.46 58.0909Z" stroke="#2C48FF" stroke-width="0.8" stroke-miterlimit="10"/>
<path d="M58.46 67.9337C59.7724 67.9337 60.8363 66.8698 60.8363 65.5574C60.8363 64.245 59.7724 63.1812 58.46 63.1812C57.1476 63.1812 56.0837 64.245 56.0837 65.5574C56.0837 66.8698 57.1476 67.9337 58.46 67.9337Z" stroke="#2C48FF" stroke-width="0.8" stroke-miterlimit="10"/>
<path d="M58.46 77.7765C59.7724 77.7765 60.8363 76.7126 60.8363 75.4002C60.8363 74.0878 59.7724 73.0239 58.46 73.0239C57.1476 73.0239 56.0837 74.0878 56.0837 75.4002C56.0837 76.7126 57.1476 77.7765 58.46 77.7765Z" stroke="#2C48FF" stroke-width="0.8" stroke-miterlimit="10"/>
<path d="M58.46 87.6192C59.7724 87.6192 60.8363 86.5553 60.8363 85.243C60.8363 83.9306 59.7724 82.8667 58.46 82.8667C57.1476 82.8667 56.0837 83.9306 56.0837 85.243C56.0837 86.5553 57.1476 87.6192 58.46 87.6192Z" stroke="#2C48FF" stroke-width="0.8" stroke-miterlimit="10"/>
<path d="M29.5701 42.916H23.1472" stroke="#2C48FF" stroke-width="0.8" stroke-miterlimit="10"/>
<path d="M33.0579 50.1118H23.1472" stroke="#2C48FF" stroke-width="0.8" stroke-miterlimit="10"/>
<path d="M31.5692 57.3081H23.1472" stroke="#2C48FF" stroke-width="0.8" stroke-miterlimit="10"/>
<path d="M29.5701 64.5039H23.1472" stroke="#2C48FF" stroke-width="0.8" stroke-miterlimit="10"/>
<path d="M29.5701 71.5123L23.1472 71.5122" stroke="#2C48FF" stroke-width="0.8" stroke-miterlimit="10"/>
<path d="M33.0579 78.7085H23.1472" stroke="#2C48FF" stroke-width="0.8" stroke-miterlimit="10"/>
<path d="M31.5692 85.9043H23.1472" stroke="#2C48FF" stroke-width="0.8" stroke-miterlimit="10"/>
<path d="M29.5701 93.1001H23.1472" stroke="#2C48FF" stroke-width="0.8" stroke-miterlimit="10"/>
<path d="M51.5515 34.0259L62.2529 29.6699L72.9543 34.7677L77.1932 32.6958L91.0549 37.2514" stroke="#2C48FF" stroke-width="0.8" stroke-miterlimit="10"/>
<path d="M100.069 34.4155V40.8384" stroke="#2C48FF" stroke-width="0.8" stroke-miterlimit="10"/>
<path d="M107.264 30.9277V40.8386" stroke="#2C48FF" stroke-width="0.8" stroke-miterlimit="10"/>
<path d="M114.46 32.4165L114.46 40.8386" stroke="#2C48FF" stroke-width="0.8" stroke-miterlimit="10"/>
<path d="M121.656 34.4155V40.8384" stroke="#2C48FF" stroke-width="0.8" stroke-miterlimit="10"/>
<path d="M78.6658 58.0908H100.068" stroke="#2C48FF" stroke-width="0.8" stroke-miterlimit="10"/>
<path d="M78.6658 70.4785H100.068" stroke="#2C48FF" stroke-width="0.8" stroke-miterlimit="10"/>
<path d="M78.6658 82.8667H100.068" stroke="#2C48FF" stroke-width="0.8" stroke-miterlimit="10"/>
<path d="M105.78 58.0908H127.182" stroke="#2C48FF" stroke-width="0.8" stroke-miterlimit="10"/>
<path d="M105.78 70.4785H127.182" stroke="#2C48FF" stroke-width="0.8" stroke-miterlimit="10"/>
<path d="M105.78 82.8667H127.182" stroke="#2C48FF" stroke-width="0.8" stroke-miterlimit="10"/>
<path d="M219.602 133.569C219.069 131.708 217.835 130.125 216.16 129.153C214.506 128.163 212.516 127.9 210.662 128.428C208.818 128.842 207.243 130.036 206.346 131.7C204.376 135.169 205.52 139.576 208.928 141.649C210.521 142.667 212.477 142.944 214.291 142.41C216.168 141.969 217.779 140.772 218.742 139.102C219.733 137.438 220.041 135.455 219.602 133.569Z" stroke="#2C48FF" stroke-width="0.8" stroke-linecap="round" stroke-linejoin="round"/>
<path d="M202.244 117.554L206.721 120.984L208.569 120.361L210.62 119.972L212.865 114.798C213.08 114.365 213.591 114.17 214.04 114.349L222.043 116.433C222.551 116.621 222.863 117.135 222.795 117.673L222.07 123.171C223.161 123.976 224.134 124.932 224.958 126.009L230.411 125.455C230.922 125.375 231.417 125.667 231.596 126.152L233.69 134.218C233.769 134.729 233.478 135.225 232.993 135.404L227.959 137.571C227.716 138.903 227.332 140.205 226.815 141.455L230.122 145.907C230.449 146.298 230.409 146.877 230.033 147.221L224.089 153.069C223.773 153.434 223.221 153.474 222.856 153.158C222.84 153.144 222.824 153.129 222.809 153.114L218.366 149.818L216.384 150.476L214.467 150.83L212.188 155.87C211.999 156.386 211.435 156.659 210.913 156.488L203.01 154.234C202.516 154.112 202.166 153.673 202.158 153.164L203.018 147.631C201.906 146.85 200.93 145.892 200.129 144.793L194.542 145.383" stroke="#2C48FF" stroke-width="0.8" stroke-linecap="round" stroke-linejoin="round"/>
<path d="M187.542 34.6572L226.314 58.7515" stroke="#2C48FF" stroke-width="0.8" stroke-miterlimit="10"/>
<path d="M166.042 41.431L184.094 34.2764" stroke="#2C48FF" stroke-width="0.8" stroke-miterlimit="10"/>
<path d="M141.117 30.146L162.594 41.2254" stroke="#2C48FF" stroke-width="0.8" stroke-miterlimit="10"/>
<path d="M187.542 32.0176H184.094V35.4665H187.542V32.0176Z" stroke="#2C48FF" stroke-width="0.8" stroke-linecap="round" stroke-linejoin="round"/>
<path d="M166.042 40.209H162.593V43.6579H166.042V40.209Z" stroke="#2C48FF" stroke-width="0.8" stroke-linecap="round" stroke-linejoin="round"/>
<path d="M229.763 58.0908H226.314V61.5397H229.763V58.0908Z" stroke="#2C48FF" stroke-width="0.8" stroke-linecap="round" stroke-linejoin="round"/>
<path d="M89.6858 3.61377L114.858 16.5997" stroke="#2C48FF" stroke-width="0.8" stroke-miterlimit="10"/>
<path d="M89.686 1H86.2371V4.4489H89.686V1Z" stroke="#2C48FF" stroke-width="0.8" stroke-linecap="round" stroke-linejoin="round"/>
</svg>
