<svg width="229" height="146" viewBox="0 0 229 146" fill="none" xmlns="http://www.w3.org/2000/svg">
<path fill-rule="evenodd" clip-rule="evenodd" d="M157.387 93.078C157.387 91.0048 155.753 89.3711 153.68 89.3711L125.482 89.3711L125.482 90.0711L153.68 90.0711C155.367 90.0711 156.687 91.3914 156.687 93.078L156.687 118.389C156.687 120.462 158.321 122.096 160.394 122.096L225.518 122.096L225.518 121.396L160.394 121.396C158.707 121.396 157.387 120.076 157.387 118.389L157.387 93.078Z" fill="#2C48FF"/>
<path fill-rule="evenodd" clip-rule="evenodd" d="M125.781 91.2212L125.781 88.3056L122.865 88.3056L122.865 91.2212L125.781 91.2212ZM125.081 90.5212L123.565 90.5212L123.565 89.0056L125.081 89.0056L125.081 90.5212Z" fill="#2C48FF"/>
<path fill-rule="evenodd" clip-rule="evenodd" d="M125.822 119.998L125.822 117.082L122.907 117.082L122.907 119.998L125.822 119.998ZM125.122 119.298L123.607 119.298L123.607 117.782L125.122 117.782L125.122 119.298Z" fill="#2C48FF"/>
<path fill-rule="evenodd" clip-rule="evenodd" d="M93.1802 119.944L93.1802 117.028L90.2646 117.028L90.2646 119.944L93.1802 119.944ZM92.4802 119.244L90.9646 119.244L90.9646 117.728L92.4802 117.728L92.4802 119.244Z" fill="#2C48FF"/>
<path fill-rule="evenodd" clip-rule="evenodd" d="M60.5374 119.957L60.5374 117.041L57.6218 117.041L57.6218 119.957L60.5374 119.957ZM59.8374 119.257L58.3218 119.257L58.3218 117.741L59.8374 117.741L59.8374 119.257Z" fill="#2C48FF"/>
<path fill-rule="evenodd" clip-rule="evenodd" d="M228.08 123.229L228.08 120.313L225.165 120.313L225.165 123.229L228.08 123.229ZM227.38 122.529L225.865 122.529L225.865 121.013L227.38 121.013L227.38 122.529Z" fill="#2C48FF"/>
<path fill-rule="evenodd" clip-rule="evenodd" d="M212.697 131.507L212.697 128.592L209.781 128.592L209.781 131.507L212.697 131.507ZM211.997 130.807L210.481 130.807L210.481 129.292L211.997 129.292L211.997 130.807Z" fill="#2C48FF"/>
<path fill-rule="evenodd" clip-rule="evenodd" d="M183.1 126.715L183.1 121.747L182.4 121.747L182.4 126.715C182.4 128.788 184.034 130.422 186.107 130.422L210.143 130.422L210.143 129.722L186.107 129.722C184.421 129.722 183.1 128.402 183.1 126.715Z" fill="#2C48FF"/>
<path fill-rule="evenodd" clip-rule="evenodd" d="M21.2033 71.998L21.2033 69.0825L18.2878 69.0825L18.2878 71.998L21.2033 71.998ZM20.5033 71.298L18.9878 71.298L18.9878 69.7825L20.5033 69.7825L20.5033 71.298Z" fill="#2C48FF"/>
<path fill-rule="evenodd" clip-rule="evenodd" d="M41.6404 67.2321L41.6404 50.5146L40.9404 50.5146L40.9404 67.2321C40.9404 68.9186 39.6201 70.239 37.9335 70.239L20.8804 70.239L20.8804 70.939L37.9335 70.939C40.0067 70.939 41.6404 69.3052 41.6404 67.2321Z" fill="#2C48FF"/>
<path fill-rule="evenodd" clip-rule="evenodd" d="M124.691 66.5609C124.691 64.4877 123.057 62.854 120.984 62.854L92.7855 62.854L92.7855 63.554L120.984 63.554C122.67 63.554 123.991 64.8743 123.991 66.5609L123.991 88.6494L124.691 88.6494L124.691 66.5609Z" fill="#2C48FF"/>
<path fill-rule="evenodd" clip-rule="evenodd" d="M93.1881 64.6284L93.1881 61.7129L90.2726 61.7129L90.2726 64.6284L93.1881 64.6284ZM92.4881 63.9284L90.9726 63.9284L90.9726 62.4129L92.4881 62.4129L92.4881 63.9284Z" fill="#2C48FF"/>
<path fill-rule="evenodd" clip-rule="evenodd" d="M92.0612 40.0389C92.0612 37.9658 90.4275 36.332 88.3543 36.332L60.1563 36.332L60.1563 37.032L88.3543 37.032C90.0409 37.032 91.3612 38.3524 91.3612 40.0389L91.3612 62.1274L92.0612 62.1274L92.0612 40.0389Z" fill="#2C48FF"/>
<path fill-rule="evenodd" clip-rule="evenodd" d="M60.5285 38.1035L60.5285 35.188L57.613 35.188L57.613 38.1035L60.5285 38.1035ZM59.8285 37.4035L58.313 37.4035L58.313 35.888L59.8285 35.888L59.8285 37.4035Z" fill="#2C48FF"/>
<path fill-rule="evenodd" clip-rule="evenodd" d="M59.4315 13.453C59.4315 11.3798 57.7977 9.74609 55.7246 9.74609L27.5265 9.74609L27.5265 10.4461L55.7246 10.4461C57.4111 10.4461 58.7315 11.7664 58.7315 13.453L58.7315 35.5415L59.4315 35.5415L59.4315 13.453Z" fill="#2C48FF"/>
<path fill-rule="evenodd" clip-rule="evenodd" d="M27.8685 11.582L27.8685 8.66646L24.9529 8.66646L24.9529 11.582L27.8685 11.582ZM27.1685 10.882L25.6529 10.882L25.6529 9.36646L27.1685 9.36646L27.1685 10.882Z" fill="#2C48FF"/>
<path fill-rule="evenodd" clip-rule="evenodd" d="M157.32 114.498C157.32 112.425 155.686 110.791 153.613 110.791L124.341 110.791L124.341 111.491L153.613 111.491C155.3 111.491 156.62 112.811 156.62 114.498L157.32 114.498Z" fill="#2C48FF"/>
<path fill-rule="evenodd" clip-rule="evenodd" d="M124.69 106.911C124.69 104.837 123.057 103.204 120.983 103.204L91.7112 103.204L91.7112 103.904L120.983 103.904C122.67 103.904 123.99 105.224 123.99 106.911L124.69 106.911Z" fill="#2C48FF"/>
<path fill-rule="evenodd" clip-rule="evenodd" d="M92.0612 80.391C92.0612 78.3178 90.4275 76.6841 88.3543 76.6841L59.0821 76.6841L59.0821 77.3841L88.3543 77.3841C90.0409 77.3841 91.3612 78.7044 91.3612 80.391L91.3612 102.479L92.0612 102.479L92.0612 80.391Z" fill="#2C48FF"/>
<path fill-rule="evenodd" clip-rule="evenodd" d="M59.4315 53.8715C59.4315 51.7983 57.7977 50.1646 55.7246 50.1646L27.5265 50.1645L27.5265 50.8645L55.7246 50.8646C57.4111 50.8646 58.7315 52.1849 58.7315 53.8715L58.7315 75.9599L59.4315 75.9599L59.4315 53.8715Z" fill="#2C48FF"/>
<path fill-rule="evenodd" clip-rule="evenodd" d="M27.8769 51.9395L27.8769 49.0239L24.9613 49.0239L24.9613 51.9395L27.8769 51.9395ZM27.1769 51.2395L25.6613 51.2395L25.6613 49.7239L27.1769 49.7239L27.1769 51.2395Z" fill="#2C48FF"/>
<path fill-rule="evenodd" clip-rule="evenodd" d="M8.70517 0.31543L8.70517 3.23098L11.6207 3.23098L11.6207 0.31543L8.70517 0.31543ZM9.40517 1.01543L10.9207 1.01543L10.9207 2.53098L9.40517 2.53098L9.40517 1.01543Z" fill="#2C48FF"/>
<path fill-rule="evenodd" clip-rule="evenodd" d="M35.3148 2.12383C37.0014 2.12383 38.3218 3.44417 38.3218 5.13074L38.3218 10.099L39.0218 10.099L39.0218 5.13074C39.0218 3.05757 37.388 1.42383 35.3148 1.42383L11.2793 1.42383L11.2793 2.12383L35.3148 2.12383Z" fill="#2C48FF"/>
<path fill-rule="evenodd" clip-rule="evenodd" d="M173.351 134.76L0.000213623 134.76L0.000213562 135.46L173.351 135.46L173.351 134.76Z" fill="#2C48FF"/>
<path fill-rule="evenodd" clip-rule="evenodd" d="M10.4881 145.246L10.4881 12.7827L9.78813 12.7827L9.78812 145.246L10.4881 145.246Z" fill="#2C48FF"/>
<path fill-rule="evenodd" clip-rule="evenodd" d="M59.4315 117.383L59.4315 37.7568L58.7315 37.7568L58.7315 117.383L59.4315 117.383Z" fill="#2C48FF"/>
<path fill-rule="evenodd" clip-rule="evenodd" d="M92.0612 117.384L92.0612 64.2773L91.3612 64.2773L91.3612 117.384L92.0612 117.384Z" fill="#2C48FF"/>
<path fill-rule="evenodd" clip-rule="evenodd" d="M124.69 117.382L124.69 90.8628L123.99 90.8628L123.99 117.382L124.69 117.382Z" fill="#2C48FF"/>
<path fill-rule="evenodd" clip-rule="evenodd" d="M58.2222 1.29658L225.055 105.646L225.427 105.053L58.5935 0.70311L58.2222 1.29658Z" fill="#2C48FF"/>
<path fill-rule="evenodd" clip-rule="evenodd" d="M225.063 104.86L225.063 107.775L227.978 107.775L227.978 104.86L225.063 104.86ZM225.763 105.56L227.278 105.56L227.278 107.075L225.763 107.075L225.763 105.56Z" fill="#2C48FF"/>
<path fill-rule="evenodd" clip-rule="evenodd" d="M193 106.68H225.428V105.98H193V106.68Z" fill="#2C48FF"/>
<path fill-rule="evenodd" clip-rule="evenodd" d="M226.919 105.256V92.231H226.219V105.256H226.919Z" fill="#2C48FF"/>
<path fill-rule="evenodd" clip-rule="evenodd" d="M106.815 1.2972L225.315 75.1442L225.685 74.5501L107.185 0.703115L106.815 1.2972Z" fill="#2C48FF"/>
<path fill-rule="evenodd" clip-rule="evenodd" d="M225.096 74.4053L225.096 77.3208L228.011 77.3208L228.011 74.4053L225.096 74.4053ZM225.796 75.1053L227.311 75.1053L227.311 76.6208L225.796 76.6208L225.796 75.1053Z" fill="#2C48FF"/>
<path fill-rule="evenodd" clip-rule="evenodd" d="M193 76.208H225.428V75.508H193V76.208Z" fill="#2C48FF"/>
<path fill-rule="evenodd" clip-rule="evenodd" d="M226.852 74.7188V58.0013H226.152V74.7188H226.852Z" fill="#2C48FF"/>
<path fill-rule="evenodd" clip-rule="evenodd" d="M153.316 1.29759L225.316 45.7976L225.684 45.2021L153.684 0.702142L153.316 1.29759Z" fill="#2C48FF"/>
<path fill-rule="evenodd" clip-rule="evenodd" d="M225.068 45.0508L225.068 47.9663L227.984 47.9663L227.984 45.0508L225.068 45.0508ZM225.768 45.7508L227.284 45.7508L227.284 47.2663L225.768 47.2663L225.768 45.7508Z" fill="#2C48FF"/>
<path fill-rule="evenodd" clip-rule="evenodd" d="M193 46.9443H225.428V46.2443H193V46.9443Z" fill="#2C48FF"/>
<path fill-rule="evenodd" clip-rule="evenodd" d="M226.851 45.3862V28.4003H226.151V45.3862H226.851Z" fill="#2C48FF"/>
</svg>
