<svg width="491" height="482" viewBox="0 0 491 482" fill="none" xmlns="http://www.w3.org/2000/svg">
<circle cx="245.807" cy="240.585" r="240.585" fill="url(#paint0_radial)" fill-opacity="0.4"/>
<path d="M155.511 387.03C80.877 399.312 22.2308 387.594 5.6065 351.28C-11.5751 313.749 20.4628 259.408 82.4418 209.585" stroke="white" stroke-width="0.8" stroke-miterlimit="10"/>
<path d="M419.218 262.121C385.781 292.073 341.18 321.12 289.442 344.805C250.387 362.944 209.331 376.419 167.124 384.95" stroke="white" stroke-width="0.8" stroke-miterlimit="10"/>
<path d="M369.295 94.1018C424.693 91.2959 466.253 104.55 479.821 134.188C494.172 165.537 474.184 208.613 431.091 250.989" stroke="white" stroke-width="0.8" stroke-miterlimit="10"/>
<path d="M94.0781 200.55C125.828 177.032 159.99 156.956 195.985 140.663C253.276 114.435 309.826 99.127 357.478 94.9248" stroke="white" stroke-width="0.8" stroke-miterlimit="10"/>
<path d="M431.137 262.496C477.539 308.14 500.224 349.744 486.318 372.657C462.845 411.333 344.008 382.112 220.888 307.389C169.789 276.376 125.982 242.399 93.896 210.496" stroke="white" stroke-width="0.8" stroke-miterlimit="10"/>
<path d="M82.4488 198.671C45.0695 158.449 27.9451 122.686 40.4612 102.063C63.9342 63.3871 182.771 92.6087 305.891 167.332C350.168 194.204 388.969 223.301 419.414 251.347" stroke="white" stroke-width="0.8" stroke-miterlimit="10"/>
<path d="M159.671 379.934C147.234 336.994 148.366 275.599 165.821 210.997C195.898 99.68 263.055 20.9967 315.819 35.2534C336.772 40.915 352.304 60.3812 361.534 88.7665" stroke="white" stroke-width="0.8" stroke-miterlimit="10"/>
<path d="M364.842 100.403C375.324 142.902 373.46 201.32 356.896 262.626C326.818 373.943 259.662 452.626 206.898 438.37C187.64 433.167 172.962 416.302 163.547 391.57" stroke="white" stroke-width="0.8" stroke-miterlimit="10"/>
<path d="M403.424 375.235C404.549 369.428 403.382 363.412 400.167 358.448C397.036 353.462 391.982 349.993 386.205 348.861C380.609 347.437 374.67 348.508 369.923 351.796C359.759 358.513 356.772 372.091 363.18 382.454C366.109 387.43 371.05 390.893 376.728 391.949C382.447 393.346 388.489 392.317 393.424 389.106C398.425 385.949 402.009 380.977 403.424 375.235Z" stroke="white" stroke-width="0.8" stroke-linecap="round" stroke-linejoin="round"/>
<path d="M378.34 307.606L385.781 323.141L391.673 324.003L397.796 325.784L411.069 314.805C412.254 313.925 413.916 314.102 414.889 315.211L433.79 331.963C434.914 333.18 435.052 335.01 434.122 336.381L424.537 350.343C426.393 354.046 427.718 357.993 428.472 362.067L444.083 368.107C445.583 368.597 446.53 370.077 446.346 371.645L440.878 396.503C440.387 398.003 438.907 398.949 437.339 398.765L420.635 397.697C418.13 400.985 415.283 403.999 412.144 406.687L414.986 423.383C415.331 424.901 414.423 426.423 412.922 426.838L388.645 434.529C387.28 435.085 385.723 434.43 385.166 433.065C385.142 433.004 385.119 432.943 385.099 432.88L377.566 417.759L371.261 416.806L365.552 415.116L352.369 425.682C351.141 426.823 349.228 426.787 348.044 425.599L329.648 408.523C328.473 407.506 328.129 405.826 328.811 404.43L338.812 390.558C336.864 386.893 335.534 382.932 334.875 378.834L318.85 372.703" stroke="white" stroke-width="0.8" stroke-linecap="round" stroke-linejoin="round"/>
<path d="M139.341 87.9287C137.47 92.0788 137.278 96.7923 138.806 101.081C140.268 105.37 143.439 108.864 147.566 110.736C151.506 112.794 156.144 113.044 160.283 111.423C164.572 109.961 168.066 106.79 169.937 102.663C171.997 98.6263 172.298 93.9177 170.766 89.6523C169.454 85.4057 166.366 81.9358 162.3 80.1393C158.264 78.079 153.555 77.779 149.29 79.3103C144.984 80.7891 141.419 83.8779 139.341 87.9287Z" stroke="white" stroke-width="0.8" stroke-linecap="round" stroke-linejoin="round"/>
<path d="M146.148 143.032L143.326 130.077L139.066 128.387L134.794 125.968L122.906 131.84C121.863 132.29 120.649 131.863 120.117 130.859L108.927 114.962C108.301 113.852 108.522 112.456 109.462 111.594L119.116 102.834C118.381 99.7305 118.088 96.5393 118.245 93.3541L107.622 86.0638C106.585 85.4306 106.138 84.1543 106.554 83.0125L115.054 65.3607C115.687 64.3239 116.964 63.8772 118.105 64.2931L130.429 68.0531C132.888 66.034 135.555 64.2809 138.383 62.823L139.213 49.8128C139.223 48.6144 140.173 47.6358 141.37 47.5904L160.918 46.1313C162.04 45.9564 163.09 46.7237 163.265 47.8447C163.273 47.8944 163.279 47.9445 163.283 47.9947L166.246 60.6564L170.8 62.4874L174.777 64.7649L186.524 59.1867C187.647 58.5491 189.073 58.9153 189.749 60.0151L200.503 76.0661C201.203 77.0357 201.163 78.3554 200.405 79.2806L190.456 87.899C191.265 90.9896 191.56 94.1925 191.327 97.3791L202.245 104.811" stroke="white" stroke-width="0.8" stroke-linecap="round" stroke-linejoin="round"/>
<path d="M75.2672 332.886C78.7561 333.007 82.1406 331.683 84.6208 329.226C87.266 326.674 88.7379 323.141 88.6878 319.466C88.8443 315.77 87.3548 312.196 84.6208 309.705C82.13 306.971 78.5556 305.481 74.8604 305.638C67.5649 305.515 61.5507 311.329 61.4272 318.624C61.4225 318.905 61.4266 319.185 61.4398 319.466C61.3668 323.067 62.6768 326.56 65.1 329.226C67.8977 331.699 71.5351 333.008 75.2672 332.886Z" stroke="white" stroke-width="0.8" stroke-linecap="round" stroke-linejoin="round"/>
<path d="M104.142 323.126L112.683 329.633C113.225 330.175 113.225 330.989 112.683 332.073L104.955 345.494C104.675 346.336 103.764 346.791 102.922 346.511C102.778 346.463 102.641 346.394 102.515 346.307L92.7546 342.647L86.6541 346.307L85.0275 356.881C84.6921 357.75 83.9153 358.371 82.994 358.508H67.5398C66.1842 358.237 65.5065 357.694 65.5063 356.881L63.8797 346.307L57.3726 342.647L47.6122 346.307C46.8822 346.813 45.8808 346.631 45.3755 345.901C45.2886 345.775 45.2202 345.638 45.1721 345.494L37.445 332.073C36.9027 330.989 37.0382 330.175 37.8518 329.633L45.9856 323.126V315.399L37.8518 308.892C37.0385 308.35 36.9027 307.536 37.445 306.452L45.1721 293.031C45.6952 292.223 46.7088 291.885 47.6122 292.218L57.3726 295.878L63.8797 292.218L65.5063 282.05C65.5063 280.966 66.184 280.424 67.5398 280.424H82.994C83.9919 280.354 84.8761 281.062 85.0275 282.05L86.6541 292.218L92.7546 295.878L102.515 292.218C103.419 291.885 104.432 292.223 104.955 293.031L112.682 306.452C113.225 307.536 113.225 308.35 112.682 308.892L104.142 315.399L104.549 319.466L104.142 323.126Z" stroke="white" stroke-width="0.8" stroke-linecap="round" stroke-linejoin="round"/>
<path d="M232.45 353.176C163.345 352.054 114.617 296.741 122.814 230.309C105.62 205.458 147.375 186.768 216.076 188.564C207.879 254.996 215.092 328.891 232.45 353.176Z" stroke="white" stroke-width="0.8" stroke-miterlimit="10"/>
<path d="M171.491 335.588C162.793 323.017 183.915 313.562 218.668 314.47" stroke="white" stroke-width="0.8" stroke-miterlimit="10"/>
<path d="M132.239 291.443C117.382 269.971 153.46 253.822 212.821 255.374" stroke="white" stroke-width="0.8" stroke-miterlimit="10"/>
<path d="M232.45 353.177C164.05 339.701 115.887 274.476 124.084 208.044" stroke="white" stroke-width="0.8" stroke-miterlimit="10"/>
<path d="M232.45 353.177C182.614 331.391 149.345 259.5 157.542 193.067" stroke="white" stroke-width="0.8" stroke-miterlimit="10"/>
<path d="M232.45 353.177C215.091 328.892 207.879 254.997 216.076 188.564C284.777 190.36 354.41 211.961 371.604 236.812C363.407 303.244 301.386 355.662 232.45 353.177Z" stroke="white" stroke-width="0.8" stroke-miterlimit="10"/>
<path d="M218.668 314.469C253.422 315.377 288.646 326.304 297.344 338.875" stroke="white" stroke-width="0.8" stroke-miterlimit="10"/>
<path d="M212.82 255.37C272.181 256.922 332.346 275.585 347.203 297.058" stroke="white" stroke-width="0.8" stroke-miterlimit="10"/>
<path d="M232.45 353.177C252.286 333.211 274.914 262.781 283.111 196.349" stroke="white" stroke-width="0.8" stroke-miterlimit="10"/>
<path d="M232.45 353.178C283.244 342.816 330.71 280.091 338.907 213.658" stroke="white" stroke-width="0.8" stroke-miterlimit="10"/>
<path d="M232.45 353.177C301.386 355.662 363.407 303.244 371.604 236.812C388.798 261.662 347.044 280.352 278.342 278.557C270.145 344.989 249.64 378.825 232.45 353.177Z" stroke="white" stroke-width="0.8" stroke-miterlimit="10"/>
<path d="M297.344 338.876C306.042 351.447 284.92 360.902 250.167 359.993" stroke="white" stroke-width="0.8" stroke-miterlimit="10"/>
<path d="M347.203 297.059C362.059 318.531 325.982 334.68 266.621 333.128" stroke="white" stroke-width="0.8" stroke-miterlimit="10"/>
<path d="M232.45 353.178C300.681 368.018 362.137 325.511 370.334 259.079" stroke="white" stroke-width="0.8" stroke-miterlimit="10"/>
<path d="M232.45 353.177C282.117 376.327 328.679 340.487 336.876 274.055" stroke="white" stroke-width="0.8" stroke-miterlimit="10"/>
<path d="M232.45 353.178C249.64 378.826 270.145 344.991 278.342 278.559C209.641 276.763 140.008 255.162 122.814 230.312C114.617 296.744 163.345 352.056 232.45 353.178Z" stroke="white" stroke-width="0.8" stroke-miterlimit="10"/>
<path d="M250.167 359.994C215.413 359.086 180.189 348.159 171.491 335.588" stroke="white" stroke-width="0.8" stroke-miterlimit="10"/>
<path d="M266.621 333.129C207.26 331.578 147.095 312.914 132.238 291.441" stroke="white" stroke-width="0.8" stroke-miterlimit="10"/>
<path d="M232.45 353.178C212.445 374.507 203.11 337.207 211.307 270.774" stroke="white" stroke-width="0.8" stroke-miterlimit="10"/>
<path d="M232.45 353.178C181.487 364.904 147.314 319.898 155.511 253.466" stroke="white" stroke-width="0.8" stroke-miterlimit="10"/>
<path d="M122.814 230.31C131.011 163.878 193.032 111.46 261.352 113.245C261.255 113.105 261.49 113 261.877 113.01C244.778 88.2974 224.273 122.133 216.076 188.565C147.375 186.77 105.62 205.46 122.814 230.31Z" stroke="white" stroke-width="0.8" stroke-miterlimit="10"/>
<path d="M147.192 170.038C132.332 148.561 168.418 132.408 227.794 133.96" stroke="white" stroke-width="0.8" stroke-miterlimit="10"/>
<path d="M196.891 128.04C188.165 115.427 209.356 105.941 244.224 106.853" stroke="white" stroke-width="0.8" stroke-miterlimit="10"/>
<path d="M124.083 208.044C132.281 141.612 193.736 99.1057 261.358 113.12" stroke="white" stroke-width="0.8" stroke-miterlimit="10"/>
<path d="M157.542 193.068C165.739 126.636 212.3 90.796 261.547 113.036" stroke="white" stroke-width="0.8" stroke-miterlimit="10"/>
<path d="M216.075 188.565C224.272 122.133 244.777 88.2974 261.876 113.01C262.192 112.993 262.502 113.09 262.753 113.282C331.072 115.067 379.8 170.38 371.603 236.812C354.409 211.961 284.777 190.36 216.075 188.565Z" stroke="white" stroke-width="0.8" stroke-miterlimit="10"/>
<path d="M227.793 133.96C287.169 135.512 347.348 154.18 362.209 175.657" stroke="white" stroke-width="0.8" stroke-miterlimit="10"/>
<path d="M244.224 106.853C279.092 107.764 314.433 118.727 323.159 131.339" stroke="white" stroke-width="0.8" stroke-miterlimit="10"/>
<path d="M283.111 196.348C291.308 129.916 281.973 92.6154 262.255 113.053" stroke="white" stroke-width="0.8" stroke-miterlimit="10"/>
<path d="M338.907 213.658C347.104 147.226 312.931 102.22 262.569 113.152" stroke="white" stroke-width="0.8" stroke-miterlimit="10"/>
<path d="M371.604 236.812C379.801 170.379 331.073 115.067 262.754 113.281C262.851 113.421 262.615 113.527 262.228 113.517C279.327 138.229 286.539 212.125 278.343 278.557C347.044 280.353 388.798 261.662 371.604 236.812Z" stroke="white" stroke-width="0.8" stroke-miterlimit="10"/>
<path d="M362.209 175.657C377.069 197.134 340.983 213.287 281.607 211.736" stroke="white" stroke-width="0.8" stroke-miterlimit="10"/>
<path d="M323.16 131.34C331.886 143.952 310.695 153.438 275.827 152.527" stroke="white" stroke-width="0.8" stroke-miterlimit="10"/>
<path d="M370.334 259.079C378.531 192.647 330.368 127.422 262.746 113.407" stroke="white" stroke-width="0.8" stroke-miterlimit="10"/>
<path d="M336.876 274.054C345.073 207.622 311.804 135.731 262.558 113.491" stroke="white" stroke-width="0.8" stroke-miterlimit="10"/>
<path d="M278.342 278.557C286.539 212.125 279.326 138.229 262.227 113.516C261.912 113.533 261.601 113.436 261.351 113.244C193.032 111.459 131.011 163.877 122.814 230.31C140.008 255.16 209.641 276.761 278.342 278.557Z" stroke="white" stroke-width="0.8" stroke-miterlimit="10"/>
<path d="M281.608 211.736C222.232 210.184 162.053 191.515 147.192 170.038" stroke="white" stroke-width="0.8" stroke-miterlimit="10"/>
<path d="M275.826 152.526C240.958 151.615 205.618 140.652 196.891 128.039" stroke="white" stroke-width="0.8" stroke-miterlimit="10"/>
<path d="M211.307 270.775C219.504 204.343 242.132 133.912 261.85 113.475" stroke="white" stroke-width="0.8" stroke-miterlimit="10"/>
<path d="M155.511 253.465C163.708 187.033 211.173 124.307 261.535 113.376" stroke="white" stroke-width="0.8" stroke-miterlimit="10"/>
<path d="M140.776 306.222C139.226 303.792 137.042 300.621 135.607 298.12C133.806 294.979 131.551 290.702 129.997 287.431C127.324 281.41 125.01 275.237 123.067 268.943C121.878 265.202 120.964 261.38 120.332 257.507C119.817 254.079 119.039 249.517 118.683 246.069C118.367 243.006 118.144 238.9 118.093 235.821C118.007 229.776 118.327 223.732 119.052 217.73C120.014 210.849 121.417 204.037 123.252 197.336C125.224 190.857 127.634 184.519 130.468 178.368C132.762 173.403 135.422 168.617 138.428 164.048C142.03 158.669 145.937 153.502 150.132 148.572C154.365 143.834 158.914 139.389 163.748 135.266C178.217 123.078 195.184 114.214 213.452 109.299C217.575 108.186 221.752 107.283 225.966 106.593C229.86 105.91 234.337 105.497 236.022 105.342C274.422 102.017 312.305 115.99 339.349 143.454C346.787 151.056 353.281 159.528 358.691 168.685C361.741 174.084 364.489 179.647 366.921 185.351C368.009 188.114 369.41 191.823 370.295 194.658C371.329 197.973 372.628 202.429 373.312 205.833C374.873 212.893 375.837 220.071 376.192 227.292C376.359 234.232 376.135 241.176 375.52 248.091C374.308 258.827 371.753 269.368 367.913 279.466C365.407 285.675 362.534 291.729 359.308 297.596C356.682 302.253 353.725 306.715 350.46 310.948C346.53 316.013 342.281 320.823 337.74 325.349C332.588 330.374 327.018 334.952 321.091 339.035C306.92 348.81 290.93 355.642 274.071 359.125C249.315 364.191 223.624 362.036 200.058 352.918C192.177 349.87 184.614 346.053 177.481 341.522C173.581 338.999 168.549 335.366 164.937 332.445C161.732 329.853 157.768 326.032 154.797 323.175C152.643 321.052 150.599 318.819 148.674 316.487C146.198 313.492 143.034 309.384 140.776 306.222ZM140.776 306.222C160.139 334.207 192.969 352.536 232.45 353.177C192.969 352.536 160.139 334.207 140.776 306.222Z" stroke="white" stroke-width="0.8" stroke-miterlimit="10"/>
<path d="M369.295 88.7666H357.659V100.403H369.295V88.7666Z" stroke="white" stroke-width="0.8" stroke-linecap="round" stroke-linejoin="round"/>
<path d="M431.051 250.946H419.415V262.583H431.051V250.946Z" stroke="white" stroke-width="0.8" stroke-linecap="round" stroke-linejoin="round"/>
<path d="M94.0784 198.678H82.4419V210.314H94.0784V198.678Z" stroke="white" stroke-width="0.8" stroke-linecap="round" stroke-linejoin="round"/>
<path d="M167.148 379.933H155.511V391.569H167.148V379.933Z" stroke="white" stroke-width="0.8" stroke-linecap="round" stroke-linejoin="round"/>
<rect x="236.954" y="232.585" width="18.2683" height="18.2683" fill="#8AE3FF"/>
<rect x="226.806" y="245.778" width="18.2683" height="18.2683" fill="#8AE3FF"/>
<rect x="262.516" y="205.499" width="9.13416" height="9.13416" fill="#8AE3FF"/>
<rect x="385.806" y="64.585" width="9.13416" height="9.13416" fill="#8AE3FF"/>
<rect x="405.806" y="150.585" width="16.2385" height="16.2385" fill="#8AE3FF"/>
<rect x="296.008" y="236.961" width="9.13416" height="9.13416" fill="#8AE3FF"/>
<rect x="287.888" y="225.797" width="3.04472" height="3.04472" fill="#8AE3FF"/>
<rect x="294.993" y="219.708" width="3.04472" height="3.04472" fill="#8AE3FF"/>
<rect x="199.806" y="216.585" width="3.04472" height="3.04472" fill="#8AE3FF"/>
<rect x="216.806" y="209.585" width="3.04472" height="3.04472" fill="#8AE3FF"/>
<rect x="171.806" y="232.585" width="9.13416" height="9.13416" fill="#8AE3FF"/>
<rect x="193.806" y="288.585" width="9.13416" height="9.13416" fill="#8AE3FF"/>
<rect x="191.806" y="278.674" width="3.04472" height="3.04472" fill="#8AE3FF"/>
<rect x="198.91" y="273.585" width="3.04472" height="3.04472" fill="#8AE3FF"/>
<rect x="124.806" y="347.689" width="9.13416" height="9.13416" fill="#8AE3FF"/>
<rect x="128.865" y="340.585" width="9.13416" height="9.13416" fill="#8AE3FF"/>
<rect x="237.143" y="279.587" width="9.13416" height="9.13416" fill="#8AE3FF"/>
<rect x="269.806" y="307.585" width="9.13416" height="9.13416" fill="#8AE3FF"/>
<rect x="262.806" y="299.885" width="3.04472" height="3.04472" fill="#8AE3FF"/>
<rect x="269.62" y="293.585" width="3.04472" height="3.04472" fill="#8AE3FF"/>
<defs>
<radialGradient id="paint0_radial" cx="0" cy="0" r="1" gradientUnits="userSpaceOnUse" gradientTransform="translate(245.807 240.585) rotate(90) scale(229.988)">
<stop stop-color="#00FFF0"/>
<stop offset="1" stop-color="#E1FBFF" stop-opacity="0"/>
</radialGradient>
</defs>
</svg>
