<svg width="1923" height="940" viewBox="0 0 1923 940" fill="none" xmlns="http://www.w3.org/2000/svg">
<mask id="mask0" mask-type="alpha" maskUnits="userSpaceOnUse" x="0" y="0" width="1923" height="940">
<rect width="1923" height="940" fill="#C4C4C4"/>
</mask>
<g mask="url(#mask0)">
<path d="M-82.5282 290.589L-9.75582 363.354H-82.5282V290.589ZM-9.75582 363.354L63.0166 436.118V363.354H-9.75582ZM-82.5282 326.886H63.0166L26.716 290.589H-82.5282V326.886ZM-46.0564 436.118H63.0166V399.821H-82.5282L-46.0564 436.118ZM-46.2276 326.886L-9.92705 363.182H62.8453V326.886H-46.2276ZM-82.5282 363.354V399.65H26.5448L-9.75582 363.354H-82.5282ZM63.0166 399.65H135.789L63.0166 326.886V399.65ZM135.789 399.65L208.561 472.414V399.65H135.789ZM63.0166 363.354H208.561L172.261 327.057H63.1878V363.354H63.0166ZM99.3171 472.414H208.39V436.118H62.8453L99.3171 472.414ZM99.3171 363.354L135.618 399.65H208.39V363.354H99.3171ZM63.0166 399.65V435.947H172.09L135.789 399.65H63.0166ZM208.561 436.118H281.334L208.561 363.354V436.118ZM281.334 436.118L354.106 508.882V436.118H281.334V436.118ZM208.561 399.65H354.106L317.805 363.354H208.733V399.65H208.561ZM244.862 508.882H353.935V472.586H208.39L244.862 508.882ZM244.862 399.65L281.162 435.947H353.935V399.65H244.862ZM208.561 436.118V472.414H317.634L281.334 436.118H208.561ZM354.106 472.414H426.878L354.106 399.65V472.414ZM426.878 472.414L499.651 545.179V472.414H426.878ZM354.106 436.118H499.651L463.35 399.821H354.277V436.118H354.106ZM390.407 545.179H499.48V508.882H353.935L390.407 545.179ZM390.407 436.118L426.707 472.414H499.48V436.118H390.407ZM354.106 472.414V508.711H463.179L426.878 472.414H354.106ZM499.48 508.882H572.252L499.48 436.118V508.882ZM572.252 508.882L645.024 581.646V508.882H572.252ZM499.48 472.414H645.024L608.724 436.118H499.48V472.414ZM535.951 581.646H645.024V545.35H499.48L535.951 581.646ZM535.951 472.414L572.252 508.711H645.024V472.414H535.951ZM499.48 508.882V545.179H608.553L572.252 508.882H499.48ZM645.024 545.179H717.797L645.024 472.414V545.179ZM717.797 545.179L790.569 617.943V545.179H717.797ZM645.024 508.882H790.569L754.269 472.586H645.024V508.882ZM681.496 617.943H790.569V581.646H645.024L681.496 617.943ZM681.496 508.882L717.797 545.179H790.569V508.882H681.496ZM645.024 545.179V581.475H754.097L717.797 545.179H645.024ZM790.569 581.646H863.342L790.569 508.882V581.646ZM863.342 581.646L936.114 654.411V581.646H863.342ZM790.569 545.179H936.114L899.813 508.882H790.569V545.179ZM827.041 654.411H936.114V618.114H790.569L827.041 654.411ZM827.041 545.179L863.342 581.475H936.114V545.179H827.041ZM790.569 581.646V617.943H899.642L863.342 581.646H790.569ZM936.114 617.943H1008.89L936.114 545.179V617.943ZM1008.89 617.943L1081.66 690.707V617.943H1008.89ZM936.114 581.646H1081.66L1045.36 545.35H936.114V581.646ZM972.586 690.707H1081.66V654.411H936.114L972.586 690.707ZM972.586 581.646L1008.89 617.943H1081.66V581.646H972.586ZM936.114 617.943V654.239H1045.19L1008.89 617.943H936.114ZM1081.66 654.411H1154.43L1081.66 581.646V654.411ZM1154.43 654.411L1227.2 727.175V654.411H1154.43ZM1081.66 617.943H1227.2L1190.9 581.646H1081.66V617.943ZM1117.96 727.175H1227.2V690.878H1081.66L1117.96 727.175ZM1117.96 617.943L1154.26 654.239H1227.2V617.943H1117.96ZM1081.66 654.411V690.707H1190.73L1154.43 654.411H1081.66ZM1227.2 690.707H1299.98L1227.2 617.943V690.707ZM1299.98 690.707L1372.75 763.471V690.707H1299.98ZM1227.2 654.411H1372.75L1336.45 618.114H1227.2V654.411ZM1263.5 763.471H1372.75V727.175H1227.2L1263.5 763.471ZM1263.5 654.411L1299.8 690.707H1372.75V654.411H1263.5ZM1227.2 690.707V727.004H1336.28L1299.98 690.707H1227.2ZM1372.75 727.175H1445.52L1372.75 654.411V727.175ZM1445.52 727.175L1518.29 799.768V727.004H1445.52V727.175ZM1372.75 690.707H1518.29L1481.99 654.411H1372.75V690.707ZM1409.05 799.939H1518.29V763.643H1372.75L1409.05 799.939ZM1409.05 690.707L1445.35 727.004H1518.29V690.707H1409.05ZM1372.75 727.175V763.471H1481.82L1445.52 727.175H1372.75ZM1518.29 763.471H1591.07L1518.29 690.707V763.471ZM1591.07 763.471L1663.84 836.236V763.471H1591.07ZM1518.29 727.004H1663.84L1627.54 690.707H1518.29V727.004ZM1554.59 836.236H1663.67V799.768H1518.12L1554.59 836.236ZM1554.59 727.004L1590.89 763.3H1663.67V727.004H1554.59ZM1518.29 763.471V799.768H1627.37L1591.07 763.471H1518.29ZM1663.67 799.939H1736.44L1663.67 727.175V799.939ZM1736.44 799.939L1809.21 872.703V799.939H1736.44ZM1663.67 763.471H1809.21L1772.91 727.175H1663.84V763.471H1663.67ZM1700.14 872.532H1809.21V836.236H1663.67L1700.14 872.532ZM1700.14 763.471L1736.44 799.768H1809.21V763.471H1700.14ZM1663.67 799.939V836.236H1772.74L1736.44 799.939H1663.67ZM1809.21 836.236H1881.98L1809.21 763.471V836.236ZM1881.98 836.236L1954.76 909V836.236H1881.98ZM1809.21 799.768H1954.76L1918.46 763.471H1809.38V799.768H1809.21ZM1845.68 909H1954.76V872.703H1809.21L1845.68 909ZM1845.68 799.768L1881.98 836.065H1954.76V799.768H1845.68ZM1809.21 836.236V872.532H1918.28L1881.98 836.236H1809.21ZM-118.829 217.825H-46.0564L-118.829 145.061V217.825ZM-46.2276 217.825L26.5448 290.589V217.825H-46.2276ZM-118.829 181.357H26.716L-9.75582 145.061H-118.829V181.357ZM-82.5282 290.589H26.5448V254.293H-119L-82.5282 290.589ZM-82.5282 181.357L-46.2276 217.654H26.5448V181.357H-82.5282ZM-118.829 217.825V254.122H-9.75582L-46.0564 217.825H-118.829V217.825ZM26.5448 254.122H99.3171L26.5448 181.357V254.122ZM99.3171 254.122L172.09 326.886V254.122H99.3171ZM26.5448 217.825H172.09L135.789 181.529H26.5448V217.825ZM63.0166 326.886H172.09V290.589H26.5448L63.0166 326.886ZM63.0166 217.825L99.3171 254.122H172.09V217.825H63.0166ZM26.5448 254.122V290.418H135.618L99.3171 254.122H26.5448ZM-9.75582 108.593H63.0166L-9.75582 36V108.593ZM63.0166 108.593L135.789 181.357V108.593H63.0166ZM-9.75582 72.2965H135.789L99.3171 36H-9.75582V72.2965ZM26.5448 181.357H135.618V145.061H-9.92705L26.5448 181.357ZM26.5448 72.2965L62.8453 108.593H135.618V72.2965H26.5448ZM-9.75582 108.593V144.89H99.3171L63.0166 108.593H-9.75582ZM172.09 290.589H244.862L172.09 217.825V290.589ZM244.862 290.589L317.634 363.354V290.589H244.862ZM172.09 254.122H317.634L281.334 217.825H172.261V254.122H172.09ZM208.561 363.354H317.634V327.057H172.09L208.561 363.354ZM208.561 254.122L244.862 290.418H317.634V254.122H208.561ZM172.09 290.589V326.886H281.162L244.862 290.589H172.09ZM135.789 145.061H208.561L135.789 72.2965V145.061ZM208.561 145.061L281.334 217.825V145.061H208.561ZM135.789 108.593H281.334L245.033 72.2965H135.96V108.593H135.789ZM172.09 217.825H281.162V181.357H135.618L172.09 217.825ZM172.09 108.593L208.39 144.89H281.162V108.593H172.09ZM135.789 145.061V181.357H244.862L208.561 145.061H135.789ZM281.334 181.357H354.106L281.334 108.593V181.357V181.357ZM354.106 181.357L426.878 254.122V181.357H354.106ZM281.334 145.061H426.878L390.578 108.764H281.505V145.061H281.334ZM317.634 254.122H426.707V217.825H281.162L317.634 254.122ZM317.634 145.061L353.935 181.357H426.707V145.061H317.634ZM281.334 181.357V217.654H390.407L354.106 181.357H281.334ZM426.878 217.825H499.48L426.707 145.061V217.825H426.878ZM499.48 217.825L572.252 290.589V217.825H499.48ZM426.878 181.357H572.423L536.123 145.061H427.05V181.357H426.878ZM463.179 290.589H572.252V254.293H426.707L463.179 290.589ZM463.179 181.357L499.48 217.654H572.252V181.357H463.179ZM426.878 217.825V254.122H535.951L499.48 217.825H426.878ZM572.252 254.122H645.024L572.252 181.357V254.122ZM645.024 254.122L717.797 326.886V254.122H645.024ZM572.252 217.825H717.797L681.496 181.529H572.423V217.825H572.252ZM608.724 326.886H717.797V290.589H572.252L608.724 326.886ZM608.724 217.825L645.024 254.122H717.797V217.825H608.724ZM572.252 254.122V290.418H681.325L645.024 254.122H572.252ZM717.797 290.589H790.569L717.797 217.825V290.589ZM790.569 290.589L863.342 363.354V290.589H790.569ZM717.797 254.122H863.342L827.041 217.825H717.968V254.122H717.797ZM754.269 363.354H863.342V327.057H717.797L754.269 363.354ZM754.269 254.122L790.569 290.418H863.342V254.122H754.269ZM717.797 290.589V326.886H826.87L790.569 290.589H717.797ZM863.342 326.886H936.114L863.342 254.122V326.886ZM936.114 326.886L1008.89 399.65V326.886H936.114ZM863.342 290.589H1008.89L972.586 254.293H863.513V290.589H863.342ZM899.813 399.65H1008.89V363.354H863.342L899.813 399.65ZM899.813 290.589L936.114 326.886H1008.89V290.589H899.813ZM863.342 326.886V363.182H972.414L936.114 326.886H863.342ZM1008.89 363.354H1081.66L1008.89 290.589V363.354ZM1081.66 363.354L1154.43 436.118V363.354H1081.66ZM1008.89 326.886H1154.43L1118.13 290.589H1009.06V326.886H1008.89ZM1045.36 436.118H1154.43V399.821H1008.89L1045.36 436.118ZM1045.36 326.886L1081.66 363.182H1154.43V326.886H1045.36ZM1008.89 363.354V399.65H1117.96L1081.66 363.354H1008.89ZM1154.43 399.65H1227.2L1154.43 326.886V399.65ZM1227.2 399.65L1299.98 472.414V399.65H1227.2ZM1154.43 363.354H1299.98L1263.68 327.057H1154.6V363.354H1154.43ZM1190.73 472.414H1299.8V436.118H1154.26L1190.73 472.414ZM1190.73 363.354L1227.03 399.65H1299.8V363.354H1190.73ZM1154.43 399.65V435.947H1263.5L1227.2 399.65H1154.43ZM1299.98 436.118H1372.75L1299.98 363.354V436.118ZM1372.75 436.118L1445.52 508.882V436.118H1372.75V436.118ZM1299.98 399.65H1445.52L1409.22 363.354H1300.15V399.65H1299.98ZM1336.28 508.882H1445.35V472.586H1299.8L1336.28 508.882ZM1336.28 399.65L1372.58 435.947H1445.35V399.65H1336.28ZM1299.98 436.118V472.414H1409.05L1372.75 436.118H1299.98ZM1445.52 472.414H1518.29L1445.52 399.65V472.414ZM1518.29 472.414L1591.07 545.179V472.414H1518.29ZM1445.52 436.118H1591.07L1554.76 399.821H1445.69V436.118H1445.52ZM1481.82 545.179H1590.89V508.882H1445.35L1481.82 545.179ZM1481.82 436.118L1518.12 472.414H1590.89V436.118H1481.82ZM1445.52 472.414V508.711H1554.59L1518.29 472.414H1445.52ZM1590.89 508.882H1663.67L1590.89 436.118V508.882V508.882ZM1663.67 508.882L1736.44 581.646V508.882H1663.67ZM1590.89 472.414H1736.44L1700.14 436.118H1591.07V472.414H1590.89ZM1627.37 581.646H1736.44V545.35H1590.89L1627.37 581.646ZM1627.37 472.414L1663.67 508.711H1736.44V472.414H1627.37ZM1590.89 508.882V545.179H1699.97L1663.67 508.882H1590.89ZM1736.44 545.179H1809.21L1736.44 472.414V545.179ZM1809.21 545.179L1881.98 617.943V545.179H1809.21ZM1736.44 508.882H1881.98L1845.68 472.586H1736.61V508.882H1736.44ZM1772.91 617.943H1881.98V581.646H1736.44L1772.91 617.943ZM1772.91 508.882L1809.21 545.179H1881.98V508.882H1772.91ZM1736.44 545.179V581.475H1845.51L1809.21 545.179H1736.44ZM1881.98 581.646H1954.76L1881.98 508.882V581.646ZM1954.76 581.646L2027.53 654.411V581.646H1954.76ZM1881.98 545.179H2027.53L1991.23 508.882H1882.15V545.179H1881.98ZM1918.46 654.411H2027.53V618.114H1881.98L1918.46 654.411ZM1918.46 545.179L1954.76 581.475H2027.53V545.179H1918.46ZM1881.98 581.646V617.943H1991.06L1954.76 581.646H1881.98ZM317.634 326.886H390.407L317.634 254.122V326.886ZM390.407 326.886L463.179 399.65V326.886H390.407ZM317.634 290.589H463.179L426.878 254.293H317.805V290.589H317.634ZM354.106 399.65H463.179V363.354H317.634L354.106 399.65ZM354.106 290.589L390.407 326.886H463.179V290.589H354.106ZM317.634 326.886V363.182H426.707L390.407 326.886H317.634ZM463.179 363.354H535.951L463.179 290.589V363.354ZM535.951 363.354L608.724 436.118V363.354H535.951ZM463.179 326.886H608.724L572.423 290.589H463.35V326.886H463.179ZM499.651 436.118H608.724V399.821H463.179L499.651 436.118ZM499.48 326.886L535.78 363.182H608.553V326.886H499.48ZM463.179 363.354V399.65H572.252L535.951 363.354H463.179ZM608.724 399.65H681.496L608.724 326.886V399.65ZM681.496 399.65L754.269 472.414V399.65H681.496ZM608.724 363.354H754.269L717.968 327.057H608.895V363.354H608.724ZM645.024 472.414H754.097V436.118H608.553L645.024 472.414ZM645.024 363.354L681.325 399.65H754.097V363.354H645.024ZM608.724 399.65V435.947H717.797L681.496 399.65H608.724ZM754.269 436.118H827.041L754.269 363.354V436.118V436.118ZM827.041 436.118L899.813 508.882V436.118H827.041V436.118ZM754.269 399.65H899.813L863.513 363.354H754.44V399.65H754.269ZM790.569 508.882H899.642V472.586H754.097L790.569 508.882ZM790.569 399.65L826.87 435.947H899.642V399.65H790.569ZM754.269 436.118V472.414H863.342L827.041 436.118H754.269ZM899.813 472.414H972.586L899.813 399.65V472.414ZM972.586 472.414L1045.36 545.179V472.414H972.586ZM899.813 436.118H1045.36L1009.06 399.821H899.985V436.118H899.813ZM936.114 545.179H1045.19V508.882H899.642L936.114 545.179ZM936.114 436.118L972.414 472.414H1045.19V436.118H936.114ZM899.813 472.414V508.711H1008.89L972.586 472.414H899.813ZM1045.19 508.882H1117.96L1045.19 436.118V508.882ZM1117.96 508.882L1190.73 581.646V508.882H1117.96ZM1045.19 472.414H1190.73L1154.43 436.118H1045.36V472.414H1045.19ZM1081.66 581.646H1190.73V545.35H1045.19L1081.66 581.646ZM1081.66 472.414L1117.96 508.711H1190.73V472.414H1081.66ZM1045.19 508.882V545.179H1154.26L1117.96 508.882H1045.19ZM1190.73 545.179H1263.5L1190.73 472.414V545.179ZM1263.5 545.179L1336.28 617.943V545.179H1263.5ZM1190.73 508.882H1336.28L1299.98 472.586H1190.9V508.882H1190.73ZM1227.2 617.943H1336.28V581.646H1190.73L1227.2 617.943ZM1227.2 508.882L1263.5 545.179H1336.28V508.882H1227.2ZM1190.73 545.179V581.475H1299.8L1263.5 545.179H1190.73ZM1336.28 581.646H1409.05L1336.28 508.882V581.646ZM1409.05 581.646L1481.82 654.411V581.646H1409.05ZM1336.28 545.179H1481.82L1445.52 508.882H1336.45V545.179H1336.28ZM1372.75 654.239H1481.82V617.943H1336.28L1372.75 654.239ZM1372.75 545.179L1409.05 581.475H1481.82V545.179H1372.75ZM1336.28 581.646V617.943H1445.35L1409.05 581.646H1336.28ZM1481.82 617.943H1554.59L1481.82 545.179V617.943ZM1554.59 617.943L1627.37 690.707V617.943H1554.59ZM1481.82 581.646H1627.37L1591.07 545.35H1481.99V581.646H1481.82ZM1518.29 690.707H1627.37V654.411H1481.82L1518.29 690.707ZM1518.29 581.646L1554.59 617.943H1627.37V581.646H1518.29ZM1481.82 617.943V654.239H1590.89L1554.59 617.943H1481.82ZM1627.37 654.411H1700.14L1627.37 581.646V654.411ZM1700.14 654.411L1772.91 727.175V654.411H1700.14ZM1627.37 617.943H1772.91L1736.61 581.646H1627.54V617.943H1627.37ZM1663.67 727.175H1772.74V690.878H1627.19L1663.67 727.175ZM1663.67 617.943L1699.97 654.239H1772.74V617.943H1663.67ZM1627.37 654.411V690.707H1736.44L1700.14 654.411H1627.37ZM1772.91 690.707H1845.68L1772.91 617.943V690.707ZM1845.68 690.707L1918.46 763.471V690.707H1845.68ZM1772.91 654.411H1918.46L1882.15 618.114H1773.08V654.411H1772.91ZM1809.21 763.471H1918.28V727.175H1772.74L1809.21 763.471ZM1809.21 654.411L1845.51 690.707H1918.28V654.411H1809.21ZM1772.91 690.707V727.004H1881.98L1845.68 690.707H1772.91ZM1918.46 727.004H1991.23L1918.46 654.239V727.004ZM1991.23 727.004L2064 799.768V727.004H1991.23ZM1918.46 690.707H2064L2027.7 654.411H1918.63V690.707H1918.46ZM1954.76 799.768H2063.83V763.471H1918.28L1954.76 799.768ZM1954.76 690.707L1991.06 727.004H2063.83V690.707H1954.76ZM1918.46 727.004V763.3H2027.53L1991.23 727.004H1918.46Z" stroke="url(#paint0_linear)" stroke-width="0.7087" stroke-miterlimit="10"/>
</g>
<defs>
<linearGradient id="paint0_linear" x1="-120.37" y1="472.447" x2="2065.4" y2="472.447" gradientUnits="userSpaceOnUse">
<stop offset="2.2622e-07" stop-color="#2C37FF"/>
<stop offset="0.0982704" stop-color="#4151FF"/>
<stop offset="0.3242" stop-color="#6E86FF"/>
<stop offset="0.535" stop-color="#92B1FF"/>
<stop offset="0.7245" stop-color="#ABCFFF"/>
<stop offset="0.8859" stop-color="#BAE1FF"/>
<stop offset="1" stop-color="#C0E8FF"/>
</linearGradient>
</defs>
</svg>
