<svg width="1800" height="393" viewBox="0 0 1800 393" fill="none" xmlns="http://www.w3.org/2000/svg">
<mask id="mask0" mask-type="alpha" maskUnits="userSpaceOnUse" x="0" y="0" width="1800" height="393">
<rect width="1800" height="393" fill="#C4C4C4"/>
</mask>
<g mask="url(#mask0)">
<mask id="mask1" mask-type="alpha" maskUnits="userSpaceOnUse" x="0" y="-231" width="1800" height="568">
<rect y="-231" width="1800" height="568" fill="url(#paint0_linear)"/>
</mask>
<g mask="url(#mask1)">
<g opacity="0.3">
<path d="M962.62 -157.315V3.97936L801.326 -157.315L962.62 -157.315Z" stroke="#02007C" stroke-miterlimit="10"/>
<path d="M720.864 3.97917L962.617 3.97917V-76.4785L640.407 -76.4785L720.864 3.97917Z" stroke="#02007C" stroke-miterlimit="10"/>
<path d="M1285.21 -76.4785V84.8163L1123.91 -76.4785L1285.21 -76.4785Z" stroke="#02007C" stroke-miterlimit="10"/>
<path d="M1043.45 84.8161L1285.21 84.8161V3.979L962.616 3.979L1043.45 84.8161Z" stroke="#02007C" stroke-miterlimit="10"/>
<path d="M962.616 -76.4785V3.97917L1204.75 3.97917L1123.91 -76.4785L962.616 -76.4785Z" stroke="#02007C" stroke-miterlimit="10"/>
<path d="M1285.21 3.97887L1446.5 3.97887L1285.21 -157.316V3.97887Z" stroke="#02007C" stroke-miterlimit="10"/>
<path d="M1607.79 3.979V165.274L1446.5 3.979L1607.79 3.979Z" stroke="#02007C" stroke-miterlimit="10"/>
<path d="M1366.04 165.274L1607.79 165.274V84.8159L1285.2 84.8159L1366.04 165.274Z" stroke="#02007C" stroke-miterlimit="10"/>
<path d="M1607.79 -76.479V3.97868L1446.5 3.97868L1366.04 -76.479L1607.79 -76.479Z" stroke="#02007C" stroke-miterlimit="10"/>
<path d="M1285.2 3.979V84.8161L1527.34 84.8161L1446.5 3.979L1285.2 3.979Z" stroke="#02007C" stroke-miterlimit="10"/>
<path d="M1607.79 84.8163L1769.09 84.8163L1607.79 -76.4785V84.8163Z" stroke="#02007C" stroke-miterlimit="10"/>
<path d="M1930.38 84.8164V246.111L1769.09 84.8164L1930.38 84.8164Z" stroke="#02007C" stroke-miterlimit="10"/>
<path d="M1607.79 3.97917L1930.38 3.97917L1849.93 -76.4785L1607.79 -76.4785V3.97917Z" stroke="#02007C" stroke-miterlimit="10"/>
<path d="M1688.63 246.112L1930.38 246.112V165.274L1607.79 165.274L1688.63 246.112Z" stroke="#02007C" stroke-miterlimit="10"/>
<path d="M1930.38 3.97949V84.8166L1769.09 84.8166L1688.63 3.97949L1930.38 3.97949Z" stroke="#02007C" stroke-miterlimit="10"/>
<path d="M1607.79 84.8164V165.274L1849.93 165.274L1769.09 84.8164L1607.79 84.8164Z" stroke="#02007C" stroke-miterlimit="10"/>
</g>
</g>
<rect x="880.509" y="207.635" width="67.6916" height="67.6916" transform="rotate(-180 880.509 207.635)" fill="#8AE3FF" fill-opacity="0.1"/>
<rect x="918.116" y="158.747" width="67.6916" height="67.6916" transform="rotate(-180 918.116 158.747)" fill="#8AE3FF" fill-opacity="0.1"/>
<rect x="741.365" y="309.172" width="33.8458" height="33.8458" transform="rotate(-180 741.365 309.172)" fill="#8AE3FF" fill-opacity="0.1"/>
<rect x="215.17" y="316.17" width="60.1703" height="60.1703" transform="rotate(-180 215.17 316.17)" fill="#8AE3FF" fill-opacity="0.1"/>
<rect x="617.263" y="192.592" width="33.8458" height="33.8458" transform="rotate(-180 617.263 192.592)" fill="#8AE3FF" fill-opacity="0.1"/>
<rect x="936.923" y="286.608" width="11.2819" height="11.2819" transform="rotate(-180 936.923 286.608)" fill="#8AE3FF" fill-opacity="0.1"/>
<rect x="910.596" y="309.172" width="11.2819" height="11.2819" transform="rotate(-180 910.596 309.172)" fill="#8AE3FF" fill-opacity="0.1"/>
<rect x="1063.03" y="117.337" width="33.8458" height="33.8458" transform="rotate(-180 1063.03 117.337)" fill="#8AE3FF" fill-opacity="0.1"/>
<rect x="1490.8" y="56.4263" width="33.8458" height="33.8458" transform="rotate(-180 1490.8 56.4263)" fill="#8AE3FF" fill-opacity="0.1"/>
<rect x="835.381" y="34.645" width="33.8458" height="33.8458" transform="rotate(-180 835.381 34.645)" fill="#8AE3FF" fill-opacity="0.1"/>
<rect x="1622.14" y="70.2012" width="67.6916" height="67.6916" fill="#8AE3FF" fill-opacity="0.1"/>
<rect x="1584.53" y="119.09" width="67.6916" height="67.6916" fill="#8AE3FF" fill-opacity="0.1"/>
<rect x="1761.28" y="-31.3359" width="33.8458" height="33.8458" fill="#8AE3FF" fill-opacity="0.1"/>
<rect x="1481.16" y="163.573" width="33.8458" height="33.8458" fill="#8AE3FF" fill-opacity="0.1"/>
<rect x="1290.58" y="286.993" width="33.8458" height="33.8458" fill="#8AE3FF" fill-opacity="0.1"/>
<rect x="1011.85" y="221.41" width="33.8458" height="33.8458" fill="#8AE3FF" fill-opacity="0.1"/>
<rect x="1787.6" y="295.84" width="11.2819" height="11.2819" fill="#8AE3FF" fill-opacity="0.1"/>
<mask id="mask2" mask-type="alpha" maskUnits="userSpaceOnUse" x="0" y="1" width="1800" height="399">
<rect x="1800" y="399" width="1800" height="398" transform="rotate(180 1800 399)" fill="url(#paint1_linear)"/>
</mask>
<g mask="url(#mask2)">
<g opacity="0.3">
<path d="M1482.18 505.058L1482.18 380.889L1643.48 505.058L1482.18 505.058Z" stroke="#2C48FF" stroke-miterlimit="10"/>
<path d="M1724.32 380.889L1482.18 380.889L1482.18 442.828L1804.77 442.828L1724.32 380.889Z" stroke="#2C48FF" stroke-miterlimit="10"/>
<path d="M1159.59 442.828L1159.59 318.659L1320.89 442.828L1159.59 442.828Z" stroke="#2C48FF" stroke-miterlimit="10"/>
<path d="M1401.73 318.659L1159.59 318.659L1159.59 380.889L1482.18 380.889L1401.73 318.659Z" stroke="#2C48FF" stroke-miterlimit="10"/>
<path d="M1482.18 442.828L1482.18 380.889L1240.43 380.889L1320.89 442.828L1482.18 442.828Z" stroke="#2C48FF" stroke-miterlimit="10"/>
<path d="M1159.59 380.889L998.676 380.889L1159.59 505.058L1159.59 380.889Z" stroke="#2C48FF" stroke-miterlimit="10"/>
<path d="M837.379 380.889L837.379 256.72L998.674 380.889L837.379 380.889Z" stroke="#2C48FF" stroke-miterlimit="10"/>
<path d="M1079.14 256.72L837.383 256.72L837.383 318.659L1159.59 318.659L1079.14 256.72Z" stroke="#2C48FF" stroke-miterlimit="10"/>
<path d="M837.382 442.828L837.382 380.889L998.676 380.889L1079.13 442.828L837.382 442.828Z" stroke="#2C48FF" stroke-miterlimit="10"/>
<path d="M1159.59 380.889L1159.59 318.659L917.841 318.659L998.678 380.889L1159.59 380.889Z" stroke="#2C48FF" stroke-miterlimit="10"/>
<path d="M837.385 318.659L676.09 318.659L837.385 442.828L837.385 318.659Z" stroke="#2C48FF" stroke-miterlimit="10"/>
<path d="M514.794 318.659L514.794 194.49L676.089 318.659L514.794 318.659Z" stroke="#2C48FF" stroke-miterlimit="10"/>
<path d="M837.385 380.889L514.796 380.889L595.253 442.828L837.385 442.828L837.385 380.889Z" stroke="#2C48FF" stroke-miterlimit="10"/>
<path d="M756.547 194.49L514.794 194.49L514.794 256.721L837.384 256.721L756.547 194.49Z" stroke="#2C48FF" stroke-miterlimit="10"/>
<path d="M514.796 380.889L514.796 318.659L676.09 318.659L756.548 380.889L514.796 380.889Z" stroke="#2C48FF" stroke-miterlimit="10"/>
<path d="M837.384 318.659L837.384 256.72L595.252 256.72L676.089 318.659L837.384 318.659Z" stroke="#2C48FF" stroke-miterlimit="10"/>
<path d="M514.791 256.72L353.496 256.72L514.791 380.889L514.791 256.72Z" stroke="#2C48FF" stroke-miterlimit="10"/>
<path d="M192.206 256.72L192.206 132.551L353.501 256.72L192.206 256.72Z" stroke="#2C48FF" stroke-miterlimit="10"/>
<path d="M514.791 318.659L192.201 318.659L272.659 380.889L514.791 380.889L514.791 318.659Z" stroke="#2C48FF" stroke-miterlimit="10"/>
<path d="M433.958 132.551L192.206 132.551L192.206 194.49L514.796 194.49L433.958 132.551Z" stroke="#2C48FF" stroke-miterlimit="10"/>
<path d="M192.205 318.659L192.205 256.72L353.5 256.72L433.958 318.659L192.205 318.659Z" stroke="#2C48FF" stroke-miterlimit="10"/>
<path d="M514.796 256.72L514.796 194.49L272.664 194.49L353.501 256.72L514.796 256.72Z" stroke="#2C48FF" stroke-miterlimit="10"/>
<path d="M192.206 194.49L30.9114 194.49L192.206 318.659L192.206 194.49Z" stroke="#2C48FF" stroke-miterlimit="10"/>
<path d="M-130.384 194.49L-130.384 70.3209L30.9111 194.49L-130.384 194.49Z" stroke="#2C48FF" stroke-miterlimit="10"/>
<path d="M192.206 256.72L-130.383 256.72L-49.9257 318.659L192.206 318.659L192.206 256.72Z" stroke="#2C48FF" stroke-miterlimit="10"/>
<path d="M111.369 70.3208L-130.384 70.3208L-130.384 132.551L192.206 132.551L111.369 70.3208Z" stroke="#2C48FF" stroke-miterlimit="10"/>
<path d="M-130.384 256.72L-130.384 194.49L30.9105 194.49L111.368 256.72L-130.384 256.72Z" stroke="#2C48FF" stroke-miterlimit="10"/>
<path d="M192.206 194.49L192.206 132.551L-49.926 132.551L30.9111 194.49L192.206 194.49Z" stroke="#2C48FF" stroke-miterlimit="10"/>
<path d="M272.659 505.058L272.659 380.889L433.954 505.058L272.659 505.058Z" stroke="#2C48FF" stroke-miterlimit="10"/>
<path d="M514.791 380.889L272.659 380.889L272.659 442.828L595.249 442.828L514.791 380.889Z" stroke="#2C48FF" stroke-miterlimit="10"/>
<path d="M-49.9277 442.828L-49.9277 318.659L111.367 442.828L-49.9277 442.828Z" stroke="#2C48FF" stroke-miterlimit="10"/>
<path d="M192.204 318.659L-49.9278 318.659L-49.9278 380.889L272.662 380.889L192.204 318.659Z" stroke="#2C48FF" stroke-miterlimit="10"/>
<path d="M272.662 442.828L272.662 380.889L30.9093 380.889L111.367 442.828L272.662 442.828Z" stroke="#2C48FF" stroke-miterlimit="10"/>
</g>
</g>
</g>
<defs>
<linearGradient id="paint0_linear" x1="212.296" y1="270.499" x2="461.857" y2="-519.163" gradientUnits="userSpaceOnUse">
<stop offset="1.15328e-07" stop-color="#181878"/>
<stop offset="0.998" stop-color="#187FC4"/>
</linearGradient>
<linearGradient id="paint1_linear" x1="2012.3" y1="750.403" x2="2140.77" y2="170.267" gradientUnits="userSpaceOnUse">
<stop offset="1.15328e-07" stop-color="#181878"/>
<stop offset="0.998" stop-color="#187FC4"/>
</linearGradient>
</defs>
</svg>
