<svg width="646" height="433" viewBox="0 0 646 433" fill="none" xmlns="http://www.w3.org/2000/svg">
<path d="M219.133 281.406L218.36 288.323" stroke="white" stroke-miterlimit="10"/>
<path d="M226.595 215.36L220.257 271.452" stroke="white" stroke-miterlimit="10"/>
<path d="M235.636 281.564L234.811 288.99" stroke="white" stroke-miterlimit="10"/>
<path d="M247.083 180.318L236.777 271.522" stroke="white" stroke-miterlimit="10"/>
<path d="M252.14 281.792L251.244 289.675" stroke="white" stroke-miterlimit="10"/>
<path d="M262.058 194.012L253.298 271.539" stroke="white" stroke-miterlimit="10"/>
<path d="M268.677 281.722L267.694 290.36" stroke="white" stroke-miterlimit="10"/>
<path d="M275.928 217.397L269.818 271.504" stroke="white" stroke-miterlimit="10"/>
<path d="M285.198 281.669L284.145 291.027" stroke="white" stroke-miterlimit="10"/>
<path d="M294.94 195.364L286.32 271.768" stroke="white" stroke-miterlimit="10"/>
<path d="M307.284 232.477L300.595 291.711" stroke="white" stroke-miterlimit="10"/>
<path d="M314.727 166.572L309.671 211.357" stroke="white" stroke-miterlimit="10"/>
<path d="M324.171 229.142L317.043 292.396" stroke="white" stroke-miterlimit="10"/>
<path d="M339.849 236.778L333.477 293.063" stroke="white" stroke-miterlimit="10"/>
<path d="M357.353 228.053L349.927 293.748" stroke="white" stroke-miterlimit="10"/>
<path d="M374.084 226.262L366.377 294.415" stroke="white" stroke-miterlimit="10"/>
<path d="M377.174 198.752L375.365 214.833" stroke="white" stroke-miterlimit="10"/>
<path d="M567.499 153.738H548.837C546.509 153.738 544.276 154.663 542.63 156.309C540.984 157.956 540.059 160.188 540.059 162.516V228.65C540.059 230.978 539.134 233.211 537.488 234.857C535.842 236.503 533.609 237.428 531.281 237.428H481.352" stroke="white" stroke-miterlimit="10"/>
<path d="M639.654 153.738H573.274" stroke="white" stroke-miterlimit="10"/>
<path d="M645.43 150.842H639.654V156.618H645.43V150.842Z" stroke="white" stroke-miterlimit="10"/>
<path d="M626.89 204.774H621.114V210.55H626.89V204.774Z" stroke="white" stroke-miterlimit="10"/>
<path d="M573.274 150.842H567.498V156.618H573.274V150.842Z" stroke="white" stroke-miterlimit="10"/>
<path d="M570.396 156.618V198.892C570.396 201.221 571.32 203.453 572.967 205.099C574.613 206.746 576.845 207.671 579.174 207.671H621.115" stroke="white" stroke-miterlimit="10"/>
<path d="M81.0204 253.386C82.3335 253.337 83.6418 253.573 84.8544 254.079C86.067 254.586 87.155 255.35 88.0428 256.318V256.318C89.0183 257.201 89.7868 258.288 90.2936 259.502C90.8004 260.716 91.033 262.027 90.9747 263.341C90.9981 264.669 90.7467 265.988 90.2361 267.215C89.7255 268.441 88.9668 269.549 88.0077 270.469C87.1167 271.35 86.0537 272.039 84.8847 272.492C83.7158 272.946 82.4661 273.153 81.2135 273.102C78.4926 273.205 75.8354 272.263 73.7873 270.469C72.0179 268.523 71.0682 265.97 71.1363 263.341C71.0712 262.027 71.2767 260.714 71.74 259.483C72.2034 258.251 72.9148 257.129 73.83 256.184C74.7452 255.239 75.8448 254.492 77.0605 253.99C78.2763 253.488 79.5823 253.24 80.8975 253.264L81.0204 253.386ZM80.8975 252.386C79.4546 252.365 78.0228 252.641 76.691 253.197C75.3591 253.753 74.1557 254.576 73.1553 255.616C72.1775 256.643 71.417 257.856 70.9192 259.183C70.4215 260.51 70.1968 261.925 70.2585 263.341C70.1981 266.197 71.2348 268.968 73.1553 271.083C75.3836 273.107 78.3096 274.19 81.3189 274.103C82.6887 274.151 84.0541 273.919 85.3311 273.421C86.6082 272.923 87.7699 272.169 88.7451 271.206C89.782 270.204 90.6021 269 91.1547 267.668C91.7074 266.336 91.9807 264.905 91.9578 263.464C91.944 260.562 90.7853 257.784 88.7339 255.733C86.6824 253.681 83.904 252.523 81.0028 252.509L80.8975 252.386Z" fill="white"/>
<path d="M87.4631 233.39C87.5498 233.375 87.6387 233.378 87.7243 233.399C87.8099 233.419 87.8904 233.457 87.961 233.509C88.0316 233.562 88.0908 233.628 88.135 233.704C88.1791 233.78 88.2074 233.865 88.218 233.952L89.4996 242.01V242.414L89.8507 242.625L94.6786 245.521L95.0473 245.75L95.4511 245.592L103.123 242.712H103.474C103.589 242.707 103.702 242.731 103.804 242.784C103.906 242.836 103.992 242.914 104.054 243.011L110.146 253.544C110.146 253.703 110.479 254.229 110.339 254.44L103.632 259.549L103.246 259.847V260.339L103.562 263.464L103.264 266.273V266.764L103.667 267.063L110.409 272.119C110.549 272.329 110.304 272.856 110.251 272.979L104.141 283.706C104.018 283.969 103.896 284.092 103.79 284.092C103.648 284.083 103.51 284.041 103.386 283.969V283.969L95.6618 281.055L95.258 280.914L94.8893 281.125L90.0614 284.039L89.7103 284.25V284.654L88.4287 292.958C88.4287 293.151 88.1653 293.414 87.5684 293.572H75.3143C74.8227 293.467 74.4892 293.309 74.4892 293.169V293.028L73.19 284.654V284.232L72.8214 284.022L67.6599 281.125L67.2736 280.897L66.905 281.037L59.1627 283.952H59.0223C58.9041 284.02 58.7723 284.062 58.6361 284.074C58.5132 284.074 58.3903 283.952 58.2498 283.653L52.1403 273.12C51.8419 272.523 51.9999 272.417 52.2281 272.277L58.6712 267.115L59.0047 266.852V259.83L58.6712 259.566L52.1579 254.299C51.9999 254.194 51.8419 254.089 52.1579 253.544L58.2498 243.011C58.31 242.907 58.3972 242.821 58.5023 242.762C58.6074 242.703 58.7264 242.674 58.8467 242.677H59.1979L66.8874 245.556L67.2736 245.785L67.6423 245.592L72.8038 242.695L73.1725 242.484V242.063L74.4716 234.005V233.864C74.4716 233.636 74.4716 233.443 75.1914 233.443H87.4807L87.4631 233.39ZM87.4807 232.565H75.1914C74.1205 232.565 73.5938 233.004 73.5938 233.864L72.2947 241.922L67.1332 244.819L59.391 241.922C59.1964 241.869 58.9959 241.839 58.7941 241.835C58.5266 241.83 58.2625 241.896 58.0284 242.025C57.7942 242.154 57.5982 242.343 57.4598 242.572L51.3327 253.211C50.9114 254.071 51.0167 254.703 51.6663 255.142L58.1094 260.304V266.431L51.6663 271.592C51.0167 272.013 50.9114 272.663 51.3327 273.523L57.4598 284.162C57.5482 284.403 57.705 284.612 57.9108 284.765C58.1166 284.918 58.3626 285.007 58.6185 285.023C58.8913 285.014 59.1572 284.935 59.391 284.794L67.1332 281.898L72.2947 284.794L73.5938 293.186C73.5938 293.836 74.1205 294.257 75.1914 294.468H87.4807C87.8402 294.419 88.1799 294.274 88.4642 294.049C88.7484 293.823 88.9666 293.525 89.0958 293.186L90.395 284.794L95.2229 281.898L102.965 284.794C103.204 284.938 103.476 285.017 103.755 285.023C104.009 285.006 104.252 284.916 104.455 284.763C104.657 284.61 104.811 284.401 104.896 284.162L111.023 273.523C111.445 272.663 111.445 272.013 111.023 271.592L104.247 266.431L104.58 263.516L104.247 260.304L111.023 255.142C111.445 254.703 111.445 254.071 111.023 253.211L104.896 242.572C104.759 242.342 104.563 242.152 104.329 242.023C104.095 241.893 103.83 241.828 103.562 241.835C103.36 241.839 103.16 241.869 102.965 241.922L95.2229 244.819L90.395 241.922L89.0958 233.864C89.0393 233.484 88.8417 233.139 88.5423 232.899C88.243 232.658 87.8639 232.539 87.4807 232.565V232.565Z" fill="white"/>
<path d="M590.27 261.726V431.58H329.299L250.051 351.964H511.9L510.407 350.454L421.661 261.726H590.2H590.27ZM591.077 260.848H419.537L509.775 351.086H247.927L328.86 432.458H591.148V260.848H591.077Z" fill="white"/>
<path d="M364.234 0.877803L443.64 80.4945H181.792L183.284 81.9868L272.03 170.733H103.492V0.877803H364.234ZM364.586 0H102.544V171.61H274.154L183.916 81.3723H445.765L364.586 0Z" fill="white"/>
<path d="M310.021 221.206H383.756C386.084 221.206 388.317 220.281 389.963 218.635C391.609 216.989 392.534 214.756 392.534 212.428V146.259C392.534 143.931 393.459 141.699 395.105 140.052C396.751 138.406 398.984 137.481 401.312 137.481H432.755" stroke="white" stroke-miterlimit="10"/>
<path d="M310.04 218.292H304.264V224.068H310.04V218.292Z" stroke="white" stroke-miterlimit="10"/>
<path d="M438.497 134.585H432.721V140.361H438.497V134.585Z" stroke="white" stroke-miterlimit="10"/>
<path d="M290.675 277.052H216.939C214.611 277.052 212.379 276.127 210.732 274.481C209.086 272.835 208.161 270.602 208.161 268.274V220.135C208.161 217.807 207.237 215.575 205.59 213.928C203.944 212.282 201.711 211.357 199.383 211.357H6.77588" stroke="white" stroke-miterlimit="10"/>
<path d="M296.434 279.949V274.173H290.658V279.949H296.434Z" stroke="white" stroke-miterlimit="10"/>
<path d="M6.77588 214.236V208.461H0.999937V214.236H6.77588Z" stroke="white" stroke-miterlimit="10"/>
<path d="M46.8394 192.449V186.673H41.0634V192.449H46.8394Z" stroke="white" stroke-miterlimit="10"/>
<path d="M118.538 211.357V198.383C118.538 196.055 117.613 193.823 115.967 192.176C114.321 190.53 112.088 189.605 109.76 189.605H46.8394" stroke="white" stroke-miterlimit="10"/>
<path d="M333.126 110.884H334.987C359.811 112.236 380.967 121.102 397.873 137.218C414.779 153.335 424.962 173.805 428.14 198.05V198.699L428.807 198.805C445.533 200.745 460.819 209.205 471.345 222.347C482.107 235.181 487.146 251.016 486.039 269.362C484.502 287.806 476.153 305.017 462.62 317.642C449.452 329.681 432.161 336.199 414.323 335.847H413.129L235.813 329.264C213.183 327.508 194.433 318.59 180.09 302.614C166.168 286.638 159.795 266.799 161.182 243.678C163.307 221.821 171.804 203.387 186.428 188.886C200.758 174.515 219.65 165.587 239.851 163.64H240.29L240.501 163.289C250.327 147.186 264.082 133.842 280.476 124.508C296.537 115.441 314.701 110.761 333.144 110.937L333.126 110.884ZM333.144 110.059C314.555 109.86 296.244 114.585 280.072 123.753C263.528 133.121 249.657 146.569 239.781 162.815C219.352 164.738 200.241 173.75 185.761 188.289C170.92 202.965 162.44 221.394 160.322 243.573C158.918 267.074 165.29 286.936 179.441 303.158C193.965 319.415 212.721 328.38 235.708 330.054L413.024 336.637H414.376C433.465 336.637 449.757 330.493 463.252 318.203C476.98 305.457 485.441 288.034 486.97 269.362C488.012 250.636 483.043 234.742 472.065 221.68C461.386 208.378 445.88 199.84 428.93 197.927C425.723 173.348 415.546 152.907 398.4 136.604C381.253 120.3 360.133 111.44 335.04 110.024L333.144 110.059Z" fill="white"/>
<path d="M311.725 95.2942V96.172H313.586C338.41 97.5239 359.565 106.39 376.472 122.506C393.378 138.623 403.561 159.093 406.738 183.32V183.987H407.405C424.162 185.944 439.468 194.436 449.996 207.618C460.776 220.469 465.797 236.287 464.708 254.633C463.159 273.094 454.784 290.314 441.218 302.93C428.046 314.96 410.757 321.471 392.922 321.118H391.622L214.306 314.534C191.677 312.779 172.927 303.843 158.583 287.867C144.644 271.891 138.289 252.052 139.676 228.931C141.8 207.074 150.209 188.552 164.904 174.138C179.26 159.767 198.175 150.846 218.397 148.91H218.818L219.046 148.542C228.883 132.419 242.657 119.062 259.074 109.725C275.141 100.675 293.303 96.0018 311.742 96.172V95.2942H311.725ZM311.742 95.2942C293.144 95.09 274.822 99.8082 258.635 108.97C242.095 118.345 228.23 131.799 218.362 148.05C197.933 149.962 178.82 158.969 164.342 173.506C149.513 188.23 141.016 206.676 138.85 228.843C137.446 252.357 143.819 272.253 157.969 288.534C172.54 304.779 191.314 313.762 214.289 315.482L391.605 322.083H392.939C412.028 322.083 428.326 315.945 441.833 303.667C455.56 290.914 464.015 273.484 465.533 254.809C466.587 236.082 461.624 220.194 450.646 207.144C439.993 193.812 424.499 185.235 407.546 183.285C404.339 158.707 394.162 138.266 377.016 121.962C359.869 105.658 338.744 96.7748 313.638 95.3118L311.742 95.2942Z" fill="white"/>
<path d="M428.595 198.313L407.177 183.566" stroke="white" stroke-miterlimit="10"/>
<path d="M435.934 194.135L456.773 208.408" stroke="white" stroke-miterlimit="10"/>
<path d="M174.576 302.21L191.254 313.656" stroke="white" stroke-miterlimit="10"/>
<path d="M218.362 148.05L239.763 162.762" stroke="white" stroke-miterlimit="10"/>
<path d="M366.236 113.412L385.302 126.597" stroke="white" stroke-miterlimit="10"/>
<path d="M161.094 335.689C164.251 335.621 167.389 336.2 170.315 337.389C173.24 338.579 175.891 340.354 178.105 342.606C180.361 344.708 182.141 347.268 183.325 350.114C184.509 352.961 185.07 356.028 184.97 359.109C185.038 362.261 184.463 365.393 183.28 368.315C182.096 371.237 180.33 373.887 178.088 376.103C175.906 378.425 173.272 380.276 170.348 381.54C167.423 382.805 164.271 383.458 161.085 383.458C157.899 383.458 154.746 382.805 151.822 381.54C148.898 380.276 146.264 378.425 144.082 376.103C141.84 373.887 140.073 371.237 138.89 368.315C137.707 365.393 137.132 362.261 137.2 359.109C137.105 356.024 137.67 352.955 138.857 350.106C140.044 347.257 141.825 344.694 144.082 342.589C146.299 340.342 148.951 338.57 151.876 337.384C154.801 336.198 157.938 335.621 161.094 335.689V335.689ZM161.094 334.811C157.835 334.746 154.598 335.346 151.579 336.575C148.56 337.803 145.824 339.635 143.538 341.957C141.191 344.14 139.34 346.801 138.107 349.759C136.875 352.718 136.29 355.906 136.392 359.109C136.325 362.368 136.924 365.606 138.153 368.625C139.381 371.644 141.214 374.38 143.538 376.665C145.798 379.071 148.528 380.988 151.558 382.299C154.588 383.609 157.854 384.286 161.155 384.286C164.456 384.286 167.723 383.609 170.753 382.299C173.783 380.988 176.512 379.071 178.773 376.665C181.096 374.38 182.929 371.644 184.158 368.625C185.386 365.606 185.985 362.368 185.918 359.109C186.02 355.906 185.435 352.718 184.203 349.759C182.97 346.801 181.119 344.14 178.773 341.957C176.487 339.634 173.75 337.802 170.732 336.573C167.713 335.345 164.475 334.745 161.217 334.811H161.094Z" fill="white"/>
<path d="M229.176 340.587L213.938 352.49L214.429 359.162L213.938 366.307L229.176 378.21C229.783 378.731 230.169 379.464 230.257 380.259C230.345 381.053 230.128 381.852 229.65 382.494L215.851 407.248C215.339 407.991 214.589 408.539 213.724 408.8C212.86 409.062 211.932 409.022 211.094 408.687L193.538 401.542C189.924 404.47 185.918 406.875 181.635 408.687L178.773 427.244C178.691 428.101 178.314 428.903 177.705 429.511C177.096 430.12 176.294 430.498 175.437 430.58H146.803C145.946 430.498 145.145 430.12 144.536 429.511C143.927 428.903 143.55 428.101 143.468 427.244L140.606 408.687C136.402 406.713 132.418 404.3 128.721 401.489L111.165 408.635C110.403 408.993 109.532 409.044 108.734 408.776C107.935 408.507 107.272 407.941 106.881 407.195L92.5903 382.441C92.3575 382.102 92.1969 381.718 92.1184 381.315C92.04 380.911 92.0453 380.495 92.1342 380.093C92.2231 379.692 92.3937 379.313 92.6352 378.979C92.8767 378.646 93.1842 378.367 93.5384 378.157L108.303 366.254L107.829 359.109L108.303 352.438L93.4681 340.587C92.7283 340.069 92.2169 339.285 92.0404 338.399C91.8638 337.512 92.0356 336.592 92.5201 335.83L106.811 311.532C107.211 310.765 107.859 310.155 108.649 309.801C109.439 309.447 110.325 309.371 111.165 309.583L128.721 317.203C132.266 314.179 136.288 311.765 140.624 310.057L143.485 291.009" stroke="white" stroke-miterlimit="10"/>
<path d="M484.898 122.418C486.908 122.33 488.913 122.685 490.77 123.458C492.627 124.232 494.291 125.406 495.643 126.895C497.137 128.251 498.313 129.92 499.087 131.784C499.861 133.647 500.213 135.659 500.119 137.675C500.155 139.696 499.776 141.703 499.006 143.572C498.236 145.441 497.091 147.132 495.643 148.542C494.284 149.882 492.666 150.931 490.888 151.626C489.11 152.32 487.21 152.645 485.302 152.58C481.17 152.706 477.143 151.263 474.031 148.542C471.36 145.588 469.916 141.727 469.993 137.745C469.896 135.762 470.204 133.781 470.899 131.922C471.593 130.062 472.659 128.364 474.031 126.93C475.43 125.484 477.108 124.338 478.965 123.562C480.821 122.786 482.816 122.397 484.828 122.418H484.898ZM484.828 121.541C482.714 121.507 480.614 121.907 478.66 122.716C476.706 123.525 474.939 124.726 473.467 126.244C471.994 127.762 470.849 129.566 470.1 131.544C469.352 133.522 469.017 135.632 469.115 137.745C469.041 141.989 470.6 146.099 473.469 149.226C476.749 152.114 481.005 153.646 485.372 153.51C487.394 153.581 489.409 153.237 491.293 152.5C493.176 151.764 494.89 150.65 496.327 149.226C497.862 147.749 499.077 145.972 499.899 144.007C500.72 142.041 501.13 139.928 501.103 137.797C501.075 133.508 499.359 129.403 496.326 126.37C493.293 123.337 489.187 121.621 484.898 121.593L484.828 121.541Z" fill="white"/>
<path d="M494.43 92.9066C494.784 92.8617 495.141 92.9582 495.424 93.1752C495.706 93.3923 495.892 93.7121 495.94 94.0653L497.854 105.968V106.372L498.205 106.583L505.35 110.866L505.719 111.095L506.105 110.937L517.481 106.671C517.697 106.648 517.915 106.648 518.131 106.671C518.368 106.66 518.604 106.713 518.814 106.824C519.024 106.935 519.2 107.101 519.325 107.303L528.401 122.892C528.84 123.753 528.893 124.35 528.594 124.648L518.658 132.232L518.271 132.513V133.005L518.745 137.675L518.289 141.87V142.362L518.693 142.66L528.63 150.245C528.928 150.578 528.875 151.193 528.454 152L519.395 167.801C518.991 168.591 518.623 168.591 518.482 168.591C518.212 168.569 517.949 168.491 517.71 168.363H517.622L506.175 164.061L505.789 163.903L505.42 164.132L498.275 168.415L497.924 168.626V169.03L496.045 181.319C495.893 181.644 495.663 181.926 495.375 182.141C495.087 182.355 494.75 182.495 494.395 182.548H476.418C475.364 182.337 474.82 181.986 474.82 181.53V181.389L472.907 169.1V168.679L472.52 168.468L464.901 164.184L464.55 163.991L464.164 164.132L452.735 168.415C452.496 168.544 452.233 168.621 451.962 168.643C451.822 168.643 451.436 168.643 451.032 167.818L442.008 152.141C441.393 150.929 441.885 150.596 442.236 150.385L451.769 142.766L452.103 142.502V132.548L451.769 132.285L442.061 124.648C441.762 124.455 441.271 124.121 441.85 122.892L450.874 107.215C450.996 106.999 451.175 106.821 451.392 106.7C451.609 106.579 451.855 106.52 452.103 106.53C452.313 106.507 452.525 106.507 452.735 106.53L464.041 110.937L464.427 111.077L464.778 110.884L472.397 106.6L472.784 106.39V105.968L474.697 94.0653V93.9249C474.697 93.5211 474.697 92.9066 476.207 92.9066H494.307H494.43ZM494.307 92.0288H476.33C474.75 92.0288 473.942 92.6608 473.942 93.9249L472.046 105.828L464.427 110.112L452.998 105.828C452.705 105.755 452.405 105.714 452.103 105.705C451.711 105.7 451.324 105.795 450.979 105.983C450.635 106.17 450.345 106.443 450.136 106.776L441.095 122.576C440.463 123.84 440.621 124.788 441.569 125.42L451.102 133.04V142.028L441.569 149.648C440.621 150.28 440.463 151.228 441.095 152.492L450.136 168.292C450.264 168.659 450.501 168.978 450.815 169.207C451.128 169.435 451.504 169.564 451.892 169.574C452.298 169.56 452.694 169.452 453.051 169.258L464.48 164.974L472.099 169.258L473.995 181.547C473.995 182.495 474.803 183.127 476.383 183.443H494.483C495.01 183.364 495.507 183.148 495.924 182.815C496.34 182.482 496.661 182.044 496.853 181.547L498.767 169.258L505.912 164.974L517.341 169.258C517.697 169.452 518.094 169.56 518.5 169.574C518.888 169.566 519.265 169.439 519.579 169.21C519.893 168.98 520.129 168.66 520.255 168.292L529.314 152.492C529.946 151.228 529.946 150.28 529.314 149.648L519.307 142.028L519.781 137.745L519.307 132.97L529.314 125.35C529.946 124.718 529.946 123.77 529.314 122.506L520.255 106.706C520.051 106.373 519.764 106.1 519.423 105.912C519.081 105.725 518.696 105.629 518.307 105.635C518.005 105.643 517.704 105.685 517.411 105.758L505.982 110.041L498.837 105.758L496.923 93.8546C496.837 93.2995 496.545 92.797 496.107 92.446C495.668 92.0951 495.114 91.9212 494.553 91.9586L494.307 92.0288Z" fill="white"/>
<rect x="460.49" y="336.251" width="18.2683" height="18.2683" fill="#8AE3FF"/>
<rect x="450.342" y="349.445" width="18.2683" height="18.2683" fill="#8AE3FF"/>
<rect x="498.042" y="308.848" width="9.13416" height="9.13416" fill="#8AE3FF"/>
<rect x="597.504" y="183" width="9.13416" height="9.13416" fill="#8AE3FF"/>
<rect x="597.504" y="272.312" width="16.2385" height="16.2385" fill="#8AE3FF"/>
<rect x="531.534" y="340.311" width="9.13416" height="9.13416" fill="#8AE3FF"/>
<rect x="523.415" y="329.147" width="3.04472" height="3.04472" fill="#8AE3FF"/>
<rect x="530.52" y="323.057" width="3.04472" height="3.04472" fill="#8AE3FF"/>
<rect x="445.268" y="314.938" width="3.04472" height="3.04472" fill="#8AE3FF"/>
<rect x="452.371" y="308.848" width="3.04472" height="3.04472" fill="#8AE3FF"/>
<rect x="391.478" y="379.892" width="9.13416" height="9.13416" fill="#8AE3FF"/>
<rect x="437.148" y="391.056" width="9.13416" height="9.13416" fill="#8AE3FF"/>
<rect x="429.029" y="379.892" width="3.04472" height="3.04472" fill="#8AE3FF"/>
<rect x="436.133" y="373.803" width="3.04472" height="3.04472" fill="#8AE3FF"/>
<rect x="359" y="406.28" width="9.13416" height="9.13416" fill="#8AE3FF"/>
<rect x="363.06" y="399.175" width="9.13416" height="9.13416" fill="#8AE3FF"/>
<rect x="472.67" y="382.937" width="9.13416" height="9.13416" fill="#8AE3FF"/>
<rect x="506.162" y="414.399" width="9.13416" height="9.13416" fill="#8AE3FF"/>
<rect x="498.042" y="403.235" width="3.04472" height="3.04472" fill="#8AE3FF"/>
<rect x="505.146" y="397.145" width="3.04472" height="3.04472" fill="#8AE3FF"/>
</svg>
