<svg width="149" height="157" viewBox="0 0 149 157" fill="none" xmlns="http://www.w3.org/2000/svg">
<g opacity="0.5">
<mask id="path-1-inside-1" fill="white">
<path fill-rule="evenodd" clip-rule="evenodd" d="M144.912 119.898C144.059 119.472 143.12 119.248 142.286 119.304L142.259 119.305L136.637 119.376C136.198 119.376 135.779 119.268 135.387 119.078C134.738 118.803 134.395 118.281 134.175 117.913L134.15 117.873L134.13 117.83C133.403 116.311 132.479 114.925 131.356 113.669L131.349 113.661L131.342 113.653C130.638 112.832 130.565 111.712 130.978 110.782L130.983 110.772L133.286 105.747C134.59 102.902 133.419 99.6367 130.608 98.1964C127.803 96.8286 124.477 97.8406 122.925 100.583L122.924 100.585L120.206 105.463C119.692 106.387 118.711 106.993 117.634 106.881C116.002 106.752 114.282 106.88 112.598 107.149C111.996 107.263 111.448 107.13 111.005 106.953L110.967 106.937L110.929 106.919C110.478 106.693 110.147 106.362 109.925 106.034L106.716 101.5C106.191 100.741 105.487 100.151 104.649 99.7315L104.638 99.7258C102.816 98.7856 100.619 98.9508 98.8769 100.091C96.2534 101.821 95.4846 105.203 97.0912 107.882L99.9479 112.62C100.479 113.476 100.519 114.679 99.9121 115.533C99.4387 116.21 98.9995 116.907 98.6924 117.644L98.6723 117.692L98.6473 117.738C98.262 118.444 97.9354 119.226 97.6713 120.018C97.325 121.057 96.4065 121.708 95.358 121.813M95.3568 121.813L92.5985 122.092L89.8403 122.372C86.754 122.668 84.4932 125.337 84.672 128.436C84.7919 130.533 85.9863 132.365 87.8076 133.246L87.8193 133.252C88.6723 133.678 89.6118 133.902 90.4457 133.846L90.4726 133.844L96.0946 133.774C96.5334 133.774 96.9528 133.882 97.3443 134.072C97.9933 134.347 98.3366 134.869 98.5571 135.236L98.5814 135.277L98.6017 135.32C99.3284 136.839 100.253 138.225 101.376 139.48L101.383 139.488L101.39 139.496C102.094 140.318 102.167 141.438 101.754 142.368L101.749 142.378L99.446 147.402C98.1407 150.25 99.3152 153.519 102.132 154.957C104.92 156.381 108.24 155.321 109.73 152.579L109.735 152.57L112.469 147.663L112.482 147.642C112.957 146.883 113.902 146.152 115.028 146.269C116.66 146.398 118.38 146.269 120.064 146.001C120.666 145.886 121.214 146.02 121.657 146.197L121.695 146.212L121.733 146.231C122.184 146.456 122.516 146.788 122.737 147.116L125.946 151.65C126.471 152.409 127.175 152.999 128.013 153.418L128.024 153.424C129.846 154.364 132.044 154.199 133.786 153.058C136.408 151.328 137.177 147.947 135.571 145.268L135.57 145.267L132.714 140.53C132.183 139.673 132.143 138.471 132.75 137.616C133.196 136.979 133.588 136.263 133.998 135.443L134.006 135.427L134.015 135.412C134.4 134.705 134.727 133.924 134.991 133.132C135.337 132.093 136.256 131.442 137.305 131.337L142.822 130.778C145.908 130.481 148.169 127.813 147.99 124.713L147.989 124.699L147.989 124.685C147.93 122.674 146.741 120.783 144.924 119.904L144.912 119.898M137.405 132.332C136.707 132.402 136.149 132.82 135.939 133.448C135.66 134.286 135.311 135.123 134.893 135.891C134.474 136.728 134.055 137.495 133.567 138.193C133.218 138.682 133.218 139.449 133.567 140.008L136.428 144.753C138.312 147.893 137.405 151.87 134.334 153.894C132.311 155.22 129.729 155.429 127.566 154.313C126.589 153.824 125.751 153.126 125.123 152.219L121.913 147.683C121.774 147.474 121.565 147.265 121.285 147.125C120.937 146.986 120.588 146.916 120.239 146.986C118.494 147.265 116.68 147.404 114.935 147.265C114.307 147.195 113.679 147.614 113.33 148.172L110.609 153.057C108.864 156.266 104.957 157.523 101.677 155.848C98.3974 154.173 97.0018 150.335 98.5369 146.986L100.84 141.961C101.119 141.333 101.049 140.636 100.63 140.147C99.4441 138.821 98.4672 137.356 97.6996 135.751C97.4902 135.402 97.2809 135.123 96.932 134.983C96.6529 134.844 96.3737 134.774 96.0946 134.774L90.5122 134.844C89.4655 134.914 88.349 134.634 87.3721 134.146C85.2089 133.099 83.8133 130.936 83.6737 128.494C83.4643 124.865 86.116 121.725 89.7446 121.376L95.2573 120.818C95.9551 120.748 96.5133 120.329 96.7227 119.701C97.0018 118.864 97.3507 118.027 97.7694 117.259C98.1183 116.422 98.6067 115.654 99.0952 114.956C99.4441 114.468 99.4441 113.7 99.0952 113.142L96.2342 108.397C94.3501 105.257 95.2573 101.279 98.3276 99.2557C100.351 97.9299 102.933 97.7206 105.096 98.8371C106.073 99.3255 106.911 100.023 107.539 100.93L110.749 105.466C110.888 105.676 111.097 105.885 111.377 106.024C111.725 106.164 112.074 106.234 112.423 106.164C114.168 105.885 115.982 105.745 117.727 105.885C118.355 105.955 118.983 105.606 119.332 104.978L122.053 100.093C123.867 96.8832 127.775 95.6969 131.055 97.3019C134.334 98.9766 135.73 102.815 134.195 106.164L131.892 111.188C131.613 111.816 131.683 112.514 132.101 113.003C133.288 114.328 134.265 115.794 135.032 117.399C135.242 117.748 135.451 118.027 135.8 118.166C136.079 118.306 136.358 118.376 136.637 118.376L142.22 118.306C143.266 118.236 144.383 118.515 145.36 119.004C147.523 120.05 148.919 122.283 148.988 124.656C149.198 128.284 146.546 131.425 142.917 131.773L137.405 132.332ZM119.826 134.515L114.032 134.864C112.864 134.964 111.767 134.337 111.173 133.445L107.963 128.63C107.351 127.713 107.246 126.494 107.761 125.465L110.343 120.301C110.867 119.253 111.896 118.663 112.961 118.566L112.976 118.565L118.769 118.216C119.938 118.116 121.034 118.743 121.629 119.635L124.852 124.47L124.864 124.49C125.419 125.415 125.579 126.628 125.032 127.632L122.459 132.779C121.935 133.827 120.906 134.417 119.841 134.514L119.826 134.515ZM118.843 119.213L113.051 119.562C112.284 119.632 111.586 120.05 111.237 120.748L108.655 125.912C108.306 126.61 108.376 127.447 108.795 128.075L112.005 132.89C112.423 133.518 113.191 133.937 113.958 133.867L119.75 133.518C120.518 133.448 121.216 133.03 121.565 132.332L124.146 127.168C124.495 126.54 124.426 125.703 124.007 125.005L120.797 120.19C120.378 119.562 119.611 119.143 118.843 119.213Z"/>
</mask>
<path fill-rule="evenodd" clip-rule="evenodd" d="M144.912 119.898C144.059 119.472 143.12 119.248 142.286 119.304L142.259 119.305L136.637 119.376C136.198 119.376 135.779 119.268 135.387 119.078C134.738 118.803 134.395 118.281 134.175 117.913L134.15 117.873L134.13 117.83C133.403 116.311 132.479 114.925 131.356 113.669L131.349 113.661L131.342 113.653C130.638 112.832 130.565 111.712 130.978 110.782L130.983 110.772L133.286 105.747C134.59 102.902 133.419 99.6367 130.608 98.1964C127.803 96.8286 124.477 97.8406 122.925 100.583L122.924 100.585L120.206 105.463C119.692 106.387 118.711 106.993 117.634 106.881C116.002 106.752 114.282 106.88 112.598 107.149C111.996 107.263 111.448 107.13 111.005 106.953L110.967 106.937L110.929 106.919C110.478 106.693 110.147 106.362 109.925 106.034L106.716 101.5C106.191 100.741 105.487 100.151 104.649 99.7315L104.638 99.7258C102.816 98.7856 100.619 98.9508 98.8769 100.091C96.2534 101.821 95.4846 105.203 97.0912 107.882L99.9479 112.62C100.479 113.476 100.519 114.679 99.9121 115.533C99.4387 116.21 98.9995 116.907 98.6924 117.644L98.6723 117.692L98.6473 117.738C98.262 118.444 97.9354 119.226 97.6713 120.018C97.325 121.057 96.4065 121.708 95.358 121.813M95.3568 121.813L92.5985 122.092L89.8403 122.372C86.754 122.668 84.4932 125.337 84.672 128.436C84.7919 130.533 85.9863 132.365 87.8076 133.246L87.8193 133.252C88.6723 133.678 89.6118 133.902 90.4457 133.846L90.4726 133.844L96.0946 133.774C96.5334 133.774 96.9528 133.882 97.3443 134.072C97.9933 134.347 98.3366 134.869 98.5571 135.236L98.5814 135.277L98.6017 135.32C99.3284 136.839 100.253 138.225 101.376 139.48L101.383 139.488L101.39 139.496C102.094 140.318 102.167 141.438 101.754 142.368L101.749 142.378L99.446 147.402C98.1407 150.25 99.3152 153.519 102.132 154.957C104.92 156.381 108.24 155.321 109.73 152.579L109.735 152.57L112.469 147.663L112.482 147.642C112.957 146.883 113.902 146.152 115.028 146.269C116.66 146.398 118.38 146.269 120.064 146.001C120.666 145.886 121.214 146.02 121.657 146.197L121.695 146.212L121.733 146.231C122.184 146.456 122.516 146.788 122.737 147.116L125.946 151.65C126.471 152.409 127.175 152.999 128.013 153.418L128.024 153.424C129.846 154.364 132.044 154.199 133.786 153.058C136.408 151.328 137.177 147.947 135.571 145.268L135.57 145.267L132.714 140.53C132.183 139.673 132.143 138.471 132.75 137.616C133.196 136.979 133.588 136.263 133.998 135.443L134.006 135.427L134.015 135.412C134.4 134.705 134.727 133.924 134.991 133.132C135.337 132.093 136.256 131.442 137.305 131.337L142.822 130.778C145.908 130.481 148.169 127.813 147.99 124.713L147.989 124.699L147.989 124.685C147.93 122.674 146.741 120.783 144.924 119.904L144.912 119.898M137.405 132.332C136.707 132.402 136.149 132.82 135.939 133.448C135.66 134.286 135.311 135.123 134.893 135.891C134.474 136.728 134.055 137.495 133.567 138.193C133.218 138.682 133.218 139.449 133.567 140.008L136.428 144.753C138.312 147.893 137.405 151.87 134.334 153.894C132.311 155.22 129.729 155.429 127.566 154.313C126.589 153.824 125.751 153.126 125.123 152.219L121.913 147.683C121.774 147.474 121.565 147.265 121.285 147.125C120.937 146.986 120.588 146.916 120.239 146.986C118.494 147.265 116.68 147.404 114.935 147.265C114.307 147.195 113.679 147.614 113.33 148.172L110.609 153.057C108.864 156.266 104.957 157.523 101.677 155.848C98.3974 154.173 97.0018 150.335 98.5369 146.986L100.84 141.961C101.119 141.333 101.049 140.636 100.63 140.147C99.4441 138.821 98.4672 137.356 97.6996 135.751C97.4902 135.402 97.2809 135.123 96.932 134.983C96.6529 134.844 96.3737 134.774 96.0946 134.774L90.5122 134.844C89.4655 134.914 88.349 134.634 87.3721 134.146C85.2089 133.099 83.8133 130.936 83.6737 128.494C83.4643 124.865 86.116 121.725 89.7446 121.376L95.2573 120.818C95.9551 120.748 96.5133 120.329 96.7227 119.701C97.0018 118.864 97.3507 118.027 97.7694 117.259C98.1183 116.422 98.6067 115.654 99.0952 114.956C99.4441 114.468 99.4441 113.7 99.0952 113.142L96.2342 108.397C94.3501 105.257 95.2573 101.279 98.3276 99.2557C100.351 97.9299 102.933 97.7206 105.096 98.8371C106.073 99.3255 106.911 100.023 107.539 100.93L110.749 105.466C110.888 105.676 111.097 105.885 111.377 106.024C111.725 106.164 112.074 106.234 112.423 106.164C114.168 105.885 115.982 105.745 117.727 105.885C118.355 105.955 118.983 105.606 119.332 104.978L122.053 100.093C123.867 96.8832 127.775 95.6969 131.055 97.3019C134.334 98.9766 135.73 102.815 134.195 106.164L131.892 111.188C131.613 111.816 131.683 112.514 132.101 113.003C133.288 114.328 134.265 115.794 135.032 117.399C135.242 117.748 135.451 118.027 135.8 118.166C136.079 118.306 136.358 118.376 136.637 118.376L142.22 118.306C143.266 118.236 144.383 118.515 145.36 119.004C147.523 120.05 148.919 122.283 148.988 124.656C149.198 128.284 146.546 131.425 142.917 131.773L137.405 132.332ZM119.826 134.515L114.032 134.864C112.864 134.964 111.767 134.337 111.173 133.445L107.963 128.63C107.351 127.713 107.246 126.494 107.761 125.465L110.343 120.301C110.867 119.253 111.896 118.663 112.961 118.566L112.976 118.565L118.769 118.216C119.938 118.116 121.034 118.743 121.629 119.635L124.852 124.47L124.864 124.49C125.419 125.415 125.579 126.628 125.032 127.632L122.459 132.779C121.935 133.827 120.906 134.417 119.841 134.514L119.826 134.515ZM118.843 119.213L113.051 119.562C112.284 119.632 111.586 120.05 111.237 120.748L108.655 125.912C108.306 126.61 108.376 127.447 108.795 128.075L112.005 132.89C112.423 133.518 113.191 133.937 113.958 133.867L119.75 133.518C120.518 133.448 121.216 133.03 121.565 132.332L124.146 127.168C124.495 126.54 124.426 125.703 124.007 125.005L120.797 120.19C120.378 119.562 119.611 119.143 118.843 119.213Z" fill="white"/>
<path d="M95.3076 121.315L92.5482 121.595L92.6489 122.59L95.4084 122.31L95.3076 121.315ZM144.912 119.898L144.465 120.793L144.471 120.795L144.912 119.898ZM142.286 119.304L142.22 118.306L142.22 118.306L142.286 119.304ZM142.259 119.305L142.272 120.305L142.299 120.305L142.326 120.303L142.259 119.305ZM136.637 119.376V120.376L136.65 120.376L136.637 119.376ZM135.387 119.078L135.824 118.178L135.801 118.167L135.778 118.157L135.387 119.078ZM134.175 117.913L135.032 117.399L135.032 117.399L134.175 117.913ZM134.15 117.873L133.248 118.304L133.269 118.347L133.293 118.387L134.15 117.873ZM134.13 117.83L133.228 118.262L133.228 118.262L134.13 117.83ZM131.356 113.669L130.611 114.336L130.611 114.336L131.356 113.669ZM131.349 113.661L130.59 114.312L130.597 114.32L130.604 114.328L131.349 113.661ZM131.342 113.653L130.583 114.304L130.583 114.304L131.342 113.653ZM130.978 110.782L130.064 110.376L130.064 110.376L130.978 110.782ZM130.983 110.772L130.074 110.355L130.069 110.365L130.983 110.772ZM133.286 105.747L134.195 106.164L134.195 106.164L133.286 105.747ZM130.608 98.1964L131.064 97.3064L131.055 97.3019L131.046 97.2976L130.608 98.1964ZM122.925 100.583L122.055 100.09L122.055 100.09L122.925 100.583ZM122.924 100.585L122.053 100.093L122.05 100.098L122.924 100.585ZM120.206 105.463L119.332 104.977L119.332 104.978L120.206 105.463ZM117.634 106.881L117.737 105.886L117.725 105.885L117.713 105.884L117.634 106.881ZM112.598 107.149L112.44 106.161L112.425 106.164L112.411 106.166L112.598 107.149ZM111.005 106.953L111.377 106.024L111.377 106.024L111.005 106.953ZM110.967 106.937L110.519 107.832L110.557 107.851L110.595 107.866L110.967 106.937ZM110.929 106.919L111.377 106.024L111.377 106.024L110.929 106.919ZM109.925 106.034L110.754 105.474L110.748 105.465L110.741 105.456L109.925 106.034ZM106.716 101.5L105.894 102.069L105.9 102.077L106.716 101.5ZM104.638 99.7258L104.179 100.614L104.19 100.62L104.638 99.7258ZM98.8769 100.091L98.329 99.2548L98.3264 99.2565L98.8769 100.091ZM97.0912 107.882L96.2337 108.396L96.2349 108.398L97.0912 107.882ZM99.9479 112.62L99.0915 113.136L99.0981 113.147L99.9479 112.62ZM99.9121 115.533L99.097 114.954L99.0928 114.96L99.9121 115.533ZM98.6924 117.644L99.6155 118.028L99.6155 118.028L98.6924 117.644ZM98.6723 117.692L99.5502 118.171L99.5753 118.125L99.5954 118.077L98.6723 117.692ZM98.6473 117.738L99.5252 118.217L99.5252 118.217L98.6473 117.738ZM97.6713 120.018L96.7227 119.701L96.7227 119.701L97.6713 120.018ZM89.8403 122.372L89.936 123.367L89.9411 123.367L89.8403 122.372ZM84.672 128.436L85.6704 128.379L85.6704 128.379L84.672 128.436ZM87.8076 133.246L88.2432 132.346L88.2432 132.346L87.8076 133.246ZM87.8193 133.252L88.2666 132.357L88.2549 132.351L87.8193 133.252ZM90.4457 133.846L90.5122 134.844L90.5122 134.844L90.4457 133.846ZM90.4726 133.844L90.4601 132.844L90.4331 132.845L90.4061 132.846L90.4726 133.844ZM96.0946 133.774V132.774L96.0821 132.774L96.0946 133.774ZM97.3443 134.072L96.9077 134.971L96.9305 134.982L96.954 134.992L97.3443 134.072ZM98.5571 135.236L97.6996 135.751L97.6996 135.751L98.5571 135.236ZM98.5814 135.277L99.4835 134.846L99.4631 134.803L99.4388 134.762L98.5814 135.277ZM98.6017 135.32L97.6996 135.751L97.6996 135.751L98.6017 135.32ZM101.376 139.48L102.121 138.814L102.121 138.814L101.376 139.48ZM101.383 139.488L102.142 138.837L102.135 138.829L102.128 138.822L101.383 139.488ZM101.39 139.496L102.149 138.846L102.149 138.845L101.39 139.496ZM101.754 142.368L102.667 142.774L102.667 142.774L101.754 142.368ZM101.749 142.378L102.658 142.795L102.663 142.784L101.749 142.378ZM99.446 147.402L98.5369 146.986L98.5369 146.986L99.446 147.402ZM102.132 154.957L101.677 155.848L101.677 155.848L102.132 154.957ZM109.73 152.579L110.609 153.057L110.609 153.057L109.73 152.579ZM109.735 152.57L108.862 152.083L108.857 152.092L109.735 152.57ZM112.469 147.663L111.621 147.133L111.608 147.155L111.596 147.177L112.469 147.663ZM112.482 147.642L113.33 148.172L113.33 148.172L112.482 147.642ZM115.028 146.269L114.925 147.264L114.937 147.265L114.949 147.266L115.028 146.269ZM120.064 146.001L120.222 146.988L120.237 146.986L120.251 146.983L120.064 146.001ZM121.657 146.197L121.285 147.125L121.285 147.125L121.657 146.197ZM121.695 146.212L122.143 145.318L122.105 145.299L122.067 145.284L121.695 146.212ZM121.733 146.231L121.285 147.125L121.285 147.125L121.733 146.231ZM122.737 147.116L121.908 147.675L121.914 147.685L121.921 147.694L122.737 147.116ZM125.946 151.65L126.768 151.081L126.762 151.072L125.946 151.65ZM128.024 153.424L128.483 152.535L128.472 152.529L128.024 153.424ZM133.786 153.058L134.333 153.895L134.336 153.893L133.786 153.058ZM135.571 145.268L134.713 145.783L134.713 145.783L135.571 145.268ZM135.57 145.267L136.428 144.753L136.427 144.751L135.57 145.267ZM132.714 140.53L133.57 140.014L133.564 140.003L132.714 140.53ZM132.75 137.616L133.565 138.196L133.569 138.19L132.75 137.616ZM133.998 135.443L133.104 134.996L133.104 134.996L133.998 135.443ZM134.006 135.427L133.128 134.949L133.12 134.964L133.112 134.98L134.006 135.427ZM134.015 135.412L133.137 134.933L133.137 134.933L134.015 135.412ZM134.991 133.132L135.939 133.448L135.939 133.448L134.991 133.132ZM137.305 131.337L137.404 132.332L137.406 132.332L137.305 131.337ZM142.822 130.778L142.726 129.783L142.721 129.783L142.822 130.778ZM147.99 124.713L148.988 124.656L148.988 124.656L147.99 124.713ZM147.989 124.699L146.99 124.729L146.99 124.743L146.991 124.757L147.989 124.699ZM147.989 124.685L148.988 124.656L148.988 124.656L147.989 124.685ZM144.924 119.904L144.483 120.801L144.489 120.804L144.924 119.904ZM135.939 133.448L134.991 133.132L134.991 133.132L135.939 133.448ZM137.405 132.332L137.504 133.327L137.505 133.327L137.405 132.332ZM134.893 135.891L134.015 135.412L134.006 135.427L133.998 135.443L134.893 135.891ZM133.567 138.193L134.381 138.775L134.386 138.767L133.567 138.193ZM133.567 140.008L134.423 139.491L134.419 139.484L134.415 139.478L133.567 140.008ZM136.428 144.753L137.285 144.238L137.284 144.236L136.428 144.753ZM134.334 153.894L134.882 154.73L134.885 154.729L134.334 153.894ZM127.566 154.313L128.024 153.424L128.013 153.418L127.566 154.313ZM125.123 152.219L125.946 151.65L125.94 151.642L125.123 152.219ZM121.913 147.683L121.081 148.238L121.089 148.25L121.097 148.261L121.913 147.683ZM121.285 147.125L121.733 146.231L121.695 146.212L121.657 146.197L121.285 147.125ZM120.239 146.986L120.397 147.973L120.416 147.97L120.435 147.966L120.239 146.986ZM114.935 147.265L114.825 148.259L114.84 148.26L114.856 148.262L114.935 147.265ZM113.33 148.172L112.482 147.642L112.469 147.663L112.457 147.685L113.33 148.172ZM110.609 153.057L109.735 152.57L109.73 152.579L110.609 153.057ZM101.677 155.848L102.132 154.957L102.132 154.957L101.677 155.848ZM98.5369 146.986L99.446 147.402L99.446 147.402L98.5369 146.986ZM100.84 141.961L101.749 142.378L101.754 142.368L100.84 141.961ZM100.63 140.147L101.39 139.496L101.383 139.488L101.376 139.48L100.63 140.147ZM97.6996 135.751L98.6017 135.32L98.5814 135.277L98.5571 135.236L97.6996 135.751ZM96.932 134.983L96.4848 135.878L96.522 135.896L96.5606 135.912L96.932 134.983ZM96.0946 134.774L96.0946 133.774L96.0821 133.774L96.0946 134.774ZM90.5122 134.844L90.4997 133.844L90.4726 133.844L90.4457 133.846L90.5122 134.844ZM87.3721 134.146L87.8193 133.252L87.8076 133.246L87.3721 134.146ZM83.6737 128.494L84.6721 128.437L84.672 128.436L83.6737 128.494ZM89.7446 121.376L89.8403 122.372L89.8454 122.371L89.7446 121.376ZM95.2573 120.818L95.1578 119.823L95.1565 119.823L95.2573 120.818ZM96.7227 119.701L97.6713 120.018L97.6713 120.018L96.7227 119.701ZM97.7694 117.259L98.6473 117.738L98.6723 117.692L98.6924 117.644L97.7694 117.259ZM99.0952 114.956L98.2814 114.375L98.276 114.383L99.0952 114.956ZM99.0952 113.142L98.2388 113.658L98.2429 113.665L98.2472 113.672L99.0952 113.142ZM96.2342 108.397L95.3767 108.911L95.3778 108.913L96.2342 108.397ZM98.3276 99.2557L97.7796 98.4193L97.7773 98.4208L98.3276 99.2557ZM105.096 98.8371L104.638 99.7258L104.649 99.7315L105.096 98.8371ZM107.539 100.93L106.716 101.5L106.722 101.508L107.539 100.93ZM110.749 105.466L111.581 104.912L111.573 104.9L111.565 104.889L110.749 105.466ZM111.377 106.024L110.929 106.919L110.967 106.937L111.005 106.953L111.377 106.024ZM112.423 106.164L112.265 105.177L112.246 105.18L112.227 105.183L112.423 106.164ZM117.727 105.885L117.837 104.891L117.822 104.889L117.806 104.888L117.727 105.885ZM119.332 104.978L118.458 104.491L118.457 104.492L119.332 104.978ZM122.053 100.093L121.182 99.601L121.179 99.6064L122.053 100.093ZM131.055 97.3019L131.509 96.4113L131.502 96.4074L131.494 96.4037L131.055 97.3019ZM134.195 106.164L133.286 105.747L133.286 105.747L134.195 106.164ZM131.892 111.188L130.983 110.772L130.978 110.782L131.892 111.188ZM132.101 113.003L131.342 113.653L131.349 113.661L131.356 113.669L132.101 113.003ZM135.032 117.399L134.13 117.83L134.15 117.873L134.175 117.913L135.032 117.399ZM135.8 118.166L136.247 117.272L136.21 117.253L136.171 117.238L135.8 118.166ZM136.637 118.376V119.376L136.65 119.376L136.637 118.376ZM142.22 118.306L142.232 119.306L142.259 119.305L142.286 119.304L142.22 118.306ZM145.36 119.004L144.912 119.898L144.924 119.904L145.36 119.004ZM148.988 124.656L147.989 124.685L147.989 124.699L147.99 124.713L148.988 124.656ZM142.917 131.773L142.822 130.778L142.817 130.779L142.917 131.773ZM119.826 134.515L119.886 135.513L119.901 135.513L119.916 135.511L119.826 134.515ZM114.032 134.864L113.972 133.866L113.96 133.867L113.948 133.868L114.032 134.864ZM111.173 133.445L112.005 132.89L112.005 132.89L111.173 133.445ZM107.963 128.63L107.131 129.185L107.131 129.185L107.963 128.63ZM107.761 125.465L108.655 125.912L108.655 125.912L107.761 125.465ZM110.343 120.301L111.237 120.748L111.237 120.748L110.343 120.301ZM112.961 118.566L112.87 117.57L112.87 117.57L112.961 118.566ZM112.976 118.565L112.916 117.566L112.901 117.567L112.886 117.569L112.976 118.565ZM118.769 118.216L118.83 119.214L118.842 119.213L118.854 119.212L118.769 118.216ZM121.629 119.635L122.461 119.081L122.461 119.081L121.629 119.635ZM124.852 124.47L125.71 123.955L125.697 123.935L125.684 123.915L124.852 124.47ZM124.864 124.49L125.722 123.976L125.722 123.976L124.864 124.49ZM125.032 127.632L124.154 127.155L124.145 127.17L124.138 127.185L125.032 127.632ZM122.459 132.779L123.353 133.226L123.353 133.226L122.459 132.779ZM119.841 134.514L119.75 133.518L119.75 133.518L119.841 134.514ZM113.051 119.562L112.991 118.564L112.976 118.565L112.961 118.566L113.051 119.562ZM118.843 119.213L118.903 120.211L118.918 120.21L118.934 120.209L118.843 119.213ZM111.237 120.748L110.343 120.301L110.343 120.301L111.237 120.748ZM108.655 125.912L109.55 126.359L109.55 126.359L108.655 125.912ZM108.795 128.075L107.963 128.63L107.963 128.63L108.795 128.075ZM112.005 132.89L112.837 132.335L112.837 132.335L112.005 132.89ZM113.958 133.867L113.898 132.869L113.883 132.87L113.868 132.871L113.958 133.867ZM119.75 133.518L119.81 134.516L119.826 134.515L119.841 134.514L119.75 133.518ZM121.565 132.332L122.459 132.779L122.459 132.779L121.565 132.332ZM124.146 127.168L123.272 126.682L123.262 126.701L123.252 126.721L124.146 127.168ZM124.007 125.005L124.864 124.49L124.852 124.47L124.839 124.45L124.007 125.005ZM120.797 120.19L119.965 120.745L119.965 120.745L120.797 120.19ZM142.353 120.301C142.974 120.26 143.736 120.428 144.465 120.792L145.36 119.004C144.383 118.515 143.266 118.236 142.22 118.306L142.353 120.301ZM142.326 120.303L142.353 120.301L142.22 118.306L142.193 118.308L142.326 120.303ZM134.951 119.977C135.463 120.226 136.03 120.376 136.637 120.376V118.376C136.366 118.376 136.095 118.31 135.824 118.178L134.951 119.977ZM133.317 118.428C133.554 118.822 134.036 119.591 134.997 119.999L135.778 118.157C135.441 118.015 135.236 117.739 135.032 117.399L133.317 118.428ZM133.293 118.387L133.317 118.428L135.032 117.399L135.008 117.358L133.293 118.387ZM133.228 118.262L133.248 118.304L135.053 117.441L135.032 117.399L133.228 118.262ZM130.611 114.336C131.671 115.521 132.542 116.828 133.228 118.262L135.032 117.399C134.265 115.794 133.288 114.328 132.101 113.003L130.611 114.336ZM130.604 114.328L130.611 114.336L132.101 113.003L132.094 112.995L130.604 114.328ZM130.583 114.304L130.59 114.312L132.108 113.01L132.101 113.002L130.583 114.304ZM130.064 110.376C129.518 111.604 129.591 113.147 130.583 114.304L132.101 113.003C131.684 112.516 131.612 111.819 131.892 111.188L130.064 110.376ZM130.069 110.365L130.064 110.376L131.892 111.188L131.897 111.178L130.069 110.365ZM132.377 105.331L130.074 110.355L131.892 111.188L134.195 106.164L132.377 105.331ZM130.152 99.0864C132.5 100.289 133.452 102.985 132.377 105.331L134.195 106.164C135.728 102.818 134.338 98.9839 131.064 97.3064L130.152 99.0864ZM123.795 101.075C125.085 98.7957 127.837 97.9578 130.169 99.0952L131.046 97.2976C127.769 95.6995 123.868 96.8855 122.055 100.09L123.795 101.075ZM123.794 101.077L123.796 101.075L122.055 100.09L122.053 100.093L123.794 101.077ZM121.079 105.95L123.797 101.072L122.05 100.098L119.332 104.977L121.079 105.95ZM117.53 107.875C119.064 108.035 120.402 107.169 121.08 105.949L119.332 104.978C118.983 105.605 118.358 105.951 117.737 105.886L117.53 107.875ZM112.755 108.136C114.388 107.876 116.025 107.757 117.555 107.878L117.713 105.884C115.978 105.747 114.175 105.885 112.44 106.161L112.755 108.136ZM110.634 107.881C111.174 108.097 111.926 108.295 112.785 108.131L112.411 106.166C112.066 106.232 111.722 106.163 111.377 106.024L110.634 107.881ZM110.595 107.866L110.634 107.881L111.377 106.024L111.338 106.009L110.595 107.866ZM110.482 107.813L110.519 107.832L111.414 106.043L111.377 106.024L110.482 107.813ZM109.096 106.594C109.399 107.042 109.855 107.5 110.482 107.813L111.377 106.024C111.101 105.887 110.894 105.681 110.754 105.474L109.096 106.594ZM104.202 100.626C104.901 100.976 105.472 101.459 105.894 102.069L107.539 100.931C106.911 100.023 106.073 99.3256 105.096 98.8371L104.202 100.626ZM104.19 100.62L104.202 100.626L105.096 98.8371L105.085 98.8313L104.19 100.62ZM99.4247 100.928C100.885 99.9721 102.698 99.85 104.179 100.614L105.096 98.8371C102.934 97.7211 100.353 97.9295 98.329 99.2548L99.4247 100.928ZM97.9488 107.367C96.6187 105.15 97.2496 102.362 99.4273 100.926L98.3264 99.2565C95.2572 101.28 94.3506 105.257 96.2337 108.396L97.9488 107.367ZM100.804 112.103L97.9476 107.365L96.2349 108.398L99.0915 113.136L100.804 112.103ZM100.727 116.112C101.597 114.889 101.513 113.246 100.798 112.093L99.0981 113.147C99.4451 113.706 99.4415 114.469 99.097 114.954L100.727 116.112ZM99.6155 118.028C99.8812 117.391 100.272 116.763 100.731 116.106L99.0928 114.96C98.6053 115.657 98.1178 116.423 97.7694 117.259L99.6155 118.028ZM99.5954 118.077L99.6155 118.028L97.7694 117.259L97.7492 117.307L99.5954 118.077ZM99.5252 118.217L99.5502 118.171L97.7944 117.213L97.7694 117.259L99.5252 118.217ZM98.62 120.334C98.869 119.587 99.1733 118.862 99.5252 118.217L97.7694 117.259C97.3507 118.027 97.0018 118.864 96.7227 119.701L98.62 120.334ZM95.4579 122.808C96.8553 122.668 98.1361 121.786 98.62 120.334L96.7227 119.701C96.514 120.327 95.9577 120.748 95.2581 120.818L95.4579 122.808ZM85.6704 128.379C85.5221 125.809 87.3915 123.612 89.936 123.367L89.7446 121.376C86.1164 121.725 83.4643 124.865 83.6737 128.494L85.6704 128.379ZM88.2432 132.346C86.7634 131.63 85.7705 130.131 85.6704 128.379L83.6737 128.493C83.8132 130.936 85.2091 133.099 87.3721 134.146L88.2432 132.346ZM88.2549 132.351L88.2432 132.346L87.372 134.146L87.3837 134.152L88.2549 132.351ZM90.3791 132.848C89.758 132.89 88.9955 132.722 88.2665 132.357L87.3721 134.146C88.3491 134.634 89.4656 134.914 90.5122 134.844L90.3791 132.848ZM90.4061 132.846L90.3791 132.848L90.5122 134.844L90.5392 134.842L90.4061 132.846ZM97.781 133.172C97.2691 132.924 96.7012 132.774 96.0946 132.774V134.774C96.3656 134.774 96.6366 134.84 96.9077 134.971L97.781 133.172ZM99.4146 134.722C99.1778 134.327 98.6962 133.559 97.7347 133.151L96.954 134.992C97.2905 135.135 97.4953 135.411 97.6996 135.751L99.4146 134.722ZM99.4388 134.762L99.4146 134.722L97.6996 135.751L97.7239 135.791L99.4388 134.762ZM99.5039 134.888L99.4835 134.846L97.6792 135.708L97.6996 135.751L99.5039 134.888ZM102.121 138.814C101.061 137.629 100.19 136.322 99.5038 134.888L97.6996 135.751C98.4672 137.356 99.4441 138.821 100.63 140.147L102.121 138.814ZM102.128 138.822L102.121 138.814L100.63 140.147L100.637 140.155L102.128 138.822ZM102.149 138.845L102.142 138.837L100.624 140.139L100.63 140.147L102.149 138.845ZM102.667 142.774C103.213 141.545 103.14 140.002 102.149 138.846L100.63 140.147C101.047 140.634 101.12 141.331 100.84 141.961L102.667 142.774ZM102.663 142.784L102.667 142.774L100.84 141.961L100.835 141.972L102.663 142.784ZM100.355 147.819L102.658 142.795L100.84 141.961L98.5369 146.986L100.355 147.819ZM102.587 154.067C100.234 152.865 99.2792 150.166 100.355 147.819L98.5369 146.986C97.0021 150.334 98.3967 154.173 101.677 155.848L102.587 154.067ZM108.852 152.102C107.617 154.374 104.885 155.24 102.587 154.067L101.677 155.848C104.956 157.522 108.864 156.267 110.609 153.057L108.852 152.102ZM108.857 152.092L108.852 152.102L110.609 153.057L110.614 153.047L108.857 152.092ZM111.634 147.112L111.621 147.133L113.317 148.193L113.33 148.172L111.634 147.112ZM115.131 145.274C113.498 145.105 112.233 146.154 111.634 147.112L113.33 148.172C113.681 147.611 114.306 147.2 114.925 147.264L115.131 145.274ZM119.907 145.013C118.274 145.274 116.637 145.393 115.107 145.272L114.949 147.266C116.684 147.403 118.487 147.265 120.222 146.988L119.907 145.013ZM122.028 145.268C121.488 145.052 120.736 144.855 119.877 145.018L120.251 146.983C120.596 146.918 120.94 146.987 121.285 147.125L122.028 145.268ZM122.067 145.284L122.028 145.268L121.285 147.125L121.324 147.141L122.067 145.284ZM122.18 145.336L122.143 145.318L121.248 147.107L121.285 147.125L122.18 145.336ZM123.566 146.556C123.263 146.108 122.807 145.65 122.18 145.336L121.285 147.125C121.561 147.263 121.768 147.468 121.908 147.675L123.566 146.556ZM128.46 152.524C127.761 152.174 127.19 151.691 126.768 151.081L125.123 152.219C125.751 153.126 126.589 153.824 127.566 154.313L128.46 152.524ZM128.472 152.529L128.46 152.524L127.566 154.313L127.577 154.318L128.472 152.529ZM133.238 152.221C131.778 153.178 129.964 153.3 128.483 152.535L127.566 154.313C129.728 155.429 132.309 155.22 134.333 153.895L133.238 152.221ZM134.713 145.783C136.043 148 135.412 150.787 133.235 152.223L134.336 153.893C137.405 151.869 138.311 147.893 136.429 144.754L134.713 145.783ZM134.713 145.781L134.713 145.783L136.429 144.754L136.428 144.753L134.713 145.781ZM131.858 141.046L134.714 145.783L136.427 144.751L133.57 140.014L131.858 141.046ZM131.935 137.037C131.065 138.261 131.149 139.903 131.864 141.057L133.564 140.003C133.217 139.443 133.22 138.681 133.565 138.196L131.935 137.037ZM133.104 134.996C132.702 135.8 132.335 136.465 131.93 137.043L133.569 138.19C134.057 137.493 134.475 136.726 134.893 135.891L133.104 134.996ZM133.112 134.98L133.104 134.996L134.893 135.891L134.901 135.875L133.112 134.98ZM133.137 134.933L133.128 134.949L134.884 135.906L134.893 135.89L133.137 134.933ZM134.042 132.816C133.793 133.563 133.489 134.288 133.137 134.933L134.893 135.891C135.311 135.123 135.66 134.286 135.939 133.448L134.042 132.816ZM137.205 130.342C135.807 130.482 134.526 131.363 134.042 132.816L135.939 133.448C136.148 132.822 136.705 132.402 137.404 132.332L137.205 130.342ZM146.992 124.771C147.14 127.341 145.27 129.538 142.726 129.783L142.917 131.773C146.546 131.425 149.198 128.285 148.988 124.656L146.992 124.771ZM146.991 124.757L146.992 124.771L148.988 124.656L148.987 124.642L146.991 124.757ZM146.989 124.714L146.99 124.729L148.989 124.67L148.988 124.656L146.989 124.714ZM144.489 120.804C145.96 121.516 146.941 123.064 146.989 124.715L148.988 124.656C148.918 122.283 147.523 120.05 145.36 119.004L144.489 120.804ZM144.471 120.795L144.483 120.801L145.365 119.006L145.354 119.001L144.471 120.795ZM136.888 133.764C136.96 133.548 137.158 133.361 137.504 133.327L137.305 131.337C136.256 131.442 135.337 132.093 134.991 133.132L136.888 133.764ZM135.771 136.369C136.223 135.541 136.594 134.647 136.888 133.764L134.991 133.132C134.727 133.924 134.4 134.705 134.015 135.412L135.771 136.369ZM134.386 138.767C134.916 138.009 135.36 137.191 135.787 136.338L133.998 135.443C133.587 136.265 133.194 136.982 132.748 137.62L134.386 138.767ZM134.415 139.478C134.254 139.22 134.295 138.894 134.381 138.775L132.753 137.612C132.141 138.469 132.182 139.679 132.719 140.538L134.415 139.478ZM137.284 144.236L134.423 139.491L132.71 140.524L135.571 145.269L137.284 144.236ZM134.885 154.729C138.401 152.411 139.446 147.839 137.285 144.238L135.57 145.267C137.178 147.946 136.409 151.329 133.784 153.059L134.885 154.729ZM127.107 155.201C129.611 156.494 132.577 156.241 134.882 154.73L133.786 153.057C132.044 154.199 129.846 154.364 128.024 153.424L127.107 155.201ZM124.301 152.788C125.032 153.844 126.003 154.649 127.118 155.207L128.013 153.418C127.175 152.999 126.471 152.409 125.946 151.65L124.301 152.788ZM121.097 148.261L124.307 152.797L125.94 151.642L122.73 147.106L121.097 148.261ZM120.838 148.02C120.939 148.07 121.024 148.151 121.081 148.238L122.745 147.129C122.524 146.797 122.19 146.459 121.733 146.231L120.838 148.02ZM120.435 147.966C120.523 147.949 120.664 147.954 120.914 148.054L121.657 146.197C121.209 146.018 120.652 145.883 120.043 146.005L120.435 147.966ZM114.856 148.262C116.703 148.409 118.601 148.26 120.397 147.973L120.081 145.998C118.387 146.269 116.656 146.399 115.015 146.268L114.856 148.262ZM114.178 148.702C114.399 148.349 114.703 148.245 114.825 148.259L115.046 146.271C113.912 146.145 112.959 146.879 112.482 147.642L114.178 148.702ZM111.483 153.543L114.204 148.659L112.457 147.685L109.735 152.57L111.483 153.543ZM101.222 156.738C104.993 158.664 109.489 157.212 111.488 153.534L109.73 152.579C108.24 155.321 104.92 156.381 102.132 154.957L101.222 156.738ZM97.6279 146.569C95.8629 150.42 97.4796 154.827 101.222 156.738L102.132 154.957C99.3152 153.519 98.1407 150.25 99.446 147.402L97.6279 146.569ZM99.9306 141.545L97.6279 146.569L99.446 147.402L101.749 142.378L99.9306 141.545ZM99.8711 140.798C100.004 140.953 100.071 141.229 99.9259 141.555L101.754 142.368C102.167 141.438 102.094 140.318 101.39 139.496L99.8711 140.798ZM96.7974 136.182C97.6059 137.873 98.6357 139.417 99.8851 140.814L101.376 139.48C100.253 138.225 99.3284 136.839 98.6017 135.32L96.7974 136.182ZM96.5606 135.912C96.5828 135.921 96.6485 135.943 96.8421 136.265L98.5571 135.236C98.332 134.861 97.979 134.325 97.3034 134.055L96.5606 135.912ZM96.0946 135.774C96.201 135.774 96.328 135.799 96.4848 135.878L97.3792 134.089C96.9778 133.888 96.5465 133.774 96.0946 133.774V135.774ZM90.5247 135.844L96.1071 135.774L96.0821 133.774L90.4997 133.844L90.5247 135.844ZM86.9248 135.04C88.0257 135.591 89.3192 135.926 90.5787 135.842L90.4457 133.846C89.6118 133.902 88.6723 133.678 87.8193 133.252L86.9248 135.04ZM82.6753 128.551C82.8346 131.338 84.4315 133.834 86.9365 135.046L87.8076 133.246C85.9863 132.365 84.7919 130.534 84.6721 128.437L82.6753 128.551ZM89.6489 120.381C85.4781 120.782 82.4355 124.394 82.6754 128.551L84.672 128.436C84.4932 125.337 86.754 122.668 89.8403 122.372L89.6489 120.381ZM95.1565 119.823L89.6439 120.381L89.8454 122.371L95.358 121.813L95.1565 119.823ZM95.774 119.385C95.7017 119.602 95.5044 119.788 95.1578 119.823L95.3568 121.813C96.4058 121.708 97.3249 121.057 97.6713 120.018L95.774 119.385ZM96.8915 116.78C96.4394 117.609 96.0682 118.503 95.774 119.385L97.6713 120.018C97.9354 119.226 98.262 118.444 98.6473 117.738L96.8915 116.78ZM98.276 114.383C97.7734 115.101 97.2366 115.938 96.8463 116.875L98.6924 117.644C99 116.906 99.4401 116.207 99.9144 115.53L98.276 114.383ZM98.2472 113.672C98.4084 113.93 98.367 114.255 98.2815 114.375L99.9089 115.538C100.521 114.68 100.48 113.471 99.9432 112.612L98.2472 113.672ZM95.3778 108.913L98.2388 113.658L99.9516 112.626L97.0906 107.881L95.3778 108.913ZM97.7773 98.4208C94.2611 100.738 93.216 105.31 95.3767 108.911L97.0917 107.883C95.4843 105.203 96.2534 101.821 98.8779 100.091L97.7773 98.4208ZM105.555 97.9484C103.051 96.6559 100.085 96.909 97.7796 98.4193L98.8756 100.092C100.618 98.9509 102.816 98.7853 104.638 99.7257L105.555 97.9484ZM108.361 100.361C107.63 99.3056 106.659 98.5004 105.544 97.9426L104.649 99.7315C105.487 100.151 106.191 100.741 106.716 101.5L108.361 100.361ZM111.565 104.889L108.355 100.353L106.722 101.508L109.932 106.044L111.565 104.889ZM111.824 105.13C111.723 105.079 111.638 104.998 111.581 104.912L109.916 106.021C110.138 106.353 110.472 106.69 110.929 106.919L111.824 105.13ZM112.227 105.183C112.139 105.201 111.998 105.196 111.748 105.096L111.005 106.953C111.453 107.132 112.01 107.267 112.619 107.145L112.227 105.183ZM117.806 104.888C115.959 104.74 114.061 104.889 112.265 105.177L112.581 107.151C114.275 106.88 116.005 106.75 117.647 106.882L117.806 104.888ZM118.457 104.492C118.276 104.819 118.009 104.91 117.837 104.891L117.616 106.879C118.7 106.999 119.69 106.392 120.206 105.463L118.457 104.492ZM121.179 99.6064L118.458 104.491L120.205 105.464L122.927 100.58L121.179 99.6064ZM131.494 96.4037C127.742 94.5675 123.259 95.9276 121.182 99.601L122.924 100.585C124.476 97.8388 127.808 96.8264 130.615 98.2001L131.494 96.4037ZM135.104 106.581C136.869 102.73 135.252 98.3225 131.509 96.4113L130.6 98.1925C133.417 99.6308 134.591 102.899 133.286 105.747L135.104 106.581ZM132.801 111.605L135.104 106.581L133.286 105.747L130.983 110.772L132.801 111.605ZM132.861 112.352C132.728 112.196 132.661 111.921 132.806 111.594L130.978 110.782C130.565 111.712 130.638 112.832 131.342 113.653L132.861 112.352ZM135.934 116.967C135.126 115.277 134.096 113.732 132.847 112.336L131.356 113.669C132.479 114.925 133.403 116.311 134.13 117.83L135.934 116.967ZM136.171 117.238C136.149 117.229 136.083 117.207 135.89 116.884L134.175 117.913C134.4 118.288 134.753 118.825 135.428 119.095L136.171 117.238ZM136.637 117.376C136.531 117.376 136.404 117.35 136.247 117.272L135.353 119.061C135.754 119.261 136.185 119.376 136.637 119.376V117.376ZM142.207 117.306L136.625 117.376L136.65 119.376L142.232 119.306L142.207 117.306ZM145.807 118.109C144.706 117.559 143.413 117.224 142.153 117.308L142.286 119.304C143.12 119.248 144.059 119.472 144.912 119.898L145.807 118.109ZM149.988 124.626C149.907 121.893 148.305 119.318 145.795 118.103L144.924 119.904C146.741 120.783 147.93 122.674 147.989 124.685L149.988 124.626ZM143.013 132.769C147.184 132.368 150.226 128.756 149.987 124.598L147.99 124.713C148.169 127.813 145.908 130.481 142.822 130.778L143.013 132.769ZM137.505 133.327L143.018 132.768L142.817 130.779L137.304 131.337L137.505 133.327ZM110.34 133.999C111.113 135.157 112.543 135.995 114.117 135.861L113.948 133.868C113.185 133.933 112.422 133.516 112.005 132.89L110.34 133.999ZM107.131 129.185L110.34 133.999L112.005 132.89L108.795 128.075L107.131 129.185ZM106.866 125.017C106.186 126.378 106.327 127.979 107.131 129.185L108.795 128.075C108.376 127.447 108.306 126.609 108.655 125.912L106.866 125.017ZM109.448 119.854L106.866 125.017L108.655 125.912L111.237 120.748L109.448 119.854ZM112.87 117.57C111.509 117.694 110.148 118.454 109.448 119.854L111.237 120.748C111.585 120.052 112.282 119.632 113.051 119.562L112.87 117.57ZM112.886 117.569L112.87 117.57L113.051 119.562L113.066 119.561L112.886 117.569ZM122.461 119.081C121.689 117.922 120.259 117.085 118.685 117.219L118.854 119.212C119.616 119.147 120.379 119.564 120.797 120.19L122.461 119.081ZM125.722 123.976L125.71 123.955L123.995 124.984L124.007 125.005L125.722 123.976ZM125.911 128.11C126.664 126.726 126.414 125.13 125.722 123.976L124.007 125.005C124.424 125.7 124.493 126.531 124.154 127.155L125.911 128.11ZM123.353 133.226L125.927 128.08L124.138 127.185L121.565 132.332L123.353 133.226ZM119.931 135.51C121.292 135.386 122.654 134.625 123.353 133.226L121.565 132.332C121.216 133.028 120.519 133.448 119.75 133.518L119.931 135.51ZM119.916 135.511L119.931 135.51L119.75 133.518L119.735 133.519L119.916 135.511ZM113.111 120.56L118.903 120.211L118.783 118.215L112.991 118.564L113.111 120.56ZM112.131 121.195C112.305 120.848 112.672 120.601 113.142 120.558L112.961 118.566C111.896 118.663 110.867 119.253 110.343 120.301L112.131 121.195ZM109.55 126.359L112.131 121.195L110.343 120.301L107.761 125.465L109.55 126.359ZM109.627 127.52C109.401 127.181 109.366 126.726 109.55 126.359L107.761 125.465C107.246 126.494 107.351 127.713 107.963 128.63L109.627 127.52ZM112.837 132.335L109.627 127.52L107.963 128.63L111.173 133.445L112.837 132.335ZM113.868 132.871C113.507 132.904 113.076 132.695 112.837 132.335L111.173 133.445C111.77 134.341 112.874 134.97 114.049 134.863L113.868 132.871ZM119.69 132.52L113.898 132.869L114.019 134.865L119.81 134.516L119.69 132.52ZM120.67 131.885C120.496 132.232 120.13 132.479 119.66 132.522L119.841 134.514C120.906 134.417 121.935 133.827 122.459 132.779L120.67 131.885ZM123.252 126.721L120.67 131.885L122.459 132.779L125.041 127.615L123.252 126.721ZM123.149 125.519C123.428 125.984 123.41 126.435 123.272 126.682L125.021 127.654C125.581 126.645 125.423 125.421 124.864 124.49L123.149 125.519ZM119.965 120.745L123.175 125.559L124.839 124.45L121.629 119.635L119.965 120.745ZM118.934 120.209C119.294 120.176 119.725 120.385 119.965 120.745L121.629 119.635C121.031 118.739 119.927 118.11 118.753 118.217L118.934 120.209ZM136.65 120.376L142.272 120.305L142.247 118.305L136.625 118.376L136.65 120.376ZM105.9 102.077L109.109 106.612L110.741 105.456L107.533 100.922L105.9 102.077ZM96.0821 132.774L90.4601 132.844L90.4851 134.844L96.1071 134.774L96.0821 132.774ZM111.596 147.177L108.862 152.083L110.609 153.057L113.343 148.15L111.596 147.177ZM126.762 151.072L123.553 146.538L121.921 147.694L125.129 152.228L126.762 151.072ZM142.721 129.783L137.204 130.342L137.406 132.332L142.922 131.773L142.721 129.783ZM114.092 135.862L119.886 135.513L119.765 133.517L113.972 133.866L114.092 135.862ZM118.709 117.217L112.916 117.566L113.036 119.563L118.83 119.214L118.709 117.217ZM125.684 123.915L122.461 119.081L120.797 120.19L124.02 125.025L125.684 123.915ZM89.9411 123.367L92.6993 123.087L92.4978 121.097L89.7396 121.377L89.9411 123.367ZM92.6993 123.087L95.4575 122.808L95.256 120.818L92.4978 121.097L92.6993 123.087Z" fill="white" mask="url(#path-1-inside-1)"/>
<path d="M49.4689 60.4458L49.471 60.4486L49.4767 60.4572L49.4747 60.4543L49.4747 60.4543L49.4689 60.4458ZM48.3001 55.4808L48.3001 55.4808C48.2909 55.5452 48.2807 55.6164 48.2667 55.6943C48.2809 55.6148 48.2913 55.5421 48.3007 55.4765L48.3001 55.4808ZM48.2316 55.8643C48.2337 55.8557 48.2356 55.8472 48.2375 55.8387L48.2315 55.8656C48.2316 55.8652 48.2316 55.8648 48.2316 55.8643ZM48.5655 58.6414L48.5679 58.6509L48.5708 58.6624C48.5698 58.6585 48.5689 58.6546 48.5679 58.6507C48.5671 58.6476 48.5663 58.6445 48.5655 58.6414ZM48.4636 54.6303C48.4435 54.7239 48.4247 54.8195 48.4058 54.9159C48.4037 54.9262 48.4017 54.9366 48.3997 54.9469C48.389 55.0009 48.3782 55.0562 48.3667 55.1136C48.3767 55.0634 48.3867 55.0121 48.3966 54.9613L48.3967 54.9607C48.4187 54.8475 48.4405 54.7369 48.4636 54.6303ZM51.5341 62.5053C51.6144 62.5587 51.6918 62.6099 51.7713 62.6598C51.6889 62.6081 51.6087 62.555 51.5253 62.4995L51.5341 62.5053Z" fill="white" stroke="white"/>
<mask id="path-4-inside-2" fill="white">
<path fill-rule="evenodd" clip-rule="evenodd" d="M76.8354 103.792L76.0678 94.5109C75.9282 92.3477 76.9052 90.324 78.6497 89.068C80.464 87.8119 82.1387 86.3465 83.6739 84.8114C85.4882 83.4855 87.6514 82.7877 89.7448 83.346L98.7465 85.579C101.747 86.3465 104.887 84.6718 105.934 81.741L110.47 69.041C111.516 66.1102 110.19 62.8305 107.329 61.5047L98.9558 57.5272C97.002 56.62 95.7459 54.736 95.5366 52.5728C95.3272 50.3398 94.9085 48.1766 94.3503 46.0832C93.792 43.9897 94.2805 41.7568 95.8157 40.2216L102.235 33.5227C104.399 31.2897 104.538 27.7309 102.515 25.3583L93.792 15.1006C92.8151 13.9143 91.4893 13.2863 90.0937 13.077H89.9541C88.4887 12.8676 87.0233 13.2165 85.7673 14.1237L78.1612 19.2176C76.4167 20.4737 74.1139 20.683 72.1601 19.8457C71.1134 19.3572 70.0667 18.9385 69.02 18.5896C67.9732 18.2407 66.8568 17.8918 65.8101 17.6127C63.7166 17.0545 62.1117 15.3797 61.5534 13.3561L58.9018 4.42417C58.0644 1.42361 55.0638 -0.460468 51.9935 0.0977764L38.7352 2.5401C35.6649 3.09834 33.5017 5.88956 33.7808 9.02969L34.5484 18.3105C34.6879 20.4737 33.711 22.4973 31.9665 23.7534C30.222 25.0094 28.4775 26.4748 26.9423 28.01C25.4071 29.5452 23.2439 30.1732 21.1505 29.6847L12.1488 27.4518C9.07846 26.6842 5.93834 28.3589 4.89163 31.2897L0.355895 43.9897C-0.690813 46.9205 0.635017 50.2002 3.49602 51.526L11.8697 55.5035C13.8235 56.4107 15.0796 58.2948 15.2889 60.458C15.4983 62.6909 15.917 64.8541 16.4752 66.9475C17.0334 69.041 16.545 71.2739 15.0098 72.8091L8.59 79.508C6.4268 81.741 6.28724 85.2998 8.31088 87.6724L17.0334 97.9301C18.0104 99.1164 19.3362 99.7444 20.7318 99.9537H20.8714C22.3368 100.163 23.8022 99.8142 25.0582 98.907L32.5945 93.6735C34.339 92.4174 36.6418 92.2081 38.5956 93.0455C39.6423 93.5339 40.6891 93.9526 41.7358 94.3015C42.6728 94.6763 43.6658 94.9393 44.6146 95.1906C44.7256 95.22 44.836 95.2492 44.9457 95.2785C47.0391 95.8367 48.644 97.5114 49.2023 99.5351L51.7144 108.397C52.5517 111.398 55.5523 113.282 58.6227 112.724L71.881 110.281C74.9513 109.723 77.1145 106.932 76.8354 103.792ZM58.4438 111.74L71.7021 109.297C74.2693 108.831 76.0722 106.5 75.8393 103.88L75.8388 103.874L75.0704 94.5843L75.0699 94.5752C74.9078 92.0629 76.0458 89.7105 78.0654 88.2564L78.0729 88.251L78.0805 88.2458C79.8336 87.0321 81.4625 85.6085 82.9668 84.1043L83.0214 84.0496L83.0838 84.004C85.048 82.5686 87.5165 81.7204 89.9936 82.3774L98.9943 84.6101C101.492 85.249 104.118 83.8519 104.992 81.4047L109.528 68.7046C110.404 66.2517 109.292 63.5163 106.909 62.412L106.9 62.408L98.5347 58.4342C98.5335 58.4336 98.5323 58.4331 98.531 58.4325C96.2349 57.3648 94.7821 55.1581 94.5412 52.6691L94.5409 52.6661C94.3375 50.4968 93.9302 48.3889 93.3841 46.3408C92.7452 43.9449 93.2923 41.3368 95.1007 39.5224L101.517 32.8269C103.327 30.9589 103.438 27.9821 101.754 26.0073L93.0251 15.7424L93.0201 15.7363C92.242 14.7914 91.1832 14.2662 90.0163 14.077H89.883L89.8127 14.0669C88.6041 13.8942 87.3992 14.1786 86.3528 14.9343L86.3384 14.9447L78.7312 20.0394C76.6927 21.4993 74.0243 21.7326 71.7662 20.7648L71.7516 20.7586L71.7372 20.7519C70.7236 20.2788 69.7124 19.8745 68.7037 19.5383C67.6677 19.193 66.5722 18.8509 65.5524 18.5789C63.1042 17.9261 61.243 15.978 60.5921 13.6316L57.9408 4.70089L57.9386 4.69297C57.2399 2.18952 54.7344 0.616412 52.1735 1.08145C52.1731 1.08151 52.1727 1.08158 52.1724 1.08165L38.9141 3.52397C36.3469 3.99073 34.544 6.32155 34.7769 8.94115L34.7774 8.94726L35.5457 18.2371L35.5463 18.2461C35.7084 20.7585 34.5703 23.1108 32.5508 24.5649C30.8467 25.7918 29.1438 27.2227 27.6494 28.7171C25.8738 30.4927 23.3588 31.2269 20.9233 30.6586L20.9097 30.6554L11.9063 28.4219C9.32815 27.7774 6.70473 29.1862 5.83337 31.626L1.29764 44.3261C0.421602 46.779 1.53335 49.5144 3.91648 50.6187L3.9251 50.6227L12.2908 54.5965C12.2922 54.5972 12.2936 54.5978 12.295 54.5985C14.5908 55.6663 16.0434 57.8728 16.2843 60.3616L16.2846 60.3646C16.4879 62.5339 16.8953 64.6418 17.4414 66.6899C18.0803 69.0858 17.5332 71.694 15.7248 73.5083L9.30825 80.2038C7.49866 82.0718 7.38732 85.0486 9.07171 87.0234L17.8004 97.2883L17.8054 97.2944C18.5835 98.2393 19.6423 98.7645 20.8093 98.9537H20.9424L21.0128 98.9638C22.2214 99.1365 23.4263 98.8521 24.4727 98.0964L24.4802 98.0909L32.0177 92.8566C34.0571 91.3923 36.7289 91.1575 38.9896 92.1263L39.0041 92.1326L39.0185 92.1393C40.0321 92.6123 41.0433 93.0166 42.052 93.3528L42.0799 93.3621L42.1072 93.373C42.9841 93.7238 43.9164 93.9709 44.8735 94.2246C44.9831 94.2537 45.0931 94.2828 45.2033 94.3122C47.6536 94.9656 49.516 96.9166 50.1653 99.2657C50.1656 99.2669 50.166 99.268 50.1663 99.2691L52.6776 108.128C53.3763 110.632 55.8825 112.205 58.4438 111.74ZM62.3754 36.9761L62.3811 36.9781C73.1499 40.8608 78.8031 52.7323 74.9156 63.4473C71.0986 74.2304 59.2197 79.7945 48.4501 75.9848C37.6643 72.1695 32.0982 60.2888 35.9084 49.5178C39.7238 38.732 51.6044 33.1659 62.3754 36.9761ZM73.9744 63.1096C70.3458 73.3674 59.0413 78.6707 48.7836 75.0421C38.5259 71.4135 33.2225 60.1091 36.8511 49.8513C40.4797 39.5936 51.7842 34.2902 62.0419 37.9188C72.2996 41.6172 77.6727 52.9217 73.9744 63.1096Z"/>
</mask>
<path fill-rule="evenodd" clip-rule="evenodd" d="M76.8354 103.792L76.0678 94.5109C75.9282 92.3477 76.9052 90.324 78.6497 89.068C80.464 87.8119 82.1387 86.3465 83.6739 84.8114C85.4882 83.4855 87.6514 82.7877 89.7448 83.346L98.7465 85.579C101.747 86.3465 104.887 84.6718 105.934 81.741L110.47 69.041C111.516 66.1102 110.19 62.8305 107.329 61.5047L98.9558 57.5272C97.002 56.62 95.7459 54.736 95.5366 52.5728C95.3272 50.3398 94.9085 48.1766 94.3503 46.0832C93.792 43.9897 94.2805 41.7568 95.8157 40.2216L102.235 33.5227C104.399 31.2897 104.538 27.7309 102.515 25.3583L93.792 15.1006C92.8151 13.9143 91.4893 13.2863 90.0937 13.077H89.9541C88.4887 12.8676 87.0233 13.2165 85.7673 14.1237L78.1612 19.2176C76.4167 20.4737 74.1139 20.683 72.1601 19.8457C71.1134 19.3572 70.0667 18.9385 69.02 18.5896C67.9732 18.2407 66.8568 17.8918 65.8101 17.6127C63.7166 17.0545 62.1117 15.3797 61.5534 13.3561L58.9018 4.42417C58.0644 1.42361 55.0638 -0.460468 51.9935 0.0977764L38.7352 2.5401C35.6649 3.09834 33.5017 5.88956 33.7808 9.02969L34.5484 18.3105C34.6879 20.4737 33.711 22.4973 31.9665 23.7534C30.222 25.0094 28.4775 26.4748 26.9423 28.01C25.4071 29.5452 23.2439 30.1732 21.1505 29.6847L12.1488 27.4518C9.07846 26.6842 5.93834 28.3589 4.89163 31.2897L0.355895 43.9897C-0.690813 46.9205 0.635017 50.2002 3.49602 51.526L11.8697 55.5035C13.8235 56.4107 15.0796 58.2948 15.2889 60.458C15.4983 62.6909 15.917 64.8541 16.4752 66.9475C17.0334 69.041 16.545 71.2739 15.0098 72.8091L8.59 79.508C6.4268 81.741 6.28724 85.2998 8.31088 87.6724L17.0334 97.9301C18.0104 99.1164 19.3362 99.7444 20.7318 99.9537H20.8714C22.3368 100.163 23.8022 99.8142 25.0582 98.907L32.5945 93.6735C34.339 92.4174 36.6418 92.2081 38.5956 93.0455C39.6423 93.5339 40.6891 93.9526 41.7358 94.3015C42.6728 94.6763 43.6658 94.9393 44.6146 95.1906C44.7256 95.22 44.836 95.2492 44.9457 95.2785C47.0391 95.8367 48.644 97.5114 49.2023 99.5351L51.7144 108.397C52.5517 111.398 55.5523 113.282 58.6227 112.724L71.881 110.281C74.9513 109.723 77.1145 106.932 76.8354 103.792ZM58.4438 111.74L71.7021 109.297C74.2693 108.831 76.0722 106.5 75.8393 103.88L75.8388 103.874L75.0704 94.5843L75.0699 94.5752C74.9078 92.0629 76.0458 89.7105 78.0654 88.2564L78.0729 88.251L78.0805 88.2458C79.8336 87.0321 81.4625 85.6085 82.9668 84.1043L83.0214 84.0496L83.0838 84.004C85.048 82.5686 87.5165 81.7204 89.9936 82.3774L98.9943 84.6101C101.492 85.249 104.118 83.8519 104.992 81.4047L109.528 68.7046C110.404 66.2517 109.292 63.5163 106.909 62.412L106.9 62.408L98.5347 58.4342C98.5335 58.4336 98.5323 58.4331 98.531 58.4325C96.2349 57.3648 94.7821 55.1581 94.5412 52.6691L94.5409 52.6661C94.3375 50.4968 93.9302 48.3889 93.3841 46.3408C92.7452 43.9449 93.2923 41.3368 95.1007 39.5224L101.517 32.8269C103.327 30.9589 103.438 27.9821 101.754 26.0073L93.0251 15.7424L93.0201 15.7363C92.242 14.7914 91.1832 14.2662 90.0163 14.077H89.883L89.8127 14.0669C88.6041 13.8942 87.3992 14.1786 86.3528 14.9343L86.3384 14.9447L78.7312 20.0394C76.6927 21.4993 74.0243 21.7326 71.7662 20.7648L71.7516 20.7586L71.7372 20.7519C70.7236 20.2788 69.7124 19.8745 68.7037 19.5383C67.6677 19.193 66.5722 18.8509 65.5524 18.5789C63.1042 17.9261 61.243 15.978 60.5921 13.6316L57.9408 4.70089L57.9386 4.69297C57.2399 2.18952 54.7344 0.616412 52.1735 1.08145C52.1731 1.08151 52.1727 1.08158 52.1724 1.08165L38.9141 3.52397C36.3469 3.99073 34.544 6.32155 34.7769 8.94115L34.7774 8.94726L35.5457 18.2371L35.5463 18.2461C35.7084 20.7585 34.5703 23.1108 32.5508 24.5649C30.8467 25.7918 29.1438 27.2227 27.6494 28.7171C25.8738 30.4927 23.3588 31.2269 20.9233 30.6586L20.9097 30.6554L11.9063 28.4219C9.32815 27.7774 6.70473 29.1862 5.83337 31.626L1.29764 44.3261C0.421602 46.779 1.53335 49.5144 3.91648 50.6187L3.9251 50.6227L12.2908 54.5965C12.2922 54.5972 12.2936 54.5978 12.295 54.5985C14.5908 55.6663 16.0434 57.8728 16.2843 60.3616L16.2846 60.3646C16.4879 62.5339 16.8953 64.6418 17.4414 66.6899C18.0803 69.0858 17.5332 71.694 15.7248 73.5083L9.30825 80.2038C7.49866 82.0718 7.38732 85.0486 9.07171 87.0234L17.8004 97.2883L17.8054 97.2944C18.5835 98.2393 19.6423 98.7645 20.8093 98.9537H20.9424L21.0128 98.9638C22.2214 99.1365 23.4263 98.8521 24.4727 98.0964L24.4802 98.0909L32.0177 92.8566C34.0571 91.3923 36.7289 91.1575 38.9896 92.1263L39.0041 92.1326L39.0185 92.1393C40.0321 92.6123 41.0433 93.0166 42.052 93.3528L42.0799 93.3621L42.1072 93.373C42.9841 93.7238 43.9164 93.9709 44.8735 94.2246C44.9831 94.2537 45.0931 94.2828 45.2033 94.3122C47.6536 94.9656 49.516 96.9166 50.1653 99.2657C50.1656 99.2669 50.166 99.268 50.1663 99.2691L52.6776 108.128C53.3763 110.632 55.8825 112.205 58.4438 111.74ZM62.3754 36.9761L62.3811 36.9781C73.1499 40.8608 78.8031 52.7323 74.9156 63.4473C71.0986 74.2304 59.2197 79.7945 48.4501 75.9848C37.6643 72.1695 32.0982 60.2888 35.9084 49.5178C39.7238 38.732 51.6044 33.1659 62.3754 36.9761ZM73.9744 63.1096C70.3458 73.3674 59.0413 78.6707 48.7836 75.0421C38.5259 71.4135 33.2225 60.1091 36.8511 49.8513C40.4797 39.5936 51.7842 34.2902 62.0419 37.9188C72.2996 41.6172 77.6727 52.9217 73.9744 63.1096Z" fill="white" stroke="white" stroke-width="2" mask="url(#path-4-inside-2)"/>
<mask id="path-5-inside-3" fill="white">
<path fill-rule="evenodd" clip-rule="evenodd" d="M61.7998 58.7922L61.7998 58.7922C63.0732 55.2751 61.2639 51.4029 57.6292 50.1792C57.1635 50.0468 56.6661 49.9247 56.2513 49.8652C53.147 49.4404 50.0516 51.207 48.9594 54.3017L48.9525 54.3211L48.9449 54.3403C48.8627 54.5456 48.8143 54.792 48.7511 55.1132C48.7405 55.1671 48.7295 55.2232 48.7178 55.2815L48.7132 55.3048L48.7074 55.3279C48.6883 55.4042 48.6724 55.4663 48.6591 55.518C48.6104 55.7081 48.5977 55.7576 48.5977 55.8529V55.8983L48.5936 55.9435C48.5351 56.5865 48.5912 57.2469 48.7132 57.8663C48.7416 57.9783 48.7705 58.0796 48.8034 58.195L48.8048 58.1998C48.8339 58.3017 48.8663 58.4151 48.8993 58.5426C49.1615 59.1937 49.4059 59.7282 49.7556 60.2527C49.7902 60.3046 49.841 60.3672 49.936 60.4812C49.9397 60.4856 49.9434 60.4901 49.9473 60.4948C50.0206 60.5827 50.1258 60.7089 50.2202 60.8456C50.6282 61.3644 51.0965 61.7752 51.6414 62.1385C51.7119 62.1855 51.8022 62.2376 51.9318 62.3117L51.9444 62.3189C52.033 62.3695 52.1429 62.4323 52.2506 62.4999C52.4299 62.5764 52.6002 62.6616 52.7405 62.7318L52.7551 62.7391C52.9163 62.8197 53.0422 62.8821 53.1586 62.9312C53.6152 63.0602 54.0996 63.1781 54.5051 63.2363C57.6095 63.6611 60.7048 61.8945 61.7971 58.7998L61.7998 58.7922ZM54.3664 64.2266C57.9252 64.7151 61.484 62.6914 62.7401 59.1326C64.2055 55.0854 62.112 50.6194 57.9252 49.2238C57.4367 49.0842 56.8785 48.9447 56.39 48.8749C52.8312 48.3864 49.2724 50.4101 48.0164 53.9689C47.8964 54.2689 47.8279 54.6206 47.7668 54.9351C47.7568 54.9863 47.747 55.0365 47.7373 55.0854C47.7253 55.1333 47.7133 55.1791 47.7017 55.2236C47.6456 55.4384 47.5977 55.6217 47.5977 55.8529C47.5279 56.6205 47.5977 57.3881 47.7373 58.0859C47.7721 58.2255 47.807 58.3476 47.8419 58.4697C47.8768 58.5918 47.9117 58.714 47.9466 58.8535C48.2257 59.5513 48.5048 60.1793 48.9235 60.8074C48.9933 60.912 49.0805 61.0167 49.1678 61.1214C49.255 61.2261 49.3422 61.3307 49.412 61.4354C49.9004 62.0634 50.4587 62.5519 51.0867 62.9706C51.1914 63.0403 51.3135 63.1101 51.4356 63.1799C51.5577 63.2497 51.6799 63.3195 51.7845 63.3892C51.959 63.459 52.1334 63.5463 52.3079 63.6335C52.4823 63.7207 52.6568 63.8079 52.8312 63.8777C53.3197 64.0173 53.8779 64.1568 54.3664 64.2266Z"/>
</mask>
<path fill-rule="evenodd" clip-rule="evenodd" d="M61.7998 58.7922L61.7998 58.7922C63.0732 55.2751 61.2639 51.4029 57.6292 50.1792C57.1635 50.0468 56.6661 49.9247 56.2513 49.8652C53.147 49.4404 50.0516 51.207 48.9594 54.3017L48.9525 54.3211L48.9449 54.3403C48.8627 54.5456 48.8143 54.792 48.7511 55.1132C48.7405 55.1671 48.7295 55.2232 48.7178 55.2815L48.7132 55.3048L48.7074 55.3279C48.6883 55.4042 48.6724 55.4663 48.6591 55.518C48.6104 55.7081 48.5977 55.7576 48.5977 55.8529V55.8983L48.5936 55.9435C48.5351 56.5865 48.5912 57.2469 48.7132 57.8663C48.7416 57.9783 48.7705 58.0796 48.8034 58.195L48.8048 58.1998C48.8339 58.3017 48.8663 58.4151 48.8993 58.5426C49.1615 59.1937 49.4059 59.7282 49.7556 60.2527C49.7902 60.3046 49.841 60.3672 49.936 60.4812C49.9397 60.4856 49.9434 60.4901 49.9473 60.4948C50.0206 60.5827 50.1258 60.7089 50.2202 60.8456C50.6282 61.3644 51.0965 61.7752 51.6414 62.1385C51.7119 62.1855 51.8022 62.2376 51.9318 62.3117L51.9444 62.3189C52.033 62.3695 52.1429 62.4323 52.2506 62.4999C52.4299 62.5764 52.6002 62.6616 52.7405 62.7318L52.7551 62.7391C52.9163 62.8197 53.0422 62.8821 53.1586 62.9312C53.6152 63.0602 54.0996 63.1781 54.5051 63.2363C57.6095 63.6611 60.7048 61.8945 61.7971 58.7998L61.7998 58.7922ZM54.3664 64.2266C57.9252 64.7151 61.484 62.6914 62.7401 59.1326C64.2055 55.0854 62.112 50.6194 57.9252 49.2238C57.4367 49.0842 56.8785 48.9447 56.39 48.8749C52.8312 48.3864 49.2724 50.4101 48.0164 53.9689C47.8964 54.2689 47.8279 54.6206 47.7668 54.9351C47.7568 54.9863 47.747 55.0365 47.7373 55.0854C47.7253 55.1333 47.7133 55.1791 47.7017 55.2236C47.6456 55.4384 47.5977 55.6217 47.5977 55.8529C47.5279 56.6205 47.5977 57.3881 47.7373 58.0859C47.7721 58.2255 47.807 58.3476 47.8419 58.4697C47.8768 58.5918 47.9117 58.714 47.9466 58.8535C48.2257 59.5513 48.5048 60.1793 48.9235 60.8074C48.9933 60.912 49.0805 61.0167 49.1678 61.1214C49.255 61.2261 49.3422 61.3307 49.412 61.4354C49.9004 62.0634 50.4587 62.5519 51.0867 62.9706C51.1914 63.0403 51.3135 63.1101 51.4356 63.1799C51.5577 63.2497 51.6799 63.3195 51.7845 63.3892C51.959 63.459 52.1334 63.5463 52.3079 63.6335C52.4823 63.7207 52.6568 63.8079 52.8312 63.8777C53.3197 64.0173 53.8779 64.1568 54.3664 64.2266Z" fill="white"/>
<path d="M61.7998 58.7922L61.4487 59.7285L62.3957 60.0837L62.7401 59.1326L61.7998 58.7922ZM61.7998 58.7922L62.1509 57.8558L61.1962 57.4978L60.8568 58.4593L61.7998 58.7922ZM57.6292 50.1792L57.9482 49.2315L57.9257 49.2239L57.9028 49.2174L57.6292 50.1792ZM56.2513 49.8652L56.3933 48.8753L56.3869 48.8745L56.2513 49.8652ZM48.9594 54.3017L48.0164 53.9689L48.0164 53.9689L48.9594 54.3017ZM48.9525 54.3211L49.881 54.6925L49.8886 54.6734L49.8955 54.6539L48.9525 54.3211ZM48.9449 54.3403L49.8733 54.7117L49.8733 54.7117L48.9449 54.3403ZM48.7511 55.1132L49.7323 55.3061L49.7323 55.3061L48.7511 55.1132ZM48.7178 55.2815L47.7373 55.0854L47.7373 55.0854L48.7178 55.2815ZM48.7132 55.3048L49.6833 55.5473L49.6891 55.5243L49.6937 55.5009L48.7132 55.3048ZM48.6591 55.518L49.6278 55.7664L49.6278 55.7664L48.6591 55.518ZM48.5977 55.8983L49.5936 55.9888L49.5977 55.9437V55.8983H48.5977ZM48.5936 55.9435L49.5895 56.034L49.5895 56.034L48.5936 55.9435ZM48.7132 57.8663L47.732 58.0596L47.7373 58.0861L47.7439 58.1124L48.7132 57.8663ZM48.8034 58.195L49.765 57.9203L49.765 57.9203L48.8034 58.195ZM48.8048 58.1998L47.8433 58.4745L47.8433 58.4745L48.8048 58.1998ZM48.8993 58.5426L47.9312 58.7932L47.9475 58.8559L47.9717 58.9161L48.8993 58.5426ZM49.7556 60.2527L50.5876 59.698L50.5876 59.698L49.7556 60.2527ZM49.936 60.4812L50.7042 59.841L50.7042 59.841L49.936 60.4812ZM49.9473 60.4948L50.7153 59.8543L50.7153 59.8543L49.9473 60.4948ZM50.2202 60.8456L49.3972 61.4136L49.4149 61.4393L49.4342 61.4637L50.2202 60.8456ZM51.6414 62.1385L52.1961 61.3065L52.1961 61.3065L51.6414 62.1385ZM51.9318 62.3117L51.4356 63.1799L51.4357 63.18L51.9318 62.3117ZM51.9444 62.3189L52.4405 61.4506L52.4405 61.4506L51.9444 62.3189ZM52.2506 62.4999L51.7187 63.3467L51.7856 63.3888L51.8583 63.4198L52.2506 62.4999ZM52.7405 62.7318L52.2932 63.6261L52.2932 63.6262L52.7405 62.7318ZM52.7551 62.7391L52.3078 63.6335L52.3079 63.6335L52.7551 62.7391ZM53.1586 62.9312L52.7702 63.8526L52.8272 63.8767L52.8867 63.8935L53.1586 62.9312ZM54.5051 63.2363L54.3632 64.2262L54.3696 64.227L54.5051 63.2363ZM61.7971 58.7998L60.8541 58.4669L60.8541 58.467L61.7971 58.7998ZM62.7401 59.1326L61.7998 58.7922L61.7971 58.7998L62.7401 59.1326ZM54.3664 64.2266L54.225 65.2166L54.2304 65.2173L54.3664 64.2266ZM57.9252 49.2238L58.2414 48.2751L58.2208 48.2682L58.1999 48.2623L57.9252 49.2238ZM56.39 48.8749L56.5315 47.8849L56.526 47.8842L56.39 48.8749ZM48.0164 53.9689L48.9449 54.3403L48.9525 54.3211L48.9594 54.3017L48.0164 53.9689ZM47.7668 54.9351L48.7484 55.126L48.7484 55.126L47.7668 54.9351ZM47.7373 55.0854L48.7074 55.3279L48.7132 55.3048L48.7178 55.2815L47.7373 55.0854ZM47.7017 55.2236L46.7341 54.9709L46.7341 54.9709L47.7017 55.2236ZM47.5977 55.8529L48.5936 55.9435L48.5977 55.8983V55.8529H47.5977ZM47.7373 58.0859L46.7567 58.282L46.7613 58.3054L46.7671 58.3285L47.7373 58.0859ZM47.8419 58.4697L46.8804 58.7444L46.8804 58.7444L47.8419 58.4697ZM47.9466 58.8535L46.9764 59.096L46.9929 59.1619L47.0181 59.2249L47.9466 58.8535ZM48.9235 60.8074L49.7556 60.2527L49.7556 60.2527L48.9235 60.8074ZM49.1678 61.1214L49.936 60.4812L49.936 60.4812L49.1678 61.1214ZM49.412 61.4354L48.5799 61.9901L48.6002 62.0205L48.6226 62.0493L49.412 61.4354ZM51.0867 62.9706L51.6414 62.1385L51.6414 62.1385L51.0867 62.9706ZM51.4356 63.1799L51.9318 62.3117L51.9318 62.3117L51.4356 63.1799ZM51.7845 63.3892L51.2298 64.2213L51.3165 64.2791L51.4131 64.3177L51.7845 63.3892ZM52.3079 63.6335L52.7551 62.739L52.7551 62.739L52.3079 63.6335ZM52.8312 63.8777L52.4598 64.8062L52.5073 64.8252L52.5565 64.8392L52.8312 63.8777ZM62.1509 57.8559L62.1509 57.8558L61.4486 59.7285L61.4487 59.7285L62.1509 57.8559ZM57.3101 51.127C60.4082 52.17 61.9437 55.4575 60.8595 58.4517L62.7401 59.1326C64.2028 55.0926 62.1196 50.6358 57.9482 49.2315L57.3101 51.127ZM56.1094 50.8551C56.4584 50.9051 56.9057 51.0131 57.3556 51.1411L57.9028 49.2174C57.4213 49.0804 56.8739 48.9443 56.3933 48.8754L56.1094 50.8551ZM49.9024 54.6345C50.8313 52.0024 53.4654 50.4933 56.1158 50.856L56.3869 48.8745C52.8286 48.3875 49.2719 50.4116 48.0164 53.9689L49.9024 54.6345ZM49.8955 54.6539L49.9024 54.6345L48.0164 53.9689L48.0095 53.9883L49.8955 54.6539ZM49.8733 54.7117L49.881 54.6925L48.024 53.9497L48.0164 53.9689L49.8733 54.7117ZM49.7323 55.3061C49.8015 54.9544 49.8334 54.8116 49.8733 54.7117L48.0164 53.9689C47.892 54.2797 47.827 54.6296 47.7699 54.9203L49.7323 55.3061ZM49.6984 55.4776C49.7104 55.4174 49.7218 55.3598 49.7323 55.3061L47.7699 54.9203C47.7593 54.9744 47.7485 55.0289 47.7373 55.0854L49.6984 55.4776ZM49.6937 55.5009L49.6984 55.4776L47.7373 55.0854L47.7326 55.1087L49.6937 55.5009ZM49.6775 55.5704L49.6833 55.5473L47.743 55.0623L47.7373 55.0854L49.6775 55.5704ZM49.6278 55.7664C49.6411 55.7146 49.6577 55.6499 49.6775 55.5704L47.7373 55.0854C47.719 55.1584 47.7037 55.218 47.6905 55.2696L49.6278 55.7664ZM49.5977 55.8529C49.5977 55.8521 49.5977 55.8629 49.5961 55.8796C49.5946 55.8965 49.5925 55.9082 49.592 55.9104C49.592 55.9107 49.5924 55.9084 49.5938 55.9023C49.5952 55.8961 49.5972 55.8874 49.6003 55.8749C49.6067 55.8486 49.6151 55.8158 49.6278 55.7664L47.6905 55.2696C47.6482 55.4345 47.5977 55.609 47.5977 55.8529H49.5977ZM49.5977 55.8983V55.8529H47.5977V55.8983H49.5977ZM49.5895 56.034L49.5936 55.9888L47.6018 55.8078L47.5977 55.8529L49.5895 56.034ZM49.6943 57.673C49.5863 57.1247 49.5415 56.562 49.5895 56.034L47.5977 55.8529C47.5288 56.611 47.596 57.369 47.732 58.0596L49.6943 57.673ZM49.765 57.9203C49.7316 57.8035 49.7067 57.7158 49.6824 57.6202L47.7439 58.1124C47.7765 58.2408 47.8093 58.3556 47.8419 58.4697L49.765 57.9203ZM49.7664 57.9251L49.765 57.9203L47.8419 58.4697L47.8433 58.4745L49.7664 57.9251ZM49.8674 58.292C49.8309 58.1509 49.7953 58.0263 49.7663 57.9251L47.8433 58.4745C47.8726 58.5771 47.9018 58.6793 47.9312 58.7932L49.8674 58.292ZM50.5876 59.698C50.2947 59.2586 50.0804 58.7985 49.827 58.1691L47.9717 58.9161C48.2425 59.5888 48.5171 60.1977 48.9235 60.8074L50.5876 59.698ZM50.7042 59.841C50.6567 59.784 50.627 59.748 50.6062 59.7218C50.5857 59.6959 50.5833 59.6915 50.5876 59.698L48.9235 60.8074C48.9938 60.9128 49.0825 61.0191 49.1678 61.1214L50.7042 59.841ZM50.7153 59.8543C50.7113 59.8496 50.7077 59.8452 50.7042 59.841L49.1677 61.1213C49.1716 61.126 49.1755 61.1307 49.1793 61.1353L50.7153 59.8543ZM51.0432 60.2775C50.9195 60.0983 50.7863 59.9395 50.7153 59.8543L49.1793 61.1353C49.2549 61.2259 49.3322 61.3194 49.3972 61.4136L51.0432 60.2775ZM52.1961 61.3065C51.7246 60.9921 51.339 60.6505 51.0063 60.2274L49.4342 61.4637C49.9175 62.0783 50.4684 62.5584 51.0867 62.9706L52.1961 61.3065ZM52.4279 61.4434C52.2898 61.3645 52.2322 61.3305 52.1961 61.3065L51.0867 62.9706C51.1917 63.0405 51.3145 63.1107 51.4356 63.1799L52.4279 61.4434ZM52.4405 61.4506L52.4278 61.4434L51.4357 63.18L51.4484 63.1872L52.4405 61.4506ZM52.7825 61.6531C52.6545 61.5727 52.527 61.5 52.4405 61.4506L51.4484 63.1872C51.539 63.239 51.6313 63.2918 51.7187 63.3467L52.7825 61.6531ZM53.1878 61.8374C53.0503 61.7686 52.8541 61.6702 52.643 61.5801L51.8583 63.4198C52.0056 63.4826 52.1501 63.5546 52.2932 63.6261L53.1878 61.8374ZM53.2023 61.8446L53.1878 61.8374L52.2932 63.6262L52.3078 63.6335L53.2023 61.8446ZM53.5471 62.0097C53.4658 61.9754 53.3695 61.9282 53.2023 61.8446L52.3079 63.6335C52.4631 63.7111 52.6186 63.7887 52.7702 63.8526L53.5471 62.0097ZM54.6471 62.2464C54.3062 62.1975 53.871 62.0933 53.4306 61.9688L52.8867 63.8935C53.3593 64.027 53.893 64.1587 54.3632 64.2262L54.6471 62.2464ZM60.8541 58.467C59.9251 61.0991 57.2911 62.6082 54.6407 62.2455L54.3696 64.227C57.9278 64.7139 61.4846 62.6899 62.7401 59.1326L60.8541 58.467ZM60.8568 58.4593L60.8541 58.4669L62.7401 59.1327L62.7427 59.125L60.8568 58.4593ZM61.7971 58.7998C60.7045 61.8954 57.6076 63.6621 54.5024 63.2359L54.2304 65.2173C58.2428 65.768 62.2635 63.4875 63.6831 59.4655L61.7971 58.7998ZM57.609 50.1725C61.2572 51.3886 63.0756 55.2685 61.7998 58.7922L63.6803 59.4731C65.3353 54.9022 62.9669 49.8503 58.2414 48.2751L57.609 50.1725ZM56.2486 49.8648C56.6703 49.9251 57.1777 50.0502 57.6505 50.1853L58.1999 48.2623C57.6958 48.1182 57.0867 47.9643 56.5315 47.8849L56.2486 49.8648ZM48.9594 54.3017C50.0519 51.2061 53.1488 49.4394 56.2541 49.8656L56.526 47.8842C52.5137 47.3335 48.4929 49.614 47.0734 53.6361L48.9594 54.3017ZM48.7484 55.126C48.8135 54.7911 48.8663 54.5365 48.9449 54.3403L47.0879 53.5975C46.9264 54.0013 46.8424 54.4501 46.7852 54.7441L48.7484 55.126ZM48.7178 55.2815C48.7282 55.2296 48.7385 55.1767 48.7484 55.126L46.7852 54.7441C46.7751 54.7958 46.7658 54.8434 46.7567 54.8892L48.7178 55.2815ZM48.6692 55.4763C48.6807 55.4325 48.6939 55.3817 48.7074 55.3279L46.7671 54.8428C46.7566 54.8848 46.7459 54.9257 46.7341 54.9709L48.6692 55.4763ZM48.5977 55.8529C48.5977 55.7666 48.611 55.6992 48.6692 55.4763L46.7341 54.9709C46.6801 55.1776 46.5977 55.4768 46.5977 55.8529H48.5977ZM48.7178 57.8898C48.5926 57.2636 48.5344 56.5947 48.5936 55.9435L46.6018 55.7624C46.5214 56.6464 46.6028 57.5126 46.7567 58.282L48.7178 57.8898ZM48.8034 58.195C48.7682 58.0717 48.7377 57.9646 48.7074 57.8434L46.7671 58.3285C46.8066 58.4863 46.8458 58.6235 46.8804 58.7444L48.8034 58.195ZM48.9167 58.611C48.8773 58.4531 48.838 58.316 48.8034 58.195L46.8804 58.7444C46.9156 58.8677 46.9461 58.9748 46.9764 59.096L48.9167 58.611ZM49.7556 60.2527C49.3951 59.712 49.1465 59.1607 48.8751 58.4821L47.0181 59.2249C47.3049 59.9419 47.6145 60.6466 48.0915 61.3621L49.7556 60.2527ZM49.936 60.4812C49.841 60.3672 49.7902 60.3046 49.7556 60.2527L48.0915 61.3621C48.1964 61.5194 48.3201 61.6662 48.3995 61.7616L49.936 60.4812ZM50.244 60.8807C50.1391 60.7233 50.0154 60.5765 49.936 60.4812L48.3995 61.7616C48.4945 61.8756 48.5453 61.9381 48.5799 61.9901L50.244 60.8807ZM51.6414 62.1385C51.0881 61.7696 50.6138 61.3517 50.2013 60.8214L48.6226 62.0493C49.1871 62.7751 49.8293 63.3341 50.532 63.8026L51.6414 62.1385ZM51.9318 62.3117C51.8022 62.2376 51.7119 62.1855 51.6414 62.1385L50.532 63.8026C50.6709 63.8952 50.8248 63.9826 50.9395 64.0481L51.9318 62.3117ZM52.3392 62.5572C52.2004 62.4646 52.0464 62.3772 51.9318 62.3117L50.9395 64.0481C51.0691 64.1222 51.1593 64.1743 51.2298 64.2213L52.3392 62.5572ZM52.7551 62.739C52.5879 62.6555 52.3758 62.5487 52.1559 62.4608L51.4131 64.3177C51.5422 64.3693 51.6789 64.437 51.8607 64.5279L52.7551 62.739ZM53.2026 62.9492C53.0736 62.8976 52.9368 62.8299 52.7551 62.739L51.8607 64.5279C52.0278 64.6115 52.24 64.7182 52.4598 64.8062L53.2026 62.9492ZM54.5078 63.2367C54.0862 63.1764 53.5787 63.0513 53.106 62.9162L52.5565 64.8392C53.0607 64.9833 53.6697 65.1372 54.225 65.2166L54.5078 63.2367Z" fill="white" mask="url(#path-5-inside-3)"/>
</g>
</svg>
