<svg width="165" height="56" viewBox="0 0 165 56" fill="none" xmlns="http://www.w3.org/2000/svg">
<path fill-rule="evenodd" clip-rule="evenodd" d="M63.9054 55.9998C62.0458 55.9998 60.2494 55.7357 58.5158 55.2078C56.7822 54.6798 55.4105 53.9793 54.4004 53.107L55.9501 49.6287C56.9372 50.4094 58.1487 51.0462 59.5834 51.54C61.0181 52.0339 62.459 52.2805 63.9054 52.2805C65.6963 52.2805 67.0335 51.9936 67.9175 51.4195C68.8016 50.8454 69.2434 50.0881 69.2434 49.1466C69.2434 48.4578 68.9965 47.8896 68.503 47.4418C68.0095 46.9941 67.3837 46.6439 66.6261 46.3915C65.8684 46.139 64.8353 45.8518 63.5266 45.5305C61.69 45.0942 60.2033 44.6582 59.0668 44.2218C57.9303 43.7855 56.9544 43.1026 56.1395 42.1727C55.3247 41.2429 54.917 39.9859 54.917 38.4017C54.917 37.0703 55.2786 35.8588 56.0018 34.7684C56.725 33.6781 57.8157 32.8113 59.2735 32.1683C60.7313 31.5254 62.5165 31.204 64.6287 31.204C66.0981 31.204 67.5446 31.3876 68.9679 31.7551C70.3913 32.1225 71.6197 32.6505 72.6529 33.3392L71.2409 36.8175C70.1846 36.1976 69.0826 35.7269 67.9348 35.4056C66.7869 35.0842 65.6732 34.9234 64.5942 34.9234C62.8262 34.9234 61.512 35.2217 60.651 35.8188C59.79 36.416 59.3596 37.2077 59.3596 38.1951C59.3596 38.8839 59.6065 39.4466 60.1 39.8826C60.5935 40.3186 61.2192 40.6633 61.9769 40.9157C62.7345 41.1682 63.7677 41.4554 65.0764 41.7767C66.8672 42.19 68.3367 42.6204 69.4845 43.0681C70.6324 43.5158 71.6139 44.1988 72.429 45.1172C73.2442 46.0357 73.6516 47.2755 73.6516 48.8366C73.6516 50.168 73.29 51.3734 72.5668 52.4527C71.8435 53.532 70.7474 54.3929 69.2779 55.0356C67.8084 55.6782 66.0176 55.9998 63.9054 55.9998ZM87.1318 37.0586C89.4506 37.0586 91.3106 37.736 92.7109 39.0905C94.1112 40.445 94.8116 42.4541 94.8116 45.1172V55.6555H90.5068V45.6683C90.5068 44.061 90.128 42.8501 89.3703 42.035C88.6127 41.2198 87.5337 40.8124 86.1331 40.8124C84.5489 40.8124 83.2978 41.289 82.3793 42.2416C81.4608 43.1942 81.0018 44.5662 81.0018 46.357V55.6555H76.6969V30.102H81.0018V39.4004C81.7136 38.6428 82.5915 38.0629 83.6363 37.6613C84.6812 37.2597 85.8462 37.0586 87.1318 37.0586ZM99.3034 37.2652H103.608V55.6555H99.3034V37.2652ZM101.473 34.2346C100.692 34.2346 100.038 33.9877 99.5101 33.4942C98.9821 33.0007 98.718 32.3863 98.718 31.6517C98.718 30.9172 98.9821 30.3028 99.5101 29.8093C100.038 29.3158 100.692 29.0688 101.473 29.0688C102.254 29.0688 102.908 29.3041 103.436 29.7748C103.964 30.2456 104.228 30.8366 104.228 31.5484C104.228 32.3061 103.97 32.9432 103.453 33.4598C102.937 33.9763 102.277 34.2346 101.473 34.2346ZM115.745 33.3392C113.932 33.3392 113.025 34.3263 113.025 36.301V37.403H118.087V40.8469H113.162V55.6555H108.858V40.8469H105.827V37.403H108.858V36.2321C108.858 34.2577 109.432 32.7021 110.58 31.5657C111.727 30.4292 113.346 29.8609 115.435 29.8609C117.089 29.8609 118.386 30.1939 119.327 30.8597L118.122 34.0969C117.387 33.5917 116.595 33.3392 115.745 33.3392ZM131.051 54.6567C130.546 55.07 129.932 55.38 129.208 55.5866C128.485 55.7932 127.722 55.8965 126.918 55.8965C124.898 55.8965 123.337 55.3686 122.235 54.3124C121.133 53.2561 120.582 51.7181 120.582 49.6976V40.8469H117.551V37.403H120.582V33.2015H124.886V37.403H129.811V40.8469H124.886V49.5943C124.886 50.4897 125.105 51.1726 125.541 51.6434C125.977 52.1141 126.608 52.3493 127.435 52.3493C128.399 52.3493 129.203 52.0969 129.846 51.5917L131.051 54.6567ZM150.282 46.5637C150.282 46.8619 150.259 47.2869 150.214 47.8379H135.784C136.036 49.1924 136.696 50.2658 137.764 51.0579C138.832 51.85 140.157 52.246 141.742 52.246C143.762 52.246 145.427 51.5803 146.735 50.2486L149.043 52.9004C148.216 53.8874 147.172 54.6337 145.909 55.1389C144.646 55.6441 143.223 55.8965 141.638 55.8965C139.618 55.8965 137.839 55.4946 136.3 54.6912C134.762 53.8877 133.574 52.7685 132.736 51.3334C131.898 49.8984 131.479 48.2739 131.479 46.4603C131.479 44.6695 131.886 43.0565 132.701 41.6217C133.517 40.187 134.647 39.0674 136.094 38.264C137.54 37.4605 139.17 37.0586 140.984 37.0586C142.775 37.0586 144.376 37.4547 145.788 38.2467C147.2 39.0388 148.302 40.1522 149.094 41.5873C149.886 43.0223 150.282 44.6809 150.282 46.5637ZM140.984 40.5025C139.606 40.5025 138.441 40.9099 137.488 41.725C136.536 42.5402 135.956 43.625 135.749 44.9795H146.184C146.001 43.6481 145.438 42.5688 144.497 41.7423C143.555 40.9157 142.384 40.5025 140.984 40.5025ZM157.529 39.9514C158.769 38.0229 160.95 37.0586 164.073 37.0586V41.1568C163.705 41.0879 163.372 41.0535 163.074 41.0535C161.398 41.0535 160.089 41.5415 159.148 42.5171C158.207 43.4928 157.736 44.8992 157.736 46.7359V55.6555H153.431V37.2652H157.529V39.9514Z" fill="#451D39"/>
<path fill-rule="evenodd" clip-rule="evenodd" d="M43.9713 14.4521L31.3643 27.9816V14.4521H43.9713Z" fill="url(#paint0_linear)"/>
<path d="M6.45704 27.0591C9.00435 27.0591 11.0694 24.9941 11.0694 22.4468C11.0694 19.8995 9.00435 17.8345 6.45704 17.8345C3.90973 17.8345 1.84473 19.8995 1.84473 22.4468C1.84473 24.9941 3.90973 27.0591 6.45704 27.0591Z" fill="url(#paint1_linear)"/>
<path fill-rule="evenodd" clip-rule="evenodd" d="M20.7563 55.9629C28.4832 55.9629 34.747 49.699 34.747 41.9722H6.76562C6.76562 49.699 13.0295 55.9629 20.7563 55.9629Z" fill="url(#paint2_linear)"/>
<path fill-rule="evenodd" clip-rule="evenodd" d="M0 0H12.9145V12.9145H0V0Z" fill="url(#paint3_linear)"/>
<path fill-rule="evenodd" clip-rule="evenodd" d="M16.6045 14.4521H25.2141V38.1287H16.6045V14.4521Z" fill="url(#paint4_linear)"/>
<defs>
<linearGradient id="paint0_linear" x1="0.0840404" y1="14.4521" x2="43.9713" y2="14.4521" gradientUnits="userSpaceOnUse">
<stop stop-color="#BD529E"/>
<stop offset="1" stop-color="#FB1C57"/>
</linearGradient>
<linearGradient id="paint1_linear" x1="0.0842062" y1="12.6736" x2="43.9828" y2="14.4666" gradientUnits="userSpaceOnUse">
<stop stop-color="#BD529E"/>
<stop offset="1" stop-color="#FB1C57"/>
</linearGradient>
<linearGradient id="paint2_linear" x1="0.108017" y1="12.8699" x2="43.403" y2="18.7629" gradientUnits="userSpaceOnUse">
<stop stop-color="#BD529E"/>
<stop offset="1" stop-color="#FB1C57"/>
</linearGradient>
<linearGradient id="paint3_linear" x1="-2.28023e-08" y1="12.9145" x2="43.9582" y2="14.4447" gradientUnits="userSpaceOnUse">
<stop stop-color="#BD529E"/>
<stop offset="1" stop-color="#FB1C57"/>
</linearGradient>
<linearGradient id="paint4_linear" x1="0.017307" y1="12.755" x2="43.4323" y2="12.9795" gradientUnits="userSpaceOnUse">
<stop stop-color="#BD529E"/>
<stop offset="1" stop-color="#FB1C57"/>
</linearGradient>
</defs>
</svg>
