<svg width="464" height="635" viewBox="0 0 464 635" fill="none" xmlns="http://www.w3.org/2000/svg">
<ellipse cx="238" cy="148.5" rx="227" ry="226.5" fill="url(#paint0_radial_6_2241)" fill-opacity="0.4"/>
<path d="M357.892 174.845C359.009 174.884 360.092 174.46 360.886 173.674C361.733 172.857 362.204 171.726 362.188 170.549C362.178 168.109 360.202 166.133 357.762 166.123C355.426 166.083 353.501 167.944 353.462 170.28C353.46 170.369 353.461 170.459 353.466 170.549C353.442 171.702 353.861 172.82 354.637 173.674C355.533 174.465 356.697 174.884 357.892 174.845Z" stroke="white" stroke-width="0.5" stroke-linecap="round" stroke-linejoin="round"/>
<path d="M367.135 171.72L369.869 173.803C370.043 173.977 370.043 174.237 369.869 174.585L367.396 178.881C367.306 179.15 367.014 179.296 366.745 179.206C366.698 179.191 366.655 179.169 366.614 179.141L363.49 177.969L361.537 179.141L361.016 182.526C360.909 182.804 360.66 183.003 360.365 183.047H355.418C354.984 182.96 354.767 182.787 354.767 182.526L354.246 179.141L352.163 177.969L349.039 179.141C348.805 179.303 348.484 179.245 348.323 179.011C348.295 178.971 348.273 178.927 348.257 178.881L345.784 174.585C345.61 174.237 345.654 173.977 345.914 173.803L348.518 171.72V169.247L345.914 167.164C345.654 166.99 345.61 166.73 345.784 166.383L348.257 162.086C348.425 161.828 348.749 161.719 349.039 161.826L352.163 162.998L354.246 161.826L354.767 158.571C354.767 158.224 354.984 158.05 355.418 158.05H360.365C360.685 158.028 360.968 158.255 361.016 158.571L361.537 161.826L363.49 162.998L366.614 161.826C366.904 161.719 367.228 161.827 367.396 162.086L369.869 166.383C370.043 166.73 370.043 166.99 369.869 167.164L367.135 169.247L367.265 170.549L367.135 171.72Z" stroke="white" stroke-width="0.5" stroke-linecap="round" stroke-linejoin="round"/>
<path d="M127.05 183.531H142.899C144.083 183.531 145.043 184.491 145.043 185.675V187.513C145.043 188.697 144.083 189.657 142.899 189.657H127.05C125.866 189.657 124.906 188.697 124.906 187.513V185.675C124.906 184.491 125.866 183.531 127.05 183.531Z" stroke="white" stroke-width="0.5" stroke-miterlimit="10"/>
<path d="M200.223 183.531H216.073C217.257 183.531 218.216 184.491 218.216 185.675V187.513C218.216 188.697 217.257 189.657 216.073 189.657H200.223C199.04 189.657 198.08 188.697 198.08 187.513V185.675C198.08 184.491 199.04 183.531 200.223 183.531Z" stroke="white" stroke-width="0.5" stroke-miterlimit="10"/>
<path d="M150.905 183.531H192.206C193.389 183.531 194.349 184.491 194.349 185.675V187.513C194.349 188.697 193.389 189.657 192.206 189.657H150.905C149.721 189.657 148.762 188.697 148.762 187.513V185.675C148.762 184.491 149.721 183.531 150.905 183.531Z" stroke="white" stroke-width="0.5" stroke-miterlimit="10"/>
<path d="M125.882 194.863H149.479C150.663 194.863 151.623 195.823 151.623 197.006V198.845C151.623 200.029 150.663 200.989 149.479 200.989H125.882C124.698 200.989 123.738 200.029 123.738 198.845V197.006C123.738 195.823 124.698 194.863 125.882 194.863Z" stroke="white" stroke-width="0.5" stroke-miterlimit="10"/>
<path d="M176.93 194.863H207.452C208.636 194.863 209.595 195.823 209.595 197.007V198.845C209.595 200.029 208.636 200.989 207.452 200.989H176.93C175.747 200.989 174.787 200.029 174.787 198.845V197.007C174.787 195.823 175.747 194.863 176.93 194.863Z" stroke="white" stroke-width="0.5" stroke-miterlimit="10"/>
<path d="M157.485 194.863H168.924C170.107 194.863 171.067 195.823 171.067 197.007V198.845C171.067 200.029 170.107 200.989 168.924 200.989H157.485C156.301 200.989 155.342 200.029 155.342 198.845V197.007C155.342 195.823 156.301 194.863 157.485 194.863Z" stroke="white" stroke-width="0.5" stroke-miterlimit="10"/>
<path d="M124.038 206.194H157.916C159.1 206.194 160.06 207.154 160.06 208.338V210.177C160.06 211.36 159.1 212.32 157.916 212.32H124.038C122.854 212.32 121.894 211.36 121.894 210.177V208.338C121.895 207.154 122.854 206.194 124.038 206.194Z" stroke="white" stroke-width="0.5" stroke-miterlimit="10"/>
<path d="M165.925 206.194H222.778C223.962 206.194 224.921 207.154 224.921 208.338V210.176C224.921 211.36 223.962 212.32 222.778 212.32H165.925C164.741 212.32 163.781 211.36 163.781 210.176V208.338C163.781 207.154 164.741 206.194 165.925 206.194Z" stroke="white" stroke-width="0.5" stroke-miterlimit="10"/>
<path d="M125.114 217.525H140.64C141.824 217.525 142.783 218.485 142.783 219.669V221.507C142.783 222.691 141.824 223.651 140.64 223.651H125.114C123.93 223.651 122.971 222.691 122.971 221.507V219.669C122.971 218.485 123.93 217.525 125.114 217.525Z" stroke="white" stroke-width="0.5" stroke-miterlimit="10"/>
<path d="M148.647 217.525H211.279C212.463 217.525 213.423 218.485 213.423 219.669V221.507C213.423 222.691 212.463 223.651 211.279 223.651H148.647C147.464 223.651 146.504 222.691 146.504 221.507V219.669C146.504 218.485 147.464 217.525 148.647 217.525Z" stroke="white" stroke-width="0.5" stroke-miterlimit="10"/>
<path d="M121.907 228.857H171.18C172.363 228.857 173.323 229.816 173.323 231V232.839C173.323 234.022 172.363 234.982 171.18 234.982H121.907C120.723 234.982 119.764 234.022 119.764 232.839V231C119.764 229.816 120.723 228.857 121.907 228.857Z" stroke="white" stroke-width="0.5" stroke-miterlimit="10"/>
<path d="M179.188 228.856H201.033C202.217 228.856 203.177 229.816 203.177 231V232.839C203.177 234.022 202.217 234.982 201.033 234.982H179.188C178.005 234.982 177.045 234.022 177.045 232.839V231C177.045 229.816 178.005 228.856 179.188 228.856Z" stroke="white" stroke-width="0.5" stroke-miterlimit="10"/>
<path d="M107.481 183.531H119.044C120.228 183.531 121.187 184.491 121.187 185.675V187.513C121.187 188.697 120.228 189.657 119.044 189.657H107.481C106.298 189.657 105.338 188.697 105.338 187.513V185.675C105.338 184.491 106.298 183.531 107.481 183.531Z" stroke="white" stroke-width="0.5" stroke-miterlimit="10"/>
<path d="M107.481 194.863H117.875C119.059 194.863 120.018 195.823 120.018 197.006V198.845C120.018 200.029 119.059 200.989 117.875 200.989H107.481C106.298 200.989 105.338 200.029 105.338 198.845V197.006C105.338 195.823 106.298 194.863 107.481 194.863Z" stroke="white" stroke-width="0.5" stroke-miterlimit="10"/>
<path d="M107.481 206.194H116.032C117.216 206.194 118.176 207.154 118.176 208.338V210.177C118.176 211.36 117.216 212.32 116.032 212.32H107.481C106.298 212.32 105.338 211.36 105.338 210.177V208.338C105.338 207.154 106.298 206.194 107.481 206.194Z" stroke="white" stroke-width="0.5" stroke-miterlimit="10"/>
<path d="M107.481 217.525H117.108C118.292 217.525 119.252 218.485 119.252 219.669V221.507C119.252 222.691 118.292 223.651 117.108 223.651H107.481C106.298 223.651 105.338 222.691 105.338 221.507V219.669C105.338 218.485 106.298 217.525 107.481 217.525Z" stroke="white" stroke-width="0.5" stroke-miterlimit="10"/>
<path d="M107.481 228.857H113.902C115.086 228.857 116.045 229.816 116.045 231V232.839C116.045 234.022 115.086 234.982 113.902 234.982H107.481C106.298 234.982 105.338 234.022 105.338 232.839V231C105.338 229.816 106.298 228.857 107.481 228.857Z" stroke="white" stroke-width="0.5" stroke-miterlimit="10"/>
<path d="M325.398 122.56L331.732 129.876L305.907 235.665L299.574 228.348L325.398 122.56Z" stroke="white" stroke-width="0.5" stroke-linejoin="round"/>
<path d="M299.575 228.348L305.907 235.664L238.092 235.513L231.76 228.196L299.575 228.348Z" stroke="white" stroke-width="0.5" stroke-linejoin="round"/>
<path d="M231.76 228.196L257.584 122.408L263.917 129.725L238.092 235.513L231.76 228.196Z" stroke="white" stroke-width="0.5" stroke-linejoin="round"/>
<path d="M257.584 122.407L325.399 122.559L331.732 129.875L263.918 129.724L257.584 122.407Z" stroke="white" stroke-width="0.5" stroke-linejoin="round"/>
<path d="M276.246 152.275H268.869C267.716 152.275 266.781 151.34 266.781 150.187C266.781 150.023 266.801 149.859 266.839 149.699L268.643 142.203C268.869 141.265 269.708 140.604 270.673 140.604H278.05C279.203 140.604 280.138 141.538 280.138 142.691C280.138 142.856 280.118 143.02 280.08 143.179L278.276 150.676C278.05 151.614 277.211 152.275 276.246 152.275Z" stroke="white" stroke-width="0.5" stroke-linejoin="round"/>
<path d="M292.162 152.275H284.785C283.632 152.275 282.697 151.34 282.697 150.187C282.697 150.023 282.717 149.859 282.755 149.699L284.559 142.203C284.785 141.265 285.624 140.604 286.589 140.604H293.966C295.119 140.604 296.053 141.538 296.053 142.691C296.053 142.856 296.034 143.02 295.996 143.179L294.192 150.676C293.966 151.614 293.127 152.275 292.162 152.275Z" stroke="white" stroke-width="0.5" stroke-linejoin="round"/>
<path d="M308.078 152.275H300.701C299.548 152.275 298.613 151.34 298.613 150.187C298.613 150.023 298.633 149.859 298.671 149.699L300.475 142.203C300.701 141.265 301.54 140.604 302.505 140.604H309.882C311.035 140.604 311.97 141.538 311.97 142.691C311.97 142.856 311.95 143.02 311.912 143.179L310.108 150.676C309.882 151.614 309.043 152.275 308.078 152.275Z" stroke="white" stroke-width="0.5" stroke-linejoin="round"/>
<path d="M261.402 213.964H254.025C252.872 213.964 251.938 213.03 251.938 211.877C251.938 211.712 251.957 211.548 251.995 211.388L253.799 203.892C254.025 202.954 254.864 202.293 255.829 202.293H263.206C264.359 202.293 265.294 203.228 265.294 204.381C265.294 204.545 265.274 204.709 265.236 204.869L263.432 212.365C263.206 213.303 262.367 213.964 261.402 213.964Z" stroke="white" stroke-width="0.5" stroke-linejoin="round"/>
<path d="M277.316 213.964H269.939C268.786 213.964 267.852 213.03 267.852 211.877C267.852 211.712 267.871 211.548 267.909 211.388L269.713 203.892C269.939 202.954 270.778 202.293 271.743 202.293H279.12C280.273 202.293 281.208 203.228 281.208 204.381C281.208 204.545 281.188 204.709 281.15 204.869L279.346 212.365C279.12 213.303 278.281 213.964 277.316 213.964Z" stroke="white" stroke-width="0.5" stroke-linejoin="round"/>
<path d="M288.428 167.794H281.05C279.897 167.794 278.963 166.859 278.963 165.706C278.963 165.541 278.982 165.377 279.021 165.218L280.825 157.721C281.05 156.783 281.89 156.122 282.854 156.122H290.232C291.385 156.122 292.319 157.057 292.319 158.21C292.319 158.374 292.3 158.538 292.261 158.698L290.457 166.194C290.232 167.132 289.392 167.794 288.428 167.794Z" stroke="white" stroke-width="0.5" stroke-linejoin="round"/>
<path d="M268.777 183.31H261.4C260.247 183.31 259.312 182.376 259.312 181.223C259.312 181.058 259.332 180.894 259.37 180.734L261.174 173.238C261.4 172.3 262.239 171.639 263.204 171.639H270.581C271.734 171.639 272.669 172.573 272.669 173.726C272.669 173.891 272.649 174.055 272.611 174.215L270.807 181.711C270.581 182.649 269.742 183.31 268.777 183.31Z" stroke="white" stroke-width="0.5" stroke-linejoin="round"/>
<path d="M284.693 183.31H277.316C276.163 183.31 275.229 182.376 275.229 181.223C275.229 181.058 275.248 180.894 275.286 180.734L277.09 173.238C277.316 172.3 278.155 171.639 279.12 171.639H286.497C287.65 171.639 288.585 172.573 288.585 173.726C288.585 173.891 288.565 174.055 288.527 174.215L286.723 181.711C286.497 182.649 285.658 183.31 284.693 183.31Z" stroke="white" stroke-width="0.5" stroke-linejoin="round"/>
<path d="M280.961 198.829H273.584C272.431 198.829 271.496 197.894 271.496 196.741C271.496 196.577 271.516 196.413 271.554 196.253L273.358 188.756C273.584 187.818 274.423 187.157 275.388 187.157H282.765C283.918 187.157 284.852 188.092 284.852 189.245C284.852 189.409 284.833 189.573 284.794 189.733L282.991 197.229C282.765 198.168 281.926 198.829 280.961 198.829Z" stroke="white" stroke-width="0.5" stroke-linejoin="round"/>
<path d="M296.875 198.829H289.498C288.345 198.829 287.41 197.894 287.41 196.741C287.41 196.577 287.43 196.413 287.468 196.253L289.272 188.756C289.498 187.818 290.337 187.157 291.302 187.157H298.679C299.832 187.157 300.766 188.092 300.766 189.245C300.766 189.409 300.747 189.573 300.708 189.733L298.904 197.229C298.679 198.168 297.84 198.829 296.875 198.829Z" stroke="white" stroke-width="0.5" stroke-linejoin="round"/>
<path d="M304.344 167.794H296.966C295.813 167.794 294.879 166.859 294.879 165.706C294.879 165.541 294.898 165.377 294.937 165.218L296.741 157.721C296.966 156.783 297.806 156.122 298.77 156.122H306.148C307.301 156.122 308.235 157.057 308.235 158.21C308.235 158.374 308.216 158.538 308.177 158.698L306.373 166.194C306.148 167.132 305.308 167.794 304.344 167.794Z" stroke="white" stroke-width="0.5" stroke-linejoin="round"/>
<path d="M240.298 170.851H123.621V77.9297H257.732V116.465" stroke="white" stroke-width="0.5" stroke-linejoin="round"/>
<path d="M183.598 110.733H160.32V162.325H183.598V110.733Z" stroke="white" stroke-width="0.5" stroke-miterlimit="10"/>
<path d="M203.285 86.4563H160.32V104.417H203.285V86.4563Z" stroke="white" stroke-width="0.5" stroke-miterlimit="10"/>
<path d="M242.576 86.4563H208.734V104.417H242.576V86.4563Z" stroke="white" stroke-width="0.5" stroke-miterlimit="10"/>
<path d="M213.086 110.733H189.809V162.325H213.086V110.733Z" stroke="white" stroke-width="0.5" stroke-miterlimit="10"/>
<path d="M242.577 110.733H219.299V162.325H242.577V110.733Z" stroke="white" stroke-width="0.5" stroke-miterlimit="10"/>
<path d="M145.408 77.9297V170.852" stroke="white" stroke-width="0.5" stroke-miterlimit="10"/>
<path d="M134.183 98.9026C137.038 98.9026 139.352 96.5883 139.352 93.7335C139.352 90.8787 137.038 88.5645 134.183 88.5645C131.328 88.5645 129.014 90.8787 129.014 93.7335C129.014 96.5883 131.328 98.9026 134.183 98.9026Z" stroke="white" stroke-width="0.5" stroke-miterlimit="10"/>
<path d="M167.833 123.057C169.26 123.057 170.417 121.9 170.417 120.472C170.417 119.045 169.26 117.888 167.833 117.888C166.405 117.888 165.248 119.045 165.248 120.472C165.248 121.9 166.405 123.057 167.833 123.057Z" stroke="white" stroke-width="0.5" stroke-miterlimit="10"/>
<path d="M167.833 133.762C169.26 133.762 170.417 132.605 170.417 131.177C170.417 129.75 169.26 128.593 167.833 128.593C166.405 128.593 165.248 129.75 165.248 131.177C165.248 132.605 166.405 133.762 167.833 133.762Z" stroke="white" stroke-width="0.5" stroke-miterlimit="10"/>
<path d="M167.833 144.467C169.26 144.467 170.417 143.31 170.417 141.882C170.417 140.455 169.26 139.298 167.833 139.298C166.405 139.298 165.248 140.455 165.248 141.882C165.248 143.31 166.405 144.467 167.833 144.467Z" stroke="white" stroke-width="0.5" stroke-miterlimit="10"/>
<path d="M167.833 155.172C169.26 155.172 170.417 154.015 170.417 152.587C170.417 151.16 169.26 150.003 167.833 150.003C166.405 150.003 165.248 151.16 165.248 152.587C165.248 154.015 166.405 155.172 167.833 155.172Z" stroke="white" stroke-width="0.5" stroke-miterlimit="10"/>
<path d="M136.411 106.552H129.426" stroke="white" stroke-width="0.5" stroke-miterlimit="10"/>
<path d="M140.205 114.378H129.426" stroke="white" stroke-width="0.5" stroke-miterlimit="10"/>
<path d="M138.586 122.205H129.426" stroke="white" stroke-width="0.5" stroke-miterlimit="10"/>
<path d="M136.411 130.031H129.426" stroke="white" stroke-width="0.5" stroke-miterlimit="10"/>
<path d="M136.411 137.653L129.426 137.653" stroke="white" stroke-width="0.5" stroke-miterlimit="10"/>
<path d="M140.205 145.48H129.426" stroke="white" stroke-width="0.5" stroke-miterlimit="10"/>
<path d="M138.586 153.307H129.426" stroke="white" stroke-width="0.5" stroke-miterlimit="10"/>
<path d="M136.411 161.133H129.426" stroke="white" stroke-width="0.5" stroke-miterlimit="10"/>
<path d="M160.318 96.8832L171.957 92.1455L183.597 97.69L188.207 95.4365L203.283 100.391" stroke="white" stroke-width="0.5" stroke-miterlimit="10"/>
<path d="M213.086 97.3066V104.292" stroke="white" stroke-width="0.5" stroke-miterlimit="10"/>
<path d="M220.912 93.5127V104.292" stroke="white" stroke-width="0.5" stroke-miterlimit="10"/>
<path d="M228.74 95.1318L228.74 104.292" stroke="white" stroke-width="0.5" stroke-miterlimit="10"/>
<path d="M236.566 97.3064V104.292" stroke="white" stroke-width="0.5" stroke-miterlimit="10"/>
<path d="M189.809 123.057H213.086" stroke="white" stroke-width="0.5" stroke-miterlimit="10"/>
<path d="M189.809 136.529H213.086" stroke="white" stroke-width="0.5" stroke-miterlimit="10"/>
<path d="M189.809 150.003H213.086" stroke="white" stroke-width="0.5" stroke-miterlimit="10"/>
<path d="M219.299 123.057H242.577" stroke="white" stroke-width="0.5" stroke-miterlimit="10"/>
<path d="M219.299 136.529H242.577" stroke="white" stroke-width="0.5" stroke-miterlimit="10"/>
<path d="M219.299 150.003H242.577" stroke="white" stroke-width="0.5" stroke-miterlimit="10"/>
<path d="M343.095 205.149C342.514 203.124 341.173 201.403 339.351 200.346C337.552 199.268 335.388 198.983 333.371 199.556C331.365 200.008 329.653 201.306 328.677 203.116C326.534 206.889 327.778 211.681 331.485 213.936C333.218 215.043 335.346 215.345 337.318 214.764C339.359 214.284 341.111 212.982 342.159 211.166C343.237 209.357 343.572 207.2 343.095 205.149Z" stroke="white" stroke-width="0.5" stroke-linecap="round" stroke-linejoin="round"/>
<path d="M324.216 187.73L329.086 191.46L331.095 190.783L333.327 190.359L335.768 184.732C336.002 184.261 336.558 184.049 337.046 184.244L345.75 186.511C346.303 186.716 346.642 187.274 346.568 187.86L345.779 193.839C346.967 194.715 348.024 195.754 348.921 196.925L354.851 196.323C355.407 196.236 355.946 196.553 356.141 197.081L358.418 205.854C358.504 206.409 358.187 206.949 357.66 207.143L352.185 209.501C351.92 210.949 351.503 212.365 350.94 213.725L354.538 218.567C354.892 218.993 354.849 219.622 354.44 219.996L347.975 226.356C347.632 226.753 347.031 226.797 346.635 226.453C346.617 226.438 346.6 226.422 346.583 226.406L341.751 222.821L339.596 223.537L337.511 223.922L335.032 229.403C334.826 229.964 334.213 230.261 333.645 230.075L325.05 227.624C324.512 227.491 324.132 227.013 324.123 226.46L325.059 220.442C323.849 219.593 322.787 218.55 321.917 217.356L315.84 217.997" stroke="white" stroke-width="0.5" stroke-linecap="round" stroke-linejoin="round"/>
<path d="M308.223 97.5693L350.392 123.775" stroke="white" stroke-width="0.5" stroke-miterlimit="10"/>
<path d="M284.838 104.937L304.471 97.1553" stroke="white" stroke-width="0.5" stroke-miterlimit="10"/>
<path d="M257.729 92.6631L281.087 104.713" stroke="white" stroke-width="0.5" stroke-miterlimit="10"/>
<path d="M308.224 94.6982H304.473V98.4493H308.224V94.6982Z" stroke="white" stroke-width="0.5" stroke-linecap="round" stroke-linejoin="round"/>
<path d="M284.837 103.607H281.086V107.359H284.837V103.607Z" stroke="white" stroke-width="0.5" stroke-linecap="round" stroke-linejoin="round"/>
<path d="M354.142 123.056H350.391V126.807H354.142V123.056Z" stroke="white" stroke-width="0.5" stroke-linecap="round" stroke-linejoin="round"/>
<path d="M201.793 63.8057L229.171 77.9294" stroke="white" stroke-width="0.5" stroke-miterlimit="10"/>
<path d="M201.792 60.9629H198.041V64.714H201.792V60.9629Z" stroke="white" stroke-width="0.5" stroke-linecap="round" stroke-linejoin="round"/>
<rect x="350.568" y="218" width="17.2264" height="17.2264" fill="#8AE3FF"/>
<rect x="341" y="230.441" width="17.2264" height="17.2264" fill="#8AE3FF"/>
<rect x="178.855" y="124.877" width="8.6132" height="8.6132" fill="#8AE3FF"/>
<rect x="329" y="81" width="15.3124" height="15.3124" fill="#8AE3FF"/>
<rect x="213" y="167" width="8.6132" height="8.6132" fill="#8AE3FF"/>
<rect x="202.781" y="144.018" width="2.87107" height="2.87107" fill="#8AE3FF"/>
<rect x="207" y="140" width="2.87107" height="2.87107" fill="#8AE3FF"/>
<rect x="109" y="138" width="2.87107" height="2.87107" fill="#8AE3FF"/>
<rect x="86" y="109" width="2.87107" height="2.87107" fill="#8AE3FF"/>
<rect x="93.3203" y="150.418" width="8.6132" height="8.6132" fill="#8AE3FF"/>
<rect x="99.8848" y="199.145" width="8.6132" height="8.6132" fill="#8AE3FF"/>
<rect x="98" y="189.798" width="2.87107" height="2.87107" fill="#8AE3FF"/>
<rect x="94" y="185" width="2.87107" height="2.87107" fill="#8AE3FF"/>
<rect x="70" y="241.698" width="8.6132" height="8.6132" fill="#8AE3FF"/>
<rect x="73.8281" y="235" width="8.6132" height="8.6132" fill="#8AE3FF"/>
<rect x="215" y="228" width="8.6132" height="8.6132" fill="#8AE3FF"/>
<rect x="208.602" y="221.202" width="8.6132" height="8.6132" fill="#8AE3FF"/>
<rect x="221" y="197" width="2.87107" height="2.87107" fill="#8AE3FF"/>
<rect x="234" y="246" width="2.87107" height="2.87107" fill="#8AE3FF"/>
<defs>
<radialGradient id="paint0_radial_6_2241" cx="0" cy="0" r="1" gradientUnits="userSpaceOnUse" gradientTransform="translate(238 148.5) rotate(90) scale(216.523 217.001)">
<stop stop-color="#00FFF0"/>
<stop offset="1" stop-color="#E1FBFF" stop-opacity="0"/>
</radialGradient>
</defs>
</svg>
