<svg width="464" height="635" viewBox="0 0 464 635" fill="none" xmlns="http://www.w3.org/2000/svg">
<ellipse cx="232" cy="150.5" rx="227" ry="226.5" fill="url(#paint0_radial_6_2435)" fill-opacity="0.4"/>
<path d="M333.144 196.854L335.541 196.854L335.541 199.252L333.144 199.252L333.144 196.854Z" stroke="white" stroke-width="0.5" stroke-miterlimit="10"/>
<path d="M298.785 209.495L268.273 209.495C266.239 209.495 264.641 211.093 264.641 213.127L264.641 240.515C264.641 242.549 263.043 244.148 261.009 244.148L248.005 244.148" stroke="white" stroke-width="0.5" stroke-miterlimit="10"/>
<path d="M298.784 208.332L301.182 208.332L301.182 210.729L298.784 210.729L298.784 208.332Z" stroke="white" stroke-width="0.5" stroke-miterlimit="10"/>
<path d="M245.681 242.985L248.078 242.985L248.078 245.383L245.681 245.383L245.681 242.985Z" stroke="white" stroke-width="0.5" stroke-miterlimit="10"/>
<path d="M264.712 221.411L330.748 221.411C332.783 221.411 334.381 219.813 334.381 217.779L334.381 199.254" stroke="white" stroke-width="0.5" stroke-miterlimit="10"/>
<path d="M320.068 77.8594L210.081 77.8594L210.081 187.847L260.352 187.847L279.313 200.778L274.301 187.847L320.068 187.847L320.068 77.8594Z" stroke="white" stroke-width="0.5" stroke-miterlimit="10"/>
<path d="M203.179 114.765L140.921 114.765L140.921 224.752L186.688 224.752L181.676 237.684L200.564 224.752L250.836 224.752L250.836 193.877" stroke="white" stroke-width="0.5" stroke-miterlimit="10"/>
<path d="M163.59 98.2031L113.681 98.2031" stroke="white" stroke-width="0.5" stroke-miterlimit="10"/>
<path d="M124.434 87.4512L124.434 140.556" stroke="white" stroke-width="0.5" stroke-miterlimit="10"/>
<path d="M203.326 132.926L152.836 132.926L152.836 170.485" stroke="white" stroke-width="0.5" stroke-miterlimit="10"/>
<path d="M203.326 147.382L152.836 147.382" stroke="white" stroke-width="0.5" stroke-miterlimit="10"/>
<path d="M203.326 161.839L152.836 161.839" stroke="white" stroke-width="0.5" stroke-miterlimit="10"/>
<path d="M167.945 132.924L167.945 164.889" stroke="white" stroke-width="0.5" stroke-miterlimit="10"/>
<path d="M183.201 132.924L183.201 164.889" stroke="white" stroke-width="0.5" stroke-miterlimit="10"/>
<path d="M198.387 132.924L198.387 164.889" stroke="white" stroke-width="0.5" stroke-miterlimit="10"/>
<path d="M163.586 213.712L228.605 213.712L228.605 194.024" stroke="white" stroke-width="0.5" stroke-miterlimit="10"/>
<path d="M170.56 199.254L228.605 199.254" stroke="white" stroke-width="0.5" stroke-miterlimit="10"/>
<path d="M170.56 184.798L203.324 184.798" stroke="white" stroke-width="0.5" stroke-miterlimit="10"/>
<path d="M213.496 213.712L213.496 194.024" stroke="white" stroke-width="0.5" stroke-miterlimit="10"/>
<path d="M198.238 213.711L198.238 181.746" stroke="white" stroke-width="0.5" stroke-miterlimit="10"/>
<path d="M183.055 213.711L183.055 181.746" stroke="white" stroke-width="0.5" stroke-miterlimit="10"/>
<path d="M239.213 95.658L287.959 95.658L287.959 108.517L239.213 108.517L239.213 95.658Z" stroke="white" stroke-width="0.5" stroke-miterlimit="10"/>
<path d="M282.438 138.154L309.1 138.154L309.1 145.201L282.438 145.201L282.438 138.154Z" stroke="white" stroke-width="0.5" stroke-miterlimit="10"/>
<path d="M221.051 134.596L268.926 134.596L268.926 146.438L221.051 146.438L221.051 134.596Z" stroke="white" stroke-width="0.5" stroke-miterlimit="10"/>
<path d="M298.057 159.295L309.1 159.295L309.1 168.303L298.057 168.303L298.057 159.295Z" stroke="white" stroke-width="0.5" stroke-miterlimit="10"/>
<path d="M282.438 159.295L293.481 159.295L293.481 168.303L282.438 168.303L282.438 159.295Z" stroke="white" stroke-width="0.5" stroke-miterlimit="10"/>
<path d="M249.384 159.295L268.926 159.295L268.926 168.303L249.384 168.303L249.384 159.295Z" stroke="white" stroke-width="0.5" stroke-miterlimit="10"/>
<path d="M221.124 159.295L240.666 159.295L240.666 168.303L221.124 168.303L221.124 159.295Z" stroke="white" stroke-width="0.5" stroke-miterlimit="10"/>
<path d="M263.622 108.515L263.622 126.313L303.578 126.313L303.578 138.155" stroke="white" stroke-width="0.5" stroke-miterlimit="10"/>
<path d="M263.623 119.993L242.628 119.993L242.628 134.595" stroke="white" stroke-width="0.5" stroke-miterlimit="10"/>
<path d="M259.192 146.439L259.192 159.298" stroke="white" stroke-width="0.5" stroke-miterlimit="10"/>
<path d="M295.733 145.204L295.733 154.139" stroke="white" stroke-width="0.5" stroke-miterlimit="10"/>
<path d="M230.859 146.439L230.859 159.298" stroke="white" stroke-width="0.5" stroke-miterlimit="10"/>
<path d="M303.578 159.297L303.578 154.139L287.959 154.139L287.959 159.297" stroke="white" stroke-width="0.5" stroke-miterlimit="10"/>
<path d="M235.436 69.2871L204.924 69.2871C202.89 69.2871 201.291 70.8853 201.291 72.9195L201.291 100.307C201.291 102.342 199.693 103.94 197.659 103.94L184.655 103.94" stroke="white" stroke-width="0.5" stroke-miterlimit="10"/>
<path d="M235.435 68.123L237.832 68.123L237.832 70.5204L235.435 70.5204L235.435 68.123Z" stroke="white" stroke-width="0.5" stroke-miterlimit="10"/>
<path d="M182.255 102.779L184.652 102.779L184.652 105.177L182.255 105.177L182.255 102.779Z" stroke="white" stroke-width="0.5" stroke-miterlimit="10"/>
<path d="M153.635 207.1L161.336 207.1C163.37 207.1 164.968 205.502 164.968 203.468L164.968 176.08C164.968 174.045 166.566 172.447 168.601 172.447L210.082 172.447" stroke="white" stroke-width="0.5" stroke-miterlimit="10"/>
<path d="M123.778 207.102L151.238 207.102" stroke="white" stroke-width="0.5" stroke-miterlimit="10"/>
<path d="M121.378 205.939L123.775 205.939L123.775 208.337L121.378 208.337L121.378 205.939Z" stroke="white" stroke-width="0.5" stroke-miterlimit="10"/>
<path d="M129.007 183.638L131.404 183.638L131.404 186.035L129.007 186.035L129.007 183.638Z" stroke="white" stroke-width="0.5" stroke-miterlimit="10"/>
<path d="M151.237 207.102L151.237 208.337L153.635 208.337L153.635 205.939L151.237 205.939L151.237 207.102Z" stroke="white" stroke-width="0.5" stroke-miterlimit="10"/>
<path d="M152.4 205.937L152.4 188.429C152.4 186.395 150.802 184.797 148.768 184.797L131.405 184.797" stroke="white" stroke-width="0.5" stroke-miterlimit="10"/>
<path d="M305.103 57.9531L305.103 88.4649C305.103 90.499 306.701 92.0973 308.735 92.0973L336.123 92.0973C338.157 92.0973 339.756 93.6955 339.756 95.7296L339.756 166.197" stroke="white" stroke-width="0.5" stroke-miterlimit="10"/>
<path d="M303.943 55.5576L306.34 55.5576L306.34 57.955L303.943 57.955L303.943 55.5576Z" stroke="white" stroke-width="0.5" stroke-miterlimit="10"/>
<path d="M338.522 166.198L340.92 166.198L340.92 168.595L338.522 168.595L338.522 166.198Z" stroke="white" stroke-width="0.5" stroke-miterlimit="10"/>
<path d="M347.603 149.636L350 149.636L350 152.033L347.603 152.033L347.603 149.636Z" stroke="white" stroke-width="0.5" stroke-miterlimit="10"/>
<path d="M339.755 119.997L345.131 119.997C347.165 119.997 348.764 121.595 348.764 123.629L348.764 149.637" stroke="white" stroke-width="0.5" stroke-miterlimit="10"/>
<rect x="205.568" y="127" width="17.2264" height="17.2264" fill="#8AE3FF"/>
<rect x="196" y="139.441" width="17.2264" height="17.2264" fill="#8AE3FF"/>
<rect x="223" y="103" width="8.6132" height="8.6132" fill="#8AE3FF"/>
<rect x="359" y="63" width="15.3124" height="15.3124" fill="#8AE3FF"/>
<rect x="264" y="132" width="8.6132" height="8.6132" fill="#8AE3FF"/>
<rect x="269" y="115" width="2.87107" height="2.87107" fill="#8AE3FF"/>
<rect x="172" y="86" width="2.87107" height="2.87107" fill="#8AE3FF"/>
<rect x="99" y="128" width="8.6132" height="8.6132" fill="#8AE3FF"/>
<rect x="159" y="183" width="8.6132" height="8.6132" fill="#8AE3FF"/>
<rect x="158" y="172" width="2.87107" height="2.87107" fill="#8AE3FF"/>
<rect x="120" y="158" width="2.87107" height="2.87107" fill="#8AE3FF"/>
<rect x="99" y="236.957" width="8.6132" height="8.6132" fill="#8AE3FF"/>
<rect x="102.828" y="230.259" width="8.6132" height="8.6132" fill="#8AE3FF"/>
<rect x="206" y="176" width="8.6132" height="8.6132" fill="#8AE3FF"/>
<rect x="235.73" y="199.141" width="8.6132" height="8.6132" fill="#8AE3FF"/>
<rect x="249" y="178" width="2.87107" height="2.87107" fill="#8AE3FF"/>
<rect x="251" y="176" width="2.87107" height="2.87107" fill="#8AE3FF"/>
<defs>
<radialGradient id="paint0_radial_6_2435" cx="0" cy="0" r="1" gradientUnits="userSpaceOnUse" gradientTransform="translate(232 150.5) rotate(90) scale(216.523 217.001)">
<stop stop-color="#00FFF0"/>
<stop offset="1" stop-color="#E1FBFF" stop-opacity="0"/>
</radialGradient>
</defs>
</svg>
