<?xml version="1.0" encoding="utf-8"?>
<!-- Generator: Adobe Illustrator 26.3.1, SVG Export Plug-In . SVG Version: 6.00 Build 0)  -->
<svg version="1.1" id="レイヤー_1" xmlns="http://www.w3.org/2000/svg" xmlns:xlink="http://www.w3.org/1999/xlink" x="0px"
	 y="0px" viewBox="0 0 794.6 201" style="enable-background:new 0 0 794.6 201;" xml:space="preserve">
<style type="text/css">
	.st0{fill:#FFFFFF;}
</style>
<path class="st0" d="M0.9,46h2.3l3-27.8l13.5,29l13.6-29L36.4,46h2.3l-3.9-35.7l-15.1,32l-14.9-32L0.9,46z M64,24.9v3.7
	c-2.2-2.8-4.8-4.1-8.3-4.1c-6.1,0-10.3,4.5-10.3,10.9c0,6.5,4.4,11.2,10.4,11.2c3.5,0,6.4-1.5,8.2-4.4V46h2.1V24.9H64z M55.8,26.3
	c2,0,4.1,0.8,5.7,2.2c1.8,1.6,2.6,3.7,2.6,6.7c0,5.5-3.5,9.4-8.3,9.4c-4.8,0-8.3-4-8.3-9.4C47.5,30.2,51.2,26.3,55.8,26.3z M79,34.9
	L70.4,46h2.7l7.3-9.5l7.2,9.5h2.7l-8.5-11.1l7.7-10h-2.7l-6.4,8.4l-6.5-8.4h-2.7L79,34.9z M96.5,24.9h-2.1V46h2.1V24.9z M95.5,16
	c-1,0-1.9,0.8-1.9,1.9c0,1.1,0.8,1.9,1.9,1.9c1,0,1.9-0.8,1.9-1.9C97.4,16.8,96.5,16,95.5,16z M103.9,24.9V46h2.1V33.8
	c0-1.9,0.3-3.5,0.9-4.7c0.8-1.7,2.6-2.7,4.5-2.7c1.7,0,3.1,0.8,3.9,2.3c0.6,0.9,0.8,2,0.8,3.8V46h2.1V33.3c0-4.5,1.9-6.9,5.3-6.9
	c1.5,0,2.8,0.6,3.6,1.6c0.7,1,0.9,1.8,0.9,4V46h2.1V32.2c0-2.8-0.3-4.2-1.3-5.4c-1.1-1.5-3.1-2.3-5.2-2.3c-2.9,0-4.8,1.2-6.2,3.8
	c-1.2-2.6-3.2-3.8-5.9-3.8c-2.4,0-4.1,0.9-5.4,3.1v-2.6H103.9z M139.6,24.9h-2.1V46h2.1V24.9z M138.5,16c-1,0-1.9,0.8-1.9,1.9
	c0,1.1,0.8,1.9,1.9,1.9c1,0,1.9-0.8,1.9-1.9C140.4,16.8,139.6,16,138.5,16z M148.7,44.1l17.1-19.2H147v1.9h14.5L144.2,46h21.5v-1.9
	H148.7z M188.3,35.7c-0.1-6.8-4.1-11.3-10.1-11.3c-5.9,0-10.3,4.7-10.3,11.1c0,6.4,4.4,11,10.4,11c4.1,0,7.2-1.9,9.4-5.7l-1.8-1
	c-0.9,1.5-1.4,2.2-2.1,2.8c-1.4,1.2-3.4,2-5.3,2c-2.9,0-5.7-1.7-7.1-4.2c-0.8-1.3-1.1-2.6-1.1-4.8H188.3z M170.3,33.7
	c0.6-4.3,3.9-7.4,7.8-7.4c3.9,0,7,3,7.8,7.4H170.3z M214,46.4l-5.2,12h2.3l14.2-33.5h-2.4l-7.9,18.7l-8.6-18.7H204L214,46.4z
	 M238.5,24.4c-6.1,0-11.1,4.9-11.1,10.9c0,6.3,4.8,11.3,11,11.3c6.3,0,11.1-4.8,11.1-11.1C249.6,29.3,244.7,24.4,238.5,24.4z
	 M238.4,26.3c5.1,0,9,4,9,9.2c0,5.2-3.9,9.2-9.1,9.2c-5,0-8.8-4.1-8.8-9.3C229.6,30.4,233.6,26.3,238.4,26.3z M257.6,24.9h-2.1v13.3
	c0,3,0.4,4.4,1.6,5.8c1.3,1.6,3.6,2.6,6.1,2.6c2.4,0,4.7-1,6-2.6c1.2-1.4,1.6-2.8,1.6-5.8V24.9h-2.1v12.6c0,2.4-0.2,3.7-0.7,4.7
	c-0.8,1.5-2.7,2.5-4.8,2.5c-2.1,0-4.1-1-4.9-2.5c-0.5-1-0.7-2.2-0.7-4.7V24.9z M278.1,24.9V46h2.1V34.7c0-4.2,0.2-5.4,1.1-6.6
	c0.8-1.1,2.1-1.8,3.2-1.8c0.5,0,0.8,0.1,1.5,0.5l1.1-1.8c-1-0.4-1.5-0.5-2.3-0.5c-2.1,0-3.5,1-4.7,3.2v-2.7H278.1z M321.4,27.1
	c-2.4-1.9-4.6-2.7-7.4-2.7c-6.2,0-10.9,4.8-10.9,11.2c0,6.2,4.7,10.9,10.9,10.9c2.8,0,5.2-0.9,7.7-3v-2.8c-2.3,2.6-4.8,3.8-7.7,3.8
	c-4.9,0-8.8-4-8.8-9.1c0-5.2,3.8-9.2,8.8-9.2c2.8,0,4.9,1,7.4,3.5V27.1z M328.9,8.2h-2.1V46h2.1V8.2z M346.1,24.4
	c-6.1,0-11.1,4.9-11.1,10.9c0,6.3,4.8,11.3,11,11.3c6.3,0,11.1-4.8,11.1-11.1C357.1,29.3,352.3,24.4,346.1,24.4z M345.9,26.3
	c5.1,0,9,4,9,9.2c0,5.2-3.9,9.2-9.1,9.2c-5,0-8.8-4.1-8.8-9.3C337.1,30.4,341.1,26.3,345.9,26.3z M365.1,24.9h-2.1v13.3
	c0,3,0.4,4.4,1.6,5.8c1.3,1.6,3.6,2.6,6.1,2.6c2.4,0,4.7-1,6-2.6c1.2-1.4,1.6-2.8,1.6-5.8V24.9h-2.1v12.6c0,2.4-0.2,3.7-0.7,4.7
	c-0.8,1.5-2.7,2.5-4.8,2.5c-2.1,0-4.1-1-4.9-2.5c-0.5-1-0.7-2.2-0.7-4.7V24.9z M402.9,8.2v20.3c-2.2-2.8-4.8-4.1-8.3-4.1
	c-6.1,0-10.3,4.5-10.3,10.9c0,6.5,4.4,11.2,10.4,11.2c3.5,0,6.4-1.5,8.2-4.4V46h2.1V8.2H402.9z M394.7,26.3c2,0,4.1,0.8,5.7,2.2
	c1.8,1.6,2.6,3.7,2.6,6.7c0,5.5-3.5,9.4-8.3,9.4c-4.8,0-8.3-4-8.3-9.4C386.4,30.2,390,26.3,394.7,26.3z M424.4,24.9H422l9.7,22.4
	l9.6-22.4H439L431.7,42L424.4,24.9z M462.2,24.9v3.7c-2.2-2.8-4.8-4.1-8.3-4.1c-6.1,0-10.3,4.5-10.3,10.9c0,6.5,4.4,11.2,10.4,11.2
	c3.5,0,6.4-1.5,8.2-4.4V46h2.1V24.9H462.2z M454,26.3c2,0,4.1,0.8,5.7,2.2c1.8,1.6,2.6,3.7,2.6,6.7c0,5.5-3.5,9.4-8.3,9.4
	c-4.8,0-8.3-4-8.3-9.4C445.7,30.2,449.4,26.3,454,26.3z M473.7,8.2h-2.1V46h2.1V8.2z M483.1,24.9h-2.1v13.3c0,3,0.4,4.4,1.6,5.8
	c1.3,1.6,3.6,2.6,6.1,2.6c2.4,0,4.7-1,6-2.6c1.2-1.4,1.6-2.8,1.6-5.8V24.9h-2.1v12.6c0,2.4-0.2,3.7-0.7,4.7
	c-0.8,1.5-2.7,2.5-4.8,2.5c-2.1,0-4.1-1-4.9-2.5c-0.5-1-0.7-2.2-0.7-4.7V24.9z M522.7,35.7c-0.1-6.8-4.1-11.3-10.1-11.3
	c-5.9,0-10.3,4.7-10.3,11.1c0,6.4,4.3,11,10.4,11c4.1,0,7.3-1.9,9.4-5.7l-1.8-1c-0.9,1.5-1.4,2.2-2.1,2.8c-1.4,1.2-3.4,2-5.3,2
	c-2.9,0-5.7-1.7-7.1-4.2c-0.8-1.3-1.1-2.6-1.1-4.8H522.7z M504.7,33.7c0.6-4.3,3.9-7.4,7.8-7.4c3.9,0,7,3,7.8,7.4H504.7z"/>
<path class="st0" d="M22,78.6v-2.3L0,85.7l18,7.2L0,100l22,9.6v-2.4L5.3,100l18-7.2l-18-7.2L22,78.6z M22,116v-2H1.3v2H22z
	 M30.8,115c0-1-0.8-1.8-1.8-1.8c-1.1,0-1.9,0.8-1.9,1.8c0,1,0.8,1.8,1.9,1.8C30,116.8,30.8,116,30.8,115z M20.1,125.5v3.7H22v-3.7
	h7.4v-2H22v-2.3h-1.9v2.3H1.3v2H20.1z M38.4,133.5H1.3v2h10.8c2.8,0,4.3,0.3,5.7,1.1c1.8,1,2.8,2.8,2.8,5c0,1.8-0.8,3.5-2,4.2
	c-0.9,0.6-2,0.8-4.2,0.8H1.3v2h13.1c2.5,0,4.1-0.3,5.2-1c1.8-1.1,2.9-3.4,2.9-5.8c0-2.8-1.1-4.7-3.7-6.4h19.6V133.5z"/>
<path class="st0" d="M105.8,76.4C99.3,69.3,92.2,66,83.3,66c-14.6,0-25.5,10.2-25.5,23.6c0,10.2,5.6,16.5,20.2,23
	c11.9,5.2,15.2,8.8,15.2,16.5c0,10.9-7.5,18.2-18.6,18.2c-9.6,0-15.9-4.4-20-14.2l-6.7,2.9c5.4,12.9,14,19,26.7,19
	c15.9,0,27.1-10.4,27.1-25c0-11.5-4.8-17.3-20-24.2C69.3,100,66.4,97.1,66.4,90c0-9.4,7.3-16.3,17.3-16.3c6.3,0,11.9,2.5,17.1,7.5
	L105.8,76.4z M130.7,109h69.7c-0.4-10.6-1.3-16.1-3.3-21.5c-5.6-14-17.9-22.3-33.2-22.3c-24,0-41.3,20.9-41.3,49.7
	c0,23.8,15.7,40.1,39,40.1c14,0,22.5-4.6,32.6-17.5l-5.6-4c-8.3,10-15.4,13.8-26.3,13.8c-18.6,0-31.5-13.4-31.5-32.3V109z
	 M131.9,101.5c2.1-8.3,4-12.3,7.7-17.1c6.1-7.3,14.8-11.5,24.2-11.5c9.8,0,18.6,4.8,23.8,12.9c2.5,4.2,3.8,7.9,4.6,15.7H131.9z
	 M239,68.7h-8.1l-10.2,83.5h8.1l5.6-44.7c1.7-13.8,5-21.9,11.7-27.8c4.2-3.8,8.8-5.6,13.1-5.6c2.7,0,4.8,0.6,9,2.5l4.4-7.1
	c-5.2-2.5-7.7-3.1-11.5-3.1c-8.3,0-13.6,3.3-23.6,14.6L239,68.7z M284.4,68.7l25.3,91.4l50.5-91.4h-9.6l-38.2,69.5L293,68.7H284.4z
	 M374.8,109h69.7c-0.4-10.6-1.3-16.1-3.3-21.5c-5.6-14-17.9-22.3-33.2-22.3c-24,0-41.3,20.9-41.3,49.7c0,23.8,15.7,40.1,39,40.1
	c14,0,22.5-4.6,32.6-17.5l-5.6-4c-8.3,10-15.4,13.8-26.3,13.8c-18.6,0-31.5-13.4-31.5-32.3V109z M376.1,101.5
	c2.1-8.3,4-12.3,7.7-17.1c6.1-7.3,14.8-11.5,24.2-11.5c9.8,0,18.6,4.8,23.8,12.9c2.5,4.2,3.8,7.9,4.6,15.7H376.1z M483.1,68.7H475
	l-10.2,83.5h8.1l5.6-44.7c1.7-13.8,5-21.9,11.7-27.8c4.2-3.8,8.8-5.6,13.1-5.6c2.7,0,4.8,0.6,9,2.5l4.4-7.1
	c-5.2-2.5-7.7-3.1-11.5-3.1c-8.3,0-13.6,3.3-23.6,14.6L483.1,68.7z M552.3,0.1h-8.1l-18.8,152.1h8.1L552.3,0.1z M572.1,109h69.7
	c-0.4-10.6-1.3-16.1-3.3-21.5c-5.6-14-17.9-22.3-33.2-22.3c-24,0-41.3,20.9-41.3,49.7c0,23.8,15.7,40.1,39,40.1
	c14,0,22.5-4.6,32.6-17.5l-5.6-4c-8.3,10-15.4,13.8-26.3,13.8c-18.6,0-31.5-13.4-31.5-32.3V109z M573.3,101.5
	c2.1-8.3,4-12.3,7.7-17.1c6.1-7.3,14.8-11.5,24.2-11.5c9.8,0,18.6,4.8,23.8,12.9c2.5,4.2,3.8,7.9,4.6,15.7H573.3z M714.5,76.4
	C708,69.3,700.9,66,691.9,66c-14.6,0-25.5,10.2-25.5,23.6c0,10.2,5.6,16.5,20.2,23c11.9,5.2,15.2,8.8,15.2,16.5
	c0,10.9-7.5,18.2-18.6,18.2c-9.6,0-15.9-4.4-20-14.2l-6.7,2.9c5.4,12.9,14,19,26.7,19c15.9,0,27.1-10.4,27.1-25
	c0-11.5-4.8-17.3-20-24.2C677.9,100,675,97.1,675,90c0-9.4,7.3-16.3,17.3-16.3c6.3,0,11.9,2.5,17.1,7.5L714.5,76.4z M786.1,76.4
	c-6.5-7.1-13.6-10.4-22.5-10.4c-14.6,0-25.5,10.2-25.5,23.6c0,10.2,5.6,16.5,20.2,23c11.9,5.2,15.2,8.8,15.2,16.5
	c0,10.9-7.5,18.2-18.6,18.2c-9.6,0-15.9-4.4-20-14.2l-6.7,2.9c5.4,12.9,14,19,26.7,19c15.9,0,27.1-10.4,27.1-25
	c0-11.5-4.8-17.3-20-24.2c-12.5-5.6-15.4-8.6-15.4-15.7c0-9.4,7.3-16.3,17.3-16.3c6.3,0,11.9,2.5,17.1,7.5L786.1,76.4z"/>
</svg>
