<svg width="1560" height="860" viewBox="0 0 1560 860" fill="none" xmlns="http://www.w3.org/2000/svg">
<rect width="108.437" height="108.437" transform="matrix(-1 0 0 1 1333.68 423.231)" fill="#8AE3FF" fill-opacity="0.1"/>
<rect width="108.437" height="108.437" transform="matrix(-1 0 0 1 1393.92 501.547)" fill="#8AE3FF" fill-opacity="0.1"/>
<rect width="54.2186" height="54.2186" transform="matrix(-1 0 0 1 1110.77 260.576)" fill="#8AE3FF" fill-opacity="0.1"/>
<rect width="96.3886" height="96.3886" transform="matrix(-1 0 0 1 352.312 477)" fill="#8AE3FF" fill-opacity="0.1"/>
<rect width="54.2186" height="54.2186" transform="matrix(-1 0 0 1 785.312 493)" fill="#8AE3FF" fill-opacity="0.1"/>
<rect width="18.0728" height="18.0729" transform="matrix(-1 0 0 1 1381.87 260.576)" fill="#8AE3FF" fill-opacity="0.1"/>
<rect width="54.2186" height="54.2186" transform="matrix(-1 0 0 1 1559.5 572.807)" fill="#8AE3FF" fill-opacity="0.1"/>
<rect width="54.2186" height="54.2186" transform="matrix(-1 0 0 1 933.312 805)" fill="#8AE3FF" fill-opacity="0.1"/>
<rect width="18.0729" height="18.0729" transform="matrix(-1 0 0 1 1068.61 784.689)" fill="#8AE3FF" fill-opacity="0.1"/>
</svg>
