<svg width="205" height="56" viewBox="0 0 205 56" fill="none" xmlns="http://www.w3.org/2000/svg">
<g clip-path="url(#clip0)">
<path d="M70.3741 27.4675C71.5074 28.053 72.7168 28.4774 73.9675 28.7284C75.5402 29.0953 77.15 29.2794 78.7649 29.2768C80.2586 29.28 81.7449 29.0677 83.1779 28.6464C84.4308 28.2865 85.6049 27.6941 86.6389 26.9002C87.584 26.1567 88.3562 25.2167 88.9021 24.1452C89.458 23.021 89.7389 21.7807 89.7216 20.5266C89.7419 18.9509 89.2311 17.4142 88.2716 16.1642C87.3092 14.9033 85.7016 13.9031 83.449 13.1634L79.036 11.7512C77.7837 11.4223 76.6136 10.8362 75.6002 10.0302C75.313 9.75099 75.0851 9.41668 74.9302 9.04728C74.7753 8.67789 74.6966 8.28102 74.6988 7.88047C74.6603 7.32623 74.7774 6.77227 75.037 6.28105C75.2965 5.78983 75.6881 5.38089 76.1676 5.10032C77.4483 4.4527 78.8765 4.15271 80.3095 4.23035C82.3704 4.1978 84.4145 4.60619 86.3047 5.42814C86.6762 5.63059 87.0826 5.76106 87.5025 5.8127C87.9753 5.8127 88.2086 5.47857 88.2086 4.82924V3.32885C88.2294 2.96427 88.1345 2.60244 87.9375 2.29497C87.685 1.97987 87.3721 1.71838 87.0171 1.52586C86.5954 1.30989 86.1569 1.12857 85.7059 0.983696C85.1574 0.800875 84.5711 0.636968 83.9344 0.491972C83.2683 0.340405 82.595 0.222576 81.917 0.138937C81.2211 0.0460932 80.5198 -0.00023982 79.8177 0.000245398C78.491 -0.00769401 77.1702 0.177055 75.8965 0.548709C74.7247 0.875283 73.6252 1.42074 72.6562 2.15627C71.7328 2.84695 70.9641 3.72306 70.3993 4.72838C69.8189 5.78793 69.5276 6.98157 69.5545 8.18937C69.556 9.82932 70.1039 11.422 71.1117 12.7158C72.1456 14.0985 73.8057 15.1492 76.092 15.8679L80.6184 17.2863C81.7785 17.5866 82.8559 18.1447 83.7705 18.9191C84.0482 19.212 84.2644 19.5576 84.4062 19.9355C84.548 20.3134 84.6127 20.7159 84.5963 21.1192C84.6156 21.7088 84.4767 22.2928 84.194 22.8105C83.9113 23.3282 83.4951 23.7608 82.9887 24.0633C81.599 24.8292 80.0214 25.1875 78.4371 25.0972C77.1919 25.0962 75.95 24.9695 74.7303 24.7189C73.5509 24.4782 72.401 24.1104 71.3008 23.622L70.5065 23.3005C70.3234 23.2302 70.129 23.1939 69.9328 23.1933C69.46 23.1933 69.2267 23.5148 69.2267 24.1705V25.7528C69.2134 26.1261 69.3167 26.4943 69.5223 26.8061C69.728 27.118 70.0257 27.358 70.3741 27.4928" fill="#222D3F"/>
<path d="M17.6956 12.3435C16.6038 12.1834 15.502 12.1013 14.3985 12.0977C11.2086 12.0977 8.66593 12.9067 6.77048 14.5248C5.84497 15.3088 5.10938 16.2926 4.61909 17.402C4.1288 18.5114 3.89657 19.7176 3.9399 20.9298C3.88685 22.033 4.06279 23.1352 4.45663 24.167C4.85048 25.1988 5.4537 26.1379 6.22832 26.9251C7.75393 28.4129 9.8259 29.1568 12.4442 29.1568C14.1973 29.1844 15.9335 28.8108 17.52 28.0645C19.1065 27.3183 20.5014 26.2191 21.5979 24.851C21.9257 25.5445 22.2283 26.1497 22.5498 26.6792C22.8595 27.2055 23.2344 27.6906 23.6657 28.1229C23.7826 28.2544 23.925 28.3608 24.0844 28.4355C24.2437 28.5103 24.4165 28.5519 24.5924 28.5579C24.8858 28.5476 25.1702 28.4535 25.4119 28.2868L27.3725 26.9818C27.5398 26.8857 27.6815 26.7507 27.7857 26.5883C27.89 26.426 27.9536 26.2409 27.9714 26.0488C27.9596 25.7993 27.8859 25.5567 27.7571 25.3427C27.3562 24.6298 27.0187 23.883 26.7484 23.1111C26.482 22.2094 26.3628 21.2706 26.3954 20.3309V10.1938C26.3954 6.77695 25.5254 4.22376 23.8044 2.53424C22.0833 0.844718 19.3914 0.0125668 15.6594 0.0125668C14.0227 0.00255137 12.3914 0.201694 10.8051 0.605158C9.45351 0.944263 8.13973 1.41951 6.88395 2.0236C6.54454 2.15863 6.2436 2.37514 6.00767 2.65402C5.83678 2.99075 5.76259 3.36827 5.79333 3.74464V5.26394C5.79333 5.89436 6.00767 6.2537 6.42375 6.2537C6.59042 6.24262 6.75535 6.21302 6.91547 6.16544C7.28819 6.05721 7.65267 5.92238 8.00609 5.76197C9.10227 5.33167 10.2298 4.98603 11.3788 4.72809C12.4749 4.46175 13.5984 4.32423 14.7263 4.31832C17.1282 4.31832 18.8178 4.80374 19.7697 5.76197C20.7216 6.72021 21.2449 8.38451 21.2449 10.7486V13.037C20.0092 12.747 18.8178 12.52 17.6704 12.3561L17.6956 12.3435ZM21.2449 17.8345C21.2619 18.7432 21.1602 19.6503 20.9423 20.5327C20.7458 21.2688 20.3836 21.9502 19.8832 22.5248C19.0962 23.4371 18.0798 24.1227 16.9391 24.5106C15.9062 24.8773 14.8199 25.0711 13.724 25.0843C13.132 25.1234 12.538 25.045 11.9765 24.8535C11.4149 24.662 10.8968 24.3612 10.4521 23.9684C10.0478 23.5253 9.7381 23.0043 9.54191 22.4374C9.34572 21.8706 9.26717 21.2696 9.31106 20.6714C9.27172 19.9945 9.38889 19.3176 9.65347 18.6933C9.91805 18.0691 10.3229 17.5141 10.8367 17.0717C11.8495 16.2311 13.392 15.8108 15.4639 15.8108C16.4401 15.8119 17.4152 15.8772 18.3828 16.0063C19.345 16.1265 20.3004 16.2969 21.2449 16.5169V17.8345Z" fill="#222D3F"/>
<path d="M36.911 26.9253C36.9963 27.3861 37.2156 27.8115 37.5414 28.1484C37.8955 28.3805 38.3173 28.487 38.7392 28.4509H41.4059C41.8514 28.4912 42.2972 28.3753 42.6667 28.1231C42.9989 27.7758 43.2186 27.3364 43.2971 26.8623L48.0946 6.80871L52.9425 26.8623C53.0184 27.3373 53.2385 27.7775 53.5729 28.1231C53.9423 28.3758 54.3882 28.4917 54.8338 28.4509H57.5004C57.9242 28.4855 58.3475 28.3791 58.7045 28.1484C59.0304 27.8115 59.2496 27.3861 59.335 26.9253L66.8243 2.83708C66.9378 2.51557 67.0071 2.2571 67.0513 2.08058C67.0931 1.91515 67.1205 1.74641 67.1332 1.57624C67.1479 1.47264 67.1384 1.36702 67.1053 1.26776C67.0721 1.16849 67.0164 1.07829 66.9424 1.00429C66.8684 0.930291 66.7782 0.874525 66.6789 0.841401C66.5796 0.808277 66.474 0.798705 66.3704 0.81344H63.4831C63.0519 0.773724 62.6196 0.87791 62.2538 1.10974C61.9393 1.45701 61.7219 1.88101 61.6234 2.33905L56.227 23.2122L51.3223 2.33905C51.2571 1.87645 51.0475 1.44625 50.7234 1.10974C50.3456 0.878914 49.9037 0.775085 49.4626 0.81344H46.9409C46.4997 0.774185 46.0576 0.87808 45.6801 1.10974C45.3423 1.44038 45.1211 1.8718 45.0497 2.33905L40.1955 22.9411L34.9819 2.34536C34.8863 1.88629 34.6685 1.46157 34.3515 1.11604C33.9765 0.878227 33.5323 0.773835 33.0907 0.819743H30.0962C29.9913 0.800802 29.8834 0.806985 29.7814 0.837787C29.6793 0.868588 29.586 0.92313 29.5092 0.996944C29.4323 1.07076 29.374 1.16174 29.339 1.26243C29.3041 1.36313 29.2935 1.47067 29.3082 1.57624C29.3514 2.00529 29.4423 2.42819 29.5792 2.83708L36.911 26.9253Z" fill="#222D3F"/>
<path d="M83.164 42.0175C71.9704 46.7319 59.956 49.1892 47.8102 49.2484C31.5545 49.261 15.5783 45.0208 1.46822 36.9489C0.30825 36.3185 -0.542814 37.4659 0.41542 38.3359C13.1172 49.7828 29.6337 56.0774 46.7322 55.9875C59.536 55.9875 74.4012 51.9655 84.6518 44.4005C86.3476 43.1396 84.8977 41.2484 83.164 42.0049" fill="#F49D00"/>
<path d="M76.6899 37.7495C75.7884 38.3799 75.946 39.2625 76.9484 39.1427C80.2517 38.7456 87.6087 37.8819 88.9263 39.5399C90.2439 41.1979 87.4637 48.1388 86.2281 51.2278C85.8561 52.1672 86.6631 52.5454 87.4889 51.8583C92.9862 47.2562 94.4235 37.6171 93.2825 36.2239C92.1414 34.8307 82.5654 33.6581 76.6773 37.7747" fill="#F49D00"/>
<path d="M117.938 21.9955C117.887 22.0029 117.836 21.9984 117.787 21.9823C117.739 21.9662 117.695 21.939 117.659 21.9029C117.622 21.8668 117.595 21.8227 117.579 21.7742C117.563 21.7257 117.559 21.6741 117.566 21.6235V4.81027C117.559 4.75947 117.563 4.70771 117.579 4.65899C117.596 4.61027 117.623 4.56591 117.659 4.52933C117.695 4.49276 117.738 4.46496 117.787 4.44808C117.835 4.4312 117.887 4.4257 117.938 4.43201H118.404C118.458 4.42353 118.513 4.4271 118.565 4.44245C118.617 4.4578 118.665 4.48456 118.705 4.52078C118.746 4.557 118.778 4.60177 118.799 4.65184C118.82 4.70192 118.829 4.75603 118.827 4.81027L118.928 5.82524C119.596 5.26951 120.344 4.8169 121.147 4.48245C121.856 4.2177 122.609 4.08729 123.366 4.09789C124.086 4.06924 124.804 4.20936 125.46 4.50707C126.117 4.80479 126.695 5.25187 127.148 5.81263C128.136 7.18175 128.624 8.84878 128.529 10.5345C128.618 12.274 128.103 13.9908 127.073 15.395C126.603 15.9832 126.002 16.4528 125.317 16.766C124.633 17.0791 123.885 17.2271 123.133 17.198C121.582 17.1858 120.095 16.584 118.972 15.5148V21.6235C118.979 21.6741 118.975 21.7257 118.959 21.7742C118.943 21.8227 118.915 21.8668 118.879 21.9029C118.843 21.939 118.799 21.9662 118.751 21.9823C118.702 21.9984 118.65 22.0029 118.6 21.9955H117.938ZM122.981 15.8804C123.56 15.9196 124.14 15.8192 124.672 15.5877C125.204 15.3563 125.673 15.0005 126.039 14.5502C126.724 13.6676 127.068 12.3522 127.073 10.6038C127.073 7.09868 125.742 5.34822 123.082 5.35243C121.572 5.40446 120.124 5.96417 118.972 6.94108V14.1846C119.563 14.7045 120.23 15.1299 120.951 15.4454C121.594 15.717 122.284 15.8564 122.981 15.8552" fill="#222D3F"/>
<path d="M134.683 17.1661C134.188 17.1925 133.693 17.1197 133.226 16.9519C132.76 16.7841 132.331 16.5247 131.966 16.1889C131.625 15.8439 131.359 15.4312 131.186 14.9774C131.014 14.5236 130.938 14.0386 130.964 13.5538C130.941 13.0138 131.042 12.4758 131.261 11.9815C131.48 11.4873 131.81 11.0502 132.225 10.7043C133.185 9.96185 134.38 9.5903 135.591 9.65779C136.794 9.67484 137.988 9.86812 139.134 10.2315V8.15109C139.165 7.75737 139.113 7.36149 138.982 6.98903C138.851 6.61657 138.643 6.27582 138.371 5.98876C137.682 5.49747 136.837 5.27344 135.995 5.35834C134.765 5.38123 133.547 5.59388 132.382 5.98876C132.261 6.03323 132.133 6.05874 132.004 6.06441C131.84 6.06441 131.758 5.95724 131.758 5.7429V5.35834C131.752 5.25016 131.779 5.14267 131.834 5.04944C131.896 4.9643 131.982 4.89869 132.08 4.86031C133.408 4.34467 134.822 4.08582 136.247 4.09751C137.398 4.00499 138.543 4.32944 139.475 5.01161C139.845 5.36701 140.131 5.80026 140.313 6.28C140.495 6.75974 140.569 7.27397 140.527 7.78545V16.523C140.535 16.5736 140.53 16.6252 140.514 16.6737C140.498 16.7222 140.471 16.7663 140.435 16.8024C140.399 16.8386 140.355 16.8658 140.306 16.8818C140.258 16.8979 140.206 16.9024 140.155 16.895H139.632C139.58 16.9014 139.528 16.8965 139.478 16.8806C139.428 16.8646 139.383 16.838 139.344 16.8026C139.306 16.7672 139.276 16.7238 139.256 16.6756C139.236 16.6273 139.227 16.5752 139.229 16.523L139.14 15.445C137.9 16.5174 136.323 17.1218 134.683 17.1535V17.1661ZM134.879 15.8926C135.575 15.8813 136.263 15.7513 136.915 15.5081C137.685 15.2288 138.423 14.8674 139.115 14.4301V11.3221C138.068 11.0329 136.987 10.8824 135.9 10.8745C133.589 10.8745 132.431 11.7655 132.427 13.5475C132.406 13.8653 132.452 14.1838 132.56 14.4832C132.669 14.7826 132.838 15.0564 133.057 15.2874C133.569 15.7141 134.226 15.9265 134.891 15.88" fill="#222D3F"/>
<path d="M144.712 16.8949C144.662 16.9023 144.61 16.8978 144.562 16.8817C144.513 16.8656 144.469 16.8385 144.433 16.8023C144.397 16.7662 144.37 16.7221 144.354 16.6736C144.337 16.6251 144.333 16.5735 144.34 16.5229V4.80976C144.333 4.75897 144.338 4.70721 144.354 4.65849C144.37 4.60977 144.397 4.56541 144.433 4.52883C144.469 4.49225 144.513 4.46445 144.561 4.44757C144.61 4.4307 144.661 4.4252 144.712 4.43151H145.185C145.238 4.42406 145.292 4.42839 145.344 4.44421C145.395 4.46003 145.442 4.48695 145.482 4.52306C145.522 4.55916 145.553 4.60356 145.574 4.65311C145.594 4.70266 145.604 4.75614 145.601 4.80976L145.734 6.24081C146.248 5.63643 146.873 5.13574 147.574 4.76563C148.215 4.47319 148.913 4.32676 149.617 4.33695C149.827 4.32583 150.037 4.32583 150.247 4.33695C150.299 4.33374 150.351 4.34204 150.4 4.36123C150.448 4.38043 150.491 4.41005 150.527 4.44799C150.562 4.48593 150.589 4.53125 150.605 4.58071C150.621 4.63017 150.626 4.68255 150.619 4.73411V5.36453C150.617 5.4327 150.591 5.49778 150.544 5.54735C150.52 5.57552 150.49 5.59803 150.456 5.61329C150.422 5.62854 150.385 5.63616 150.348 5.63561H149.976H149.453C148.757 5.62141 148.067 5.76586 147.436 6.05799C146.784 6.3921 146.207 6.8554 145.74 7.41969V16.5229C145.747 16.5735 145.743 16.6251 145.727 16.6736C145.711 16.7221 145.684 16.7662 145.647 16.8023C145.611 16.8385 145.567 16.8656 145.519 16.8817C145.47 16.8978 145.419 16.9023 145.368 16.8949H144.712Z" fill="#222D3F"/>
<path d="M157.194 17.04C156.79 17.068 156.384 17.0137 156.002 16.8804C155.619 16.7472 155.268 16.5377 154.968 16.2646C154.695 15.9568 154.486 15.5974 154.354 15.2077C154.222 14.8179 154.17 14.4056 154.199 13.9951V5.67361H152.239C152.188 5.68103 152.137 5.67653 152.088 5.66046C152.04 5.64439 151.995 5.6172 151.959 5.58107C151.923 5.54493 151.896 5.50085 151.88 5.45234C151.864 5.40382 151.859 5.35222 151.867 5.30166V5.0558C151.857 4.95212 151.881 4.84811 151.936 4.7595C151.976 4.71938 152.023 4.68756 152.075 4.66591C152.127 4.64426 152.182 4.63321 152.239 4.63342L154.243 4.4569L154.42 1.19134C154.422 1.08729 154.46 0.987132 154.527 0.907652C154.562 0.876512 154.603 0.852668 154.647 0.837515C154.692 0.822361 154.739 0.8162 154.786 0.819393H155.233C155.284 0.811972 155.335 0.816475 155.384 0.832543C155.432 0.84861 155.476 0.875798 155.513 0.911934C155.549 0.94807 155.576 0.992154 155.592 1.04067C155.608 1.08918 155.613 1.14078 155.605 1.19134V4.43168H159.199C159.249 4.42534 159.299 4.43066 159.347 4.44721C159.395 4.46376 159.438 4.4911 159.473 4.52709C159.509 4.56309 159.535 4.60678 159.551 4.65475C159.567 4.70271 159.571 4.75367 159.564 4.80363V5.30166C159.573 5.35187 159.569 5.40339 159.554 5.45199C159.539 5.50059 159.512 5.54488 159.477 5.5812C159.441 5.61752 159.397 5.64484 159.349 5.66091C159.3 5.67697 159.249 5.68133 159.199 5.67361H155.605V13.9258C155.554 14.4407 155.708 14.9551 156.034 15.3568C156.445 15.6777 156.964 15.8288 157.484 15.7792C157.907 15.7832 158.33 15.7409 158.745 15.6531L159.18 15.5712C159.255 15.5474 159.334 15.5346 159.413 15.5333C159.596 15.5333 159.684 15.6342 159.684 15.8296V16.2016C159.684 16.479 159.596 16.6555 159.413 16.7185C158.692 16.9476 157.938 17.0562 157.181 17.04" fill="#222D3F"/>
<path d="M162.692 16.8951C162.641 16.9025 162.59 16.898 162.541 16.882C162.493 16.8659 162.449 16.8387 162.412 16.8026C162.376 16.7664 162.349 16.7224 162.333 16.6738C162.317 16.6253 162.312 16.5737 162.32 16.5232V4.81001C162.313 4.75921 162.317 4.70745 162.333 4.65873C162.349 4.61001 162.377 4.56565 162.412 4.52907C162.448 4.4925 162.492 4.46469 162.541 4.44782C162.589 4.43094 162.641 4.42544 162.692 4.43175H163.19C163.243 4.42442 163.298 4.4288 163.349 4.44459C163.401 4.46037 163.448 4.48718 163.489 4.52317C163.529 4.55915 163.561 4.60344 163.582 4.65297C163.603 4.7025 163.614 4.75609 163.612 4.81001L163.713 5.87541C164.486 5.31166 165.335 4.85963 166.235 4.53262C167.07 4.23089 167.95 4.07108 168.838 4.05981C169.339 4.02589 169.842 4.09326 170.317 4.25789C170.791 4.42253 171.227 4.68105 171.6 5.01804C171.938 5.39928 172.197 5.84453 172.36 6.32747C172.524 6.8104 172.589 7.32121 172.552 7.8297V16.5232C172.559 16.5737 172.554 16.6253 172.538 16.6738C172.522 16.7224 172.495 16.7664 172.459 16.8026C172.423 16.8387 172.379 16.8659 172.33 16.882C172.282 16.898 172.23 16.9025 172.18 16.8951H171.518C171.467 16.9023 171.415 16.8976 171.366 16.8816C171.318 16.8655 171.273 16.8385 171.237 16.8025C171.2 16.7665 171.172 16.7226 171.155 16.6742C171.139 16.6257 171.133 16.5741 171.139 16.5232V8.4223C171.208 7.59302 170.985 6.7657 170.509 6.08345C170.257 5.82888 169.953 5.63216 169.618 5.50696C169.283 5.38176 168.924 5.33109 168.567 5.35847C166.833 5.38651 165.147 5.93807 163.732 6.94082V16.5232C163.739 16.5731 163.735 16.6241 163.719 16.672C163.703 16.72 163.677 16.7637 163.641 16.7997C163.606 16.8357 163.563 16.863 163.515 16.8796C163.467 16.8961 163.416 16.9015 163.366 16.8951H162.692Z" fill="#222D3F"/>
<path d="M181.667 17.2608C179.7 17.2608 178.229 16.7061 177.254 15.5965C176.265 14.4744 175.767 12.8227 175.767 10.6289C175.767 8.54848 176.265 6.93461 177.261 5.78725C177.79 5.21389 178.44 4.76501 179.164 4.47288C179.888 4.18075 180.667 4.05263 181.447 4.09773C182.079 4.05285 182.713 4.14196 183.309 4.35923C183.904 4.57651 184.447 4.91705 184.901 5.35856C185.759 6.38881 186.19 7.70848 186.105 9.0465C186.118 9.54472 186.082 10.043 185.998 10.5343C185.992 10.6385 185.944 10.736 185.867 10.8057C185.789 10.8753 185.687 10.9114 185.582 10.9062H177.185C177.185 12.642 177.563 13.9217 178.32 14.7455C179.076 15.5692 180.226 15.9895 181.768 16.0063C182.928 16.0102 184.079 15.7963 185.16 15.3759C185.302 15.3131 185.453 15.2727 185.607 15.2561C185.64 15.2559 185.673 15.2631 185.702 15.2773C185.732 15.2915 185.757 15.3123 185.778 15.3381C185.829 15.3976 185.856 15.474 185.853 15.5524V15.9244C185.866 16.0279 185.847 16.133 185.799 16.2254C185.75 16.3178 185.675 16.3932 185.582 16.4413C184.356 17.0089 183.018 17.2953 181.667 17.2798V17.2608ZM184.712 9.77149C184.712 9.54454 184.744 9.26715 184.744 8.95825C184.812 7.97851 184.5 7.01022 183.874 6.25376C183.533 5.93669 183.13 5.69351 182.691 5.53947C182.251 5.38542 181.785 5.32383 181.321 5.35856C178.711 5.35856 177.332 6.82954 177.185 9.77149H184.712Z" fill="#222D3F"/>
<path d="M189.592 16.8949C189.542 16.9023 189.49 16.8978 189.442 16.8817C189.393 16.8656 189.349 16.8385 189.313 16.8023C189.277 16.7662 189.249 16.7221 189.233 16.6736C189.217 16.6251 189.213 16.5735 189.22 16.5229V4.80976C189.213 4.75897 189.218 4.70721 189.234 4.65849C189.25 4.60977 189.277 4.56541 189.313 4.52883C189.349 4.49225 189.393 4.46445 189.441 4.44757C189.49 4.4307 189.541 4.4252 189.592 4.43151H190.065C190.118 4.42418 190.173 4.42856 190.224 4.44434C190.276 4.46013 190.324 4.48694 190.364 4.52292C190.404 4.55891 190.436 4.6032 190.457 4.65273C190.478 4.70226 190.489 4.75584 190.487 4.80976L190.613 6.24081C191.128 5.63643 191.752 5.13574 192.454 4.76563C193.095 4.47319 193.793 4.32676 194.497 4.33695C194.707 4.32583 194.917 4.32583 195.127 4.33695C195.179 4.33374 195.231 4.34204 195.279 4.36123C195.328 4.38043 195.371 4.41005 195.407 4.44799C195.442 4.48593 195.469 4.53125 195.485 4.58071C195.501 4.63017 195.506 4.68255 195.499 4.73411V5.36453C195.497 5.4327 195.47 5.49778 195.424 5.54735C195.4 5.57623 195.37 5.59925 195.336 5.61457C195.302 5.62989 195.265 5.63709 195.228 5.63561H194.856H194.339C193.641 5.62067 192.949 5.76513 192.316 6.05799C191.663 6.39044 191.085 6.854 190.62 7.41969V16.5229C190.627 16.5735 190.623 16.6251 190.607 16.6736C190.591 16.7221 190.563 16.7662 190.527 16.8023C190.491 16.8385 190.447 16.8656 190.399 16.8817C190.35 16.8978 190.298 16.9023 190.248 16.8949H189.592Z" fill="#222D3F"/>
<path d="M117.938 44.4064C117.888 44.4136 117.836 44.4089 117.787 44.3929C117.738 44.3768 117.694 44.3497 117.657 44.3138C117.621 44.2778 117.593 44.2339 117.576 44.1855C117.559 44.137 117.554 44.0853 117.56 44.0344V32.3213C117.554 32.2704 117.559 32.2187 117.576 32.1703C117.593 32.1218 117.621 32.0779 117.657 32.0419C117.694 32.006 117.738 31.9789 117.787 31.9629C117.836 31.9468 117.888 31.9422 117.938 31.9493H118.436C118.489 31.942 118.543 31.9462 118.593 31.9617C118.644 31.9771 118.691 32.0035 118.731 32.0389C118.77 32.0743 118.802 32.1179 118.823 32.1666C118.844 32.2154 118.854 32.2682 118.853 32.3213L118.953 33.3867C119.738 32.8238 120.597 32.3739 121.507 32.0502C122.339 31.7455 123.217 31.5856 124.104 31.5774C124.605 31.5435 125.108 31.6108 125.582 31.7755C126.056 31.9401 126.493 32.1986 126.865 32.5356C127.205 32.9159 127.465 33.361 127.628 33.8442C127.792 34.3274 127.856 34.8387 127.817 35.3473V44.0344C127.826 44.0846 127.822 44.1362 127.807 44.1848C127.792 44.2334 127.765 44.2777 127.729 44.314C127.694 44.3503 127.65 44.3776 127.602 44.3937C127.553 44.4097 127.502 44.4141 127.451 44.4064H126.783C126.732 44.4149 126.68 44.4112 126.63 44.3957C126.581 44.3801 126.536 44.3531 126.499 44.3168C126.462 44.2805 126.435 44.236 126.418 44.1869C126.402 44.1379 126.397 44.0856 126.405 44.0344V35.9399C126.473 35.1087 126.25 34.2798 125.775 33.5947C125.518 33.3357 125.208 33.1365 124.866 33.0112C124.524 32.8859 124.158 32.8376 123.795 32.8697C122.062 32.8971 120.379 33.4488 118.966 34.4521V44.0344C118.973 44.085 118.969 44.1366 118.953 44.1851C118.937 44.2336 118.91 44.2777 118.873 44.3138C118.837 44.35 118.793 44.3772 118.745 44.3932C118.696 44.4093 118.645 44.4138 118.594 44.4064H117.938Z" fill="#222D3F"/>
<path d="M136.909 44.7788C134.948 44.7788 133.466 44.224 132.496 43.1082C131.525 41.9923 131.008 40.3406 131.008 38.1405C131.008 36.0601 131.512 34.4462 132.508 33.2989C133.035 32.717 133.686 32.2605 134.413 31.9627C135.139 31.6649 135.923 31.5334 136.707 31.5778C137.339 31.5337 137.973 31.6232 138.568 31.8405C139.164 32.0577 139.706 32.3978 140.161 32.8387C141.022 33.8699 141.453 35.1926 141.366 36.5329C141.376 37.0308 141.342 37.5287 141.265 38.0207C141.255 38.1249 141.206 38.2215 141.127 38.2907C141.049 38.3598 140.947 38.3963 140.842 38.3927H132.433C132.433 40.1284 132.811 41.4081 133.567 42.2319C134.324 43.0556 135.471 43.4759 137.009 43.4927C138.169 43.4966 139.32 43.2827 140.401 42.8623C140.543 42.7986 140.694 42.7561 140.849 42.7362C140.883 42.7371 140.916 42.7455 140.947 42.7608C140.977 42.776 141.004 42.7978 141.025 42.8245C141.073 42.8832 141.1 42.9566 141.101 43.0325V43.4045C141.114 43.5096 141.094 43.6162 141.044 43.7098C140.995 43.8033 140.918 43.8794 140.823 43.9277C139.596 44.4931 138.259 44.7794 136.909 44.7662V44.7788ZM139.96 37.2642C139.96 37.0309 139.96 36.7599 139.96 36.4447C140.031 35.4665 139.719 34.4991 139.09 33.7465C138.751 33.4247 138.349 33.1773 137.91 33.0199C137.47 32.8624 137.002 32.7986 136.537 32.8324C133.927 32.8324 132.55 34.3033 132.407 37.2453L139.96 37.2642Z" fill="#222D3F"/>
<path d="M148.306 44.5583C147.901 44.5859 147.494 44.5309 147.11 44.3965C146.726 44.2621 146.374 44.0512 146.074 43.7765C145.801 43.4699 145.593 43.1116 145.461 42.7229C145.328 42.3341 145.276 41.9228 145.305 41.5133V33.1918H143.351C143.3 33.1992 143.249 33.1947 143.2 33.1787C143.152 33.1626 143.108 33.1354 143.072 33.0993C143.035 33.0631 143.008 33.0191 142.992 32.9705C142.976 32.922 142.972 32.8704 142.979 32.8199V32.5677C142.969 32.4631 142.995 32.3582 143.055 32.2714C143.134 32.193 143.24 32.1479 143.351 32.1453L145.356 31.9751L145.532 28.7032C145.537 28.5998 145.575 28.5005 145.639 28.4196C145.676 28.389 145.718 28.3661 145.764 28.352C145.809 28.338 145.857 28.3331 145.904 28.3376H146.345C146.396 28.329 146.447 28.3325 146.496 28.3477C146.544 28.363 146.589 28.3895 146.625 28.4252C146.661 28.4609 146.689 28.5048 146.705 28.5531C146.721 28.6014 146.725 28.6529 146.717 28.7032V31.9499H150.311C150.361 31.9425 150.413 31.947 150.462 31.963C150.51 31.9791 150.554 32.0063 150.59 32.0424C150.626 32.0786 150.654 32.1227 150.67 32.1712C150.686 32.2197 150.69 32.2713 150.683 32.3218V32.8199C150.69 32.8704 150.686 32.922 150.67 32.9705C150.654 33.0191 150.626 33.0631 150.59 33.0993C150.554 33.1354 150.51 33.1626 150.462 33.1787C150.413 33.1947 150.361 33.1992 150.311 33.1918H146.717V41.444C146.668 41.9587 146.822 42.4723 147.146 42.875C147.561 43.1941 148.082 43.3429 148.602 43.2911C149.026 43.2971 149.449 43.257 149.863 43.1713L150.298 43.0831C150.374 43.0624 150.453 43.0497 150.531 43.0453C150.714 43.0453 150.809 43.1461 150.809 43.3479V43.7135C150.809 43.9972 150.714 44.1737 150.531 44.2367C149.812 44.4628 149.06 44.5714 148.306 44.5583Z" fill="#222D3F"/>
<path d="M156.381 44.4062C156.275 44.4115 156.171 44.3807 156.085 44.3189C155.999 44.257 155.937 44.1678 155.908 44.0658L151.968 32.5418C151.915 32.424 151.881 32.2984 151.867 32.1698C151.867 32.0248 151.968 31.9492 152.17 31.9492H152.964C153.06 31.9442 153.155 31.9738 153.232 32.0328C153.308 32.0918 153.361 32.1762 153.38 32.2707L156.772 42.7734L159.804 32.2959C159.832 32.1933 159.895 32.1033 159.98 32.0404C160.066 31.9775 160.171 31.9453 160.277 31.9492H161.185C161.291 31.9453 161.396 31.9775 161.481 32.0404C161.567 32.1033 161.629 32.1933 161.658 32.2959L164.633 42.8491L168.1 32.2707C168.12 32.1751 168.174 32.0898 168.251 32.0307C168.329 31.9716 168.425 31.9426 168.523 31.9492H169.26C169.456 31.9492 169.557 32.0248 169.557 32.1698C169.54 32.2977 169.506 32.4229 169.456 32.5418L165.421 44.0658C165.391 44.1666 165.328 44.2546 165.242 44.3161C165.157 44.3777 165.054 44.4093 164.948 44.4062H164.135C164.029 44.4127 163.924 44.3824 163.838 44.3203C163.752 44.2583 163.69 44.1684 163.662 44.0658L160.662 33.5378L157.692 44.0658C157.664 44.1678 157.601 44.257 157.516 44.3189C157.43 44.3807 157.325 44.4115 157.219 44.4062H156.381Z" fill="#222D3F"/>
<path d="M176.939 44.7784C176.147 44.8227 175.355 44.6894 174.621 44.3884C173.887 44.0873 173.229 43.6261 172.696 43.0385C171.687 41.8722 171.189 40.2521 171.189 38.1717C171.189 36.0913 171.687 34.4711 172.696 33.3112C173.827 32.2008 175.348 31.5786 176.933 31.5786C178.517 31.5786 180.038 32.2008 181.169 33.3112C182.178 34.4711 182.682 36.085 182.682 38.1717C182.682 40.2584 182.178 41.8722 181.169 43.0385C180.638 43.6259 179.983 44.087 179.251 44.3881C178.519 44.6892 177.729 44.8226 176.939 44.7784ZM176.939 43.5176C179.788 43.5176 181.215 41.744 181.219 38.1969C181.224 34.6497 179.797 32.8804 176.939 32.8888C174.077 32.8888 172.648 34.6581 172.652 38.1969C172.656 41.7356 174.085 43.5092 176.939 43.5176Z" fill="#222D3F"/>
<path d="M186.282 44.4071C186.231 44.4146 186.18 44.4101 186.131 44.394C186.082 44.3779 186.038 44.3507 186.002 44.3146C185.966 44.2785 185.939 44.2344 185.923 44.1859C185.907 44.1374 185.902 44.0858 185.91 44.0352V32.322C185.902 32.2715 185.907 32.2199 185.923 32.1714C185.939 32.1229 185.966 32.0788 186.002 32.0426C186.038 32.0065 186.082 31.9793 186.131 31.9632C186.18 31.9472 186.231 31.9427 186.282 31.9501H186.754C186.808 31.9417 186.862 31.9452 186.913 31.9602C186.965 31.9752 187.013 32.0014 187.053 32.0369C187.093 32.0724 187.125 32.1163 187.147 32.1656C187.168 32.2149 187.178 32.2683 187.177 32.322L187.303 33.7594C187.817 33.1546 188.442 32.6538 189.144 32.2842C189.783 31.9867 190.481 31.838 191.186 31.8492C191.457 31.8492 191.665 31.8492 191.817 31.8492C191.868 31.847 191.919 31.856 191.967 31.8756C192.014 31.8952 192.057 31.925 192.092 31.9628C192.127 32.0006 192.153 32.0456 192.168 32.0946C192.184 32.1436 192.189 32.1954 192.182 32.2464V32.8768C192.184 32.9464 192.16 33.0141 192.113 33.0659C192.088 33.0943 192.057 33.1168 192.022 33.132C191.987 33.1473 191.949 33.1548 191.911 33.1542H191.546C191.426 33.1542 191.256 33.1542 191.022 33.1542C190.326 33.1413 189.636 33.2879 189.005 33.5829C188.351 33.9141 187.772 34.3753 187.303 34.9383V44.0352C187.312 44.0854 187.308 44.1369 187.293 44.1855C187.278 44.2341 187.251 44.2784 187.215 44.3147C187.18 44.3511 187.136 44.3784 187.087 44.3944C187.039 44.4105 186.988 44.4149 186.937 44.4071H186.282Z" fill="#222D3F"/>
<path d="M194.793 44.4069C194.743 44.4143 194.691 44.4098 194.643 44.3937C194.594 44.3776 194.55 44.3505 194.514 44.3143C194.478 44.2782 194.451 44.2341 194.435 44.1856C194.419 44.1371 194.414 44.0855 194.421 44.0349V26.4526C194.414 26.402 194.419 26.3504 194.435 26.3019C194.451 26.2534 194.478 26.2093 194.514 26.1732C194.55 26.137 194.594 26.1098 194.643 26.0938C194.691 26.0777 194.743 26.0732 194.793 26.0806H195.462C195.512 26.0732 195.564 26.0777 195.612 26.0938C195.661 26.1098 195.705 26.137 195.741 26.1732C195.777 26.2093 195.804 26.2534 195.82 26.3019C195.837 26.3504 195.841 26.402 195.834 26.4526V37.5101L201.778 32.2083C201.86 32.1249 201.959 32.0595 202.067 32.0161C202.176 31.9727 202.292 31.9523 202.409 31.9561H203.304C203.499 31.9561 203.6 32.0318 203.6 32.1768C203.6 32.3218 203.512 32.3911 203.329 32.5487L197.334 37.8568L203.808 43.8143C203.96 43.9467 204.029 44.0601 204.029 44.1358C204.029 44.2114 203.934 44.3816 203.733 44.3816H202.674C202.471 44.3804 202.277 44.3014 202.131 44.161L195.827 38.2918V44.0097C195.835 44.0603 195.83 44.1119 195.814 44.1604C195.798 44.2089 195.771 44.253 195.735 44.2891C195.699 44.3252 195.655 44.3524 195.606 44.3685C195.557 44.3846 195.506 44.3891 195.455 44.3816L194.793 44.4069Z" fill="#222D3F"/>
</g>
<defs>
<clipPath id="clip0">
<rect width="204.028" height="56" fill="white"/>
</clipPath>
</defs>
</svg>
