<svg width="752" height="198" viewBox="0 0 752 198" fill="none" xmlns="http://www.w3.org/2000/svg">
<mask id="mask0" mask-type="alpha" maskUnits="userSpaceOnUse" x="0" y="0" width="752" height="198">
<rect width="752" height="197.559" rx="1.42471" fill="url(#paint0_linear)"/>
</mask>
<g mask="url(#mask0)">
<rect x="105.458" y="87.6592" width="22.6017" height="20.8779" fill="#8AE3FF" fill-opacity="0.1"/>
<rect x="92.9019" y="102.738" width="22.6017" height="20.8779" fill="#8AE3FF" fill-opacity="0.1"/>
<rect x="151.918" y="56.3428" width="11.3009" height="10.4389" fill="#8AE3FF" fill-opacity="0.1"/>
<rect x="390.611" y="22.7949" width="11.3009" height="10.4389" fill="#8AE3FF" fill-opacity="0.1"/>
<rect x="310.006" y="98.0127" width="20.0904" height="18.5581" fill="#8AE3FF" fill-opacity="0.1"/>
<rect x="219.755" y="101.093" width="11.3009" height="10.4389" fill="#8AE3FF" fill-opacity="0.1"/>
<rect x="95.4131" y="56.3428" width="3.76695" height="3.47964" fill="#8AE3FF" fill-opacity="0.1"/>
<rect x="58.3887" y="116.458" width="11.3009" height="10.4389" fill="#8AE3FF" fill-opacity="0.1"/>
<rect x="-8.68604" y="154.524" width="11.3009" height="10.4389" fill="#8AE3FF" fill-opacity="0.1"/>
<rect x="188.907" y="161.164" width="11.3009" height="10.4389" fill="#8AE3FF" fill-opacity="0.1"/>
<rect x="160.707" y="157.253" width="3.76695" height="3.47964" fill="#8AE3FF" fill-opacity="0.1"/>
<rect x="663.651" y="99.5576" width="20.8006" height="19.2141" transform="rotate(180 663.651 99.5576)" fill="#8AE3FF" fill-opacity="0.1"/>
<rect x="675.207" y="85.6807" width="20.8006" height="19.2141" transform="rotate(180 675.207 85.6807)" fill="#8AE3FF" fill-opacity="0.1"/>
<rect x="620.894" y="128.379" width="10.4003" height="9.60705" transform="rotate(180 620.894 128.379)" fill="#8AE3FF" fill-opacity="0.1"/>
<rect x="407.098" y="174.551" width="10.4003" height="9.60705" transform="rotate(180 407.098 174.551)" fill="#8AE3FF" fill-opacity="0.1"/>
<rect x="519.579" y="126.88" width="18.4894" height="17.0792" transform="rotate(180 519.579 126.88)" fill="#8AE3FF" fill-opacity="0.1"/>
<rect x="471.134" y="36.8418" width="10.4003" height="9.60705" transform="rotate(180 471.134 36.8418)" fill="#8AE3FF" fill-opacity="0.1"/>
<rect x="672.896" y="128.379" width="3.46676" height="3.20235" transform="rotate(180 672.896 128.379)" fill="#8AE3FF" fill-opacity="0.1"/>
<rect x="706.97" y="73.0547" width="10.4003" height="9.60705" transform="rotate(180 706.97 73.0547)" fill="#8AE3FF" fill-opacity="0.1"/>
<rect x="586.853" y="31.9121" width="10.4003" height="9.60705" transform="rotate(180 586.853 31.9121)" fill="#8AE3FF" fill-opacity="0.1"/>
<rect x="612.806" y="35.5107" width="3.46676" height="3.20235" transform="rotate(180 612.806 35.5107)" fill="#8AE3FF" fill-opacity="0.1"/>
</g>
<defs>
<linearGradient id="paint0_linear" x1="88.8162" y1="174.407" x2="163.046" y2="-108.143" gradientUnits="userSpaceOnUse">
<stop stop-color="#00007D"/>
<stop offset="1" stop-color="#2C48FF"/>
</linearGradient>
</defs>
</svg>
