<svg width="944" height="442" viewBox="0 0 944 442" fill="none" xmlns="http://www.w3.org/2000/svg">
<path d="M0 10C0 4.47715 4.47715 0 10 0H934C939.523 0 944 4.47715 944 10V432C944 437.523 939.523 442 934 442H10C4.47717 442 0 437.523 0 432V10Z" fill="url(#paint0_linear)"/>
<path d="M414 40C414 35.5817 417.582 32 422 32H904C908.418 32 912 35.5817 912 40V402C912 406.418 908.418 410 904 410H422C417.582 410 414 406.418 414 402V40Z" fill="white"/>
<path d="M32 40C32 35.5817 35.5817 32 40 32H366C370.418 32 374 35.5817 374 40V402C374 406.418 370.418 410 366 410H40C35.5817 410 32 406.418 32 402V40Z" fill="white"/>
<path d="M486.516 54.4162H484.738L480.566 65.2102H482.442L483.548 62.1582H487.678L488.798 65.2102H490.66L486.516 54.4162ZM485.186 57.3562C485.326 56.9642 485.48 56.5302 485.606 56.0402C485.746 56.5162 485.928 57.0622 486.04 57.3562L487.258 60.7302H483.968L485.186 57.3562Z" fill="#02007C"/>
<path d="M504.37 54.5422H502.564L500.87 61.3182C500.758 61.7522 500.59 62.6202 500.492 63.2642C500.408 62.7042 500.24 61.9062 500.114 61.4582L498.308 54.7382H496.46L494.654 61.5422C494.542 61.9762 494.374 62.7742 494.304 63.3622C494.206 62.7182 494.038 61.8502 493.926 61.4022L492.148 54.5422H490.314L493.366 65.2942H495.102L496.964 58.6162C497.076 58.2102 497.23 57.3562 497.37 56.6282C497.482 57.2862 497.65 58.0702 497.762 58.4762L499.61 65.2942H501.346L504.37 54.5422Z" fill="#02007C"/>
<path d="M512.845 57.4822C512.817 55.5782 511.221 54.3042 509.079 54.3042C507.021 54.3042 505.425 55.5082 505.425 57.3282C505.425 58.9382 506.713 59.6942 508.043 60.0442C509.905 60.5342 511.249 60.9122 511.249 62.2422C511.249 63.4322 510.171 63.9362 509.303 63.9362C508.141 63.9362 506.951 63.5302 506.867 61.7102H505.005C505.145 64.6082 507.273 65.3922 509.275 65.3922C511.207 65.3922 513.083 64.3142 513.083 62.2282C513.083 60.1982 511.543 59.4002 509.961 58.9802C509.555 58.8682 509.149 58.7282 508.757 58.6302C507.665 58.3502 507.147 57.9582 507.147 57.2022C507.147 56.2222 508.071 55.7322 508.981 55.7322C510.059 55.7322 510.955 56.1522 511.081 57.4822H512.845Z" fill="#02007C"/>
<path d="M528.359 58.0282C528.065 55.5642 525.853 54.3182 523.753 54.3182C520.323 54.3182 518.629 57.1882 518.629 59.9742C518.629 62.9422 520.449 65.4062 523.767 65.4062C527.449 65.4062 528.233 62.7042 528.443 61.6122H526.567C526.133 63.5442 524.663 63.8382 523.767 63.8382C521.541 63.8382 520.449 62.0322 520.449 59.8902C520.449 57.7762 521.653 55.8162 523.795 55.8162C525.069 55.8162 526.259 56.5722 526.511 58.0282H528.359Z" fill="#02007C"/>
<path d="M531.511 54.5422H529.901V65.2102H531.511V54.5422Z" fill="#02007C"/>
<path d="M536.926 57.4822C534.63 57.4822 533.104 59.1342 533.104 61.4302C533.104 63.4742 534.35 65.4482 536.926 65.4482C539.488 65.4482 540.72 63.4742 540.72 61.4302C540.72 59.1342 539.208 57.4822 536.926 57.4822ZM536.926 58.7422C538.382 58.7422 539.054 60.1282 539.054 61.3742C539.054 62.8582 538.312 64.1602 536.926 64.1602C535.526 64.1602 534.784 62.8582 534.784 61.3742C534.784 60.1282 535.442 58.7422 536.926 58.7422Z" fill="#02007C"/>
<path d="M548.824 57.7342H547.2V62.4942C547.088 63.2922 546.332 64.0762 545.38 64.0762C544.05 64.0762 543.854 63.1662 543.854 62.3402V57.7342H542.23V62.5922C542.23 64.0762 542.972 65.4062 545.1 65.4062C546.584 65.4062 547.214 64.5242 547.312 64.3562C547.312 64.5942 547.354 64.9582 547.424 65.2102H549.132C548.908 64.7202 548.824 63.5862 548.824 63.1102V57.7342Z" fill="#02007C"/>
<path d="M557.51 54.5422H555.942V58.3082C555.634 57.9022 554.878 57.5242 553.94 57.5242C551.392 57.5242 550.384 59.6102 550.384 61.5142C550.384 63.3902 551.42 65.3782 553.856 65.3782C555.046 65.3782 555.718 64.8322 556.096 64.2442C556.124 64.5242 556.18 64.9022 556.292 65.2102H557.86C557.608 64.4822 557.51 63.4322 557.51 62.6622V54.5422ZM555.872 60.0162C555.97 60.3242 555.998 60.8562 555.998 61.3742C555.998 62.1582 555.9 64.0482 554.094 64.0482C552.694 64.0482 552.036 62.9142 552.036 61.4302C552.036 59.8762 552.75 58.7842 554.108 58.7842C555.074 58.7842 555.69 59.4282 555.872 60.0162Z" fill="#02007C"/>
<path d="M106.454 54.5139C106.58 54.3179 106.692 54.1359 106.79 53.9679C106.818 53.9679 106.86 53.9679 106.888 53.9679C107.126 53.9679 107.252 53.9119 107.252 53.8279C107.252 53.7579 107.168 53.6879 107 53.6039C106.706 53.4779 105.726 53.2119 105.726 53.2119C104.97 54.7379 103.15 56.9219 100.91 58.0839C100.91 58.0839 102.03 58.4619 102.31 58.6999C102.324 58.7139 102.338 58.7139 102.352 58.7139C102.478 58.7139 103.556 57.9579 104.662 56.7679C104.97 57.2299 105.446 57.8459 106.132 58.4899C104.76 59.4839 102.912 60.3799 100.518 60.8279C100.518 60.8279 101.568 61.5419 101.778 61.8639C101.792 61.8779 101.806 61.8919 101.834 61.8919C101.876 61.8919 102.506 61.7239 103.64 61.2759L103.626 65.9659H104.886V65.2939H109.366V65.8679H110.654L110.64 61.2059C111.172 61.3879 111.732 61.5559 112.348 61.6959C112.362 61.6959 112.376 61.6959 112.376 61.6959C112.404 61.6959 112.432 61.6819 112.446 61.6679C112.712 61.2619 113.72 60.4219 113.72 60.4219C111.228 60.1699 109.408 59.3859 108.12 58.4899C109.212 57.5239 110.08 56.4599 110.738 55.4099C110.92 55.3539 111.06 55.2839 111.06 55.1859C111.06 55.0039 110.136 54.4159 110.066 54.4159C109.982 54.4159 109.912 54.5139 109.828 54.5139H106.454ZM109.03 55.5779C108.596 56.1939 107.98 56.9499 107.126 57.7059C106.272 56.9499 105.768 56.2219 105.516 55.7879L105.67 55.5919L109.03 55.5779ZM104.046 61.1079C105.18 60.6039 106.202 60.0019 107.112 59.3159C107.966 59.9739 109.044 60.6039 110.374 61.1079H104.046ZM109.366 62.2699V64.1179H104.886V62.2699H109.366Z" fill="#02007C"/>
<path d="M120.958 54.0519H115.106V55.2979H120.958V54.0519ZM127.482 57.6639H122.834C122.834 57.0899 122.82 56.4879 122.806 55.9979C124.934 55.5779 126.586 54.8919 126.586 54.8919C126.754 54.9899 126.88 55.0319 126.978 55.0319C127.09 55.0319 127.146 54.9759 127.146 54.8919C127.146 54.8219 127.104 54.7239 127.02 54.6259C126.796 54.3599 126.04 53.5759 126.04 53.5759C125.648 53.8979 124.15 54.5139 122.652 54.8359L121.42 54.6259C121.42 54.6259 121.49 56.5299 121.532 58.1679C121.546 58.4479 121.546 58.7419 121.546 59.0359C121.546 61.3319 121.182 63.6979 118.494 65.2799C118.494 65.2799 119.712 65.5459 120.048 65.7979C120.062 65.8119 120.076 65.8119 120.09 65.8119C120.118 65.8119 120.132 65.7979 120.16 65.7839C122.526 63.8659 122.848 61.3739 122.862 58.9379H124.472V66.0079H125.802V58.9379H127.482V57.6639ZM120.496 56.3899H115.792C115.792 56.3899 115.82 58.2379 115.834 58.7839C115.834 59.1059 115.848 59.5119 115.848 59.9739C115.848 61.6119 115.68 63.9359 114.308 65.4339C114.308 65.4339 115.358 65.5459 115.708 65.7419C115.722 65.7559 115.75 65.7559 115.764 65.7559C115.792 65.7559 117.01 64.5099 117.108 60.6319H119.292V61.2619H120.496V56.3899ZM119.292 57.5379V59.4699H117.122L117.108 58.8259C117.094 58.0979 117.08 57.5379 117.08 57.5379H119.292Z" fill="#02007C"/>
<path d="M139.718 55.9279C138.64 56.1379 137.492 56.2639 136.442 56.2639C135.658 56.2639 134.93 56.1939 134.328 56.0259C134.314 56.0259 134.314 56.0259 134.3 56.0259C134.272 56.0259 134.244 56.0539 134.244 56.0959L134.188 57.3559C134.846 57.5659 135.756 57.6359 136.694 57.6359C137.758 57.6359 138.85 57.5379 139.662 57.3979C139.69 57.3839 139.718 57.3699 139.718 57.3139V55.9279ZM134.286 61.2059C134.048 61.4439 133.642 61.8779 133.642 62.4519C133.642 63.5579 135.126 64.5099 137.436 64.5099C137.926 64.5099 139.326 64.4119 140.152 64.1599C140.166 64.1599 140.18 64.1459 140.18 64.1319C140.18 63.6839 140.376 62.5639 140.376 62.5639C139.354 62.9419 138.332 63.1379 137.492 63.1379C135.966 63.1519 135.014 62.7319 135.014 62.2559C135.014 62.1579 135.028 62.0599 135.476 61.5699L134.286 61.2059ZM131.836 65.0699C131.892 65.0559 131.906 64.9999 131.906 64.9439C131.864 64.6919 131.85 64.4399 131.85 64.2159C131.85 63.7539 131.92 63.3759 131.962 63.1659C132.144 62.2559 132.592 61.1919 132.9 60.3379C132.662 59.9039 132.368 59.0499 132.368 59.0499C132.368 59.0499 131.346 61.6819 131.262 61.6819C131.22 61.6819 131.178 61.5559 131.178 61.2899C131.178 61.0659 131.206 60.8419 131.22 60.7999C131.318 58.9799 132.116 56.4179 132.354 55.2419C132.648 55.2279 132.76 55.1439 132.76 55.0599C132.76 54.9899 132.676 54.9059 132.536 54.8639C132.144 54.7239 131.066 54.4579 130.996 54.4439C130.968 54.4299 130.954 54.4299 130.94 54.4299C130.898 54.4299 130.884 54.4579 130.884 54.5279C130.8 56.2079 130.1 58.4479 129.974 61.4159C129.974 61.5839 129.96 61.7659 129.96 61.9339C129.96 63.0539 130.128 64.2859 130.688 65.3219L131.836 65.0699Z" fill="#02007C"/>
<path d="M154.334 54.8219H149.462V54.4299C149.462 54.4299 149.462 54.0659 149.49 53.8839C149.756 53.8419 149.924 53.7159 149.924 53.6179C149.924 53.5059 149.714 53.3799 148.09 53.3799C148.132 53.8699 148.132 54.3459 148.132 54.3459V57.4679H144.674V62.4099H145.99V61.9899H152.024V62.3539L153.382 62.3679V57.4679H149.462V56.0679H154.334V54.8219ZM155.286 65.1399C154.824 64.3559 153.676 63.2079 153.018 62.7039L151.912 63.2919C152.584 63.8379 153.578 64.9999 154.012 65.9239L155.286 65.1399ZM151.758 65.5179C151.562 64.7059 150.946 63.4599 150.596 62.8999L149.35 63.1379C149.7 63.7679 150.204 65.0419 150.33 65.8399L151.758 65.5179ZM146.956 63.0539C147.012 63.4739 147.054 64.0479 147.054 64.5939C147.054 65.0419 147.026 65.4899 146.984 65.8259L148.44 65.7419C148.454 65.5739 148.468 65.3779 148.468 65.1679C148.468 64.4539 148.384 63.5579 148.258 62.9979L146.956 63.0539ZM145.878 63.6279C145.948 63.6419 146.004 63.6419 146.06 63.6419C146.228 63.6419 146.34 63.5859 146.34 63.5019C146.34 63.4319 146.27 63.3479 146.13 63.2639C145.724 63.0259 144.87 62.7459 144.87 62.7459C144.492 63.5719 143.736 64.7479 142.574 65.4759C142.574 65.4759 143.652 65.7839 144.002 66.0219C144.016 66.0359 144.016 66.0359 144.03 66.0359C144.058 66.0359 145.122 65.1399 145.878 63.6279ZM152.024 58.6859V60.7579H145.99V58.6859H152.024Z" fill="#02007C"/>
<path d="M168.628 59.7079H165.562V58.2799C165.562 58.2799 165.562 57.8739 165.59 57.6499C165.884 57.5939 165.996 57.4819 165.996 57.3699C165.996 57.2719 165.912 57.1879 165.758 57.1739C165.268 57.1039 164.134 57.1039 164.134 57.1039C164.176 57.4259 164.176 57.7479 164.176 57.9159C164.176 57.9999 164.176 58.0559 164.176 58.0559V59.7079H161.39V60.9819H164.176V64.0899H160.956V65.3639H169.048V64.0899H165.562V60.9819H168.628V59.7079ZM169.048 55.1299H162.426C162.622 54.5979 162.748 54.2199 162.79 54.0659C163.182 54.0099 163.308 53.8979 163.308 53.7999C163.308 53.7159 163.21 53.6459 163.084 53.6179C162.566 53.5059 161.446 53.3799 161.446 53.3799C161.418 53.6459 161.264 54.2899 160.956 55.1299H157.064V56.4459H160.396C159.612 58.0419 158.324 59.8899 156.308 61.1079C156.308 61.1079 157.33 61.4859 157.652 61.8219C157.666 61.8359 157.694 61.8499 157.708 61.8499C157.834 61.8499 158.506 61.2339 159.01 60.6879L158.94 66.0219H160.298L160.354 59.5539C160.634 59.5119 160.774 59.3859 160.774 59.2879C160.774 59.1619 160.578 59.1339 160.312 59.1059C160.956 58.1819 161.46 57.2579 161.852 56.4459H169.048V55.1299Z" fill="#02007C"/>
<path d="M182.852 55.5919C182.418 55.5779 181.97 55.5639 181.522 55.5639C180.612 55.5639 179.66 55.5919 178.722 55.6339C178.736 55.1159 178.764 54.6399 178.792 54.3039C179.016 54.2759 179.17 54.1779 179.17 54.0799C179.17 53.8979 179.1 53.8979 177.21 53.8279C177.266 54.3179 177.322 55.0039 177.35 55.7179C176.188 55.8019 175.096 55.8859 174.214 55.9839C173.612 56.0399 172.982 56.0819 172.38 56.0819C172.058 56.0819 171.736 56.0679 171.442 56.0539C171.428 56.0539 171.414 56.0539 171.4 56.0539C171.33 56.0539 171.302 56.0819 171.302 56.1239C171.302 56.1519 171.302 56.1799 171.316 56.2079L171.68 57.5939C172.562 57.5519 173.528 57.4119 174.34 57.2859C175.208 57.1599 176.258 57.0339 177.406 56.9499C177.42 57.3839 177.42 57.8039 177.434 58.1819C177.182 58.1119 176.916 58.0839 176.608 58.0839C175.166 58.0839 174.27 59.2319 174.27 60.3799C174.27 60.3939 174.27 60.3939 174.27 60.4079C174.27 61.3319 175.026 62.4939 176.454 62.4939C176.79 62.4939 177.28 62.4239 177.77 62.0739L177.686 62.2419C177.336 62.9419 175.754 64.1179 173.472 64.5379C173.472 64.5379 174.704 65.2379 175.054 65.6159C175.096 65.6439 175.11 65.6579 175.152 65.6579C175.306 65.6579 179.212 64.3419 179.212 61.0099C179.212 60.3519 179.058 59.6519 178.694 59.1199C178.694 58.5459 178.694 57.7199 178.708 56.8939C179.044 56.8799 179.394 56.8799 179.73 56.8799C180.724 56.8799 181.732 56.9219 182.74 57.0619C182.81 57.0619 182.81 57.0619 182.824 56.9919L182.852 55.5919ZM177.462 59.5819C177.476 59.7219 177.476 59.8619 177.476 59.9879C177.476 60.1979 177.448 61.2059 176.482 61.2059C175.894 61.2059 175.572 60.7299 175.572 60.2539C175.572 59.8619 175.796 59.3019 176.622 59.3019C176.986 59.3019 177.252 59.3999 177.462 59.5819Z" fill="#02007C"/>
<path d="M187.569 56.5719C187.639 56.5719 187.709 56.5719 187.779 56.5719C188.815 56.5719 189.907 56.2919 190.985 55.8999C191.041 55.8859 191.069 55.8719 191.097 55.8719C191.111 55.8719 191.111 55.8719 191.111 55.8859C191.111 55.9979 189.501 57.5939 187.807 59.2039C187.765 59.2599 187.695 59.3159 187.611 59.3859C187.037 59.8759 186.211 60.5059 185.259 61.3739C185.245 61.3879 185.231 61.4159 185.231 61.4439C185.231 61.4579 185.245 61.4859 185.273 61.4999L186.519 62.2279C186.547 62.2419 186.561 62.2419 186.589 62.2419C186.603 62.2419 186.631 62.2279 186.659 62.1999C188.227 60.2399 190.089 59.7639 191.503 59.7639C191.839 59.7639 193.757 59.7779 193.757 61.4999C193.757 62.2699 193.113 63.4179 191.517 63.8519C191.517 63.8379 191.517 63.8239 191.517 63.7959C191.517 62.7179 190.565 61.7939 189.081 61.7939C188.017 61.7939 187.107 62.3539 187.107 63.3199C187.107 64.5659 188.633 65.3219 190.439 65.3219C193.057 65.3219 195.311 63.5719 195.311 61.4159C195.311 59.6519 193.659 58.6019 191.783 58.6019C191.069 58.6019 190.313 58.7559 189.613 59.0359C189.585 59.0359 189.543 59.0639 189.515 59.0639C189.515 59.0639 189.501 59.0639 189.501 59.0499C189.501 59.0499 189.529 59.0219 189.571 58.9799C190.663 57.9859 192.105 56.6699 193.281 55.5779C193.477 55.5079 193.589 55.4659 193.589 55.3819C193.589 55.1719 192.399 54.3459 192.301 54.3459C192.217 54.3459 192.161 54.4439 192.007 54.4999C190.789 54.9199 189.361 55.1859 188.129 55.1859C187.793 55.1859 187.457 55.1579 187.149 55.1159C187.135 55.1159 187.135 55.1159 187.121 55.1159C187.079 55.1159 187.051 55.1439 187.051 55.1719C187.051 55.1859 187.051 55.2139 187.065 55.2279L187.569 56.5719ZM190.159 64.0619C190.131 64.0619 190.103 64.0619 190.061 64.0619C189.263 64.0619 188.283 63.8099 188.283 63.2359C188.283 63.1519 188.297 62.7599 188.969 62.7599C190.159 62.7599 190.173 63.6979 190.173 63.8239C190.173 63.9079 190.173 63.9779 190.159 64.0619Z" fill="#02007C"/>
<path d="M200.477 54.5419H198.699V65.2099H200.477V54.5419Z" fill="#02007C"/>
<path d="M206.089 57.4819C203.793 57.4819 202.267 59.1339 202.267 61.4299C202.267 63.4739 203.513 65.4479 206.089 65.4479C208.651 65.4479 209.883 63.4739 209.883 61.4299C209.883 59.1339 208.371 57.4819 206.089 57.4819ZM206.089 58.7419C207.545 58.7419 208.217 60.1279 208.217 61.3739C208.217 62.8579 207.475 64.1599 206.089 64.1599C204.689 64.1599 203.947 62.8579 203.947 61.3739C203.947 60.1279 204.605 58.7419 206.089 58.7419Z" fill="#02007C"/>
<path d="M219.653 54.5419H210.777V56.0259H214.319V65.2099H216.097V56.0259H219.653V54.5419Z" fill="#02007C"/>
<path d="M229.212 58.3499C229.212 58.3499 229.436 59.1479 229.492 59.3159C229.548 59.4979 229.618 59.5679 229.688 59.5679C229.772 59.5679 229.842 59.4419 229.87 59.2459C230.122 59.2179 230.374 59.1759 230.612 59.1479L230.178 59.4279C230.178 59.4279 230.542 59.6519 230.878 60.0999H229.352C229.142 59.0079 229.002 57.6639 229.002 56.0399C229.002 55.9559 229.002 55.8859 229.002 55.8019C229.604 56.3059 230.108 56.9219 230.36 57.2579C230.08 57.6359 229.786 57.9999 229.478 58.3499H229.212ZM231.536 57.5239C231.648 57.7199 231.76 57.9159 231.858 58.1259C231.536 58.1679 231.116 58.2379 230.64 58.2799C231.494 57.2719 232.376 56.0819 232.544 55.8439C232.628 55.8719 232.698 55.8859 232.74 55.8859C232.852 55.8859 232.894 55.8299 232.894 55.7739C232.894 55.6899 232.838 55.5919 232.768 55.5219C232.642 55.3959 231.928 54.9059 231.928 54.9059C231.802 55.1859 231.424 55.7739 230.948 56.4739C230.822 56.3339 230.668 56.1379 230.486 55.9419C230.85 55.4659 231.242 54.9059 231.536 54.4019C231.606 54.4159 231.648 54.4299 231.704 54.4299C231.83 54.4299 231.886 54.3599 231.886 54.2899C231.886 54.2339 231.858 54.1639 231.788 54.1219C231.438 53.8979 230.794 53.5759 230.794 53.5759C230.752 53.7019 230.318 54.6259 229.856 55.2839C229.73 55.1579 229.59 55.0319 229.45 54.9199L229.002 55.5779C229.002 55.0599 229.03 54.5279 229.058 53.9679C229.38 53.8979 229.506 53.7999 229.506 53.7159C229.506 53.6179 229.38 53.5479 229.212 53.5199C228.988 53.4919 227.714 53.4219 227.714 53.4219C227.742 53.7439 227.756 54.0799 227.756 54.4019C227.756 54.9059 227.756 55.3819 227.77 55.8579C227.756 55.8299 227.742 55.8159 227.728 55.8019C227.588 55.6759 226.874 55.2139 226.874 55.2139C226.762 55.4799 226.468 56.0119 226.062 56.6419C225.936 56.4739 225.754 56.2639 225.544 56.0399C225.978 55.4659 226.384 54.8359 226.664 54.3459C226.72 54.3599 226.762 54.3599 226.804 54.3599C226.944 54.3599 227 54.2899 227 54.2199C227 54.1639 226.958 54.0939 226.902 54.0519C226.524 53.7999 225.894 53.5199 225.894 53.5199C225.838 53.6879 225.404 54.7099 224.928 55.4099C224.816 55.2979 224.69 55.1999 224.578 55.1019L224.06 55.8719L224.27 56.0399H223.402V54.5419C223.402 54.5419 223.402 54.4579 223.402 54.3319C223.402 54.2199 223.402 54.0659 223.416 53.9539C223.668 53.8979 223.78 53.7859 223.78 53.6879C223.78 53.6179 223.696 53.5339 223.514 53.5199C223.024 53.4639 222.114 53.4359 222.114 53.4359C222.156 53.8699 222.156 54.4159 222.156 54.4159V56.0399H220.784V57.2299H221.988C221.778 58.1119 221.218 60.1419 220.196 61.5559C220.196 61.5559 220.994 61.8499 221.26 62.1019C221.274 62.1159 221.288 62.1159 221.288 62.1159C221.344 62.1159 221.792 61.2339 222.24 59.4139C222.198 60.6879 222.142 62.3119 222.142 63.1519V65.9659H223.402V65.3359C223.668 65.3919 224.312 65.5739 224.55 65.7559C224.564 65.7699 224.578 65.7699 224.592 65.7699C224.62 65.7699 224.634 65.7559 224.662 65.7419C225.684 64.8319 226.104 63.7119 226.272 62.7319C226.608 63.0679 227 63.4459 227.336 63.6839C227.35 63.6839 227.364 63.6979 227.378 63.6979C227.392 63.6979 227.406 63.6839 227.406 63.6839C227.658 63.3899 228.414 62.9419 228.414 62.9419C227.56 62.5779 226.804 61.9059 226.398 61.4999C226.412 61.3879 226.412 61.2759 226.412 61.1779H228.414C228.624 62.0319 228.89 62.7599 229.184 63.3759C228.302 64.0339 227.056 64.6639 225.362 64.9999C225.362 64.9999 226.37 65.5879 226.594 65.8679C226.608 65.8819 226.636 65.8959 226.65 65.8959C226.65 65.8959 228.274 65.4199 229.744 64.3139C230.374 65.2379 231.228 65.7419 231.788 65.7419C232.572 65.7419 233.216 65.0139 233.482 63.6279C233.482 63.6139 233.482 63.5999 233.482 63.5999C233.482 63.5719 233.468 63.5299 233.44 63.5159C233.076 63.2919 232.362 62.3539 232.362 62.3539C232.306 63.4179 232.208 64.3559 231.718 64.3559C231.592 64.3559 231.242 64.2859 230.654 63.5299C231.116 63.0819 231.494 62.6339 231.858 62.2139C231.956 62.2419 232.04 62.2559 232.096 62.2559C232.264 62.2559 232.334 62.1859 232.334 62.1019C232.334 62.0459 232.306 61.9899 232.25 61.9479C231.942 61.7099 231.074 61.2199 231.074 61.2199C230.934 61.4999 230.626 62.0039 230.108 62.5499C229.926 62.1719 229.758 61.7099 229.618 61.1779H233.146V60.0999H231.634L231.886 59.8899C231.648 59.5399 231.284 59.2319 231.06 59.0779C231.508 59.0079 231.886 58.9379 232.194 58.8819C232.292 59.1619 232.39 59.4699 232.46 59.7779L233.244 59.3019C233.076 58.2379 232.306 57.1599 232.306 57.1599L231.536 57.5239ZM224.41 56.1659C224.914 56.6279 225.32 57.1179 225.544 57.4259C225.278 57.8039 224.984 58.2099 224.676 58.5879H224.382L224.466 58.8959C223.99 58.2659 223.64 57.5799 223.486 57.2299H224.41V56.1659ZM226.552 57.6499C226.678 57.9019 226.762 58.1399 226.846 58.3779C226.552 58.4339 226.174 58.4759 225.768 58.5179C226.566 57.5099 227.378 56.3479 227.518 56.1379C227.588 56.1519 227.658 56.1659 227.7 56.1659C227.728 56.1659 227.756 56.1519 227.784 56.1519C227.84 57.6639 227.98 58.9799 228.19 60.0999H224.172V61.1779H225.278C225.264 62.1159 225.208 63.9359 223.402 65.2239V63.2359C223.402 62.6899 223.318 59.7359 223.29 58.2939C223.43 58.7419 223.64 59.3299 223.85 59.7639C223.864 59.7919 223.892 59.8059 223.906 59.8059C223.92 59.8059 223.92 59.8059 223.934 59.7919C224.074 59.6799 224.382 59.5399 224.606 59.4559L224.634 59.5539C224.676 59.7219 224.732 59.7779 224.788 59.7779C224.872 59.7779 224.942 59.6519 224.97 59.5119C225.824 59.3999 226.524 59.2739 227.042 59.1759C227.07 59.3579 227.098 59.5679 227.126 59.7779L227.924 59.4139C227.77 58.1819 227.308 57.3839 227.308 57.3839L226.552 57.6499Z" fill="#02007C"/>
<path d="M246.25 53.8279H241.532V57.4399C241.14 57.3139 240.566 57.1459 240.524 57.1459C240.468 57.2719 240.398 57.3979 240.328 57.5239V53.8279H235.652V57.9019H236.842V57.3979H239.166V57.8459H240.146C239.964 58.1259 239.768 58.3919 239.558 58.6579H234.728V59.8199L238.536 59.7919C237.374 60.7719 235.862 61.5139 234.21 61.9899C234.21 61.9899 235.162 62.6059 235.4 62.9139C235.414 62.9279 235.442 62.9419 235.456 62.9419C235.484 62.9419 235.498 62.9279 235.512 62.9279C235.666 62.8719 235.806 62.8019 235.96 62.7459L235.932 65.9799H237.136V65.3779H239.166V65.9099H240.328V61.2479H238.48C239.124 60.7719 239.684 60.2679 240.16 59.7779H241.77C242.162 60.2119 242.75 60.7299 243.506 61.2479H241.546V65.9799H242.694V65.3779H244.948V65.9099H246.166L246.138 62.5919C246.25 62.6199 246.362 62.6619 246.474 62.7039C246.488 62.7039 246.502 62.7179 246.516 62.7179C246.53 62.7179 246.558 62.7039 246.572 62.6759C246.81 62.3119 247.72 61.6259 247.72 61.6259C245.55 61.1499 244.234 60.4359 243.394 59.7919L247.132 59.8199V58.6579H241.042C241.252 58.3779 241.42 58.1119 241.56 57.8879H242.68V57.3839H245.074V57.8319H246.25V53.8279ZM245.074 54.8779V56.3899H242.68V54.8779H245.074ZM239.18 54.8779L239.166 56.4039H236.842V54.8779H239.18ZM244.948 62.2979V64.2999H242.694V62.2979H244.948ZM239.166 62.2979V64.2999H237.136V62.2979H239.166Z" fill="#02007C"/>
<path d="M261.202 55.8019H259.62C259.844 55.3539 260.11 54.7659 260.348 54.1779C260.39 54.1779 260.432 54.1779 260.46 54.1779C260.712 54.1779 260.81 54.1219 260.81 54.0379C260.81 53.9679 260.74 53.8839 260.6 53.8279C260.292 53.6879 259.2 53.4079 259.2 53.4079C258.92 54.5139 258.514 55.4519 258.346 55.8019H256.75L257.646 55.4239C257.296 54.4299 256.526 53.4919 256.526 53.4919L255.406 53.9119C255.406 53.9119 256.134 54.8639 256.442 55.8019H255.28V56.9919H257.366V58.5039H255.406V59.7079H257.366V61.3879H254.916V62.6199H257.366V66.0499H258.64V62.6199H261.398V61.3879H258.64V59.7079H260.782V58.5039H258.64V56.9919H261.202V55.8019ZM254.384 53.9119H249.064V54.9759H250.66L250.632 56.2359H248.518V57.3839H250.59C250.548 57.8179 250.506 58.2519 250.422 58.6719H249.022V59.7359H250.156C249.806 60.8979 249.19 61.9899 248.21 62.9279C248.21 62.9279 249.12 63.2219 249.4 63.4459C249.414 63.4599 249.428 63.4599 249.442 63.4599C249.47 63.4599 249.484 63.4459 249.498 63.4319C249.778 63.0959 250.044 62.7319 250.268 62.3679L250.198 65.9939H251.388V65.1959H253.348V65.8259H254.496V60.9539H250.996C251.15 60.5619 251.29 60.1419 251.416 59.7359H253.25V60.0439H254.384V57.3839H255.056V56.2359H254.384V53.9119ZM253.236 54.9759V56.2359H251.85L251.878 54.9759H253.236ZM253.236 57.3839V58.6719H251.654C251.724 58.2379 251.78 57.8179 251.808 57.3839H253.236ZM253.348 62.0739V64.0619H251.402L251.416 62.0739H253.348Z" fill="#02007C"/>
<path fill-rule="evenodd" clip-rule="evenodd" d="M485.343 231.929L491.707 238.293C492.098 238.684 492.098 239.317 491.707 239.707L485.343 246.071C484.953 246.462 484.319 246.462 483.929 246.071C483.538 245.681 483.538 245.048 483.929 244.657L488.586 240L325 240L325 238L488.586 238L483.929 233.343C483.538 232.953 483.538 232.32 483.929 231.929C484.319 231.539 484.953 231.539 485.343 231.929Z" fill="#2C48FF"/>
<path fill-rule="evenodd" clip-rule="evenodd" d="M625.343 231.929L631.707 238.293C632.098 238.684 632.098 239.317 631.707 239.707L625.343 246.071C624.953 246.462 624.319 246.462 623.929 246.071C623.538 245.681 623.538 245.048 623.929 244.657L628.586 240H553V238H628.586L623.929 233.343C623.538 232.953 623.538 232.32 623.929 231.929C624.319 231.539 624.953 231.539 625.343 231.929Z" fill="#2C48FF"/>
<path fill-rule="evenodd" clip-rule="evenodd" d="M765.343 231.929L771.707 238.293C772.098 238.684 772.098 239.317 771.707 239.707L765.343 246.071C764.953 246.462 764.319 246.462 763.929 246.071C763.538 245.681 763.538 245.048 763.929 244.657L768.586 240H693V238H768.586L763.929 233.343C763.538 232.953 763.538 232.32 763.929 231.929C764.319 231.539 764.953 231.539 765.343 231.929Z" fill="#2C48FF"/>
<path fill-rule="evenodd" clip-rule="evenodd" d="M257.343 231.929L263.707 238.293C264.098 238.684 264.098 239.317 263.707 239.707L257.343 246.071C256.953 246.462 256.319 246.462 255.929 246.071C255.538 245.681 255.538 245.048 255.929 244.657L260.586 240L154 240L154 238L260.586 238L255.929 233.343C255.538 232.953 255.538 232.32 255.929 231.929C256.319 231.539 256.953 231.539 257.343 231.929Z" fill="#2C48FF"/>
<path fill-rule="evenodd" clip-rule="evenodd" d="M115.457 125.094C114.555 125.094 113.821 124.359 113.821 123.457C113.821 122.555 114.555 121.82 115.457 121.82C116.36 121.82 117.094 122.555 117.094 123.457C117.094 124.359 116.36 125.094 115.457 125.094ZM122.489 128.852C123.391 128.852 124.125 129.586 124.125 130.488C124.125 131.391 123.391 132.125 122.489 132.125C121.586 132.125 120.852 131.391 120.852 130.488C120.852 129.586 121.586 128.852 122.489 128.852ZM110.305 135.641V131.488H119.009C119.448 133.006 120.833 134.125 122.489 134.125C124.493 134.125 126.125 132.493 126.125 130.488C126.125 128.483 124.493 126.852 122.489 126.852C120.833 126.852 119.448 127.971 119.009 129.488H110.305V118.305H127.641V122.457H118.937C118.498 120.939 117.114 119.82 115.457 119.82C113.452 119.82 111.821 121.452 111.821 123.457C111.821 125.462 113.452 127.094 115.457 127.094C117.114 127.094 118.498 125.975 118.937 124.457H127.641V135.641H110.305ZM109.305 116.305C108.752 116.305 108.305 116.752 108.305 117.305V136.641C108.305 137.193 108.752 137.641 109.305 137.641H128.641C129.194 137.641 129.641 137.193 129.641 136.641V117.305C129.641 116.752 129.194 116.305 128.641 116.305H109.305ZM134.67 141.537C134.67 142.163 134.161 142.672 133.535 142.672H104.41C103.784 142.672 103.276 142.163 103.276 141.537V112.423C103.276 111.797 103.784 111.288 104.41 111.288H133.535C134.161 111.288 134.67 111.797 134.67 112.423V141.537ZM140.946 117.426V115.426H136.67V112.423C136.67 110.694 135.264 109.288 133.535 109.288H130.52V105H128.52V109.288H125.246V105H123.246V109.288H119.973V105H117.973V109.288H114.699V105H112.699V109.288H109.426V105H107.426V109.288H104.41C102.682 109.288 101.276 110.694 101.276 112.423V115.426H97V117.426H101.276V120.699H97V122.699H101.276V125.973H97V127.973H101.276V131.246H97V133.246H101.276V136.52H97V138.52H101.276V141.537C101.276 143.266 102.682 144.672 104.41 144.672H107.426V148.945H109.426V144.672H112.699V148.945H114.699V144.672H117.973V148.945H119.973V144.672H123.246V148.945H125.246V144.672H128.52V148.945H130.52V144.672H133.535C135.264 144.672 136.67 143.266 136.67 141.537V138.52H140.946V136.52H136.67V133.246H140.946V131.246H136.67V127.973H140.946V125.973H136.67V122.699H140.946V120.699H136.67V117.426H140.946Z" fill="#6CAE3E"/>
<path fill-rule="evenodd" clip-rule="evenodd" d="M115.457 181.039C114.555 181.039 113.821 180.304 113.821 179.402C113.821 178.5 114.555 177.765 115.457 177.765C116.36 177.765 117.094 178.5 117.094 179.402C117.094 180.304 116.36 181.039 115.457 181.039ZM122.489 184.797C123.391 184.797 124.125 185.531 124.125 186.433C124.125 187.336 123.391 188.07 122.489 188.07C121.586 188.07 120.852 187.336 120.852 186.433C120.852 185.531 121.586 184.797 122.489 184.797ZM110.305 191.586V187.433H119.009C119.448 188.951 120.833 190.07 122.489 190.07C124.493 190.07 126.125 188.438 126.125 186.433C126.125 184.428 124.493 182.797 122.489 182.797C120.833 182.797 119.448 183.916 119.009 185.433H110.305V174.25H127.641V178.402H118.937C118.498 176.884 117.114 175.765 115.457 175.765C113.452 175.765 111.821 177.397 111.821 179.402C111.821 181.407 113.452 183.039 115.457 183.039C117.114 183.039 118.498 181.92 118.937 180.402H127.641V191.586H110.305ZM109.305 172.25C108.752 172.25 108.305 172.697 108.305 173.25V192.586C108.305 193.138 108.752 193.586 109.305 193.586H128.641C129.194 193.586 129.641 193.138 129.641 192.586V173.25C129.641 172.697 129.194 172.25 128.641 172.25H109.305ZM134.67 197.482C134.67 198.108 134.161 198.617 133.535 198.617H104.41C103.784 198.617 103.276 198.108 103.276 197.482V168.368C103.276 167.742 103.784 167.233 104.41 167.233H133.535C134.161 167.233 134.67 167.742 134.67 168.368V197.482ZM140.946 173.371V171.371H136.67V168.368C136.67 166.639 135.264 165.233 133.535 165.233H130.52V160.945H128.52V165.233H125.246V160.945H123.246V165.233H119.973V160.945H117.973V165.233H114.699V160.945H112.699V165.233H109.426V160.945H107.426V165.233H104.41C102.682 165.233 101.276 166.639 101.276 168.368V171.371H97V173.371H101.276V176.644H97V178.644H101.276V181.918H97V183.918H101.276V187.191H97V189.191H101.276V192.465H97V194.465H101.276V197.482C101.276 199.211 102.682 200.617 104.41 200.617H107.426V204.89H109.426V200.617H112.699V204.89H114.699V200.617H117.973V204.89H119.973V200.617H123.246V204.89H125.246V200.617H128.52V204.89H130.52V200.617H133.535C135.264 200.617 136.67 199.211 136.67 197.482V194.465H140.946V192.465H136.67V189.191H140.946V187.191H136.67V183.918H140.946V181.918H136.67V178.644H140.946V176.644H136.67V173.371H140.946Z" fill="#6CAE3E"/>
<path fill-rule="evenodd" clip-rule="evenodd" d="M115.457 236.984C114.555 236.984 113.821 236.249 113.821 235.347C113.821 234.445 114.555 233.71 115.457 233.71C116.36 233.71 117.094 234.445 117.094 235.347C117.094 236.249 116.36 236.984 115.457 236.984ZM122.489 240.742C123.391 240.742 124.125 241.476 124.125 242.378C124.125 243.281 123.391 244.015 122.489 244.015C121.586 244.015 120.852 243.281 120.852 242.378C120.852 241.476 121.586 240.742 122.489 240.742ZM110.305 247.531V243.378H119.009C119.448 244.896 120.833 246.015 122.489 246.015C124.493 246.015 126.125 244.383 126.125 242.378C126.125 240.373 124.493 238.742 122.489 238.742C120.833 238.742 119.448 239.861 119.009 241.378H110.305V230.195H127.641V234.347H118.937C118.498 232.829 117.114 231.71 115.457 231.71C113.452 231.71 111.821 233.342 111.821 235.347C111.821 237.352 113.452 238.984 115.457 238.984C117.114 238.984 118.498 237.865 118.937 236.347H127.641V247.531H110.305ZM109.305 228.195C108.752 228.195 108.305 228.642 108.305 229.195V248.531C108.305 249.083 108.752 249.531 109.305 249.531H128.641C129.194 249.531 129.641 249.083 129.641 248.531V229.195C129.641 228.642 129.194 228.195 128.641 228.195H109.305ZM134.67 253.427C134.67 254.053 134.161 254.562 133.535 254.562H104.41C103.784 254.562 103.276 254.053 103.276 253.427V224.313C103.276 223.687 103.784 223.178 104.41 223.178H133.535C134.161 223.178 134.67 223.687 134.67 224.313V253.427ZM140.946 229.316V227.316H136.67V224.313C136.67 222.584 135.264 221.178 133.535 221.178H130.52V216.89H128.52V221.178H125.246V216.89H123.246V221.178H119.973V216.89H117.973V221.178H114.699V216.89H112.699V221.178H109.426V216.89H107.426V221.178H104.41C102.682 221.178 101.276 222.584 101.276 224.313V227.316H97V229.316H101.276V232.589H97V234.589H101.276V237.863H97V239.863H101.276V243.136H97V245.136H101.276V248.41H97V250.41H101.276V253.427C101.276 255.156 102.682 256.562 104.41 256.562H107.426V260.835H109.426V256.562H112.699V260.835H114.699V256.562H117.973V260.835H119.973V256.562H123.246V260.835H125.246V256.562H128.52V260.835H130.52V256.562H133.535C135.264 256.562 136.67 255.156 136.67 253.427V250.41H140.946V248.41H136.67V245.136H140.946V243.136H136.67V239.863H140.946V237.863H136.67V234.589H140.946V232.589H136.67V229.316H140.946Z" fill="#6CAE3E"/>
<path fill-rule="evenodd" clip-rule="evenodd" d="M115.457 292.929C114.555 292.929 113.821 292.194 113.821 291.292C113.821 290.39 114.555 289.655 115.457 289.655C116.36 289.655 117.094 290.39 117.094 291.292C117.094 292.194 116.36 292.929 115.457 292.929ZM122.489 296.687C123.391 296.687 124.125 297.421 124.125 298.323C124.125 299.226 123.391 299.96 122.489 299.96C121.586 299.96 120.852 299.226 120.852 298.323C120.852 297.421 121.586 296.687 122.489 296.687ZM110.305 303.476V299.323H119.009C119.448 300.841 120.833 301.96 122.489 301.96C124.493 301.96 126.125 300.328 126.125 298.323C126.125 296.318 124.493 294.687 122.489 294.687C120.833 294.687 119.448 295.806 119.009 297.323H110.305V286.14H127.641V290.292H118.937C118.498 288.774 117.114 287.655 115.457 287.655C113.452 287.655 111.821 289.287 111.821 291.292C111.821 293.297 113.452 294.929 115.457 294.929C117.114 294.929 118.498 293.81 118.937 292.292H127.641V303.476H110.305ZM109.305 284.14C108.752 284.14 108.305 284.587 108.305 285.14V304.476C108.305 305.028 108.752 305.476 109.305 305.476H128.641C129.194 305.476 129.641 305.028 129.641 304.476V285.14C129.641 284.587 129.194 284.14 128.641 284.14H109.305ZM134.67 309.372C134.67 309.998 134.161 310.507 133.535 310.507H104.41C103.784 310.507 103.276 309.998 103.276 309.372V280.258C103.276 279.632 103.784 279.123 104.41 279.123H133.535C134.161 279.123 134.67 279.632 134.67 280.258V309.372ZM140.946 285.261V283.261H136.67V280.258C136.67 278.529 135.264 277.123 133.535 277.123H130.52V272.835H128.52V277.123H125.246V272.835H123.246V277.123H119.973V272.835H117.973V277.123H114.699V272.835H112.699V277.123H109.426V272.835H107.426V277.123H104.41C102.682 277.123 101.276 278.529 101.276 280.258V283.261H97V285.261H101.276V288.534H97V290.534H101.276V293.808H97V295.808H101.276V299.081H97V301.081H101.276V304.355H97V306.355H101.276V309.372C101.276 311.101 102.682 312.507 104.41 312.507H107.426V316.78H109.426V312.507H112.699V316.78H114.699V312.507H117.973V316.78H119.973V312.507H123.246V316.78H125.246V312.507H128.52V316.78H130.52V312.507H133.535C135.264 312.507 136.67 311.101 136.67 309.372V306.355H140.946V304.355H136.67V301.081H140.946V299.081H136.67V295.808H140.946V293.808H136.67V290.534H140.946V288.534H136.67V285.261H140.946Z" fill="#6CAE3E"/>
<path fill-rule="evenodd" clip-rule="evenodd" d="M115.457 348.874C114.555 348.874 113.821 348.139 113.821 347.237C113.821 346.335 114.555 345.6 115.457 345.6C116.36 345.6 117.094 346.335 117.094 347.237C117.094 348.139 116.36 348.874 115.457 348.874ZM122.489 352.632C123.391 352.632 124.125 353.366 124.125 354.268C124.125 355.171 123.391 355.905 122.489 355.905C121.586 355.905 120.852 355.171 120.852 354.268C120.852 353.366 121.586 352.632 122.489 352.632ZM110.305 359.421V355.268H119.009C119.448 356.786 120.833 357.905 122.489 357.905C124.493 357.905 126.125 356.273 126.125 354.268C126.125 352.263 124.493 350.632 122.489 350.632C120.833 350.632 119.448 351.751 119.009 353.268H110.305V342.085H127.641V346.237H118.937C118.498 344.719 117.114 343.6 115.457 343.6C113.452 343.6 111.821 345.232 111.821 347.237C111.821 349.242 113.452 350.874 115.457 350.874C117.114 350.874 118.498 349.755 118.937 348.237H127.641V359.421H110.305ZM109.305 340.085C108.752 340.085 108.305 340.532 108.305 341.085V360.421C108.305 360.973 108.752 361.421 109.305 361.421H128.641C129.194 361.421 129.641 360.973 129.641 360.421V341.085C129.641 340.532 129.194 340.085 128.641 340.085H109.305ZM134.67 365.317C134.67 365.943 134.161 366.452 133.535 366.452H104.41C103.784 366.452 103.276 365.943 103.276 365.317V336.203C103.276 335.577 103.784 335.068 104.41 335.068H133.535C134.161 335.068 134.67 335.577 134.67 336.203V365.317ZM140.946 341.206V339.206H136.67V336.203C136.67 334.474 135.264 333.068 133.535 333.068H130.52V328.78H128.52V333.068H125.246V328.78H123.246V333.068H119.973V328.78H117.973V333.068H114.699V328.78H112.699V333.068H109.426V328.78H107.426V333.068H104.41C102.682 333.068 101.276 334.474 101.276 336.203V339.206H97V341.206H101.276V344.479H97V346.479H101.276V349.753H97V351.753H101.276V355.026H97V357.026H101.276V360.3H97V362.3H101.276V365.317C101.276 367.046 102.682 368.452 104.41 368.452H107.426V372.725H109.426V368.452H112.699V372.725H114.699V368.452H117.973V372.725H119.973V368.452H123.246V372.725H125.246V368.452H128.52V372.725H130.52V368.452H133.535C135.264 368.452 136.67 367.046 136.67 365.317V362.3H140.946V360.3H136.67V357.026H140.946V355.026H136.67V351.753H140.946V349.753H136.67V346.479H140.946V344.479H136.67V341.206H140.946Z" fill="#6CAE3E"/>
<path d="M274.062 278.928H272.538L268.962 288.18H270.57L271.518 285.564H275.058L276.018 288.18H277.614L274.062 278.928ZM272.922 281.448C273.042 281.112 273.174 280.74 273.282 280.32C273.402 280.728 273.558 281.196 273.654 281.448L274.698 284.34H271.878L272.922 281.448Z" fill="#60759F"/>
<path d="M289.366 279.036H287.818L286.366 284.844C286.27 285.216 286.126 285.96 286.042 286.512C285.97 286.032 285.826 285.348 285.718 284.964L284.17 279.204H282.586L281.038 285.036C280.942 285.408 280.798 286.092 280.738 286.596C280.654 286.044 280.51 285.3 280.414 284.916L278.89 279.036H277.318L279.934 288.252H281.422L283.018 282.528C283.114 282.18 283.246 281.448 283.366 280.824C283.462 281.388 283.606 282.06 283.702 282.408L285.286 288.252H286.774L289.366 279.036Z" fill="#60759F"/>
<path d="M296.63 281.556C296.606 279.924 295.238 278.832 293.402 278.832C291.638 278.832 290.27 279.864 290.27 281.424C290.27 282.804 291.374 283.452 292.514 283.752C294.11 284.172 295.262 284.496 295.262 285.636C295.262 286.656 294.338 287.088 293.594 287.088C292.598 287.088 291.578 286.74 291.506 285.18H289.91C290.03 287.664 291.854 288.336 293.57 288.336C295.226 288.336 296.834 287.412 296.834 285.624C296.834 283.884 295.514 283.2 294.158 282.84C293.81 282.744 293.462 282.624 293.126 282.54C292.19 282.3 291.746 281.964 291.746 281.316C291.746 280.476 292.538 280.056 293.318 280.056C294.242 280.056 295.01 280.416 295.118 281.556H296.63Z" fill="#60759F"/>
<path d="M303.484 279.036H301.96V288.18H303.484V279.036Z" fill="#60759F"/>
<path d="M308.294 281.556C306.326 281.556 305.018 282.972 305.018 284.94C305.018 286.692 306.086 288.384 308.294 288.384C310.49 288.384 311.546 286.692 311.546 284.94C311.546 282.972 310.25 281.556 308.294 281.556ZM308.294 282.636C309.542 282.636 310.118 283.824 310.118 284.892C310.118 286.164 309.482 287.28 308.294 287.28C307.094 287.28 306.458 286.164 306.458 284.892C306.458 283.824 307.022 282.636 308.294 282.636Z" fill="#60759F"/>
<path d="M319.921 279.036H312.313V280.308H315.349V288.18H316.873V280.308H319.921V279.036Z" fill="#60759F"/>
<path d="M269.99 294.784C269.834 292.924 268.334 291.856 266.246 291.856C263.174 291.856 261.842 294.424 261.842 296.608C261.842 298.636 262.946 301.336 266.33 301.336C267.974 301.336 269.234 300.712 269.918 299.848V296.236H266.174V297.484H268.526V299.284C268.118 299.752 267.326 300.04 266.51 300.04C264.194 300.04 263.378 298.324 263.378 296.584C263.378 294.94 264.302 293.128 266.186 293.128C267.626 293.128 268.31 293.8 268.454 294.784H269.99Z" fill="#60759F"/>
<path d="M274.997 294.592C274.241 294.604 273.209 294.976 272.825 295.624V294.772H271.481V301.18H272.861V297.052C273.065 296.284 274.121 295.816 275.237 295.816C275.273 295.816 275.321 295.816 275.357 295.816L274.997 294.592Z" fill="#60759F"/>
<path d="M281.988 297.712C281.988 295.792 280.776 294.556 278.952 294.556C276.96 294.556 275.82 296.176 275.82 298.072C275.82 300.088 277.068 301.348 279 301.348C280.716 301.348 281.808 300.4 282.012 298.96H280.596C280.464 299.764 279.852 300.208 278.976 300.208C277.824 300.208 277.128 299.392 277.128 298.204C277.128 298.156 277.128 298.108 277.128 298.06H281.988V297.712ZM277.224 297.052C277.344 296.32 277.992 295.624 278.94 295.624C280.008 295.624 280.548 296.344 280.608 297.052H277.224Z" fill="#60759F"/>
<path d="M289.125 297.712C289.125 295.792 287.913 294.556 286.089 294.556C284.097 294.556 282.957 296.176 282.957 298.072C282.957 300.088 284.205 301.348 286.137 301.348C287.853 301.348 288.945 300.4 289.149 298.96H287.733C287.601 299.764 286.989 300.208 286.113 300.208C284.961 300.208 284.265 299.392 284.265 298.204C284.265 298.156 284.265 298.108 284.265 298.06H289.125V297.712ZM284.361 297.052C284.481 296.32 285.129 295.624 286.077 295.624C287.145 295.624 287.685 296.344 287.745 297.052H284.361Z" fill="#60759F"/>
<path d="M296.106 297.004C296.106 295.732 295.41 294.604 293.67 294.604C292.722 294.604 292.098 295.048 291.822 295.444V294.772H290.454V301.18H291.846V297.112C291.942 296.452 292.578 295.72 293.394 295.72C294.558 295.72 294.714 296.536 294.714 297.22V301.18H296.106V297.004Z" fill="#60759F"/>
<path d="M303.526 294.232C302.494 294.232 301.882 294.484 301.618 294.904C301.294 294.724 300.802 294.628 300.346 294.628C298.558 294.628 297.694 295.72 297.694 296.872C297.694 297.604 297.982 298.204 298.486 298.504C297.874 298.804 297.658 299.2 297.658 299.656C297.658 300.208 298.09 300.496 298.546 300.664C297.742 301.06 297.334 301.504 297.334 302.2C297.334 303.376 298.798 303.988 300.394 303.988C302.398 303.988 303.718 303.148 303.718 301.864C303.718 300.496 302.482 300.148 300.862 300.016C300.118 299.956 299.686 299.944 299.398 299.884C299.05 299.824 298.918 299.692 298.918 299.464C298.918 299.26 299.35 299.032 299.626 299.032C299.878 299.092 300.142 299.128 300.514 299.128C302.074 299.128 302.998 298.132 302.998 296.932C302.998 296.416 302.794 295.9 302.482 295.564C302.59 295.396 302.998 295.312 303.502 295.312C303.586 295.312 303.682 295.324 303.778 295.324L303.526 294.232ZM301.75 296.884C301.75 297.628 301.198 298.144 300.406 298.144C299.542 298.144 298.966 297.748 298.966 296.92C298.966 296.128 299.506 295.636 300.37 295.636C301.186 295.636 301.75 296.176 301.75 296.884ZM302.41 301.864C302.41 302.452 301.654 302.932 300.394 302.932C299.206 302.932 298.666 302.536 298.666 302.02C298.666 301.456 299.29 301 299.95 301C300.034 301 300.106 301 300.19 301C301.498 301 302.41 301.192 302.41 301.864Z" fill="#60759F"/>
<path d="M308.36 294.592C307.604 294.604 306.572 294.976 306.188 295.624V294.772H304.844V301.18H306.224V297.052C306.428 296.284 307.484 295.816 308.6 295.816C308.636 295.816 308.684 295.816 308.72 295.816L308.36 294.592Z" fill="#60759F"/>
<path d="M314.475 296.944C314.475 296.932 314.475 296.92 314.475 296.896C314.475 295.744 313.995 294.568 312.039 294.568C310.467 294.568 309.591 295.564 309.447 296.62H310.791C310.851 296.056 311.307 295.624 312.099 295.624C313.023 295.624 313.215 296.296 313.215 297.04C313.215 297.064 313.215 297.088 313.215 297.112C312.423 297.292 310.815 297.34 309.999 297.88C309.495 298.216 309.147 298.72 309.147 299.464C309.147 300.964 310.419 301.312 311.343 301.312C312.267 301.312 312.951 300.868 313.275 300.388C313.275 300.58 313.371 300.952 313.491 301.18H314.847C314.643 300.76 314.463 300.196 314.463 299.38L314.475 296.944ZM313.215 298.912C313.107 299.752 312.303 300.28 311.451 300.28C310.971 300.28 310.455 300.124 310.455 299.416C310.455 299.404 310.455 299.38 310.455 299.368C310.455 299.032 310.647 298.816 310.863 298.648C311.319 298.3 312.603 298.204 313.215 298.096V298.912Z" fill="#60759F"/>
<path d="M320.929 296.584C320.893 295.312 319.813 294.58 318.421 294.58C317.077 294.58 315.997 295.336 315.997 296.524C315.997 297.652 316.909 298.06 317.809 298.252C319.057 298.516 319.681 298.696 319.681 299.356C319.681 299.98 319.093 300.256 318.565 300.256C317.917 300.256 317.161 300.064 317.113 299.068L315.673 299.08C315.805 300.904 317.305 301.336 318.541 301.336C319.789 301.336 321.085 300.652 321.085 299.296C321.085 297.856 319.669 297.508 318.217 297.22C317.581 297.088 317.305 296.848 317.305 296.44C317.305 295.9 317.809 295.636 318.361 295.636C318.997 295.636 319.525 295.852 319.585 296.584H320.929Z" fill="#60759F"/>
<path d="M327.163 296.584C327.127 295.312 326.047 294.58 324.655 294.58C323.311 294.58 322.231 295.336 322.231 296.524C322.231 297.652 323.143 298.06 324.043 298.252C325.291 298.516 325.915 298.696 325.915 299.356C325.915 299.98 325.327 300.256 324.799 300.256C324.151 300.256 323.395 300.064 323.347 299.068L321.907 299.08C322.039 300.904 323.539 301.336 324.775 301.336C326.023 301.336 327.319 300.652 327.319 299.296C327.319 297.856 325.903 297.508 324.451 297.22C323.815 297.088 323.539 296.848 323.539 296.44C323.539 295.9 324.043 295.636 324.595 295.636C325.231 295.636 325.759 295.852 325.819 296.584H327.163Z" fill="#60759F"/>
<path d="M486.349 279.928H484.825L481.249 289.18H482.857L483.805 286.564H487.345L488.305 289.18H489.901L486.349 279.928ZM485.209 282.448C485.329 282.112 485.461 281.74 485.569 281.32C485.689 281.728 485.845 282.196 485.941 282.448L486.985 285.34H484.165L485.209 282.448Z" fill="#60759F"/>
<path d="M501.653 280.036H500.105L498.653 285.844C498.557 286.216 498.413 286.96 498.329 287.512C498.257 287.032 498.113 286.348 498.005 285.964L496.457 280.204H494.873L493.325 286.036C493.229 286.408 493.085 287.092 493.025 287.596C492.941 287.044 492.797 286.3 492.701 285.916L491.177 280.036H489.605L492.221 289.252H493.709L495.305 283.528C495.401 283.18 495.533 282.448 495.653 281.824C495.749 282.388 495.893 283.06 495.989 283.408L497.573 289.252H499.061L501.653 280.036Z" fill="#60759F"/>
<path d="M508.917 282.556C508.893 280.924 507.525 279.832 505.689 279.832C503.925 279.832 502.557 280.864 502.557 282.424C502.557 283.804 503.661 284.452 504.801 284.752C506.397 285.172 507.549 285.496 507.549 286.636C507.549 287.656 506.625 288.088 505.881 288.088C504.885 288.088 503.865 287.74 503.793 286.18H502.197C502.317 288.664 504.141 289.336 505.857 289.336C507.513 289.336 509.121 288.412 509.121 286.624C509.121 284.884 507.801 284.2 506.445 283.84C506.097 283.744 505.749 283.624 505.413 283.54C504.477 283.3 504.033 282.964 504.033 282.316C504.033 281.476 504.825 281.056 505.605 281.056C506.529 281.056 507.297 281.416 507.405 282.556H508.917Z" fill="#60759F"/>
<path d="M515.771 280.036H514.247V289.18H515.771V280.036Z" fill="#60759F"/>
<path d="M520.581 282.556C518.613 282.556 517.305 283.972 517.305 285.94C517.305 287.692 518.373 289.384 520.581 289.384C522.777 289.384 523.833 287.692 523.833 285.94C523.833 283.972 522.537 282.556 520.581 282.556ZM520.581 283.636C521.829 283.636 522.405 284.824 522.405 285.892C522.405 287.164 521.769 288.28 520.581 288.28C519.381 288.28 518.745 287.164 518.745 285.892C518.745 284.824 519.309 283.636 520.581 283.636Z" fill="#60759F"/>
<path d="M532.208 280.036H524.6V281.308H527.636V289.18H529.16V281.308H532.208V280.036Z" fill="#60759F"/>
<path d="M545.055 283.024C544.803 280.912 542.907 279.844 541.107 279.844C538.167 279.844 536.715 282.304 536.715 284.692C536.715 287.236 538.275 289.348 541.119 289.348C544.275 289.348 544.947 287.032 545.127 286.096H543.519C543.147 287.752 541.887 288.004 541.119 288.004C539.211 288.004 538.275 286.456 538.275 284.62C538.275 282.808 539.307 281.128 541.143 281.128C542.235 281.128 543.255 281.776 543.471 283.024H545.055Z" fill="#60759F"/>
<path d="M549.292 282.556C547.324 282.556 546.016 283.972 546.016 285.94C546.016 287.692 547.084 289.384 549.292 289.384C551.488 289.384 552.544 287.692 552.544 285.94C552.544 283.972 551.248 282.556 549.292 282.556ZM549.292 283.636C550.54 283.636 551.116 284.824 551.116 285.892C551.116 287.164 550.48 288.28 549.292 288.28C548.092 288.28 547.456 287.164 547.456 285.892C547.456 284.824 548.02 283.636 549.292 283.636Z" fill="#60759F"/>
<path d="M557.415 282.592C556.659 282.604 555.627 282.976 555.243 283.624V282.772H553.899V289.18H555.279V285.052C555.483 284.284 556.539 283.816 557.655 283.816C557.691 283.816 557.739 283.816 557.775 283.816L557.415 282.592Z" fill="#60759F"/>
<path d="M564.406 285.712C564.406 283.792 563.194 282.556 561.37 282.556C559.378 282.556 558.238 284.176 558.238 286.072C558.238 288.088 559.486 289.348 561.418 289.348C563.134 289.348 564.226 288.4 564.43 286.96H563.014C562.882 287.764 562.27 288.208 561.394 288.208C560.242 288.208 559.546 287.392 559.546 286.204C559.546 286.156 559.546 286.108 559.546 286.06H564.406V285.712ZM559.642 285.052C559.762 284.32 560.41 283.624 561.358 283.624C562.426 283.624 562.966 284.344 563.026 285.052H559.642Z" fill="#60759F"/>
<path d="M642.562 278.928H641.038L637.462 288.18H639.07L640.018 285.564H643.558L644.518 288.18H646.114L642.562 278.928ZM641.422 281.448C641.542 281.112 641.674 280.74 641.782 280.32C641.902 280.728 642.058 281.196 642.154 281.448L643.198 284.34H640.378L641.422 281.448Z" fill="#60759F"/>
<path d="M657.866 279.036H656.318L654.866 284.844C654.77 285.216 654.626 285.96 654.542 286.512C654.47 286.032 654.326 285.348 654.218 284.964L652.67 279.204H651.086L649.538 285.036C649.442 285.408 649.298 286.092 649.238 286.596C649.154 286.044 649.01 285.3 648.914 284.916L647.39 279.036H645.818L648.434 288.252H649.922L651.518 282.528C651.614 282.18 651.746 281.448 651.866 280.824C651.962 281.388 652.106 282.06 652.202 282.408L653.786 288.252H655.274L657.866 279.036Z" fill="#60759F"/>
<path d="M665.13 281.556C665.106 279.924 663.738 278.832 661.902 278.832C660.138 278.832 658.77 279.864 658.77 281.424C658.77 282.804 659.874 283.452 661.014 283.752C662.61 284.172 663.762 284.496 663.762 285.636C663.762 286.656 662.838 287.088 662.094 287.088C661.098 287.088 660.078 286.74 660.006 285.18H658.41C658.53 287.664 660.354 288.336 662.07 288.336C663.726 288.336 665.334 287.412 665.334 285.624C665.334 283.884 664.014 283.2 662.658 282.84C662.31 282.744 661.962 282.624 661.626 282.54C660.69 282.3 660.246 281.964 660.246 281.316C660.246 280.476 661.038 280.056 661.818 280.056C662.742 280.056 663.51 280.416 663.618 281.556H665.13Z" fill="#60759F"/>
<path d="M671.984 279.036H670.46V288.18H671.984V279.036Z" fill="#60759F"/>
<path d="M676.794 281.556C674.826 281.556 673.518 282.972 673.518 284.94C673.518 286.692 674.586 288.384 676.794 288.384C678.99 288.384 680.046 286.692 680.046 284.94C680.046 282.972 678.75 281.556 676.794 281.556ZM676.794 282.636C678.042 282.636 678.618 283.824 678.618 284.892C678.618 286.164 677.982 287.28 676.794 287.28C675.594 287.28 674.958 286.164 674.958 284.892C674.958 283.824 675.522 282.636 676.794 282.636Z" fill="#60759F"/>
<path d="M688.421 279.036H680.813V280.308H683.849V288.18H685.373V280.308H688.421V279.036Z" fill="#60759F"/>
<path d="M641.373 291.928H639.849L636.273 301.18H637.881L638.829 298.564H642.369L643.329 301.18H644.925L641.373 291.928ZM640.233 294.448C640.353 294.112 640.485 293.74 640.593 293.32C640.713 293.728 640.869 294.196 640.965 294.448L642.009 297.34H639.189L640.233 294.448Z" fill="#60759F"/>
<path d="M651.563 297.004C651.563 295.732 650.867 294.604 649.127 294.604C648.179 294.604 647.555 295.048 647.279 295.444V294.772H645.911V301.18H647.303V297.112C647.399 296.452 648.035 295.72 648.851 295.72C650.015 295.72 650.171 296.536 650.171 297.22V301.18H651.563V297.004Z" fill="#60759F"/>
<path d="M658.143 296.944C658.143 296.932 658.143 296.92 658.143 296.896C658.143 295.744 657.663 294.568 655.707 294.568C654.135 294.568 653.259 295.564 653.115 296.62H654.459C654.519 296.056 654.975 295.624 655.767 295.624C656.691 295.624 656.883 296.296 656.883 297.04C656.883 297.064 656.883 297.088 656.883 297.112C656.091 297.292 654.483 297.34 653.667 297.88C653.163 298.216 652.815 298.72 652.815 299.464C652.815 300.964 654.087 301.312 655.011 301.312C655.935 301.312 656.619 300.868 656.943 300.388C656.943 300.58 657.039 300.952 657.159 301.18H658.515C658.311 300.76 658.131 300.196 658.131 299.38L658.143 296.944ZM656.883 298.912C656.775 299.752 655.971 300.28 655.119 300.28C654.639 300.28 654.123 300.124 654.123 299.416C654.123 299.404 654.123 299.38 654.123 299.368C654.123 299.032 654.315 298.816 654.531 298.648C654.987 298.3 656.271 298.204 656.883 298.096V298.912Z" fill="#60759F"/>
<path d="M661.213 292.036H659.833V301.18H661.213V292.036Z" fill="#60759F"/>
<path d="M667.102 294.772C666.85 295.684 666.01 298.42 665.83 298.984C665.77 299.152 665.674 299.5 665.65 299.632C665.602 299.464 665.506 299.152 665.446 298.984L663.826 294.772H662.29L664.966 300.94C664.426 302.812 663.562 302.848 662.878 302.848C662.746 302.848 662.614 302.848 662.458 302.836L663.082 304C663.118 304 663.142 304 663.178 304C664.606 304 665.278 303.448 665.806 302.236C666.826 299.908 667.666 297.352 668.578 294.772H667.102Z" fill="#60759F"/>
<path d="M673.266 294.784H671.418V292.948H670.05V294.784H668.946V295.828H670.05V299.428C670.05 300.64 670.866 301.204 672.222 301.216C672.882 301.228 672.942 301.216 673.014 301.204L673.59 300.052C673.458 300.064 672.786 300.1 672.534 300.1C672.498 300.1 672.474 300.1 672.462 300.1C671.694 300.1 671.418 299.848 671.418 299.044V295.828H673.266V294.784Z" fill="#60759F"/>
<path d="M675.911 292.024H674.327V293.5H675.911V292.024ZM675.815 294.772H674.435V301.18H675.815V294.772Z" fill="#60759F"/>
<path d="M683.167 296.824C683.119 295.732 682.123 294.556 680.467 294.556C678.187 294.556 677.203 296.368 677.203 297.952C677.203 299.692 678.139 301.348 680.479 301.348C682.135 301.348 683.119 300.4 683.275 299.032H681.859C681.739 299.764 681.223 300.22 680.443 300.22C679.099 300.22 678.595 299.128 678.595 297.964C678.595 296.764 679.195 295.696 680.431 295.696C681.211 295.696 681.703 296.2 681.799 296.824H683.167Z" fill="#60759F"/>
<path d="M689.253 296.584C689.217 295.312 688.137 294.58 686.745 294.58C685.401 294.58 684.321 295.336 684.321 296.524C684.321 297.652 685.233 298.06 686.133 298.252C687.381 298.516 688.005 298.696 688.005 299.356C688.005 299.98 687.417 300.256 686.889 300.256C686.241 300.256 685.485 300.064 685.437 299.068L683.997 299.08C684.129 300.904 685.629 301.336 686.865 301.336C688.113 301.336 689.409 300.652 689.409 299.296C689.409 297.856 687.993 297.508 686.541 297.22C685.905 297.088 685.629 296.848 685.629 296.44C685.629 295.9 686.133 295.636 686.685 295.636C687.321 295.636 687.849 295.852 687.909 296.584H689.253Z" fill="#60759F"/>
<path d="M784.531 278.928H783.007L779.431 288.18H781.039L781.987 285.564H785.527L786.487 288.18H788.083L784.531 278.928ZM783.391 281.448C783.511 281.112 783.643 280.74 783.751 280.32C783.871 280.728 784.027 281.196 784.123 281.448L785.167 284.34H782.347L783.391 281.448Z" fill="#60759F"/>
<path d="M798.525 284.016C798.525 282.744 797.877 281.604 796.137 281.604C795.585 281.604 794.757 281.736 794.133 282.588C793.689 281.952 793.137 281.604 792.177 281.604C791.397 281.604 790.737 281.988 790.425 282.456L790.437 281.772H789.069V288.18H790.449V284.136C790.545 283.476 791.085 282.72 791.889 282.72C793.041 282.72 793.125 283.536 793.125 284.22V288.18H794.505V283.968C794.649 283.368 795.129 282.72 795.909 282.72C797.061 282.72 797.145 283.512 797.145 284.22V288.18H798.525V284.016Z" fill="#60759F"/>
<path d="M805.087 283.944C805.087 283.932 805.087 283.92 805.087 283.896C805.087 282.744 804.607 281.568 802.651 281.568C801.079 281.568 800.203 282.564 800.059 283.62H801.403C801.463 283.056 801.919 282.624 802.711 282.624C803.635 282.624 803.827 283.296 803.827 284.04C803.827 284.064 803.827 284.088 803.827 284.112C803.035 284.292 801.427 284.34 800.611 284.88C800.107 285.216 799.759 285.72 799.759 286.464C799.759 287.964 801.031 288.312 801.955 288.312C802.879 288.312 803.563 287.868 803.887 287.388C803.887 287.58 803.983 287.952 804.103 288.18H805.459C805.255 287.76 805.075 287.196 805.075 286.38L805.087 283.944ZM803.827 285.912C803.719 286.752 802.915 287.28 802.063 287.28C801.583 287.28 801.067 287.124 801.067 286.416C801.067 286.404 801.067 286.38 801.067 286.368C801.067 286.032 801.259 285.816 801.475 285.648C801.931 285.3 803.215 285.204 803.827 285.096V285.912Z" fill="#60759F"/>
<path d="M811.372 281.772H806.572V282.852H809.752L806.224 287.22V288.18H811.588V287.016H807.916L811.372 282.756V281.772Z" fill="#60759F"/>
<path d="M815.634 281.556C813.666 281.556 812.358 282.972 812.358 284.94C812.358 286.692 813.426 288.384 815.634 288.384C817.83 288.384 818.886 286.692 818.886 284.94C818.886 282.972 817.59 281.556 815.634 281.556ZM815.634 282.636C816.882 282.636 817.458 283.824 817.458 284.892C817.458 286.164 816.822 287.28 815.634 287.28C814.434 287.28 813.798 286.164 813.798 284.892C813.798 283.824 814.362 282.636 815.634 282.636Z" fill="#60759F"/>
<path d="M825.904 284.004C825.904 282.732 825.208 281.604 823.468 281.604C822.52 281.604 821.896 282.048 821.62 282.444V281.772H820.252V288.18H821.644V284.112C821.74 283.452 822.376 282.72 823.192 282.72C824.356 282.72 824.512 283.536 824.512 284.22V288.18H825.904V284.004Z" fill="#60759F"/>
<path d="M777.9 302.248C777.216 302.296 776.76 302.32 776.568 302.32C775.68 302.32 774.768 302.14 774.696 301.288C777.24 301 778.464 298.864 778.464 296.536C778.464 293.776 776.724 291.832 774.084 291.832C771.432 291.832 769.692 293.776 769.692 296.536C769.692 298.804 770.868 300.892 773.292 301.264C773.4 303.04 775.08 303.496 776.46 303.496C776.604 303.496 777.06 303.484 777.42 303.472L777.9 302.248ZM774.084 293.092C776.064 293.092 776.916 294.904 776.916 296.5C776.916 298.396 775.956 300.076 774.084 300.076C772.2 300.076 771.24 298.396 771.24 296.5C771.24 294.916 772.092 293.092 774.084 293.092Z" fill="#60759F"/>
<path d="M785.485 294.772H784.093V298.852C783.997 299.536 783.349 300.208 782.533 300.208C781.393 300.208 781.225 299.428 781.225 298.72V294.772H779.833V298.936C779.833 300.208 780.469 301.348 782.293 301.348C783.565 301.348 784.105 300.592 784.189 300.448C784.189 300.652 784.225 300.964 784.285 301.18H785.749C785.557 300.76 785.485 299.788 785.485 299.38V294.772Z" fill="#60759F"/>
<path d="M788.718 292.024H787.134V293.5H788.718V292.024ZM788.622 294.772H787.242V301.18H788.622V294.772Z" fill="#60759F"/>
<path d="M795.974 296.824C795.926 295.732 794.93 294.556 793.274 294.556C790.994 294.556 790.01 296.368 790.01 297.952C790.01 299.692 790.946 301.348 793.286 301.348C794.942 301.348 795.926 300.4 796.082 299.032H794.666C794.546 299.764 794.03 300.22 793.25 300.22C791.906 300.22 791.402 299.128 791.402 297.964C791.402 296.764 792.002 295.696 793.238 295.696C794.018 295.696 794.51 296.2 794.606 296.824H795.974Z" fill="#60759F"/>
<path d="M802.828 294.772H801.124L798.64 297.28V292.036H797.284V301.18H798.64V298.6L799.228 298.048L801.412 301.18H803.08L800.188 297.34L802.828 294.772Z" fill="#60759F"/>
<path d="M813.872 294.556C813.848 292.924 812.48 291.832 810.644 291.832C808.88 291.832 807.512 292.864 807.512 294.424C807.512 295.804 808.616 296.452 809.756 296.752C811.352 297.172 812.504 297.496 812.504 298.636C812.504 299.656 811.58 300.088 810.836 300.088C809.84 300.088 808.82 299.74 808.748 298.18H807.152C807.272 300.664 809.096 301.336 810.812 301.336C812.468 301.336 814.076 300.412 814.076 298.624C814.076 296.884 812.756 296.2 811.4 295.84C811.052 295.744 810.704 295.624 810.368 295.54C809.432 295.3 808.988 294.964 808.988 294.316C808.988 293.476 809.78 293.056 810.56 293.056C811.484 293.056 812.252 293.416 812.36 294.556H813.872Z" fill="#60759F"/>
<path d="M816.948 292.024H815.364V293.5H816.948V292.024ZM816.852 294.772H815.472V301.18H816.852V294.772Z" fill="#60759F"/>
<path d="M824.36 294.232C823.328 294.232 822.716 294.484 822.452 294.904C822.128 294.724 821.636 294.628 821.18 294.628C819.392 294.628 818.528 295.72 818.528 296.872C818.528 297.604 818.816 298.204 819.32 298.504C818.708 298.804 818.492 299.2 818.492 299.656C818.492 300.208 818.924 300.496 819.38 300.664C818.576 301.06 818.168 301.504 818.168 302.2C818.168 303.376 819.632 303.988 821.228 303.988C823.232 303.988 824.552 303.148 824.552 301.864C824.552 300.496 823.316 300.148 821.696 300.016C820.952 299.956 820.52 299.944 820.232 299.884C819.884 299.824 819.752 299.692 819.752 299.464C819.752 299.26 820.184 299.032 820.46 299.032C820.712 299.092 820.976 299.128 821.348 299.128C822.908 299.128 823.832 298.132 823.832 296.932C823.832 296.416 823.628 295.9 823.316 295.564C823.424 295.396 823.832 295.312 824.336 295.312C824.42 295.312 824.516 295.324 824.612 295.324L824.36 294.232ZM822.584 296.884C822.584 297.628 822.032 298.144 821.24 298.144C820.376 298.144 819.8 297.748 819.8 296.92C819.8 296.128 820.34 295.636 821.204 295.636C822.02 295.636 822.584 296.176 822.584 296.884ZM823.244 301.864C823.244 302.452 822.488 302.932 821.228 302.932C820.04 302.932 819.5 302.536 819.5 302.02C819.5 301.456 820.124 301 820.784 301C820.868 301 820.94 301 821.024 301C822.332 301 823.244 301.192 823.244 301.864Z" fill="#60759F"/>
<path d="M827.07 292.036H825.702V301.18H827.07V297.1C827.166 296.416 827.802 295.732 828.63 295.732C829.758 295.732 829.95 296.548 829.95 297.22V301.18H831.342V297.016C831.342 295.732 830.634 294.604 828.894 294.604C827.802 294.604 827.19 295.264 827.07 295.432V292.036Z" fill="#60759F"/>
<path d="M836.627 294.784H834.779V292.948H833.411V294.784H832.307V295.828H833.411V299.428C833.411 300.64 834.227 301.204 835.583 301.216C836.243 301.228 836.303 301.216 836.375 301.204L836.951 300.052C836.819 300.064 836.147 300.1 835.895 300.1C835.859 300.1 835.835 300.1 835.823 300.1C835.055 300.1 834.779 299.848 834.779 299.044V295.828H836.627V294.784Z" fill="#60759F"/>
<path fill-rule="evenodd" clip-rule="evenodd" d="M414 240L374 240L374 238L414 238L414 240Z" fill="white"/>
<path d="M325 209H265V269H325V209Z" fill="url(#paint1_linear)"/>
<path fill-rule="evenodd" clip-rule="evenodd" d="M281.259 224.004C281.947 224.004 282.51 224.564 282.51 225.255C282.51 225.945 281.947 226.506 281.259 226.506C280.57 226.506 280.007 225.945 280.007 225.255C280.007 224.564 280.57 224.004 281.259 224.004ZM281.259 229.008C281.834 229.008 282.378 228.865 282.868 228.632L300.749 246.521H297.532V249.023H303.791C304.482 249.023 305.042 248.462 305.042 247.772V241.517H302.539V244.772L284.638 226.863C284.871 226.373 285.014 225.833 285.014 225.255C285.014 223.186 283.329 221.502 281.259 221.502C279.188 221.502 277.503 223.186 277.503 225.255C277.503 227.324 279.188 229.008 281.259 229.008ZM302.539 236.513H305.042V229.008H302.539V236.513ZM285.014 249.023H292.525V246.521H285.014V249.023ZM278.755 249.023C278.067 249.023 277.503 248.462 277.503 247.772C277.503 247.081 278.067 246.521 278.755 246.521C279.443 246.521 280.007 247.081 280.007 247.772C280.007 248.462 279.443 249.023 278.755 249.023ZM303.791 224.004C303.102 224.004 302.539 223.443 302.539 222.753C302.539 222.062 303.102 221.502 303.791 221.502C304.479 221.502 305.042 222.062 305.042 222.753C305.042 223.443 304.479 224.004 303.791 224.004ZM307.138 224.419C307.391 223.914 307.546 223.353 307.546 222.753C307.546 220.684 305.861 219 303.791 219C301.72 219 300.035 220.684 300.035 222.753C300.035 224.822 301.72 226.506 303.791 226.506C304.339 226.506 304.857 226.381 305.325 226.17C309.026 229.113 312.268 232.398 312.481 238.822C312.663 244.357 311.096 248.93 307.944 252.055C304.8 255.172 300.206 256.706 294.708 256.476C288.361 256.218 285.092 253 282.157 249.333C282.378 248.857 282.51 248.329 282.51 247.772C282.51 245.703 280.825 244.019 278.755 244.019C276.685 244.019 275 245.703 275 247.772C275 249.841 276.685 251.524 278.755 251.524C279.346 251.524 279.897 251.374 280.395 251.132C283.554 255.035 287.375 258.682 294.605 258.977C294.996 258.992 295.381 259 295.762 259C301.482 259 306.287 257.224 309.709 253.829C313.364 250.203 315.189 244.987 314.984 238.74C314.739 231.427 311.071 227.586 307.138 224.419Z" fill="white"/>
<path d="M553 209H493V269H553V209Z" fill="url(#paint2_linear)"/>
<path fill-rule="evenodd" clip-rule="evenodd" d="M538.017 245.542C538.017 244.703 537.344 244.02 536.515 244.02C535.685 244.02 535.012 244.703 535.012 245.542C535.012 246.38 535.685 247.064 536.515 247.064C537.344 247.064 538.017 246.38 538.017 245.542ZM535.616 248.43C534.637 248.117 533.876 247.316 533.616 246.303H531.256V254.469C533.522 253.278 535.179 251.075 535.616 248.43ZM529.754 255.075V245.542C529.754 245.122 530.09 244.781 530.505 244.781H533.616C533.794 244.088 534.202 243.492 534.758 243.084C533.783 241.265 532.159 239.862 530.238 239.174C529.866 240.006 529.139 240.633 528.251 240.868V255.361C528.768 255.311 529.267 255.217 529.754 255.075ZM526.749 255.361V240.868C525.861 240.633 525.134 240.006 524.763 239.174C522.841 239.862 521.217 241.265 520.242 243.084C520.798 243.492 521.207 244.088 521.384 244.781H524.495C524.91 244.781 525.247 245.122 525.247 245.542V255.075C525.733 255.217 526.232 255.311 526.749 255.361ZM523.744 254.469V246.303H521.384C521.124 247.316 520.364 248.117 519.384 248.43C519.821 251.075 521.478 253.278 523.744 254.469ZM518.486 247.064C519.315 247.064 519.988 246.38 519.988 245.542C519.988 244.703 519.315 244.02 518.486 244.02C517.656 244.02 516.983 244.703 516.983 245.542C516.983 246.38 517.656 247.064 518.486 247.064ZM525.998 237.932C525.998 238.771 526.671 239.454 527.5 239.454C528.329 239.454 529.003 238.771 529.003 237.932C529.003 237.093 528.329 236.41 527.5 236.41C526.671 236.41 525.998 237.093 525.998 237.932ZM539.519 245.542C539.519 247 538.502 248.217 537.152 248.514C536.642 251.984 534.335 254.86 531.256 256.177V260H529.754V256.675C529.264 256.795 528.764 256.879 528.251 256.92V260H526.749V256.92C526.237 256.879 525.736 256.795 525.247 256.675V260H523.744V256.177C520.666 254.86 518.358 251.984 517.849 248.514C516.498 248.217 515.481 247 515.481 245.542C515.481 243.863 516.829 242.498 518.486 242.498C518.604 242.498 518.719 242.521 518.834 242.533C520.02 240.221 522.081 238.453 524.524 237.657C524.662 236.109 525.936 234.888 527.5 234.888C529.064 234.888 530.338 236.109 530.476 237.657C532.919 238.453 534.981 240.221 536.166 242.533C536.282 242.521 536.396 242.498 536.515 242.498C538.172 242.498 539.519 243.863 539.519 245.542ZM543.998 237.824C544.036 240.046 543.166 242.203 541.671 243.627L540.64 242.519C541.833 241.382 542.527 239.65 542.496 237.888C542.496 234.482 540.027 231.729 536.752 231.42C536.346 231.38 536.046 231.019 536.073 230.607L536.089 230.345C536.089 228.149 534.336 226.362 532.182 226.362C531.174 226.362 530.218 226.755 529.486 227.467C529.302 227.644 529.043 227.718 528.798 227.659C528.552 227.603 528.35 227.425 528.262 227.184C526.904 223.498 523.399 221.022 519.543 221.022C514.404 221.022 510.222 225.282 510.222 230.519C510.222 230.849 510.014 231.144 509.704 231.246C506.892 232.179 505.002 234.829 505.002 237.841C505.002 241.668 508.058 244.781 511.812 244.781V246.303C507.228 246.303 503.499 242.507 503.499 237.841C503.499 234.351 505.582 231.26 508.734 229.985C509.009 224.154 513.753 219.5 519.543 219.5C523.684 219.5 527.475 221.956 529.271 225.708C530.134 225.143 531.139 224.84 532.182 224.84C535.05 224.84 537.405 227.125 537.581 230C541.285 230.682 543.998 233.929 543.998 237.824Z" fill="white"/>
<path d="M833 209H773V269H833V209Z" fill="url(#paint3_linear)"/>
<path fill-rule="evenodd" clip-rule="evenodd" d="M820.5 231.5C820.5 230.81 819.937 230.25 819.25 230.25C818.562 230.25 818 230.81 818 231.5C818 232.19 818.562 232.75 819.25 232.75C819.937 232.75 820.5 232.19 820.5 231.5ZM805.5 245.25C805.5 244.56 804.937 244 804.25 244C803.562 244 803 244.56 803 245.25C803 245.94 803.562 246.5 804.25 246.5C804.937 246.5 805.5 245.94 805.5 245.25ZM788 247.75C788 247.06 787.437 246.5 786.75 246.5C786.062 246.5 785.5 247.06 785.5 247.75C785.5 248.44 786.062 249 786.75 249C787.437 249 788 248.44 788 247.75ZM803 232.75C803 233.44 803.562 234 804.25 234C804.937 234 805.5 233.44 805.5 232.75C805.5 232.06 804.937 231.5 804.25 231.5C803.562 231.5 803 232.06 803 232.75ZM823 231.5C823 233.568 821.317 235.25 819.25 235.25C819.002 235.25 818.765 235.222 818.53 235.177L807.717 243.83C807.897 244.267 808 244.748 808 245.25C808 247.318 806.317 249 804.25 249C802.182 249 800.5 247.318 800.5 245.25C800.5 243.622 801.547 242.247 803 241.73V236.27C802.825 236.208 802.66 236.133 802.5 236.045L790.205 246.292C790.395 246.74 790.5 247.233 790.5 247.75C790.5 249.818 788.817 251.5 786.75 251.5C784.682 251.5 783 249.818 783 247.75C783 245.682 784.682 244 786.75 244C787.385 244 787.975 244.172 788.5 244.455L800.795 234.208C800.605 233.76 800.5 233.267 800.5 232.75C800.5 230.682 802.182 229 804.25 229C806.317 229 808 230.682 808 232.75C808 234.378 806.952 235.753 805.5 236.27V241.73C805.685 241.797 805.862 241.877 806.032 241.97L816.285 233.77C815.8 233.138 815.5 232.357 815.5 231.5C815.5 229.432 817.182 227.75 819.25 227.75C821.317 227.75 823 229.432 823 231.5ZM821.75 221.5H786.75C786.06 221.5 785.5 222.06 785.5 222.75V241.5H788V224H820.5V226.5H823V222.75C823 222.06 822.44 221.5 821.75 221.5ZM820.5 239H823V257.75C823 258.44 822.44 259 821.75 259H786.75C786.06 259 785.5 258.44 785.5 257.75V254H788V256.5H820.5V239Z" fill="white"/>
<path d="M693 209H633V269H693V209Z" fill="url(#paint4_linear)"/>
<path fill-rule="evenodd" clip-rule="evenodd" d="M679.418 243.083C677.734 243.083 676.364 241.76 676.364 240.135C676.364 238.509 677.734 237.187 679.418 237.187C681.103 237.187 682.473 238.509 682.473 240.135C682.473 241.76 681.103 243.083 679.418 243.083ZM671.98 253.813C668.83 256.852 664.646 258.526 660.201 258.526C657.173 258.526 654.247 257.736 651.677 256.25C651.826 255.814 651.927 255.357 651.927 254.874C651.927 254.751 651.9 254.635 651.891 254.516L675.739 242.745C676.014 243.105 676.342 243.42 676.715 243.687C676.205 247.56 674.38 251.496 671.98 253.813ZM647.345 257.822C645.661 257.822 644.291 256.499 644.291 254.874C644.291 253.248 645.661 251.926 647.345 251.926C649.03 251.926 650.4 253.248 650.4 254.874C650.4 256.499 649.03 257.822 647.345 257.822ZM643.527 242.437C643.527 238.145 645.262 234.108 648.411 231.067C650.803 228.759 654.887 227.002 658.918 226.507C659.197 226.877 659.532 227.201 659.913 227.471L647.672 250.483C647.565 250.459 647.457 250.452 647.345 250.452C646.846 250.452 646.373 250.549 645.922 250.692C644.367 248.207 643.527 245.366 643.527 242.437ZM662.618 220.974C664.303 220.974 665.673 222.296 665.673 223.922C665.673 225.547 664.303 226.87 662.618 226.87C660.934 226.87 659.564 225.547 659.564 223.922C659.564 222.296 660.934 220.974 662.618 220.974ZM649.974 251.263C649.733 251.098 649.473 250.955 649.2 250.838L661.279 228.128C661.705 228.255 662.149 228.343 662.618 228.343C663.764 228.343 664.799 227.922 665.604 227.248C667.759 227.96 669.754 229.111 671.452 230.616L649.974 251.263ZM677.161 222.364C678.845 222.364 680.215 223.686 680.215 225.312C680.215 226.937 678.845 228.259 677.161 228.259C675.478 228.259 674.106 226.937 674.106 225.312C674.106 223.686 675.478 222.364 677.161 222.364ZM651.057 252.302L672.487 231.621C674.038 233.26 675.221 235.187 675.954 237.272C675.267 238.046 674.836 239.038 674.836 240.135C674.836 240.587 674.928 241.015 675.059 241.424L651.507 253.048C651.382 252.784 651.231 252.535 651.057 252.302ZM679.418 235.713C678.612 235.713 677.863 235.933 677.205 236.288C676.39 234.189 675.159 232.252 673.578 230.59L675.059 229.217C675.693 229.536 676.399 229.733 677.161 229.733C679.689 229.733 681.743 227.749 681.743 225.312C681.743 222.874 679.689 220.89 677.161 220.89C674.635 220.89 672.579 222.874 672.579 225.312C672.579 226.48 673.062 227.539 673.831 228.329L672.533 229.577C670.806 228.034 668.793 226.836 666.614 226.041C666.977 225.409 667.2 224.694 667.2 223.922C667.2 221.484 665.144 219.5 662.618 219.5C660.092 219.5 658.036 221.484 658.036 223.922C658.036 224.339 658.116 224.734 658.227 225.117C654.043 225.733 649.849 227.596 647.332 230.025C643.894 233.344 642 237.751 642 242.437C642 245.607 642.889 248.689 644.56 251.388C643.475 252.197 642.764 253.451 642.764 254.874C642.764 257.312 644.819 259.295 647.345 259.295C648.822 259.295 650.125 258.606 650.964 257.555C653.752 259.151 656.923 260 660.201 260C665.056 260 669.622 258.172 673.06 254.855C675.624 252.383 677.518 248.428 678.155 244.365C678.56 244.477 678.977 244.556 679.418 244.556C681.944 244.556 684 242.573 684 240.135C684 237.697 681.944 235.713 679.418 235.713Z" fill="white"/>
<path fill-rule="evenodd" clip-rule="evenodd" d="M202 127H154V125H204V351H154V349H202V127Z" fill="#2C48FF"/>
<path fill-rule="evenodd" clip-rule="evenodd" d="M204 184H154V182H204V184Z" fill="#2C48FF"/>
<path fill-rule="evenodd" clip-rule="evenodd" d="M204 296H154V294H204V296Z" fill="#2C48FF"/>
<path d="M32 32H84V84H32V32Z" fill="#232F3E"/>
<path d="M46 46.7998V53.1998H70V46.7998H46ZM51.2 51.1994H48.8V48.7994H51.2V51.1994Z" fill="white"/>
<path d="M46 61.1998H70V54.7998H46V61.1998ZM48.8 56.7994H51.2V59.1994H48.8V56.7994V56.7994Z" fill="white"/>
<path d="M46 69.1998H70V62.7998H46V69.1998ZM48.8 64.7994H51.2V67.1994H48.8V64.7994V64.7994Z" fill="white"/>
<path d="M414 32H466V84H414V32Z" fill="#232F3E"/>
<path d="M431.272 54.6872C431.272 55.1795 431.326 55.5786 431.419 55.8713C431.525 56.1639 431.658 56.4832 431.844 56.8291C431.911 56.9355 431.938 57.042 431.938 57.1351C431.938 57.2681 431.858 57.4012 431.685 57.5342L430.847 58.093C430.727 58.1728 430.607 58.2127 430.501 58.2127C430.368 58.2127 430.235 58.1462 430.102 58.0264C429.915 57.8269 429.756 57.614 429.623 57.4012C429.49 57.175 429.357 56.9222 429.21 56.6163C428.173 57.8402 426.869 58.4522 425.299 58.4522C424.182 58.4522 423.29 58.1329 422.638 57.4943C421.986 56.8557 421.654 56.0043 421.654 54.94C421.654 53.8092 422.053 52.8913 422.864 52.1995C423.676 51.5077 424.754 51.1618 426.124 51.1618C426.576 51.1618 427.042 51.2017 427.534 51.2682C428.026 51.3347 428.532 51.4412 429.064 51.5609V50.5897C429.064 49.5787 428.851 48.8736 428.439 48.4612C428.013 48.0488 427.295 47.8492 426.27 47.8492C425.805 47.8492 425.326 47.9024 424.833 48.0221C424.341 48.1419 423.862 48.2882 423.397 48.4745C423.184 48.5676 423.024 48.6208 422.931 48.6474C422.838 48.674 422.771 48.6873 422.718 48.6873C422.532 48.6873 422.439 48.5543 422.439 48.2749V47.623C422.439 47.4102 422.465 47.2505 422.532 47.1574C422.598 47.0643 422.718 46.9712 422.904 46.878C423.37 46.6386 423.929 46.439 424.581 46.2794C425.233 46.1064 425.924 46.0266 426.656 46.0266C428.239 46.0266 429.397 46.3858 430.142 47.1042C430.873 47.8226 431.246 48.9135 431.246 50.3769V54.6872H431.272ZM425.871 56.7094C426.31 56.7094 426.762 56.6296 427.241 56.4699C427.72 56.3103 428.146 56.0176 428.505 55.6185C428.718 55.3657 428.878 55.0863 428.958 54.7671C429.037 54.4478 429.091 54.062 429.091 53.6096V53.0509C428.705 52.9578 428.292 52.878 427.867 52.8247C427.441 52.7715 427.028 52.7449 426.616 52.7449C425.725 52.7449 425.073 52.9179 424.634 53.2771C424.195 53.6363 423.982 54.1418 423.982 54.807C423.982 55.4322 424.142 55.8979 424.474 56.2172C424.793 56.5497 425.259 56.7094 425.871 56.7094ZM436.554 58.1462C436.314 58.1462 436.155 58.1063 436.048 58.0131C435.942 57.9333 435.849 57.7471 435.769 57.4943L432.643 47.2106C432.563 46.9446 432.523 46.7716 432.523 46.6785C432.523 46.4656 432.629 46.3459 432.842 46.3459H434.146C434.399 46.3459 434.572 46.3858 434.665 46.4789C434.771 46.5588 434.851 46.745 434.931 46.9978L437.166 55.8047L439.241 46.9978C439.308 46.7317 439.388 46.5588 439.494 46.4789C439.6 46.3991 439.787 46.3459 440.026 46.3459H441.09C441.343 46.3459 441.516 46.3858 441.623 46.4789C441.729 46.5588 441.822 46.745 441.875 46.9978L443.977 55.9112L446.279 46.9978C446.359 46.7317 446.452 46.5588 446.545 46.4789C446.651 46.3991 446.824 46.3459 447.064 46.3459H448.301C448.514 46.3459 448.634 46.4523 448.634 46.6785C448.634 46.745 448.62 46.8115 448.607 46.8913C448.594 46.9712 448.567 47.0776 448.514 47.2239L445.308 57.5076C445.228 57.7737 445.135 57.9466 445.028 58.0264C444.922 58.1063 444.749 58.1595 444.523 58.1595H443.379C443.126 58.1595 442.953 58.1196 442.846 58.0264C442.74 57.9333 442.647 57.7604 442.594 57.4943L440.532 48.9135L438.483 57.481C438.416 57.7471 438.337 57.92 438.23 58.0131C438.124 58.1063 437.937 58.1462 437.698 58.1462H436.554ZM453.649 58.5054C452.957 58.5054 452.265 58.4255 451.6 58.2659C450.935 58.1063 450.416 57.9333 450.07 57.7338C449.857 57.614 449.711 57.481 449.658 57.3613C449.605 57.2415 449.578 57.1085 449.578 56.9888V56.3103C449.578 56.0309 449.684 55.8979 449.884 55.8979C449.964 55.8979 450.044 55.9112 450.124 55.9378C450.203 55.9644 450.323 56.0176 450.456 56.0708C450.908 56.2704 451.401 56.43 451.919 56.5364C452.452 56.6429 452.97 56.6961 453.503 56.6961C454.341 56.6961 454.993 56.5497 455.445 56.2571C455.897 55.9644 456.137 55.5387 456.137 54.9932C456.137 54.6207 456.017 54.3147 455.778 54.062C455.538 53.8092 455.086 53.583 454.434 53.3702L452.505 52.7715C451.534 52.4655 450.815 52.0132 450.376 51.4146C449.937 50.8292 449.711 50.1773 449.711 49.4855C449.711 48.9268 449.831 48.4346 450.07 48.0088C450.31 47.5831 450.629 47.2106 451.028 46.9179C451.427 46.612 451.88 46.3858 452.412 46.2262C452.944 46.0665 453.503 46 454.088 46C454.381 46 454.687 46.0133 454.979 46.0532C455.285 46.0931 455.565 46.1463 455.844 46.1996C456.11 46.2661 456.363 46.3326 456.602 46.4124C456.842 46.4922 457.028 46.5721 457.161 46.6519C457.347 46.7583 457.48 46.8647 457.56 46.9845C457.64 47.0909 457.68 47.2372 457.68 47.4235V48.0488C457.68 48.3281 457.574 48.4745 457.374 48.4745C457.268 48.4745 457.095 48.4213 456.868 48.3148C456.11 47.9689 455.259 47.796 454.314 47.796C453.556 47.796 452.957 47.9157 452.545 48.1685C452.132 48.4213 451.919 48.8071 451.919 49.3525C451.919 49.725 452.053 50.0443 452.319 50.2971C452.585 50.5498 453.077 50.8026 453.782 51.0288L455.671 51.6274C456.629 51.9334 457.321 52.3591 457.733 52.9046C458.146 53.45 458.345 54.0753 458.345 54.7671C458.345 55.3391 458.225 55.858 457.999 56.3103C457.76 56.7626 457.44 57.1617 457.028 57.481C456.616 57.8136 456.123 58.053 455.551 58.226C454.953 58.4122 454.327 58.5054 453.649 58.5054Z" fill="white"/>
<path fill-rule="evenodd" clip-rule="evenodd" d="M456.163 64.9716C451.787 68.2043 445.427 69.9205 439.96 69.9205C432.297 69.9205 425.392 67.0868 420.177 62.3774C419.765 62.0049 420.137 61.4993 420.63 61.792C426.27 65.0647 433.228 67.0469 440.425 67.0469C445.281 67.0469 450.616 66.0358 455.525 63.9605C456.257 63.6279 456.882 64.4394 456.163 64.9716Z" fill="white"/>
<path fill-rule="evenodd" clip-rule="evenodd" d="M457.986 62.8959C457.427 62.1775 454.288 62.55 452.864 62.7229C452.438 62.7761 452.372 62.4036 452.758 62.1243C455.259 60.3682 459.37 60.8737 459.849 61.4591C460.327 62.0577 459.715 66.1685 457.374 68.1375C457.015 68.4435 456.669 68.2838 456.829 67.8847C457.361 66.5677 458.545 63.601 457.986 62.8959Z" fill="white"/>
<defs>
<linearGradient id="paint0_linear" x1="160.115" y1="460.445" x2="301.441" y2="-78.8405" gradientUnits="userSpaceOnUse">
<stop stop-color="#2C48FF"/>
<stop offset="1" stop-color="#00007D"/>
</linearGradient>
<linearGradient id="paint1_linear" x1="265" y1="269" x2="325" y2="209" gradientUnits="userSpaceOnUse">
<stop stop-color="#1B660F"/>
<stop offset="1" stop-color="#6CAE3E"/>
</linearGradient>
<linearGradient id="paint2_linear" x1="493" y1="269" x2="553" y2="209" gradientUnits="userSpaceOnUse">
<stop stop-color="#1B660F"/>
<stop offset="1" stop-color="#6CAE3E"/>
</linearGradient>
<linearGradient id="paint3_linear" x1="773" y1="269" x2="833" y2="209" gradientUnits="userSpaceOnUse">
<stop stop-color="#4D27A8"/>
<stop offset="1" stop-color="#A166FF"/>
</linearGradient>
<linearGradient id="paint4_linear" x1="633" y1="269" x2="693" y2="209" gradientUnits="userSpaceOnUse">
<stop stop-color="#1B660F"/>
<stop offset="1" stop-color="#6CAE3E"/>
</linearGradient>
</defs>
</svg>
