<svg width="24" height="24" viewBox="0 0 24 24" fill="none" xmlns="http://www.w3.org/2000/svg">
<path d="M12 0C8.58216 0.0751174 5.74648 1.23944 3.49296 3.49296C1.23944 5.74648 0.0751174 8.58216 0 12C0.0375587 14.7042 0.807512 17.0704 2.30986 19.0986C3.81221 21.1268 5.78404 22.5728 8.22535 23.4366C8.48826 23.4742 8.67606 23.4178 8.78873 23.2676C8.93897 23.1549 9.01408 23.0047 9.01408 22.8169V20.7887C7.3615 21.0516 6.25352 20.8826 5.69014 20.2817C5.16432 19.6432 4.92019 19.2676 4.95775 19.1549C4.65728 18.4789 4.35681 18.0282 4.05634 17.8028C3.79343 17.5399 3.64319 17.4085 3.60563 17.4085C3.15493 17.0704 3.04225 16.8639 3.26761 16.7887C3.49296 16.7136 3.64319 16.6761 3.71831 16.6761C4.31925 16.7887 4.76995 17.0141 5.07042 17.3521C5.37089 17.6901 5.52113 17.8779 5.52113 17.9155C6.08451 18.7793 6.70423 19.2113 7.38028 19.2113C8.0939 19.2113 8.65728 19.1174 9.07042 18.9296C9.1831 18.1408 9.42723 17.5962 9.80282 17.2958C8.41315 17.2207 7.17371 16.7887 6.08451 16C4.99531 15.1737 4.41315 13.6338 4.33803 11.3803C4.33803 10.0657 4.75117 8.99531 5.57746 8.16901C5.50235 7.98122 5.42723 7.60563 5.35211 7.04225C5.277 6.47887 5.38967 5.78404 5.69014 4.95775C5.69014 4.92019 5.95305 4.93897 6.47887 5.01408C7.00469 5.0892 7.84976 5.48357 9.01408 6.19718C9.95305 5.93427 10.9484 5.80282 12 5.80282C13.0516 5.80282 14.0469 5.93427 14.9859 6.19718C16.1502 5.48357 16.9953 5.0892 17.5211 5.01408C18.0469 4.93897 18.3099 4.92019 18.3099 4.95775C18.6103 5.78404 18.723 6.47887 18.6479 7.04225C18.6103 7.60563 18.5352 7.98122 18.4225 8.16901C19.2488 8.99531 19.662 10.0657 19.662 11.3803C19.5869 13.6338 19.0047 15.1737 17.9155 16C16.8263 16.7887 15.5869 17.2207 14.1972 17.2958C14.4225 17.4836 14.6103 17.7653 14.7606 18.1408C14.9108 18.5164 14.9859 18.9859 14.9859 19.5493V22.8169C14.9859 23.0047 15.0423 23.1549 15.1549 23.2676C15.3052 23.4178 15.5305 23.4742 15.831 23.4366C18.2347 22.5728 20.1878 21.1268 21.6901 19.0986C23.1925 17.0704 23.9624 14.7042 24 12C23.9249 8.58216 22.7606 5.74648 20.507 3.49296C18.2535 1.23944 15.4178 0.0751174 12 0Z" fill="white"/>
</svg>
