<svg width="283" height="132" viewBox="0 0 283 132" fill="none" xmlns="http://www.w3.org/2000/svg">
<path d="M9.49723 81.2635C10.2418 84.9863 11.9436 88.1773 14.4964 90.7301C17.1556 93.2828 20.5593 94.5592 24.9203 94.5592C28.2176 94.5592 30.9831 93.921 33.1104 92.751C35.2378 91.581 36.9396 89.8791 38.3224 87.8582C39.5988 85.8372 40.556 83.4972 40.9815 80.838C41.5133 78.1789 41.7261 75.4134 41.7261 72.5415V5.63739H51.4054V73.2861C51.4054 76.3707 51.0863 79.7744 50.4481 83.1781C49.8099 86.5818 48.5335 89.8791 46.6189 92.8574C44.7043 95.8356 42.1515 98.282 38.8542 100.197C35.5569 102.111 31.3022 103.068 26.0903 103.068C19.1765 103.068 13.5391 101.26 9.07177 97.5375C4.6044 93.8147 1.73252 89.2409 0.5625 83.6035L9.49723 81.2635Z" fill="#003E3E"/>
<path d="M132.457 68.1805C132.457 68.8187 132.457 69.4569 132.457 70.2015C132.457 70.946 132.457 71.6906 132.35 72.4351H80.231C80.3374 75.5197 80.9756 78.498 82.1456 81.2635C83.3157 84.029 84.9111 86.4754 86.9321 88.4964C88.953 90.5173 91.3995 92.2192 94.165 93.3892C96.9305 94.5592 99.9087 95.1974 103.206 95.1974C107.993 95.1974 112.034 94.1338 115.438 91.9001C118.842 89.6664 121.501 87.22 123.309 84.3481L130.117 89.6664C126.394 94.4529 122.246 97.8566 117.672 99.8775C113.098 101.898 108.312 102.962 103.1 102.962C98.4196 102.962 94.165 102.111 90.1231 100.516C86.1875 98.8139 82.6775 96.5802 79.8056 93.6019C76.9337 90.6237 74.7 87.1136 72.9982 83.1781C71.2963 79.1362 70.5518 74.7752 70.5518 69.9887C70.5518 65.2023 71.4027 60.8413 72.9982 56.7994C74.5937 52.7575 76.8273 49.2474 79.6992 46.3755C82.5711 43.3973 85.8684 41.1636 89.804 39.4617C93.6331 37.7599 97.7814 37.0153 102.249 37.0153C107.142 37.0153 111.503 37.8662 115.225 39.4617C118.948 41.0572 122.139 43.3973 124.586 46.1628C127.138 49.0347 128.947 52.2256 130.329 56.0548C131.818 59.884 132.457 63.9259 132.457 68.1805ZM123.203 65.2023C122.884 59.2458 121.076 54.3529 117.459 50.5238C113.949 46.5882 108.843 44.6737 102.355 44.6737C99.2705 44.6737 96.505 45.2055 93.8459 46.3755C91.2931 47.5455 88.953 49.0347 87.0385 50.9492C85.0175 52.8638 83.5284 55.0975 82.3584 57.5439C81.1883 59.9903 80.5501 62.5431 80.3374 65.3086H123.203V65.2023Z" fill="#003E3E"/>
<path d="M163.835 47.971V103.175H154.688V47.971V40.3126V23.0814C154.688 15.9549 156.389 10.3175 159.899 6.16922C163.409 2.02095 168.728 0 175.961 0C177.131 0 178.407 0.106366 179.683 0.212732C181.066 0.319097 182.236 0.638195 183.406 0.957292L181.811 9.04109C180.853 8.722 179.79 8.50927 178.833 8.4029C177.875 8.19017 176.705 8.0838 175.429 8.0838C172.982 8.0838 171.068 8.50927 169.472 9.25383C167.877 10.1048 166.707 11.1684 165.856 12.6575C165.005 14.1467 164.473 15.8485 164.154 17.8695C163.835 19.8904 163.729 21.9114 163.729 24.145V40.2063V47.971H163.835Z" fill="#003E3E"/>
<path d="M194.574 47.971V103.175H185.427V47.971V40.3126V23.0814C185.427 15.9549 187.129 10.3175 190.639 6.16922C194.149 2.02095 199.467 0 206.806 0C207.976 0 209.253 0.106366 210.529 0.212732C211.912 0.319097 213.082 0.638195 214.252 0.957292L212.656 9.04109C211.699 8.722 210.635 8.50927 209.678 8.4029C208.721 8.19017 207.551 8.0838 206.274 8.0838C203.828 8.0838 201.913 8.50927 200.318 9.25383C198.722 10.1048 197.552 11.1684 196.702 12.6575C195.851 14.1467 195.319 15.8485 195 17.8695C194.681 19.8904 194.574 21.9114 194.574 24.145V40.2063V47.971Z" fill="#003E3E"/>
<path d="M252.862 90.0918H253.181L272.646 37.0153H282.538L251.267 116.045C249.352 120.832 247.012 124.767 244.034 127.639C241.162 130.511 236.907 132 231.483 132C228.717 132 225.952 131.681 223.292 131.149L224.25 122.853C226.377 123.597 228.611 123.916 230.951 123.916C234.035 123.916 236.588 122.959 238.29 121.044C240.098 119.13 241.694 116.364 242.97 112.748L248.076 99.5584L221.271 36.9089H231.483L252.862 90.0918Z" fill="#003E3E"/>
<path d="M134.797 55.7357L183.619 36.2707L179.364 48.6091L244.779 20.5286L166.068 61.6921L170.536 48.7155L134.797 55.7357Z" fill="#00CFC3"/>
</svg>
