<svg xmlns="http://www.w3.org/2000/svg" xmlns:xlink="http://www.w3.org/1999/xlink" width="366.41" height="251.05" viewBox="0 0 366.41 251.05"><defs><style>.cls-1,.cls-2,.cls-3,.cls-4,.cls-6{fill:none;stroke:#fff;}.cls-1,.cls-2,.cls-3,.cls-4{stroke-linecap:round;stroke-linejoin:round;stroke-width:0.5px;}.cls-2{clip-path:url(#clip-path);}.cls-3{clip-path:url(#clip-path-2);}.cls-4{clip-path:url(#clip-path-3);}.cls-5{fill:#fff;}.cls-6{stroke-miterlimit:10;stroke-width:0.5px;}.cls-7{isolation:isolate;}.cls-8{clip-path:url(#clip-path-4);}.cls-9{clip-path:url(#clip-path-5);}.cls-10{clip-path:url(#clip-path-6);}.cls-11{clip-path:url(#clip-path-7);}.cls-12{clip-path:url(#clip-path-8);}.cls-13{clip-path:url(#clip-path-9);}</style><clipPath id="clip-path"><path class="cls-1" d="M215.05,121.86l12.2,11.22c.73.93.5,2.28-.71,4L210,159a3.23,3.23,0,0,1-2.7,1.72,3.31,3.31,0,0,1-1.55-.5l-15-6.57-11.09,5.76-5.73,17.45a5.19,5.19,0,0,1-3.82,2.6l-25.45-.79q-3.24-.78-2.88-2.8l.36-17.62-9.66-6.41-17.12,5.58a4,4,0,0,1-1.72.39c-1,0-1.69-.65-2.07-1.87l-8.86-22.66q-.88-2.73,1.37-4l15.27-10.38,1.06-6.07,1.17-6.75L110,94.85c-1.18-.93-1.17-2.29,0-4.06L126.6,68.92a3.69,3.69,0,0,1,3-1.42,4.67,4.67,0,0,1,1.24.21l15,6.56,11.77-5.73,5.61-16.78c.32-1.81,1.59-2.67,3.82-2.6l25.46.79a2.67,2.67,0,0,1,2.87,2.8l-.24,17,9,6.37,17.13-5.56a5.4,5.4,0,0,1,1.28-.13,2.67,2.67,0,0,1,2.5,1.6l8.86,22.66q.87,2.73-.7,4L217.28,109l-.5,6.78Z"/></clipPath><clipPath id="clip-path-2"><path class="cls-2" d="M181.14,131a26.15,26.15,0,0,0,9.52-16q1.76-10.12-3.9-16.4-4.84-6.93-14.9-7.24a25.16,25.16,0,0,0-17.25,6.25q-7.06,5.88-8.83,16Q144.14,123,149,130q5.65,6.28,15.69,6.6a23.74,23.74,0,0,0,16.46-5.6"/></clipPath><clipPath id="clip-path-3"><path class="cls-3" d="M202.35,114.77a15.44,15.44,0,0,1,1.57,1.92l-17.16-18.1a16.32,16.32,0,0,0-1.56-1.92Z"/></clipPath><clipPath id="clip-path-4"><polygon class="cls-1" points="205.7 160.22 222.86 178.32 207.83 171.75 190.67 153.65 205.7 160.22"/></clipPath><clipPath id="clip-path-5"><polygon class="cls-1" points="190.67 153.65 207.83 171.75 196.74 177.51 179.58 159.41 190.67 153.65"/></clipPath><clipPath id="clip-path-6"><polygon class="cls-1" points="179.58 159.41 196.74 177.51 191.01 194.96 173.85 176.86 179.58 159.41"/></clipPath><clipPath id="clip-path-7"><path class="cls-1" d="M224.53,71.19l17.16,18.1a3.45,3.45,0,0,1,.53.78L225.06,72A3,3,0,0,0,224.53,71.19Z"/></clipPath><clipPath id="clip-path-8"><polygon class="cls-1" points="233.22 98.68 250.38 116.78 234.44 127.13 217.28 109.03 233.22 98.68"/></clipPath><clipPath id="clip-path-9"><path class="cls-4" d="M166.5,148.45l-17.16-18.1c-.12-.12-.23-.25-.35-.38l17.16,18.1C166.26,148.2,166.38,148.32,166.5,148.45Z"/></clipPath></defs><title>アセット 4</title><g id="レイヤー_2" data-name="レイヤー 2"><g id="レイヤー_1-2" data-name="レイヤー 1"><path class="cls-5" d="M249.65,203.59a11.29,11.29,0,0,1,5.06,1.23,10.64,10.64,0,0,1,5.76,6.6,11.39,11.39,0,0,1-.55,9,12.24,12.24,0,0,1-6.73,6.07,13.62,13.62,0,0,1-3.67.53,11.93,11.93,0,0,1-5.4-1.3,11.32,11.32,0,0,1-5.85-6.82,10.59,10.59,0,0,1,.62-8.75,11.34,11.34,0,0,1,6.83-5.85,12.27,12.27,0,0,1,3.93-.68m0-.5a13,13,0,0,0-4.09.7,11.82,11.82,0,0,0-7.12,6.1,11.07,11.07,0,0,0-.65,9.14,11.83,11.83,0,0,0,6.1,7.11,12.54,12.54,0,0,0,5.63,1.35,13.75,13.75,0,0,0,3.8-.55,12.66,12.66,0,0,0,7.05-6.32,11.83,11.83,0,0,0,.57-9.36,11,11,0,0,0-6-6.89,11.66,11.66,0,0,0-5.26-1.28Z"/><path class="cls-6" d="M278.28,195.79l-5.25,8,1.27,3,.89,3.41,9,3.18a1.57,1.57,0,0,1,.9,1.93L282.51,229a2,2,0,0,1-2,1.41l-9.35-.57a24.63,24.63,0,0,1-4.45,5.2l1.58,9.13a1.84,1.84,0,0,1-1,2.08l-13.35,4.48a1.84,1.84,0,0,1-2.08-1l-4.25-8.23a32,32,0,0,1-6.68-1.47l-7.12,6.1a1.61,1.61,0,0,1-2.23,0L221,236.8a1.47,1.47,0,0,1-.22-2.15l5-7.88-1.34-3.26-.82-3.2-8.77-3.25a1.71,1.71,0,0,1-1.19-2.07l2.87-13.59a1.89,1.89,0,0,1,1.7-1.57l9.43.8a20.87,20.87,0,0,1,4.45-5.2l-1.66-9.35"/><path class="cls-5" d="M71.48,132.41a5.61,5.61,0,0,1,4.42,1.83l0,0,0,0a5.61,5.61,0,0,1,1.83,4.42,6,6,0,0,1-1.85,4.43,5.7,5.7,0,0,1-4.24,1.65,6.68,6.68,0,0,1-4.63-1.65,6.36,6.36,0,0,1-1.65-4.43,6,6,0,0,1,6.08-6.29m0-.5a6.48,6.48,0,0,0-6.58,6.79,7,7,0,0,0,1.79,4.79,7.22,7.22,0,0,0,5,1.79,6.22,6.22,0,0,0,4.59-1.79,6.54,6.54,0,0,0,2-4.79,6.83,6.83,0,0,0-6.79-6.79Z"/><path class="cls-5" d="M75.47,120a.44.44,0,0,1,.51.37l.8,5,0,.23.2.12,3,1.8.2.12.23-.08,4.76-1.79a.93.93,0,0,1,.23,0,.43.43,0,0,1,.39.19l3.78,6.56c.08.17.2.47.1.61l-4.15,3.16-.22.17,0,.28.2,1.94-.19,1.75,0,.28.23.17,4.15,3.17c.1.13,0,.43-.09.57l-3.81,6.62c-.12.25-.22.25-.26.25a.54.54,0,0,1-.26-.08h0l-4.79-1.8-.23-.08-.2.12-3,1.8-.2.12,0,.23L76,156.93c-.06.14-.18.31-.58.42H67.94c-.15,0-.55-.13-.55-.29V157l-.8-5.19,0-.24-.21-.12-3.19-1.79-.21-.12-.21.08-4.79,1.8h0a.57.57,0,0,1-.27.08s-.13,0-.27-.28l-3.78-6.56c-.2-.4-.08-.49.06-.58l4-3.2.18-.15v-4.27l-.18-.15-4-3.22c-.11-.07-.23-.15,0-.53L57.33,126a.45.45,0,0,1,.41-.22.86.86,0,0,1,.22,0l4.77,1.79.21.08.21-.11,3.19-1.8.21-.12,0-.24.8-5v-.07c0-.16,0-.3.5-.3h7.58m0-.5H67.89c-.66,0-1,.26-1,.8l-.8,5-3.19,1.79-4.79-1.79a1.26,1.26,0,0,0-.37,0,.94.94,0,0,0-.83.44l-3.79,6.59c-.26.53-.2.93.2,1.2l4,3.19v3.79l-4,3.2c-.4.26-.46.66-.2,1.19l3.79,6.59a.81.81,0,0,0,.71.53,1.09,1.09,0,0,0,.49-.13l4.79-1.8,3.19,1.8.8,5.19c0,.4.34.66,1,.79h7.58a1.24,1.24,0,0,0,1-.79l.8-5.19,3-1.8,4.79,1.8a1.09,1.09,0,0,0,.49.13.8.8,0,0,0,.71-.53L90,144.88c.27-.53.27-.93,0-1.19l-4.19-3.2.2-1.79-.2-2L90,133.51q.4-.4,0-1.2l-3.79-6.59a.92.92,0,0,0-.82-.44,1.33,1.33,0,0,0-.38,0l-4.79,1.79-3-1.79-.8-5a.93.93,0,0,0-1-.8Z"/><path class="cls-1" d="M279.39,108.6a233.29,233.29,0,0,1-32.48,27.92"/><path class="cls-1" d="M177.64,30.64C239,11.87,291.58,15.83,304.13,43.25c7.17,15.66,0,36.23-17.61,57.36"/><path class="cls-1" d="M87.56,73.06a344.25,344.25,0,0,1,46.93-25.94,353.6,353.6,0,0,1,35.57-14.06"/><path class="cls-1" d="M136.07,188.78C79.59,203.8,32.49,198.73,20.71,173,9.27,148,34.34,110.55,80,78.24"/><path class="cls-1" d="M286.75,108.16c29.6,28.33,44.34,54.39,35.75,68.53-8.94,14.74-41.06,13-82.24-1.81"/><path class="cls-1" d="M177.64,33.62c12.09,6,24.52,12.76,37,20.35,24.73,15,46.6,31.18,64.2,46.91"/><path class="cls-1" d="M80.11,71.61C58.48,48,48.67,27.1,56,15c11.15-18.37,58.25-11.12,114,15"/><path class="cls-1" d="M101.46,92.37Q94,85.79,87.52,79.32"/><rect class="cls-1" x="279.07" y="100.73" width="7.57" height="7.57" transform="translate(-5.12 15.08) rotate(-3.03)"/><rect class="cls-1" x="170.06" y="28" width="7.57" height="7.57"/><rect class="cls-1" x="79.99" y="71.71" width="7.57" height="7.57"/><g class="cls-7"><g class="cls-7"><line class="cls-1" x1="227.25" y1="133.08" x2="244.41" y2="151.18"/></g><path class="cls-1" d="M244.41,151.18l-17.16-18.1c.73.93.5,2.28-.71,4L210,159a3.23,3.23,0,0,1-2.7,1.72,3.31,3.31,0,0,1-1.55-.5l17.16,18.1a3.31,3.31,0,0,0,1.55.5,3.24,3.24,0,0,0,2.7-1.73l16.59-21.87C244.91,153.46,245.14,152.11,244.41,151.18Z"/><g class="cls-7"><g class="cls-8"><polygon class="cls-1" points="205.7 160.22 222.86 178.32 207.83 171.75 190.67 153.65 205.7 160.22"/></g><polygon class="cls-1" points="205.7 160.22 222.86 178.32 207.83 171.75 190.67 153.65 205.7 160.22"/></g><g class="cls-7"><g class="cls-9"><polygon class="cls-1" points="190.67 153.65 207.83 171.75 196.74 177.51 179.58 159.41 190.67 153.65"/></g><polygon class="cls-1" points="190.67 153.65 207.83 171.75 196.74 177.51 179.58 159.41 190.67 153.65"/></g><g class="cls-7"><g class="cls-10"><polygon class="cls-1" points="179.58 159.41 196.74 177.51 191.01 194.96 173.85 176.86 179.58 159.41"/></g><polygon class="cls-1" points="179.58 159.41 196.74 177.51 191.01 194.96 173.85 176.86 179.58 159.41"/></g><path class="cls-1" d="M142.18,177.51l17.16,18.1,0,0c.07.07.16.13.24.2a1.24,1.24,0,0,0,.18.14,3.21,3.21,0,0,0,.31.19c.08,0,.14.08.22.11a4.27,4.27,0,0,0,.43.18l.22.09c.24.08.49.15.77.22l25.45.79A5.21,5.21,0,0,0,191,195l-17.16-18.1"/><path class="cls-1" d="M159.2,195.44a3.88,3.88,0,0,1-.34-1.7l.31-14.62"/><g class="cls-7"><line class="cls-1" x1="141.99" y1="161.95" x2="132.4" y2="151.84"/></g><line class="cls-1" x1="141.99" y1="161.95" x2="132.4" y2="151.84"/><path class="cls-1" d="M112.26,157.28l-.08-.07,17.16,18.1a.27.27,0,0,1,.08.07l.08.07a1.79,1.79,0,0,0,.51.31l.07,0a2.2,2.2,0,0,0,.64.12,4,4,0,0,0,1.71-.4l9.24-3"/><g class="cls-7"><line class="cls-1" x1="121.37" y1="155.43" x2="129.34" y2="175.31"/></g><path class="cls-1" d="M195.21,67.6l14.48.45.24,0a3.22,3.22,0,0,1,1.87.78l-17.16-18.1,0,0"/><path class="cls-1" d="M212.53,73.34l0-2.49a3.88,3.88,0,0,0-.08-.62l-.06-.19a2.15,2.15,0,0,0-.11-.36,1.11,1.11,0,0,0-.09-.19,2.44,2.44,0,0,0-.14-.28L212,69c0-.06-.09-.13-.15-.19l-17.16-18.1"/><g class="cls-7"><g class="cls-11"><g class="cls-7"><path class="cls-1" d="M222.56,70.38l17.16,18.1a2.66,2.66,0,0,1,2.5,1.59L225.06,72A2.67,2.67,0,0,0,222.56,70.38Z"/></g><path class="cls-1" d="M224.53,71.19l17.16,18.1a3.45,3.45,0,0,1,.53.78L225.06,72A3,3,0,0,0,224.53,71.19Z"/></g><path class="cls-1" d="M224.53,71.19l17.16,18.1a3.45,3.45,0,0,1,.53.78L225.06,72A3,3,0,0,0,224.53,71.19Z"/></g><path class="cls-1" d="M232.34,90.59l6.1-2h0a5.4,5.4,0,0,1,1.28-.13,3.38,3.38,0,0,1,.73.11l.18,0a2.32,2.32,0,0,1,.39.18l0,0,.14.08-.12-.05,1.2,1.25a2.74,2.74,0,0,0-1-1.14,2.48,2.48,0,0,1,.44.36l-17.16-18.1"/><path class="cls-1" d="M251.08,112.73l-8.86-22.66L225.06,72l8.86,22.66q.87,2.73-.7,4l17.16,18.1Q252,115.48,251.08,112.73Z"/><g class="cls-7"><g class="cls-12"><polygon class="cls-1" points="233.22 98.68 250.38 116.78 234.44 127.13 217.28 109.03 233.22 98.68"/></g><polygon class="cls-1" points="233.22 98.68 250.38 116.78 234.44 127.13 217.28 109.03 233.22 98.68"/></g><polyline class="cls-1" points="232.57 138.7 233.94 133.9 234.44 127.13 217.28 109.03 216.78 115.81"/><g class="cls-7"><g class="cls-13"><path class="cls-1" d="M181.14,131a26.15,26.15,0,0,0,9.52-16q1.76-10.12-3.9-16.4-4.84-6.93-14.9-7.24a25.16,25.16,0,0,0-17.25,6.25q-7.06,5.88-8.83,16Q144.14,123,149,130q5.65,6.28,15.69,6.6a23.74,23.74,0,0,0,16.46-5.6"/><path class="cls-1" d="M166.5,148.45l-17.16-18.1c-.12-.12-.23-.25-.35-.38l17.16,18.1C166.26,148.2,166.38,148.32,166.5,148.45Z"/></g><path class="cls-1" d="M215.05,121.86l12.2,11.22c.73.93.5,2.28-.71,4L210,159a3.23,3.23,0,0,1-2.7,1.72,3.31,3.31,0,0,1-1.55-.5l-15-6.57-11.09,5.76-5.73,17.45a5.19,5.19,0,0,1-3.82,2.6l-25.45-.79q-3.24-.78-2.88-2.8l.36-17.62-9.66-6.41-17.12,5.58a4,4,0,0,1-1.72.39c-1,0-1.69-.65-2.07-1.87l-8.86-22.66q-.88-2.73,1.37-4l15.27-10.38,1.06-6.07,1.17-6.75L110,94.85c-1.18-.93-1.17-2.29,0-4.06L126.6,68.92a3.69,3.69,0,0,1,3-1.42,4.67,4.67,0,0,1,1.24.21l15,6.56,11.77-5.73,5.61-16.78c.32-1.81,1.59-2.67,3.82-2.6l25.46.79a2.67,2.67,0,0,1,2.87,2.8l-.24,17,9,6.37,17.13-5.56a5.4,5.4,0,0,1,1.28-.13,2.67,2.67,0,0,1,2.5,1.6l8.86,22.66q.87,2.73-.7,4L217.28,109l-.5,6.78Z"/><path class="cls-1" d="M181.14,131a26.15,26.15,0,0,0,9.52-16q1.76-10.12-3.9-16.4-4.84-6.93-14.9-7.24a25.16,25.16,0,0,0-17.25,6.25q-7.06,5.88-8.83,16Q144.14,123,149,130q5.65,6.28,15.69,6.6a23.74,23.74,0,0,0,16.46-5.6"/><path class="cls-1" d="M202.35,114.77a15.44,15.44,0,0,1,1.57,1.92l-17.16-18.1a16.32,16.32,0,0,0-1.56-1.92Z"/><path class="cls-1" d="M166.5,148.45l-17.16-18.1c-.12-.12-.23-.25-.35-.38l17.16,18.1C166.26,148.2,166.38,148.32,166.5,148.45Z"/></g><path class="cls-1" d="M203.92,116.69c-2.89-4.14-7.19-6.49-12.87-7.09A26.24,26.24,0,0,1,181.14,131a23.74,23.74,0,0,1-16.46,5.6c-.73,0-1.45-.08-2.15-.16a20,20,0,0,0,3.62,11.66q5.65,6.28,15.69,6.59a23.69,23.69,0,0,0,16.46-5.59,26.18,26.18,0,0,0,9.52-16Q209.58,123,203.92,116.69Z"/></g><path class="cls-6" d="M1.89,133.62v-42a5,5,0,0,1,5-5H44.57a5,5,0,0,0,5-5V63.74"/><rect class="cls-6" x="0.25" y="133.62" width="3.29" height="3.29" transform="translate(-133.37 137.16) rotate(-90)"/><rect class="cls-6" x="47.92" y="60.45" width="3.29" height="3.29" transform="translate(-12.52 111.66) rotate(-90)"/><path class="cls-6" d="M321.77,91H311.14a5,5,0,0,0-5,5v54.85a5,5,0,0,1-5,5H243.26"/><line class="cls-6" x1="362.87" y1="90.96" x2="325.06" y2="90.96"/><rect class="cls-6" x="362.87" y="89.32" width="3.29" height="3.29"/><rect class="cls-6" x="352.31" y="120.04" width="3.29" height="3.29"/><rect class="cls-6" x="321.77" y="89.32" width="3.29" height="3.29"/><path class="cls-6" d="M323.41,92.6v24.08a5,5,0,0,0,5,5h23.9"/><path class="cls-6" d="M46.87,177h42a5,5,0,0,1,5,5v37.68a5,5,0,0,0,5,5h97"/><rect class="cls-6" x="43.58" y="175.31" width="3.29" height="3.29" transform="translate(-131.73 222.18) rotate(-90)"/><rect class="cls-6" x="195.88" y="222.98" width="3.29" height="3.29" transform="translate(-27.1 422.15) rotate(-90)"/><rect class="cls-6" x="173.06" y="235.39" width="3.29" height="3.29" transform="translate(-62.33 411.73) rotate(-90)"/><path class="cls-6" d="M132.22,224.63V232a5,5,0,0,0,5,5h35.84"/><path class="cls-6" d="M128.84,190.61v11.86a5,5,0,0,0,5,5h20a5,5,0,0,1,5,5v12.16"/><rect class="cls-6" x="334.1" y="63.71" width="3.29" height="3.29" transform="translate(671.49 130.7) rotate(180)"/><path class="cls-6" d="M286.8,49.57h-42a5,5,0,0,1-5-5V6.89a5,5,0,0,0-5-5H216.92"/><rect class="cls-6" x="286.8" y="47.92" width="3.29" height="3.29" transform="translate(576.89 99.14) rotate(180)"/><rect class="cls-6" x="213.63" y="0.25" width="3.29" height="3.29" transform="translate(430.54 3.79) rotate(180)"/><path class="cls-6" d="M239.83,33.22h90.92a5,5,0,0,1,5,5V63.71"/></g></g></svg>