<svg width="2939" height="1579" viewBox="0 0 2939 1579" fill="none" xmlns="http://www.w3.org/2000/svg">
<rect width="108.437" height="108.437" transform="matrix(-1 0 0 1 1960.68 423.231)" fill="#8AE3FF" fill-opacity="0.1"/>
<rect width="108.437" height="108.437" transform="matrix(-1 0 0 1 2020.92 501.547)" fill="#8AE3FF" fill-opacity="0.1"/>
<rect width="54.2186" height="54.2186" transform="matrix(-1 0 0 1 1737.77 260.576)" fill="#8AE3FF" fill-opacity="0.1"/>
<rect width="54.2186" height="54.2186" transform="matrix(-1 0 0 1 623.219 0)" fill="#8AE3FF" fill-opacity="0.1"/>
<rect width="96.3886" height="96.3886" transform="matrix(-1 0 0 1 979.312 477)" fill="#8AE3FF" fill-opacity="0.1"/>
<rect width="54.2186" height="54.2186" transform="matrix(-1 0 0 1 1239.22 565)" fill="#8AE3FF" fill-opacity="0.1"/>
<rect width="18.0729" height="18.0729" transform="matrix(-1 0 0 1 2008.87 260.576)" fill="#8AE3FF" fill-opacity="0.1"/>
<rect width="54.2186" height="54.2186" transform="matrix(-1 0 0 1 2186.5 572.807)" fill="#8AE3FF" fill-opacity="0.1"/>
<rect width="54.2186" height="54.2186" transform="matrix(-1 0 0 1 2508.31 770.516)" fill="#8AE3FF" fill-opacity="0.1"/>
<rect width="54.2186" height="54.2186" transform="matrix(-1 0 0 1 2938.31 665.457)" fill="#8AE3FF" fill-opacity="0.1"/>
<rect width="54.2186" height="54.2186" transform="matrix(-1 0 0 1 1560.31 805)" fill="#8AE3FF" fill-opacity="0.1"/>
<rect width="18.0729" height="18.0729" transform="matrix(-1 0 0 1 1695.61 784.688)" fill="#8AE3FF" fill-opacity="0.1"/>
<rect x="977.637" y="1142.66" width="108.437" height="108.437" fill="#8AE3FF" fill-opacity="0.1"/>
<rect x="917.395" y="1220.97" width="108.437" height="108.437" fill="#8AE3FF" fill-opacity="0.1"/>
<rect x="1200.54" y="980" width="54.2186" height="54.2186" fill="#8AE3FF" fill-opacity="0.1"/>
<rect x="2281" y="1284.42" width="54.2186" height="54.2186" fill="#8AE3FF" fill-opacity="0.1"/>
<rect x="1959" y="1196.42" width="96.3886" height="96.3886" fill="#8AE3FF" fill-opacity="0.1"/>
<rect x="1526" y="1212.42" width="54.2186" height="54.2186" fill="#8AE3FF" fill-opacity="0.1"/>
<rect x="929.442" y="980" width="18.0729" height="18.0729" fill="#8AE3FF" fill-opacity="0.1"/>
<rect x="751.809" y="1292.23" width="54.2186" height="54.2186" fill="#8AE3FF" fill-opacity="0.1"/>
<rect x="430" y="1489.94" width="54.2186" height="54.2186" fill="#8AE3FF" fill-opacity="0.1"/>
<rect y="1384.88" width="54.2186" height="54.2186" fill="#8AE3FF" fill-opacity="0.1"/>
<rect x="1378" y="1524.42" width="54.2186" height="54.2186" fill="#8AE3FF" fill-opacity="0.1"/>
<rect x="1242.7" y="1504.11" width="18.0729" height="18.0729" fill="#8AE3FF" fill-opacity="0.1"/>
</svg>
